<?xml version="1.0" standalone="no"?>
<!DOCTYPE svg PUBLIC "-//W3C//DTD SVG 1.1//EN" "http://www.w3.org/Graphics/SVG/1.1/DTD/svg11.dtd" >
<svg xmlns="http://www.w3.org/2000/svg" xmlns:xlink="http://www.w3.org/1999/xlink" version="1.1">
<metadata>
Created by FontForge 20170731 at Tue Apr  6 16:21:12 2004
 By Aleksey,,,
Digitized data (C) 2004 Agfa Monotype Corporation. Neo Sans(TM) is a trademark of Agfa Monotype Corporation and may be registered in certain jurisdictions.  All rights reserved. Neo Sans is designed by Sebastian Lester.
</metadata>
<defs>
<font id="NeoSans-LightItalic" horiz-adv-x="1188" >
  <font-face 
    font-family="Neo Sans Light"
    font-weight="300"
    font-style="italic"
    font-stretch="normal"
    units-per-em="2048"
    panose-1="2 11 3 4 2 2 2 9 2 4"
    ascent="1638"
    descent="-410"
    x-height="1100"
    cap-height="1522"
    bbox="-352 -442 2204 1968"
    underline-thickness="102"
    underline-position="-358"
    slope="-10"
    unicode-range="U+0020-F006"
  />
<missing-glyph horiz-adv-x="1024" 
d="M51 0v1536h922v-1536h-922zM179 128h666v1280h-666v-1280z" />
    <glyph glyph-name=".notdef" horiz-adv-x="1024" 
d="M51 0v1536h922v-1536h-922zM179 128h666v1280h-666v-1280z" />
    <glyph glyph-name=".null" horiz-adv-x="0" 
 />
    <glyph glyph-name="nonmarkingreturn" horiz-adv-x="440" 
 />
    <glyph glyph-name="space" unicode=" " horiz-adv-x="440" 
 />
    <glyph glyph-name="exclam" unicode="!" horiz-adv-x="418" 
d="M516 1489v-6l-192 -1090q-3 -15 -17 -27t-28 -12h-13q-13 0 -23 10t-10 23v6l193 1090q3 16 17 27.5t28 11.5h12q14 0 23.5 -9.5t9.5 -23.5zM285 184v-6l-27 -151q-3 -17 -16.5 -28t-28.5 -11h-12q-15 0 -24 9t-9 23v7l27 151q3 14 17 26.5t30 12.5h12q15 0 23 -9t8 -24z
" />
    <glyph glyph-name="quotedbl" unicode="&#x22;" horiz-adv-x="664" 
d="M821 1505q0 -10 -6 -22l-162 -353q-16 -38 -45 -38h-30q-17 0 -17 14q0 12 6 24l148 353q17 39 47 39h39q20 0 20 -17zM565 1505q0 -10 -6 -22l-162 -353q-16 -38 -45 -38h-30q-17 0 -17 14q0 12 6 24l148 353q17 39 47 39h39q20 0 20 -17z" />
    <glyph glyph-name="numbersign" unicode="#" horiz-adv-x="1303" 
d="M1380 1032v-6v-8q-3 -16 -17.5 -25.5t-29.5 -9.5h-213l-123 -463h213q29 0 29 -26v-9l-2 -6q-3 -16 -16.5 -25.5t-30.5 -9.5h-215l-107 -405q-11 -39 -43 -39h-18q-29 0 -29 29q1 2 1.5 4t0.5 6l107 405h-369l-106 -405q-5 -16 -17.5 -27.5t-25.5 -11.5h-21q-11 0 -20 8
t-9 21l2 6t1 4l106 405h-211q-31 0 -31 27v8l2 6q8 35 50 35h213l122 463h-213q-30 0 -30 29v6v8q3 15 17 25t32 10h213l113 422q5 16 18 27.5t27 11.5h20q27 0 27 -29q0 -2 -0.5 -4.5t-1.5 -5.5l-113 -422h369l112 422q12 39 45 39h19q26 0 26 -27q0 -8 -2 -12l-112 -422
h213q28 0 28 -29zM1032 983h-368l-123 -463h368z" />
    <glyph glyph-name="dollar" unicode="$" 
d="M1243 1483v-2l-4 -27q-6 -29 -43 -29q-16 0 -124 10.5t-177 10.5q-193 0 -311.5 -65t-118.5 -232q0 -31 10 -58t35 -56.5t62 -60t94 -71.5l178 -123q140 -96 196 -180.5t56 -169.5q0 -130 -58.5 -224t-163 -148t-237.5 -66l-37 -215q-7 -39 -39 -39h-20q-27 0 -27 31v6v2
l37 211h-4q-48 0 -113.5 4t-108.5 8.5t-92 9.5q-30 4 -30 27v4v2l4 27q5 26 43 26h6h2q52 -4 149 -13t154 -9q126 0 225.5 36.5t157 116t57.5 203.5q0 67 -48 125t-177 147l-182 127q-123 86 -173 159.5t-50 156.5q0 97 36 169.5t98 116.5t142.5 67.5t175.5 29.5l33 178
q8 39 37 39h20q29 0 29 -31v-6v-2l-33 -174h4q100 0 301 -21q29 -3 29 -24v-4z" />
    <glyph glyph-name="percent" unicode="%" horiz-adv-x="1550" 
d="M864 1305q0 -47 -8 -91l-39 -213q-29 -164 -108 -241.5t-205 -77.5q-102 0 -157.5 60.5t-55.5 168.5q0 47 8 90l39 213q31 167 110.5 242.5t204.5 75.5q99 0 155 -58.5t56 -168.5zM1530 1513q0 -8 -17 -30l-1110 -1456q-21 -26 -28 -32.5t-21 -6.5h-63q-12 0 -12 8
q0 7 16 31l1110 1456q21 26 28.5 32.5t20.5 6.5h62q14 0 14 -9zM1528 608q0 -46 -8 -90l-39 -213q-21 -112 -62.5 -182.5t-104.5 -103.5t-147 -33q-102 0 -157.5 60.5t-55.5 168.5q0 48 9 90l38 213q57 318 316 318q99 0 155 -58.5t56 -169.5zM784 1300q0 154 -145 154
q-176 0 -221 -240l-39 -213q-8 -43 -8 -86q0 -153 147 -153q175 0 219 239l39 213q8 44 8 86zM1448 604q0 154 -145 154q-83 0 -141 -60t-81 -180l-39 -213q-8 -44 -8 -86q0 -153 148 -153q174 0 219 239l39 213q8 44 8 86z" />
    <glyph glyph-name="ampersand" unicode="&#x26;" horiz-adv-x="1305" 
d="M1309 748q0 -5 -0.5 -7.5t-1.5 -5.5l-4 -22q-24 -140 -81 -267t-145 -225l146 -194q4 -4 4 -9q0 -18 -21 -18h-55q-21 0 -31 14l-104 138q-186 -164 -453 -164q-110 0 -201.5 31t-147.5 97t-56 163q0 40 4 63l4 12q11 58 33.5 108t64.5 97t113.5 99t177.5 114
q-91 135 -134.5 217.5t-43.5 171.5q0 17 4 45l2 13q29 174 147.5 243.5t298.5 69.5q88 0 162 -27t119 -83t45 -142q0 -28 -6 -61l-2 -13q-15 -86 -56.5 -149.5t-123 -125.5t-213.5 -134l-78 -43q52 -72 153 -205l199 -262q70 85 117.5 195t68.5 231l5 22q7 39 38 39h25
q27 0 27 -26zM1063 1278q0 96 -66 134t-182 38q-142 0 -229.5 -52t-110.5 -179l-2 -13q-4 -32 -4 -45q0 -56 23 -115t49.5 -99.5t91.5 -131.5l86 51q132 79 198 129t97 98.5t41 112.5l2 13q6 30 6 59zM971 215l-207 272q-102 135 -164 222q-119 -67 -187.5 -118t-103.5 -105
t-49 -132l-4 -12q-4 -20 -4 -59q0 -213 326 -213q230 0 393 145z" />
    <glyph glyph-name="quotesingle" unicode="'" horiz-adv-x="408" 
d="M565 1505q0 -10 -6 -22l-162 -353q-16 -38 -45 -38h-30q-17 0 -17 14q0 12 6 24l148 353q17 39 47 39h39q20 0 20 -17z" />
    <glyph glyph-name="parenleft" unicode="(" horiz-adv-x="543" 
d="M766 1511q0 -11 -10 -18q-78 -70 -152.5 -181t-127.5 -226.5t-92.5 -237.5t-59.5 -232l-19 -110q-22 -135 -22 -289q0 -118 15 -226.5t46 -201.5t80 -160q6 -9 6 -14q0 -14 -16 -14h-52q-24 0 -32 14q-72 111 -106 269.5t-34 334.5q0 146 23 287l18 110q22 136 80.5 302
t146.5 322t199 267q12 15 37 15h56q16 0 16 -11z" />
    <glyph glyph-name="parenright" unicode=")" horiz-adv-x="543" 
d="M551 911q0 -163 -23 -295l-18 -110q-22 -136 -80 -302.5t-146.5 -323t-197.5 -265.5q-11 -14 -37 -14h-61q-15 0 -15 8q0 7 13 20q106 96 196.5 250t151.5 322t84 305l18 110q25 152 25 295q0 111 -13 219t-44 204t-78 159q-7 11 -7 16q0 13 17 13h47q25 0 33 -15
q135 -209 135 -596z" />
    <glyph glyph-name="asterisk" unicode="*" horiz-adv-x="854" 
d="M995 1257q0 -19 -28 -30l-267 -86l164 -228q10 -13 10 -24q0 -14 -12 -23l-14 -10q-9 -6 -17 -6q-14 0 -28 18l-166 228l-164 -228q-14 -18 -29 -18q-7 0 -16 6l-16 10q-13 9 -13 21q0 13 11 26l165 228l-266 86q-28 11 -28 30q0 7 2 11l6 16q5 19 26 19q11 0 17 -3
l268 -86v281q0 37 29 37h18q29 0 29 -37v-281l268 86q6 3 17 3q21 0 26 -19l6 -16q2 -4 2 -11z" />
    <glyph glyph-name="plus" unicode="+" 
d="M1194 791q0 -33 -41 -33h-373v-371q0 -41 -32 -41h-21q-15 0 -24 12.5t-9 28.5v371h-370q-41 0 -41 33v20q0 33 41 33h370v373q0 40 33 40h21q32 0 32 -40v-373h373q41 0 41 -33v-20z" />
    <glyph glyph-name="comma" unicode="," horiz-adv-x="344" 
d="M301 201q0 -7 -8 -23l-189 -344q-20 -39 -47 -39h-24q-17 0 -17 15q0 6 9 24l168 344q19 39 49 39h39q20 0 20 -16z" />
    <glyph glyph-name="hyphen" unicode="-" horiz-adv-x="705" 
d="M700 582v-7l-4 -16q-7 -33 -45 -33h-413q-33 0 -33 27v6l4 16q3 16 15.5 26.5t29.5 10.5h414q32 0 32 -30z" />
    <glyph glyph-name="period" unicode="." horiz-adv-x="344" 
d="M248 184v-6l-27 -151q-3 -17 -16 -28t-29 -11h-12q-15 0 -24 9t-9 23v7l27 151q3 14 17 26.5t30 12.5h12q31 0 31 -33z" />
    <glyph glyph-name="slash" unicode="/" horiz-adv-x="639" 
d="M879 1513q0 -12 -7 -20l-741 -1466q-7 -15 -12 -22t-10.5 -12t-16.5 -5h-45q-18 0 -18 18q0 8 6 21l741 1466q12 21 19 30t20 9h43q21 0 21 -19z" />
    <glyph glyph-name="zero" unicode="0" 
d="M1268 1128q0 -74 -17 -165l-71 -404q-52 -292 -193 -431.5t-379 -139.5q-179 0 -283 102.5t-104 304.5q0 73 17 164l71 404q37 203 115.5 328t193.5 183t263 58q93 0 164.5 -25.5t120 -74.5t75.5 -126t27 -178zM1178 1128q0 322 -312 322q-91 0 -167 -32t-136.5 -96
t-101.5 -154.5t-62 -204.5l-71 -404q-17 -91 -17 -160q0 -109 36 -182.5t105.5 -110t170.5 -36.5q118 0 213.5 55.5t160.5 165t93 268.5l71 404q17 104 17 165z" />
    <glyph glyph-name="one" unicode="1" 
d="M930 1489v-6l-256 -1444q-3 -17 -15 -28t-26 -11h-21q-28 0 -28 31v8l245 1384l-309 -131q-24 -8 -28 -8q-15 0 -15 16v7l6 30q3 12 10 19t23 14l348 152h33q13 0 23 -10t10 -23z" />
    <glyph glyph-name="two" unicode="2" 
d="M1243 1251q0 -25 -8 -77q-15 -86 -51 -147.5t-102.5 -116t-192.5 -130.5l-234 -141q-110 -67 -178 -123.5t-104 -109t-51.5 -102t-32.5 -138.5l-15 -82h709q37 0 37 -25v-4v-2l-4 -22q-5 -31 -47 -31h-760q-33 0 -33 35v4v2l21 125q15 91 39.5 161t67.5 130.5t119 125
t187 130.5l234 141q106 66 164 111t87.5 93t41.5 116q8 56 8 75q0 71 -33.5 114t-107 63t-197.5 20q-157 0 -318 -31q-4 0 -6.5 -0.5t-5.5 -1.5q-26 0 -26 25v6v2l4 22q5 25 45 33q146 31 323 31q420 0 420 -281z" />
    <glyph glyph-name="three" unicode="3" 
d="M1266 1241q0 -28 -9 -84l-4 -24q-18 -109 -85 -198.5t-189 -139.5q56 -28 91.5 -71t53 -95.5t17.5 -106.5q0 -32 -6 -59l-9 -41q-30 -151 -104 -248t-193 -141.5t-286 -44.5q-150 0 -293 30q-31 8 -31 33v2v2l2 13q6 32 39 32h6h2q156 -26 289 -26q138 0 233.5 36
t155.5 113.5t84 198.5l8 41q6 27 6 55q0 59 -24.5 113.5t-79.5 89.5t-141 35h-383q-33 0 -33 30v5v2l2 14q3 16 16.5 26.5t30.5 10.5h383q159 0 241.5 90.5t100.5 198.5l4 24q8 62 8 82q0 120 -85 163.5t-285 43.5q-117 0 -299 -31h-2h-6q-27 0 -27 27v4v2l2 16q1 13 13 23
t30 14q169 31 305 31q221 0 336 -68t115 -223z" />
    <glyph glyph-name="four" unicode="4" 
d="M1202 494v-2l-4 -19q-6 -31 -45 -31h-205l-71 -403q-9 -39 -37 -39h-25q-29 0 -29 31v6v2l72 403h-563q-55 0 -86 26.5t-31 66.5q0 50 45 104l721 842q42 51 105 51q32 0 53.5 -18.5t21.5 -55.5q0 -16 -2 -24l-159 -906h204q14 0 24.5 -8t10.5 -22v-4zM1030 1423v4
q0 7 -8 7q-9 0 -18 -13l-705 -821q-31 -31 -31 -53q0 -19 37 -19h567l158 893v2z" />
    <glyph glyph-name="five" unicode="5" 
d="M1260 1495v-6l-5 -23q-5 -28 -45 -28h-620l-133 -545h159q151 0 249 -21t158.5 -62t86 -96.5t25.5 -131.5q0 -58 -7 -90l-8 -52q-34 -220 -190.5 -336t-407.5 -116q-157 0 -309 37q-33 8 -33 32v6l4 23q6 27 33 27q10 0 16 -2q60 -15 145.5 -26t158.5 -11q201 0 333 94
t160 272l8 52q6 42 6 90q0 84 -46.5 133t-144.5 71.5t-251 22.5h-217q-14 0 -24.5 9.5t-10.5 23.5q0 8 2 12l158 633q3 15 18 25t29 10h668q35 0 35 -27z" />
    <glyph glyph-name="six" unicode="6" 
d="M1282 1462q0 -4 -2 -6l-4 -20q-3 -29 -39 -29q-10 0 -16 2q-156 37 -314 37q-140 0 -238.5 -42.5t-161.5 -141t-91 -263.5l-21 -120q197 47 398 47q107 0 194 -32.5t138 -104.5t51 -183q0 -131 -35 -240t-106 -195t-179 -134.5t-248 -48.5q-189 0 -286 93t-97 269
q0 74 17 168l84 481q26 144 74.5 246t120 165t170.5 92.5t231 29.5q100 0 166 -10t153 -29q41 -10 41 -31zM1083 600q0 93 -37 146.5t-102.5 74.5t-165.5 21q-91 0 -207.5 -15.5t-191.5 -33.5l-47 -275q-17 -110 -17 -168q0 -99 32.5 -161t98.5 -90.5t168 -28.5
q152 0 258.5 67.5t158.5 187t52 275.5z" />
    <glyph glyph-name="seven" unicode="7" 
d="M1288 1430q0 -31 -16 -56l-879 -1354q-4 -7 -19 -13.5t-22 -6.5h-30q-27 0 -27 23q0 17 12 32l885 1350q4 8 4 14q0 15 -14 15h-766q-33 0 -33 30v9l4 16q7 33 45 33h768q38 0 63 -26.5t25 -65.5z" />
    <glyph glyph-name="eight" unicode="8" 
d="M1303 1227q0 -24 -7 -68l-8 -45q-21 -116 -91.5 -199t-176.5 -120q47 -27 83.5 -73.5t55.5 -102t19 -107.5q0 -19 -4 -47l-11 -62q-34 -208 -179.5 -311.5t-373.5 -103.5q-189 0 -300 89t-111 247q0 37 6 79l10 62q15 94 85.5 190t186.5 144q-53 24 -89 65t-54 92
t-18 105q0 35 4 53l8 45q66 373 545 373q128 0 223.5 -37t146 -106t50.5 -162zM1206 1223q0 113 -86.5 168t-253.5 55q-380 0 -432 -287l-8 -45q-4 -18 -4 -55q0 -91 60.5 -153t195.5 -62h168q82 0 145 24.5t105 65t65 88t31 92.5l8 45q6 35 6 64zM1081 510
q0 59 -22.5 114.5t-79 93.5t-150.5 38h-167q-107 0 -183 -49.5t-116.5 -116.5t-51.5 -125l-10 -62q-6 -39 -6 -77q0 -252 330 -252q188 0 301.5 83.5t140.5 245.5l10 62q4 28 4 45z" />
    <glyph glyph-name="nine" unicode="9" 
d="M1262 1169q0 -63 -17 -168l-84 -481q-33 -189 -107 -307t-194 -171.5t-295 -53.5q-155 0 -319 39q-39 9 -39 30v6l4 21q6 29 39 29q10 0 16 -2q148 -37 314 -37q140 0 238.5 42.5t161.5 140.5t91 263l21 121q-87 -21 -192 -34t-206 -13q-108 0 -195.5 33t-137.5 104
t-50 182q0 125 35 238.5t106.5 199.5t180 133.5t246.5 47.5q187 0 285 -93t98 -270zM1171 1169q0 150 -72 215.5t-227 65.5q-152 0 -258 -67.5t-158.5 -186.5t-52.5 -276q0 -136 78 -189t228 -53q92 0 209.5 15.5t189.5 33.5l47 274q16 106 16 168z" />
    <glyph glyph-name="colon" unicode=":" horiz-adv-x="365" 
d="M416 1077v-6l-27 -151q-3 -17 -16 -28t-29 -11h-12q-15 0 -24 9t-9 23v7l27 151q3 14 17 26.5t30 12.5h12q15 0 23 -9t8 -24zM258 184v-6l-27 -151q-3 -17 -16 -28t-29 -11h-12q-14 0 -23.5 8.5t-9.5 23.5v7l27 151q3 14 17 26.5t30 12.5h12q31 0 31 -33z" />
    <glyph glyph-name="semicolon" unicode=";" horiz-adv-x="365" 
d="M416 1077v-6l-27 -151q-3 -17 -16 -28t-29 -11h-12q-15 0 -24 9t-9 23v7l27 151q3 14 17 26.5t30 12.5h12q15 0 23 -9t8 -24zM276 201q0 -7 -8 -23l-188 -344q-20 -39 -47 -39h-25q-16 0 -16 15q0 4 8 24l168 344q19 39 49 39h39q20 0 20 -16z" />
    <glyph glyph-name="less" unicode="&#x3c;" 
d="M1030 1276q0 -18 -16 -31l-543 -444l543 -445q16 -13 16 -30q0 -13 -10 -23l-14 -14q-9 -8 -21 -8q-14 0 -33 14l-544 446q-31 25 -31 60t31 59l544 447q19 14 33 14q12 0 21 -8l14 -15q10 -10 10 -22z" />
    <glyph glyph-name="equal" unicode="=" 
d="M1165 995q0 -32 -41 -32h-747q-41 0 -41 32v21q0 15 11.5 24t29.5 9h747q18 0 29.5 -8.5t11.5 -24.5v-21zM1165 586q0 -33 -41 -33h-747q-41 0 -41 33v20q0 33 41 33h747q41 0 41 -33v-20z" />
    <glyph glyph-name="greater" unicode="&#x3e;" 
d="M1130 801q0 -34 -30 -60l-545 -446q-17 -14 -33 -14q-12 0 -20 8l-15 14q-10 10 -10 23q0 18 17 30l542 445l-542 444q-17 12 -17 31q0 12 10 22l15 15q8 8 20 8q16 0 33 -14l545 -447q30 -24 30 -59z" />
    <glyph glyph-name="question" unicode="?" horiz-adv-x="868" 
d="M965 1280q0 -29 -2 -45l-2 -16q-10 -70 -35 -120.5t-85.5 -112.5t-172.5 -155l-74 -61q-64 -54 -96.5 -89t-47.5 -72.5t-24 -92.5l-20 -123q-3 -16 -16.5 -27.5t-29.5 -11.5h-12q-13 0 -23 10t-10 23v4v2l21 123q10 70 32 119t60.5 92t116.5 109l67 57
q146 124 193.5 186.5t56.5 139.5l2 16q2 16 2 43q0 93 -62 133.5t-198 40.5q-73 0 -246 -14h-2h-2q-26 0 -26 20v2v2l2 17q4 33 43 39q120 14 246 14q103 0 180.5 -27.5t120.5 -83.5t43 -141zM365 180v-2l-27 -151q-3 -17 -16.5 -28t-28.5 -11h-12q-13 0 -23 10t-10 22v5v2
l26 151q5 17 18.5 28t29.5 11h12q15 0 23 -9t8 -24v-4z" />
    <glyph glyph-name="at" unicode="@" horiz-adv-x="1552" 
d="M1534 801q0 -238 -77 -383.5t-248.5 -215t-454.5 -69.5q-275 0 -275 219q0 38 8 86l50 242q22 110 67 176.5t115.5 95.5t169.5 29q122 0 250 -27q30 -7 30 -36q0 -5 -0.5 -8t-1.5 -7l-133 -674q134 32 217.5 76t140 162t56.5 334q0 110 -37 193.5t-102 139t-151.5 84.5
t-186.5 29q-189 0 -329.5 -67.5t-225.5 -188.5t-119 -284l-59 -291q-11 -48 -11 -125q0 -208 125 -312t332 -104q120 0 274 12h7q30 0 30 -24q0 -43 -49 -49q-119 -17 -262 -17q-156 0 -280 57t-194.5 169t-70.5 268q0 80 11 125l59 293q30 146 95 261t160 193.5t224 121
t283 42.5q118 0 219.5 -35.5t180 -105.5t121 -166.5t42.5 -218.5zM1075 885q-43 8 -88.5 13t-97.5 5q-129 0 -186.5 -48.5t-81.5 -176.5l-48 -240q-8 -48 -8 -86q0 -81 47 -111t142 -30q141 0 190 8z" />
    <glyph glyph-name="A" unicode="A" horiz-adv-x="1268" 
d="M1194 37q0 -43 -39 -43h-20q-23 0 -27 26l-74 555h-590l-266 -555q-13 -26 -39 -26h-30q-27 0 -27 24q0 7 8 27l664 1387q48 100 151 100q49 0 78 -26t35 -72l176 -1389v-8zM1026 666l-92 741q-1 15 -12.5 28t-26.5 13q-38 0 -55 -39l-357 -743h543z" />
    <glyph glyph-name="B" unicode="B" 
d="M1284 1239q0 -34 -6 -78l-4 -22q-24 -133 -99 -218t-204 -126q93 -33 143.5 -107.5t50.5 -171.5q0 -43 -4 -65l-6 -35q-43 -248 -215 -339t-432 -91q-161 0 -305 16q-33 3 -33 27q1 3 1.5 5.5t0.5 6.5l252 1440q3 13 17.5 25t29.5 14q168 12 315 12q234 0 366 -67
t132 -226zM1194 1227q0 70 -32.5 115t-89 68.5t-132 32.5t-174.5 9q-70 0 -150.5 -3.5t-107.5 -4.5l-105 -600h371q354 0 410 295l4 22q6 38 6 66zM1077 520q0 109 -73.5 172.5t-245.5 63.5h-371l-119 -676q172 -12 254 -12q133 0 244 27t192.5 105t106.5 216l6 35
q6 36 6 69z" />
    <glyph glyph-name="C" unicode="C" horiz-adv-x="1100" 
d="M1278 1481v-4l-4 -25q-5 -25 -31 -25h-8h-4q-152 19 -352 19q-125 0 -226.5 -53.5t-174 -176t-107.5 -321.5l-47 -270q-19 -108 -19 -193q0 -191 88 -274.5t244 -83.5q189 0 358 18h4h9q22 0 22 -16v-8l-4 -25q-3 -13 -17 -23t-28 -12q-183 -20 -358 -20
q-113 0 -205 44.5t-147.5 143.5t-55.5 258q0 86 18 191l48 270q42 239 131.5 379.5t211 199t271.5 58.5q191 0 350 -21q33 -4 33 -30z" />
    <glyph glyph-name="D" unicode="D" horiz-adv-x="1255" 
d="M1305 1067q0 -88 -17 -180l-45 -254q-31 -175 -94 -299.5t-154 -200t-207 -110.5t-256 -35q-242 0 -333 16q-27 3 -27 33v6l252 1434q7 30 41 39q98 16 340 16q150 0 263 -48t175 -152t62 -265zM1217 1067q0 211 -112 298t-314 87q-99 0 -283 -12l-240 -1364
q117 -8 279 -8q111 0 207.5 30t176.5 96.5t137 174.5t85 264l45 254q19 106 19 180z" />
    <glyph glyph-name="E" unicode="E" horiz-adv-x="1092" 
d="M1241 1493v-6l-2 -17q-2 -16 -14.5 -24t-30.5 -8h-528q-85 0 -126.5 -28.5t-58.5 -117.5l-80 -450h686q35 0 35 -27v-6l-4 -21q-7 -34 -45 -34h-686l-92 -525q-4 -18 -4 -49q0 -57 33 -76.5t102 -19.5h528q33 0 33 -27v-6l-2 -16q-2 -16 -15 -25.5t-30 -9.5h-528
q-213 0 -213 174q0 25 6 55l186 1063q23 131 91.5 180.5t197.5 49.5h528q33 0 33 -29z" />
    <glyph glyph-name="F" unicode="F" horiz-adv-x="1061" 
d="M1241 1491v-6l-2 -17q-3 -30 -45 -30h-528q-82 0 -125 -28.5t-60 -117.5l-80 -450h686q35 0 35 -31v-6l-4 -21q-6 -30 -45 -30h-686l-127 -715q-7 -39 -41 -39h-20q-29 0 -29 31v8l221 1253q24 128 90.5 179t198.5 51h528q16 0 24.5 -8.5t8.5 -22.5z" />
    <glyph glyph-name="G" unicode="G" horiz-adv-x="1204" 
d="M1300 1485v-6l-2 -21q-3 -31 -36 -31h-9h-4q-108 12 -174.5 16.5t-181.5 4.5q-83 0 -163.5 -29t-152.5 -94t-126 -173t-82 -265l-45 -254q-19 -105 -19 -195q0 -190 88 -277t256 -87q105 0 189.5 6.5t126.5 11.5l114 651q7 39 41 39h21q28 0 28 -30v-7v-2l-120 -690
q-3 -13 -15.5 -25t-27.5 -14q-50 -6 -86 -9.5t-94.5 -8.5t-92 -6.5t-98.5 -1.5q-96 0 -172.5 28.5t-131.5 85t-85.5 143t-30.5 199.5q0 87 18 189l46 254q34 188 101 317t153.5 199.5t179.5 99.5t194 29q201 0 365 -21q28 -3 28 -26z" />
    <glyph glyph-name="H" unicode="H" horiz-adv-x="1325" 
d="M1423 1491v-8l-256 -1444q-7 -39 -41 -39h-18q-29 0 -29 31v8l129 733h-819l-129 -733q-7 -39 -41 -39h-20q-29 0 -29 31v8l256 1444q3 16 14.5 27.5t26.5 11.5h20q29 0 29 -31v-8l-110 -627h819l110 627q8 39 41 39h19q28 0 28 -31z" />
    <glyph glyph-name="I" unicode="I" horiz-adv-x="459" 
d="M537 1491v-8l-256 -1444q-9 -39 -41 -39h-21q-29 0 -29 31v8l256 1444q5 17 16 28t25 11h21q13 0 21 -9t8 -22z" />
    <glyph glyph-name="J" unicode="J" horiz-adv-x="459" 
d="M537 1491v-8l-285 -1606q-26 -152 -100 -214t-242 -62h-29q-37 0 -37 22v6l4 21q7 31 46 31h28q86 0 132 15.5t69.5 56t38.5 124.5l284 1606q5 17 16 28t25 11h21q13 0 21 -9t8 -22z" />
    <glyph glyph-name="K" unicode="K" horiz-adv-x="1114" 
d="M1305 1495q0 -21 -27 -45l-803 -666l574 -723q12 -15 12 -30q0 -14 -12 -24.5t-29 -10.5q-34 0 -47 16l-586 742l-127 -715q-7 -39 -41 -39h-20q-29 0 -29 31v8l256 1444q3 16 17 27.5t28 11.5h12q14 0 23.5 -9.5t9.5 -23.5v-6l-117 -656l818 680q27 23 51 23
q15 0 26 -11t11 -24z" />
    <glyph glyph-name="L" unicode="L" horiz-adv-x="989" 
d="M926 53v-2l-2 -16q-1 -15 -14.5 -25t-30.5 -10h-467q-213 0 -213 168q0 28 6 61l221 1254q3 16 14.5 27.5t26.5 11.5h20q29 0 29 -31v-6v-2l-221 -1254q-6 -33 -6 -57q0 -52 32 -70t105 -18h467q33 0 33 -29v-2z" />
    <glyph glyph-name="M" unicode="M" horiz-adv-x="1495" 
d="M1585 1452q0 -12 -2 -18l-246 -1395q-7 -39 -41 -39h-22q-29 0 -29 31v8l246 1395v2q0 10 -12 10q-6 0 -19 -19l-497 -763q-46 -66 -109 -66q-64 0 -84 66l-227 763q-1 6 -7.5 12.5t-13.5 6.5q-16 0 -18 -12l-246 -1395q-7 -39 -41 -39h-18q-29 0 -29 31v8l246 1395
q18 98 112 98q69 0 90 -64l228 -749q9 -27 22 -27q14 0 31 27l490 747q24 39 48.5 52.5t69.5 13.5q32 0 55 -21.5t23 -58.5z" />
    <glyph glyph-name="N" unicode="N" horiz-adv-x="1333" 
d="M1432 1491v-8l-246 -1393q-9 -49 -38.5 -75.5t-70.5 -26.5q-38 0 -60 14t-34 51l-446 1379q-2 6 -7 10t-12 4q-9 0 -12 -14l-246 -1393q-7 -39 -41 -39h-20q-29 0 -29 31v8l246 1393q10 53 42 76.5t70 23.5q69 0 93 -64l446 -1380q4 -14 12 -14q2 0 7.5 5t7.5 11
l245 1393q8 39 39 39h25q29 0 29 -31z" />
    <glyph glyph-name="O" unicode="O" horiz-adv-x="1294" 
d="M1346 1075q0 -79 -19 -188l-45 -254q-31 -173 -91 -297t-143 -200t-184 -112t-219 -36q-130 0 -227 49t-150 149.5t-53 255.5q0 86 18 191l46 254q42 233 132 377t218 206t289 62q199 0 313.5 -115t114.5 -342zM1255 1079q0 197 -93 282t-261 85q-131 0 -237.5 -53.5
t-182.5 -176.5t-112 -329l-45 -254q-19 -108 -19 -195q0 -195 92 -279.5t262 -84.5q131 0 238 57t183.5 183t111.5 319l45 254q18 107 18 192z" />
    <glyph glyph-name="P" unicode="P" horiz-adv-x="1106" 
d="M1239 1202q0 -45 -8 -86l-6 -35q-20 -116 -71 -200.5t-130.5 -137.5t-184.5 -76.5t-243 -23.5q-113 0 -227 8l-109 -612q-7 -39 -41 -39h-20q-29 0 -29 31v6v2l256 1444q3 13 15.5 25.5t25.5 13.5q180 10 278 10q157 0 267.5 -36.5t168.5 -110.5t58 -183zM1149 1202
q0 93 -46 148t-140 78.5t-232 23.5q-134 0 -223 -6l-125 -715q126 -8 221 -8q161 0 270 37t174 116.5t87 204.5l6 35q8 41 8 86z" />
    <glyph glyph-name="Q" unicode="Q" horiz-adv-x="1294" 
d="M1346 1075q0 -79 -19 -188l-45 -254q-39 -215 -123.5 -356.5t-204.5 -210t-266 -76.5l-24 -137q-11 -58 -11 -89q0 -37 15 -54t49 -23t106 -6h43q37 0 37 -27v-6l-4 -15q-6 -32 -45 -32h-43q-129 0 -187.5 30.5t-58.5 130.5q0 44 8 91l25 137q-117 8 -203 60t-133 150.5
t-47 241.5q0 86 18 191l46 254q42 233 132 377t218 206t289 62q199 0 313.5 -115t114.5 -342zM1255 1079q0 197 -93 282t-261 85q-131 0 -237.5 -53.5t-182.5 -176.5t-112 -329l-45 -254q-19 -108 -19 -195q0 -195 92 -279.5t262 -84.5q131 0 238 57t183.5 183t111.5 319
l45 254q18 107 18 192z" />
    <glyph glyph-name="R" unicode="R" horiz-adv-x="1225" 
d="M1282 1214q0 -42 -10 -100l-2 -10q-38 -195 -146 -290t-293 -118l302 -637q6 -12 6 -24q0 -35 -35 -35h-21q-19 0 -30 18l-320 668h-94q-81 1 -149.5 1.5t-114.5 0.5l-115 -649q-7 -39 -41 -39h-20q-29 0 -29 33v6l256 1446q3 13 15.5 25.5t25.5 13.5q144 8 321 8
q162 0 271.5 -34t166 -105t56.5 -179zM1192 1208q0 88 -46 141t-137.5 75t-236.5 22q-180 0 -264 -8l-117 -664q80 0 141.5 -0.5t129.5 -1.5q164 0 268 29.5t164.5 101.5t85.5 201l2 10q10 58 10 94z" />
    <glyph glyph-name="S" unicode="S" horiz-adv-x="1085" 
d="M1192 1483v-2l-4 -27q-3 -27 -37 -27h-6q-206 19 -301 19q-188 0 -310 -57.5t-122 -225.5q0 -77 54.5 -142.5t168.5 -141.5l106 -72q170 -114 238 -200.5t68 -180.5q0 -152 -75.5 -250t-200 -143t-275.5 -45q-125 0 -314 22q-30 4 -30 29v4l4 27q5 24 30 24h11
q41 -4 78 -7.5t82 -7.5t85 -5.5t68 -1.5q128 0 225.5 33.5t156 111.5t58.5 199q0 55 -25 102t-83 98t-156 117l-104 72q-132 90 -197.5 170t-65.5 178q0 144 76.5 228.5t197.5 117.5t269 33q100 0 301 -21q29 -3 29 -24v-4z" />
    <glyph glyph-name="T" unicode="T" horiz-adv-x="1169" 
d="M1370 1493v-8l-4 -19q-6 -28 -43 -28h-438l-248 -1399q-3 -17 -15 -28t-26 -11h-21q-28 0 -28 31v8l248 1399h-441q-35 0 -35 28v7l5 18q6 31 45 31h968q17 0 25 -8t8 -21z" />
    <glyph glyph-name="U" unicode="U" horiz-adv-x="1296" 
d="M1395 1489v-6l-166 -942q-23 -135 -68 -238t-115 -173t-170 -106t-229 -36q-138 0 -227.5 46.5t-132.5 135t-43 211.5q0 67 16 160l166 942q3 16 14.5 27.5t26.5 11.5h20q14 0 21.5 -9t7.5 -24v-6l-166 -942q-16 -96 -16 -162q0 -101 34 -170t106 -103t188 -34
q134 0 231 52.5t158 158t88 258.5l166 942q3 16 14.5 27.5t26.5 11.5h20q13 0 21 -10t8 -23z" />
    <glyph glyph-name="V" unicode="V" horiz-adv-x="1290" 
d="M1464 1493q0 -9 -6 -23l-663 -1382q-47 -100 -148 -100q-106 0 -119 100l-176 1382v11q0 41 33 41h25q24 0 28 -29l174 -1378q5 -43 41 -43q38 0 60 43l659 1378q15 29 37 29h25q15 0 22.5 -8.5t7.5 -20.5z" />
    <glyph glyph-name="W" unicode="W" horiz-adv-x="1614" 
d="M1782 1493q0 -6 -4 -18l-498 -1391q-35 -96 -111 -96q-41 0 -58 23.5t-24 68.5l-110 792q-2 25 -12 25q-9 0 -21 -25l-389 -792q-21 -43 -46.5 -67.5t-68.5 -24.5q-82 0 -82 96l-6 1391q0 19 12 33t29 14h17q13 0 21.5 -8.5t8.5 -24.5l2 -1387q0 -30 11 -30q5 0 20 30
l395 797q23 46 47 63t64 17q60 0 74 -80l116 -797q3 -30 13 -30q9 0 20 30l492 1387q12 33 43 33h16q29 0 29 -29z" />
    <glyph glyph-name="X" unicode="X" horiz-adv-x="1233" 
d="M1391 1497q0 -17 -15 -37l-575 -686l346 -715q10 -20 10 -34q0 -25 -27 -25h-20q-20 0 -29 18l-333 689l-578 -689q-9 -10 -16 -14t-21 -4h-20q-27 0 -27 23q0 17 16 36l607 725l-328 676q-12 26 -12 39q0 23 28 23h25q15 0 27 -19l315 -651l545 651q7 10 15 14.5t22 4.5
h18q27 0 27 -25z" />
    <glyph glyph-name="Y" unicode="Y" horiz-adv-x="1126" 
d="M1298 1499q0 -10 -12 -33l-448 -714q-60 -98 -119 -119l-105 -594q-7 -39 -41 -39h-20q-29 0 -29 31v8l105 594q-48 20 -74 119l-199 714q-2 7 -2 19q0 37 41 37h17q9 0 17 -8t11 -17l195 -717q12 -44 21 -57.5t28 -13.5t33.5 14.5t40.5 56.5l448 717q17 25 37 25h25
q30 0 30 -23z" />
    <glyph glyph-name="Z" unicode="Z" horiz-adv-x="1219" 
d="M1286 1434q0 -34 -26 -70l-992 -1251q-8 -9 -8 -17q0 -12 23 -12h784q16 0 27.5 -8.5t11.5 -20.5v-2v-2l-4 -20q-6 -31 -49 -31h-789q-44 0 -70 27.5t-26 64.5q0 36 22 66l996 1253q8 8 8 16q0 11 -14 11h-742q-15 0 -27 9t-12 21v2v3l4 20q7 29 50 29h727q32 0 57.5 -12
t37 -31.5t11.5 -44.5z" />
    <glyph glyph-name="bracketleft" unicode="[" horiz-adv-x="610" 
d="M831 1493v-6l-2 -17q-2 -16 -14.5 -24t-30.5 -8h-256l-309 -1753h256q17 0 25 -8.5t8 -20.5v-6l-4 -17q-6 -32 -43 -32h-311q-29 0 -29 30v9l325 1843q5 17 16 28t25 11h312q32 0 32 -29z" />
    <glyph glyph-name="backslash" unicode="\" horiz-adv-x="666" 
d="M623 18q0 -30 -25 -30h-37q-22 0 -26 39l-222 1466v6q0 33 27 33h35q22 0 26 -39l222 -1466v-9z" />
    <glyph glyph-name="bracketright" unicode="]" horiz-adv-x="610" 
d="M688 1491v-8l-326 -1843q-3 -16 -14.5 -27.5t-25.5 -11.5h-312q-35 0 -35 26v6l5 17q7 35 45 35h256l309 1753h-256q-33 0 -33 26v6l2 17q2 12 8 18.5t17 11.5t20 5h311q29 0 29 -31z" />
    <glyph glyph-name="asciicircum" unicode="^" 
d="M1133 1165q0 -18 -21 -18h-37q-15 0 -23.5 6.5t-29.5 34.5l-240 285l-239 -285q-24 -28 -32 -34.5t-22 -6.5h-36q-23 0 -23 18q0 10 10 23l240 307q27 37 55 37h94q17 0 29 -9t27 -28l239 -307q9 -12 9 -23z" />
    <glyph glyph-name="underscore" unicode="_" horiz-adv-x="952" 
d="M987 -141v-6l-2 -21q-1 -15 -15 -24t-32 -9h-993q-35 0 -35 27v6l2 21q1 16 14.5 24t32.5 8h993q35 0 35 -26z" />
    <glyph glyph-name="grave" unicode="`" horiz-adv-x="676" 
d="M655 1284q0 -18 -20 -18h-37q-13 0 -20 7.5t-19 26.5l-172 263q-6 9 -6 14q0 16 25 16h45q23 0 43 -30l157 -263q4 -6 4 -16z" />
    <glyph glyph-name="a" unicode="a" horiz-adv-x="1032" 
d="M1073 1047q0 -5 -0.5 -8t-1.5 -7l-174 -991q-3 -18 -16.5 -29.5t-28.5 -11.5h-16q-31 0 -31 33q1 2 1.5 4t0.5 4l12 68q-82 -43 -130 -65.5t-107 -39t-115 -16.5q-87 0 -153.5 32.5t-105 98.5t-38.5 164q0 40 10 98l41 231q31 177 92 287t159 160.5t239 50.5
q153 0 336 -39q26 -6 26 -24zM975 1004q-156 26 -279 26q-113 0 -190 -47.5t-123.5 -139.5t-71.5 -231l-41 -231q-10 -58 -10 -98q0 -122 61.5 -168.5t165.5 -46.5q52 0 101 14.5t100.5 38.5t145.5 74z" />
    <glyph glyph-name="b" unicode="b" horiz-adv-x="1032" 
d="M1040 768q0 -67 -12 -147l-22 -136q-26 -157 -84 -268t-157 -170t-241 -59q-165 0 -346 39q-24 5 -24 22q0 10 2 17l250 1417q3 16 14.5 27.5t25.5 11.5h21q13 0 21 -9t8 -22v-6v-2l-70 -400q130 27 283 27q331 0 331 -342zM952 772q0 133 -60.5 195.5t-195.5 62.5
q-66 0 -151 -10t-135 -21l-160 -905q156 -26 278 -26q117 0 194.5 47t123 137.5t69.5 232.5l23 136q14 77 14 151z" />
    <glyph glyph-name="c" unicode="c" horiz-adv-x="895" 
d="M991 1059v-4l-2 -15q-3 -28 -41 -28h-6h-2q-141 18 -240 18q-166 0 -261.5 -110.5t-127.5 -298.5l-22 -138q-15 -103 -15 -149q0 -131 61 -198.5t195 -67.5q99 0 246 18h2h6q31 0 31 -23v-4v-2l-2 -14q-3 -19 -13.5 -26.5t-31.5 -10.5q-158 -18 -252 -18
q-169 0 -249.5 94t-80.5 258q0 72 13 143l22 138q82 489 494 489q92 0 243 -18q33 -7 33 -27v-6z" />
    <glyph glyph-name="d" unicode="d" horiz-adv-x="1032" 
d="M1151 1485v-2l-250 -1417q-3 -19 -12 -27t-27 -12q-193 -39 -348 -39q-164 0 -246 95.5t-82 262.5q0 68 13 139l22 136q28 169 92.5 277.5t163 160t234.5 51.5q60 0 145.5 -9.5t132.5 -21.5l72 404q6 39 41 39h20q29 0 29 -31v-6zM975 1004q-61 13 -134.5 19.5
t-144.5 6.5q-109 0 -186.5 -46t-126.5 -135.5t-72 -227.5l-22 -136q-15 -82 -15 -151q0 -132 60 -199t192 -67q155 0 289 26z" />
    <glyph glyph-name="e" unicode="e" horiz-adv-x="1047" 
d="M1057 762q0 -68 -13 -139l-10 -56q-3 -16 -17.5 -27.5t-31.5 -11.5h-690l-6 -43q-13 -106 -13 -133q0 -106 36 -168.5t104 -88t168 -25.5q145 0 311 32q6 2 18 2q25 0 25 -16q0 -10 -2 -14l-4 -15q-5 -19 -13.5 -25t-33.5 -11q-172 -35 -314 -35q-178 0 -280.5 88.5
t-102.5 271.5q0 80 11 137l22 136q21 120 63 212t105 153.5t145.5 92.5t186.5 31q112 0 188 -44t112 -122t36 -182zM969 766q0 132 -61.5 198t-198.5 66q-112 0 -191 -49t-129 -141.5t-76 -218.5l-2 -11h641l2 13q15 92 15 143z" />
    <glyph glyph-name="f" unicode="f" horiz-adv-x="772" 
d="M967 1501q0 -3 -0.5 -4.5t-1.5 -3.5l-4 -14q-4 -13 -14.5 -20t-33.5 -7h-102q-77 0 -115 -32.5t-55 -129.5l-33 -190h244q33 0 33 -27v-6l-4 -18q-3 -16 -15.5 -24.5t-29.5 -8.5h-244l-195 -1104q-18 -95 -53.5 -148t-89 -73.5t-131.5 -20.5q-64 0 -105 6q-36 7 -36 25
l1.5 4.5t0.5 3.5l4 15q9 26 47 26h102q75 0 114.5 34.5t55.5 127.5l195 1104h-203q-33 0 -33 26v7l4 18q7 33 45 33h203l33 190q24 136 91 189t183 53q65 0 105 -6q37 -6 37 -25z" />
    <glyph glyph-name="g" unicode="g" horiz-adv-x="1032" 
d="M1073 1049q0 -5 -0.5 -8t-1.5 -7l-182 -1036q-21 -122 -56.5 -198t-88.5 -120t-126 -61.5t-169 -17.5q-183 0 -310 26q-35 8 -35 29q1 2 1.5 4t0.5 6l3 10q6 29 34 29h9q55 -9 135.5 -16.5t161.5 -7.5q119 0 183.5 25t102.5 91t66 201l4 20q-38 -11 -124.5 -20.5
t-145.5 -9.5q-150 0 -251.5 72.5t-101.5 267.5q0 75 15 153l24 140q25 140 69 236t105 150.5t144.5 78.5t191.5 24q147 0 316 -37q26 -6 26 -24zM975 1001q-161 29 -256 29q-87 0 -150.5 -18t-114.5 -64t-86 -125.5t-57 -201.5l-24 -140q-17 -97 -17 -164q0 -104 34.5 -158
t95.5 -72.5t149 -18.5q48 0 134.5 11.5t131.5 22.5z" />
    <glyph glyph-name="h" unicode="h" horiz-adv-x="1032" 
d="M1038 817q0 -42 -10 -100l-121 -678q-7 -39 -41 -39h-20q-27 0 -27 31v6v2l121 678q10 62 10 100q0 108 -61 160.5t-197 52.5q-66 0 -147 -11.5t-135 -27.5l-170 -952q-3 -17 -15 -28t-26 -11h-21q-28 0 -28 31v6v2l256 1444q3 16 14.5 27.5t25.5 11.5h21q13 0 21 -9
t8 -22v-6v-2l-72 -408q140 35 283 35q169 0 250 -78.5t81 -214.5z" />
    <glyph glyph-name="i" unicode="i" horiz-adv-x="418" 
d="M518 1501v-8l-29 -152q-8 -38 -45 -38h-12q-33 0 -33 28v10l29 152q7 39 45 39h12q33 0 33 -31zM440 1069v-8l-180 -1022q-3 -16 -16.5 -27.5t-28.5 -11.5h-12q-13 0 -23 10t-10 23v6l180 1022q3 16 15.5 27.5t25.5 11.5h23q26 0 26 -31z" />
    <glyph glyph-name="j" unicode="j" horiz-adv-x="418" 
d="M518 1501v-8l-29 -152q-8 -38 -45 -38h-12q-33 0 -33 28v10l29 152q7 39 45 39h12q33 0 33 -31zM440 1071v-10l-217 -1237q-16 -88 -44 -135.5t-77.5 -67.5t-128.5 -20q-40 0 -86 6q-28 5 -28 24v4l2 19q2 14 8 19t27 5h90q46 0 74.5 10.5t45.5 43t27 92.5l217 1237
q3 16 15.5 27.5t25.5 11.5h23q26 0 26 -29z" />
    <glyph glyph-name="k" unicode="k" horiz-adv-x="909" 
d="M1024 1083q0 -22 -27 -43l-583 -462l413 -531q11 -13 11 -27t-12 -23t-29 -9q-42 0 -62 24l-403 531l-92 -504q-3 -16 -17 -27.5t-28 -11.5h-13q-12 0 -22 10t-10 23v6l256 1444q3 16 16.5 27.5t28.5 11.5h12q13 0 23 -10t10 -23v-6l-154 -862l588 471q24 18 57 18
q37 0 37 -27z" />
    <glyph glyph-name="l" unicode="l" horiz-adv-x="418" 
d="M516 1491v-8l-256 -1444q-7 -39 -41 -39h-20q-29 0 -29 31v8l256 1444q3 16 14.5 27.5t26.5 11.5h20q29 0 29 -31z" />
    <glyph glyph-name="m" unicode="m" horiz-adv-x="1528" 
d="M1528 852q0 -22 -8 -80l-129 -733q-9 -39 -41 -39h-21q-29 0 -29 31v8l130 733q8 58 8 78q0 96 -53.5 138t-153.5 42q-124 0 -283 -69q8 -31 8 -80q0 -39 -10 -101l-131 -741q-7 -39 -37 -39h-30q-23 0 -23 29v10l131 741q10 58 10 94q0 82 -38.5 119t-118.5 37
q-113 0 -310 -86l-159 -905q-7 -39 -37 -39h-29q-24 0 -24 31v8l180 1020q3 15 16 28t29 13h16q29 0 29 -31v-10l-6 -37q102 46 167.5 67t143.5 21q139 0 195 -84q189 84 325 84q125 0 204 -63.5t79 -194.5z" />
    <glyph glyph-name="n" unicode="n" horiz-adv-x="1067" 
d="M1061 817q0 -40 -10 -98l-121 -680q-3 -16 -16.5 -27.5t-28.5 -11.5h-15q-30 0 -30 33v6l121 680q8 44 8 92q0 219 -230 219q-74 0 -162.5 -22t-177.5 -62l-159 -907q-3 -16 -17 -27.5t-28 -11.5h-13q-12 0 -22 10t-10 23v6l180 1020q3 15 16 28t29 13h16q29 0 29 -31
v-10l-6 -33q188 84 329 84q90 0 161.5 -30.5t114 -96t42.5 -166.5z" />
    <glyph glyph-name="o" unicode="o" horiz-adv-x="1069" 
d="M1077 756q0 -61 -12 -135l-25 -144q-83 -489 -508 -489q-168 0 -258 94.5t-90 263.5q0 63 13 131l24 144q27 157 93 268t171 166t246 55q172 0 259 -93t87 -261zM989 762q0 133 -65 200.5t-207 67.5q-113 0 -197 -50.5t-135.5 -142t-73.5 -216.5l-24 -144
q-15 -96 -15 -141q0 -133 65.5 -200.5t209.5 -67.5q170 0 270 108.5t133 300.5l25 144q14 89 14 141z" />
    <glyph glyph-name="p" unicode="p" horiz-adv-x="1032" 
d="M1042 760q0 -75 -14 -148l-24 -135q-46 -251 -164.5 -370t-323.5 -119q-141 0 -278 32l-68 -380q-7 -39 -41 -39h-20q-29 0 -29 32v7l246 1392q3 18 9.5 26t26.5 13q183 39 353 39q165 0 246 -93.5t81 -256.5zM954 774q0 131 -61 193.5t-193 62.5q-76 0 -160 -10.5
t-130 -20.5l-158 -901q49 -10 138.5 -20t139.5 -10q108 0 185 46.5t125.5 137.5t72.5 225l25 135q16 96 16 162z" />
    <glyph glyph-name="q" unicode="q" horiz-adv-x="1032" 
d="M1073 1047q0 -5 -0.5 -8t-1.5 -7l-246 -1392q-7 -39 -41 -39h-20q-29 0 -29 32v7l68 378q-135 -30 -258 -30q-363 0 -363 338q0 76 15 151l24 135q92 498 484 498q159 0 342 -39q26 -6 26 -24zM975 1004q-156 26 -270 26q-167 0 -261.5 -104.5t-132.5 -313.5l-24 -135
q-15 -72 -15 -143q0 -97 34 -157.5t95.5 -85.5t143.5 -25q120 0 270 30z" />
    <glyph glyph-name="r" unicode="r" horiz-adv-x="633" 
d="M750 1085v-6l-2 -16q-3 -18 -15 -24.5t-39 -6.5q-62 0 -130.5 -21t-164.5 -75l-159 -897q-3 -16 -17 -27.5t-28 -11.5h-13q-12 0 -22 10t-10 23v6l180 1020q3 15 16 28t29 13h16q31 0 31 -29q0 -4 -0.5 -6.5t-1.5 -5.5l-8 -43q80 50 148 72t142 22q48 0 48 -25z" />
    <glyph glyph-name="s" unicode="s" horiz-adv-x="901" 
d="M948 1061v-4l-2 -17q-1 -18 -7.5 -23t-23.5 -5q-4 1 -7.5 1.5t-8.5 0.5q-196 16 -283 16q-136 0 -201 -42t-65 -152q0 -51 42.5 -95.5t123.5 -95.5l123 -76q122 -76 166.5 -130.5t44.5 -131.5q0 -88 -32.5 -149.5t-89.5 -99t-129.5 -54t-156.5 -16.5q-57 0 -145.5 8.5
t-146.5 19.5q-39 9 -39 29v4l4 23q3 13 8 18.5t16 5.5t19 -2q179 -26 303 -26q144 0 221.5 55.5t77.5 183.5q0 51 -39 91t-139 100l-119 71q-96 59 -149.5 122t-53.5 140q0 100 48 163t127 89.5t181 26.5q144 0 295 -18q37 -4 37 -31z" />
    <glyph glyph-name="t" unicode="t" horiz-adv-x="778" 
d="M885 1075v-8l-4 -20q-6 -31 -45 -31h-242l-143 -807q-7 -32 -7 -55q0 -53 29.5 -69.5t93.5 -16.5h99q36 0 36 -23v-6l-2 -12q-3 -28 -41 -33q-45 -6 -106 -6q-97 0 -148 37.5t-51 119.5q0 30 6 64l144 807h-205q-33 0 -33 26v9l4 20q5 29 45 29h205l33 190q7 39 41 39h22
q27 0 27 -29v-10l-33 -190h242q33 0 33 -25z" />
    <glyph glyph-name="u" unicode="u" horiz-adv-x="1069" 
d="M1114 1067v-6l-182 -1022q-3 -18 -16.5 -29.5t-28.5 -11.5h-17q-26 0 -26 33v6v2l4 33q-88 -40 -172 -63t-158 -23q-140 0 -227.5 73t-87.5 222q0 49 8 98l123 682q3 15 16 27t29 12h14q13 0 22 -10t9 -23v-6l-123 -682q-8 -47 -8 -98q0 -114 61 -164.5t168 -50.5
q151 0 340 86l162 909q3 16 17 27.5t28 11.5h12q14 0 23.5 -9.5t9.5 -23.5z" />
    <glyph glyph-name="v" unicode="v" horiz-adv-x="983" 
d="M1094 1077q0 -10 -9 -28l-432 -932q-35 -76 -73 -102.5t-88 -26.5t-81.5 27t-39.5 102l-105 932v8q0 43 37 43h21q27 0 30 -37l99 -924q7 -73 49 -73q35 0 69 73l426 924q17 37 43 37h29q25 0 25 -23z" />
    <glyph glyph-name="w" unicode="w" horiz-adv-x="1540" 
d="M1626 1069q0 -6 -4 -18l-391 -949q-25 -59 -53 -86.5t-70 -27.5q-49 0 -65 28.5t-23 92.5l-80 774q-2 24 -10 24t-19 -24l-354 -774q-29 -65 -54.5 -93t-74.5 -28q-42 0 -60.5 27t-21.5 87l-59 949v2q0 19 14 33t33 14h8q12 0 19.5 -9.5t7.5 -19.5l55 -948q2 -55 18 -55
q11 0 35 53l361 790q35 78 100 78q31 0 51 -18.5t25 -59.5l82 -790q5 -53 20 -53t37 55l387 948q4 10 16.5 19.5t22.5 9.5h16q31 0 31 -31z" />
    <glyph glyph-name="x" unicode="x" horiz-adv-x="1010" 
d="M1100 1077q0 -18 -15 -33l-428 -487l271 -506q8 -16 8 -26q0 -25 -31 -25h-22q-24 0 -33 16l-254 473l-418 -473q-12 -16 -28 -16h-25q-33 0 -33 25q0 11 10 24l453 516l-260 486q-4 6 -4 22q0 27 31 27h20q23 0 33 -17l246 -448l391 448q13 17 41 17h18q29 0 29 -23z
" />
    <glyph glyph-name="y" unicode="y" horiz-adv-x="995" 
d="M1104 1075q0 -11 -6 -26l-541 -1164q-52 -113 -97 -171t-111 -85.5t-173 -27.5q-55 0 -125 12q-37 7 -37 25v4l4 22q7 29 39 29h11q90 -12 129 -12q109 0 165.5 45.5t114.5 177.5l43 96h-24q-34 0 -54.5 9t-32.5 33.5t-18 72.5l-112 936v6q0 18 12.5 30.5t30.5 12.5h14
q9 0 17 -9.5t9 -19.5l111 -942q3 -32 9.5 -38.5t29.5 -6.5h47l455 989q12 27 43 27h22q25 0 25 -25z" />
    <glyph glyph-name="z" unicode="z" horiz-adv-x="913" 
d="M985 1016q0 -54 -41 -96l-733 -797q-17 -21 -18 -25q0 -14 18 -14h594q37 0 37 -25v-6l-4 -20q-3 -16 -16 -24.5t-31 -8.5h-592q-39 0 -64.5 27t-25.5 63q0 43 30 74l752 813q10 10 10 22q0 17 -24 17h-539q-35 0 -35 24v7l4 20q3 15 16 24t31 9h523q55 0 81.5 -23
t26.5 -61z" />
    <glyph glyph-name="braceleft" unicode="{" horiz-adv-x="614" 
d="M836 1489v-2l-2 -17q-5 -32 -46 -32h-94q-102 0 -136.5 -26.5t-49.5 -115.5l-74 -417q-21 -115 -62 -188t-126 -132q86 -80 86 -205q0 -59 -10 -110l-74 -418q-6 -38 -6 -64q0 -47 30.5 -62t112.5 -15h94q33 0 33 -29v-2v-2l-2 -17q-1 -14 -14.5 -24t-30.5 -10h-94
q-113 0 -166 35.5t-53 121.5q0 30 6 68l73 418q13 65 13 114q0 52 -19.5 91.5t-68.5 78.5l12 74q89 56 122.5 111t53.5 166l74 417q17 94 49 142t87.5 66t154.5 18h94q33 0 33 -29v-4z" />
    <glyph glyph-name="bar" unicode="|" horiz-adv-x="459" 
d="M418 -360q0 -15 -10 -27t-25 -12h-21q-14 0 -24 12t-10 27v1843q0 15 10 27t24 12h21q15 0 25 -12t10 -27v-1843z" />
    <glyph glyph-name="braceright" unicode="}" horiz-adv-x="614" 
d="M662 1362q0 -22 -7 -66l-73 -417q-15 -80 -15 -119q0 -53 19.5 -90t68.5 -78l-12 -74q-90 -57 -121 -107.5t-53 -166.5l-74 -418q-16 -93 -42.5 -139t-83.5 -66t-165 -20h-94q-33 0 -33 28v6l3 17q1 14 14 23.5t31 9.5h94q71 0 105.5 10.5t52 40.5t28.5 90l74 418
q21 112 61.5 184t124.5 131q-86 80 -86 201q0 57 13 119l73 417q6 38 6 64q0 32 -13.5 48.5t-44.5 23t-85 6.5h-94q-33 0 -33 26v6l2 17q2 12 8 18.5t17 11.5t20 5h94q117 0 168.5 -39t51.5 -121z" />
    <glyph glyph-name="asciitilde" unicode="~" 
d="M1135 940q0 -108 -48.5 -160.5t-136.5 -52.5t-157 66l-117 112q-34 34 -61 53t-52 19q-110 0 -110 -139v-62q0 -23 -4 -31t-19 -8h-31q-26 0 -26 39v62q0 108 50 162.5t138 54.5q85 0 158 -70l117 -113q34 -32 59.5 -47.5t52.5 -15.5q56 0 81.5 29t25.5 102v64q0 20 4 28
t18 8h31q27 0 27 -36v-64z" />
    <glyph glyph-name="uni00A0" unicode="&#xa0;" 
 />
    <glyph glyph-name="exclamdown" unicode="&#xa1;" horiz-adv-x="418" 
d="M442 1079v-8l-26 -151q-3 -16 -17 -27.5t-28 -11.5h-13q-12 0 -22 10t-10 22v7l26 151q3 15 17 27t30 12h13q30 0 30 -31zM379 711v-6l-193 -1090q-3 -16 -17.5 -27.5t-29.5 -11.5h-12q-13 0 -22 9t-9 24v6l193 1090q3 16 16 27t29 11h12q15 0 24 -9t9 -23z" />
    <glyph glyph-name="cent" unicode="&#xa2;" 
d="M1022 1059v-4l-2 -15q-3 -28 -41 -28h-6h-2q-141 18 -240 18q-167 0 -262 -110t-127 -299l-23 -138q-12 -70 -12 -133q0 -132 61 -207t193 -75q99 0 246 18h2h6q31 0 31 -23v-4v-2l-2 -14q-6 -32 -45 -37q-137 -16 -209 -18l-37 -207q-7 -39 -39 -39h-20q-27 0 -27 31v6
v2l37 209q-100 7 -165 51.5t-94.5 118t-29.5 174.5q0 56 14 149l23 138q21 120 56 204t89 145t128.5 95.5t174.5 42.5l37 209q3 16 15.5 27.5t25.5 11.5h21q24 0 24 -29v-6v-4l-35 -207q69 -2 201 -18q33 -7 33 -27v-6z" />
    <glyph glyph-name="sterling" unicode="&#xa3;" 
d="M1300 1489v-8l-2 -17q-3 -30 -34 -30h-15q-141 16 -295 16q-97 0 -165 -33.5t-111.5 -93t-69.5 -137t-47 -191.5l-26 -151h501q31 0 31 -27v-8l-4 -18q-3 -16 -16.5 -25.5t-30.5 -9.5h-498l-72 -410q-26 -147 -112 -262h684q37 0 37 -23v-6l-4 -22q-6 -33 -47 -33h-762
q-35 0 -35 33q0 17 10 30q58 77 88.5 136t46.5 147l72 410h-109q-30 0 -30 26v9l4 18q3 15 17 25t30 10h104l27 151q31 182 89.5 300t158.5 177.5t254 59.5q157 0 299 -19q32 -5 32 -24z" />
    <glyph glyph-name="currency" unicode="&#xa4;" 
d="M1206 330q0 -15 -10 -25l-14 -14q-10 -10 -23 -10q-15 0 -31 14l-165 168q-107 -84 -240 -84q-134 0 -238 82l-163 -164q-16 -14 -31 -14q-13 0 -23 10l-14 14q-10 10 -10 23q0 16 14 30l162 162q-86 107 -86 244q0 135 84 240l-160 159q-14 16 -14 31q0 13 10 25l14 14
q10 10 21 10q15 0 33 -16l159 -160q107 84 240 84q135 0 244 -86l163 164q16 14 31 14q13 0 23 -10l14 -14q10 -12 10 -23q0 -15 -14 -31l-164 -163q40 -50 61 -113t21 -125q0 -133 -84 -240l166 -166q14 -14 14 -30zM1026 766q0 64 -23.5 118t-65 95.5t-97 64.5t-117.5 23
q-81 0 -151.5 -40t-111 -109t-40.5 -152q0 -82 40.5 -152t110.5 -110.5t152 -40.5t152 40.5t110.5 110.5t40.5 152z" />
    <glyph glyph-name="yen" unicode="&#xa5;" 
d="M1329 1499q0 -13 -12 -33l-340 -501h252q31 0 31 -27v-6l-3 -19q-1 -15 -14.5 -23.5t-32.5 -8.5h-290l-170 -248l-11 -62h420q31 0 31 -26v-6l-2 -19q-1 -14 -15 -23.5t-32 -9.5h-416l-80 -448q-7 -39 -41 -39h-20q-29 0 -29 31v8l80 448h-420q-31 0 -31 27v6l2 19
q1 14 15.5 23t31.5 9h416l10 62l-79 250l-295 -2q-31 0 -31 26v6l2 19q1 14 15.5 23.5t31.5 9.5h248l-164 501q-4 18 -4 23q0 33 37 33h24q10 0 18 -8t11 -17l248 -758l512 758q17 25 37 25h28q31 0 31 -23z" />
    <glyph glyph-name="brokenbar" unicode="&#xa6;" horiz-adv-x="459" 
d="M274 739q0 -16 -9.5 -27.5t-24.5 -11.5h-21q-15 0 -25 12t-10 27v713q0 15 9.5 27t25.5 12h21q16 0 25 -11t9 -28v-713zM274 -393q0 -17 -9.5 -28t-24.5 -11h-21q-15 0 -25 12t-10 27v712q0 15 9.5 27t25.5 12h21q16 0 25 -11t9 -28v-712z" />
    <glyph glyph-name="section" unicode="&#xa7;" horiz-adv-x="1067" 
d="M1184 1481v-2l-2 -17q-1 -15 -14 -23.5t-31 -8.5q-15 0 -130 8t-176 8q-191 0 -309.5 -61.5t-118.5 -233.5q0 -65 45 -119t158 -133l178 -123q139 -94 193.5 -175t54.5 -165q0 -32 -6 -65q-23 -139 -100 -228q32 -57 32 -131q0 -235 -151.5 -344.5t-398.5 -109.5
q-152 0 -312 16q-28 3 -28 33v4v2l2 12q3 16 17.5 25.5t31.5 9.5h2h2q128 -10 177 -13t122 -3q128 0 227.5 36t158 115.5t58.5 206.5q0 73 -48.5 132.5t-174.5 144.5l-184 124q-125 86 -174 159.5t-49 150.5q0 30 6 57q13 78 38.5 123.5t71.5 95.5q-43 63 -43 152
q0 219 150 305t389 86q73 0 167 -4t142 -10q27 -3 27 -33v-4zM942 430q0 68 -47.5 129.5t-175.5 147.5l-184 124q-71 48 -123 95q-62 -56 -80 -156q-4 -18 -4 -49q0 -44 20 -81.5t64 -77t118 -91.5l179 -123q119 -83 165 -135q48 69 62 158q6 30 6 59z" />
    <glyph glyph-name="dieresis" unicode="&#xa8;" horiz-adv-x="676" 
d="M803 1511v-6l-27 -151q-3 -17 -17 -28t-30 -11h-12q-31 0 -31 31v8l27 151q3 15 15.5 27t29.5 12h12q14 0 23.5 -9.5t9.5 -23.5zM496 1511v-6l-27 -151q-3 -16 -17 -27.5t-30 -11.5h-12q-31 0 -31 31v8l27 151q3 15 15.5 27t29.5 12h12q14 0 23.5 -9.5t9.5 -23.5z" />
    <glyph glyph-name="copyright" unicode="&#xa9;" horiz-adv-x="1495" 
d="M1563 766q0 -176 -88 -326.5t-239.5 -238.5t-330.5 -88q-178 0 -328.5 87.5t-237.5 237.5t-87 328q0 177 87.5 329.5t238 241t327.5 88.5q137 0 255.5 -50.5t209.5 -142t142 -211.5t51 -255zM1483 766q0 157 -77 290t-210.5 211.5t-290.5 78.5q-156 0 -289.5 -78.5
t-210.5 -211.5t-77 -290t77 -289.5t210 -209.5t290 -77q118 0 223.5 44t185.5 123.5t124.5 185t44.5 223.5zM1112 375q0 -28 -33 -33q-90 -12 -198 -12q-126 0 -209.5 87.5t-83.5 280.5v148q0 193 83 280.5t210 87.5q108 0 198 -12q33 -5 33 -31v-16q0 -25 -27 -25h-10
q-90 11 -194 11q-97 0 -156 -70.5t-59 -224.5v-148q0 -154 59 -224.5t156 -70.5q81 0 194 11h6q31 0 31 -29v-10z" />
    <glyph glyph-name="ordfeminine" unicode="&#xaa;" horiz-adv-x="549" 
d="M709 1370q0 -31 -7 -59l-61 -350q-3 -28 -29 -33q-84 -23 -170 -23q-100 0 -148 34t-48 108q0 13 4 43l2 14q13 94 83.5 136t217.5 42h76l4 29q8 48 8 63q0 48 -23.5 67t-80.5 19q-69 0 -154 -10h-2h-2q-29 0 -29 18q0 22 8 31t33 12q27 5 66 8t90 3q162 0 162 -152z
M618 1219h-73q-121 0 -169 -26t-59 -89l-2 -14q-4 -30 -4 -41q0 -44 30.5 -63t111.5 -19q50 0 125 12z" />
    <glyph glyph-name="guillemotleft" unicode="&#xab;" horiz-adv-x="1096" 
d="M1151 915q0 -25 -25 -43l-421 -331l305 -332q10 -13 10 -21q0 -11 -14 -22l-17 -14q-13 -11 -22 -11q-12 0 -29 17l-307 334q-19 20 -19 45q0 41 41 73l422 334q21 14 35 14q12 0 20 -8l17 -20q4 -4 4 -15zM680 915q0 -25 -25 -43l-422 -331l306 -332q10 -13 10 -21
q0 -11 -14 -22l-17 -14q-13 -11 -22 -11q-12 0 -29 17l-307 334q-19 20 -19 45q0 41 41 73l422 334q21 14 35 14q12 0 20 -8l17 -20q4 -4 4 -15z" />
    <glyph glyph-name="logicalnot" unicode="&#xac;" 
d="M1157 594q0 -41 -33 -41h-20q-33 0 -33 41v369h-702q-41 0 -41 32v21q0 15 11.5 24t29.5 9h755q15 0 24 -11t9 -26v-418z" />
    <glyph glyph-name="uni00AD" unicode="&#xad;" horiz-adv-x="705" 
d="M700 582v-7l-4 -16q-7 -33 -45 -33h-413q-33 0 -33 27v6l4 16q3 16 15.5 26.5t29.5 10.5h414q32 0 32 -30z" />
    <glyph glyph-name="registered" unicode="&#xae;" horiz-adv-x="1262" 
d="M1354 991q0 -108 -40.5 -205t-117.5 -173t-174.5 -117t-206.5 -41t-206.5 40.5t-174 117.5t-117.5 173t-41 205q0 110 41.5 207t117 173.5t173.5 117.5t207 41t207 -41t174 -117t117 -174t41 -207zM1282 991q0 126 -62.5 234t-170.5 170.5t-234 62.5q-127 0 -233.5 -62.5
t-169 -170.5t-62.5 -234q0 -127 62 -234t169 -169t234 -62q126 0 234 62.5t170.5 169t62.5 233.5zM1059 676q0 -27 -29 -27h-10q-18 0 -27 15l-186 284h-2q-7 1 -12.5 1.5t-16.5 0.5h-69h-31v-268q0 -11 -9.5 -22t-21.5 -11h-8q-12 0 -21.5 11t-9.5 22v631q0 11 8.5 21
t20.5 12q62 4 141 4q131 0 194.5 -45.5t63.5 -153.5v-4q0 -81 -36.5 -125.5t-112.5 -63.5l168 -260q6 -9 6 -22zM965 1147v4q0 73 -44 102t-145 29q-71 0 -100 -2v-262q34 0 55.5 -0.5t44.5 -1.5q104 0 146.5 28.5t42.5 102.5z" />
    <glyph glyph-name="uni00AF" unicode="&#xaf;" horiz-adv-x="952" 
d="M1243 1697v-6l-2 -21q-1 -15 -15 -24t-32 -9h-993q-35 0 -35 27v6l2 21q1 16 14.5 24t32.5 8h993q35 0 35 -26z" />
    <glyph glyph-name="degree" unicode="&#xb0;" horiz-adv-x="678" 
d="M854 1255q0 -73 -37.5 -137t-101.5 -101.5t-137 -37.5q-74 0 -139 37.5t-102.5 101.5t-37.5 137q0 74 37.5 138t102.5 101.5t139 37.5q55 0 106.5 -22t89 -60t59 -89t21.5 -106zM776 1255q0 54 -27 100t-72 73.5t-99 27.5t-100 -27t-72.5 -73.5t-26.5 -100.5
q0 -80 59 -139t140 -59q53 0 98.5 27t72.5 72.5t27 98.5z" />
    <glyph glyph-name="plusminus" unicode="&#xb1;" 
d="M1182 791q0 -33 -41 -33h-373v-371q0 -41 -33 -41h-20q-33 0 -33 41v371h-371q-41 0 -41 33v20q0 33 41 33h371v373q0 40 33 40h20q33 0 33 -40v-373h373q41 0 41 -33v-20zM1182 33q0 -33 -41 -33h-830q-41 0 -41 33v20q0 33 41 33h830q41 0 41 -33v-20z" />
    <glyph glyph-name="twosuperior" unicode="&#xb2;" horiz-adv-x="676" 
d="M821 1372q0 -11 -4 -37q-13 -78 -58 -129.5t-153 -115.5l-129 -78q-66 -40 -97.5 -73t-44.5 -69t-22 -96l-2 -14h379q19 0 19 -12v-5l-9 -43q-3 -16 -24 -16h-438q-19 0 -19 18v5l12 67q12 62 25.5 103t37.5 74.5t62.5 65.5t102.5 70l129 78q59 36 86.5 59.5t40 48
t18.5 62.5q2 11 2 31q0 48 -38.5 68t-135.5 20q-82 0 -176 -16h-2h-4q-14 0 -14 12v4l6 43q3 13 26 19q80 16 176 16q120 0 184 -41t64 -119z" />
    <glyph glyph-name="threesuperior" unicode="&#xb3;" horiz-adv-x="676" 
d="M811 1364q0 -25 -2 -37l-2 -14q-17 -127 -131 -187q69 -44 69 -141q0 -17 -4 -41l-4 -22q-12 -68 -39 -116t-67 -74t-95.5 -37t-134.5 -11t-161 16q-17 3 -17 19l6 39q3 18 23 18h4q79 -14 160 -14q77 0 124 14.5t75 49.5t38 96l4 22q5 30 5 39q0 48 -27.5 78.5
t-93.5 30.5h-213q-17 0 -17 16v4l6 37q3 20 25 20h213q146 0 168 144l2 14q2 10 2 29q0 56 -42.5 77t-147.5 21q-66 0 -164 -16h-4q-17 0 -17 14v4l8 39q3 16 23 21q90 16 168 16q260 0 260 -168z" />
    <glyph glyph-name="acute" unicode="&#xb4;" horiz-adv-x="676" 
d="M834 1581q0 -7 -11 -18l-243 -263q-19 -19 -28 -26.5t-24 -7.5h-53q-16 0 -16 12q0 10 12 22l229 263q26 30 52 30h61q21 0 21 -12z" />
    <glyph glyph-name="uni00B5" unicode="&#xb5;" horiz-adv-x="1067" 
d="M1110 1067v-6l-172 -983q-2 -13 -12.5 -23.5t-20.5 -13.5q-84 -25 -180.5 -39t-179.5 -14q-206 0 -293 123l-82 -471q-7 -39 -41 -39h-20q-29 0 -29 32v7l250 1421q3 16 17 27.5t30 11.5h14q14 0 21.5 -9t7.5 -24v-6l-119 -682q-8 -47 -8 -94q0 -77 28.5 -124.5t88 -70
t149.5 -22.5q151 0 293 38l168 955q3 15 17.5 27t29.5 12h12q13 0 22 -10t9 -23z" />
    <glyph glyph-name="paragraph" unicode="&#xb6;" horiz-adv-x="1227" 
d="M1348 1497q0 -4 -0.5 -7t-1.5 -7l-326 -1843q-3 -17 -15 -28t-26 -11h-21q-28 0 -28 32v7l317 1798h-114l-318 -1798q-7 -39 -41 -39h-20q-29 0 -29 32v7l162 923h-223q-188 0 -295 92.5t-107 259.5q0 43 10 105l9 45q27 145 102.5 248t192 156t258.5 53h485q29 0 29 -25
z" />
    <glyph glyph-name="uni00B7" unicode="&#xb7;" horiz-adv-x="344" 
d="M375 895v-6l-29 -152q-3 -17 -16 -28t-29 -11h-12q-15 0 -24 10t-9 23v6l29 152q3 16 16.5 27.5t28.5 11.5h12q13 0 23 -10t10 -23z" />
    <glyph glyph-name="cedilla" unicode="&#xb8;" horiz-adv-x="676" 
d="M420 -74q0 -8 -12 -20l-267 -262q-26 -26 -31 -30.5t-20 -4.5h-45q-16 0 -16 12q0 9 12 23l252 262q19 19 28.5 25t24.5 6h53q21 0 21 -11z" />
    <glyph glyph-name="onesuperior" unicode="&#xb9;" horiz-adv-x="559" 
d="M618 1505v-4l-139 -796q-3 -21 -22 -21h-43q-15 0 -15 14v7l129 733l-170 -70q-12 -4 -16 -4q-8 0 -8 6v4l8 47q3 14 18 19l193 82h47q9 0 13.5 -5.5t4.5 -11.5z" />
    <glyph glyph-name="ordmasculine" unicode="&#xba;" horiz-adv-x="588" 
d="M756 1325q0 -20 -8 -74l-15 -75q-52 -271 -278 -271q-93 0 -144 55t-51 144q0 22 8 72l15 75q50 271 280 271q95 0 144 -53t49 -144zM688 1329q0 67 -32.5 99t-102.5 32q-85 0 -134.5 -56t-68.5 -153l-14 -75q-8 -39 -8 -76q0 -133 137 -133q161 0 201 209l14 75
q8 39 8 78z" />
    <glyph glyph-name="guillemotright" unicode="&#xbb;" horiz-adv-x="1096" 
d="M1149 563q0 -42 -41 -74l-422 -333q-20 -15 -35 -15q-12 0 -20 9l-17 20q-4 4 -4 14q0 25 25 43l422 332l-305 332q-11 13 -11 20q0 12 15 23l16 14q13 10 23 10q12 0 28 -16l307 -334q19 -20 19 -45zM678 563q0 -42 -41 -74l-422 -333q-20 -15 -35 -15q-12 0 -20 9
l-17 20q-4 4 -4 14q0 25 25 43l422 332l-305 332q-11 13 -11 20q0 12 15 23l16 14q13 10 23 10q12 0 28 -16l307 -334q19 -20 19 -45z" />
    <glyph glyph-name="onequarter" unicode="&#xbc;" horiz-adv-x="1473" 
d="M618 1503v-2l-139 -796q-3 -21 -20 -21h-43q-17 0 -17 16v5l129 733l-170 -70q-12 -4 -16 -4q-8 0 -8 6v4l8 47q3 14 18 19l193 82h47q9 0 13.5 -5.5t4.5 -13.5zM1430 285v-2l-7 -35q-3 -19 -24 -19h-94l-37 -206q-4 -23 -23 -23h-45q-14 0 -14 16v7l37 206h-297
q-28 0 -44 18.5t-16 43.5q0 36 23 61l397 463q27 29 70 29q18 0 32.5 -12t14.5 -33v-11l-86 -487h94q19 0 19 -16zM1380 1513q0 -8 -16 -30l-1110 -1456q-19 -24 -27 -31.5t-22 -7.5h-64q-12 0 -12 8q0 7 16 31l1110 1456q25 29 31 34t19 5h61q14 0 14 -9zM1311 729l-2 2
q-1 0 -13 -10l-325 -377q-19 -24 -19 -31q0 -12 25 -12h258l74 416z" />
    <glyph glyph-name="onehalf" unicode="&#xbd;" horiz-adv-x="1466" 
d="M1493 682q0 -13 -4 -37q-9 -52 -31 -89t-60 -68t-120 -82l-129 -78q-93 -56 -123 -104.5t-41 -133.5l-2 -14h379q18 0 18 -13v-4l-8 -43q-3 -16 -24 -16h-439q-18 0 -18 18v5l12 67q15 82 35.5 130t63 89.5t128.5 93.5l130 78q83 51 109.5 80t35.5 84q2 10 2 31
q0 46 -39 67t-135 21q-82 0 -176 -16h-6q-15 0 -15 12v4l6 43q3 14 27 18q77 17 176 17q120 0 184 -42t64 -118zM618 1503v-2l-139 -796q-3 -21 -20 -21h-43q-17 0 -17 16v5l129 733l-170 -70q-12 -4 -16 -4q-8 0 -8 6v4l8 47q3 14 18 19l193 82h47q9 0 13.5 -5.5t4.5 -13.5
zM1380 1513q0 -8 -16 -30l-1110 -1456q-19 -24 -27 -31.5t-22 -7.5h-64q-12 0 -12 8q0 7 16 31l1110 1456q25 29 31 34t19 5h61q14 0 14 -9z" />
    <glyph glyph-name="threequarters" unicode="&#xbe;" horiz-adv-x="1579" 
d="M1569 1513q0 -8 -17 -30l-1110 -1456q-21 -26 -28 -32.5t-21 -6.5h-63q-13 0 -13 8q0 6 17 31l1110 1456q21 26 28.5 32.5t20.5 6.5h61q15 0 15 -9zM1536 285v-2l-6 -35q-3 -19 -25 -19h-94l-37 -206q-4 -23 -22 -23h-45q-15 0 -15 16v7l37 206h-297q-28 0 -43.5 19
t-15.5 43q0 36 22 61l398 463q26 29 69 29q18 0 32.5 -12t14.5 -33v-11l-86 -487h95q18 0 18 -16zM1417 729l-2 2q-2 0 -12 -10l-326 -377q-18 -22 -18 -31q0 -12 24 -12h258l74 416zM811 1364q0 -25 -2 -37l-2 -14q-17 -127 -131 -187q69 -44 69 -141q0 -17 -4 -41l-4 -22
q-12 -68 -39 -116t-67 -74t-95.5 -37t-134.5 -11t-161 16q-17 3 -17 19l6 39q3 18 23 18h4q79 -14 160 -14q77 0 124 14.5t75 49.5t38 96l4 22q5 30 5 39q0 48 -27.5 78.5t-93.5 30.5h-213q-17 0 -17 16v4l6 37q3 20 25 20h213q146 0 168 144l2 14q2 10 2 29q0 56 -42.5 77
t-147.5 21q-66 0 -164 -16h-4q-17 0 -17 14v4l8 39q3 16 23 21q90 16 168 16q260 0 260 -168z" />
    <glyph glyph-name="questiondown" unicode="&#xbf;" horiz-adv-x="868" 
d="M813 1075v-2l-27 -151q-3 -16 -17.5 -27.5t-29.5 -11.5h-12q-13 0 -22 9t-9 23v5v2l27 151q3 16 16.5 27.5t28.5 11.5h12q15 0 24 -9t9 -24v-4zM745 709v-2l-20 -123q-16 -103 -58 -165.5t-151 -154.5l-67 -57q-68 -59 -118 -106.5t-76.5 -82.5t-39 -67t-16.5 -70l-2 -16
q-2 -17 -2 -43q0 -93 62 -133.5t198 -40.5q48 0 122 5t123 9h2h3q26 0 26 -20v-2v-2l-2 -17q-4 -34 -43 -39q-120 -14 -246 -14q-159 0 -251.5 63.5t-92.5 188.5q0 28 2 45l2 16q10 69 35.5 120t86.5 113.5t171 153.5l74 62q95 79 125 125t43 129l20 123q3 17 16.5 27.5
t28.5 10.5h13q14 0 23 -9t9 -23v-4z" />
    <glyph glyph-name="Agrave" unicode="&#xc0;" horiz-adv-x="1268" 
d="M1194 37q0 -43 -39 -43h-20q-23 0 -27 26l-74 555h-590l-266 -555q-13 -26 -39 -26h-30q-27 0 -27 24q0 7 8 27l664 1387q48 100 151 100q49 0 78 -26t35 -72l176 -1389v-8zM1026 666l-92 741q-1 15 -12.5 28t-26.5 13q-38 0 -55 -39l-357 -743h543zM1019 1643
q0 -18 -20 -18h-37q-13 0 -20 7.5t-19 26.5l-172 263q-6 9 -6 14q0 16 25 16h45q23 0 43 -30l157 -263q4 -6 4 -16z" />
    <glyph glyph-name="Aacute" unicode="&#xc1;" horiz-adv-x="1268" 
d="M1194 37q0 -43 -39 -43h-20q-23 0 -27 26l-74 555h-590l-266 -555q-13 -26 -39 -26h-30q-27 0 -27 24q0 7 8 27l664 1387q48 100 151 100q49 0 78 -26t35 -72l176 -1389v-8zM1026 666l-92 741q-1 15 -12.5 28t-26.5 13q-38 0 -55 -39l-357 -743h543zM1166 1942
q0 -7 -11 -18l-243 -263q-19 -19 -28 -26.5t-24 -7.5h-53q-16 0 -16 12q0 10 12 22l229 263q26 30 52 30h61q21 0 21 -12z" />
    <glyph glyph-name="Acircumflex" unicode="&#xc2;" horiz-adv-x="1268" 
d="M1194 37q0 -43 -39 -43h-20q-23 0 -27 26l-74 555h-590l-266 -555q-13 -26 -39 -26h-30q-27 0 -27 24q0 7 8 27l664 1387q48 100 151 100q49 0 78 -26t35 -72l176 -1389v-8zM1026 666l-92 741q-1 15 -12.5 28t-26.5 13q-38 0 -55 -39l-357 -743h543zM1225 1645
q0 -18 -20 -18h-39q-14 0 -20.5 7.5t-18.5 26.5l-152 232l-233 -232q-19 -19 -28 -26.5t-23 -7.5h-51q-17 0 -17 12q0 10 12 22l252 263q31 30 52 30h81q24 0 43 -30l158 -263q4 -6 4 -16z" />
    <glyph glyph-name="Atilde" unicode="&#xc3;" horiz-adv-x="1268" 
d="M1194 37q0 -43 -39 -43h-20q-23 0 -27 26l-74 555h-590l-266 -555q-13 -26 -39 -26h-30q-27 0 -27 24q0 7 8 27l664 1387q48 100 151 100q49 0 78 -26t35 -72l176 -1389v-8zM1026 666l-92 741q-1 15 -12.5 28t-26.5 13q-38 0 -55 -39l-357 -743h543zM1308 1868
q0 -4 -0.5 -7t-1.5 -7l-9 -53q-14 -93 -62.5 -139t-125.5 -46q-47 0 -82 15t-74 63l-57 70q-45 53 -86 53q-89 0 -106 -105l-9 -53q-6 -33 -26 -33h-43q-19 0 -19 19q1 3 1.5 6t0.5 8l9 53q13 92 64 138.5t128 46.5q48 0 80.5 -15t69.5 -61l59 -72q45 -53 90 -53
q41 0 66.5 21.5t35.5 83.5l9 53q3 18 8.5 25.5t17.5 7.5h43q19 0 19 -19z" />
    <glyph glyph-name="Adieresis" unicode="&#xc4;" horiz-adv-x="1268" 
d="M1194 37q0 -43 -39 -43h-20q-23 0 -27 26l-74 555h-590l-266 -555q-13 -26 -39 -26h-30q-27 0 -27 24q0 7 8 27l664 1387q48 100 151 100q49 0 78 -26t35 -72l176 -1389v-8zM1026 666l-92 741q-1 15 -12.5 28t-26.5 13q-38 0 -55 -39l-357 -743h543zM1163 1863v-6
l-27 -151q-3 -17 -17 -28t-30 -11h-12q-31 0 -31 31v8l27 151q3 15 15.5 27t29.5 12h12q14 0 23.5 -9.5t9.5 -23.5zM856 1863v-6l-27 -151q-3 -16 -17 -27.5t-30 -11.5h-12q-31 0 -31 31v8l27 151q3 15 15.5 27t29.5 12h12q14 0 23.5 -9.5t9.5 -23.5z" />
    <glyph glyph-name="Aring" unicode="&#xc5;" horiz-adv-x="1268" 
d="M1194 37q0 -43 -39 -43h-20q-23 0 -27 26l-74 555h-590l-266 -555q-13 -26 -39 -26h-30q-27 0 -27 24q0 7 8 27l664 1387q48 100 151 100q49 0 78 -26t35 -72l176 -1389v-8zM1026 666l-92 741q-1 15 -12.5 28t-26.5 13q-38 0 -55 -39l-357 -743h543zM1139 1778
q0 -79 -56 -135t-134 -56q-77 0 -134 57t-57 134q0 78 56 134t135 56q40 0 74 -14t61 -41t41 -61t14 -74zM1068 1778q0 50 -35 84t-84 34q-50 0 -83.5 -34.5t-33.5 -83.5q0 -50 33.5 -84.5t83.5 -34.5q49 0 84 34t35 85z" />
    <glyph glyph-name="AE" unicode="&#xc6;" horiz-adv-x="1800" 
d="M1946 1493v-6l-2 -17q-1 -15 -14 -23.5t-32 -8.5h-686l-106 -596h686q35 0 35 -27v-6l-4 -21q-7 -34 -45 -34h-686l-105 -588q-4 -24 -4 -35q0 -25 16 -36t54 -11h606q33 0 33 -27v-6l-2 -16q-1 -15 -14.5 -25t-30.5 -10h-607q-145 0 -145 123q0 15 4 43l74 409h-549
l-266 -555q-5 -9 -17.5 -17.5t-21.5 -8.5h-27q-27 0 -27 24q0 5 9 27l661 1376q22 46 62 73.5t90 27.5h1028q33 0 33 -29zM1122 1438h-252q-37 0 -55 -39l-354 -733h524z" />
    <glyph glyph-name="Ccedilla" unicode="&#xc7;" horiz-adv-x="1100" 
d="M1278 1481v-4l-4 -25q-5 -25 -31 -25h-8h-4q-152 19 -352 19q-125 0 -226.5 -53.5t-174 -176t-107.5 -321.5l-47 -270q-19 -108 -19 -193q0 -191 88 -274.5t244 -83.5q189 0 358 18h4h9q22 0 22 -16v-8l-4 -25q-3 -13 -17 -23t-28 -12q-183 -20 -358 -20
q-113 0 -205 44.5t-147.5 143.5t-55.5 258q0 86 18 191l48 270q42 239 131.5 379.5t211 199t271.5 58.5q191 0 350 -21q33 -4 33 -30zM721 -74q0 -8 -12 -20l-267 -262q-26 -26 -31 -30.5t-20 -4.5h-45q-14 0 -14 12q0 8 10 23l252 262q19 19 28.5 25t24.5 6h53q21 0 21 -11
z" />
    <glyph glyph-name="Egrave" unicode="&#xc8;" horiz-adv-x="1092" 
d="M1241 1493v-6l-2 -17q-2 -16 -14.5 -24t-30.5 -8h-528q-85 0 -126.5 -28.5t-58.5 -117.5l-80 -450h686q35 0 35 -27v-6l-4 -21q-7 -34 -45 -34h-686l-92 -525q-4 -18 -4 -49q0 -57 33 -76.5t102 -19.5h528q33 0 33 -27v-6l-2 -16q-2 -16 -15 -25.5t-30 -9.5h-528
q-213 0 -213 174q0 25 6 55l186 1063q23 131 91.5 180.5t197.5 49.5h528q33 0 33 -29zM1000 1645q0 -18 -20 -18h-37q-13 0 -20 7.5t-19 26.5l-172 263q-6 9 -6 14q0 16 25 16h45q23 0 43 -30l157 -263q4 -6 4 -16z" />
    <glyph glyph-name="Eacute" unicode="&#xc9;" horiz-adv-x="1092" 
d="M1241 1493v-6l-2 -17q-2 -16 -14.5 -24t-30.5 -8h-528q-85 0 -126.5 -28.5t-58.5 -117.5l-80 -450h686q35 0 35 -27v-6l-4 -21q-7 -34 -45 -34h-686l-92 -525q-4 -18 -4 -49q0 -57 33 -76.5t102 -19.5h528q33 0 33 -27v-6l-2 -16q-2 -16 -15 -25.5t-30 -9.5h-528
q-213 0 -213 174q0 25 6 55l186 1063q23 131 91.5 180.5t197.5 49.5h528q33 0 33 -29zM1145 1942q0 -7 -11 -18l-243 -263q-19 -19 -28 -26.5t-24 -7.5h-53q-16 0 -16 12q0 10 12 22l229 263q26 30 52 30h61q21 0 21 -12z" />
    <glyph glyph-name="Ecircumflex" unicode="&#xca;" horiz-adv-x="1092" 
d="M1241 1493v-6l-2 -17q-2 -16 -14.5 -24t-30.5 -8h-528q-85 0 -126.5 -28.5t-58.5 -117.5l-80 -450h686q35 0 35 -27v-6l-4 -21q-7 -34 -45 -34h-686l-92 -525q-4 -18 -4 -49q0 -57 33 -76.5t102 -19.5h528q33 0 33 -27v-6l-2 -16q-2 -16 -15 -25.5t-30 -9.5h-528
q-213 0 -213 174q0 25 6 55l186 1063q23 131 91.5 180.5t197.5 49.5h528q33 0 33 -29zM1165 1645q0 -18 -20 -18h-39q-14 0 -20.5 7.5t-18.5 26.5l-152 232l-233 -232q-19 -19 -28 -26.5t-23 -7.5h-51q-17 0 -17 12q0 10 12 22l252 263q31 30 52 30h81q24 0 43 -30l158 -263
q4 -6 4 -16z" />
    <glyph glyph-name="Edieresis" unicode="&#xcb;" horiz-adv-x="1092" 
d="M1241 1493v-6l-2 -17q-2 -16 -14.5 -24t-30.5 -8h-528q-85 0 -126.5 -28.5t-58.5 -117.5l-80 -450h686q35 0 35 -27v-6l-4 -21q-7 -34 -45 -34h-686l-92 -525q-4 -18 -4 -49q0 -57 33 -76.5t102 -19.5h528q33 0 33 -27v-6l-2 -16q-2 -16 -15 -25.5t-30 -9.5h-528
q-213 0 -213 174q0 25 6 55l186 1063q23 131 91.5 180.5t197.5 49.5h528q33 0 33 -29zM1107 1861v-6l-27 -151q-3 -17 -17 -28t-30 -11h-12q-31 0 -31 31v8l27 151q3 15 15.5 27t29.5 12h12q14 0 23.5 -9.5t9.5 -23.5zM800 1861v-6l-27 -151q-3 -16 -17 -27.5t-30 -11.5h-12
q-31 0 -31 31v8l27 151q3 15 15.5 27t29.5 12h12q14 0 23.5 -9.5t9.5 -23.5z" />
    <glyph glyph-name="Igrave" unicode="&#xcc;" horiz-adv-x="459" 
d="M537 1491v-8l-256 -1444q-9 -39 -41 -39h-21q-29 0 -29 31v8l256 1444q5 17 16 28t25 11h21q13 0 21 -9t8 -22zM612 1645q0 -18 -20 -18h-37q-13 0 -20 7.5t-19 26.5l-172 263q-6 9 -6 14q0 16 25 16h45q23 0 43 -30l157 -263q4 -6 4 -16z" />
    <glyph glyph-name="Iacute" unicode="&#xcd;" horiz-adv-x="459" 
d="M537 1491v-8l-256 -1444q-9 -39 -41 -39h-21q-29 0 -29 31v8l256 1444q5 17 16 28t25 11h21q13 0 21 -9t8 -22zM789 1942q0 -7 -11 -18l-243 -263q-19 -19 -28 -26.5t-24 -7.5h-53q-16 0 -16 12q0 10 12 22l229 263q26 30 52 30h61q21 0 21 -12z" />
    <glyph glyph-name="Icircumflex" unicode="&#xce;" horiz-adv-x="459" 
d="M537 1491v-8l-256 -1444q-9 -39 -41 -39h-21q-29 0 -29 31v8l256 1444q5 17 16 28t25 11h21q13 0 21 -9t8 -22zM823 1645q0 -18 -20 -18h-39q-14 0 -20.5 7.5t-18.5 26.5l-152 232l-233 -232q-19 -19 -28 -26.5t-23 -7.5h-51q-17 0 -17 12q0 10 12 22l252 263
q31 30 52 30h81q24 0 43 -30l158 -263q4 -6 4 -16z" />
    <glyph glyph-name="Idieresis" unicode="&#xcf;" horiz-adv-x="459" 
d="M537 1491v-8l-256 -1444q-9 -39 -41 -39h-21q-29 0 -29 31v8l256 1444q5 17 16 28t25 11h21q13 0 21 -9t8 -22zM755 1863v-6l-27 -151q-3 -17 -17 -28t-30 -11h-12q-31 0 -31 31v8l27 151q3 15 15.5 27t29.5 12h12q14 0 23.5 -9.5t9.5 -23.5zM448 1863v-6l-27 -151
q-3 -16 -17 -27.5t-30 -11.5h-12q-31 0 -31 31v8l27 151q3 15 15.5 27t29.5 12h12q14 0 23.5 -9.5t9.5 -23.5z" />
    <glyph glyph-name="Eth" unicode="&#xd0;" horiz-adv-x="1255" 
d="M1305 1067q0 -88 -17 -180l-45 -254q-32 -183 -96.5 -307t-157 -198t-205.5 -107t-252 -33q-242 0 -333 16q-27 3 -27 33v4v2l125 711h-145q-33 0 -33 28v4v2l4 21q7 33 43 33h145l113 635q7 30 41 39q98 16 340 16q150 0 263 -48t175 -152t62 -265zM1217 1067
q0 111 -31 185t-88.5 119t-133 63t-173.5 18q-99 0 -283 -12l-107 -598h174q35 0 35 -27v-4v-2l-4 -21q-7 -34 -45 -34h-174l-119 -678q117 -8 279 -8q232 0 393 136.5t213 428.5l45 254q19 106 19 180z" />
    <glyph glyph-name="Ntilde" unicode="&#xd1;" horiz-adv-x="1333" 
d="M1432 1491v-8l-246 -1393q-9 -49 -38.5 -75.5t-70.5 -26.5q-38 0 -60 14t-34 51l-446 1379q-2 6 -7 10t-12 4q-9 0 -12 -14l-246 -1393q-7 -39 -41 -39h-20q-29 0 -29 31v8l246 1393q10 53 42 76.5t70 23.5q69 0 93 -64l446 -1380q4 -14 12 -14q2 0 7.5 5t7.5 11
l245 1393q8 39 39 39h25q29 0 29 -31zM1326 1868q0 -4 -0.5 -7t-1.5 -7l-9 -53q-14 -93 -62.5 -139t-125.5 -46q-47 0 -82 15t-74 63l-57 70q-45 53 -86 53q-89 0 -106 -105l-9 -53q-6 -33 -26 -33h-43q-19 0 -19 19q1 3 1.5 6t0.5 8l9 53q13 92 64 138.5t128 46.5
q48 0 80.5 -15t69.5 -61l59 -72q45 -53 90 -53q41 0 66.5 21.5t35.5 83.5l9 53q3 18 8.5 25.5t17.5 7.5h43q19 0 19 -19z" />
    <glyph glyph-name="Ograve" unicode="&#xd2;" horiz-adv-x="1294" 
d="M1346 1075q0 -79 -19 -188l-45 -254q-31 -173 -91 -297t-143 -200t-184 -112t-219 -36q-130 0 -227 49t-150 149.5t-53 255.5q0 86 18 191l46 254q42 233 132 377t218 206t289 62q199 0 313.5 -115t114.5 -342zM1255 1079q0 197 -93 282t-261 85q-131 0 -237.5 -53.5
t-182.5 -176.5t-112 -329l-45 -254q-19 -108 -19 -195q0 -195 92 -279.5t262 -84.5q131 0 238 57t183.5 183t111.5 319l45 254q18 107 18 192zM1085 1643q0 -18 -20 -18h-37q-13 0 -20 7.5t-19 26.5l-172 263q-6 9 -6 14q0 16 25 16h45q23 0 43 -30l157 -263q4 -6 4 -16z
" />
    <glyph glyph-name="Oacute" unicode="&#xd3;" horiz-adv-x="1294" 
d="M1346 1075q0 -79 -19 -188l-45 -254q-31 -173 -91 -297t-143 -200t-184 -112t-219 -36q-130 0 -227 49t-150 149.5t-53 255.5q0 86 18 191l46 254q42 233 132 377t218 206t289 62q199 0 313.5 -115t114.5 -342zM1255 1079q0 197 -93 282t-261 85q-131 0 -237.5 -53.5
t-182.5 -176.5t-112 -329l-45 -254q-19 -108 -19 -195q0 -195 92 -279.5t262 -84.5q131 0 238 57t183.5 183t111.5 319l45 254q18 107 18 192zM1153 1940q0 -7 -11 -18l-243 -263q-19 -19 -28 -26.5t-24 -7.5h-53q-16 0 -16 12q0 10 12 22l229 263q26 30 52 30h61
q21 0 21 -12z" />
    <glyph glyph-name="Ocircumflex" unicode="&#xd4;" horiz-adv-x="1294" 
d="M1346 1075q0 -79 -19 -188l-45 -254q-31 -173 -91 -297t-143 -200t-184 -112t-219 -36q-130 0 -227 49t-150 149.5t-53 255.5q0 86 18 191l46 254q42 233 132 377t218 206t289 62q199 0 313.5 -115t114.5 -342zM1255 1079q0 197 -93 282t-261 85q-131 0 -237.5 -53.5
t-182.5 -176.5t-112 -329l-45 -254q-19 -108 -19 -195q0 -195 92 -279.5t262 -84.5q131 0 238 57t183.5 183t111.5 319l45 254q18 107 18 192zM1239 1645q0 -18 -20 -18h-39q-14 0 -20.5 7.5t-18.5 26.5l-152 232l-233 -232q-19 -19 -28 -26.5t-23 -7.5h-51q-17 0 -17 12
q0 10 12 22l252 263q31 30 52 30h81q24 0 43 -30l158 -263q4 -6 4 -16z" />
    <glyph glyph-name="Otilde" unicode="&#xd5;" horiz-adv-x="1294" 
d="M1346 1075q0 -79 -19 -188l-45 -254q-31 -173 -91 -297t-143 -200t-184 -112t-219 -36q-130 0 -227 49t-150 149.5t-53 255.5q0 86 18 191l46 254q42 233 132 377t218 206t289 62q199 0 313.5 -115t114.5 -342zM1255 1079q0 197 -93 282t-261 85q-131 0 -237.5 -53.5
t-182.5 -176.5t-112 -329l-45 -254q-19 -108 -19 -195q0 -195 92 -279.5t262 -84.5q131 0 238 57t183.5 183t111.5 319l45 254q18 107 18 192zM1317 1868q0 -4 -0.5 -7t-1.5 -7l-9 -53q-14 -93 -62.5 -139t-125.5 -46q-47 0 -82 15t-74 63l-57 70q-45 53 -86 53
q-89 0 -106 -105l-9 -53q-6 -33 -26 -33h-43q-19 0 -19 19q1 3 1.5 6t0.5 8l9 53q13 92 64 138.5t128 46.5q48 0 80.5 -15t69.5 -61l59 -72q45 -53 90 -53q41 0 66.5 21.5t35.5 83.5l9 53q3 18 8.5 25.5t17.5 7.5h43q19 0 19 -19z" />
    <glyph glyph-name="Odieresis" unicode="&#xd6;" horiz-adv-x="1294" 
d="M1346 1075q0 -79 -19 -188l-45 -254q-31 -173 -91 -297t-143 -200t-184 -112t-219 -36q-130 0 -227 49t-150 149.5t-53 255.5q0 86 18 191l46 254q42 233 132 377t218 206t289 62q199 0 313.5 -115t114.5 -342zM1255 1079q0 197 -93 282t-261 85q-131 0 -237.5 -53.5
t-182.5 -176.5t-112 -329l-45 -254q-19 -108 -19 -195q0 -195 92 -279.5t262 -84.5q131 0 238 57t183.5 183t111.5 319l45 254q18 107 18 192zM1162 1861v-6l-27 -151q-3 -17 -17 -28t-30 -11h-12q-31 0 -31 31v8l27 151q3 15 15.5 27t29.5 12h12q14 0 23.5 -9.5t9.5 -23.5z
M855 1861v-6l-27 -151q-3 -16 -17 -27.5t-30 -11.5h-12q-31 0 -31 31v8l27 151q3 15 15.5 27t29.5 12h12q14 0 23.5 -9.5t9.5 -23.5z" />
    <glyph glyph-name="multiply" unicode="&#xd7;" 
d="M1114 1124q0 -16 -16 -32l-293 -291l293 -293q16 -16 16 -33q0 -10 -10 -20l-14 -15q-12 -10 -21 -10q-15 0 -33 16l-291 293l-290 -290q-17 -17 -33 -17q-9 0 -21 10l-14 15q-10 10 -10 20q0 17 16 33l291 291l-291 291q-16 16 -16 30q0 11 10 21l14 14q12 10 21 10
q15 0 33 -16l290 -291l291 293q18 16 33 16q9 0 21 -10l14 -14q10 -10 10 -21z" />
    <glyph glyph-name="Oslash" unicode="&#xd8;" horiz-adv-x="1294" 
d="M1491 1503q0 -12 -8 -20l-172 -193q35 -94 35 -215q0 -79 -19 -188l-45 -254q-31 -173 -91 -297t-143 -200t-184 -112t-219 -36q-115 0 -207 40t-147 122l-123 -138q-21 -24 -47 -24h-33q-18 0 -18 18q0 12 8 21l174 194q-37 92 -37 221q0 86 18 191l46 254
q42 233 132 377t218 206t289 62q248 0 356 -168l123 137q17 21 43 21h33q18 0 18 -19zM1212 1294q-81 152 -311 152q-131 0 -237.5 -53.5t-182.5 -176.5t-112 -329l-45 -254q-19 -108 -19 -195q0 -76 17 -139zM1255 1079q0 80 -14 133l-889 -993q81 -145 307 -145
q131 0 238 57t183.5 183t111.5 319l45 254q18 107 18 192z" />
    <glyph glyph-name="Ugrave" unicode="&#xd9;" horiz-adv-x="1296" 
d="M1395 1489v-6l-166 -942q-23 -135 -68 -238t-115 -173t-170 -106t-229 -36q-138 0 -227.5 46.5t-132.5 135t-43 211.5q0 67 16 160l166 942q3 16 14.5 27.5t26.5 11.5h20q14 0 21.5 -9t7.5 -24v-6l-166 -942q-16 -96 -16 -162q0 -101 34 -170t106 -103t188 -34
q134 0 231 52.5t158 158t88 258.5l166 942q3 16 14.5 27.5t26.5 11.5h20q13 0 21 -10t8 -23zM1087 1643q0 -18 -20 -18h-37q-13 0 -20 7.5t-19 26.5l-172 263q-6 9 -6 14q0 16 25 16h45q23 0 43 -30l157 -263q4 -6 4 -16z" />
    <glyph glyph-name="Uacute" unicode="&#xda;" horiz-adv-x="1296" 
d="M1395 1489v-6l-166 -942q-23 -135 -68 -238t-115 -173t-170 -106t-229 -36q-138 0 -227.5 46.5t-132.5 135t-43 211.5q0 67 16 160l166 942q3 16 14.5 27.5t26.5 11.5h20q14 0 21.5 -9t7.5 -24v-6l-166 -942q-16 -96 -16 -162q0 -101 34 -170t106 -103t188 -34
q134 0 231 52.5t158 158t88 258.5l166 942q3 16 14.5 27.5t26.5 11.5h20q13 0 21 -10t8 -23zM1223 1940q0 -7 -11 -18l-243 -263q-19 -19 -28 -26.5t-24 -7.5h-53q-16 0 -16 12q0 10 12 22l229 263q26 30 52 30h61q21 0 21 -12z" />
    <glyph glyph-name="Ucircumflex" unicode="&#xdb;" horiz-adv-x="1296" 
d="M1395 1489v-6l-166 -942q-23 -135 -68 -238t-115 -173t-170 -106t-229 -36q-138 0 -227.5 46.5t-132.5 135t-43 211.5q0 67 16 160l166 942q3 16 14.5 27.5t26.5 11.5h20q14 0 21.5 -9t7.5 -24v-6l-166 -942q-16 -96 -16 -162q0 -101 34 -170t106 -103t188 -34
q134 0 231 52.5t158 158t88 258.5l166 942q3 16 14.5 27.5t26.5 11.5h20q13 0 21 -10t8 -23zM1252 1645q0 -18 -20 -18h-39q-14 0 -20.5 7.5t-18.5 26.5l-152 232l-233 -232q-19 -19 -28 -26.5t-23 -7.5h-51q-17 0 -17 12q0 10 12 22l252 263q31 30 52 30h81q24 0 43 -30
l158 -263q4 -6 4 -16z" />
    <glyph glyph-name="Udieresis" unicode="&#xdc;" horiz-adv-x="1296" 
d="M1395 1489v-6l-166 -942q-23 -135 -68 -238t-115 -173t-170 -106t-229 -36q-138 0 -227.5 46.5t-132.5 135t-43 211.5q0 67 16 160l166 942q3 16 14.5 27.5t26.5 11.5h20q14 0 21.5 -9t7.5 -24v-6l-166 -942q-16 -96 -16 -162q0 -101 34 -170t106 -103t188 -34
q134 0 231 52.5t158 158t88 258.5l166 942q3 16 14.5 27.5t26.5 11.5h20q13 0 21 -10t8 -23zM1152 1863v-6l-27 -151q-3 -17 -17 -28t-30 -11h-12q-31 0 -31 31v8l27 151q3 15 15.5 27t29.5 12h12q14 0 23.5 -9.5t9.5 -23.5zM845 1863v-6l-27 -151q-3 -16 -17 -27.5
t-30 -11.5h-12q-31 0 -31 31v8l27 151q3 15 15.5 27t29.5 12h12q14 0 23.5 -9.5t9.5 -23.5z" />
    <glyph glyph-name="Yacute" unicode="&#xdd;" horiz-adv-x="1126" 
d="M1298 1499q0 -10 -12 -33l-448 -714q-60 -98 -119 -119l-105 -594q-7 -39 -41 -39h-20q-29 0 -29 31v8l105 594q-48 20 -74 119l-199 714q-2 7 -2 19q0 37 41 37h17q9 0 17 -8t11 -17l195 -717q12 -44 21 -57.5t28 -13.5t33.5 14.5t40.5 56.5l448 717q17 25 37 25h25
q30 0 30 -23zM1125 1942q0 -7 -11 -18l-243 -263q-19 -19 -28 -26.5t-24 -7.5h-53q-16 0 -16 12q0 10 12 22l229 263q26 30 52 30h61q21 0 21 -12z" />
    <glyph glyph-name="Thorn" unicode="&#xde;" horiz-adv-x="1106" 
d="M1204 1006q0 -46 -8 -86l-6 -35q-21 -122 -70.5 -205t-127 -134.5t-185.5 -75.5t-252 -24q-93 0 -221 9l-74 -416q-7 -39 -41 -39h-20q-29 0 -29 31v8l256 1444q3 16 14.5 27.5t26.5 11.5h20q29 0 29 -31v-8l-29 -154q66 4 110.5 5t117.5 1q239 0 364 -82.5t125 -246.5z
M1114 1004q0 92 -46.5 147t-138 79.5t-229.5 24.5q-135 0 -225 -6l-127 -714q115 -9 221 -9q162 0 271 35.5t173 114.5t87 209l6 35q8 40 8 84z" />
    <glyph glyph-name="germandbls" unicode="&#xdf;" horiz-adv-x="1112" 
d="M1171 1225q0 -32 -6 -70l-2 -14q-17 -119 -101.5 -208.5t-199.5 -131.5q100 -31 158.5 -115t58.5 -194q0 -31 -2 -48l-2 -16q-28 -230 -175.5 -335t-379.5 -105q-11 0 -30.5 2t-51.5 4q-32 0 -32 31v6l2 16q2 25 38 25h5h2q29 -1 47.5 -2t34.5 -2q190 0 308.5 86
t141.5 274l2 16q4 34 4 52q0 77 -34 136.5t-106.5 92.5t-182.5 33h-84q-35 0 -35 24v9l4 18q6 33 45 33h84q114 0 198.5 41t133 109.5t59.5 148.5l2 14q6 44 6 70q0 110 -61.5 168.5t-200.5 58.5q-87 0 -166.5 -41t-138.5 -129.5t-84 -228.5l-178 -1012q-3 -19 -15 -30
t-28 -11h-25q-24 0 -24 27q1 4 1.5 7t0.5 7l176 1010q29 166 99.5 274.5t170.5 157.5t226 49q105 0 180 -36.5t116 -105t41 -165.5z" />
    <glyph glyph-name="agrave" unicode="&#xe0;" horiz-adv-x="1032" 
d="M1073 1047q0 -5 -0.5 -8t-1.5 -7l-174 -991q-3 -18 -16.5 -29.5t-28.5 -11.5h-16q-31 0 -31 33q1 2 1.5 4t0.5 4l12 68q-82 -43 -130 -65.5t-107 -39t-115 -16.5q-87 0 -153.5 32.5t-105 98.5t-38.5 164q0 40 10 98l41 231q31 177 92 287t159 160.5t239 50.5
q153 0 336 -39q26 -6 26 -24zM975 1004q-156 26 -279 26q-113 0 -190 -47.5t-123.5 -139.5t-71.5 -231l-41 -231q-10 -58 -10 -98q0 -122 61.5 -168.5t165.5 -46.5q52 0 101 14.5t100.5 38.5t145.5 74zM839 1284q0 -18 -20 -18h-37q-13 0 -20 7.5t-19 26.5l-172 263
q-6 9 -6 14q0 16 25 16h45q23 0 43 -30l157 -263q4 -6 4 -16z" />
    <glyph glyph-name="aacute" unicode="&#xe1;" horiz-adv-x="1032" 
d="M1073 1047q0 -5 -0.5 -8t-1.5 -7l-174 -991q-3 -18 -16.5 -29.5t-28.5 -11.5h-16q-31 0 -31 33q1 2 1.5 4t0.5 4l12 68q-82 -43 -130 -65.5t-107 -39t-115 -16.5q-87 0 -153.5 32.5t-105 98.5t-38.5 164q0 40 10 98l41 231q31 177 92 287t159 160.5t239 50.5
q153 0 336 -39q26 -6 26 -24zM975 1004q-156 26 -279 26q-113 0 -190 -47.5t-123.5 -139.5t-71.5 -231l-41 -231q-10 -58 -10 -98q0 -122 61.5 -168.5t165.5 -46.5q52 0 101 14.5t100.5 38.5t145.5 74zM991 1581q0 -7 -11 -18l-243 -263q-19 -19 -28 -26.5t-24 -7.5h-53
q-16 0 -16 12q0 10 12 22l229 263q26 30 52 30h61q21 0 21 -12z" />
    <glyph glyph-name="acircumflex" unicode="&#xe2;" horiz-adv-x="1032" 
d="M1073 1047q0 -5 -0.5 -8t-1.5 -7l-174 -991q-3 -18 -16.5 -29.5t-28.5 -11.5h-16q-31 0 -31 33q1 2 1.5 4t0.5 4l12 68q-82 -43 -130 -65.5t-107 -39t-115 -16.5q-87 0 -153.5 32.5t-105 98.5t-38.5 164q0 40 10 98l41 231q31 177 92 287t159 160.5t239 50.5
q153 0 336 -39q26 -6 26 -24zM975 1004q-156 26 -279 26q-113 0 -190 -47.5t-123.5 -139.5t-71.5 -231l-41 -231q-10 -58 -10 -98q0 -122 61.5 -168.5t165.5 -46.5q52 0 101 14.5t100.5 38.5t145.5 74zM1030 1284q0 -18 -20 -18h-39q-14 0 -20.5 7.5t-18.5 26.5l-152 232
l-233 -232q-19 -19 -28 -26.5t-23 -7.5h-51q-17 0 -17 12q0 10 12 22l252 263q31 30 52 30h81q24 0 43 -30l158 -263q4 -6 4 -16z" />
    <glyph glyph-name="atilde" unicode="&#xe3;" horiz-adv-x="1032" 
d="M1073 1047q0 -5 -0.5 -8t-1.5 -7l-174 -991q-3 -18 -16.5 -29.5t-28.5 -11.5h-16q-31 0 -31 33q1 2 1.5 4t0.5 4l12 68q-82 -43 -130 -65.5t-107 -39t-115 -16.5q-87 0 -153.5 32.5t-105 98.5t-38.5 164q0 40 10 98l41 231q31 177 92 287t159 160.5t239 50.5
q153 0 336 -39q26 -6 26 -24zM975 1004q-156 26 -279 26q-113 0 -190 -47.5t-123.5 -139.5t-71.5 -231l-41 -231q-10 -58 -10 -98q0 -122 61.5 -168.5t165.5 -46.5q52 0 101 14.5t100.5 38.5t145.5 74zM1096 1540q0 -4 -0.5 -7t-1.5 -7l-9 -53q-14 -93 -62.5 -139
t-125.5 -46q-47 0 -82 15t-74 63l-57 70q-45 53 -86 53q-89 0 -106 -105l-9 -53q-6 -33 -26 -33h-43q-19 0 -19 19q1 3 1.5 6t0.5 8l9 53q13 92 64 138.5t128 46.5q48 0 80.5 -15t69.5 -61l59 -72q45 -53 90 -53q41 0 66.5 21.5t35.5 83.5l9 53q3 18 8.5 25.5t17.5 7.5h43
q19 0 19 -19z" />
    <glyph glyph-name="adieresis" unicode="&#xe4;" horiz-adv-x="1032" 
d="M1073 1047q0 -5 -0.5 -8t-1.5 -7l-174 -991q-3 -18 -16.5 -29.5t-28.5 -11.5h-16q-31 0 -31 33q1 2 1.5 4t0.5 4l12 68q-82 -43 -130 -65.5t-107 -39t-115 -16.5q-87 0 -153.5 32.5t-105 98.5t-38.5 164q0 40 10 98l41 231q31 177 92 287t159 160.5t239 50.5
q153 0 336 -39q26 -6 26 -24zM975 1004q-156 26 -279 26q-113 0 -190 -47.5t-123.5 -139.5t-71.5 -231l-41 -231q-10 -58 -10 -98q0 -122 61.5 -168.5t165.5 -46.5q52 0 101 14.5t100.5 38.5t145.5 74zM967 1526v-6l-27 -151q-3 -17 -17 -28t-30 -11h-12q-31 0 -31 31v8
l27 151q3 15 15.5 27t29.5 12h12q14 0 23.5 -9.5t9.5 -23.5zM660 1526v-6l-27 -151q-3 -16 -17 -27.5t-30 -11.5h-12q-31 0 -31 31v8l27 151q3 15 15.5 27t29.5 12h12q14 0 23.5 -9.5t9.5 -23.5z" />
    <glyph glyph-name="aring" unicode="&#xe5;" horiz-adv-x="1032" 
d="M1073 1047q0 -5 -0.5 -8t-1.5 -7l-174 -991q-3 -18 -16.5 -29.5t-28.5 -11.5h-16q-31 0 -31 33q1 2 1.5 4t0.5 4l12 68q-82 -43 -130 -65.5t-107 -39t-115 -16.5q-87 0 -153.5 32.5t-105 98.5t-38.5 164q0 40 10 98l41 231q31 177 92 287t159 160.5t239 50.5
q153 0 336 -39q26 -6 26 -24zM975 1004q-156 26 -279 26q-113 0 -190 -47.5t-123.5 -139.5t-71.5 -231l-41 -231q-10 -58 -10 -98q0 -122 61.5 -168.5t165.5 -46.5q52 0 101 14.5t100.5 38.5t145.5 74zM954 1430q0 -79 -56 -135t-134 -56q-77 0 -134 57t-57 134q0 78 56 134
t135 56q40 0 74 -14t61 -41t41 -61t14 -74zM883 1430q0 50 -35 84t-84 34q-50 0 -83.5 -34.5t-33.5 -83.5q0 -50 33.5 -84.5t83.5 -34.5q49 0 84 34t35 85z" />
    <glyph glyph-name="ae" unicode="&#xe6;" horiz-adv-x="1700" 
d="M1710 754q0 -63 -12 -131l-10 -56q-3 -16 -17.5 -27.5t-30.5 -11.5h-692l-18 -110q-19 -107 -19 -139q0 -93 56 -142q48 -41 117.5 -55t154.5 -14q132 0 309 34q3 1 5.5 1.5t7.5 0.5q26 0 26 -22v-4v-2l-4 -15q-3 -17 -12.5 -25.5t-32.5 -12.5q-170 -35 -313 -35
q-95 0 -177.5 19t-138.5 65q-17 13 -40 44t-31 54q-46 -55 -90 -91t-126.5 -63.5t-201.5 -27.5q-107 0 -187.5 65.5t-80.5 190.5q0 47 6 73l6 27q27 116 86.5 183.5t172 99.5t298.5 32h162l12 74q12 68 12 117q0 96 -50 138t-167 42q-48 0 -97.5 -2t-103.5 -7t-94 -9h-2h-6
q-35 0 -35 24l1.5 3t0.5 3l2 13q5 29 54 37q158 18 292 18t205 -55.5t82 -143.5q60 98 158.5 148.5t224.5 50.5q166 0 252 -96t86 -260zM1622 766q0 131 -62 197.5t-198 66.5q-161 0 -262 -109t-133 -298l-2 -13h641l2 13q14 93 14 143zM868 578h-161q-158 0 -248 -22
t-136.5 -71.5t-68.5 -140.5l-6 -27q-6 -26 -6 -73q0 -176 186 -176q180 0 280.5 84t131.5 266z" />
    <glyph glyph-name="ccedilla" unicode="&#xe7;" horiz-adv-x="895" 
d="M991 1059v-4l-2 -15q-3 -28 -41 -28h-6h-2q-141 18 -240 18q-166 0 -261.5 -110.5t-127.5 -298.5l-22 -138q-15 -103 -15 -149q0 -131 61 -198.5t195 -67.5q99 0 246 18h2h6q31 0 31 -23v-4v-2l-2 -14q-3 -19 -13.5 -26.5t-31.5 -10.5q-158 -18 -252 -18
q-169 0 -249.5 94t-80.5 258q0 72 13 143l22 138q82 489 494 489q92 0 243 -18q33 -7 33 -27v-6zM555 -76q0 -5 -10 -18l-244 -262q-26 -26 -32 -30.5t-19 -4.5h-53q-17 0 -17 12q0 10 13 23l229 262q15 19 25.5 25t25.5 6h62q20 0 20 -13z" />
    <glyph glyph-name="egrave" unicode="&#xe8;" horiz-adv-x="1047" 
d="M1057 762q0 -68 -13 -139l-10 -56q-3 -16 -17.5 -27.5t-31.5 -11.5h-690l-6 -43q-13 -106 -13 -133q0 -106 36 -168.5t104 -88t168 -25.5q145 0 311 32q6 2 18 2q25 0 25 -16q0 -10 -2 -14l-4 -15q-5 -19 -13.5 -25t-33.5 -11q-172 -35 -314 -35q-178 0 -280.5 88.5
t-102.5 271.5q0 80 11 137l22 136q21 120 63 212t105 153.5t145.5 92.5t186.5 31q112 0 188 -44t112 -122t36 -182zM969 766q0 132 -61.5 198t-198.5 66q-112 0 -191 -49t-129 -141.5t-76 -218.5l-2 -11h641l2 13q15 92 15 143zM839 1284q0 -18 -20 -18h-37q-13 0 -20 7.5
t-19 26.5l-172 263q-6 9 -6 14q0 16 25 16h45q23 0 43 -30l157 -263q4 -6 4 -16z" />
    <glyph glyph-name="eacute" unicode="&#xe9;" horiz-adv-x="1047" 
d="M1057 762q0 -68 -13 -139l-10 -56q-3 -16 -17.5 -27.5t-31.5 -11.5h-690l-6 -43q-13 -106 -13 -133q0 -106 36 -168.5t104 -88t168 -25.5q145 0 311 32q6 2 18 2q25 0 25 -16q0 -10 -2 -14l-4 -15q-5 -19 -13.5 -25t-33.5 -11q-172 -35 -314 -35q-178 0 -280.5 88.5
t-102.5 271.5q0 80 11 137l22 136q21 120 63 212t105 153.5t145.5 92.5t186.5 31q112 0 188 -44t112 -122t36 -182zM969 766q0 132 -61.5 198t-198.5 66q-112 0 -191 -49t-129 -141.5t-76 -218.5l-2 -11h641l2 13q15 92 15 143zM1039 1581q0 -7 -11 -18l-243 -263
q-19 -19 -28 -26.5t-24 -7.5h-53q-16 0 -16 12q0 10 12 22l229 263q26 30 52 30h61q21 0 21 -12z" />
    <glyph glyph-name="ecircumflex" unicode="&#xea;" horiz-adv-x="1047" 
d="M1057 762q0 -68 -13 -139l-10 -56q-3 -16 -17.5 -27.5t-31.5 -11.5h-690l-6 -43q-13 -106 -13 -133q0 -106 36 -168.5t104 -88t168 -25.5q145 0 311 32q6 2 18 2q25 0 25 -16q0 -10 -2 -14l-4 -15q-5 -19 -13.5 -25t-33.5 -11q-172 -35 -314 -35q-178 0 -280.5 88.5
t-102.5 271.5q0 80 11 137l22 136q21 120 63 212t105 153.5t145.5 92.5t186.5 31q112 0 188 -44t112 -122t36 -182zM969 766q0 132 -61.5 198t-198.5 66q-112 0 -191 -49t-129 -141.5t-76 -218.5l-2 -11h641l2 13q15 92 15 143zM1063 1284q0 -18 -20 -18h-39
q-14 0 -20.5 7.5t-18.5 26.5l-152 232l-233 -232q-19 -19 -28 -26.5t-23 -7.5h-51q-17 0 -17 12q0 10 12 22l252 263q31 30 52 30h81q24 0 43 -30l158 -263q4 -6 4 -16z" />
    <glyph glyph-name="edieresis" unicode="&#xeb;" horiz-adv-x="1047" 
d="M1057 762q0 -68 -13 -139l-10 -56q-3 -16 -17.5 -27.5t-31.5 -11.5h-690l-6 -43q-13 -106 -13 -133q0 -106 36 -168.5t104 -88t168 -25.5q145 0 311 32q6 2 18 2q25 0 25 -16q0 -10 -2 -14l-4 -15q-5 -19 -13.5 -25t-33.5 -11q-172 -35 -314 -35q-178 0 -280.5 88.5
t-102.5 271.5q0 80 11 137l22 136q21 120 63 212t105 153.5t145.5 92.5t186.5 31q112 0 188 -44t112 -122t36 -182zM969 766q0 132 -61.5 198t-198.5 66q-112 0 -191 -49t-129 -141.5t-76 -218.5l-2 -11h641l2 13q15 92 15 143zM1010 1511v-6l-27 -151q-3 -17 -17 -28
t-30 -11h-12q-31 0 -31 31v8l27 151q3 15 15.5 27t29.5 12h12q14 0 23.5 -9.5t9.5 -23.5zM703 1511v-6l-27 -151q-3 -16 -17 -27.5t-30 -11.5h-12q-31 0 -31 31v8l27 151q3 15 15.5 27t29.5 12h12q14 0 23.5 -9.5t9.5 -23.5z" />
    <glyph glyph-name="igrave" unicode="&#xec;" horiz-adv-x="418" 
d="M440 1069v-8l-180 -1022q-3 -16 -16.5 -27.5t-28.5 -11.5h-12q-13 0 -23 10t-10 23v6l180 1022q3 16 15.5 27.5t25.5 11.5h23q26 0 26 -31zM548 1284q0 -18 -20 -18h-37q-13 0 -20 7.5t-19 26.5l-172 263q-6 9 -6 14q0 16 25 16h45q23 0 43 -30l157 -263q4 -6 4 -16z" />
    <glyph glyph-name="iacute" unicode="&#xed;" horiz-adv-x="418" 
d="M440 1069v-8l-180 -1022q-3 -16 -16.5 -27.5t-28.5 -11.5h-12q-13 0 -23 10t-10 23v6l180 1022q3 16 15.5 27.5t25.5 11.5h23q26 0 26 -31zM682 1581q0 -7 -11 -18l-243 -263q-19 -19 -28 -26.5t-24 -7.5h-53q-16 0 -16 12q0 10 12 22l229 263q26 30 52 30h61
q21 0 21 -12z" />
    <glyph glyph-name="icircumflex" unicode="&#xee;" horiz-adv-x="418" 
d="M440 1069v-8l-180 -1022q-3 -16 -16.5 -27.5t-28.5 -11.5h-12q-13 0 -23 10t-10 23v6l180 1022q3 16 15.5 27.5t25.5 11.5h23q26 0 26 -31zM735 1284q0 -18 -20 -18h-39q-14 0 -20.5 7.5t-18.5 26.5l-152 232l-233 -232q-19 -19 -28 -26.5t-23 -7.5h-51q-17 0 -17 12
q0 10 12 22l252 263q31 30 52 30h81q24 0 43 -30l158 -263q4 -6 4 -16z" />
    <glyph glyph-name="idieresis" unicode="&#xef;" horiz-adv-x="418" 
d="M440 1069v-8l-180 -1022q-3 -16 -16.5 -27.5t-28.5 -11.5h-12q-13 0 -23 10t-10 23v6l180 1022q3 16 15.5 27.5t25.5 11.5h23q26 0 26 -31zM674 1511v-6l-27 -151q-3 -17 -17 -28t-30 -11h-12q-31 0 -31 31v8l27 151q3 15 15.5 27t29.5 12h12q14 0 23.5 -9.5t9.5 -23.5z
M367 1511v-6l-27 -151q-3 -16 -17 -27.5t-30 -11.5h-12q-31 0 -31 31v8l27 151q3 15 15.5 27t29.5 12h12q14 0 23.5 -9.5t9.5 -23.5z" />
    <glyph glyph-name="eth" unicode="&#xf0;" horiz-adv-x="1069" 
d="M1108 934q0 -72 -18 -182l-50 -275q-28 -160 -92.5 -270t-168 -164.5t-247.5 -54.5q-172 0 -260 94t-88 262q0 65 13 133l24 144q30 170 96.5 278.5t169 159.5t244.5 51q196 0 287 -125q-13 128 -75.5 217.5t-199.5 153.5l-229 -152q-18 -12 -29 -12t-20 12l-8 13
q-4 8 -4 12q0 17 26 37l185 125q-111 41 -211 61q-29 8 -29 27q0 2 4 14l8 16q10 23 33 23q10 0 16 -2q149 -36 263 -84l237 162q11 8 27 8q17 0 24 -10l11 -13q6 -6 6 -12q0 -14 -27 -33l-203 -137q285 -151 285 -477zM987 756q0 274 -270 274q-87 0 -157.5 -28t-119 -80.5
t-80.5 -129t-49 -171.5l-24 -144q-13 -80 -13 -137q0 -134 66 -203t207 -69q118 0 200 47.5t131 138.5t72 223l25 144q12 74 12 135z" />
    <glyph glyph-name="ntilde" unicode="&#xf1;" horiz-adv-x="1067" 
d="M1061 817q0 -40 -10 -98l-121 -680q-3 -16 -16.5 -27.5t-28.5 -11.5h-15q-30 0 -30 33v6l121 680q8 44 8 92q0 219 -230 219q-74 0 -162.5 -22t-177.5 -62l-159 -907q-3 -16 -17 -27.5t-28 -11.5h-13q-12 0 -22 10t-10 23v6l180 1020q3 15 16 28t29 13h16q29 0 29 -31
v-10l-6 -33q188 84 329 84q90 0 161.5 -30.5t114 -96t42.5 -166.5zM1141 1540q0 -4 -0.5 -7t-1.5 -7l-9 -53q-14 -93 -62.5 -139t-125.5 -46q-47 0 -82 15t-74 63l-57 70q-45 53 -86 53q-89 0 -106 -105l-9 -53q-6 -33 -26 -33h-43q-19 0 -19 19q1 3 1.5 6t0.5 8l9 53
q13 92 64 138.5t128 46.5q48 0 80.5 -15t69.5 -61l59 -72q45 -53 90 -53q41 0 66.5 21.5t35.5 83.5l9 53q3 18 8.5 25.5t17.5 7.5h43q19 0 19 -19z" />
    <glyph glyph-name="ograve" unicode="&#xf2;" horiz-adv-x="1069" 
d="M1077 756q0 -61 -12 -135l-25 -144q-83 -489 -508 -489q-168 0 -258 94.5t-90 263.5q0 63 13 131l24 144q27 157 93 268t171 166t246 55q172 0 259 -93t87 -261zM989 762q0 133 -65 200.5t-207 67.5q-113 0 -197 -50.5t-135.5 -142t-73.5 -216.5l-24 -144
q-15 -96 -15 -141q0 -133 65.5 -200.5t209.5 -67.5q170 0 270 108.5t133 300.5l25 144q14 89 14 141zM860 1284q0 -18 -20 -18h-37q-13 0 -20 7.5t-19 26.5l-172 263q-6 9 -6 14q0 16 25 16h45q23 0 43 -30l157 -263q4 -6 4 -16z" />
    <glyph glyph-name="oacute" unicode="&#xf3;" horiz-adv-x="1069" 
d="M1077 756q0 -61 -12 -135l-25 -144q-83 -489 -508 -489q-168 0 -258 94.5t-90 263.5q0 63 13 131l24 144q27 157 93 268t171 166t246 55q172 0 259 -93t87 -261zM989 762q0 133 -65 200.5t-207 67.5q-113 0 -197 -50.5t-135.5 -142t-73.5 -216.5l-24 -144
q-15 -96 -15 -141q0 -133 65.5 -200.5t209.5 -67.5q170 0 270 108.5t133 300.5l25 144q14 89 14 141zM1010 1581q0 -7 -11 -18l-243 -263q-19 -19 -28 -26.5t-24 -7.5h-53q-16 0 -16 12q0 10 12 22l229 263q26 30 52 30h61q21 0 21 -12z" />
    <glyph glyph-name="ocircumflex" unicode="&#xf4;" horiz-adv-x="1069" 
d="M1077 756q0 -61 -12 -135l-25 -144q-83 -489 -508 -489q-168 0 -258 94.5t-90 263.5q0 63 13 131l24 144q27 157 93 268t171 166t246 55q172 0 259 -93t87 -261zM989 762q0 133 -65 200.5t-207 67.5q-113 0 -197 -50.5t-135.5 -142t-73.5 -216.5l-24 -144
q-15 -96 -15 -141q0 -133 65.5 -200.5t209.5 -67.5q170 0 270 108.5t133 300.5l25 144q14 89 14 141zM1061 1284q0 -18 -20 -18h-39q-14 0 -20.5 7.5t-18.5 26.5l-152 232l-233 -232q-19 -19 -28 -26.5t-23 -7.5h-51q-17 0 -17 12q0 10 12 22l252 263q31 30 52 30h81
q24 0 43 -30l158 -263q4 -6 4 -16z" />
    <glyph glyph-name="otilde" unicode="&#xf5;" horiz-adv-x="1069" 
d="M1077 756q0 -61 -12 -135l-25 -144q-83 -489 -508 -489q-168 0 -258 94.5t-90 263.5q0 63 13 131l24 144q27 157 93 268t171 166t246 55q172 0 259 -93t87 -261zM989 762q0 133 -65 200.5t-207 67.5q-113 0 -197 -50.5t-135.5 -142t-73.5 -216.5l-24 -144
q-15 -96 -15 -141q0 -133 65.5 -200.5t209.5 -67.5q170 0 270 108.5t133 300.5l25 144q14 89 14 141zM1137 1540q0 -4 -0.5 -7t-1.5 -7l-9 -53q-14 -93 -62.5 -139t-125.5 -46q-47 0 -82 15t-74 63l-57 70q-45 53 -86 53q-89 0 -106 -105l-9 -53q-6 -33 -26 -33h-43
q-19 0 -19 19q1 3 1.5 6t0.5 8l9 53q13 92 64 138.5t128 46.5q48 0 80.5 -15t69.5 -61l59 -72q45 -53 90 -53q41 0 66.5 21.5t35.5 83.5l9 53q3 18 8.5 25.5t17.5 7.5h43q19 0 19 -19z" />
    <glyph glyph-name="odieresis" unicode="&#xf6;" horiz-adv-x="1069" 
d="M1077 756q0 -61 -12 -135l-25 -144q-83 -489 -508 -489q-168 0 -258 94.5t-90 263.5q0 63 13 131l24 144q27 157 93 268t171 166t246 55q172 0 259 -93t87 -261zM989 762q0 133 -65 200.5t-207 67.5q-113 0 -197 -50.5t-135.5 -142t-73.5 -216.5l-24 -144
q-15 -96 -15 -141q0 -133 65.5 -200.5t209.5 -67.5q170 0 270 108.5t133 300.5l25 144q14 89 14 141zM998 1511v-6l-27 -151q-3 -17 -17 -28t-30 -11h-12q-31 0 -31 31v8l27 151q3 15 15.5 27t29.5 12h12q14 0 23.5 -9.5t9.5 -23.5zM691 1511v-6l-27 -151q-3 -16 -17 -27.5
t-30 -11.5h-12q-31 0 -31 31v8l27 151q3 15 15.5 27t29.5 12h12q14 0 23.5 -9.5t9.5 -23.5z" />
    <glyph glyph-name="divide" unicode="&#xf7;" 
d="M815 1047q0 -17 -11.5 -28t-27.5 -11h-12q-16 0 -27.5 11.5t-11.5 27.5v151q0 15 11.5 27t27.5 12h12q17 0 28 -11t11 -28v-151zM1186 791q0 -33 -41 -33h-748q-41 0 -41 33v20q0 33 41 33h748q41 0 41 -33v-20zM815 403q0 -16 -11.5 -27t-27.5 -11h-12q-16 0 -27.5 11.5
t-11.5 26.5v152q0 15 12 27t27 12h12q15 0 27 -11t12 -28v-152z" />
    <glyph glyph-name="oslash" unicode="&#xf8;" horiz-adv-x="1069" 
d="M1227 1151q0 -14 -13 -27l-172 -186q35 -78 35 -182q0 -61 -12 -135l-25 -144q-83 -489 -508 -489q-177 0 -266 100l-127 -139q-20 -21 -37 -21h-51q-14 0 -14 13q0 14 12 26l174 189q-39 86 -39 190q0 63 13 131l24 144q27 157 93 268t171 166t246 55q180 0 268 -104
l125 137q21 20 37 20h51q15 0 15 -12zM942 942q-66 88 -225 88q-113 0 -197 -50.5t-135.5 -142t-73.5 -216.5l-24 -144q-15 -96 -15 -141q0 -64 15 -109zM989 762q0 57 -12 102l-653 -712q65 -84 223 -84q170 0 270 108.5t133 300.5l25 144q14 89 14 141z" />
    <glyph glyph-name="ugrave" unicode="&#xf9;" horiz-adv-x="1069" 
d="M1114 1067v-6l-182 -1022q-3 -18 -16.5 -29.5t-28.5 -11.5h-17q-26 0 -26 33v6v2l4 33q-88 -40 -172 -63t-158 -23q-140 0 -227.5 73t-87.5 222q0 49 8 98l123 682q3 15 16 27t29 12h14q13 0 22 -10t9 -23v-6l-123 -682q-8 -47 -8 -98q0 -114 61 -164.5t168 -50.5
q151 0 340 86l162 909q3 16 17 27.5t28 11.5h12q14 0 23.5 -9.5t9.5 -23.5zM888 1284q0 -18 -20 -18h-37q-13 0 -20 7.5t-19 26.5l-172 263q-6 9 -6 14q0 16 25 16h45q23 0 43 -30l157 -263q4 -6 4 -16z" />
    <glyph glyph-name="uacute" unicode="&#xfa;" horiz-adv-x="1069" 
d="M1114 1067v-6l-182 -1022q-3 -18 -16.5 -29.5t-28.5 -11.5h-17q-26 0 -26 33v6v2l4 33q-88 -40 -172 -63t-158 -23q-140 0 -227.5 73t-87.5 222q0 49 8 98l123 682q3 15 16 27t29 12h14q13 0 22 -10t9 -23v-6l-123 -682q-8 -47 -8 -98q0 -114 61 -164.5t168 -50.5
q151 0 340 86l162 909q3 16 17 27.5t28 11.5h12q14 0 23.5 -9.5t9.5 -23.5zM1039 1581q0 -7 -11 -18l-243 -263q-19 -19 -28 -26.5t-24 -7.5h-53q-16 0 -16 12q0 10 12 22l229 263q26 30 52 30h61q21 0 21 -12z" />
    <glyph glyph-name="ucircumflex" unicode="&#xfb;" horiz-adv-x="1069" 
d="M1114 1067v-6l-182 -1022q-3 -18 -16.5 -29.5t-28.5 -11.5h-17q-26 0 -26 33v6v2l4 33q-88 -40 -172 -63t-158 -23q-140 0 -227.5 73t-87.5 222q0 49 8 98l123 682q3 15 16 27t29 12h14q13 0 22 -10t9 -23v-6l-123 -682q-8 -47 -8 -98q0 -114 61 -164.5t168 -50.5
q151 0 340 86l162 909q3 16 17 27.5t28 11.5h12q14 0 23.5 -9.5t9.5 -23.5zM1067 1284q0 -18 -20 -18h-39q-14 0 -20.5 7.5t-18.5 26.5l-152 232l-233 -232q-19 -19 -28 -26.5t-23 -7.5h-51q-17 0 -17 12q0 10 12 22l252 263q31 30 52 30h81q24 0 43 -30l158 -263
q4 -6 4 -16z" />
    <glyph glyph-name="udieresis" unicode="&#xfc;" horiz-adv-x="1069" 
d="M1114 1067v-6l-182 -1022q-3 -18 -16.5 -29.5t-28.5 -11.5h-17q-26 0 -26 33v6v2l4 33q-88 -40 -172 -63t-158 -23q-140 0 -227.5 73t-87.5 222q0 49 8 98l123 682q3 15 16 27t29 12h14q13 0 22 -10t9 -23v-6l-123 -682q-8 -47 -8 -98q0 -114 61 -164.5t168 -50.5
q151 0 340 86l162 909q3 16 17 27.5t28 11.5h12q14 0 23.5 -9.5t9.5 -23.5zM998 1511v-6l-27 -151q-3 -17 -17 -28t-30 -11h-12q-31 0 -31 31v8l27 151q3 15 15.5 27t29.5 12h12q14 0 23.5 -9.5t9.5 -23.5zM691 1511v-6l-27 -151q-3 -16 -17 -27.5t-30 -11.5h-12
q-31 0 -31 31v8l27 151q3 15 15.5 27t29.5 12h12q14 0 23.5 -9.5t9.5 -23.5z" />
    <glyph glyph-name="yacute" unicode="&#xfd;" horiz-adv-x="995" 
d="M1104 1075q0 -11 -6 -26l-541 -1164q-52 -113 -97 -171t-111 -85.5t-173 -27.5q-55 0 -125 12q-37 7 -37 25v4l4 22q7 29 39 29h11q90 -12 129 -12q109 0 165.5 45.5t114.5 177.5l43 96h-24q-34 0 -54.5 9t-32.5 33.5t-18 72.5l-112 936v6q0 18 12.5 30.5t30.5 12.5h14
q9 0 17 -9.5t9 -19.5l111 -942q3 -32 9.5 -38.5t29.5 -6.5h47l455 989q12 27 43 27h22q25 0 25 -25zM1020 1581q0 -7 -11 -18l-243 -263q-19 -19 -28 -26.5t-24 -7.5h-53q-16 0 -16 12q0 10 12 22l229 263q26 30 52 30h61q21 0 21 -12z" />
    <glyph glyph-name="thorn" unicode="&#xfe;" horiz-adv-x="1032" 
d="M1042 760q0 -75 -14 -148l-24 -135q-46 -251 -164.5 -370t-323.5 -119q-141 0 -278 32l-68 -380q-7 -39 -41 -39h-20q-29 0 -29 30v9l326 1843q3 16 14.5 27.5t25.5 11.5h21q13 0 21 -9t8 -22v-8l-72 -400q144 27 291 27q165 0 246 -93.5t81 -256.5zM954 774
q0 131 -61 193.5t-193 62.5q-76 0 -160 -10.5t-130 -20.5l-158 -901q49 -10 138.5 -20t139.5 -10q108 0 185 46.5t125.5 137.5t72.5 225l25 135q16 96 16 162z" />
    <glyph glyph-name="ydieresis" unicode="&#xff;" horiz-adv-x="995" 
d="M1104 1075q0 -11 -6 -26l-541 -1164q-52 -113 -97 -171t-111 -85.5t-173 -27.5q-55 0 -125 12q-37 7 -37 25v4l4 22q7 29 39 29h11q90 -12 129 -12q109 0 165.5 45.5t114.5 177.5l43 96h-24q-34 0 -54.5 9t-32.5 33.5t-18 72.5l-112 936v6q0 18 12.5 30.5t30.5 12.5h14
q9 0 17 -9.5t9 -19.5l111 -942q3 -32 9.5 -38.5t29.5 -6.5h47l455 989q12 27 43 27h22q25 0 25 -25zM977 1511v-6l-27 -151q-3 -17 -17 -28t-30 -11h-12q-31 0 -31 31v8l27 151q3 15 15.5 27t29.5 12h12q14 0 23.5 -9.5t9.5 -23.5zM670 1511v-6l-27 -151q-3 -16 -17 -27.5
t-30 -11.5h-12q-31 0 -31 31v8l27 151q3 15 15.5 27t29.5 12h12q14 0 23.5 -9.5t9.5 -23.5z" />
    <glyph glyph-name="dotlessi" unicode="&#x131;" horiz-adv-x="418" 
d="M440 1069v-8l-180 -1022q-3 -16 -16.5 -27.5t-28.5 -11.5h-12q-13 0 -23 10t-10 23v6l180 1022q3 16 15.5 27.5t25.5 11.5h23q26 0 26 -31z" />
    <glyph glyph-name="Lslash" unicode="&#x141;" horiz-adv-x="989" 
d="M926 55v-4l-2 -16q-1 -15 -14.5 -25t-30.5 -10h-471q-209 0 -209 172q0 27 6 57l76 439l-185 -213q-11 -15 -26 -15q-13 0 -13 11l11 61q4 28 24 51l215 246l119 674q3 16 14.5 27.5t26.5 11.5h20q29 0 29 -31v-8l-96 -545l184 213q11 14 27 14q12 0 12 -10l-10 -61
q-3 -28 -25 -52l-213 -245l-100 -568q-4 -18 -4 -49q0 -57 33 -76.5t102 -19.5h467q33 0 33 -29z" />
    <glyph glyph-name="lslash" unicode="&#x142;" horiz-adv-x="418" 
d="M645 1161v-4l-14 -72q-4 -16 -21 -36l-215 -252l-135 -758q-7 -39 -41 -39h-20q-29 0 -29 31v8l111 629l-193 -222q-11 -14 -22 -14q-9 0 -9 12v9l13 71q1 12 3.5 16t14.5 17l219 252l119 674q3 16 14.5 27.5t26.5 11.5h20q29 0 29 -31v-8l-96 -545l201 229q5 9 14 9
q10 0 10 -15z" />
    <glyph glyph-name="OE" unicode="&#x152;" horiz-adv-x="2011" 
d="M2161 1493v-6l-2 -17q-1 -15 -14 -23.5t-31 -8.5h-607q-50 0 -67 -16.5t-27 -67.5l-92 -512h686q35 0 35 -27v-6l-4 -21q-7 -34 -45 -34h-686l-105 -588q-2 -10 -2 -27q0 -55 68 -55h606q33 0 33 -27v-6l-2 -16q-1 -15 -14.5 -25t-30.5 -10h-598q-67 0 -109.5 32
t-42.5 95q0 11 4 39l8 47q-79 -102 -205 -163.5t-272 -61.5q-194 0 -316 115.5t-122 312.5q0 46 10 114l80 459q31 175 121 297t221 184t279 62q97 0 174.5 -28.5t131.5 -78.5t89 -118l10 47q16 68 39.5 103t61 50t98.5 15h606q33 0 33 -29zM1268 1092q0 110 -47.5 191
t-132.5 122t-187 41q-115 0 -225 -55t-187 -158.5t-102 -243.5l-80 -459q-10 -63 -10 -110q0 -170 100.5 -258t261.5 -88q133 0 243.5 62.5t182.5 166.5t93 227l79 459q11 55 11 103z" />
    <glyph glyph-name="oe" unicode="&#x153;" horiz-adv-x="1802" 
d="M1812 762q0 -65 -12 -139l-10 -56q-3 -17 -18 -28t-31 -11h-690l-7 -43q-12 -98 -12 -133q0 -106 36 -169t104 -88t167 -25q70 0 151 8.5t161 23.5q6 2 18 2q25 0 25 -16q0 -10 -2 -14l-4 -15q-5 -18 -14.5 -24.5t-33.5 -11.5q-170 -35 -313 -35q-145 0 -241 57.5
t-128 179.5q-43 -78 -103 -130.5t-140.5 -79.5t-182.5 -27q-168 0 -258 94.5t-90 263.5q0 63 13 131l24 144q27 157 93 268t171 166t246 55q92 0 160.5 -28.5t112 -82t61.5 -125.5q137 236 412 236q112 0 188 -44t111.5 -122t35.5 -182zM1724 766q0 132 -61 198t-199 66
q-164 0 -260 -106.5t-135 -302.5l-2 -11h641l2 13q14 96 14 143zM989 762q0 133 -65 200.5t-207 67.5q-113 0 -197 -50.5t-135.5 -142t-73.5 -216.5l-24 -144q-15 -96 -15 -141q0 -133 65.5 -200.5t209.5 -67.5q170 0 270 108.5t133 300.5l25 144q14 89 14 141z" />
    <glyph glyph-name="Scaron" unicode="&#x160;" horiz-adv-x="1085" 
d="M1192 1483v-2l-4 -27q-3 -27 -37 -27h-6q-206 19 -301 19q-188 0 -310 -57.5t-122 -225.5q0 -77 54.5 -142.5t168.5 -141.5l106 -72q170 -114 238 -200.5t68 -180.5q0 -152 -75.5 -250t-200 -143t-275.5 -45q-125 0 -314 22q-30 4 -30 29v4l4 27q5 24 30 24h11
q41 -4 78 -7.5t82 -7.5t85 -5.5t68 -1.5q128 0 225.5 33.5t156 111.5t58.5 199q0 55 -25 102t-83 98t-156 117l-104 72q-132 90 -197.5 170t-65.5 178q0 144 76.5 228.5t197.5 117.5t269 33q100 0 301 -21q29 -3 29 -24v-4zM1169 1944q0 -9 -13 -22l-250 -263
q-16 -16 -27 -23t-26 -7h-82q-14 0 -21 6t-20 24l-160 263q-4 6 -4 16q0 18 21 18h41q14 0 19.5 -6.5t19.5 -27.5l151 -232l234 232q23 23 30 28.5t21 5.5h49q17 0 17 -12z" />
    <glyph glyph-name="scaron" unicode="&#x161;" horiz-adv-x="901" 
d="M948 1061v-4l-2 -17q-1 -18 -7.5 -23t-23.5 -5q-4 1 -7.5 1.5t-8.5 0.5q-196 16 -283 16q-136 0 -201 -42t-65 -152q0 -51 42.5 -95.5t123.5 -95.5l123 -76q122 -76 166.5 -130.5t44.5 -131.5q0 -88 -32.5 -149.5t-89.5 -99t-129.5 -54t-156.5 -16.5q-57 0 -145.5 8.5
t-146.5 19.5q-39 9 -39 29v4l4 23q3 13 8 18.5t16 5.5t19 -2q179 -26 303 -26q144 0 221.5 55.5t77.5 183.5q0 51 -39 91t-139 100l-119 71q-96 59 -149.5 122t-53.5 140q0 100 48 163t127 89.5t181 26.5q144 0 295 -18q37 -4 37 -31zM1023 1581q0 -9 -13 -22l-250 -263
q-16 -16 -27 -23t-26 -7h-82q-14 0 -21 6t-20 24l-160 263q-4 6 -4 16q0 18 21 18h41q14 0 19.5 -6.5t19.5 -27.5l151 -232l234 232q23 23 30 28.5t21 5.5h49q17 0 17 -12z" />
    <glyph glyph-name="Ydieresis" unicode="&#x178;" horiz-adv-x="1126" 
d="M1298 1499q0 -10 -12 -33l-448 -714q-60 -98 -119 -119l-105 -594q-7 -39 -41 -39h-20q-29 0 -29 31v8l105 594q-48 20 -74 119l-199 714q-2 7 -2 19q0 37 41 37h17q9 0 17 -8t11 -17l195 -717q12 -44 21 -57.5t28 -13.5t33.5 14.5t40.5 56.5l448 717q17 25 37 25h25
q30 0 30 -23zM1085 1843v-6l-27 -151q-3 -17 -17 -28t-30 -11h-12q-31 0 -31 31v8l27 151q3 15 15.5 27t29.5 12h12q14 0 23.5 -9.5t9.5 -23.5zM778 1843v-6l-27 -151q-3 -16 -17 -27.5t-30 -11.5h-12q-31 0 -31 31v8l27 151q3 15 15.5 27t29.5 12h12q14 0 23.5 -9.5
t9.5 -23.5z" />
    <glyph glyph-name="Zcaron" unicode="&#x17d;" horiz-adv-x="1219" 
d="M1286 1434q0 -34 -26 -70l-992 -1251q-8 -9 -8 -17q0 -12 23 -12h784q16 0 27.5 -8.5t11.5 -20.5v-2v-2l-4 -20q-6 -31 -49 -31h-789q-44 0 -70 27.5t-26 64.5q0 36 22 66l996 1253q8 8 8 16q0 11 -14 11h-742q-15 0 -27 9t-12 21v2v3l4 20q7 29 50 29h727q32 0 57.5 -12
t37 -31.5t11.5 -44.5zM1243 1942q0 -9 -13 -22l-250 -263q-16 -16 -27 -23t-26 -7h-82q-14 0 -21 6t-20 24l-160 263q-4 6 -4 16q0 18 21 18h41q14 0 19.5 -6.5t19.5 -27.5l151 -232l234 232q23 23 30 28.5t21 5.5h49q17 0 17 -12z" />
    <glyph glyph-name="zcaron" unicode="&#x17e;" horiz-adv-x="913" 
d="M985 1016q0 -54 -41 -96l-733 -797q-17 -21 -18 -25q0 -14 18 -14h594q37 0 37 -25v-6l-4 -20q-3 -16 -16 -24.5t-31 -8.5h-592q-39 0 -64.5 27t-25.5 63q0 43 30 74l752 813q10 10 10 22q0 17 -24 17h-539q-35 0 -35 24v7l4 20q3 15 16 24t31 9h523q55 0 81.5 -23
t26.5 -61zM1056 1581q0 -9 -13 -22l-250 -263q-16 -16 -27 -23t-26 -7h-82q-14 0 -21 6t-20 24l-160 263q-4 6 -4 16q0 18 21 18h41q14 0 19.5 -6.5t19.5 -27.5l151 -232l234 232q23 23 30 28.5t21 5.5h49q17 0 17 -12z" />
    <glyph glyph-name="florin" unicode="&#x192;" 
d="M1266 1501q0 -6 -2 -8l-7 -14q-7 -15 -16.5 -21t-32.5 -6h-102q-74 0 -115 -36t-61 -126l-103 -446h306q28 0 28 -27v-8l-4 -18q-7 -35 -47 -35h-305l-178 -768q-32 -136 -100.5 -189t-184.5 -53q-65 0 -104 6q-35 6 -35 25q1 2 1.5 3.5t0.5 4.5l4 14q9 27 51 27h102
q74 0 114 36t61 126l178 768h-264q-31 0 -31 26v9l4 18q3 15 18 25t31 10h264l103 446q31 135 100.5 188.5t185.5 53.5q63 0 103 -6q37 -6 37 -25z" />
    <glyph glyph-name="circumflex" unicode="&#x2c6;" horiz-adv-x="676" 
d="M864 1284q0 -18 -20 -18h-39q-14 0 -20.5 7.5t-18.5 26.5l-152 232l-233 -232q-19 -19 -28 -26.5t-23 -7.5h-51q-17 0 -17 12q0 10 12 22l252 263q31 30 52 30h81q24 0 43 -30l158 -263q4 -6 4 -16z" />
    <glyph glyph-name="caron" unicode="&#x2c7;" horiz-adv-x="676" 
d="M918 1581q0 -9 -13 -22l-250 -263q-16 -16 -27 -23t-26 -7h-82q-14 0 -21 6t-20 24l-160 263q-4 6 -4 16q0 18 21 18h41q14 0 19.5 -6.5t19.5 -27.5l151 -232l234 232q23 23 30 28.5t21 5.5h49q17 0 17 -12z" />
    <glyph glyph-name="macron" unicode="&#x2c9;" horiz-adv-x="676" 
d="M909 1470v-6l-4 -22q-6 -33 -47 -33h-545q-34 0 -34 27v6l4 22q5 31 47 31h544q35 0 35 -25z" />
    <glyph glyph-name="breve" unicode="&#x2d8;" horiz-adv-x="676" 
d="M907 1575q0 -10 -2 -16q-23 -135 -113.5 -214t-230.5 -79q-65 0 -122 30.5t-90.5 85.5t-33.5 125q0 33 4 52q8 34 31 34h41q19 0 19 -14q0 -12 -2 -20q-5 -19 -5 -50q0 -86 55 -122.5t117 -36.5q80 0 151.5 49t90.5 160q5 23 9.5 28.5t19.5 5.5h41q20 0 20 -18z" />
    <glyph glyph-name="dotaccent" unicode="&#x2d9;" horiz-adv-x="676" 
d="M647 1509v-6l-26 -151q-3 -16 -16.5 -27.5t-29.5 -11.5h-12q-14 0 -23.5 8.5t-9.5 24.5v6l27 151q3 14 17 26.5t30 12.5h12q31 0 31 -33z" />
    <glyph glyph-name="ring" unicode="&#x2da;" horiz-adv-x="676" 
d="M782 1430q0 -79 -56 -135t-134 -56q-77 0 -134 57t-57 134q0 78 56 134t135 56q40 0 74 -14t61 -41t41 -61t14 -74zM711 1430q0 50 -35 84t-84 34q-50 0 -83.5 -34.5t-33.5 -83.5q0 -50 33.5 -84.5t83.5 -34.5q49 0 84 34t35 85z" />
    <glyph glyph-name="ogonek" unicode="&#x2db;" horiz-adv-x="676" 
d="M512 -307v-2l-6 -39q-3 -17 -27 -23q-84 -28 -166 -28q-102 0 -151 55t-49 143q0 100 69 258q5 11 11 15t20 4h33q14 0 14 -10q0 -3 -4 -15q-61 -164 -61 -252q0 -66 29 -94.5t102 -28.5q55 0 161 25q5 2 13 2q12 0 12 -10z" />
    <glyph glyph-name="tilde" unicode="&#x2dc;" horiz-adv-x="1006" 
d="M1096 1540q0 -4 -0.5 -7t-1.5 -7l-9 -53q-14 -93 -62.5 -139t-125.5 -46q-47 0 -82 15t-74 63l-57 70q-45 53 -86 53q-89 0 -106 -105l-9 -53q-6 -33 -26 -33h-43q-19 0 -19 19q1 3 1.5 6t0.5 8l9 53q13 92 64 138.5t128 46.5q48 0 80.5 -15t69.5 -61l59 -72
q45 -53 90 -53q41 0 66.5 21.5t35.5 83.5l9 53q3 18 8.5 25.5t17.5 7.5h43q19 0 19 -19z" />
    <glyph glyph-name="hungarumlaut" unicode="&#x2dd;" horiz-adv-x="676" 
d="M1030 1581q0 -8 -10 -18l-266 -263q-19 -19 -28 -26.5t-24 -7.5h-55q-16 0 -16 12q0 10 12 22l252 263q31 30 51 30h64q20 0 20 -12zM743 1581q0 -8 -10 -18l-266 -263q-19 -19 -28 -26.5t-23 -7.5h-56q-16 0 -16 12q0 10 12 22l252 263q31 30 51 30h64q20 0 20 -12z" />
    <glyph glyph-name="endash" unicode="&#x2013;" horiz-adv-x="1004" 
d="M1004 582v-7l-5 -16q-7 -33 -45 -33h-721q-32 0 -32 27v6l4 16q3 16 15.5 26.5t29.5 10.5h721q14 0 23.5 -7.5t9.5 -22.5z" />
    <glyph glyph-name="emdash" unicode="&#x2014;" horiz-adv-x="1331" 
d="M1331 582v-7l-4 -16q-7 -33 -45 -33h-1049q-32 0 -32 27v6l4 16q3 16 15.5 26.5t29.5 10.5h1048q16 0 24.5 -7.5t8.5 -22.5z" />
    <glyph glyph-name="quoteleft" unicode="&#x2018;" horiz-adv-x="348" 
d="M539 1507q0 -12 -7 -26l-145 -353q-16 -38 -47 -38h-39q-20 0 -20 16q0 10 6 22l159 353q18 39 48 39h30q15 0 15 -13z" />
    <glyph glyph-name="quoteright" unicode="&#x2019;" horiz-adv-x="348" 
d="M549 1505q0 -10 -6 -22l-162 -353q-16 -38 -45 -38h-31q-16 0 -16 14q0 12 6 24l147 353q18 39 47 39h39q21 0 21 -17z" />
    <glyph glyph-name="quotesinglbase" unicode="&#x201a;" horiz-adv-x="348" 
d="M319 201q0 -8 -6 -23l-159 -352q-17 -39 -45 -39h-31q-17 0 -17 14t7 25l145 352q16 39 49 39h39q18 0 18 -16z" />
    <glyph glyph-name="quotedblleft" unicode="&#x201c;" horiz-adv-x="666" 
d="M821 1507q0 -12 -6 -24l-147 -353q-18 -38 -47 -38h-39q-21 0 -21 16q0 10 6 22l162 353q17 39 45 39h31q16 0 16 -15zM565 1507q0 -12 -6 -24l-147 -353q-18 -38 -47 -38h-39q-21 0 -21 16q0 10 6 22l162 353q17 39 45 39h31q16 0 16 -15z" />
    <glyph glyph-name="quotedblright" unicode="&#x201d;" horiz-adv-x="666" 
d="M821 1505q0 -10 -6 -22l-162 -353q-16 -38 -45 -38h-30q-17 0 -17 14q0 12 6 24l148 353q17 39 47 39h39q20 0 20 -17zM565 1505q0 -10 -6 -22l-162 -353q-16 -38 -45 -38h-30q-17 0 -17 14q0 12 6 24l148 353q17 39 47 39h39q20 0 20 -17z" />
    <glyph glyph-name="quotedblbase" unicode="&#x201e;" horiz-adv-x="666" 
d="M551 201q0 -8 -6 -23l-160 -352q-16 -39 -45 -39h-31q-16 0 -16 14q0 13 6 25l145 352q17 39 50 39h38q19 0 19 -16zM295 201q0 -8 -6 -23l-160 -352q-16 -39 -45 -39h-31q-16 0 -16 14q0 13 6 25l145 352q17 39 50 39h38q19 0 19 -16z" />
    <glyph glyph-name="dagger" unicode="&#x2020;" horiz-adv-x="778" 
d="M885 1075v-6l-4 -20q-3 -16 -15.5 -24.5t-29.5 -8.5h-244l-174 -987q-7 -41 -39 -41h-25q-26 0 -26 30v11l174 987h-203q-33 0 -33 26v7l4 20q6 31 45 31h203l68 383q8 39 41 39h22q27 0 27 -31v-8l-68 -383h244q33 0 33 -25z" />
    <glyph glyph-name="daggerdbl" unicode="&#x2021;" horiz-adv-x="778" 
d="M885 1075v-6l-4 -20q-3 -16 -15.5 -24.5t-29.5 -8.5h-244l-60 -346h244q33 0 33 -25v-6l-4 -21q-3 -15 -15.5 -23.5t-29.5 -8.5h-244l-98 -557q-7 -41 -39 -41h-25q-26 0 -26 30v11l98 557h-203q-33 0 -33 26v6l5 21q6 31 45 31h202l60 346h-203q-33 0 -33 26v7l4 20
q6 31 45 31h203l74 420q8 39 41 39h22q27 0 27 -31v-8l-74 -420h244q33 0 33 -25z" />
    <glyph glyph-name="bullet" unicode="&#x2022;" horiz-adv-x="856" 
d="M891 752q0 -84 -42 -157t-116 -116t-158 -43q-85 0 -158 43t-115 116t-42 157q0 85 42.5 157.5t115 115t157.5 42.5q84 0 157.5 -42.5t116 -115t42.5 -157.5z" />
    <glyph glyph-name="ellipsis" unicode="&#x2026;" horiz-adv-x="1040" 
d="M944 184v-6l-26 -151q-3 -16 -16.5 -27.5t-29.5 -11.5h-12q-14 0 -23.5 8.5t-9.5 23.5v7l27 151q3 14 17 26.5t30 12.5h12q31 0 31 -33zM596 184v-6l-27 -151q-3 -17 -16 -28t-29 -11h-12q-14 0 -23.5 8.5t-9.5 23.5v7l27 151q3 14 17 26.5t30 12.5h12q31 0 31 -33z
M248 184v-6l-27 -151q-3 -17 -16 -28t-29 -11h-12q-15 0 -24 9t-9 23v7l27 151q3 14 17 26.5t30 12.5h12q31 0 31 -33z" />
    <glyph glyph-name="perthousand" unicode="&#x2030;" horiz-adv-x="2226" 
d="M2204 608q0 -48 -9 -90l-38 -213q-21 -112 -62.5 -182.5t-104.5 -103.5t-147 -33q-102 0 -157.5 60.5t-55.5 168.5q0 46 8 90l39 213q57 318 316 318q99 0 155 -58.5t56 -169.5zM864 1305q0 -47 -8 -91l-39 -213q-29 -164 -108 -241.5t-205 -77.5q-102 0 -157.5 60.5
t-55.5 168.5q0 47 8 90l39 213q31 167 110.5 242.5t204.5 75.5q99 0 155 -58.5t56 -168.5zM1530 1513q0 -8 -17 -30l-1110 -1456q-21 -26 -28 -32.5t-21 -6.5h-63q-12 0 -12 8q0 7 16 31l1110 1456q21 26 28.5 32.5t20.5 6.5h62q14 0 14 -9zM1528 608q0 -46 -8 -90l-39 -213
q-21 -112 -62.5 -182.5t-104.5 -103.5t-147 -33q-102 0 -157.5 60.5t-55.5 168.5q0 48 9 90l38 213q57 318 316 318q99 0 155 -58.5t56 -169.5zM2124 604q0 154 -146 154q-56 0 -100 -26t-75 -80t-46 -134l-39 -213q-8 -44 -8 -86q0 -153 148 -153q174 0 219 239l39 213
q8 44 8 86zM784 1300q0 154 -145 154q-176 0 -221 -240l-39 -213q-8 -43 -8 -86q0 -153 147 -153q175 0 219 239l39 213q8 44 8 86zM1448 604q0 154 -145 154q-83 0 -141 -60t-81 -180l-39 -213q-8 -44 -8 -86q0 -153 148 -153q174 0 219 239l39 213q8 44 8 86z" />
    <glyph glyph-name="guilsinglleft" unicode="&#x2039;" horiz-adv-x="625" 
d="M680 915q0 -25 -25 -43l-422 -331l306 -332q10 -13 10 -21q0 -11 -14 -22l-17 -14q-13 -11 -22 -11q-12 0 -29 17l-307 334q-19 20 -19 45q0 41 41 73l422 334q21 14 35 14q12 0 20 -8l17 -20q4 -4 4 -15z" />
    <glyph glyph-name="guilsinglright" unicode="&#x203a;" horiz-adv-x="625" 
d="M678 565q0 -43 -41 -73l-422 -334q-22 -15 -35 -15q-12 0 -20 9l-17 20q-4 4 -4 14q0 25 25 43l422 332l-305 332q-11 9 -11 20q0 12 15 23l16 14q15 11 23 11q11 0 28 -17l307 -334q19 -20 19 -45z" />
    <glyph glyph-name="uni2044" unicode="&#x2044;" horiz-adv-x="543" 
d="M899 1513q0 -8 -16 -30l-1110 -1456q-19 -24 -27 -31.5t-22 -7.5h-64q-12 0 -12 8q0 7 16 31l1110 1456q25 29 31 34t18 5h62q14 0 14 -9z" />
    <glyph glyph-name="Euro" unicode="&#x20ac;" 
d="M1327 1481v-4l-4 -25q-5 -25 -31 -25h-8h-4q-152 19 -291 19q-123 0 -228.5 -42.5t-188 -152t-123.5 -293.5h673q33 0 33 -22q0 -6 -2 -10l-8 -19q-13 -33 -47 -33h-666l-39 -219h608q35 0 35 -22q0 -6 -2 -10l-8 -19q-13 -33 -47 -33h-600q-8 -52 -8 -118
q0 -138 51 -222.5t136 -120.5t190 -36q69 0 155 6t141 12h5h8q22 0 22 -18v-6l-4 -25q-3 -15 -16.5 -24t-28.5 -11q-32 -4 -66.5 -8.5t-95.5 -8t-135 -3.5q-187 0 -319.5 114.5t-132.5 350.5q0 61 8 118h-90q-31 0 -31 25v8l4 19q3 14 16 23t29 9h86l39 219h-90
q-31 0 -31 25v8l4 19q3 15 16.5 23.5t30.5 8.5h86q50 220 151 347t225.5 177t260.5 50q140 0 299 -21q33 -4 33 -30z" />
    <glyph glyph-name="trademark" unicode="&#x2122;" horiz-adv-x="1569" 
d="M1661 705q0 -21 -21 -21h-36q-19 0 -19 21v522q0 98 -16.5 143t-71.5 63.5t-174 18.5v-747q0 -21 -18 -21h-39q-21 0 -21 21v747q-130 0 -262 -16v-731q0 -21 -18 -21h-37q-21 0 -21 21v778q0 16 17 20q189 23 362 23q147 0 223.5 -20t114 -83.5t37.5 -195.5v-522z
M827 1477q0 -31 -36 -31h-220v-727q0 -13 -10 -24t-24 -11h-13q-14 0 -23 11t-9 24v727h-222q-34 0 -34 31v10q0 14 10.5 23.5t23.5 9.5h521q15 0 25.5 -9t10.5 -24v-10z" />
    <glyph glyph-name="uni2126" unicode="&#x2126;" horiz-adv-x="1573" 
d="M496 160q-108 67 -165 130q-87 96 -134 225.5t-47 286.5q0 196 79.5 360.5t231 252.5t347.5 88q336 0 516 -254q131 -186 131 -448q0 -168 -54 -297.5t-141 -222.5q-53 -58 -149 -121l364 6v-166h-575v177q80 40 124 78q72 61 122 145t75.5 179t25.5 198
q0 138 -49.5 277.5t-150 212.5t-243.5 73q-191 0 -296 -120q-146 -169 -146 -440q0 -217 91 -372.5t251 -227.5v-180h-577v168z" />
    <glyph glyph-name="partialdiff" unicode="&#x2202;" horiz-adv-x="1012" 
d="M426 1138l-135 60q70 157 168 225t192 68q76 0 137.5 -39.5t92.5 -90.5q47 -79 69.5 -187t22.5 -248q0 -288 -86.5 -512.5t-233.5 -331.5t-289 -107q-137 0 -222.5 91t-85.5 256q0 226 153 387q197 207 649 215q-4 168 -24 256t-68 135.5t-113 47.5q-62 0 -121 -49.5
t-106 -175.5zM854 796q-244 -14 -357.5 -68t-187 -176.5t-73.5 -248.5q0 -83 51 -137t119 -54q75 0 160 55q117 76 190.5 234.5t97.5 394.5z" />
    <glyph glyph-name="uni2206" unicode="&#x2206;" horiz-adv-x="1253" 
d="M1227 0h-1200l628 1386zM991 82l-399 967l-440 -967h839z" />
    <glyph glyph-name="product" unicode="&#x220f;" horiz-adv-x="1686" 
d="M161 1491h1362v-1922h-191v1748h-978v-1748h-193v1922z" />
    <glyph glyph-name="summation" unicode="&#x2211;" horiz-adv-x="1460" 
d="M139 1491h1237v-164h-988l607 -775l-649 -822h1040v-161h-1264v187l620 788l-603 772v175z" />
    <glyph glyph-name="minus" unicode="&#x2212;" 
d="M1194 791q0 -33 -41 -33h-829q-41 0 -41 33v20q0 33 41 33h829q41 0 41 -33v-20z" />
    <glyph glyph-name="fraction" unicode="&#x2215;" horiz-adv-x="543" 
d="M899 1513q0 -8 -16 -30l-1110 -1456q-19 -24 -27 -31.5t-22 -7.5h-64q-12 0 -12 8q0 7 16 31l1110 1456q25 29 31 34t18 5h62q14 0 14 -9z" />
    <glyph glyph-name="periodcentered" unicode="&#x2219;" horiz-adv-x="344" 
d="M375 895v-6l-29 -152q-3 -17 -16 -28t-29 -11h-12q-15 0 -24 10t-9 23v6l29 152q3 16 16.5 27.5t28.5 11.5h12q13 0 23 -10t10 -23z" />
    <glyph glyph-name="radical" unicode="&#x221a;" horiz-adv-x="1124" 
d="M1124 1870l-311 -1948l-496 1022l-198 -92l-35 63l301 152l403 -823h5l258 1626h73z" />
    <glyph glyph-name="infinity" unicode="&#x221e;" horiz-adv-x="1460" 
d="M689 812q105 132 164 174q80 58 169 58q105 0 196.5 -76t91.5 -245q0 -118 -34 -185.5t-106 -108.5t-148 -41q-89 0 -169 57q-59 43 -164 175q-136 -171 -289 -171q-101 0 -173.5 76.5t-72.5 190.5q0 113 72.5 190t173.5 77q153 0 289 -171zM758 717q87 -135 159 -185
q46 -33 103 -33q76 0 127.5 56t51.5 158q0 106 -52.5 162t-130.5 56q-49 0 -92 -28q-58 -39 -166 -186zM620 716q-80 100 -128 128.5t-92 28.5q-58 0 -96.5 -41t-38.5 -113q0 -71 40 -113.5t97 -42.5q101 0 218 153z" />
    <glyph glyph-name="integral" unicode="&#x222b;" horiz-adv-x="561" 
d="M561 1755q0 -29 -12.5 -53t-34 -36.5t-47.5 -12.5q-36 0 -76 35q-20 20 -39 20q-41 0 -41 -63q0 -46 11 -146q18 -204 27 -371t9 -294l-2 -121l-14 -471q-6 -190 -49 -320q-22 -67 -68 -104t-106 -37q-54 0 -86.5 33.5t-32.5 87.5q0 44 25 71t65 27q42 0 70 -33
q13 -14 24 -22t25 -8q39 0 39 61q0 37 -10 119q-20 170 -29 395q-3 104 -6 229q-2 70 -2 154l16 553q6 191 66 317q19 40 63.5 69.5t87.5 29.5q31 0 61.5 -15t48 -41t17.5 -53z" />
    <glyph glyph-name="approxequal" unicode="&#x2248;" horiz-adv-x="1124" 
d="M51 738v205q106 120 278 120q60 0 125.5 -17t188.5 -70q69 -30 103.5 -38.5t69.5 -8.5q65 0 134.5 39t123.5 98v-212q-64 -60 -129.5 -87t-147.5 -27q-60 0 -114 13.5t-173 67t-198 53.5q-64 0 -120.5 -27.5t-140.5 -108.5zM51 376v205q106 120 278 120q60 0 125.5 -17
t188.5 -70q69 -29 103.5 -38t69.5 -9q65 0 134.5 39t123.5 98v-212q-64 -60 -129.5 -87t-147.5 -27q-60 0 -114 14t-173 67t-198 53q-64 0 -120.5 -27.5t-140.5 -108.5z" />
    <glyph glyph-name="notequal" unicode="&#x2260;" horiz-adv-x="1124" 
d="M495 417l-194 -445h-136l195 445h-282v168h356l122 277h-478v168h551l196 444h134l-195 -444h282v-168h-356l-121 -277h477v-168h-551z" />
    <glyph glyph-name="lessequal" unicode="&#x2264;" horiz-adv-x="1124" 
d="M77 762v168l971 410v-180l-770 -315l770 -319v-179zM1046 106h-968v167h968v-167z" />
    <glyph glyph-name="greaterequal" unicode="&#x2265;" horiz-adv-x="1124" 
d="M1048 762l-971 -415v179l769 319l-769 315v180l971 -410v-168zM1046 106h-968v167h968v-167z" />
    <glyph glyph-name="lozenge" unicode="&#x25ca;" horiz-adv-x="1012" 
d="M549 1422l418 -713l-418 -709h-111l-391 709l391 713h111zM495 1325l-340 -616l340 -615l359 615z" />
    <glyph glyph-name="uniF001" unicode="&#xf001;" horiz-adv-x="1153" 
d="M1253 1501v-8l-28 -152q-8 -38 -45 -38h-13q-32 0 -32 28v10l28 152q7 39 45 39h13q32 0 32 -31zM1176 1069v-8l-183 -1034q-3 -16 -16.5 -27.5t-28.5 -11.5h-12q-12 0 -22.5 9.5t-10.5 22.5v7l182 1034q5 17 16 28t25 11h23q27 0 27 -31zM967 1501q0 -3 -0.5 -4.5
t-1.5 -3.5l-4 -14q-4 -13 -14.5 -20t-33.5 -7h-102q-77 0 -115 -32.5t-55 -129.5l-33 -190h244q33 0 33 -27v-6l-4 -18q-3 -16 -15.5 -24.5t-29.5 -8.5h-244l-195 -1104q-18 -95 -53.5 -148t-89 -73.5t-131.5 -20.5q-64 0 -105 6q-36 7 -36 25l1.5 4.5t0.5 3.5l4 15
q9 26 47 26h102q75 0 114.5 34.5t55.5 127.5l195 1104h-203q-33 0 -33 26v7l4 18q7 33 45 33h203l33 190q24 136 91 189t183 53q65 0 105 -6q37 -6 37 -25z" />
    <glyph glyph-name="uniF001" unicode="&#xfb01;" horiz-adv-x="1153" 
d="M1253 1501v-8l-28 -152q-8 -38 -45 -38h-13q-32 0 -32 28v10l28 152q7 39 45 39h13q32 0 32 -31zM1176 1069v-8l-183 -1034q-3 -16 -16.5 -27.5t-28.5 -11.5h-12q-12 0 -22.5 9.5t-10.5 22.5v7l182 1034q5 17 16 28t25 11h23q27 0 27 -31zM967 1501q0 -3 -0.5 -4.5
t-1.5 -3.5l-4 -14q-4 -13 -14.5 -20t-33.5 -7h-102q-77 0 -115 -32.5t-55 -129.5l-33 -190h244q33 0 33 -27v-6l-4 -18q-3 -16 -15.5 -24.5t-29.5 -8.5h-244l-195 -1104q-18 -95 -53.5 -148t-89 -73.5t-131.5 -20.5q-64 0 -105 6q-36 7 -36 25l1.5 4.5t0.5 3.5l4 15
q9 26 47 26h102q75 0 114.5 34.5t55.5 127.5l195 1104h-203q-33 0 -33 26v7l4 18q7 33 45 33h203l33 190q24 136 91 189t183 53q65 0 105 -6q37 -6 37 -25z" />
    <glyph glyph-name="uniF002" unicode="&#xf002;" horiz-adv-x="1151" 
d="M1249 1491v-8l-258 -1456q-7 -39 -41 -39h-20q-29 0 -29 30v9l258 1456q3 16 15.5 27.5t25.5 11.5h21q28 0 28 -31zM967 1501q0 -3 -0.5 -4.5t-1.5 -3.5l-4 -14q-4 -13 -14.5 -20t-33.5 -7h-102q-77 0 -115 -32.5t-55 -129.5l-33 -190h244q33 0 33 -27v-6l-4 -18
q-3 -16 -15.5 -24.5t-29.5 -8.5h-244l-195 -1104q-18 -95 -53.5 -148t-89 -73.5t-131.5 -20.5q-64 0 -105 6q-36 7 -36 25l1.5 4.5t0.5 3.5l4 15q9 26 47 26h102q75 0 114.5 34.5t55.5 127.5l195 1104h-203q-33 0 -33 26v7l4 18q7 33 45 33h203l33 190q24 136 91 189t183 53
q65 0 105 -6q37 -6 37 -25z" />
    <glyph glyph-name="uniF002" unicode="&#xfb02;" horiz-adv-x="1151" 
d="M1249 1491v-8l-258 -1456q-7 -39 -41 -39h-20q-29 0 -29 30v9l258 1456q3 16 15.5 27.5t25.5 11.5h21q28 0 28 -31zM967 1501q0 -3 -0.5 -4.5t-1.5 -3.5l-4 -14q-4 -13 -14.5 -20t-33.5 -7h-102q-77 0 -115 -32.5t-55 -129.5l-33 -190h244q33 0 33 -27v-6l-4 -18
q-3 -16 -15.5 -24.5t-29.5 -8.5h-244l-195 -1104q-18 -95 -53.5 -148t-89 -73.5t-131.5 -20.5q-64 0 -105 6q-36 7 -36 25l1.5 4.5t0.5 3.5l4 15q9 26 47 26h102q75 0 114.5 34.5t55.5 127.5l195 1104h-203q-33 0 -33 26v7l4 18q7 33 45 33h203l33 190q24 136 91 189t183 53
q65 0 105 -6q37 -6 37 -25z" />
    <glyph glyph-name="uniF006" unicode="&#xf006;" horiz-adv-x="1413" 
d="M505 916v-916h-180v916h-280v146h1324v-146h-242v-916h-180v916h-442z" />
    </font>
</defs>
</svg>
