<?xml version="1.0" standalone="no"?>
<!DOCTYPE svg PUBLIC "-//W3C//DTD SVG 1.1//EN" "http://www.w3.org/Graphics/SVG/1.1/DTD/svg11.dtd" >
<svg xmlns="http://www.w3.org/2000/svg" xmlns:xlink="http://www.w3.org/1999/xlink" version="1.1">
<metadata>
Created by FontForge 20170731 at Tue Apr  6 16:21:09 2004
 By Aleksey,,,
Digitized data (C) 2004 Agfa Monotype Corporation. Neo Sans(TM) is a trademark of Agfa Monotype Corporation and may be registered in certain jurisdictions.  All rights reserved. Neo Sans is designed by Sebastian Lester.
</metadata>
<defs>
<font id="NeoSans-Light" horiz-adv-x="1188" >
  <font-face 
    font-family="Neo Sans Light"
    font-weight="300"
    font-stretch="normal"
    units-per-em="2048"
    panose-1="2 11 3 4 2 2 2 2 2 4"
    ascent="1638"
    descent="-410"
    x-height="1100"
    cap-height="1522"
    bbox="-180 -442 2103 1968"
    underline-thickness="102"
    underline-position="-358"
    unicode-range="U+0020-F006"
  />
<missing-glyph horiz-adv-x="1024" 
d="M51 0v1536h922v-1536h-922zM179 128h666v1280h-666v-1280z" />
    <glyph glyph-name=".notdef" horiz-adv-x="1024" 
d="M51 0v1536h922v-1536h-922zM179 128h666v1280h-666v-1280z" />
    <glyph glyph-name=".null" horiz-adv-x="0" 
 />
    <glyph glyph-name="nonmarkingreturn" horiz-adv-x="440" 
 />
    <glyph glyph-name="space" unicode=" " horiz-adv-x="440" 
 />
    <glyph glyph-name="exclam" unicode="!" horiz-adv-x="418" 
d="M254 393q0 -16 -12 -27.5t-27 -11.5h-12q-15 0 -27 12t-12 27v1090q0 15 12 27t27 12h12q15 0 27 -11t12 -28v-1090zM254 27q0 -17 -11.5 -28t-27.5 -11h-12q-16 0 -27.5 11.5t-11.5 27.5v151q0 15 11.5 27t27.5 12h12q17 0 28 -11t11 -28v-151z" />
    <glyph glyph-name="quotedbl" unicode="&#x22;" horiz-adv-x="604" 
d="M524 1499q0 -10 -2 -16l-98 -353q-11 -38 -39 -38h-31q-18 0 -18 20q0 12 2 18l84 353q8 39 41 39h39q22 0 22 -23zM268 1499q0 -10 -2 -16l-98 -353q-11 -38 -39 -38h-31q-18 0 -18 20q0 12 2 18l84 353q8 39 41 39h39q22 0 22 -23z" />
    <glyph glyph-name="numbersign" unicode="#" horiz-adv-x="1303" 
d="M1200 1018q0 -15 -12.5 -25t-28.5 -10h-213l-41 -463h213q35 0 35 -35v-6q0 -16 -11.5 -25.5t-29.5 -9.5h-215l-35 -405q-4 -39 -37 -39h-18q-33 0 -33 35v4l35 405h-369l-34 -405q-6 -39 -37 -39h-21q-13 0 -23 11t-10 24v4l35 405h-211q-15 0 -26 9t-11 26v6
q0 16 13 25.5t30 9.5h213l41 463h-213q-15 0 -25.5 9.5t-10.5 25.5v8q0 15 12.5 25t30.5 10h213l36 422q2 16 13.5 27.5t25.5 11.5h21q14 0 22 -10.5t8 -24.5v-4l-36 -422h368l37 422q2 17 13 28t26 11h18q31 0 31 -35v-4l-37 -422h213q35 0 35 -35v-8zM858 983h-369
l-40 -463h368z" />
    <glyph glyph-name="dollar" unicode="$" 
d="M1024 377q0 -351 -385 -385v-215q0 -17 -9 -28t-24 -11h-20q-15 0 -24 11t-9 28v211h-4q-47 0 -114 4t-116.5 9t-87.5 9q-36 4 -36 33v27q0 26 38 26h9q53 -4 151 -13t156 -9q147 0 231.5 39t117 105.5t32.5 158.5q0 55 -13 92.5t-41 69.5t-82.5 71.5t-140.5 91.5
l-204 127q-113 70 -174.5 127t-86 114t-24.5 130q0 296 389 328v178q0 17 9 28t24 11h20q15 0 24 -11t9 -28v-174h4q100 0 305 -21q35 -3 35 -30v-27q0 -29 -39 -29q-20 0 -77.5 5.5t-117 10.5t-108.5 5q-137 0 -220.5 -26t-123 -79.5t-39.5 -140.5q0 -60 21.5 -104t71 -86
t155.5 -107l201 -123q128 -78 197.5 -141.5t94.5 -123t25 -138.5z" />
    <glyph glyph-name="percent" unicode="%" horiz-adv-x="1550" 
d="M1427 307q0 -159 -67.5 -239t-190.5 -80q-81 0 -139.5 35.5t-89.5 106.5t-31 177v213q0 158 69.5 238t190.5 80q80 0 138 -35t89 -107t31 -176v-213zM1264 1511q0 -11 -13 -28l-860 -1456q-14 -25 -21.5 -32t-21.5 -7h-55q-14 0 -14 10t12 29l860 1456q13 23 21 31t22 8
h53q17 0 17 -11zM641 1001q0 -159 -67.5 -239t-190.5 -80q-83 0 -140.5 35.5t-88.5 106.5t-31 177v213q0 106 31.5 177.5t89 106t139.5 34.5q80 0 138 -34.5t89 -106.5t31 -177v-213zM1348 307v213q0 240 -179 240q-180 0 -180 -240v-213q0 -239 180 -239q87 0 133 58
t46 181zM561 1001v213q0 240 -178 240q-180 0 -180 -240v-213q0 -239 180 -239q178 0 178 239z" />
    <glyph glyph-name="ampersand" unicode="&#x26;" horiz-adv-x="1305" 
d="M1227 14q0 -14 -17 -14h-65q-21 0 -33 14l-129 138q-54 -55 -114.5 -90.5t-139 -54.5t-164.5 -19q-81 0 -163 18t-150 58t-109 109.5t-41 168.5v12q0 125 68 217t244 203q-102 118 -158 199.5t-72 130t-16 102.5v13q0 164 106 238.5t285 74.5q100 0 185 -31.5t137.5 -102
t52.5 -179.5v-13q0 -79 -31 -144.5t-101.5 -129.5t-189.5 -135l-67 -41q51 -57 97.5 -105.5t94.5 -101.5l244 -262q34 51 58 120.5t35 146t11 159.5v22q0 39 31 39h29q33 0 33 -39v-22q0 -66 -8.5 -136t-24.5 -131.5t-43 -120t-60 -104.5l181 -194q4 -8 4 -13zM840 1206v13
q0 231 -281 231q-144 0 -220.5 -50t-76.5 -181v-13q0 -46 14.5 -88t66 -115t146.5 -182l76 45q112 66 171 118.5t81.5 104.5t22.5 117zM926 215l-254 272q-160 172 -203 222q-106 -66 -163.5 -117t-82 -105.5t-24.5 -132.5v-12q0 -139 106.5 -205.5t259.5 -66.5
q116 0 207 38.5t154 106.5z" />
    <glyph glyph-name="quotesingle" unicode="'" horiz-adv-x="348" 
d="M268 1499q0 -10 -2 -16l-98 -353q-11 -38 -39 -38h-31q-18 0 -18 20q0 12 2 18l84 353q8 39 41 39h39q22 0 22 -23z" />
    <glyph glyph-name="parenleft" unicode="(" horiz-adv-x="543" 
d="M502 -389q0 -10 -17 -10h-61q-24 0 -35 14q-88 106 -149 265t-89 322.5t-28 303.5v110q0 140 28 303.5t89 322.5t149 265q11 15 35 15h61q17 0 17 -11q0 -8 -10 -18q-87 -93 -150.5 -247t-95 -322.5t-31.5 -307.5v-110q0 -137 31.5 -307t95 -323.5t150.5 -246.5
q10 -10 10 -18z" />
    <glyph glyph-name="parenright" unicode=")" horiz-adv-x="543" 
d="M420 506q0 -225 -66 -476.5t-200 -414.5q-13 -14 -35 -14h-62q-16 0 -16 10q0 8 10 18q87 93 150.5 246.5t95 323.5t31.5 307v110q0 110 -17 227.5t-51 238t-87 230t-122 181.5q-10 10 -10 18q0 11 16 11h62q23 0 35 -15q69 -83 120 -194.5t83 -231.5t47.5 -239
t15.5 -226v-110z" />
    <glyph glyph-name="asterisk" unicode="*" horiz-adv-x="854" 
d="M784 1260q0 -26 -28 -33l-267 -86l164 -228q11 -15 11 -24q0 -13 -13 -23l-14 -10q-9 -6 -16 -6q-15 0 -29 18l-166 228l-164 -228q-13 -16 -29 -16q-10 0 -16 4l-16 10q-13 7 -13 21q0 11 11 26l166 228l-267 86q-28 7 -28 33q0 6 2 8l6 16q6 19 28 19q9 0 15 -3
l268 -86v281q0 37 29 37h18q29 0 29 -37v-281l268 86q6 3 15 3q22 0 28 -19l6 -16q2 -2 2 -8z" />
    <glyph glyph-name="plus" unicode="+" 
d="M1051 791q0 -33 -41 -33h-373v-371q0 -41 -33 -41h-20q-33 0 -33 41v371h-371q-41 0 -41 33v20q0 33 41 33h371v373q0 40 33 40h20q33 0 33 -40v-373h373q41 0 41 -33v-20z" />
    <glyph glyph-name="comma" unicode="," horiz-adv-x="344" 
d="M266 195q0 -5 -4 -17l-129 -344q-9 -23 -16.5 -31t-22.5 -8h-24q-21 0 -21 21q0 6 4 18l109 344q11 39 41 39h39q24 0 24 -22z" />
    <glyph glyph-name="hyphen" unicode="-" horiz-adv-x="705" 
d="M598 559q0 -15 -10.5 -24t-28.5 -9h-414q-17 0 -28 9t-11 24v16q0 17 11 27t28 10h414q17 0 28 -10t11 -27v-16z" />
    <glyph glyph-name="period" unicode="." horiz-adv-x="344" 
d="M217 27q0 -17 -11.5 -28t-27.5 -11h-12q-16 0 -27.5 11.5t-11.5 27.5v151q0 15 11.5 27t27.5 12h12q17 0 28 -11t11 -28v-151z" />
    <glyph glyph-name="slash" unicode="/" horiz-adv-x="639" 
d="M610 1507q0 -10 -2 -14l-481 -1466q-12 -39 -33 -39h-45q-20 0 -20 24q0 11 2 15l481 1466q7 20 13 29.5t20 9.5h43q22 0 22 -25z" />
    <glyph glyph-name="zero" unicode="0" 
d="M1065 559q0 -287 -124.5 -429t-346.5 -142t-346.5 142t-124.5 429v404q0 288 124 428.5t347 140.5t347 -140.5t124 -428.5v-404zM975 559v404q0 160 -44 269.5t-129 163.5t-208 54t-208 -54t-129 -163.5t-44 -269.5v-404q0 -116 25.5 -210.5t74 -155.5t120 -92t161.5 -31
q184 0 282.5 124.5t98.5 364.5z" />
    <glyph glyph-name="one" unicode="1" 
d="M655 41q0 -18 -12 -29.5t-29 -11.5h-8q-15 0 -28 12t-13 29v1393l-241 -31h-11q-30 0 -30 27v10q0 34 41 41l284 41h10q37 0 37 -41v-1440z" />
    <glyph glyph-name="two" unicode="2" 
d="M1024 1174q0 -115 -58.5 -201t-217.5 -193l-209 -141q-94 -63 -153 -120.5t-86.5 -111t-35.5 -106.5t-8 -135v-82h709q41 0 41 -31v-22q0 -31 -41 -31h-760q-19 0 -30 12t-11 29v125q0 109 23 196t93.5 173t200.5 174l209 141q98 67 146.5 113.5t69 96t20.5 114.5
q0 93 -38 153t-122 89.5t-217 29.5q-159 0 -313 -31q-5 0 -7 -0.5t-4 -1.5q-32 0 -32 33v22q0 25 38 33q142 31 318 31q475 0 475 -358z" />
    <glyph glyph-name="three" unicode="3" 
d="M1016 422q0 -224 -133 -329t-375 -105q-153 0 -299 30q-37 9 -37 37v13q0 32 33 32h8q160 -26 295 -26q213 0 312.5 82t99.5 266v41q0 62 -30.5 130t-95.5 115.5t-165 47.5h-383q-17 0 -28 10t-11 27v14q0 16 11.5 26.5t27.5 10.5h383q108 0 174 46.5t91.5 112
t25.5 130.5v24q0 114 -45 177t-133.5 87.5t-233.5 24.5q-117 0 -295 -31h-8q-33 0 -33 33v16q0 30 37 37q165 31 299 31q165 0 277 -33t171.5 -115.5t59.5 -226.5v-24q0 -110 -50.5 -199.5t-162.5 -138.5q74 -34 122.5 -91t69.5 -120.5t21 -120.5v-41z" />
    <glyph glyph-name="four" unicode="4" 
d="M1110 477q0 -35 -39 -35h-205v-403q0 -16 -9 -27.5t-23 -11.5h-25q-33 0 -33 39v403h-567q-61 0 -96 32t-35 79q0 43 28 86l574 842q34 51 104 51q36 0 59 -24.5t23 -73.5v-906h205q16 0 27.5 -8.5t11.5 -23.5v-19zM776 528v893q0 17 -12 17q-8 0 -21 -17l-559 -821
q-20 -32 -20 -47q0 -25 45 -25h567z" />
    <glyph glyph-name="five" unicode="5" 
d="M1030 440q0 -109 -36.5 -194t-106 -142.5t-165 -86.5t-210.5 -29q-100 0 -163 8.5t-152 28.5q-39 7 -39 38v23q0 27 26 27q11 0 17 -2q84 -19 161.5 -28t149.5 -9q138 0 233.5 41t145 122.5t49.5 202.5v52q0 119 -51.5 188.5t-158.5 99t-284 29.5h-217q-17 0 -29 11
t-12 30v4l48 633q1 14 14 24.5t26 10.5h668q17 0 29 -9t12 -24v-23q0 -28 -41 -28h-620l-37 -545h159q165 0 279 -25.5t180 -75.5t95.5 -123.5t29.5 -176.5v-52z" />
    <glyph glyph-name="six" unicode="6" 
d="M1057 514q0 -129 -27 -227.5t-84 -164.5t-147.5 -100t-214.5 -34q-153 0 -254 58t-150 175.5t-49 296.5v481q0 282 125.5 407.5t376.5 125.5q100 0 174 -10t151 -29q46 -8 46 -37v-20q0 -29 -33 -29q-10 0 -17 2q-88 20 -154 28.5t-167 8.5q-144 0 -234 -42.5
t-134 -142.5t-44 -262v-127q210 54 379 54q122 0 225 -38t167.5 -128.5t64.5 -235.5v-10zM967 514v10q0 172 -105.5 245t-261.5 73q-92 0 -199.5 -15.5t-179.5 -33.5v-275q0 -241 86.5 -344.5t276.5 -103.5q189 0 286 104t97 340z" />
    <glyph glyph-name="seven" unicode="7" 
d="M1059 1450q0 -25 -10 -45l-656 -1385q-3 -7 -16 -13.5t-21 -6.5h-30q-31 0 -31 31q0 12 6 24l647 1350q2 4 2 12q0 17 -16 17h-766q-18 0 -29.5 9t-11.5 23v17q0 15 12 27t29 12h811q36 0 58 -19.5t22 -52.5z" />
    <glyph glyph-name="eight" unicode="8" 
d="M1073 403q0 -204 -131 -309.5t-348 -105.5t-348 105.5t-131 309.5v62q0 59 23 124t71 120.5t119 87.5q-99 36 -156 122.5t-57 194.5v45q0 125 59.5 209t168.5 124t251 40q143 0 251.5 -40t168 -124t59.5 -209v-45q0 -68 -25.5 -133t-74 -112.5t-113.5 -71.5
q102 -46 157.5 -141.5t55.5 -190.5v-62zM977 1114v45q0 147 -97 217t-286 70t-286 -70t-97 -217v-45q0 -108 69.5 -189t229.5 -81h168q158 0 228.5 81t70.5 189zM977 403v62q0 42 -14.5 91t-49 94.5t-93 75.5t-142.5 30h-168q-84 0 -142.5 -30t-93 -77t-49 -94.5
t-14.5 -89.5v-62q0 -161 99 -245t284 -84t284 84t99 245z" />
    <glyph glyph-name="nine" unicode="9" 
d="M1057 520q0 -189 -56.5 -306.5t-167.5 -171.5t-278 -54q-100 0 -163 8.5t-163 30.5q-45 8 -45 36v21q0 29 33 29q10 0 16 -2q111 -22 172 -29.5t150 -7.5q109 0 185.5 24t126.5 75t75 136t25 211v127q-214 -53 -379 -53q-88 0 -170 20.5t-146 67t-102.5 125t-38.5 188.5
v11q0 265 114 395.5t359 130.5q153 0 253.5 -57.5t150 -175.5t49.5 -298v-481zM967 727v274q0 242 -86.5 345.5t-276.5 103.5t-286.5 -104t-96.5 -340v-11q0 -171 106 -244t261 -73q92 0 199.5 15.5t179.5 33.5z" />
    <glyph glyph-name="colon" unicode=":" horiz-adv-x="365" 
d="M227 920q0 -17 -11.5 -28t-27.5 -11h-12q-16 0 -27.5 11.5t-11.5 27.5v151q0 15 11.5 27t27.5 12h12q17 0 28 -11t11 -28v-151zM227 27q0 -17 -11.5 -28t-27.5 -11h-12q-16 0 -27.5 11.5t-11.5 27.5v151q0 15 11.5 27t27.5 12h12q17 0 28 -11t11 -28v-151z" />
    <glyph glyph-name="semicolon" unicode=";" horiz-adv-x="365" 
d="M227 920q0 -17 -11.5 -28t-27.5 -11h-12q-16 0 -27.5 11.5t-11.5 27.5v151q0 15 11.5 27t27.5 12h12q17 0 28 -11t11 -28v-151zM242 195q0 -5 -4 -17l-129 -344q-8 -21 -16.5 -30t-22.5 -9h-25q-20 0 -20 21q0 6 4 18l108 344q11 39 41 39h39q25 0 25 -22z" />
    <glyph glyph-name="less" unicode="&#x3c;" 
d="M883 326q0 -14 -11 -23l-14 -14q-8 -8 -20 -8q-15 0 -33 14l-545 446q-31 26 -31 60t31 59l545 447q18 14 33 14q12 0 20 -8l14 -15q11 -9 11 -22q0 -19 -17 -31l-542 -444l542 -445q17 -12 17 -30z" />
    <glyph glyph-name="equal" unicode="=" 
d="M1010 995q0 -32 -41 -32h-748q-41 0 -41 32v21q0 15 12.5 24t28.5 9h748q16 0 28.5 -9t12.5 -24v-21zM1010 586q0 -33 -41 -33h-748q-41 0 -41 33v20q0 33 41 33h748q41 0 41 -33v-20z" />
    <glyph glyph-name="greater" unicode="&#x3e;" 
d="M987 801q0 -35 -31 -60l-544 -446q-19 -14 -33 -14q-12 0 -21 8l-14 14q-10 10 -10 23q0 17 16 30l543 445l-543 444q-16 13 -16 31q0 12 10 22l14 15q9 8 21 8q14 0 33 -14l544 -447q31 -24 31 -59z" />
    <glyph glyph-name="question" unicode="?" horiz-adv-x="868" 
d="M745 1219q0 -93 -46.5 -173.5t-178.5 -214.5l-61 -61q-54 -54 -79.5 -89t-34.5 -70t-9 -95v-123q0 -16 -11.5 -27.5t-27.5 -11.5h-12q-16 0 -27.5 11.5t-11.5 27.5v123q0 66 13 115.5t43.5 94t94.5 110.5l58 57q86 87 124 137.5t53 92t15 96.5v16q0 115 -72 166t-225 51
q-78 0 -248 -14h-4q-26 0 -26 24v17q0 33 34 39q118 14 244 14q170 0 282.5 -70t112.5 -227v-16zM334 27q0 -16 -11.5 -27.5t-27.5 -11.5h-12q-16 0 -27.5 11.5t-11.5 27.5v151q0 15 11.5 27t27.5 12h12q17 0 28 -12t11 -27v-151z" />
    <glyph glyph-name="at" unicode="@" horiz-adv-x="1552" 
d="M1450 764q0 -209 -38.5 -329t-127.5 -185q-82 -61 -218.5 -89t-338.5 -28q-144 0 -216.5 74t-72.5 194q0 25 2 37l23 242q8 88 46 156t109 106.5t175 38.5q125 0 251 -29q29 -7 29 -26v-4l-63 -695q124 16 197 60.5t105.5 112.5t41 147.5t8.5 216.5q0 136 -61 246.5
t-179 173.5t-282 63q-172 0 -308 -71t-216 -195t-95 -274l-28 -291q-3 -21 -3 -60q0 -100 31.5 -186t97 -153t165 -104.5t229.5 -37.5q113 0 258 10h2h6q31 0 31 -24q0 -8 -2 -15q-5 -27 -41 -32q-121 -17 -262 -17q-142 0 -255.5 44t-192.5 124.5t-117 180t-38 210.5
q0 39 2 60l29 293q17 174 107 314.5t246.5 222t359.5 81.5q144 0 258.5 -45.5t191 -125.5t115.5 -180.5t39 -211.5zM981 883q-124 18 -193 18q-219 0 -239 -223l-23 -240q-2 -12 -2 -35q0 -57 21.5 -99.5t67 -65.5t114.5 -23h70q86 0 125 6z" />
    <glyph glyph-name="A" unicode="A" horiz-adv-x="1268" 
d="M1190 25q0 -31 -33 -31h-24q-26 0 -33 26l-172 555h-590l-168 -555q-9 -26 -33 -26h-26q-31 0 -31 33q0 12 2 18l420 1387q14 48 48.5 74t84.5 26q49 0 83.5 -25.5t47.5 -72.5l420 -1389q4 -12 4 -20zM905 666l-223 743q-12 41 -47 41q-37 0 -47 -39l-226 -745h543z" />
    <glyph glyph-name="B" unicode="B" 
d="M1081 416q0 -430 -571 -430q-160 0 -307 16q-39 3 -39 39v1440q0 14 11.5 25.5t27.5 13.5q168 12 307 12q250 0 406.5 -80.5t156.5 -290.5v-22q0 -126 -63.5 -212.5t-180.5 -127.5q120 -35 186 -124t66 -224v-35zM983 1139v22q0 171 -128 231t-345 60q-69 0 -147.5 -3.5
t-108.5 -4.5v-600h371q199 0 278.5 81t79.5 214zM991 416v35q0 136 -83 220.5t-283 84.5h-371v-676q176 -12 256 -12q138 0 244.5 27t171.5 104.5t65 216.5z" />
    <glyph glyph-name="C" unicode="C" horiz-adv-x="1100" 
d="M1018 43q0 -14 -12 -23.5t-27 -11.5q-177 -20 -354 -20q-103 0 -191 32t-159 107t-111.5 199.5t-40.5 298.5v270q0 175 40.5 299t111.5 199t159 107t191 32q195 0 354 -21q16 -2 27.5 -11t11.5 -23v-25q0 -25 -27 -25h-12q-156 19 -354 19q-187 0 -299.5 -133.5
t-112.5 -417.5v-270q0 -286 112.5 -418.5t299.5 -132.5q188 0 354 18h12q27 0 27 -24v-25z" />
    <glyph glyph-name="D" unicode="D" horiz-adv-x="1255" 
d="M1133 633q0 -337 -160 -491t-438 -154q-242 0 -336 16q-14 3 -24.5 14.5t-10.5 24.5v1434q0 14 11 25t24 14q94 16 336 16q136 0 244.5 -34.5t187.5 -110t122.5 -199.5t43.5 -301v-254zM1042 633v254q0 306 -135 435.5t-372 129.5q-43 0 -91 -1.5t-104 -5t-86 -5.5v-1364
q120 -8 281 -8q151 0 264.5 53.5t178 179t64.5 332.5z" />
    <glyph glyph-name="E" unicode="E" horiz-adv-x="1092" 
d="M979 35q0 -35 -39 -35h-528q-83 0 -137 22.5t-82.5 72t-28.5 134.5v1063q0 125 62 177.5t186 52.5h528q16 0 27.5 -9.5t11.5 -25.5v-17q0 -32 -39 -32h-528q-82 0 -120 -29t-38 -117v-450h686q18 0 28.5 -9t10.5 -24v-21q0 -34 -39 -34h-686v-525q0 -89 38 -117t120 -28
h528q39 0 39 -33v-16z" />
    <glyph glyph-name="F" unicode="F" horiz-adv-x="1061" 
d="M979 788q0 -34 -39 -34h-686v-715q0 -17 -10 -28t-25 -11h-20q-15 0 -25 12t-10 27v1253q0 125 62 177.5t186 52.5h528q16 0 27.5 -9.5t11.5 -25.5v-17q0 -32 -39 -32h-528q-82 0 -120 -29t-38 -117v-450h686q18 0 28.5 -9t10.5 -24v-21z" />
    <glyph glyph-name="G" unicode="G" horiz-adv-x="1204" 
d="M1040 1458q0 -31 -30 -31h-13q-203 21 -360 21q-180 0 -302 -128t-122 -433v-254q0 -282 111 -420.5t313 -138.5q106 0 187 6.5t124 11.5v651q0 16 9.5 27.5t25.5 11.5h21q16 0 25 -10.5t9 -28.5v-690q0 -14 -10 -25.5t-24 -13.5q-98 -12 -178.5 -19t-188.5 -7
q-151 0 -266 68t-181.5 214t-66.5 363v254q0 184 44 310.5t119.5 200.5t163 104t187.5 30q201 0 369 -21q34 -4 34 -32v-21z" />
    <glyph glyph-name="H" unicode="H" horiz-adv-x="1325" 
d="M1161 39q0 -39 -35 -39h-18q-35 0 -35 39v733h-819v-733q0 -17 -10 -28t-25 -11h-20q-15 0 -25 12t-10 27v1444q0 15 10 27t25 12h20q15 0 25 -11t10 -28v-627h819v627q0 39 35 39h18q35 0 35 -39v-1444z" />
    <glyph glyph-name="I" unicode="I" horiz-adv-x="459" 
d="M274 39q0 -16 -9.5 -27.5t-24.5 -11.5h-21q-15 0 -25 12t-10 27v1444q0 15 10 27t25 12h21q15 0 24.5 -11t9.5 -28v-1444z" />
    <glyph glyph-name="J" unicode="J" horiz-adv-x="459" 
d="M274 -123q0 -97 -27 -157t-91 -89.5t-176 -29.5h-29q-41 0 -41 28v21q0 31 41 31h29q86 0 128.5 15.5t59 56.5t16.5 124v1606q0 15 10 27t25 12h21q15 0 24.5 -11t9.5 -28v-1606z" />
    <glyph glyph-name="K" unicode="K" horiz-adv-x="1110" 
d="M1049 29q0 -33 -39 -33q-31 0 -47 16l-709 738v-711q0 -17 -10 -28t-25 -11h-20q-15 0 -25 12t-10 27v1444q0 15 12 27t27 12h12q15 0 27 -11t12 -28v-656l696 680q25 23 47 23q16 0 27.5 -10.5t11.5 -24.5q0 -21 -16 -37l-688 -667l702 -730q15 -15 15 -32z" />
    <glyph glyph-name="L" unicode="L" horiz-adv-x="989" 
d="M918 35q0 -35 -39 -35h-467q-83 0 -137 22.5t-82.5 72t-28.5 134.5v1254q0 15 10 27t25 12h20q15 0 25 -11t10 -28v-1254q0 -89 38 -117t120 -28h467q39 0 39 -33v-16z" />
    <glyph glyph-name="M" unicode="M" horiz-adv-x="1495" 
d="M1331 39q0 -17 -10 -28t-25 -11h-20q-15 0 -25 12t-10 27v1393q0 14 -14 14q-13 0 -21 -19l-354 -747q-21 -43 -45 -58.5t-59 -15.5q-36 0 -59 15t-46 59l-354 747q-8 19 -21 19q-14 0 -14 -14v-1393q0 -17 -10 -28t-25 -11h-20q-15 0 -25 12t-10 27v1393q0 50 28 75
t76 25q65 0 94 -64l359 -751q11 -27 27 -27q15 0 26 27l359 751q29 64 94 64q50 0 77 -25t27 -75v-1393z" />
    <glyph glyph-name="N" unicode="N" horiz-adv-x="1333" 
d="M1169 92q0 -47 -26 -75.5t-66 -28.5h-2q-28 0 -42 2.5t-25 11.5q-22 17 -37 47l-690 1383q-9 14 -17 14q-10 0 -10 -14v-1393q0 -17 -10 -28t-25 -11h-20q-15 0 -25 12t-10 27v1393q0 47 28.5 73.5t71.5 26.5q41 0 62 -15.5t36 -48.5l689 -1380q7 -14 16 -14q10 0 10 18
v1391q0 17 9.5 28t23.5 11h25q16 0 25 -11t9 -28v-1391z" />
    <glyph glyph-name="O" unicode="O" horiz-adv-x="1294" 
d="M1171 633q0 -222 -66 -366t-184 -211.5t-274 -67.5t-274 67.5t-184 211.5t-66 366v254q0 165 38.5 289t108.5 203t165 116t212 37q118 0 213 -37t165 -116t108 -203t38 -289v-254zM1081 633v254q0 199 -55 324.5t-152 180t-227 54.5q-434 0 -434 -559v-254
q0 -559 434 -559q130 0 227 54.5t152 180t55 324.5z" />
    <glyph glyph-name="P" unicode="P" horiz-adv-x="1106" 
d="M1034 1081q0 -233 -142 -335.5t-415 -102.5q-109 0 -223 8v-612q0 -17 -10 -28t-25 -11h-20q-15 0 -25 12t-10 27v1444q0 13 10.5 25t24.5 14q108 6 157.5 8t120.5 2q557 0 557 -416v-35zM944 1081v35q0 185 -114 260.5t-353 75.5q-134 0 -223 -6v-715q126 -8 223 -8
q124 0 209.5 19.5t143.5 62.5t86 110t28 166z" />
    <glyph glyph-name="Q" unicode="Q" horiz-adv-x="1294" 
d="M1171 633q0 -210 -60 -351.5t-168 -212.5t-253 -79v-137q0 -61 6.5 -93.5t24 -48.5t57 -23t103.5 -7h43q16 0 28.5 -9t12.5 -24v-15q0 -32 -41 -32h-43q-102 0 -160.5 17t-89.5 72t-31 163v137q-144 9 -251 80.5t-166.5 212.5t-59.5 350v254q0 165 38.5 289t108.5 203
t165 116t212 37q118 0 213 -37t165 -116t108 -203t38 -289v-254zM1081 633v254q0 199 -55 324.5t-152 180t-227 54.5q-434 0 -434 -559v-254q0 -559 434 -559q130 0 227 54.5t152 180t55 324.5z" />
    <glyph glyph-name="R" unicode="R" horiz-adv-x="1225" 
d="M1133 31q0 -31 -33 -31h-27q-15 0 -31 18l-436 668h-33h-55q-81 1 -149.5 1.5t-114.5 0.5v-649q0 -17 -10 -28t-25 -11h-20q-15 0 -25 12t-10 27v1446q0 13 10.5 25t24.5 14q41 2 157 5t162 3q146 0 248 -22t171 -70t103.5 -129t34.5 -197v-10q0 -92 -23.5 -162.5
t-68 -119t-113 -79t-161.5 -47.5l413 -637q11 -18 11 -28zM985 1104v10q0 185 -113.5 258.5t-353.5 73.5q-183 0 -264 -8v-664q79 0 138 -0.5t126 -1.5q165 0 266.5 29t151 101t49.5 202z" />
    <glyph glyph-name="S" unicode="S" horiz-adv-x="1085" 
d="M973 379q0 -106 -39.5 -192.5t-145.5 -142.5t-290 -56q-47 0 -114 4t-116.5 9t-87.5 9q-15 2 -26 10.5t-11 22.5v27q0 26 39 26h8q46 -3 148 -12.5t160 -9.5q147 0 231 39t117 106.5t33 159.5q0 73 -30.5 123.5t-89.5 94t-196 128.5l-129 80q-110 68 -176 121t-105.5 120
t-39.5 154q0 332 479 332q100 0 305 -21q35 -3 35 -30v-27q0 -29 -39 -29q-20 0 -77.5 5.5t-117 10.5t-108.5 5q-133 0 -219 -26.5t-126 -81.5t-40 -140q0 -63 30 -112t84 -92t162 -109l131 -80q123 -73 201 -134.5t119 -132t41 -159.5z" />
    <glyph glyph-name="T" unicode="T" horiz-adv-x="1169" 
d="M1108 1468q0 -30 -39 -30h-438v-1399q0 -15 -10 -27t-25 -12h-21q-14 0 -24 12t-10 27v1399h-441q-39 0 -39 30v19q0 16 11.5 25.5t27.5 9.5h969q16 0 27.5 -9.5t11.5 -25.5v-19z" />
    <glyph glyph-name="U" unicode="U" horiz-adv-x="1296" 
d="M1133 541q0 -267 -119.5 -410t-364.5 -143q-164 0 -272.5 65.5t-160.5 190t-52 297.5v942q0 15 10 27t25 12h20q15 0 25 -11t10 -28v-942q0 -151 39.5 -255.5t127.5 -159t228 -54.5t227.5 54.5t126.5 159t39 255.5v942q0 15 10 27t25 12h21q15 0 25 -12t10 -27v-942z" />
    <glyph glyph-name="V" unicode="V" horiz-adv-x="1290" 
d="M1200 1485q0 -10 -2 -15l-420 -1382q-29 -100 -133 -100t-133 100l-420 1382q-2 5 -2 15q0 37 35 37h22q26 0 33 -29l418 -1378q12 -41 47 -41t47 41l418 1378q7 29 33 29h22q35 0 35 -37z" />
    <glyph glyph-name="W" unicode="W" horiz-adv-x="1614" 
d="M1522 1485v-10l-252 -1391q-18 -96 -99 -96q-41 0 -61 23t-37 69l-250 792q-7 25 -16 25t-16 -25l-250 -792q-14 -43 -35 -67.5t-64 -24.5q-81 0 -98 96l-252 1391v10q0 16 8.5 26.5t24.5 10.5h20q31 0 37 -33l248 -1387q5 -30 12 -30q5 0 8.5 6t8.5 24l256 797
q24 80 92 80t92 -80l256 -797q5 -18 8.5 -24t7.5 -6q8 0 13 30l248 1387q6 33 36 33h21q15 0 24 -10.5t9 -26.5z" />
    <glyph glyph-name="X" unicode="X" horiz-adv-x="1233" 
d="M1149 33q0 -33 -33 -33h-16q-19 0 -33 18l-451 682l-450 -682q-13 -18 -33 -18h-18q-33 0 -33 33q0 15 8 26l473 719l-450 682q-11 16 -11 31q0 31 31 31h23q18 0 32 -19l426 -647l428 647q17 19 33 19h19q32 0 32 -33q0 -18 -8 -29l-450 -684l473 -717q8 -11 8 -26z" />
    <glyph glyph-name="Y" unicode="Y" horiz-adv-x="1128" 
d="M1034 1493q0 -10 -6 -27l-323 -714q-46 -99 -97 -119v-594q0 -17 -10 -28t-25 -11h-20q-15 0 -25 12t-10 27v594q-50 19 -96 119l-324 714q-6 17 -6 27q0 29 35 29h20q9 0 18.5 -8t14.5 -17l322 -717q20 -44 31.5 -57.5t29.5 -13.5t30.5 14.5t31.5 56.5l321 717
q13 25 33 25h20q35 0 35 -29z" />
    <glyph glyph-name="Z" unicode="Z" horiz-adv-x="1219" 
d="M1096 33q0 -16 -12.5 -24.5t-30.5 -8.5h-803q-111 0 -111 88q0 40 23 74l776 1249q4 6 4 14q0 13 -16 13h-742q-43 0 -43 30v21q0 14 13 23.5t30 9.5h742q59 0 84 -17q34 -20 34 -65q0 -31 -22 -70l-782 -1264q-4 -8 -4 -14q0 -8 14 -8h803q43 0 43 -31v-20z" />
    <glyph glyph-name="bracketleft" unicode="[" horiz-adv-x="610" 
d="M569 -367q0 -32 -39 -32h-311q-15 0 -25 12t-10 27v1843q0 15 10 27t25 12h311q16 0 27.5 -9.5t11.5 -25.5v-17q0 -32 -39 -32h-256v-1753h256q16 0 27.5 -9.5t11.5 -25.5v-17z" />
    <glyph glyph-name="backslash" unicode="\" horiz-adv-x="666" 
d="M625 12q0 -24 -21 -24h-45q-21 0 -33 39l-481 1466q-2 4 -2 14q0 25 23 25h43q19 0 32 -39l482 -1466q2 -4 2 -15z" />
    <glyph glyph-name="bracketright" unicode="]" horiz-adv-x="610" 
d="M426 -360q0 -17 -10 -28t-25 -11h-311q-39 0 -39 32v17q0 16 11.5 25.5t27.5 9.5h256v1753h-256q-39 0 -39 32v17q0 16 11.5 25.5t27.5 9.5h311q15 0 25 -11t10 -28v-1843z" />
    <glyph glyph-name="asciicircum" unicode="^" 
d="M946 1165q0 -18 -22 -18h-37q-12 0 -20 4.5t-16.5 15.5t-16.5 21l-240 285l-240 -285q-7 -10 -16 -21t-17 -15.5t-20 -4.5h-37q-22 0 -22 18q0 10 10 23l240 307q27 37 55 37h94q28 0 55 -37l240 -307q10 -13 10 -23z" />
    <glyph glyph-name="underscore" unicode="_" horiz-adv-x="952" 
d="M1014 -168q0 -15 -12.5 -24t-28.5 -9h-993q-18 0 -29.5 9t-11.5 24v21q0 32 41 32h993q41 0 41 -32v-21z" />
    <glyph glyph-name="grave" unicode="`" horiz-adv-x="676" 
d="M434 1280q0 -14 -18 -14h-45q-13 0 -20 6t-25 28l-220 263q-8 8 -8 16q0 14 23 14h53q22 0 47 -30l205 -263q8 -8 8 -20z" />
    <glyph glyph-name="a" unicode="a" horiz-adv-x="999" 
d="M856 41q0 -18 -12 -29.5t-29 -11.5h-10q-17 0 -29 12t-12 29v51q-189 -104 -348 -104q-133 0 -223.5 77t-90.5 252v27q0 80 28 139.5t87.5 98.5t154.5 58t236 19h158v74q0 106 -23.5 172t-79 95.5t-155.5 29.5q-87 0 -132.5 -3t-158.5 -15h-8q-39 0 -39 30v13q0 29 47 37
q155 18 291 18q194 0 271 -97.5t77 -279.5v-692zM766 172v408h-158q-155 0 -245.5 -23t-130 -74.5t-39.5 -138.5v-27q0 -249 223 -249q82 0 165 24t185 80z" />
    <glyph glyph-name="b" unicode="b" horiz-adv-x="1032" 
d="M920 485q0 -152 -42.5 -263t-132 -172.5t-227.5 -61.5q-159 0 -344 39q-17 4 -24 12.5t-7 26.5v1417q0 15 10 27t25 12h21q15 0 24.5 -11t9.5 -28v-404q134 31 285 31q201 0 301.5 -123.5t100.5 -365.5v-136zM829 485v136q0 139 -31 228.5t-99.5 135t-180.5 45.5
q-72 0 -147 -6.5t-138 -19.5v-910q160 -26 285 -26q167 0 239 105t72 312z" />
    <glyph glyph-name="c" unicode="c" horiz-adv-x="895" 
d="M805 43q0 -18 -9 -26t-30 -11q-155 -18 -248 -18q-107 0 -184.5 38.5t-126.5 107t-71.5 157.5t-22.5 192v138q0 144 41.5 253t132 172.5t231.5 63.5q45 0 105 -4t143 -14q39 -6 39 -37v-15q0 -28 -33 -28h-10q-144 18 -244 18q-167 0 -241 -106.5t-74 -302.5v-138
q0 -196 74.5 -305.5t240.5 -109.5q100 0 244 18h10q33 0 33 -29v-14z" />
    <glyph glyph-name="d" unicode="d" horiz-adv-x="1032" 
d="M889 66q0 -20 -7 -27.5t-24 -11.5q-185 -39 -344 -39q-204 0 -302.5 133t-98.5 364v136q0 242 101 365.5t300 123.5q151 0 285 -31v404q0 15 10 27t25 12h20q15 0 25 -12t10 -27v-1417zM799 94v910q-63 13 -138 19.5t-147 6.5q-164 0 -237.5 -101.5t-73.5 -307.5v-136
q0 -205 72.5 -311t238.5 -106q125 0 285 26z" />
    <glyph glyph-name="e" unicode="e" horiz-adv-x="1047" 
d="M934 567q0 -16 -11.5 -27.5t-27.5 -11.5h-692v-43q0 -165 48 -256.5t129 -126t193 -34.5q132 0 304 34q3 1 5.5 1.5t6.5 0.5q31 0 31 -28v-15q0 -17 -8 -25t-31 -13q-165 -35 -308 -35q-100 0 -182 24.5t-145 81.5t-98 154.5t-35 236.5v136q0 142 47.5 253t141 173.5
t224.5 62.5q137 0 229 -60t135.5 -170t43.5 -257v-56zM844 610v13q0 203 -74 305t-244 102q-111 0 -183 -51t-106 -143t-34 -215v-11h641z" />
    <glyph glyph-name="f" unicode="f" horiz-adv-x="772" 
d="M700 1479q0 -27 -43 -27h-102q-50 0 -80.5 -15t-45.5 -51t-15 -96v-190h243q18 0 28.5 -9t10.5 -24v-18q0 -33 -39 -33h-243v-977q0 -16 -11.5 -27.5t-25.5 -11.5h-15q-15 0 -26.5 11.5t-11.5 27.5v977h-203q-39 0 -39 33v18q0 15 11 24t28 9h203v190q0 128 58.5 185
t172.5 57q67 0 107 -6q38 -5 38 -33v-14z" />
    <glyph glyph-name="g" unicode="g" horiz-adv-x="1094" 
d="M1001 1044q0 -16 -11 -24t-27 -8h-107q113 -91 113 -254v-17q0 -157 -98 -245t-326 -88q-77 0 -132.5 11t-117.5 36q-70 -31 -70 -88q0 -49 60 -64l368 -96q178 -45 253 -102t75 -175v-18q0 -318 -434 -318q-225 0 -329.5 85.5t-104.5 232.5v18q0 98 47 178.5t106 116.5
l-14 4q-54 17 -81.5 53t-27.5 85q0 40 22 76t64 55q-106 87 -106 243v17q0 89 35 165.5t129 126.5t258 50h418q17 0 27.5 -9t10.5 -24v-23zM881 741v17q0 78 -30 137t-104.5 93t-201.5 34q-192 0 -262 -72t-70 -192v-17q0 -60 27 -118t101.5 -98t203.5 -40q127 0 202.5 33
t104.5 89t29 134zM891 -88v18q0 59 -20 91.5t-74.5 56t-163.5 51.5l-283 74q-73 -48 -111 -112t-38 -161v-18q0 -58 18 -102t57.5 -74.5t107 -48t163.5 -17.5q193 0 268.5 60.5t75.5 181.5z" />
    <glyph glyph-name="h" unicode="h" horiz-adv-x="1034" 
d="M901 39q0 -39 -35 -39h-20q-15 0 -24 11.5t-9 27.5v678q0 156 -72 234.5t-231 78.5q-152 0 -277 -37v-954q0 -16 -9.5 -27.5t-24.5 -11.5h-21q-15 0 -25 12t-10 27v1444q0 15 10 27t25 12h21q15 0 24.5 -11t9.5 -28v-410q61 17 135.5 27t141.5 10q204 0 297.5 -104
t93.5 -289v-678z" />
    <glyph glyph-name="i" unicode="i" horiz-adv-x="418" 
d="M254 1341q0 -16 -11.5 -27t-27.5 -11h-12q-16 0 -27.5 11.5t-11.5 26.5v152q0 15 12 27t27 12h12q15 0 27 -11t12 -28v-152zM254 39q0 -16 -12 -27.5t-27 -11.5h-12q-15 0 -27 12t-12 27v1022q0 15 12 27t27 12h12q15 0 27 -11t12 -28v-1022z" />
    <glyph glyph-name="j" unicode="j" horiz-adv-x="418" 
d="M254 1341q0 -16 -11.5 -27t-27.5 -11h-12q-16 0 -27.5 11.5t-11.5 26.5v152q0 15 12 27t27 12h12q15 0 27 -11t12 -28v-152zM254 -176q0 -127 -51.5 -175t-159.5 -48q-39 0 -86 6q-21 3 -28 9.5t-7 18.5v19q0 24 43 24h78q45 0 71.5 11t38 41.5t11.5 93.5v1237q0 17 9 28
t24 11h22q35 0 35 -39v-1237z" />
    <glyph glyph-name="k" unicode="k" horiz-adv-x="909" 
d="M829 20q0 -14 -10.5 -23t-27.5 -9q-37 0 -62 24l-496 531v-504q0 -16 -11.5 -27.5t-26.5 -11.5h-13q-15 0 -27 12t-12 27v1444q0 15 12 27t27 12h13q15 0 26.5 -11.5t11.5 -27.5v-862l504 471q23 18 49 18q19 0 30 -11t11 -26q0 -18 -14 -31l-502 -458l504 -533
q14 -17 14 -31z" />
    <glyph glyph-name="l" unicode="l" horiz-adv-x="418" 
d="M254 39q0 -17 -10 -28t-25 -11h-20q-15 0 -25 12t-10 27v1444q0 15 10 27t25 12h20q15 0 25 -11t10 -28v-1444z" />
    <glyph glyph-name="m" unicode="m" horiz-adv-x="1528" 
d="M1384 39q0 -16 -9 -27.5t-25 -11.5h-21q-35 0 -35 39v733q0 141 -60.5 199.5t-178.5 58.5q-67 0 -139.5 -19t-137.5 -50q31 -78 31 -181v-741q0 -39 -31 -39h-30q-29 0 -29 39v741q0 250 -193 250q-111 0 -293 -86v-905q0 -39 -30 -39h-29q-31 0 -31 39v1020
q0 16 11 28.5t26 12.5h17q16 0 26 -11.5t10 -29.5v-37q76 38 157.5 63t154.5 25q124 0 194 -84q177 84 330 84q91 0 161.5 -35t112 -111.5t41.5 -191.5v-733z" />
    <glyph glyph-name="n" unicode="n" horiz-adv-x="1067" 
d="M924 39q0 -16 -11.5 -27.5t-27.5 -11.5h-15q-15 0 -25.5 11.5t-10.5 27.5v680q0 164 -75 237.5t-202 73.5q-74 0 -157.5 -22t-166.5 -62v-907q0 -16 -11.5 -27.5t-26.5 -11.5h-13q-15 0 -27 12t-12 27v1020q0 16 11 28.5t26 12.5h17q16 0 26 -11.5t10 -29.5v-33
q176 84 330 84q80 0 144 -21.5t113 -69t76.5 -121t27.5 -179.5v-680z" />
    <glyph glyph-name="o" unicode="o" horiz-adv-x="1069" 
d="M956 477q0 -154 -47 -264t-141.5 -167.5t-232.5 -57.5t-233 57.5t-142 167.5t-47 264v144q0 154 47 264t142 167.5t233 57.5t232.5 -57.5t141.5 -167.5t47 -264v-144zM866 477v144q0 128 -33.5 219.5t-106.5 140.5t-191 49t-191.5 -49t-107 -140.5t-33.5 -219.5v-144
q0 -197 79 -303t253 -106q118 0 191 49t106.5 139.5t33.5 220.5z" />
    <glyph glyph-name="p" unicode="p" horiz-adv-x="1032" 
d="M920 477q0 -242 -101.5 -365.5t-300.5 -123.5q-148 0 -285 30v-378q0 -17 -9.5 -28t-24.5 -11h-21q-15 0 -25 12t-10 27v1392q0 18 6 26t25 13q185 39 344 39q138 0 227.5 -61.5t132 -173t42.5 -263.5v-135zM829 477v135q0 208 -72 313t-239 105q-72 0 -141.5 -7
t-143.5 -19v-910q127 -26 285 -26q112 0 180.5 45.5t99.5 135t31 228.5z" />
    <glyph glyph-name="q" unicode="q" horiz-adv-x="1032" 
d="M889 -360q0 -15 -10 -27t-25 -12h-20q-15 0 -25 12t-10 27v378q-137 -30 -285 -30q-133 0 -222.5 55t-134 164t-44.5 270v135q0 152 42.5 263.5t131.5 173t227 61.5q159 0 344 -39q19 -4 25 -11.5t6 -27.5v-1392zM799 94v910q-74 12 -143 19t-142 7q-166 0 -238.5 -105.5
t-72.5 -312.5v-135q0 -99 17.5 -176t54.5 -129.5t97 -78t142 -25.5q158 0 285 26z" />
    <glyph glyph-name="r" unicode="r" horiz-adv-x="633" 
d="M573 1063q0 -33 -55 -33q-135 0 -285 -94v-897q0 -16 -11.5 -27.5t-26.5 -11.5h-13q-15 0 -27 12t-12 27v1020q0 16 11 28.5t26 12.5h17q16 0 26 -11.5t10 -29.5v-43q78 50 144.5 72t140.5 22q55 0 55 -31v-16z" />
    <glyph glyph-name="s" unicode="s" horiz-adv-x="901" 
d="M799 272q0 -152 -97.5 -218t-257.5 -66q-60 0 -148 8.5t-149 19.5q-45 11 -45 33v23q0 28 33 28h12q198 -32 302 -32q124 0 192 44t68 160q0 63 -44 108.5t-173 115.5l-132 71q-86 47 -138 86.5t-80.5 88.5t-28.5 116q0 68 25.5 118.5t68 78.5t100.5 41.5t119 13.5
q136 0 293 -18q43 -7 43 -35v-17q0 -32 -37 -32h-6q-194 22 -285 22q-113 0 -172 -35.5t-59 -136.5q0 -64 46.5 -109t151.5 -104l138 -76q142 -78 201 -139t59 -158z" />
    <glyph glyph-name="t" unicode="t" horiz-adv-x="778" 
d="M696 27q0 -28 -34 -33q-46 -6 -107 -6q-117 0 -174 48.5t-57 172.5v807h-203q-39 0 -39 33v20q0 31 39 31h203v211q0 39 34 39h23q14 0 23.5 -11t9.5 -28v-211h243q39 0 39 -31v-20q0 -33 -39 -33h-243v-807q0 -86 33.5 -113.5t107.5 -27.5h98q43 0 43 -29v-12z" />
    <glyph glyph-name="u" unicode="u" horiz-adv-x="1067" 
d="M924 41q0 -17 -11 -29t-26 -12h-17q-16 0 -26 12t-10 29v33q-82 -39 -166.5 -61.5t-163.5 -22.5q-102 0 -183.5 40t-129.5 127.5t-48 223.5v680q0 16 11.5 27.5t27.5 11.5h15q14 0 25 -12t11 -27v-680q0 -163 74.5 -237t198.5 -74h4q144 0 324 84v907q0 15 12 27t26 12
h13q15 0 27 -12t12 -27v-1020z" />
    <glyph glyph-name="v" unicode="v" horiz-adv-x="983" 
d="M903 1069q0 -14 -2 -20l-268 -932q-21 -77 -54.5 -103t-84.5 -26q-50 0 -85.5 26t-58.5 103l-268 932q-2 6 -2 16q0 35 33 35h20q27 0 37 -37l262 -924q23 -73 62 -73q19 0 31.5 15t25.5 58l262 924q10 37 37 37h24q29 0 29 -31z" />
    <glyph glyph-name="w" unicode="w" horiz-adv-x="1540" 
d="M1440 1061q0 -3 -0.5 -5t-1.5 -5l-226 -953q-9 -39 -22 -63.5t-33 -35.5t-51 -11t-51 13t-31.5 38t-22.5 65l-217 779q-4 18 -12 18h-2h-2q-7 0 -12 -18l-217 -779q-17 -62 -37.5 -89t-67.5 -27q-31 0 -51 11t-33 35.5t-22 63.5l-226 953q0 4 -0.5 6t-1.5 4
q0 16 11.5 27.5t27.5 11.5h13q24 0 32 -29l222 -952q10 -51 24 -51h4q13 0 27 49l221 790q19 74 88 74t88 -74l221 -790q15 -49 27 -49h4q14 0 25 51l221 952q8 29 33 29h12q16 0 27.5 -11.5t11.5 -27.5z" />
    <glyph glyph-name="x" unicode="x" horiz-adv-x="1010" 
d="M932 29q0 -29 -29 -29h-16q-28 0 -39 16l-340 476l-334 -476q-12 -16 -22 -16h-35q-29 0 -29 25q0 15 10 28l361 510l-348 488q-9 11 -9 22q0 27 37 27h13q15 0 25 -5.5t13 -11.5l324 -450l313 446q15 21 39 21h19q30 0 30 -25q0 -12 -14 -35l-338 -481l363 -508
q6 -9 6 -22z" />
    <glyph glyph-name="y" unicode="y" horiz-adv-x="995" 
d="M915 1065q0 -10 -2 -16l-335 -1164q-31 -109 -72 -171t-101.5 -87.5t-158.5 -25.5q-53 0 -127 12q-41 7 -41 29v22q0 29 31 29h12q93 -12 133 -12q110 0 159 45t85 178l26 96h-28q-51 0 -78 22.5t-47 92.5l-277 936q-2 4 -2 14q0 35 35 35h18q10 0 20 -9t13 -20l277 -942
q13 -45 47 -45h47l280 989q10 27 37 27h19q30 0 30 -35z" />
    <glyph glyph-name="z" unicode="z" horiz-adv-x="913" 
d="M831 33q0 -16 -11 -24.5t-29 -8.5h-594q-57 0 -86 24t-29 60q0 45 24 76l613 817q8 12 8 20q0 19 -29 19h-538q-41 0 -41 31v20q0 14 11.5 23.5t29.5 9.5h540q50 0 82.5 -24t32.5 -64q0 -49 -33 -92l-594 -797q-12 -20 -12 -25q0 -14 21 -14h594q40 0 40 -31v-20z" />
    <glyph glyph-name="braceleft" unicode="{" horiz-adv-x="614" 
d="M573 -365q0 -15 -10.5 -24.5t-27.5 -9.5h-95q-96 0 -150.5 20.5t-78 69t-23.5 135.5v418q0 78 -9.5 123t-36 81t-81.5 76v74q55 40 81.5 76t36 81.5t9.5 123.5v417q0 128 55.5 177t196.5 49h95q17 0 27.5 -9.5t10.5 -25.5v-17q0 -15 -10 -23.5t-28 -8.5h-95
q-102 0 -131.5 -26t-29.5 -116v-417q0 -114 -27.5 -186.5t-104.5 -133.5q75 -59 103.5 -131.5t28.5 -183.5v-418q0 -60 12 -90t44 -40.5t105 -10.5h95q18 0 28 -9t10 -24v-17z" />
    <glyph glyph-name="bar" unicode="|" horiz-adv-x="459" 
d="M274 -360q0 -17 -9.5 -28t-24.5 -11h-21q-15 0 -25 12t-10 27v1843q0 15 10 27t25 12h21q15 0 24.5 -11t9.5 -28v-1843z" />
    <glyph glyph-name="braceright" unicode="}" horiz-adv-x="614" 
d="M553 524q-55 -40 -81.5 -76t-36 -81t-9.5 -123v-418q0 -129 -53.5 -177t-198.5 -48h-94q-39 0 -39 34v17q0 15 11 24t28 9h94q73 0 105.5 10.5t44.5 40.5t12 90v418q0 111 28.5 183.5t102.5 131.5q-52 42 -80.5 87.5t-39.5 100.5t-11 132v417q0 90 -30 116t-132 26h-94
q-39 0 -39 32v17q0 16 11.5 25.5t27.5 9.5h94q94 0 149 -21t79 -69.5t24 -135.5v-417q0 -78 9.5 -123.5t36 -81.5t81.5 -76v-74z" />
    <glyph glyph-name="asciitilde" unicode="~" 
d="M975 940q0 -108 -48.5 -160.5t-135.5 -52.5q-89 0 -158 66l-117 112q-34 34 -61 53t-52 19q-110 0 -110 -139v-62q0 -23 -4 -31t-19 -8h-30q-27 0 -27 39v62q0 107 50 162t138 55q85 0 158 -70l117 -113q68 -63 112 -63q56 0 81.5 29t25.5 102v64q0 20 4 28t19 8h30
q16 0 21.5 -7.5t5.5 -28.5v-64z" />
    <glyph glyph-name="uni00A0" unicode="&#xa0;" 
 />
    <glyph glyph-name="exclamdown" unicode="&#xa1;" horiz-adv-x="418" 
d="M254 920q0 -16 -12 -27.5t-27 -11.5h-12q-15 0 -27 12t-12 27v151q0 16 11.5 27.5t27.5 11.5h12q16 0 27.5 -10.5t11.5 -28.5v-151zM254 -385q0 -17 -12 -28t-27 -11h-12q-15 0 -27 12t-12 27v1090q0 15 11.5 26.5t27.5 11.5h12q16 0 27.5 -10.5t11.5 -27.5v-1090z" />
    <glyph glyph-name="cent" unicode="&#xa2;" 
d="M885 43q0 -18 -9 -26t-30 -11q-138 -16 -205 -18v-207q0 -17 -9 -28t-24 -11h-20q-15 0 -24 11t-9 28v209q-125 10 -206 77.5t-118.5 174.5t-37.5 241v138q0 96 21 183t64.5 152t112.5 105t164 47v209q0 17 9 28t24 11h20q15 0 24 -11t9 -28v-207q67 -2 205 -18
q39 -6 39 -37v-15q0 -28 -33 -28h-10q-145 18 -244 18q-167 0 -241 -106.5t-74 -302.5v-138q0 -196 74.5 -305.5t240.5 -109.5q99 0 244 18h10q33 0 33 -29v-14z" />
    <glyph glyph-name="sterling" unicode="&#xa3;" 
d="M1044 33q0 -33 -40 -33h-762q-21 0 -31 13t-10 28q0 13 6 22q45 77 64.5 138t19.5 145v410h-109q-37 0 -37 35v18q0 15 12.5 25t28.5 10h105v151q0 175 38 293t128 181t241 63q160 0 303 -19q39 -5 39 -32v-17q0 -30 -30 -30h-13q-144 16 -299 16q-126 0 -195 -54
t-93.5 -151t-24.5 -250v-151h502q15 0 26 -10t11 -25v-18q0 -15 -12.5 -25t-28.5 -10h-498v-410q0 -147 -66 -262h685q40 0 40 -29v-22z" />
    <glyph glyph-name="currency" unicode="&#xa4;" 
d="M1075 330q0 -15 -10 -25l-14 -14q-12 -10 -23 -10q-15 0 -31 14l-166 168q-105 -84 -239 -84t-238 82l-164 -164q-14 -14 -30 -14q-13 0 -23 10l-14 14q-10 10 -10 23q0 16 14 30l162 162q-86 107 -86 244q0 135 84 240l-160 159q-14 16 -14 31q0 13 10 25l14 14
q8 8 21 8q18 0 32 -14l160 -160q107 84 240 84q135 0 244 -86l163 164q16 14 31 14q11 0 23 -10l14 -14q10 -12 10 -23q0 -15 -14 -31l-164 -163q40 -50 61 -113t21 -125q0 -133 -84 -240l166 -166q14 -14 14 -30zM895 766q0 64 -23.5 118t-65 95.5t-97 64.5t-117.5 23
q-81 0 -151.5 -40t-111 -109t-40.5 -152q0 -82 40.5 -152t110.5 -110.5t152 -40.5t152 40.5t110.5 110.5t40.5 152z" />
    <glyph glyph-name="yen" unicode="&#xa5;" 
d="M1096 520q0 -14 -12 -23.5t-29 -9.5h-416v-448q0 -17 -10 -28t-25 -11h-20q-15 0 -25 12t-10 27v448h-420q-37 0 -37 33v19q0 14 12.5 23t28.5 9h416v62l-125 248h-295q-37 0 -37 32v19q0 14 12 23.5t29 9.5h248l-252 501q-8 15 -8 27q0 29 37 29h24q9 0 18.5 -8
t14.5 -17l381 -758l379 758q13 25 33 25h22q37 0 37 -29q0 -12 -8 -27l-252 -501h252q17 0 27 -9.5t10 -23.5v-19q0 -14 -12 -23t-29 -9h-291l-125 -248v-62h420q37 0 37 -32v-19z" />
    <glyph glyph-name="brokenbar" unicode="&#xa6;" horiz-adv-x="459" 
d="M274 739q0 -16 -9.5 -27.5t-24.5 -11.5h-21q-15 0 -25 12t-10 27v713q0 15 9.5 27t25.5 12h21q16 0 25 -11t9 -28v-713zM274 -393q0 -17 -9.5 -28t-24.5 -11h-21q-15 0 -25 12t-10 27v712q0 15 9.5 27t25.5 12h21q16 0 25 -11t9 -28v-712z" />
    <glyph glyph-name="section" unicode="&#xa7;" horiz-adv-x="1067" 
d="M961 -59q0 -171 -103 -277t-373 -106q-149 0 -313 16q-13 1 -25 12.5t-12 26.5v12q0 35 43 35h4q27 -2 70 -5t79 -5.5t74.5 -3.5t79.5 -2q148 0 233 35t118.5 99.5t33.5 162.5q0 70 -23 118t-79 95t-174 120l-205 125q-94 59 -144.5 99t-81 80t-44 86.5t-13.5 105.5
q0 141 72 219q-39 45 -55.5 94.5t-16.5 116.5q0 114 48 187.5t154 109t270 35.5q74 0 168.5 -4t142.5 -10q16 -2 25.5 -14t9.5 -25v-17q0 -32 -39 -32q-15 0 -131 8t-176 8q-137 0 -220 -26t-122 -80t-39 -140q0 -60 21.5 -103.5t69 -84t158.5 -109.5l201 -123
q131 -80 197 -142.5t91.5 -125t25.5 -141.5q0 -140 -60 -228q60 -80 60 -202zM870 371q0 101 -53.5 166t-222.5 168l-205 124q-80 49 -141 97q-51 -57 -51 -156q0 -60 21.5 -103.5t69 -84t158.5 -109.5l201 -123q131 -79 191 -137q32 65 32 158z" />
    <glyph glyph-name="dieresis" unicode="&#xa8;" horiz-adv-x="676" 
d="M537 1354q0 -16 -11.5 -27.5t-27.5 -11.5h-13q-16 0 -27.5 11.5t-11.5 27.5v151q0 15 11.5 27t27.5 12h13q17 0 28 -12t11 -27v-151zM229 1354q0 -17 -11.5 -28t-27.5 -11h-12q-16 0 -27.5 11.5t-11.5 27.5v151q0 15 11.5 27t27.5 12h12q17 0 28 -11t11 -28v-151z" />
    <glyph glyph-name="copyright" unicode="&#xa9;" horiz-adv-x="1495" 
d="M1403 766q0 -176 -88 -326.5t-239.5 -238.5t-330.5 -88q-178 0 -328.5 87.5t-237.5 237.5t-87 328q0 177 87.5 329.5t238 241t327.5 88.5q137 0 255.5 -50.5t209.5 -142t142 -211.5t51 -255zM1323 766q0 157 -77 290t-210.5 211.5t-290.5 78.5q-156 0 -289.5 -78.5
t-210.5 -211.5t-77 -290t77 -289.5t210 -209.5t290 -77q118 0 223.5 44t185.5 123.5t124.5 185t44.5 223.5zM952 375q0 -28 -32 -33q-93 -12 -199 -12q-126 0 -209.5 87.5t-83.5 280.5v148q0 193 83 280.5t210 87.5q106 0 199 -12q32 -5 32 -31v-16q0 -25 -28 -25h-9
q-90 11 -194 11q-97 0 -156 -70.5t-59 -224.5v-148q0 -154 59 -224.5t156 -70.5q81 0 194 11h5q32 0 32 -29v-10z" />
    <glyph glyph-name="ordfeminine" unicode="&#xaa;" horiz-adv-x="549" 
d="M471 961q0 -28 -22 -33q-80 -23 -166 -23q-81 0 -131.5 20t-72.5 60t-22 105v14q0 92 62.5 135t208.5 43h75v29q0 83 -26.5 116t-97.5 33q-70 0 -152 -10h-4q-31 0 -31 27v6q0 24 33 28q71 11 154 11q107 0 149.5 -55.5t42.5 -155.5v-350zM403 979v240h-73
q-84 0 -127 -11t-61.5 -36t-18.5 -68v-14q0 -67 31.5 -95t128.5 -28q48 0 120 12z" />
    <glyph glyph-name="guillemotleft" unicode="&#xab;" horiz-adv-x="1096" 
d="M987 188q0 -12 -10 -22l-14 -14q-9 -9 -21 -9t-33 15l-364 334q-29 24 -29 59q0 32 29 59l364 334q19 14 33 14q12 0 21 -8l14 -14q10 -10 10 -23q0 -17 -16 -30l-363 -332l363 -332q16 -13 16 -31zM516 188q0 -12 -10 -22l-14 -14q-9 -9 -21 -9t-33 15l-364 334
q-29 24 -29 59q0 32 29 59l364 334q19 14 33 14q12 0 21 -8l14 -14q10 -10 10 -23q0 -17 -16 -30l-363 -332l363 -332q16 -13 16 -31z" />
    <glyph glyph-name="logicalnot" unicode="&#xac;" 
d="M1010 594q0 -18 -9 -29.5t-24 -11.5h-21q-32 0 -32 41v369h-703q-41 0 -41 32v21q0 15 12.5 24t28.5 9h756q14 0 23.5 -11t9.5 -26v-418z" />
    <glyph glyph-name="uni00AD" unicode="&#xad;" horiz-adv-x="705" 
d="M598 559q0 -15 -10.5 -24t-28.5 -9h-414q-17 0 -28 9t-11 24v16q0 17 11 27t28 10h414q17 0 28 -10t11 -27v-16z" />
    <glyph glyph-name="registered" unicode="&#xae;" horiz-adv-x="1262" 
d="M1169 991q0 -108 -40.5 -205t-116.5 -173t-174 -117t-207 -41t-206.5 40.5t-174 117.5t-117.5 173t-41 205q0 110 41.5 207t117 173.5t173.5 117.5t207 41t207.5 -41t173.5 -117t116 -174t41 -207zM1098 991q0 126 -62.5 234t-170.5 170.5t-234 62.5q-127 0 -233.5 -62.5
t-169 -170.5t-62.5 -234q0 -127 62 -234t169 -169t234 -62q126 0 234 62.5t170.5 169t62.5 233.5zM874 676q0 -27 -28 -27h-10q-18 0 -27 15l-186 284q-8 1 -14 1.5t-17 0.5h-100v-268q0 -11 -9 -22t-22 -11h-8q-12 0 -21.5 11t-9.5 22v631q0 11 8.5 21t20.5 12q60 4 141 4
q131 0 194.5 -45.5t63.5 -153.5v-4q0 -81 -36.5 -126t-113.5 -63l168 -260q6 -9 6 -22zM780 1147v4q0 73 -43 102t-145 29q-72 0 -100 -2v-262q33 0 54.5 -0.5t45.5 -1.5q104 0 146 28.5t42 102.5z" />
    <glyph glyph-name="uni00AF" unicode="&#xaf;" horiz-adv-x="952" 
d="M1014 1670q0 -15 -12.5 -24t-28.5 -9h-993q-18 0 -29.5 9t-11.5 24v21q0 32 41 32h993q41 0 41 -32v-21z" />
    <glyph glyph-name="degree" unicode="&#xb0;" horiz-adv-x="678" 
d="M616 1255q0 -72 -37 -136.5t-101 -102t-138 -37.5t-139 37.5t-102.5 101.5t-37.5 137q0 74 37.5 138t102.5 101.5t139 37.5t138 -37.5t101 -102t37 -137.5zM539 1255q0 54 -27 100t-73 73.5t-99 27.5q-54 0 -100 -27t-72.5 -73.5t-26.5 -100.5q0 -80 59 -139t140 -59
q52 0 98.5 27t73.5 72.5t27 98.5z" />
    <glyph glyph-name="plusminus" unicode="&#xb1;" 
d="M1051 791q0 -33 -41 -33h-373v-371q0 -41 -33 -41h-20q-33 0 -33 41v371h-371q-41 0 -41 33v20q0 33 41 33h371v373q0 40 33 40h20q33 0 33 -40v-373h373q41 0 41 -33v-20zM1051 33q0 -33 -41 -33h-830q-41 0 -41 33v20q0 33 41 33h830q41 0 41 -33v-20z" />
    <glyph glyph-name="twosuperior" unicode="&#xb2;" horiz-adv-x="676" 
d="M582 1335q0 -66 -38 -123.5t-130 -119.5l-115 -78q-57 -39 -84.5 -73.5t-35 -71.5t-7.5 -95v-14h383q23 0 23 -17v-43q0 -16 -23 -16h-438q-23 0 -23 23v67q0 105 33 170.5t141 138.5l115 78q72 49 93.5 84t21.5 90q0 47 -17 72.5t-58.5 36t-117.5 10.5q-81 0 -172 -16
h-6q-18 0 -18 16v43q0 14 22 19q76 16 174 16q134 0 205.5 -45t71.5 -152z" />
    <glyph glyph-name="threesuperior" unicode="&#xb3;" horiz-adv-x="676" 
d="M578 922q0 -134 -77 -186t-218 -52q-78 0 -164 16q-6 1 -13.5 7.5t-7.5 13.5v37q0 18 17 18h6q82 -14 162 -14q117 0 164 34.5t47 125.5v22q0 59 -32.5 103.5t-113.5 44.5h-211q-20 0 -20 20v37q0 20 20 20h211q146 0 146 144v14q0 73 -47.5 100t-163.5 27
q-68 0 -162 -16h-6q-17 0 -17 18v39q0 15 21 21q86 16 164 16q295 0 295 -205v-14q0 -55 -24 -104.5t-77 -82.5q37 -21 59.5 -52.5t32 -66t9.5 -63.5v-22z" />
    <glyph glyph-name="acute" unicode="&#xb4;" horiz-adv-x="676" 
d="M578 1579q0 -7 -9 -16l-219 -263q-18 -22 -24.5 -28t-20.5 -6h-45q-18 0 -18 14q0 12 8 20l205 263q25 30 47 30h53q23 0 23 -14z" />
    <glyph glyph-name="uni00B5" unicode="&#xb5;" horiz-adv-x="1067" 
d="M924 78q0 -12 -8 -22.5t-19 -14.5q-80 -26 -173.5 -39.5t-176.5 -13.5q-207 0 -314 118v-466q0 -17 -9.5 -28t-24.5 -11h-21q-15 0 -25 12t-10 27v1421q0 16 11.5 27.5t27.5 11.5h15q14 0 25 -12t11 -27v-682q0 -155 77.5 -233t236.5 -78q67 0 150 11.5t137 26.5v955
q0 15 12 27t26 12h13q15 0 27 -12t12 -27v-983z" />
    <glyph glyph-name="paragraph" unicode="&#xb6;" horiz-adv-x="1227" 
d="M1083 -360q0 -17 -9.5 -28t-24.5 -11h-21q-15 0 -25 12t-10 27v1798h-114v-1798q0 -15 -10 -27t-25 -12h-21q-15 0 -25 12t-10 27v923h-223q-215 0 -344 120t-129 337v45q0 217 128.5 337t344.5 120h486q32 0 32 -39v-1843z" />
    <glyph glyph-name="uni00B7" unicode="&#xb7;" horiz-adv-x="344" 
d="M217 737q0 -17 -11.5 -28t-27.5 -11h-12q-16 0 -27.5 11.5t-11.5 27.5v152q0 15 12 27t27 12h12q15 0 27 -11t12 -28v-152z" />
    <glyph glyph-name="cedilla" unicode="&#xb8;" horiz-adv-x="676" 
d="M432 -78q0 -8 -8 -16l-219 -262q-18 -22 -24.5 -28.5t-20.5 -6.5h-45q-19 0 -19 14q0 13 8 21l205 262q20 22 26.5 26.5t20.5 4.5h54q22 0 22 -15z" />
    <glyph glyph-name="onesuperior" unicode="&#xb9;" horiz-adv-x="559" 
d="M354 705q0 -21 -18 -21h-43q-19 0 -19 21v733l-157 -70q-12 -4 -17 -4q-8 0 -8 10v47q0 13 14 19l179 82h47q10 0 16 -6t6 -15v-796z" />
    <glyph glyph-name="ordmasculine" unicode="&#xba;" horiz-adv-x="588" 
d="M526 1176q0 -128 -58 -199.5t-173 -71.5q-114 0 -174 71.5t-60 199.5v75q0 128 60 199.5t174 71.5q115 0 173 -71t58 -200v-75zM459 1176v75q0 209 -164 209q-166 0 -166 -209v-75q0 -209 166 -209q164 0 164 209z" />
    <glyph glyph-name="guillemotright" unicode="&#xbb;" horiz-adv-x="1096" 
d="M1051 551q0 -33 -29 -59l-365 -334q-19 -15 -32 -15t-21 9l-14 14q-10 10 -10 22q0 18 16 31l362 332l-362 332q-16 13 -16 30q0 13 10 23l14 14q8 8 21 8q15 0 32 -14l365 -334q29 -29 29 -59zM580 551q0 -33 -29 -59l-365 -334q-19 -15 -32 -15t-21 9l-14 14
q-10 10 -10 22q0 18 16 31l362 332l-362 332q-16 13 -16 30q0 13 10 23l14 14q8 8 21 8q15 0 32 -14l365 -334q29 -29 29 -59z" />
    <glyph glyph-name="onequarter" unicode="&#xbc;" horiz-adv-x="1473" 
d="M1380 248q0 -19 -22 -19h-94v-206q0 -23 -19 -23h-45q-18 0 -18 23v206h-297q-33 0 -51.5 21t-18.5 47q0 36 12 55l316 463q19 29 63 29q22 0 40 -14t18 -42v-487h94q10 0 16 -4.5t6 -13.5v-35zM1114 1511q0 -10 -12 -28l-856 -1456q-13 -23 -21 -31t-22 -8h-60
q-14 0 -14 10t12 29l856 1456q18 28 24.5 33.5t18.5 5.5h58q16 0 16 -11zM354 705q0 -21 -18 -21h-43q-19 0 -19 21v733l-157 -70q-12 -4 -17 -4q-8 0 -8 10v47q0 13 14 19l179 82h47q10 0 16 -6t6 -15v-796zM1182 301v416q0 10 -2 10q-1 0 -11 -12l-260 -371
q-12 -16 -12 -27q0 -16 27 -16h258z" />
    <glyph glyph-name="onehalf" unicode="&#xbd;" horiz-adv-x="1466" 
d="M1374 645q0 -65 -37 -119.5t-131 -117.5l-114 -78q-57 -39 -84.5 -73.5t-35 -71.5t-7.5 -95v-14h383q22 0 22 -17v-43q0 -16 -22 -16h-439q-22 0 -22 23v67q0 73 12.5 120.5t48.5 92t113 96.5l115 78q53 37 75.5 59t30.5 47.5t8 61.5q0 69 -40 94t-152 25q-81 0 -172 -16
h-6q-19 0 -19 16v43q0 14 23 18q75 17 174 17q134 0 205 -45t71 -152zM1114 1511q0 -10 -12 -28l-856 -1456q-13 -23 -21 -31t-22 -8h-60q-14 0 -14 10t12 29l856 1456q18 28 24.5 33.5t18.5 5.5h58q16 0 16 -11zM354 705q0 -21 -18 -21h-43q-19 0 -19 21v733l-157 -70
q-12 -4 -17 -4q-8 0 -8 10v47q0 13 14 19l179 82h47q10 0 16 -6t6 -15v-796z" />
    <glyph glyph-name="threequarters" unicode="&#xbe;" horiz-adv-x="1579" 
d="M1487 248q0 -19 -23 -19h-94v-206q0 -23 -18 -23h-45q-19 0 -19 23v206h-297q-33 0 -51 21t-18 47q0 36 12 55l315 463q19 29 64 29q23 0 40 -14.5t17 -41.5v-487h94q23 0 23 -18v-35zM1303 1511q0 -8 -13 -28l-856 -1456q-14 -25 -21.5 -32t-21.5 -7h-59q-15 0 -15 10
q0 8 13 29l856 1456q13 23 21 31t22 8h57q17 0 17 -11zM575 922q0 -133 -76 -185.5t-218 -52.5q-78 0 -164 16q-21 4 -21 21v37q0 18 17 18h6q82 -14 162 -14q117 0 164 34.5t47 125.5v22q0 58 -31 103t-113 45h-213q-20 0 -20 20v37q0 20 20 20h213q144 0 144 144v14
q0 73 -47.5 100t-163.5 27q-68 0 -162 -16h-6q-17 0 -17 18v39q0 15 21 21q86 16 164 16q141 0 217.5 -46.5t76.5 -158.5v-14q0 -127 -98 -187q53 -30 75.5 -81t22.5 -101v-22zM1288 301v416q0 10 -2 10t-10 -12l-260 -371q-12 -16 -12 -27q0 -16 26 -16h258z" />
    <glyph glyph-name="questiondown" unicode="&#xbf;" horiz-adv-x="868" 
d="M625 920q0 -15 -12 -27t-27 -12h-13q-14 0 -26 12t-12 27v151q0 16 11.5 27.5t26.5 11.5h13q16 0 27.5 -11.5t11.5 -27.5v-151zM797 -381q0 -34 -35 -39q-118 -14 -244 -14q-170 0 -282.5 70.5t-112.5 226.5v16q0 65 20 118.5t66.5 115t138.5 153.5l62 62q54 54 79 88.5
t34 70t9 95.5v123q0 17 11.5 27.5t27.5 10.5h13q16 0 27.5 -10.5t11.5 -27.5v-123q0 -100 -30.5 -164.5t-121.5 -155.5l-57 -57q-118 -118 -155.5 -183t-37.5 -143v-16q0 -77 32.5 -125t99 -70t165.5 -22q48 0 124 5t124 9h4q27 0 27 -25v-16z" />
    <glyph glyph-name="Agrave" unicode="&#xc0;" horiz-adv-x="1268" 
d="M1190 25q0 -31 -33 -31h-24q-26 0 -33 26l-172 555h-590l-168 -555q-9 -26 -33 -26h-26q-31 0 -31 33q0 12 2 18l420 1387q14 48 48.5 74t84.5 26q49 0 83.5 -25.5t47.5 -72.5l420 -1389q4 -12 4 -20zM905 666l-223 743q-12 41 -47 41q-37 0 -47 -39l-226 -745h543z
M735 1639q0 -14 -18 -14h-45q-13 0 -20 6t-25 28l-220 263q-8 8 -8 16q0 14 23 14h53q22 0 47 -30l205 -263q8 -8 8 -20z" />
    <glyph glyph-name="Aacute" unicode="&#xc1;" horiz-adv-x="1268" 
d="M1190 25q0 -31 -33 -31h-24q-26 0 -33 26l-172 555h-590l-168 -555q-9 -26 -33 -26h-26q-31 0 -31 33q0 12 2 18l420 1387q14 48 48.5 74t84.5 26q49 0 83.5 -25.5t47.5 -72.5l420 -1389q4 -12 4 -20zM905 666l-223 743q-12 41 -47 41q-37 0 -47 -39l-226 -745h543z
M844 1940q0 -7 -9 -16l-219 -263q-18 -22 -24.5 -28t-20.5 -6h-45q-18 0 -18 14q0 12 8 20l205 263q25 30 47 30h53q23 0 23 -14z" />
    <glyph glyph-name="Acircumflex" unicode="&#xc2;" horiz-adv-x="1268" 
d="M1190 25q0 -31 -33 -31h-24q-26 0 -33 26l-172 555h-590l-168 -555q-9 -26 -33 -26h-26q-31 0 -31 33q0 12 2 18l420 1387q14 48 48.5 74t84.5 26q49 0 83.5 -25.5t47.5 -72.5l420 -1389q4 -12 4 -20zM905 666l-223 743q-12 41 -47 41q-37 0 -47 -39l-226 -745h543z
M934 1641q0 -14 -18 -14h-46q-11 0 -16.5 3.5t-13.5 13t-15 17.5l-192 232l-193 -232q-18 -22 -24.5 -28t-20.5 -6h-45q-18 0 -18 14q0 12 8 20l205 263q25 30 47 30h82q22 0 47 -30l205 -263q8 -8 8 -20z" />
    <glyph glyph-name="Atilde" unicode="&#xc3;" horiz-adv-x="1268" 
d="M1190 25q0 -31 -33 -31h-24q-26 0 -33 26l-172 555h-590l-168 -555q-9 -26 -33 -26h-26q-31 0 -31 33q0 12 2 18l420 1387q14 48 48.5 74t84.5 26q49 0 83.5 -25.5t47.5 -72.5l420 -1389q4 -12 4 -20zM905 666l-223 743q-12 41 -47 41q-37 0 -47 -39l-226 -745h543z
M973 1801q0 -92 -42 -139.5t-118 -47.5q-80 0 -137 53l-98 97q-28 28 -48.5 42.5t-49.5 14.5q-40 0 -62 -25t-22 -84v-53q0 -33 -21 -33h-35q-22 0 -22 33v53q0 91 42.5 139t119.5 48q78 0 135 -53l98 -97q59 -57 100 -57t61.5 23.5t20.5 85.5v53q0 33 21 33h35q22 0 22 -33
v-53z" />
    <glyph glyph-name="Adieresis" unicode="&#xc4;" horiz-adv-x="1268" 
d="M1190 25q0 -31 -33 -31h-24q-26 0 -33 26l-172 555h-590l-168 -555q-9 -26 -33 -26h-26q-31 0 -31 33q0 12 2 18l420 1387q14 48 48.5 74t84.5 26q49 0 83.5 -25.5t47.5 -72.5l420 -1389q4 -12 4 -20zM905 666l-223 743q-12 41 -47 41q-37 0 -47 -39l-226 -745h543z
M829 1706q0 -16 -11.5 -27.5t-27.5 -11.5h-13q-16 0 -27.5 11.5t-11.5 27.5v151q0 15 11.5 27t27.5 12h13q17 0 28 -12t11 -27v-151zM521 1706q0 -17 -11.5 -28t-27.5 -11h-12q-16 0 -27.5 11.5t-11.5 27.5v151q0 15 11.5 27t27.5 12h12q17 0 28 -11t11 -28v-151z" />
    <glyph glyph-name="Aring" unicode="&#xc5;" horiz-adv-x="1268" 
d="M1190 25q0 -31 -33 -31h-24q-26 0 -33 26l-172 555h-590l-168 -555q-9 -26 -33 -26h-26q-31 0 -31 33q0 12 2 18l420 1387q14 48 48.5 74t84.5 26q49 0 83.5 -25.5t47.5 -72.5l420 -1389q4 -12 4 -20zM905 666l-223 743q-12 41 -47 41q-37 0 -47 -39l-226 -745h543z
M823 1778q0 -79 -56 -135t-134 -56q-77 0 -134 57t-57 134q0 78 56 134t135 56q40 0 74 -14t61 -41t41 -61t14 -74zM752 1778q0 50 -35 84t-84 34q-50 0 -83.5 -34.5t-33.5 -83.5q0 -50 33.5 -84.5t83.5 -34.5q49 0 84 34t35 85z" />
    <glyph glyph-name="AE" unicode="&#xc6;" horiz-adv-x="1800" 
d="M1683 35q0 -16 -10.5 -25.5t-27.5 -9.5h-607q-88 0 -129 40t-41 126v409h-549l-167 -555q-11 -26 -33 -26h-27q-31 0 -31 33q0 12 2 18l420 1376q15 48 49.5 74.5t83.5 26.5h1029q17 0 27.5 -9.5t10.5 -25.5v-17q0 -15 -10 -23.5t-28 -8.5h-687v-596h687q18 0 28 -9
t10 -24v-21q0 -15 -10.5 -24.5t-27.5 -9.5h-687v-588q0 -44 16 -63t64 -19h607q18 0 28 -8.5t10 -24.5v-16zM868 666v772h-252q-36 0 -47 -39l-225 -733h524z" />
    <glyph glyph-name="Ccedilla" unicode="&#xc7;" horiz-adv-x="1100" 
d="M1018 43q0 -14 -12 -23.5t-27 -11.5q-177 -20 -354 -20q-103 0 -191 32t-159 107t-111.5 199.5t-40.5 298.5v270q0 175 40.5 299t111.5 199t159 107t191 32q195 0 354 -21q16 -2 27.5 -11t11.5 -23v-25q0 -25 -27 -25h-12q-156 19 -354 19q-187 0 -299.5 -133.5
t-112.5 -417.5v-270q0 -286 112.5 -418.5t299.5 -132.5q188 0 354 18h12q27 0 27 -24v-25zM733 -78q0 -8 -8 -16l-219 -262q-18 -22 -24.5 -28.5t-20.5 -6.5h-45q-19 0 -19 14q0 10 9 21l204 262q20 22 26.5 26.5t20.5 4.5h54q22 0 22 -15z" />
    <glyph glyph-name="Egrave" unicode="&#xc8;" horiz-adv-x="1092" 
d="M979 35q0 -35 -39 -35h-528q-83 0 -137 22.5t-82.5 72t-28.5 134.5v1063q0 125 62 177.5t186 52.5h528q16 0 27.5 -9.5t11.5 -25.5v-17q0 -32 -39 -32h-528q-82 0 -120 -29t-38 -117v-450h686q18 0 28.5 -9t10.5 -24v-21q0 -34 -39 -34h-686v-525q0 -89 38 -117t120 -28
h528q39 0 39 -33v-16zM715 1641q0 -14 -18 -14h-45q-13 0 -20 6t-25 28l-220 263q-8 8 -8 16q0 14 23 14h53q22 0 47 -30l205 -263q8 -8 8 -20z" />
    <glyph glyph-name="Eacute" unicode="&#xc9;" horiz-adv-x="1092" 
d="M979 35q0 -35 -39 -35h-528q-83 0 -137 22.5t-82.5 72t-28.5 134.5v1063q0 125 62 177.5t186 52.5h528q16 0 27.5 -9.5t11.5 -25.5v-17q0 -32 -39 -32h-528q-82 0 -120 -29t-38 -117v-450h686q18 0 28.5 -9t10.5 -24v-21q0 -34 -39 -34h-686v-525q0 -89 38 -117t120 -28
h528q39 0 39 -33v-16zM825 1940q0 -7 -9 -16l-219 -263q-18 -22 -24.5 -28t-20.5 -6h-45q-18 0 -18 14q0 12 8 20l205 263q25 30 47 30h53q23 0 23 -14z" />
    <glyph glyph-name="Ecircumflex" unicode="&#xca;" horiz-adv-x="1092" 
d="M979 35q0 -35 -39 -35h-528q-83 0 -137 22.5t-82.5 72t-28.5 134.5v1063q0 125 62 177.5t186 52.5h528q16 0 27.5 -9.5t11.5 -25.5v-17q0 -32 -39 -32h-528q-82 0 -120 -29t-38 -117v-450h686q18 0 28.5 -9t10.5 -24v-21q0 -34 -39 -34h-686v-525q0 -89 38 -117t120 -28
h528q39 0 39 -33v-16zM876 1641q0 -14 -18 -14h-46q-11 0 -16.5 3.5t-13.5 13t-15 17.5l-192 232l-193 -232q-18 -22 -24.5 -28t-20.5 -6h-45q-18 0 -18 14q0 12 8 20l205 263q25 30 47 30h82q22 0 47 -30l205 -263q8 -8 8 -20z" />
    <glyph glyph-name="Edieresis" unicode="&#xcb;" horiz-adv-x="1092" 
d="M979 35q0 -35 -39 -35h-528q-83 0 -137 22.5t-82.5 72t-28.5 134.5v1063q0 125 62 177.5t186 52.5h528q16 0 27.5 -9.5t11.5 -25.5v-17q0 -32 -39 -32h-528q-82 0 -120 -29t-38 -117v-450h686q18 0 28.5 -9t10.5 -24v-21q0 -34 -39 -34h-686v-525q0 -89 38 -117t120 -28
h528q39 0 39 -33v-16zM780 1704q0 -16 -11.5 -27.5t-27.5 -11.5h-13q-16 0 -27.5 11.5t-11.5 27.5v151q0 15 11.5 27t27.5 12h13q17 0 28 -12t11 -27v-151zM472 1704q0 -17 -11.5 -28t-27.5 -11h-12q-16 0 -27.5 11.5t-11.5 27.5v151q0 15 11.5 27t27.5 12h12q17 0 28 -11
t11 -28v-151z" />
    <glyph glyph-name="Igrave" unicode="&#xcc;" horiz-adv-x="459" 
d="M274 39q0 -16 -9.5 -27.5t-24.5 -11.5h-21q-15 0 -25 12t-10 27v1444q0 15 10 27t25 12h21q15 0 24.5 -11t9.5 -28v-1444zM326 1641q0 -14 -18 -14h-45q-13 0 -20 6t-25 28l-220 263q-8 8 -8 16q0 14 23 14h53q22 0 47 -30l205 -263q8 -8 8 -20z" />
    <glyph glyph-name="Iacute" unicode="&#xcd;" horiz-adv-x="459" 
d="M274 39q0 -16 -9.5 -27.5t-24.5 -11.5h-21q-15 0 -25 12t-10 27v1444q0 15 10 27t25 12h21q15 0 24.5 -11t9.5 -28v-1444zM469 1940q0 -7 -9 -16l-219 -263q-18 -22 -24.5 -28t-20.5 -6h-45q-18 0 -18 14q0 12 8 20l205 263q25 30 47 30h53q23 0 23 -14z" />
    <glyph glyph-name="Icircumflex" unicode="&#xce;" horiz-adv-x="459" 
d="M274 39q0 -16 -9.5 -27.5t-24.5 -11.5h-21q-15 0 -25 12t-10 27v1444q0 15 10 27t25 12h21q15 0 24.5 -11t9.5 -28v-1444zM534 1641q0 -14 -18 -14h-46q-11 0 -16.5 3.5t-13.5 13t-15 17.5l-192 232l-193 -232q-18 -22 -24.5 -28t-20.5 -6h-45q-18 0 -18 14q0 12 8 20
l205 263q25 30 47 30h82q22 0 47 -30l205 -263q8 -8 8 -20z" />
    <glyph glyph-name="Idieresis" unicode="&#xcf;" horiz-adv-x="459" 
d="M274 39q0 -16 -9.5 -27.5t-24.5 -11.5h-21q-15 0 -25 12t-10 27v1444q0 15 10 27t25 12h21q15 0 24.5 -11t9.5 -28v-1444zM426 1706q0 -16 -11.5 -27.5t-27.5 -11.5h-13q-16 0 -27.5 11.5t-11.5 27.5v151q0 15 11.5 27t27.5 12h13q17 0 28 -12t11 -27v-151zM118 1706
q0 -17 -11.5 -28t-27.5 -11h-12q-16 0 -27.5 11.5t-11.5 27.5v151q0 15 11.5 27t27.5 12h12q17 0 28 -11t11 -28v-151z" />
    <glyph glyph-name="Eth" unicode="&#xd0;" horiz-adv-x="1255" 
d="M1133 633q0 -337 -160 -491t-438 -154q-242 0 -336 16q-14 3 -24.5 14.5t-10.5 24.5v711h-146q-38 0 -38 34v21q0 33 38 33h146v635q0 14 11 25t24 14q94 16 336 16q136 0 244.5 -34.5t187.5 -110t122.5 -199.5t43.5 -301v-254zM1042 633v254q0 306 -135 435.5
t-372 129.5q-43 0 -91 -1.5t-104 -5t-86 -5.5v-598h174q18 0 28.5 -9t10.5 -24v-21q0 -34 -39 -34h-174v-678q120 -8 281 -8q151 0 264.5 53.5t178 179t64.5 332.5z" />
    <glyph glyph-name="Ntilde" unicode="&#xd1;" horiz-adv-x="1333" 
d="M1169 92q0 -47 -26 -75.5t-66 -28.5h-2q-28 0 -42 2.5t-25 11.5q-22 17 -37 47l-690 1383q-9 14 -17 14q-10 0 -10 -14v-1393q0 -17 -10 -28t-25 -11h-20q-15 0 -25 12t-10 27v1393q0 47 28.5 73.5t71.5 26.5q41 0 62 -15.5t36 -48.5l689 -1380q7 -14 16 -14q10 0 10 18
v1391q0 17 9.5 28t23.5 11h25q16 0 25 -11t9 -28v-1391zM995 1801q0 -92 -42 -139.5t-118 -47.5q-80 0 -137 53l-98 97q-28 28 -48.5 42.5t-49.5 14.5q-40 0 -62 -25t-22 -84v-53q0 -33 -21 -33h-35q-22 0 -22 33v53q0 91 42.5 139t119.5 48q78 0 135 -53l98 -97
q59 -57 100 -57t61.5 23.5t20.5 85.5v53q0 33 21 33h35q22 0 22 -33v-53z" />
    <glyph glyph-name="Ograve" unicode="&#xd2;" horiz-adv-x="1294" 
d="M1171 633q0 -222 -66 -366t-184 -211.5t-274 -67.5t-274 67.5t-184 211.5t-66 366v254q0 165 38.5 289t108.5 203t165 116t212 37q118 0 213 -37t165 -116t108 -203t38 -289v-254zM1081 633v254q0 199 -55 324.5t-152 180t-227 54.5q-434 0 -434 -559v-254
q0 -559 434 -559q130 0 227 54.5t152 180t55 324.5zM799 1639q0 -14 -18 -14h-45q-13 0 -20 6t-25 28l-220 263q-8 8 -8 16q0 14 23 14h53q22 0 47 -30l205 -263q8 -8 8 -20z" />
    <glyph glyph-name="Oacute" unicode="&#xd3;" horiz-adv-x="1294" 
d="M1171 633q0 -222 -66 -366t-184 -211.5t-274 -67.5t-274 67.5t-184 211.5t-66 366v254q0 165 38.5 289t108.5 203t165 116t212 37q118 0 213 -37t165 -116t108 -203t38 -289v-254zM1081 633v254q0 199 -55 324.5t-152 180t-227 54.5q-434 0 -434 -559v-254
q0 -559 434 -559q130 0 227 54.5t152 180t55 324.5zM831 1938q0 -7 -9 -16l-219 -263q-18 -22 -24.5 -28t-20.5 -6h-45q-18 0 -18 14q0 12 8 20l205 263q25 30 47 30h53q23 0 23 -14z" />
    <glyph glyph-name="Ocircumflex" unicode="&#xd4;" horiz-adv-x="1294" 
d="M1171 633q0 -222 -66 -366t-184 -211.5t-274 -67.5t-274 67.5t-184 211.5t-66 366v254q0 165 38.5 289t108.5 203t165 116t212 37q118 0 213 -37t165 -116t108 -203t38 -289v-254zM1081 633v254q0 199 -55 324.5t-152 180t-227 54.5q-434 0 -434 -559v-254
q0 -559 434 -559q130 0 227 54.5t152 180t55 324.5zM950 1641q0 -14 -18 -14h-46q-11 0 -16.5 3.5t-13.5 13t-15 17.5l-192 232l-193 -232q-18 -22 -24.5 -28t-20.5 -6h-45q-18 0 -18 14q0 12 8 20l205 263q25 30 47 30h82q22 0 47 -30l205 -263q8 -8 8 -20z" />
    <glyph glyph-name="Otilde" unicode="&#xd5;" horiz-adv-x="1294" 
d="M1171 633q0 -222 -66 -366t-184 -211.5t-274 -67.5t-274 67.5t-184 211.5t-66 366v254q0 165 38.5 289t108.5 203t165 116t212 37q118 0 213 -37t165 -116t108 -203t38 -289v-254zM1081 633v254q0 199 -55 324.5t-152 180t-227 54.5q-434 0 -434 -559v-254
q0 -559 434 -559q130 0 227 54.5t152 180t55 324.5zM981 1801q0 -92 -42 -139.5t-118 -47.5q-80 0 -137 53l-98 97q-28 28 -48.5 42.5t-49.5 14.5q-40 0 -62 -25t-22 -84v-53q0 -33 -21 -33h-35q-22 0 -22 33v53q0 91 42.5 139t119.5 48q78 0 135 -53l98 -97q59 -57 100 -57
t61.5 23.5t20.5 85.5v53q0 33 21 33h35q22 0 22 -33v-53z" />
    <glyph glyph-name="Odieresis" unicode="&#xd6;" horiz-adv-x="1294" 
d="M1171 633q0 -222 -66 -366t-184 -211.5t-274 -67.5t-274 67.5t-184 211.5t-66 366v254q0 165 38.5 289t108.5 203t165 116t212 37q118 0 213 -37t165 -116t108 -203t38 -289v-254zM1081 633v254q0 199 -55 324.5t-152 180t-227 54.5q-434 0 -434 -559v-254
q0 -559 434 -559q130 0 227 54.5t152 180t55 324.5zM836 1704q0 -16 -11.5 -27.5t-27.5 -11.5h-13q-16 0 -27.5 11.5t-11.5 27.5v151q0 15 11.5 27t27.5 12h13q17 0 28 -12t11 -27v-151zM528 1704q0 -17 -11.5 -28t-27.5 -11h-12q-16 0 -27.5 11.5t-11.5 27.5v151
q0 15 11.5 27t27.5 12h12q17 0 28 -11t11 -28v-151z" />
    <glyph glyph-name="multiply" unicode="&#xd7;" 
d="M963 1122q0 -13 -17 -30l-293 -291l293 -293q17 -17 17 -31q0 -11 -11 -22l-14 -15q-10 -10 -23 -10q-14 0 -30 16l-291 293l-291 -290q-15 -17 -31 -17q-12 0 -22 10l-14 15q-11 9 -11 22q0 16 17 31l290 291l-290 291q-17 15 -17 30q0 12 11 21l14 14q10 10 22 10
q15 0 31 -16l291 -291l291 293q16 16 30 16q13 0 23 -10l14 -14q11 -11 11 -23z" />
    <glyph glyph-name="Oslash" unicode="&#xd8;" horiz-adv-x="1294" 
d="M1221 1499q0 -8 -7 -16l-133 -185q90 -155 90 -411v-254q0 -222 -66 -366t-184 -211.5t-274 -67.5q-251 0 -387 164l-90 -125q-28 -39 -53 -39h-21q-22 0 -22 22q0 7 6 17l135 188q-92 156 -92 418v254q0 165 38.5 289t108.5 203t165 116t212 37q79 0 151 -17.5t134 -56
t106 -94.5l86 119q32 39 54 39h20q23 0 23 -23zM985 1288q-56 81 -141.5 119.5t-196.5 38.5q-434 0 -434 -559v-254q0 -209 59 -336zM1081 633v254q0 204 -57 330l-711 -990q111 -153 334 -153q130 0 227 54.5t152 180t55 324.5z" />
    <glyph glyph-name="Ugrave" unicode="&#xd9;" horiz-adv-x="1296" 
d="M1133 541q0 -267 -119.5 -410t-364.5 -143q-164 0 -272.5 65.5t-160.5 190t-52 297.5v942q0 15 10 27t25 12h20q15 0 25 -11t10 -28v-942q0 -151 39.5 -255.5t127.5 -159t228 -54.5t227.5 54.5t126.5 159t39 255.5v942q0 15 10 27t25 12h21q15 0 25 -12t10 -27v-942z
M784 1641q0 -14 -18 -14h-45q-13 0 -20 6t-25 28l-220 263q-8 8 -8 16q0 14 23 14h53q22 0 47 -30l205 -263q8 -8 8 -20z" />
    <glyph glyph-name="Uacute" unicode="&#xda;" horiz-adv-x="1296" 
d="M1133 541q0 -267 -119.5 -410t-364.5 -143q-164 0 -272.5 65.5t-160.5 190t-52 297.5v942q0 15 10 27t25 12h20q15 0 25 -11t10 -28v-942q0 -151 39.5 -255.5t127.5 -159t228 -54.5t227.5 54.5t126.5 159t39 255.5v942q0 15 10 27t25 12h21q15 0 25 -12t10 -27v-942z
M903 1938q0 -7 -9 -16l-219 -263q-18 -22 -24.5 -28t-20.5 -6h-45q-18 0 -18 14q0 12 8 20l205 263q25 30 47 30h53q23 0 23 -14z" />
    <glyph glyph-name="Ucircumflex" unicode="&#xdb;" horiz-adv-x="1296" 
d="M1133 541q0 -267 -119.5 -410t-364.5 -143q-164 0 -272.5 65.5t-160.5 190t-52 297.5v942q0 15 10 27t25 12h20q15 0 25 -11t10 -28v-942q0 -151 39.5 -255.5t127.5 -159t228 -54.5t227.5 54.5t126.5 159t39 255.5v942q0 15 10 27t25 12h21q15 0 25 -12t10 -27v-942z
M962 1641q0 -14 -18 -14h-46q-11 0 -16.5 3.5t-13.5 13t-15 17.5l-192 232l-193 -232q-18 -22 -24.5 -28t-20.5 -6h-45q-18 0 -18 14q0 12 8 20l205 263q25 30 47 30h82q22 0 47 -30l205 -263q8 -8 8 -20z" />
    <glyph glyph-name="Udieresis" unicode="&#xdc;" horiz-adv-x="1296" 
d="M1133 541q0 -267 -119.5 -410t-364.5 -143q-164 0 -272.5 65.5t-160.5 190t-52 297.5v942q0 15 10 27t25 12h20q15 0 25 -11t10 -28v-942q0 -151 39.5 -255.5t127.5 -159t228 -54.5t227.5 54.5t126.5 159t39 255.5v942q0 15 10 27t25 12h21q15 0 25 -12t10 -27v-942z
M844 1706q0 -16 -11.5 -27.5t-27.5 -11.5h-13q-16 0 -27.5 11.5t-11.5 27.5v151q0 15 11.5 27t27.5 12h13q17 0 28 -12t11 -27v-151zM536 1706q0 -17 -11.5 -28t-27.5 -11h-12q-16 0 -27.5 11.5t-11.5 27.5v151q0 15 11.5 27t27.5 12h12q17 0 28 -11t11 -28v-151z" />
    <glyph glyph-name="Yacute" unicode="&#xdd;" horiz-adv-x="1128" 
d="M1034 1493q0 -10 -6 -27l-323 -714q-46 -99 -97 -119v-594q0 -17 -10 -28t-25 -11h-20q-15 0 -25 12t-10 27v594q-50 19 -96 119l-324 714q-6 17 -6 27q0 29 35 29h20q9 0 18.5 -8t14.5 -17l322 -717q20 -44 31.5 -57.5t29.5 -13.5t30.5 14.5t31.5 56.5l321 717
q13 25 33 25h20q35 0 35 -29zM805 1940q0 -7 -9 -16l-219 -263q-18 -22 -24.5 -28t-20.5 -6h-45q-18 0 -18 14q0 12 8 20l205 263q25 30 47 30h53q23 0 23 -14z" />
    <glyph glyph-name="Thorn" unicode="&#xde;" horiz-adv-x="1106" 
d="M1034 885q0 -234 -142 -336.5t-415 -102.5q-95 0 -223 9v-416q0 -17 -10 -28t-25 -11h-20q-15 0 -25 12t-10 27v1444q0 15 10 27t25 12h20q15 0 25 -11t10 -28v-154q67 4 109 5t114 1q557 0 557 -415v-35zM944 885v35q0 185 -114 260t-353 75q-134 0 -223 -6v-714
q113 -9 223 -9q124 0 209.5 19.5t143.5 62.5t86 111t28 166z" />
    <glyph glyph-name="germandbls" unicode="&#xdf;" horiz-adv-x="1112" 
d="M999 428q0 -227 -134 -333.5t-343 -106.5q-11 0 -30.5 2t-51.5 4q-16 0 -28.5 10t-12.5 27v16q0 25 35 25h6q30 -1 48 -2t34 -2q190 0 288.5 87.5t98.5 272.5v16q0 137 -99.5 225.5t-274.5 88.5h-84q-41 0 -41 33v18q0 15 11.5 24t29.5 9h84q87 0 151 24t105 65.5t61 96
t20 113.5v14q0 143 -75.5 220t-233.5 77q-143 0 -231 -92.5t-88 -306.5v-1012q0 -18 -9.5 -29.5t-25.5 -11.5h-25q-30 0 -30 41v1010q0 120 30 211.5t85 151.5t129 89t165 29q119 0 209 -43t140.5 -127.5t50.5 -206.5v-14q0 -120 -71 -210t-171 -130q124 -36 201 -130.5
t77 -226.5v-16z" />
    <glyph glyph-name="agrave" unicode="&#xe0;" horiz-adv-x="999" 
d="M856 41q0 -18 -12 -29.5t-29 -11.5h-10q-17 0 -29 12t-12 29v51q-189 -104 -348 -104q-133 0 -223.5 77t-90.5 252v27q0 80 28 139.5t87.5 98.5t154.5 58t236 19h158v74q0 106 -23.5 172t-79 95.5t-155.5 29.5q-87 0 -132.5 -3t-158.5 -15h-8q-39 0 -39 30v13q0 29 47 37
q155 18 291 18q194 0 271 -97.5t77 -279.5v-692zM766 172v408h-158q-155 0 -245.5 -23t-130 -74.5t-39.5 -138.5v-27q0 -249 223 -249q82 0 165 24t185 80zM618 1280q0 -14 -18 -14h-45q-13 0 -20 6t-25 28l-220 263q-8 8 -8 16q0 14 23 14h53q22 0 47 -30l205 -263
q8 -8 8 -20z" />
    <glyph glyph-name="aacute" unicode="&#xe1;" horiz-adv-x="999" 
d="M856 41q0 -18 -12 -29.5t-29 -11.5h-10q-17 0 -29 12t-12 29v51q-189 -104 -348 -104q-133 0 -223.5 77t-90.5 252v27q0 80 28 139.5t87.5 98.5t154.5 58t236 19h158v74q0 106 -23.5 172t-79 95.5t-155.5 29.5q-87 0 -132.5 -3t-158.5 -15h-8q-39 0 -39 30v13q0 29 47 37
q155 18 291 18q194 0 271 -97.5t77 -279.5v-692zM766 172v408h-158q-155 0 -245.5 -23t-130 -74.5t-39.5 -138.5v-27q0 -249 223 -249q82 0 165 24t185 80zM735 1579q0 -7 -9 -16l-219 -263q-18 -22 -24.5 -28t-20.5 -6h-45q-18 0 -18 14q0 12 8 20l205 263q25 30 47 30h53
q23 0 23 -14z" />
    <glyph glyph-name="acircumflex" unicode="&#xe2;" horiz-adv-x="999" 
d="M856 41q0 -18 -12 -29.5t-29 -11.5h-10q-17 0 -29 12t-12 29v51q-189 -104 -348 -104q-133 0 -223.5 77t-90.5 252v27q0 80 28 139.5t87.5 98.5t154.5 58t236 19h158v74q0 106 -23.5 172t-79 95.5t-155.5 29.5q-87 0 -132.5 -3t-158.5 -15h-8q-39 0 -39 30v13q0 29 47 37
q155 18 291 18q194 0 271 -97.5t77 -279.5v-692zM766 172v408h-158q-155 0 -245.5 -23t-130 -74.5t-39.5 -138.5v-27q0 -249 223 -249q82 0 165 24t185 80zM805 1280q0 -14 -18 -14h-46q-11 0 -16.5 3.5t-13.5 13t-15 17.5l-192 232l-193 -232q-18 -22 -24.5 -28t-20.5 -6
h-45q-18 0 -18 14q0 12 8 20l205 263q25 30 47 30h82q22 0 47 -30l205 -263q8 -8 8 -20z" />
    <glyph glyph-name="atilde" unicode="&#xe3;" horiz-adv-x="999" 
d="M856 41q0 -18 -12 -29.5t-29 -11.5h-10q-17 0 -29 12t-12 29v51q-189 -104 -348 -104q-133 0 -223.5 77t-90.5 252v27q0 80 28 139.5t87.5 98.5t154.5 58t236 19h158v74q0 106 -23.5 172t-79 95.5t-155.5 29.5q-87 0 -132.5 -3t-158.5 -15h-8q-39 0 -39 30v13q0 29 47 37
q155 18 291 18q194 0 271 -97.5t77 -279.5v-692zM766 172v408h-158q-155 0 -245.5 -23t-130 -74.5t-39.5 -138.5v-27q0 -249 223 -249q82 0 165 24t185 80zM817 1473q0 -92 -42 -139.5t-118 -47.5q-80 0 -137 53l-98 97q-28 28 -48.5 42.5t-49.5 14.5q-40 0 -62 -25t-22 -84
v-53q0 -33 -21 -33h-35q-22 0 -22 33v53q0 91 42.5 139t119.5 48q78 0 135 -53l98 -97q59 -57 100 -57t61.5 23.5t20.5 85.5v53q0 33 21 33h35q22 0 22 -33v-53z" />
    <glyph glyph-name="adieresis" unicode="&#xe4;" horiz-adv-x="999" 
d="M856 41q0 -18 -12 -29.5t-29 -11.5h-10q-17 0 -29 12t-12 29v51q-189 -104 -348 -104q-133 0 -223.5 77t-90.5 252v27q0 80 28 139.5t87.5 98.5t154.5 58t236 19h158v74q0 106 -23.5 172t-79 95.5t-155.5 29.5q-87 0 -132.5 -3t-158.5 -15h-8q-39 0 -39 30v13q0 29 47 37
q155 18 291 18q194 0 271 -97.5t77 -279.5v-692zM766 172v408h-158q-155 0 -245.5 -23t-130 -74.5t-39.5 -138.5v-27q0 -249 223 -249q82 0 165 24t185 80zM698 1369q0 -16 -11.5 -27.5t-27.5 -11.5h-13q-16 0 -27.5 11.5t-11.5 27.5v151q0 15 11.5 27t27.5 12h13
q17 0 28 -12t11 -27v-151zM390 1369q0 -17 -11.5 -28t-27.5 -11h-12q-16 0 -27.5 11.5t-11.5 27.5v151q0 15 11.5 27t27.5 12h12q17 0 28 -11t11 -28v-151z" />
    <glyph glyph-name="aring" unicode="&#xe5;" horiz-adv-x="999" 
d="M856 41q0 -18 -12 -29.5t-29 -11.5h-10q-17 0 -29 12t-12 29v51q-189 -104 -348 -104q-133 0 -223.5 77t-90.5 252v27q0 80 28 139.5t87.5 98.5t154.5 58t236 19h158v74q0 106 -23.5 172t-79 95.5t-155.5 29.5q-87 0 -132.5 -3t-158.5 -15h-8q-39 0 -39 30v13q0 29 47 37
q155 18 291 18q194 0 271 -97.5t77 -279.5v-692zM766 172v408h-158q-155 0 -245.5 -23t-130 -74.5t-39.5 -138.5v-27q0 -249 223 -249q82 0 165 24t185 80zM700 1430q0 -79 -56 -135t-134 -56q-77 0 -134 57t-57 134q0 78 56 134t135 56q40 0 74 -14t61 -41t41 -61t14 -74z
M629 1430q0 50 -35 84t-84 34q-50 0 -83.5 -34.5t-33.5 -83.5q0 -50 33.5 -84.5t83.5 -34.5q49 0 84 34t35 85z" />
    <glyph glyph-name="ae" unicode="&#xe6;" horiz-adv-x="1700" 
d="M1587 567q0 -17 -11.5 -28t-27.5 -11h-692v-110q0 -132 21.5 -187.5t66.5 -91.5q53 -40 124 -55.5t159 -15.5q133 0 303 34q3 1 5.5 1.5t6.5 0.5q31 0 31 -28v-15q0 -17 -8.5 -25.5t-30.5 -12.5q-163 -35 -307 -35q-323 0 -420 184q-39 -54 -83.5 -93t-121 -65
t-186.5 -26q-133 0 -223.5 77t-90.5 252v27q0 80 28 139.5t87.5 98.5t154.5 58t236 19h158v74q0 106 -23.5 172t-79 95.5t-155.5 29.5q-118 0 -291 -18h-8q-39 0 -39 30v13q0 29 47 37q155 18 291 18q265 0 323 -199q110 199 349 199q136 0 228 -60t135.5 -170t43.5 -257
v-56zM1497 610v13q0 203 -74 305t-243 102q-165 0 -244.5 -108.5t-79.5 -298.5v-13h641zM766 418v160h-158q-155 0 -245 -22t-130 -73.5t-40 -138.5v-27q0 -249 223 -249q121 0 198 35t114.5 112t37.5 203z" />
    <glyph glyph-name="ccedilla" unicode="&#xe7;" horiz-adv-x="895" 
d="M805 43q0 -18 -9 -26t-30 -11q-155 -18 -248 -18q-107 0 -184.5 38.5t-126.5 107t-71.5 157.5t-22.5 192v138q0 144 41.5 253t132 172.5t231.5 63.5q45 0 105 -4t143 -14q39 -6 39 -37v-15q0 -28 -33 -28h-10q-144 18 -244 18q-167 0 -241 -106.5t-74 -302.5v-138
q0 -196 74.5 -305.5t240.5 -109.5q100 0 244 18h10q33 0 33 -29v-14zM590 -78q0 -8 -8 -16l-220 -262q-3 -4 -12.5 -16t-16 -15.5t-16.5 -3.5h-45q-18 0 -18 14q0 9 8 21l205 262q25 31 47 31h53q23 0 23 -15z" />
    <glyph glyph-name="egrave" unicode="&#xe8;" horiz-adv-x="1047" 
d="M934 567q0 -16 -11.5 -27.5t-27.5 -11.5h-692v-43q0 -165 48 -256.5t129 -126t193 -34.5q132 0 304 34q3 1 5.5 1.5t6.5 0.5q31 0 31 -28v-15q0 -17 -8 -25t-31 -13q-165 -35 -308 -35q-100 0 -182 24.5t-145 81.5t-98 154.5t-35 236.5v136q0 142 47.5 253t141 173.5
t224.5 62.5q137 0 229 -60t135.5 -170t43.5 -257v-56zM844 610v13q0 203 -74 305t-244 102q-111 0 -183 -51t-106 -143t-34 -215v-11h641zM618 1280q0 -14 -18 -14h-45q-13 0 -20 6t-25 28l-220 263q-8 8 -8 16q0 14 23 14h53q22 0 47 -30l205 -263q8 -8 8 -20z" />
    <glyph glyph-name="eacute" unicode="&#xe9;" horiz-adv-x="1047" 
d="M934 567q0 -16 -11.5 -27.5t-27.5 -11.5h-692v-43q0 -165 48 -256.5t129 -126t193 -34.5q132 0 304 34q3 1 5.5 1.5t6.5 0.5q31 0 31 -28v-15q0 -17 -8 -25t-31 -13q-165 -35 -308 -35q-100 0 -182 24.5t-145 81.5t-98 154.5t-35 236.5v136q0 142 47.5 253t141 173.5
t224.5 62.5q137 0 229 -60t135.5 -170t43.5 -257v-56zM844 610v13q0 203 -74 305t-244 102q-111 0 -183 -51t-106 -143t-34 -215v-11h641zM782 1579q0 -7 -9 -16l-219 -263q-18 -22 -24.5 -28t-20.5 -6h-45q-18 0 -18 14q0 12 8 20l205 263q25 30 47 30h53q23 0 23 -14z" />
    <glyph glyph-name="ecircumflex" unicode="&#xea;" horiz-adv-x="1047" 
d="M934 567q0 -16 -11.5 -27.5t-27.5 -11.5h-692v-43q0 -165 48 -256.5t129 -126t193 -34.5q132 0 304 34q3 1 5.5 1.5t6.5 0.5q31 0 31 -28v-15q0 -17 -8 -25t-31 -13q-165 -35 -308 -35q-100 0 -182 24.5t-145 81.5t-98 154.5t-35 236.5v136q0 142 47.5 253t141 173.5
t224.5 62.5q137 0 229 -60t135.5 -170t43.5 -257v-56zM844 610v13q0 203 -74 305t-244 102q-111 0 -183 -51t-106 -143t-34 -215v-11h641zM838 1280q0 -14 -18 -14h-46q-11 0 -16.5 3.5t-13.5 13t-15 17.5l-192 232l-193 -232q-18 -22 -24.5 -28t-20.5 -6h-45q-18 0 -18 14
q0 12 8 20l205 263q25 30 47 30h82q22 0 47 -30l205 -263q8 -8 8 -20z" />
    <glyph glyph-name="edieresis" unicode="&#xeb;" horiz-adv-x="1047" 
d="M934 567q0 -16 -11.5 -27.5t-27.5 -11.5h-692v-43q0 -165 48 -256.5t129 -126t193 -34.5q132 0 304 34q3 1 5.5 1.5t6.5 0.5q31 0 31 -28v-15q0 -17 -8 -25t-31 -13q-165 -35 -308 -35q-100 0 -182 24.5t-145 81.5t-98 154.5t-35 236.5v136q0 142 47.5 253t141 173.5
t224.5 62.5q137 0 229 -60t135.5 -170t43.5 -257v-56zM844 610v13q0 203 -74 305t-244 102q-111 0 -183 -51t-106 -143t-34 -215v-11h641zM743 1354q0 -16 -11.5 -27.5t-27.5 -11.5h-13q-16 0 -27.5 11.5t-11.5 27.5v151q0 15 11.5 27t27.5 12h13q17 0 28 -12t11 -27v-151z
M435 1354q0 -17 -11.5 -28t-27.5 -11h-12q-16 0 -27.5 11.5t-11.5 27.5v151q0 15 11.5 27t27.5 12h12q17 0 28 -11t11 -28v-151z" />
    <glyph glyph-name="igrave" unicode="&#xec;" horiz-adv-x="418" 
d="M254 39q0 -16 -12 -27.5t-27 -11.5h-12q-15 0 -27 12t-12 27v1022q0 15 12 27t27 12h12q15 0 27 -11t12 -28v-1022zM328 1280q0 -14 -18 -14h-45q-13 0 -20 6t-25 28l-220 263q-8 8 -8 16q0 14 23 14h53q22 0 47 -30l205 -263q8 -8 8 -20z" />
    <glyph glyph-name="iacute" unicode="&#xed;" horiz-adv-x="418" 
d="M254 39q0 -16 -12 -27.5t-27 -11.5h-12q-15 0 -27 12t-12 27v1022q0 15 12 27t27 12h12q15 0 27 -11t12 -28v-1022zM426 1579q0 -7 -9 -16l-219 -263q-18 -22 -24.5 -28t-20.5 -6h-45q-18 0 -18 14q0 12 8 20l205 263q25 30 47 30h53q23 0 23 -14z" />
    <glyph glyph-name="icircumflex" unicode="&#xee;" horiz-adv-x="418" 
d="M254 39q0 -16 -12 -27.5t-27 -11.5h-12q-15 0 -27 12t-12 27v1022q0 15 12 27t27 12h12q15 0 27 -11t12 -28v-1022zM508 1280q0 -14 -18 -14h-46q-11 0 -16.5 3.5t-13.5 13t-15 17.5l-192 232l-193 -232q-18 -22 -24.5 -28t-20.5 -6h-45q-18 0 -18 14q0 12 8 20l205 263
q25 30 47 30h82q22 0 47 -30l205 -263q8 -8 8 -20z" />
    <glyph glyph-name="idieresis" unicode="&#xef;" horiz-adv-x="418" 
d="M254 39q0 -16 -12 -27.5t-27 -11.5h-12q-15 0 -27 12t-12 27v1022q0 15 12 27t27 12h12q15 0 27 -11t12 -28v-1022zM408 1354q0 -16 -11.5 -27.5t-27.5 -11.5h-13q-16 0 -27.5 11.5t-11.5 27.5v151q0 15 11.5 27t27.5 12h13q17 0 28 -12t11 -27v-151zM100 1354
q0 -17 -11.5 -28t-27.5 -11h-12q-16 0 -27.5 11.5t-11.5 27.5v151q0 15 11.5 27t27.5 12h12q17 0 28 -11t11 -28v-151z" />
    <glyph glyph-name="eth" unicode="&#xf0;" horiz-adv-x="1069" 
d="M956 692v-71v-144q0 -154 -47 -264t-141.5 -167.5t-232.5 -57.5t-233 57.5t-142 167.5t-47 264v144q0 154 47 264t142 167.5t233 57.5q200 0 307 -119q-65 241 -342 363l-199 -150q-15 -12 -27 -12q-10 0 -22 12l-10 13q-6 6 -6 16q0 15 20 33l158 123q-108 37 -219 59
q-33 8 -33 31q0 6 2 10l6 20q7 23 27 23q12 0 18 -2q170 -40 279 -82l208 160q12 8 25 8q16 0 27 -10l12 -13q8 -8 8 -16q0 -11 -20 -29l-179 -135q171 -87 254.5 -202t105 -236t21.5 -283zM866 477v144q0 128 -33.5 219.5t-106.5 140.5t-191 49t-191.5 -49t-107 -140.5
t-33.5 -219.5v-144q0 -197 79 -303t253 -106q118 0 191 49t106.5 139.5t33.5 220.5z" />
    <glyph glyph-name="ntilde" unicode="&#xf1;" horiz-adv-x="1067" 
d="M924 39q0 -16 -11.5 -27.5t-27.5 -11.5h-15q-15 0 -25.5 11.5t-10.5 27.5v680q0 164 -75 237.5t-202 73.5q-74 0 -157.5 -22t-166.5 -62v-907q0 -16 -11.5 -27.5t-26.5 -11.5h-13q-15 0 -27 12t-12 27v1020q0 16 11 28.5t26 12.5h17q16 0 26 -11.5t10 -29.5v-33
q176 84 330 84q80 0 144 -21.5t113 -69t76.5 -121t27.5 -179.5v-680zM862 1473q0 -92 -42 -139.5t-118 -47.5q-80 0 -137 53l-98 97q-28 28 -48.5 42.5t-49.5 14.5q-40 0 -62 -25t-22 -84v-53q0 -33 -21 -33h-35q-22 0 -22 33v53q0 91 42.5 139t119.5 48q78 0 135 -53
l98 -97q59 -57 100 -57t61.5 23.5t20.5 85.5v53q0 33 21 33h35q22 0 22 -33v-53z" />
    <glyph glyph-name="ograve" unicode="&#xf2;" horiz-adv-x="1069" 
d="M956 477q0 -154 -47 -264t-141.5 -167.5t-232.5 -57.5t-233 57.5t-142 167.5t-47 264v144q0 154 47 264t142 167.5t233 57.5t232.5 -57.5t141.5 -167.5t47 -264v-144zM866 477v144q0 128 -33.5 219.5t-106.5 140.5t-191 49t-191.5 -49t-107 -140.5t-33.5 -219.5v-144
q0 -197 79 -303t253 -106q118 0 191 49t106.5 139.5t33.5 220.5zM639 1280q0 -14 -18 -14h-45q-13 0 -20 6t-25 28l-220 263q-8 8 -8 16q0 14 23 14h53q22 0 47 -30l205 -263q8 -8 8 -20z" />
    <glyph glyph-name="oacute" unicode="&#xf3;" horiz-adv-x="1069" 
d="M956 477q0 -154 -47 -264t-141.5 -167.5t-232.5 -57.5t-233 57.5t-142 167.5t-47 264v144q0 154 47 264t142 167.5t233 57.5t232.5 -57.5t141.5 -167.5t47 -264v-144zM866 477v144q0 128 -33.5 219.5t-106.5 140.5t-191 49t-191.5 -49t-107 -140.5t-33.5 -219.5v-144
q0 -197 79 -303t253 -106q118 0 191 49t106.5 139.5t33.5 220.5zM754 1579q0 -7 -9 -16l-219 -263q-18 -22 -24.5 -28t-20.5 -6h-45q-18 0 -18 14q0 12 8 20l205 263q25 30 47 30h53q23 0 23 -14z" />
    <glyph glyph-name="ocircumflex" unicode="&#xf4;" horiz-adv-x="1069" 
d="M956 477q0 -154 -47 -264t-141.5 -167.5t-232.5 -57.5t-233 57.5t-142 167.5t-47 264v144q0 154 47 264t142 167.5t233 57.5t232.5 -57.5t141.5 -167.5t47 -264v-144zM866 477v144q0 128 -33.5 219.5t-106.5 140.5t-191 49t-191.5 -49t-107 -140.5t-33.5 -219.5v-144
q0 -197 79 -303t253 -106q118 0 191 49t106.5 139.5t33.5 220.5zM835 1280q0 -14 -18 -14h-46q-11 0 -16.5 3.5t-13.5 13t-15 17.5l-192 232l-193 -232q-18 -22 -24.5 -28t-20.5 -6h-45q-18 0 -18 14q0 12 8 20l205 263q25 30 47 30h82q22 0 47 -30l205 -263q8 -8 8 -20z
" />
    <glyph glyph-name="otilde" unicode="&#xf5;" horiz-adv-x="1069" 
d="M956 477q0 -154 -47 -264t-141.5 -167.5t-232.5 -57.5t-233 57.5t-142 167.5t-47 264v144q0 154 47 264t142 167.5t233 57.5t232.5 -57.5t141.5 -167.5t47 -264v-144zM866 477v144q0 128 -33.5 219.5t-106.5 140.5t-191 49t-191.5 -49t-107 -140.5t-33.5 -219.5v-144
q0 -197 79 -303t253 -106q118 0 191 49t106.5 139.5t33.5 220.5zM858 1473q0 -92 -42 -139.5t-118 -47.5q-80 0 -137 53l-98 97q-28 28 -48.5 42.5t-49.5 14.5q-40 0 -62 -25t-22 -84v-53q0 -33 -21 -33h-35q-22 0 -22 33v53q0 91 42.5 139t119.5 48q78 0 135 -53l98 -97
q59 -57 100 -57t61.5 23.5t20.5 85.5v53q0 33 21 33h35q22 0 22 -33v-53z" />
    <glyph glyph-name="odieresis" unicode="&#xf6;" horiz-adv-x="1069" 
d="M956 477q0 -154 -47 -264t-141.5 -167.5t-232.5 -57.5t-233 57.5t-142 167.5t-47 264v144q0 154 47 264t142 167.5t233 57.5t232.5 -57.5t141.5 -167.5t47 -264v-144zM866 477v144q0 128 -33.5 219.5t-106.5 140.5t-191 49t-191.5 -49t-107 -140.5t-33.5 -219.5v-144
q0 -197 79 -303t253 -106q118 0 191 49t106.5 139.5t33.5 220.5zM733 1354q0 -16 -11.5 -27.5t-27.5 -11.5h-13q-16 0 -27.5 11.5t-11.5 27.5v151q0 15 11.5 27t27.5 12h13q17 0 28 -12t11 -27v-151zM425 1354q0 -17 -11.5 -28t-27.5 -11h-12q-16 0 -27.5 11.5t-11.5 27.5
v151q0 15 11.5 27t27.5 12h12q17 0 28 -11t11 -28v-151z" />
    <glyph glyph-name="divide" unicode="&#xf7;" 
d="M639 1047q0 -17 -11.5 -28t-27.5 -11h-12q-16 0 -27.5 11.5t-11.5 27.5v151q0 15 11.5 27t27.5 12h12q17 0 28 -11t11 -28v-151zM1010 791q0 -33 -41 -33h-748q-41 0 -41 33v20q0 33 41 33h748q41 0 41 -33v-20zM639 403q0 -16 -11.5 -27t-27.5 -11h-12q-16 0 -27.5 11.5
t-11.5 26.5v152q0 15 12 27t27 12h12q15 0 27 -11t12 -28v-152z" />
    <glyph glyph-name="oslash" unicode="&#xf8;" horiz-adv-x="1069" 
d="M1018 1147q0 -15 -8 -23l-133 -178q79 -122 79 -325v-144q0 -154 -47 -264t-141.5 -167.5t-232.5 -57.5q-91 0 -164.5 25.5t-126.5 74.5l-103 -139q-15 -21 -32 -21h-41q-17 0 -17 17q0 11 8 22l136 183q-82 123 -82 327v144q0 154 47 264t142 167.5t233 57.5
q94 0 167.5 -26t124.5 -78l101 137q16 20 33 20h40q17 0 17 -16zM776 938q-83 92 -241 92q-118 0 -191.5 -49t-107 -140.5t-33.5 -219.5v-144q0 -158 47 -252zM866 477v144q0 153 -45 247l-526 -710q82 -90 240 -90q118 0 191 49t106.5 139.5t33.5 220.5z" />
    <glyph glyph-name="ugrave" unicode="&#xf9;" horiz-adv-x="1067" 
d="M924 41q0 -17 -11 -29t-26 -12h-17q-16 0 -26 12t-10 29v33q-82 -39 -166.5 -61.5t-163.5 -22.5q-102 0 -183.5 40t-129.5 127.5t-48 223.5v680q0 16 11.5 27.5t27.5 11.5h15q14 0 25 -12t11 -27v-680q0 -163 74.5 -237t198.5 -74h4q144 0 324 84v907q0 15 12 27t26 12
h13q15 0 27 -12t12 -27v-1020zM668 1280q0 -14 -18 -14h-45q-13 0 -20 6t-25 28l-220 263q-8 8 -8 16q0 14 23 14h53q22 0 47 -30l205 -263q8 -8 8 -20z" />
    <glyph glyph-name="uacute" unicode="&#xfa;" horiz-adv-x="1067" 
d="M924 41q0 -17 -11 -29t-26 -12h-17q-16 0 -26 12t-10 29v33q-82 -39 -166.5 -61.5t-163.5 -22.5q-102 0 -183.5 40t-129.5 127.5t-48 223.5v680q0 16 11.5 27.5t27.5 11.5h15q14 0 25 -12t11 -27v-680q0 -163 74.5 -237t198.5 -74h4q144 0 324 84v907q0 15 12 27t26 12
h13q15 0 27 -12t12 -27v-1020zM782 1579q0 -7 -9 -16l-219 -263q-18 -22 -24.5 -28t-20.5 -6h-45q-18 0 -18 14q0 12 8 20l205 263q25 30 47 30h53q23 0 23 -14z" />
    <glyph glyph-name="ucircumflex" unicode="&#xfb;" horiz-adv-x="1067" 
d="M924 41q0 -17 -11 -29t-26 -12h-17q-16 0 -26 12t-10 29v33q-82 -39 -166.5 -61.5t-163.5 -22.5q-102 0 -183.5 40t-129.5 127.5t-48 223.5v680q0 16 11.5 27.5t27.5 11.5h15q14 0 25 -12t11 -27v-680q0 -163 74.5 -237t198.5 -74h4q144 0 324 84v907q0 15 12 27t26 12
h13q15 0 27 -12t12 -27v-1020zM842 1280q0 -14 -18 -14h-46q-11 0 -16.5 3.5t-13.5 13t-15 17.5l-192 232l-193 -232q-18 -22 -24.5 -28t-20.5 -6h-45q-18 0 -18 14q0 12 8 20l205 263q25 30 47 30h82q22 0 47 -30l205 -263q8 -8 8 -20z" />
    <glyph glyph-name="udieresis" unicode="&#xfc;" horiz-adv-x="1067" 
d="M924 41q0 -17 -11 -29t-26 -12h-17q-16 0 -26 12t-10 29v33q-82 -39 -166.5 -61.5t-163.5 -22.5q-102 0 -183.5 40t-129.5 127.5t-48 223.5v680q0 16 11.5 27.5t27.5 11.5h15q14 0 25 -12t11 -27v-680q0 -163 74.5 -237t198.5 -74h4q144 0 324 84v907q0 15 12 27t26 12
h13q15 0 27 -12t12 -27v-1020zM733 1354q0 -16 -11.5 -27.5t-27.5 -11.5h-13q-16 0 -27.5 11.5t-11.5 27.5v151q0 15 11.5 27t27.5 12h13q17 0 28 -12t11 -27v-151zM425 1354q0 -17 -11.5 -28t-27.5 -11h-12q-16 0 -27.5 11.5t-11.5 27.5v151q0 15 11.5 27t27.5 12h12
q17 0 28 -11t11 -28v-151z" />
    <glyph glyph-name="yacute" unicode="&#xfd;" horiz-adv-x="995" 
d="M915 1065q0 -10 -2 -16l-335 -1164q-31 -109 -72 -171t-101.5 -87.5t-158.5 -25.5q-53 0 -127 12q-41 7 -41 29v22q0 29 31 29h12q93 -12 133 -12q110 0 159 45t85 178l26 96h-28q-51 0 -78 22.5t-47 92.5l-277 936q-2 4 -2 14q0 35 35 35h18q10 0 20 -9t13 -20l277 -942
q13 -45 47 -45h47l280 989q10 27 37 27h19q30 0 30 -35zM778 1579q0 -7 -9 -16l-219 -263q-18 -22 -24.5 -28t-20.5 -6h-45q-18 0 -18 14q0 12 8 20l205 263q25 30 47 30h53q23 0 23 -14z" />
    <glyph glyph-name="thorn" unicode="&#xfe;" horiz-adv-x="1032" 
d="M920 477q0 -242 -101.5 -365.5t-300.5 -123.5q-148 0 -285 30v-378q0 -17 -9.5 -28t-24.5 -11h-21q-15 0 -25 12t-10 27v1843q0 15 10 27t25 12h21q15 0 24.5 -11t9.5 -28v-400q155 27 285 27q138 0 227.5 -61.5t132 -173t42.5 -263.5v-135zM829 477v135q0 208 -72 313
t-239 105q-72 0 -141.5 -7t-143.5 -19v-910q127 -26 285 -26q112 0 180.5 45.5t99.5 135t31 228.5z" />
    <glyph glyph-name="ydieresis" unicode="&#xff;" horiz-adv-x="995" 
d="M915 1065q0 -10 -2 -16l-335 -1164q-31 -109 -72 -171t-101.5 -87.5t-158.5 -25.5q-53 0 -127 12q-41 7 -41 29v22q0 29 31 29h12q93 -12 133 -12q110 0 159 45t85 178l26 96h-28q-51 0 -78 22.5t-47 92.5l-277 936q-2 4 -2 14q0 35 35 35h18q10 0 20 -9t13 -20l277 -942
q13 -45 47 -45h47l280 989q10 27 37 27h19q30 0 30 -35zM735 1354q0 -16 -11.5 -27.5t-27.5 -11.5h-13q-16 0 -27.5 11.5t-11.5 27.5v151q0 15 11.5 27t27.5 12h13q17 0 28 -12t11 -27v-151zM427 1354q0 -17 -11.5 -28t-27.5 -11h-12q-16 0 -27.5 11.5t-11.5 27.5v151
q0 15 11.5 27t27.5 12h12q17 0 28 -11t11 -28v-151z" />
    <glyph glyph-name="dotlessi" unicode="&#x131;" horiz-adv-x="418" 
d="M254 39q0 -16 -12 -27.5t-27 -11.5h-12q-15 0 -27 12t-12 27v1022q0 15 12 27t27 12h12q15 0 27 -11t12 -28v-1022z" />
    <glyph glyph-name="Lslash" unicode="&#x141;" horiz-adv-x="989" 
d="M918 35q0 -35 -39 -35h-467q-83 0 -137 22.5t-82.5 72t-28.5 134.5v439l-148 -213q-11 -15 -22 -15q-17 0 -17 13v59q0 27 17 51l170 246v674q0 15 10 27t25 12h20q15 0 25 -11t10 -28v-545l147 213q13 14 23 14q16 0 16 -12v-59q0 -28 -16 -52l-170 -245v-568
q0 -89 38 -117t120 -28h467q39 0 39 -33v-16z" />
    <glyph glyph-name="lslash" unicode="&#x142;" horiz-adv-x="418" 
d="M440 1081q0 -12 -14 -32l-172 -252v-758q0 -17 -10 -28t-25 -11h-20q-15 0 -25 12t-10 27v629l-148 -213q-12 -19 -26 -19q-13 0 -13 17v71q0 17 13 33l174 252v674q0 15 10 27t25 12h20q15 0 25 -11t10 -28v-545l147 213q19 23 27 23q12 0 12 -17v-72v-4z" />
    <glyph glyph-name="OE" unicode="&#x152;" horiz-adv-x="2011" 
d="M1898 35q0 -16 -10.5 -25.5t-27.5 -9.5h-607q-88 0 -129 40t-41 126v39q-70 -105 -184 -161t-252 -56q-147 0 -267 64.5t-188.5 186.5t-68.5 291v459q0 126 39.5 228.5t112 172.5t167.5 106t205 36q141 0 254 -55.5t182 -159.5v37q0 87 40.5 127.5t129.5 40.5h607
q17 0 27.5 -9.5t10.5 -25.5v-17q0 -15 -10 -23.5t-28 -8.5h-607q-48 0 -63.5 -19t-15.5 -65v-512h686q18 0 28 -9t10 -24v-21q0 -15 -10.5 -24.5t-27.5 -9.5h-686v-588q0 -44 15.5 -63t63.5 -19h607q18 0 28 -8.5t10 -24.5v-16zM1083 516v14v459v15v6q-3 103 -38 185.5
t-93.5 137.5t-137 84t-167.5 29q-117 0 -217 -53.5t-158.5 -157t-58.5 -246.5v-459q0 -143 58.5 -246t158.5 -156.5t217 -53.5q115 0 214 50.5t158.5 149t63.5 236.5v6z" />
    <glyph glyph-name="oe" unicode="&#x153;" horiz-adv-x="1823" 
d="M1686 567q0 -16 -11.5 -27.5t-27.5 -11.5h-670v-145q0 -167 91.5 -241t268.5 -74q32 0 99 4t88 5.5t104 10.5h8q35 0 35 -29v-12q0 -34 -39 -39q-172 -20 -301 -20q-318 0 -407 202q-33 -61 -84 -106t-122.5 -70.5t-160.5 -25.5q-135 0 -230 58t-142.5 153t-47.5 207v286
q0 111 48 207t142.5 153.5t229.5 57.5q91 0 163 -26.5t124 -73.5t84 -107q94 207 362 207q201 0 298.5 -111t97.5 -286v-146zM1595 610v103q0 86 -30 157.5t-97.5 115.5t-177.5 44q-109 0 -178.5 -44.5t-102 -116t-32.5 -156.5v-103h618zM889 406v286q0 88 -37.5 165.5
t-113.5 125t-181 47.5t-181 -47.5t-113.5 -125t-37.5 -165.5v-286q0 -89 37.5 -166.5t112 -124.5t182.5 -47t182.5 47t112 124.5t37.5 166.5z" />
    <glyph glyph-name="Scaron" unicode="&#x160;" horiz-adv-x="1085" 
d="M973 379q0 -106 -39.5 -192.5t-145.5 -142.5t-290 -56q-47 0 -114 4t-116.5 9t-87.5 9q-15 2 -26 10.5t-11 22.5v27q0 26 39 26h8q46 -3 148 -12.5t160 -9.5q147 0 231 39t117 106.5t33 159.5q0 73 -30.5 123.5t-89.5 94t-196 128.5l-129 80q-110 68 -176 121t-105.5 120
t-39.5 154q0 332 479 332q100 0 305 -21q35 -3 35 -30v-27q0 -29 -39 -29q-20 0 -77.5 5.5t-117 10.5t-108.5 5q-133 0 -219 -26.5t-126 -81.5t-40 -140q0 -63 30 -112t84 -92t162 -109l131 -80q123 -73 201 -134.5t119 -132t41 -159.5zM827 1942q0 -12 -8 -20l-205 -263
q-13 -16 -23 -23t-24 -7h-82q-15 0 -25 7.5t-22 22.5l-205 263q-8 8 -8 20q0 14 18 14h45q14 0 20 -5t25 -29l193 -232l192 232q7 8 15 17.5t13.5 13t16.5 3.5h46q18 0 18 -14z" />
    <glyph glyph-name="scaron" unicode="&#x161;" horiz-adv-x="901" 
d="M799 272q0 -152 -97.5 -218t-257.5 -66q-60 0 -148 8.5t-149 19.5q-45 11 -45 33v23q0 28 33 28h12q198 -32 302 -32q124 0 192 44t68 160q0 63 -44 108.5t-173 115.5l-132 71q-86 47 -138 86.5t-80.5 88.5t-28.5 116q0 68 25.5 118.5t68 78.5t100.5 41.5t119 13.5
q136 0 293 -18q43 -7 43 -35v-17q0 -32 -37 -32h-6q-194 22 -285 22q-113 0 -172 -35.5t-59 -136.5q0 -64 46.5 -109t151.5 -104l138 -76q142 -78 201 -139t59 -158zM743 1579q0 -12 -8 -20l-205 -263q-13 -16 -23 -23t-24 -7h-82q-15 0 -25 7.5t-22 22.5l-205 263
q-8 8 -8 20q0 14 18 14h45q14 0 20 -5t25 -29l193 -232l192 232q7 8 15 17.5t13.5 13t16.5 3.5h46q18 0 18 -14z" />
    <glyph glyph-name="Ydieresis" unicode="&#x178;" horiz-adv-x="1128" 
d="M1034 1493q0 -10 -6 -27l-323 -714q-46 -99 -97 -119v-594q0 -17 -10 -28t-25 -11h-20q-15 0 -25 12t-10 27v594q-50 19 -96 119l-324 714q-6 17 -6 27q0 29 35 29h20q9 0 18.5 -8t14.5 -17l322 -717q20 -44 31.5 -57.5t29.5 -13.5t30.5 14.5t31.5 56.5l321 717
q13 25 33 25h20q35 0 35 -29zM760 1686q0 -16 -11.5 -27.5t-27.5 -11.5h-13q-16 0 -27.5 11.5t-11.5 27.5v151q0 15 11.5 27t27.5 12h13q17 0 28 -12t11 -27v-151zM452 1686q0 -17 -11.5 -28t-27.5 -11h-12q-16 0 -27.5 11.5t-11.5 27.5v151q0 15 11.5 27t27.5 12h12
q17 0 28 -11t11 -28v-151z" />
    <glyph glyph-name="Zcaron" unicode="&#x17d;" horiz-adv-x="1219" 
d="M1096 33q0 -16 -12.5 -24.5t-30.5 -8.5h-803q-111 0 -111 88q0 40 23 74l776 1249q4 6 4 14q0 13 -16 13h-742q-43 0 -43 30v21q0 14 13 23.5t30 9.5h742q59 0 84 -17q34 -20 34 -65q0 -31 -22 -70l-782 -1264q-4 -8 -4 -14q0 -8 14 -8h803q43 0 43 -31v-20zM901 1940
q0 -12 -8 -20l-205 -263q-13 -16 -23 -23t-24 -7h-82q-15 0 -25 7.5t-22 22.5l-205 263q-8 8 -8 20q0 14 18 14h45q14 0 20 -5t25 -29l193 -232l192 232q7 8 15 17.5t13.5 13t16.5 3.5h46q18 0 18 -14z" />
    <glyph glyph-name="zcaron" unicode="&#x17e;" horiz-adv-x="913" 
d="M831 33q0 -16 -11 -24.5t-29 -8.5h-594q-57 0 -86 24t-29 60q0 45 24 76l613 817q8 12 8 20q0 19 -29 19h-538q-41 0 -41 31v20q0 14 11.5 23.5t29.5 9.5h540q50 0 82.5 -24t32.5 -64q0 -49 -33 -92l-594 -797q-12 -20 -12 -25q0 -14 21 -14h594q40 0 40 -31v-20z
M776 1579q0 -12 -8 -20l-205 -263q-13 -16 -23 -23t-24 -7h-82q-15 0 -25 7.5t-22 22.5l-205 263q-8 8 -8 20q0 14 18 14h45q14 0 20 -5t25 -29l193 -232l192 232q7 8 15 17.5t13.5 13t16.5 3.5h46q18 0 18 -14z" />
    <glyph glyph-name="florin" unicode="&#x192;" 
d="M1042 1499v-6l-2 -14q-3 -27 -47 -27h-102q-73 0 -112 -36.5t-50 -125.5l-61 -446h305q33 0 33 -31v-4l-2 -18q-5 -35 -43 -35h-306l-106 -768q-17 -127 -84.5 -184.5t-179.5 -57.5q-64 0 -105 6q-35 5 -35 27v6l2 14q4 27 48 27h102q51 0 82.5 15t51 50.5t28.5 96.5
l106 768h-264q-35 0 -35 30v5l2 18q2 12 8 18.5t17 11.5t20 5h265l61 446q34 242 264 242q65 0 105 -6q34 -5 34 -27z" />
    <glyph glyph-name="circumflex" unicode="&#x2c6;" horiz-adv-x="676" 
d="M639 1280q0 -14 -18 -14h-46q-11 0 -16.5 3.5t-13.5 13t-15 17.5l-192 232l-193 -232q-18 -22 -24.5 -28t-20.5 -6h-45q-18 0 -18 14q0 12 8 20l205 263q25 30 47 30h82q22 0 47 -30l205 -263q8 -8 8 -20z" />
    <glyph glyph-name="caron" unicode="&#x2c7;" horiz-adv-x="676" 
d="M639 1579q0 -12 -8 -20l-205 -263q-13 -16 -23 -23t-24 -7h-82q-15 0 -25 7.5t-22 22.5l-205 263q-8 8 -8 20q0 14 18 14h45q14 0 20 -5t25 -29l193 -232l192 232q7 8 15 17.5t13.5 13t16.5 3.5h46q18 0 18 -14z" />
    <glyph glyph-name="macron" unicode="&#x2c9;" horiz-adv-x="676" 
d="M651 1442q0 -33 -41 -33h-544q-41 0 -41 33v22q0 31 41 31h544q41 0 41 -31v-22z" />
    <glyph glyph-name="breve" unicode="&#x2d8;" horiz-adv-x="676" 
d="M631 1559q0 -84 -39 -150.5t-106.5 -104.5t-147.5 -38q-123 0 -208 83t-85 210q0 34 25 34h41q15 0 18.5 -5.5t3.5 -28.5q0 -116 66 -162.5t139 -46.5t139 46.5t66 162.5q0 21 4 27.5t18 6.5h41q25 0 25 -34z" />
    <glyph glyph-name="dotaccent" unicode="&#x2d9;" horiz-adv-x="676" 
d="M383 1352q0 -17 -11.5 -28t-27.5 -11h-12q-16 0 -27.5 11.5t-11.5 27.5v151q0 15 11.5 27t27.5 12h12q17 0 28 -11t11 -28v-151z" />
    <glyph glyph-name="ring" unicode="&#x2da;" horiz-adv-x="676" 
d="M528 1430q0 -79 -56 -135t-134 -56q-77 0 -134 57t-57 134q0 78 56 134t135 56q40 0 74 -14t61 -41t41 -61t14 -74zM457 1430q0 50 -35 84t-84 34q-50 0 -83.5 -34.5t-33.5 -83.5q0 -50 33.5 -84.5t83.5 -34.5q49 0 84 34t35 85z" />
    <glyph glyph-name="ogonek" unicode="&#x2db;" horiz-adv-x="676" 
d="M567 -348q0 -18 -22 -23q-87 -28 -162 -28q-129 0 -185.5 75.5t-56.5 194.5q0 69 31 186q2 12 7.5 15.5t19.5 3.5h32q19 0 19 -10q0 -9 -2 -15q-23 -117 -23 -180q0 -89 35 -142t123 -53q56 0 158 25q12 4 16 4q10 0 10 -14v-39z" />
    <glyph glyph-name="tilde" unicode="&#x2dc;" horiz-adv-x="1006" 
d="M817 1473q0 -92 -42 -139.5t-118 -47.5q-80 0 -137 53l-98 97q-28 28 -48.5 42.5t-49.5 14.5q-40 0 -62 -25t-22 -84v-53q0 -33 -21 -33h-35q-22 0 -22 33v53q0 91 42.5 139t119.5 48q78 0 135 -53l98 -97q59 -57 100 -57t61.5 23.5t20.5 85.5v53q0 33 21 33h35
q22 0 22 -33v-53z" />
    <glyph glyph-name="hungarumlaut" unicode="&#x2dd;" horiz-adv-x="676" 
d="M752 1579q0 -8 -9 -16l-219 -263q-18 -22 -24.5 -28t-20.5 -6h-45q-18 0 -18 14q0 12 8 20l205 263q25 30 47 30h53q23 0 23 -14zM465 1579q0 -8 -8 -16l-219 -263q-13 -16 -22 -25t-23 -9h-46q-18 0 -18 14q0 12 8 20l205 263q25 30 47 30h53q23 0 23 -14z" />
    <glyph glyph-name="endash" unicode="&#x2013;" horiz-adv-x="1004" 
d="M901 559q0 -15 -10.5 -24t-28.5 -9h-721q-17 0 -28 9t-11 24v16q0 17 11 27t28 10h721q17 0 28 -10t11 -27v-16z" />
    <glyph glyph-name="emdash" unicode="&#x2014;" horiz-adv-x="1331" 
d="M1229 559q0 -15 -10.5 -24t-28.5 -9h-1049q-17 0 -28 9t-11 24v16q0 17 11 27t28 10h1049q17 0 28 -10t11 -27v-16z" />
    <glyph glyph-name="quoteleft" unicode="&#x2018;" horiz-adv-x="348" 
d="M268 1499q0 -12 -2 -18l-84 -353q-8 -38 -41 -38h-39q-22 0 -22 22q0 10 2 16l98 353q11 39 39 39h31q18 0 18 -21z" />
    <glyph glyph-name="quoteright" unicode="&#x2019;" horiz-adv-x="348" 
d="M268 1499q0 -10 -2 -16l-98 -353q-11 -38 -39 -38h-31q-18 0 -18 20q0 12 2 18l84 353q8 39 41 39h39q22 0 22 -23z" />
    <glyph glyph-name="quotesinglbase" unicode="&#x201a;" horiz-adv-x="348" 
d="M268 195q0 -11 -2 -17l-98 -352q-11 -39 -39 -39h-31q-18 0 -18 20q0 13 2 19l84 352q8 39 41 39h39q22 0 22 -22z" />
    <glyph glyph-name="quotedblleft" unicode="&#x201c;" horiz-adv-x="604" 
d="M524 1501q0 -12 -2 -18l-84 -353q-8 -38 -41 -38h-39q-22 0 -22 22q0 10 2 16l98 353q11 39 39 39h31q18 0 18 -21zM268 1501q0 -12 -2 -18l-84 -353q-8 -38 -41 -38h-39q-22 0 -22 22q0 10 2 16l98 353q11 39 39 39h31q18 0 18 -21z" />
    <glyph glyph-name="quotedblright" unicode="&#x201d;" horiz-adv-x="604" 
d="M524 1499q0 -10 -2 -16l-98 -353q-11 -38 -39 -38h-31q-18 0 -18 20q0 12 2 18l84 353q8 39 41 39h39q22 0 22 -23zM268 1499q0 -10 -2 -16l-98 -353q-11 -38 -39 -38h-31q-18 0 -18 20q0 12 2 18l84 353q8 39 41 39h39q22 0 22 -23z" />
    <glyph glyph-name="quotedblbase" unicode="&#x201e;" horiz-adv-x="604" 
d="M524 195q0 -11 -2 -17l-98 -352q-11 -39 -39 -39h-31q-18 0 -18 20q0 13 2 19l84 352q8 39 41 39h39q22 0 22 -22zM268 195q0 -11 -2 -17l-98 -352q-11 -39 -39 -39h-31q-18 0 -18 20q0 13 2 19l84 352q8 39 41 39h39q22 0 22 -22z" />
    <glyph glyph-name="dagger" unicode="&#x2020;" horiz-adv-x="778" 
d="M696 1049q0 -33 -39 -33h-243v-987q0 -18 -9 -29.5t-24 -11.5h-25q-32 0 -32 41v987h-203q-39 0 -39 33v20q0 31 39 31h203v383q0 39 34 39h23q14 0 23.5 -11t9.5 -28v-383h243q39 0 39 -31v-20z" />
    <glyph glyph-name="daggerdbl" unicode="&#x2021;" horiz-adv-x="778" 
d="M696 618q0 -32 -39 -32h-243v-557q0 -18 -9 -29.5t-24 -11.5h-25q-32 0 -32 41v557h-203q-39 0 -39 32v21q0 31 39 31h203v346h-203q-39 0 -39 33v20q0 31 39 31h203v420q0 39 34 39h23q14 0 23.5 -11t9.5 -28v-420h243q39 0 39 -31v-20q0 -33 -39 -33h-243v-346h243
q39 0 39 -31v-21z" />
    <glyph glyph-name="bullet" unicode="&#x2022;" horiz-adv-x="856" 
d="M743 752q0 -84 -42 -157t-115 -116t-158 -43t-158 43t-115 116t-42 157q0 85 42.5 157.5t115 115t157.5 42.5t157.5 -42.5t115 -115t42.5 -157.5z" />
    <glyph glyph-name="ellipsis" unicode="&#x2026;" horiz-adv-x="1040" 
d="M913 27q0 -17 -11.5 -28t-27.5 -11h-12q-16 0 -27.5 11.5t-11.5 27.5v151q0 15 11.5 27t27.5 12h12q17 0 28 -11t11 -28v-151zM565 27q0 -17 -11.5 -28t-27.5 -11h-12q-16 0 -27.5 11.5t-11.5 27.5v151q0 15 11.5 27t27.5 12h12q17 0 28 -11t11 -28v-151zM217 27
q0 -17 -11.5 -28t-27.5 -11h-12q-16 0 -27.5 11.5t-11.5 27.5v151q0 15 11.5 27t27.5 12h12q17 0 28 -11t11 -28v-151z" />
    <glyph glyph-name="perthousand" unicode="&#x2030;" horiz-adv-x="2226" 
d="M2103 307q0 -159 -67.5 -239t-190.5 -80q-81 0 -139.5 35.5t-89.5 106.5t-31 177v213q0 158 69.5 238t190.5 80q80 0 138 -35t89 -107t31 -176v-213zM1427 307q0 -159 -67.5 -239t-190.5 -80q-81 0 -139.5 35.5t-89.5 106.5t-31 177v213q0 158 69.5 238t190.5 80
q80 0 138 -35t89 -107t31 -176v-213zM1264 1511q0 -11 -13 -28l-860 -1456q-14 -25 -21.5 -32t-21.5 -7h-55q-14 0 -14 10t12 29l860 1456q13 23 21 31t22 8h53q17 0 17 -11zM641 1001q0 -159 -67.5 -239t-190.5 -80q-83 0 -140.5 35.5t-88.5 106.5t-31 177v213
q0 106 31.5 177.5t89 106t139.5 34.5q80 0 138 -34.5t89 -106.5t31 -177v-213zM2023 307v213q0 240 -178 240q-180 0 -180 -240v-213q0 -239 180 -239q178 0 178 239zM1348 307v213q0 240 -179 240q-180 0 -180 -240v-213q0 -239 180 -239q87 0 133 58t46 181zM561 1001v213
q0 240 -178 240q-180 0 -180 -240v-213q0 -239 180 -239q178 0 178 239z" />
    <glyph glyph-name="guilsinglleft" unicode="&#x2039;" horiz-adv-x="625" 
d="M516 188q0 -12 -10 -22l-14 -14q-9 -9 -21 -9t-33 15l-364 334q-29 24 -29 59q0 32 29 59l364 334q19 14 33 14q12 0 21 -8l14 -14q10 -10 10 -23q0 -17 -16 -30l-363 -332l363 -332q16 -13 16 -31z" />
    <glyph glyph-name="guilsinglright" unicode="&#x203a;" horiz-adv-x="625" 
d="M580 551q0 -33 -29 -59l-365 -334q-19 -15 -32 -15t-21 9l-14 14q-10 10 -10 22q0 18 16 31l362 332l-362 332q-16 13 -16 30q0 13 10 23l14 14q8 8 21 8q15 0 32 -14l365 -334q29 -29 29 -59z" />
    <glyph glyph-name="uni2044" unicode="&#x2044;" horiz-adv-x="623" 
d="M805 1511q0 -10 -12 -28l-856 -1456q-13 -23 -21 -31t-22 -8h-60q-14 0 -14 10t12 29l856 1456q18 28 24.5 33.5t18.5 5.5h57q17 0 17 -11z" />
    <glyph glyph-name="Euro" unicode="&#x20ac;" 
d="M1067 43q0 -31 -39 -35q-33 -5 -65.5 -9.5t-94 -7.5t-133.5 -3q-96 0 -190.5 30t-173 98t-127.5 181.5t-56 273.5h-90q-16 0 -26.5 9.5t-10.5 23.5v19q0 14 12.5 23t28.5 9h86v219h-90q-16 0 -26.5 9.5t-10.5 23.5v19q0 14 12.5 23t28.5 9h86q10 206 91.5 335t202 184
t253.5 55q129 0 177 -5t116 -16q16 -2 27.5 -11t11.5 -23v-25q0 -25 -27 -25h-12q-156 19 -293 19q-117 0 -217 -50t-165 -159.5t-74 -278.5h673q18 0 27.5 -6.5t9.5 -19.5v-6l-4 -19q-7 -33 -41 -33h-665v-219h608q16 0 26.5 -6.5t10.5 -19.5v-6l-4 -19q-8 -33 -41 -33
h-600q7 -170 72.5 -282.5t166.5 -163.5t217 -51q70 0 150.5 5.5t142.5 12.5h12q27 0 27 -24v-25z" />
    <glyph glyph-name="trademark" unicode="&#x2122;" horiz-adv-x="1569" 
d="M1477 705q0 -21 -21 -21h-37q-18 0 -18 21v522q0 98 -16.5 143t-71.5 63.5t-174 18.5v-747q0 -21 -19 -21h-39q-20 0 -20 21v747q-132 0 -262 -16v-731q0 -21 -19 -21h-37q-20 0 -20 21v778q0 16 16 20q189 23 363 23q147 0 223.5 -20t114 -83.5t37.5 -195.5v-522z
M643 1477q0 -31 -37 -31h-219v-727q0 -14 -10.5 -24.5t-24.5 -10.5h-10q-13 0 -23 11t-10 24v727h-223q-35 0 -35 31v10q0 15 10 24t25 9h520q16 0 26.5 -9t10.5 -24v-10z" />
    <glyph glyph-name="uni2126" unicode="&#x2126;" horiz-adv-x="1573" 
d="M496 160q-108 67 -165 130q-87 96 -134 225.5t-47 286.5q0 196 79.5 360.5t231 252.5t347.5 88q336 0 516 -254q131 -186 131 -448q0 -168 -54 -297.5t-141 -222.5q-53 -58 -149 -121l364 6v-166h-575v177q80 40 124 78q72 61 122 145t75.5 179t25.5 198
q0 138 -49.5 277.5t-150 212.5t-243.5 73q-191 0 -296 -120q-146 -169 -146 -440q0 -217 91 -372.5t251 -227.5v-180h-577v168z" />
    <glyph glyph-name="partialdiff" unicode="&#x2202;" horiz-adv-x="1012" 
d="M426 1138l-135 60q70 157 168 225t192 68q76 0 137.5 -39.5t92.5 -90.5q47 -79 69.5 -187t22.5 -248q0 -288 -86.5 -512.5t-233.5 -331.5t-289 -107q-137 0 -222.5 91t-85.5 256q0 226 153 387q197 207 649 215q-4 168 -24 256t-68 135.5t-113 47.5q-62 0 -121 -49.5
t-106 -175.5zM854 796q-244 -14 -357.5 -68t-187 -176.5t-73.5 -248.5q0 -83 51 -137t119 -54q75 0 160 55q117 76 190.5 234.5t97.5 394.5z" />
    <glyph glyph-name="uni2206" unicode="&#x2206;" horiz-adv-x="1253" 
d="M1227 0h-1200l628 1386zM991 82l-399 967l-440 -967h839z" />
    <glyph glyph-name="product" unicode="&#x220f;" horiz-adv-x="1686" 
d="M161 1491h1362v-1922h-191v1748h-978v-1748h-193v1922z" />
    <glyph glyph-name="summation" unicode="&#x2211;" horiz-adv-x="1460" 
d="M139 1491h1237v-164h-988l607 -775l-649 -822h1040v-161h-1264v187l620 788l-603 772v175z" />
    <glyph glyph-name="minus" unicode="&#x2212;" 
d="M1051 791q0 -33 -41 -33h-830q-41 0 -41 33v20q0 33 41 33h830q41 0 41 -33v-20z" />
    <glyph glyph-name="fraction" unicode="&#x2215;" horiz-adv-x="623" 
d="M805 1511q0 -10 -12 -28l-856 -1456q-13 -23 -21 -31t-22 -8h-60q-14 0 -14 10t12 29l856 1456q18 28 24.5 33.5t18.5 5.5h57q17 0 17 -11z" />
    <glyph glyph-name="periodcentered" unicode="&#x2219;" horiz-adv-x="344" 
d="M217 737q0 -17 -11.5 -28t-27.5 -11h-12q-16 0 -27.5 11.5t-11.5 27.5v152q0 15 12 27t27 12h12q15 0 27 -11t12 -28v-152z" />
    <glyph glyph-name="radical" unicode="&#x221a;" horiz-adv-x="1124" 
d="M1124 1870l-311 -1948l-496 1022l-198 -92l-35 63l301 152l403 -823h5l258 1626h73z" />
    <glyph glyph-name="infinity" unicode="&#x221e;" horiz-adv-x="1460" 
d="M689 812q105 132 164 174q80 58 169 58q105 0 196.5 -76t91.5 -245q0 -118 -34 -185.5t-106 -108.5t-148 -41q-89 0 -169 57q-59 43 -164 175q-136 -171 -289 -171q-101 0 -173.5 76.5t-72.5 190.5q0 113 72.5 190t173.5 77q153 0 289 -171zM758 717q87 -135 159 -185
q46 -33 103 -33q76 0 127.5 56t51.5 158q0 106 -52.5 162t-130.5 56q-49 0 -92 -28q-58 -39 -166 -186zM620 716q-80 100 -128 128.5t-92 28.5q-58 0 -96.5 -41t-38.5 -113q0 -71 40 -113.5t97 -42.5q101 0 218 153z" />
    <glyph glyph-name="integral" unicode="&#x222b;" horiz-adv-x="561" 
d="M561 1755q0 -29 -12.5 -53t-34 -36.5t-47.5 -12.5q-36 0 -76 35q-20 20 -39 20q-41 0 -41 -63q0 -46 11 -146q18 -204 27 -371t9 -294l-2 -121l-14 -471q-6 -190 -49 -320q-22 -67 -68 -104t-106 -37q-54 0 -86.5 33.5t-32.5 87.5q0 44 25 71t65 27q42 0 70 -33
q13 -14 24 -22t25 -8q39 0 39 61q0 37 -10 119q-20 170 -29 395q-3 104 -6 229q-2 70 -2 154l16 553q6 191 66 317q19 40 63.5 69.5t87.5 29.5q31 0 61.5 -15t48 -41t17.5 -53z" />
    <glyph glyph-name="approxequal" unicode="&#x2248;" horiz-adv-x="1124" 
d="M51 738v205q106 120 278 120q60 0 125.5 -17t188.5 -70q69 -30 103.5 -38.5t69.5 -8.5q65 0 134.5 39t123.5 98v-212q-64 -60 -129.5 -87t-147.5 -27q-60 0 -114 13.5t-173 67t-198 53.5q-64 0 -120.5 -27.5t-140.5 -108.5zM51 376v205q106 120 278 120q60 0 125.5 -17
t188.5 -70q69 -29 103.5 -38t69.5 -9q65 0 134.5 39t123.5 98v-212q-64 -60 -129.5 -87t-147.5 -27q-60 0 -114 14t-173 67t-198 53q-64 0 -120.5 -27.5t-140.5 -108.5z" />
    <glyph glyph-name="notequal" unicode="&#x2260;" horiz-adv-x="1124" 
d="M495 417l-194 -445h-136l195 445h-282v168h356l122 277h-478v168h551l196 444h134l-195 -444h282v-168h-356l-121 -277h477v-168h-551z" />
    <glyph glyph-name="lessequal" unicode="&#x2264;" horiz-adv-x="1124" 
d="M77 762v168l971 410v-180l-770 -315l770 -319v-179zM1046 106h-968v167h968v-167z" />
    <glyph glyph-name="greaterequal" unicode="&#x2265;" horiz-adv-x="1124" 
d="M1048 762l-971 -415v179l769 319l-769 315v180l971 -410v-168zM1046 106h-968v167h968v-167z" />
    <glyph glyph-name="lozenge" unicode="&#x25ca;" horiz-adv-x="1012" 
d="M549 1422l418 -713l-418 -709h-111l-391 709l391 713h111zM495 1325l-340 -616l340 -615l359 615z" />
    <glyph glyph-name="uniF001" unicode="&#xf001;" horiz-adv-x="1169" 
d="M1006 1341q0 -15 -11.5 -26.5t-27.5 -11.5h-13q-16 0 -27.5 11.5t-11.5 26.5v152q0 15 12 27t27 12h13q15 0 27 -12t12 -27v-152zM1006 39q0 -15 -12 -27t-27 -12h-13q-15 0 -27 12t-12 27v1022q0 15 12 27t27 12h13q15 0 27 -12t12 -27v-1022zM700 1479q0 -27 -43 -27
h-102q-50 0 -80.5 -15t-45.5 -51t-15 -96v-190h243q18 0 28.5 -9t10.5 -24v-18q0 -33 -39 -33h-243v-977q0 -16 -11.5 -27.5t-25.5 -11.5h-15q-15 0 -26.5 11.5t-11.5 27.5v977h-203q-39 0 -39 33v18q0 15 11 24t28 9h203v190q0 128 58.5 185t172.5 57q67 0 107 -6
q38 -5 38 -33v-14z" />
    <glyph glyph-name="uniF001" unicode="&#xfb01;" horiz-adv-x="1169" 
d="M1006 1341q0 -15 -11.5 -26.5t-27.5 -11.5h-13q-16 0 -27.5 11.5t-11.5 26.5v152q0 15 12 27t27 12h13q15 0 27 -12t12 -27v-152zM1006 39q0 -15 -12 -27t-27 -12h-13q-15 0 -27 12t-12 27v1022q0 15 12 27t27 12h13q15 0 27 -12t12 -27v-1022zM700 1479q0 -27 -43 -27
h-102q-50 0 -80.5 -15t-45.5 -51t-15 -96v-190h243q18 0 28.5 -9t10.5 -24v-18q0 -33 -39 -33h-243v-977q0 -16 -11.5 -27.5t-25.5 -11.5h-15q-15 0 -26.5 11.5t-11.5 27.5v977h-203q-39 0 -39 33v18q0 15 11 24t28 9h203v190q0 128 58.5 185t172.5 57q67 0 107 -6
q38 -5 38 -33v-14z" />
    <glyph glyph-name="uniF002" unicode="&#xf002;" horiz-adv-x="1169" 
d="M1006 39q0 -15 -10 -27t-25 -12h-21q-15 0 -25 12t-10 27v1456q0 15 9.5 27t25.5 12h21q16 0 25.5 -12t9.5 -27v-1456zM700 1479q0 -27 -43 -27h-102q-50 0 -80.5 -15t-45.5 -51t-15 -96v-190h243q18 0 28.5 -9t10.5 -24v-18q0 -33 -39 -33h-243v-977q0 -16 -11.5 -27.5
t-25.5 -11.5h-15q-15 0 -26.5 11.5t-11.5 27.5v977h-203q-39 0 -39 33v18q0 15 11 24t28 9h203v190q0 128 58.5 185t172.5 57q67 0 107 -6q38 -5 38 -33v-14z" />
    <glyph glyph-name="uniF002" unicode="&#xfb02;" horiz-adv-x="1169" 
d="M1006 39q0 -15 -10 -27t-25 -12h-21q-15 0 -25 12t-10 27v1456q0 15 9.5 27t25.5 12h21q16 0 25.5 -12t9.5 -27v-1456zM700 1479q0 -27 -43 -27h-102q-50 0 -80.5 -15t-45.5 -51t-15 -96v-190h243q18 0 28.5 -9t10.5 -24v-18q0 -33 -39 -33h-243v-977q0 -16 -11.5 -27.5
t-25.5 -11.5h-15q-15 0 -26.5 11.5t-11.5 27.5v977h-203q-39 0 -39 33v18q0 15 11 24t28 9h203v190q0 128 58.5 185t172.5 57q67 0 107 -6q38 -5 38 -33v-14z" />
    <glyph glyph-name="uniF006" unicode="&#xf006;" horiz-adv-x="1413" 
d="M505 916v-916h-180v916h-280v146h1324v-146h-242v-916h-180v916h-442z" />
    </font>
</defs>
</svg>
