<?xml version="1.0" standalone="no"?>
<!DOCTYPE svg PUBLIC "-//W3C//DTD SVG 1.1//EN" "http://www.w3.org/Graphics/SVG/1.1/DTD/svg11.dtd" >
<svg xmlns="http://www.w3.org/2000/svg" xmlns:xlink="http://www.w3.org/1999/xlink" version="1.1">
<metadata>
Created by FontForge 20170731 at Fri Nov 21 20:38:47 2014
 By Aleksey,,,
(c)levi@loremipsum.ro
</metadata>
<defs>
<font id="FashionFetishSmallCaps" horiz-adv-x="975" >
  <font-face 
    font-family="Fashion Fetish Small Caps"
    font-weight="300"
    font-variant="small-caps"
    font-stretch="normal"
    units-per-em="1000"
    panose-1="2 0 0 0 0 0 0 0 0 0"
    ascent="800"
    descent="-200"
    x-height="650"
    cap-height="825"
    bbox="-200 -401 1925 1135"
    underline-thickness="100"
    underline-position="-250"
    unicode-range="U+0020-FB06"
  />
<missing-glyph horiz-adv-x="650" 
d="M125 800v-775h400v775h-400zM100 825h450v-825h-450v825z" />
    <glyph glyph-name=".notdef" horiz-adv-x="650" 
d="M125 800v-775h400v775h-400zM100 825h450v-825h-450v825z" />
    <glyph glyph-name=".null" horiz-adv-x="0" 
 />
    <glyph glyph-name="nonmarkingreturn" horiz-adv-x="150" 
 />
    <glyph glyph-name="space" unicode=" " horiz-adv-x="400" 
 />
    <glyph glyph-name="space" unicode="&#xa0;" horiz-adv-x="400" 
 />
    <glyph glyph-name="exclam" unicode="!" horiz-adv-x="225" 
d="M125 75v-75h-25v75h25zM125 825v-675h-25v675h25z" />
    <glyph glyph-name="quote" unicode="&#x22;" horiz-adv-x="300" 
d="M52 751l47 175h27l-47 -175h-27zM175 751l47 175h27l-47 -175h-27z" />
    <glyph glyph-name="numbersign" unicode="#" horiz-adv-x="650" 
d="M150 150v525h-100v25h100v125h25v-125h300v125h25v-125h100v-25h-100v-525h100v-25h-100v-125h-25v125h-300v-125h-25v125h-100v25h100zM175 675v-525h300v525h-300z" />
    <glyph glyph-name="dollar" unicode="$" horiz-adv-x="700" 
d="M357 428l145 -38q80 -22 122 -93q27 -47 27 -98q0 -26 -8 -54q-14 -56 -53 -93l-1 1q-81 -78 -199 -86q-17 -1 -33 -1v-91h-25v92q-118 8 -208 79q-58 53 -86 106l23 11q25 -49 80 -98q82 -66 191 -73v417l-78 21q-90 24 -136 95q-31 47 -31 102q0 28 8 59q24 90 104 137
q53 30 109 34l24 2v91h25v-91q86 -3 165 -44q54 -32 101 -86l-21 -14q-43 50 -93 78q-74 38 -152 41v-406zM332 834q-11 -1 -23 -2q-50 -4 -97 -31q-72 -42 -93 -122q-8 -28 -8 -53q0 -48 28 -88q41 -62 121 -84l72 -19v399zM357 -9q15 0 31 1q108 7 183 79q35 32 48 80
q7 24 7 48q0 44 -24 86q-37 62 -107 80l-138 37v-411z" />
    <glyph glyph-name="percent" unicode="%" horiz-adv-x="1200" 
d="M449 -100l275 1025h26l-275 -1025h-26zM434 883q66 -66 66 -159t-66 -159t-159 -66t-159 66t-66 159t66 159t159 66t159 -66zM275 924q-83 0 -141.5 -58.5t-58.5 -141.5t58.5 -141.5t141.5 -58.5t141.5 58.5t58.5 141.5t-58.5 141.5t-141.5 58.5zM1084 259
q66 -66 66 -159t-66 -159t-159 -66t-159 66t-66 159t66 159t159 66t159 -66zM925 300q-83 0 -141.5 -58.5t-58.5 -141.5t58.5 -141.5t141.5 -58.5t141.5 58.5t58.5 141.5t-58.5 141.5t-141.5 58.5z" />
    <glyph glyph-name="amp" unicode="&#x26;" horiz-adv-x="875" 
d="M233 631l102 -131q76 47 144 101q57 44 66 115q10 73 -35 130t-116 66q-72 10 -129.5 -34t-66.5 -117q-7 -68 35 -130zM100 190v-3q0 -108 77 -185t185 -77q109 0 186 77q44 44 63 98l-283 367q-79 -45 -139 -96q-89 -78 -89 -181zM708 -25l-79 102q-21 -50 -63 -92
q-84 -84 -204 -84q-119 0 -203 84t-84 203v2q1 116 97 199q61 53 141 98l-100 128q-48 70 -40 149q11 83 76.5 133.5t147.5 39.5q83 -11 133.5 -76.5t39.5 -147.5t-76 -132q-68 -54 -144 -101l269 -350q6 28 6 57v264h200v-25h-175v-238q0 -44 -11 -83l100 -130h-31z" />
    <glyph glyph-name="quotesingle" unicode="'" horiz-adv-x="175" 
d="M52 749l47 175h27l-47 -175h-27z" />
    <glyph glyph-name="parenleft" unicode="(" horiz-adv-x="250" 
d="M170 925q-70 -256 -70 -512q0 -257 70 -513h-25q-70 256 -70 513q0 256 70 512h25z" />
    <glyph glyph-name="parenright" unicode=")" horiz-adv-x="250" 
d="M75 -100q70 256 70 512q0 257 -70 513h25q70 -256 70 -513q0 -256 -70 -512h-25z" />
    <glyph glyph-name="asterisk" unicode="*" horiz-adv-x="525" 
d="M250 693v182h25v-183l174 57l8 -24l-175 -57l108 -148l-20 -15l-108 148l-107 -147l-20 14l108 148l-174 57l8 24z" />
    <glyph glyph-name="plus" unicode="+" horiz-adv-x="675" 
d="M350 425h250v-25h-250v-250h-25v250h-250v25h250v250h25v-250z" />
    <glyph glyph-name="comma" unicode="," horiz-adv-x="175" 
d="M52 -101l47 175h27l-47 -175h-27z" />
    <glyph glyph-name="hyphen" unicode="-" horiz-adv-x="400" 
d="M326 425v-25h-250v25h250z" />
    <glyph glyph-name="period" unicode="." horiz-adv-x="175" 
d="M99 75v-75h-25v75h25z" />
    <glyph glyph-name="slash" unicode="/" horiz-adv-x="350" 
d="M25 -100l275 1025h26l-275 -1025h-26z" />
    <glyph glyph-name="zero" unicode="0" horiz-adv-x="925" 
d="M727 695q-110 105 -264 105q-161 0 -274.5 -113.5t-113.5 -273.5q0 -155 105 -265zM198 130q110 -105 265 -105q160 0 273.5 113.5t113.5 274.5q0 154 -105 264zM875 413q0 -171 -121 -292t-291 -121q-171 0 -292 121t-121 292q0 170 121 291t292 121q170 0 291 -121
t121 -291z" />
    <glyph glyph-name="one" unicode="1" horiz-adv-x="450" 
d="M250 25h150v-25h-325v25h150v750l-101 -175h-29l130 225h25v-800z" />
    <glyph glyph-name="two" unicode="2" horiz-adv-x="600" 
d="M79 25h471v-25h-496l-4 -4v35l409 410q66 66 66 159t-66 159t-159 66t-159 -66t-66 -159h-25q0 104 73 177t177 73t177 -73t73 -177t-73 -177z" />
    <glyph glyph-name="three" unicode="3" horiz-adv-x="625" 
d="M311 425v25h1q77 0 132 55t55 133q0 77 -55 132t-132 55q-78 0 -133 -55q-51 -51 -55 -120h-25q4 80 62 138q62 62 151 62q88 0 150 -62t62 -150q0 -89 -62 -151q-33 -33 -74 -49q51 -16 93 -57q69 -70 69 -168q0 -99 -69.5 -168.5t-167.5 -69.5q-99 0 -168.5 69.5
t-69.5 168.5v12h25v-12q0 -89 62 -151t151 -62q88 0 150 62t62 151q0 88 -62 150t-150 62h-2z" />
    <glyph glyph-name="four" unicode="4" horiz-adv-x="650" 
d="M450 200v625h25v-625h150v-25h-150v-175h-25v175h-400v25h1l228 625h26l-228 -625h373z" />
    <glyph glyph-name="five" unicode="5" horiz-adv-x="650" 
d="M573 825v-25h-386l-76 -286q78 61 181 61q124 0 212 -88t88 -212t-88 -212t-212 -88t-212 88q-17 17 -30 35l20 15q12 -17 28 -32q80 -81 194 -81t194.5 80.5t80.5 194.5t-80.5 194.5t-194.5 80.5q-113 0 -193 -79v-1h-1l-23 6l94 349h404z" />
    <glyph glyph-name="six" unicode="6" horiz-adv-x="600" 
d="M525 225q0 93 -66 159t-159 66t-159 -66t-66 -159t66 -159t159 -66t159 66t66 159zM83 350q16 28 40 52q73 73 177 73t177 -73t73 -177t-73 -177t-177 -73t-177 73t-73 177v25q0 259 183 442q137 137 317 172v-26q-170 -34 -299 -163q-140 -140 -168 -325z" />
    <glyph glyph-name="seven" unicode="7" horiz-adv-x="525" 
d="M500 800l-291 -800h-27l291 800h-473v25h500v-25z" />
    <glyph glyph-name="eight" unicode="8" horiz-adv-x="625" 
d="M313 825q-78 0 -133 -55t-55 -132q0 -78 55 -133t133 -55q77 0 132 55t55 133q0 77 -55 132t-132 55zM314 425q-89 0 -151 -62t-62 -150q0 -89 62 -151t151 -62q88 0 150 62t62 151q0 88 -62 150t-150 62zM237 438q-41 15 -75 49q-62 62 -62 151q0 88 62 150t151 62
q88 0 150 -62t62 -150q0 -89 -62 -151q-33 -33 -74 -49q51 -16 93 -57q69 -70 69 -168q0 -99 -69.5 -168.5t-167.5 -69.5q-99 0 -168.5 69.5t-69.5 168.5q0 98 70 168q40 40 91 57z" />
    <glyph glyph-name="nine" unicode="9" horiz-adv-x="600" 
d="M75 600q0 -93 66 -159t159 -66t159 66t66 159t-66 159t-159 66t-159 -66t-66 -159zM517 475q-16 -28 -40 -52q-73 -73 -177 -73t-177 73t-73 177t73 177t177 73t177 -73t73 -177v-25q0 -259 -183 -442q-137 -137 -317 -172v26q170 34 299 163q140 140 168 325z" />
    <glyph glyph-name="colon" unicode=":" horiz-adv-x="225" 
d="M75 250v-75h-25v75h25zM75 600v-75h-25v75h25z" />
    <glyph glyph-name="semicolon" unicode=";" horiz-adv-x="225" 
d="M50 -101l47 175h27l-47 -175h-27zM125 600v-75h-25v75h25z" />
    <glyph glyph-name="lt" unicode="&#x3c;" horiz-adv-x="500" 
d="M363 125l-288 287l18 18l270 270h35l-288 -288l287 -287h-34z" />
    <glyph glyph-name="equal" unicode="=" horiz-adv-x="675" 
d="M600 550v-25h-525v25h525zM600 301v-25h-525v25h525z" />
    <glyph glyph-name="gt" unicode="&#x3e;" horiz-adv-x="525" 
d="M135 700l288 -287l-18 -18l-270 -270h-35l288 288l-287 287h34z" />
    <glyph glyph-name="question" unicode="?" horiz-adv-x="575" 
d="M270 75v-75h-25v75h25zM25 625q8 88 72 152q73 73 177 73t177 -73t73 -177t-72 -176v-1l-116 -116q-65 -65 -66 -157h-25q1 102 72 174l1 1l116 116h-1q66 66 66 159t-66 159t-159 66t-159 -66q-57 -57 -65 -134h-25z" />
    <glyph glyph-name="commat" unicode="@" horiz-adv-x="1100" 
d="M600 150q149 0 255 106q26 26 45 54l-44 165q-16 69 -70 123q-77 77 -186 77h-12q-109 0 -186 -77t-77 -185q0 -109 77 -186t186 -77h12zM909 279q-17 -21 -36 -40q-114 -114 -273 -114h-12q-120 0 -204 84t-84 204q0 119 84 203t204 84h12q120 0 204 -84q61 -61 78 -141
l36 -136q43 78 43 174q0 150 -106 256t-255 106h-12q-192 0 -327.5 -135.5t-135.5 -326.5q0 -192 135.5 -327.5t327.5 -135.5h112v-25h-112q-202 0 -345 143t-143 345q0 201 143 344t345 143h12q159 0 273 -113q113 -114 113 -274q0 -116 -59 -207l60 -224l-24 -6z" />
    <glyph glyph-name="A" unicode="A" horiz-adv-x="825" 
d="M710 160l-298 639l-298 -639h596zM428 825l385 -825h-28l-63 135h-620l-63 -135h-28l385 825h32z" />
    <glyph glyph-name="B" unicode="B" horiz-adv-x="750" 
d="M125 800v-375h325q77 0 132 55t55 133q0 77 -55 132t-132 55h-325zM125 400v-375h350q77 0 132 55t55 133q0 77 -55 132t-132 55h-350zM100 825h350q88 0 150 -62t62 -150q0 -89 -62 -151q-30 -30 -65 -45q50 -14 90 -54q62 -62 62 -150q0 -89 -62 -151t-150 -62h-375
v825z" />
    <glyph glyph-name="C" unicode="C" horiz-adv-x="875" 
d="M797 103q-128 -128 -309 -128q-182 0 -310 128t-128 310q0 181 128 309t310 128q181 0 309 -128l-18 -18q-121 121 -291 121q-171 0 -292 -121t-121 -291q0 -171 121 -292t292 -121q170 0 291 121z" />
    <glyph glyph-name="D" unicode="D" horiz-adv-x="900" 
d="M125 800v-776h299v1q161 0 274 114q113 113 113 273q0 161 -113 275q-113 113 -274 113h-299zM100 825h324q171 0 291 -121q121 -121 121 -292q0 -170 -121 -291q-120 -121 -290 -121v-1h-325v826z" />
    <glyph glyph-name="E" unicode="E" horiz-adv-x="625" 
d="M100 825h475v-25h-450v-375h350v-25h-350v-375h450v-25h-475v825z" />
    <glyph glyph-name="F" unicode="F" horiz-adv-x="600" 
d="M100 825h475v-25h-450v-375h350v-25h-350v-400h-25v825z" />
    <glyph glyph-name="G" unicode="G" horiz-adv-x="875" 
d="M797 103q-128 -128 -309 -128q-182 0 -310 128t-128 310q0 181 128 309t310 128q181 0 309 -128l-18 -18q-121 121 -291 121q-171 0 -292 -121t-121 -291q0 -171 121 -292t292 -121q165 0 284 114v286h-300v25h325v-322z" />
    <glyph glyph-name="H" unicode="H" horiz-adv-x="875" 
d="M125 400v-400h-25v825h25v-400h625v400h25v-825h-25v400h-625z" />
    <glyph glyph-name="I" unicode="I" horiz-adv-x="225" 
d="M125 825v-825h-25v825h25z" />
    <glyph glyph-name="J" unicode="J" horiz-adv-x="375" 
d="M275 325v500h25v-500q0 -135 -95 -230t-230 -95v25q125 0 213 88q87 88 87 212z" />
    <glyph glyph-name="K" unicode="K" horiz-adv-x="625" 
d="M125 825v-825h-25v825h25zM257 413l299 -413h-32l-299 413l299 412h32z" />
    <glyph glyph-name="L" unicode="L" horiz-adv-x="550" 
d="M100 825h25v-800h450v-25h-475v825z" />
    <glyph glyph-name="M" unicode="M" horiz-adv-x="1033" 
d="M125 791v-791h-25v825h32l384 -529l384 529h32v-825h-25v791l-374 -516h-34z" />
    <glyph glyph-name="N" unicode="N" horiz-adv-x="832" 
d="M125 791v-791h-25v825h32l574 -791v791h25v-825h-32z" />
    <glyph glyph-name="O" unicode="O" 
d="M797 722q128 -128 128 -309q0 -182 -128 -310t-309 -128q-182 0 -310 128t-128 310q0 181 128 309t310 128q181 0 309 -128zM488 825q-171 0 -292 -121t-121 -291q0 -171 121 -292t292 -121q170 0 291 121t121 292q0 170 -121 291t-291 121z" />
    <glyph glyph-name="P" unicode="P" horiz-adv-x="725" 
d="M125 800v-550h250q114 0 194.5 80.5t80.5 194.5t-80.5 194.5t-194.5 80.5h-250zM100 825h275q124 0 212 -88t88 -212t-88 -212t-212 -88h-250v-225h-25v825z" />
    <glyph glyph-name="Q" unicode="Q" 
d="M797 722q128 -128 128 -309q0 -182 -128 -310t-309 -128q-182 0 -310 128t-128 310q0 181 128 309t310 128q181 0 309 -128zM488 825q-171 0 -292 -121t-121 -291q0 -171 121 -292t292 -121q170 0 291 121t121 292q0 170 -121 291t-291 121zM489 429l436 -436l-18 -18
l-436 436z" />
    <glyph glyph-name="R" unicode="R" horiz-adv-x="775" 
d="M125 800v-550h275q114 0 194.5 80.5t80.5 194.5t-80.5 194.5t-194.5 80.5h-275zM100 825h300q124 0 212 -88t88 -212t-88 -212q-41 -41 -90 -63l144 -250h-30l-138 240q-46 -15 -98 -15h-275v-225h-25v825z" />
    <glyph glyph-name="S" unicode="S" horiz-adv-x="700" 
d="M586 51q-81 -78 -199 -86q-14 -1 -28 -1q-137 0 -238 80q-58 53 -86 106l23 11q25 -49 80 -98q93 -74 219 -74q14 0 28 1q108 7 183 79q35 32 48 80q7 24 7 48q0 44 -24 86q-37 62 -107 80l-241 65q-90 24 -136 95q-31 47 -31 102q0 28 8 59q24 90 104 137q53 30 109 34
q19 2 38 2q92 0 176 -44q54 -32 101 -86l-21 -14q-43 50 -93 78q-79 41 -163 41q-18 0 -37 -2q-50 -4 -97 -31q-72 -42 -93 -122q-8 -28 -8 -53q0 -48 28 -88q41 -62 121 -84l242 -64q80 -22 122 -93q27 -47 27 -98q0 -26 -8 -54q-14 -56 -53 -93z" />
    <glyph glyph-name="T" unicode="T" horiz-adv-x="525" 
d="M525 825v-25h-250v-800h-25v800h-250v25h525z" />
    <glyph glyph-name="U" unicode="U" horiz-adv-x="800" 
d="M75 325v500h25v-500q0 -124 88 -212t212 -88t212 88t88 212v500h25v-500q0 -135 -95 -230t-230 -95t-230 95t-95 230z" />
    <glyph glyph-name="V" unicode="V" horiz-adv-x="625" 
d="M300 0l-300 825h27l290 -796l289 796h27l-300 -825h-33z" />
    <glyph glyph-name="W" unicode="W" horiz-adv-x="1175" 
d="M587 616l-234 -616h-33l-310 825h27l300 -796l237 624h27l237 -624l299 796h27l-310 -825h-33z" />
    <glyph glyph-name="X" unicode="X" horiz-adv-x="700" 
d="M366 413l299 -413h-32l-283 390l-284 -390h-32l300 413l-300 412h32l284 -390l283 390h32z" />
    <glyph glyph-name="Y" unicode="Y" horiz-adv-x="625" 
d="M325 306v-306h-25v306l-300 519h29l284 -491l283 491h29z" />
    <glyph glyph-name="Z" unicode="Z" horiz-adv-x="650" 
d="M589 800h-563v25h594v-25l-563 -775h563v-25h-594v25z" />
    <glyph glyph-name="bracketleft" unicode="[" horiz-adv-x="350" 
d="M275 950v-25h-150v-1025h150v-25h-175v1075h175z" />
    <glyph glyph-name="backslash" unicode="\" horiz-adv-x="350" 
d="M325 -100l-275 1025h-26l275 -1025h26z" />
    <glyph glyph-name="bracketright" unicode="]" horiz-adv-x="325" 
d="M50 950v-25h150v-1025h-150v-25h175v1075h-175z" />
    <glyph glyph-name="Hat" unicode="^" horiz-adv-x="550" 
d="M50 750l225 225l18 -17l207 -208h-36l-189 190l-190 -190h-35z" />
    <glyph glyph-name="underscore" unicode="_" horiz-adv-x="725" 
d="M649 0v-25h-574v25h574z" />
    <glyph glyph-name="grave" unicode="`" horiz-adv-x="175" 
d="M125 775l-47 175h-27l47 -175h27z" />
    <glyph glyph-name="a" unicode="a" horiz-adv-x="675" 
d="M118 150h443l-222 474zM573 125h-467l-58 -125h-28l303 650h32l304 -650h-28z" />
    <glyph glyph-name="b" unicode="b" horiz-adv-x="625" 
d="M100 650h295q66 -1 113 -47q47 -48 47 -115q0 -68 -47 -115q-23 -23 -50 -35q33 -12 60 -39q51 -51 51 -124q0 -72 -51 -123q-52 -52 -123 -52h-295v650zM125 325v-300h270q61 0 105 44t44 106t-44 106t-105 44h-270zM125 625v-275h270q55 1 95 41t40 97q0 56 -40 97
q-40 39 -95 40h-270z" />
    <glyph glyph-name="c" unicode="c" horiz-adv-x="700" 
d="M625 90l17 -18q-101 -97 -242 -97q-145 0 -247.5 102.5t-102.5 247.5t102.5 247.5t247.5 102.5t248 -102q1 -2 3 -4l-18 -17l-3 3q-95 95 -230 95t-230 -95t-95 -230t95 -230t230 -95q132 0 225 90z" />
    <glyph glyph-name="d" unicode="d" horiz-adv-x="700" 
d="M325 650q135 0 230 -95t95 -230t-95 -230t-230 -95h-225v650h225zM325 25q124 0 212 88t88 212t-88 212t-212 88h-200v-600h200z" />
    <glyph glyph-name="e" unicode="e" horiz-adv-x="575" 
d="M100 650h425v-25h-400v-287h300v-25h-300v-288h400v-25h-425v650z" />
    <glyph glyph-name="f" unicode="f" horiz-adv-x="575" 
d="M100 650h425v-25h-400v-287h300v-25h-300v-313h-25v650z" />
    <glyph glyph-name="g" unicode="g" horiz-adv-x="700" 
d="M642 72q-101 -97 -242 -97q-145 0 -247.5 102.5t-102.5 247.5t102.5 247.5t247.5 102.5t248 -102q1 -2 3 -4l-18 -17l-3 3q-95 95 -230 95t-230 -95t-95 -230t95 -230t230 -95q126 0 217 82v243h-250v25h275v-278z" />
    <glyph glyph-name="h" unicode="h" horiz-adv-x="725" 
d="M125 326v-326h-25v650h25v-299h475v299h25v-650h-25v326h-475z" />
    <glyph glyph-name="i" unicode="i" horiz-adv-x="225" 
d="M125 650v-650h-25v650h25z" />
    <glyph glyph-name="j" unicode="j" horiz-adv-x="250" 
d="M175 200q0 -83 -58.5 -141.5t-141.5 -58.5v25q72 0 123.5 51.5t51.5 123.5v450h25v-450z" />
    <glyph glyph-name="k" unicode="k" horiz-adv-x="550" 
d="M125 650v-650h-25v650h25zM257 325l236 -325h-31l-236 325l236 325h31z" />
    <glyph glyph-name="l" unicode="l" horiz-adv-x="450" 
d="M100 650h25v-625h350v-25h-375v650z" />
    <glyph glyph-name="m" unicode="m" horiz-adv-x="850" 
d="M125 615v-616h-25v650h32l294 -405l293 405h32v-650h-25v616l-284 -392h-33z" />
    <glyph glyph-name="n" unicode="n" horiz-adv-x="700" 
d="M129 650l447 -616v616h25v-650h-32l-444 611v-611h-25v650h29z" />
    <glyph glyph-name="o" unicode="o" horiz-adv-x="800" 
d="M647.5 572.5q102.5 -102.5 102.5 -247.5t-102.5 -247.5t-247.5 -102.5t-247.5 102.5t-102.5 247.5t102.5 247.5t247.5 102.5t247.5 -102.5zM400 650q-135 0 -230 -95t-95 -230t95 -230t230 -95t230 95t95 230t-95 230t-230 95z" />
    <glyph glyph-name="p" unicode="p" horiz-adv-x="625" 
d="M125 625v-450h200q93 0 159 66t66 159t-66 159t-159 66h-200zM100 650h225q104 0 177 -73t73 -177t-73 -177t-177 -73h-200v-150h-25v650z" />
    <glyph glyph-name="q" unicode="q" horiz-adv-x="800" 
d="M639 104q86 93 86 221q0 135 -95 230t-230 95t-230 -95t-95 -230t95 -230t230 -95q129 0 221 86l-242 243l18 18zM638 69q-99 -94 -238 -94q-145 0 -247.5 102.5t-102.5 247.5t102.5 247.5t247.5 102.5t247.5 -102.5t102.5 -247.5q0 -138 -94 -238l94 -94l-18 -18z" />
    <glyph glyph-name="r" unicode="r" horiz-adv-x="675" 
d="M125 625v-450h220q93 0 159 66t66 159t-66 159t-159 66h-220zM100 650h245q104 0 177 -73t73 -177t-73 -177q-36 -36 -79 -54l98 -169h-30l-93 160q-34 -10 -73 -10h-220v-150h-25v650z" />
    <glyph glyph-name="s" unicode="s" horiz-adv-x="575" 
d="M487 244q24 -40 24 -87q0 -21 -5 -43q-17 -73 -79 -111q-47 -26 -100 -34q-29 -4 -57 -4q-113 0 -215 59q-3 2 -5 3l15 21l4 -4q96 -53 203 -53q25 0 52 3q45 5 91 30q52 33 66 96q5 20 5 38q0 39 -20 73q-30 49 -97 69l-169 40v-1q-82 23 -119 79q-27 39 -27 88
q0 19 4 40q17 65 69.5 101t136.5 38h7q131 0 230 -68q1 -2 4 -4l-19 -18q0 2 -2 5q-92 60 -212 60h-8q-77 -2 -122.5 -33.5t-59.5 -85.5q-4 -19 -4 -36q0 -41 24 -74q33 -47 103 -68v1l171 -40q76 -21 111 -80z" />
    <glyph glyph-name="t" unicode="t" horiz-adv-x="425" 
d="M425 650v-25h-200v-625h-25v625h-200v25h425z" />
    <glyph glyph-name="u" unicode="u" horiz-adv-x="650" 
d="M550 225v425h25v-425q0 -104 -73 -177t-177 -73t-177 73t-73 177v425h25v-425q0 -93 66 -159t159 -66t159 66t66 159z" />
    <glyph glyph-name="v" unicode="v" horiz-adv-x="500" 
d="M237 0l-236 650h28l223 -613l222 613h28l-236 -650h-29z" />
    <glyph glyph-name="w" unicode="w" 
d="M237 0l-236 650h28l223 -613l222 613h30l223 -613l222 613h28l-236 -650h-29l-223 614l-223 -614h-29z" />
    <glyph glyph-name="x" unicode="x" horiz-adv-x="525" 
d="M279 325l236 -325h-31l-220 304l-221 -304h-31l236 325l-236 325h31l221 -304l220 304h31z" />
    <glyph glyph-name="y" unicode="y" horiz-adv-x="575" 
d="M300 181v-181h-25v181l-271 469h29l255 -441l254 441h29z" />
    <glyph glyph-name="z" unicode="z" horiz-adv-x="600" 
d="M542 625h-516v25h550v-25l-516 -600h516v-25h-550v25z" />
    <glyph glyph-name="braceleft" unicode="{" horiz-adv-x="350" 
d="M150 839q0 83 59 142q30 30 66 44v-27q-27 -13 -49 -35q-51 -51 -51 -124v-364q0 -31 -22 -53q-5 -5 -11 -10q6 -4 11 -9q22 -22 22 -53v-364q0 -73 51 -124q22 -23 49 -35v-27q-37 14 -67 44q-58 59 -58 142v364q0 21 -14.5 35.5t-35.5 14.5v25q21 0 35.5 14.5
t14.5 35.5v364z" />
    <glyph glyph-name="verbar" unicode="|" horiz-adv-x="225" 
d="M125 925v-1025h-25v1025h25z" />
    <glyph glyph-name="braceright" unicode="}" horiz-adv-x="350" 
d="M200 -14q0 -83 -59 -142q-30 -30 -66 -44v27q27 13 49 35q51 51 51 124v364q0 31 22 53q5 5 11 10q-6 4 -11 9q-22 22 -22 53v364q0 73 -51 124q-22 23 -49 35v27q37 -14 67 -44q58 -59 58 -142v-364q0 -21 14.5 -35.5t35.5 -14.5v-25q-21 0 -35.5 -14.5t-14.5 -35.5
v-364z" />
    <glyph glyph-name="asciitilde" unicode="~" horiz-adv-x="625" 
d="M550 437v-25q-71 -22 -142 -22q-48 0 -95 10q-48 10 -95 10q-72 0 -143 -22v25q71 22 143 22q47 0 95 -10q47 -10 95 -10q71 0 142 22z" />
    <glyph glyph-name="exclamdown" unicode="&#xa1;" horiz-adv-x="225" 
d="M100 575v75h25v-75h-25zM100 -175v675h25v-675h-25z" />
    <glyph glyph-name="cent" unicode="&#xa2;" horiz-adv-x="725" 
d="M283 20q54 -20 117 -20q132 0 225 90l17 -18q-101 -97 -242 -97q-66 0 -123 21l-26 -96h-26l28 106q-54 25 -100 72q-103 102 -103 247t102.5 247.5t247.5 102.5q17 0 33 -1l20 76h26l-21 -79q108 -17 190 -98q1 -2 3 -4l-18 -17l-3 3q-76 76 -179 91zM426 649
q-13 1 -26 1q-135 0 -230 -95t-95 -230t95 -230q41 -41 90 -65z" />
    <glyph glyph-name="pound" unicode="&#xa3;" horiz-adv-x="725" 
d="M208 25h441v-25h-549v25h26q51 0 88 37q36 36 36 88q0 18 -4 33l-45 167h-76v25h70l-51 187q-8 30 -8 63q0 93 66 159t159 66t159 -66t66 -159h-25q0 83 -58.5 141.5t-141.5 58.5t-141.5 -58.5t-58.5 -141.5q0 -31 8 -58l51 -192h255v-25h-248l43 -160q5 -19 5 -40
q0 -62 -44 -106q-11 -11 -23 -19z" />
    <glyph glyph-name="curren" unicode="&#xa4;" horiz-adv-x="725" 
d="M174 598q-77 -77 -77 -185q0 -109 77 -186t186 -77t186 77q76 77 76 186q0 108 -76 185q-77 77 -186 77t-186 -77zM554 624l78 78l18 -17l-78 -78q75 -81 75 -194q0 -114 -75 -195l77 -77l-18 -18l-77 78q-81 -76 -194 -76t-194 76l-78 -78l-18 18l78 77q-76 81 -76 195
q0 112 76 193l-78 79l18 17l78 -78q81 76 194 76t194 -76z" />
    <glyph glyph-name="yen" unicode="&#xa5;" horiz-adv-x="525" 
d="M276 125v-125h-21v125h-127v25h127v150h-127v25h118l-246 500h25l241 -491l241 491h24l-246 -500h118v-25h-127v-150h127v-25h-127z" />
    <glyph glyph-name="brokenbar" unicode="&#xa6;" horiz-adv-x="225" 
d="M100 371.606v-442.808h-25v442.808h25zM100 896.606v-442.808h-25v442.808h25z" />
    <glyph glyph-name="sect" unicode="&#xa7;" horiz-adv-x="600" 
d="M138 597q-19 16 -32 36q-27 39 -27 88q0 19 4 40q17 65 69.5 101t136.5 38h7q131 0 230 -68q1 -2 4 -4l-19 -18q0 2 -2 5q-92 60 -212 60h-8q-77 -2 -122.5 -33.5t-59.5 -85.5q-4 -19 -4 -37q0 -41 23 -74q33 -46 103 -67l1 1l171 -40q76 -22 111 -80q24 -40 24 -87
q0 -21 -5 -43q-12 -52 -48 -87q17 -16 29 -37q24 -40 24 -87q0 -21 -5 -43q-17 -73 -79 -111q-47 -26 -100 -34q-29 -4 -57 -4q-113 0 -215 59q-3 2 -5 3l15 21l4 -4q96 -53 203 -53q25 0 52 3q45 5 91 30q52 33 66 96q5 20 5 38q0 39 -20 73q-30 49 -97 69l-169 39
q-82 23 -119 79q-27 39 -27 88q0 19 4 40q14 56 55 90zM159 582q-39 -31 -52 -80q-4 -19 -4 -36q0 -41 24 -74q33 -47 103 -67l171 -40q36 -10 62 -28q32 30 43 78q5 20 5 38q0 39 -20 73q-30 49 -97 69l-169 40v-1q-38 11 -66 28z" />
    <glyph glyph-name="diaeresis" unicode="&#xa8;" horiz-adv-x="325" 
d="M75 775v75h25v-75h-25zM224 775v75h25v-75h-25z" />
    <glyph glyph-name="copy" unicode="&#xa9;" 
d="M797 722q128 -128 128 -309q0 -182 -128 -310t-309 -128q-182 0 -310 128t-128 310q0 181 128 309t310 128q181 0 309 -128zM488 825q-171 0 -292 -121t-121 -291q0 -171 121 -292t292 -121q170 0 291 121t121 292q0 170 -121 291t-291 121zM684 278l19 -16
q-13 -18 -30 -35q-77 -77 -185 -77q-109 0 -186 77t-77 186q0 108 77 185t186 77q108 0 185 -77q10 -10 18 -20l-19 -15l-16 18q-70 69 -168 69q-99 0 -168.5 -69.5t-69.5 -167.5q0 -99 69.5 -168.5t168.5 -69.5q98 0 168 70q15 15 28 33z" />
    <glyph glyph-name="ordf" unicode="&#xaa;" horiz-adv-x="775" 
d="M650 709v116h25v-575h-25v117q-18 -27 -41 -50q-92 -92 -221 -92q-130 0 -221.5 91.5t-91.5 221.5q0 129 91.5 220.5t221.5 91.5q129 0 221 -91q23 -24 41 -50zM675 25v-25h-600v25h600zM650 418v239q-21 46 -59 84q-84 84 -203 84q-120 0 -204 -84t-84 -203
q0 -120 84 -204t204 -84q119 0 203 84q38 38 59 84z" />
    <glyph glyph-name="laquo" unicode="&#xab;" horiz-adv-x="834" 
d="M333 125l-288 287l18 18l270 270h35l-288 -288l287 -287h-34zM617 125l-288 287l18 18l270 270h35l-288 -288l287 -287h-34z" />
    <glyph glyph-name="not" unicode="&#xac;" horiz-adv-x="800" 
d="M700 400h-625v25h650v-150h-25v125z" />
    <glyph glyph-name="softhyphen" unicode="&#xad;" horiz-adv-x="350" 
d="M300 425v-25h-250v25h250z" />
    <glyph glyph-name="reg" unicode="&#xae;" 
d="M350 625v-301h176q62 0 106 44t44 106t-44 106t-106 44v1h-176zM350 299v-124h-25v475h201v-1q73 0 124 -51.5t51 -123.5q0 -73 -51 -124q-28 -28 -63 -41l78 -134h-29l-74 127q-17 -3 -36 -3h-176zM488 825q-171 0 -292 -121t-121 -291q0 -171 121 -292t292 -121
q170 0 291 121t121 292q0 170 -121 291t-291 121zM925 413q0 -182 -128 -310t-309 -128q-182 0 -310 128t-128 310q0 181 128 309t310 128q181 0 309 -128t128 -309z" />
    <glyph glyph-name="macron" unicode="&#xaf;" horiz-adv-x="400" 
d="M326 800v-25h-250v25h250z" />
    <glyph glyph-name="deg" unicode="&#xb0;" horiz-adv-x="550" 
d="M434 759q66 -66 66 -159t-66 -159t-159 -66t-159 66t-66 159t66 159t159 66t159 -66zM275 800q-83 0 -141.5 -58.5t-58.5 -141.5t58.5 -141.5t141.5 -58.5t141.5 58.5t58.5 141.5t-58.5 141.5t-141.5 58.5z" />
    <glyph glyph-name="plusminus" unicode="&#xb1;" horiz-adv-x="675" 
d="M350 425h250v-25h-250v-250h-25v250h-250v25h250v250h25v-250zM600 25v-25h-525v25h525z" />
    <glyph glyph-name="sup2" unicode="&#xb2;" horiz-adv-x="475" 
d="M85 399h329v-25h-365v25l295 295h1q43 43 43 105t-44 106t-106 44t-106 -44t-44 -106h-25q0 73 51 124t124 51q72 0 123.5 -51t51.5 -124q0 -72 -51 -123l-1 -1z" />
    <glyph glyph-name="sup3" unicode="&#xb3;" horiz-adv-x="500" 
d="M402 925h-329v25h365v-25l-175 -175q75 -4 130 -58q58 -59 58 -142t-58.5 -141.5t-141.5 -58.5t-141.5 58.5t-58.5 141.5h25q0 -72 51 -123.5t124 -51.5q72 0 123.5 51.5t51.5 123.5q0 73 -51.5 124t-123.5 51q-13 0 -25 -2v26z" />
    <glyph glyph-name="acute" unicode="&#xb4;" horiz-adv-x="175" 
d="M52 775l47 175h27l-47 -175h-27z" />
    <glyph glyph-name="micro" unicode="&#xb5;" horiz-adv-x="825" 
d="M735 -1h-25v143q-22 -39 -55 -73q-95 -95 -230 -95t-230 95q-46 46 -70 102v-495h-25v974h25v-351q0 -124 88 -212t212 -88t212 88q50 50 71 112h2v451h25v-651z" />
    <glyph glyph-name="para" unicode="&#xb6;" horiz-adv-x="750" 
d="M650 825v-825h-25v800h-124v-800h-25v400h-189q-88 0 -150 62t-62 151q0 88 62 150t150 62h363zM476 800h-189q-77 0 -132 -55t-55 -132q0 -78 55 -133t132 -55h189v375z" />
    <glyph glyph-name="middot" unicode="&#xb7;" horiz-adv-x="175" 
d="M100 450v-75h-25v75h25z" />
    <glyph glyph-name="cedilla" unicode="&#xb8;" horiz-adv-x="325" 
d="M201 -350h-100v25h100q41 0 70.5 29.5t29.5 70.5t-29.5 70.5t-70.5 29.5h-50v125h25v-100h25q52 0 88.5 -36.5t36.5 -88.5t-36.5 -88.5t-88.5 -36.5z" />
    <glyph glyph-name="sup1" unicode="&#xb9;" horiz-adv-x="325" 
d="M174 400h101v-25h-225v25h99v525l-74 -74v35l64 64h35v-550z" />
    <glyph glyph-name="ordm" unicode="&#xba;" horiz-adv-x="625" 
d="M498 748q77 -77 77 -185q0 -109 -77 -186t-185 -77q-109 0 -186 77t-77 186q0 108 77 185t186 77q108 0 185 -77zM313 800q-99 0 -168.5 -69.5t-69.5 -167.5q0 -99 69.5 -168.5t168.5 -69.5q98 0 167.5 69.5t69.5 168.5q0 98 -69.5 167.5t-167.5 69.5zM575 25v-25h-500
v25h500z" />
    <glyph glyph-name="raquo" unicode="&#xbb;" horiz-adv-x="834" 
d="M85 700l288 -287l-18 -18l-270 -270h-35l288 288l-287 287h34zM369 700l288 -287l-18 -18l-270 -270h-35l288 288l-287 287h34z" />
    <glyph glyph-name="frac14" unicode="&#xbc;" horiz-adv-x="1176" 
d="M174 400h101v-25h-225v25h99v525l-74 -74v35l64 64h35v-550zM350 -100l275 1025h26l-275 -1025h-26zM1074 175v400h25v-400h50v-25h-50v-150h-25v150h-369l182 500h26l-173 -475h334z" />
    <glyph glyph-name="frac12" unicode="&#xbd;" horiz-adv-x="1150" 
d="M174 400h101v-25h-225v25h99v525l-74 -74v35l64 64h35v-550zM350 -100l275 1025h26l-275 -1025h-26zM760 25h329v-25h-365v25l295 295h1q43 43 43 105t-44 106t-106 44t-106 -44t-44 -106h-25q0 73 51 124t124 51q72 0 123.5 -51t51.5 -124q0 -72 -51 -123l-1 -1z" />
    <glyph glyph-name="frac34" unicode="&#xbe;" horiz-adv-x="1351" 
d="M402 925h-329v25h365v-25l-175 -175q75 -4 130 -58q58 -59 58 -142t-58.5 -141.5t-141.5 -58.5t-141.5 58.5t-58.5 141.5h25q0 -72 51 -123.5t124 -51.5q72 0 123.5 51.5t51.5 123.5q0 73 -51.5 124t-123.5 51q-13 0 -25 -2v26zM525 -100l275 1025h26l-275 -1025h-26z
M1249 175v400h25v-400h50v-25h-50v-150h-25v150h-369l182 500h26l-173 -475h334z" />
    <glyph glyph-name="iquest" unicode="&#xbf;" horiz-adv-x="575" 
d="M304 575v75h25v-75h-25zM549 25q-8 -88 -72 -152q-73 -73 -177 -73t-177 73t-73 177t72 176v1l116 116q65 65 66 157h25q-1 -102 -72 -174l-1 -1l-116 -116h1q-66 -66 -66 -159t66 -159t159 -66t159 66q57 57 65 134h25z" />
    <glyph glyph-name="Agrave" unicode="&#xc0;" horiz-adv-x="825" 
d="M710 160l-298 639l-298 -639h596zM428 825l385 -825h-28l-63 135h-620l-63 -135h-28l385 825h32zM425 925l-47 175h-27l47 -175h27z" />
    <glyph glyph-name="Aacute" unicode="&#xc1;" horiz-adv-x="825" 
d="M710 160l-298 639l-298 -639h596zM428 825l385 -825h-28l-63 135h-620l-63 -135h-28l385 825h32zM400 925l47 175h27l-47 -175h-27z" />
    <glyph glyph-name="Acircumflex" unicode="&#xc2;" horiz-adv-x="825" 
d="M710 160l-298 639l-298 -639h596zM428 825l385 -825h-28l-63 135h-620l-63 -135h-28l385 825h32zM524 925l-111 112l-112 -112h-36l148 147l147 -147h-36z" />
    <glyph glyph-name="Atilde" unicode="&#xc3;" horiz-adv-x="825" 
d="M710 160l-298 639l-298 -639h596zM428 825l385 -825h-28l-63 135h-620l-63 -135h-28l385 825h32zM575 969v-25q-46 -19 -92 -19q-35 0 -70 11q-36 11 -71 11q-46 0 -92 -19v25q46 19 92 19q35 0 71 -11q35 -11 70 -11q46 0 92 19z" />
    <glyph glyph-name="Adieresis" unicode="&#xc4;" horiz-adv-x="825" 
d="M710 160l-298 639l-298 -639h596zM428 825l385 -825h-28l-63 135h-620l-63 -135h-28l385 825h32zM325 925v75h25v-75h-25zM474 925v75h25v-75h-25z" />
    <glyph glyph-name="Aring" unicode="&#xc5;" horiz-adv-x="825" 
d="M710 160l-298 639l-298 -639h596zM412 951q-26 0 -44.5 -18.5t-18.5 -43.5q0 -26 18.5 -44.5t44.5 -18.5q25 0 43.5 18.5t18.5 44.5q0 25 -18.5 43.5t-43.5 18.5zM438 805l375 -805h-28l-63 135h-620l-63 -135h-28l375 804q-20 6 -36 23q-26 25 -26 62q0 36 25.5 61.5
t62.5 25.5q36 0 61.5 -25.5t25.5 -61.5q0 -37 -25 -62q-16 -16 -36 -22z" />
    <glyph glyph-name="AE" unicode="&#xc6;" horiz-adv-x="1075" 
d="M412 800l-298 -640h436v640h-138zM102 135l-63 -135h-28l385 825h629v-25h-450v-375h350v-25h-350v-375h450v-25h-475v135h-448z" />
    <glyph glyph-name="Ccedilla" unicode="&#xc7;" horiz-adv-x="875" 
d="M366 -9q-105 29 -188 112q-128 128 -128 310q0 181 128 309t310 128q181 0 309 -128l4 -4l-19 -17l-3 3q-121 121 -291 121q-171 0 -292 -121t-121 -291q0 -171 121 -292t292 -121q170 0 291 121l7 7l19 -17l-8 -8q-128 -128 -309 -128q-51 0 -97 10v-85h25
q52 0 88.5 -36.5t36.5 -88.5t-36.5 -88.5t-88.5 -36.5h-100v25h100q41 0 70.5 29.5t29.5 70.5t-29.5 70.5t-70.5 29.5h-50v116z" />
    <glyph glyph-name="Egrave" unicode="&#xc8;" horiz-adv-x="625" 
d="M100 825h475v-25h-450v-375h350v-25h-350v-375h450v-25h-475v825zM350 925l-47 175h-27l47 -175h27z" />
    <glyph glyph-name="Eacute" unicode="&#xc9;" horiz-adv-x="625" 
d="M100 825h475v-25h-450v-375h350v-25h-350v-375h450v-25h-475v825zM325 925l47 175h27l-47 -175h-27z" />
    <glyph glyph-name="Ecircumflex" unicode="&#xca;" horiz-adv-x="625" 
d="M100 825h475v-25h-450v-375h350v-25h-350v-375h450v-25h-475v825zM449 925l-111 112l-112 -112h-36l148 147l147 -147h-36z" />
    <glyph glyph-name="Edieresis" unicode="&#xcb;" horiz-adv-x="625" 
d="M100 825h475v-25h-450v-375h350v-25h-350v-375h450v-25h-475v825zM250 950v75h25v-75h-25zM399 950v75h25v-75h-25z" />
    <glyph glyph-name="Igrave" unicode="&#xcc;" horiz-adv-x="225" 
d="M125 825v-825h-25v825h25zM124 950l-47 175h-27l47 -175h27z" />
    <glyph glyph-name="Iacute" unicode="&#xcd;" horiz-adv-x="225" 
d="M125 825v-825h-25v825h25zM101 950l47 175h27l-47 -175h-27z" />
    <glyph glyph-name="Icircumflex" unicode="&#xce;" horiz-adv-x="225" 
d="M125 825v-825h-25v825h25zM224 925l-111 112l-112 -112h-36l148 147l147 -147h-36z" />
    <glyph glyph-name="Idieresis" unicode="&#xcf;" horiz-adv-x="225" 
d="M125 825v-825h-25v825h25zM25 950v75h25v-75h-25zM174 950v75h25v-75h-25z" />
    <glyph glyph-name="Eth" unicode="&#xd0;" horiz-adv-x="900" 
d="M100 425v400h324q171 0 291 -121q121 -121 121 -292q0 -170 -121 -291q-120 -121 -290 -121v-1h-325v401h-100v25h100zM125 425h150v-25h-150v-376h299v1q161 0 274 114q113 113 113 273q0 161 -113 275q-113 113 -274 113h-299v-375z" />
    <glyph glyph-name="Ntilde" unicode="&#xd1;" horiz-adv-x="832" 
d="M125 791v-791h-25v825h32l574 -791v791h25v-825h-32zM578 994v-25q-46 -19 -92 -19q-35 0 -70 11q-36 11 -71 11q-46 0 -92 -19v25q46 19 92 19q35 0 71 -11q35 -11 70 -11q46 0 92 19z" />
    <glyph glyph-name="Ograve" unicode="&#xd2;" 
d="M797 722q128 -128 128 -309q0 -182 -128 -310t-309 -128q-182 0 -310 128t-128 310q0 181 128 309t310 128q181 0 309 -128zM488 825q-171 0 -292 -121t-121 -291q0 -171 121 -292t292 -121q170 0 291 121t121 292q0 170 -121 291t-291 121zM500 950l-47 175h-27l47 -175
h27z" />
    <glyph glyph-name="Oacute" unicode="&#xd3;" 
d="M797 722q128 -128 128 -309q0 -182 -128 -310t-309 -128q-182 0 -310 128t-128 310q0 181 128 309t310 128q181 0 309 -128zM488 825q-171 0 -292 -121t-121 -291q0 -171 121 -292t292 -121q170 0 291 121t121 292q0 170 -121 291t-291 121zM476 950l47 175h27l-47 -175
h-27z" />
    <glyph glyph-name="Ocircumflex" unicode="&#xd4;" 
d="M797 722q128 -128 128 -309q0 -182 -128 -310t-309 -128q-182 0 -310 128t-128 310q0 181 128 309t310 128q181 0 309 -128zM488 825q-171 0 -292 -121t-121 -291q0 -171 121 -292t292 -121q170 0 291 121t121 292q0 170 -121 291t-291 121zM599 925l-111 112l-112 -112
h-36l148 147l147 -147h-36z" />
    <glyph glyph-name="Otilde" unicode="&#xd5;" 
d="M797 722q128 -128 128 -309q0 -182 -128 -310t-309 -128q-182 0 -310 128t-128 310q0 181 128 309t310 128q181 0 309 -128zM488 825q-171 0 -292 -121t-121 -291q0 -171 121 -292t292 -121q170 0 291 121t121 292q0 170 -121 291t-291 121zM650 1019v-25
q-46 -19 -92 -19q-35 0 -70 11q-36 11 -71 11q-46 0 -92 -19v25q46 19 92 19q35 0 71 -11q35 -11 70 -11q46 0 92 19z" />
    <glyph glyph-name="Odieresis" unicode="&#xd6;" 
d="M797 722q128 -128 128 -309q0 -182 -128 -310t-309 -128q-182 0 -310 128t-128 310q0 181 128 309t310 128q181 0 309 -128zM488 825q-171 0 -292 -121t-121 -291q0 -171 121 -292t292 -121q170 0 291 121t121 292q0 170 -121 291t-291 121zM400 950v75h25v-75h-25z
M549 950v75h25v-75h-25z" />
    <glyph glyph-name="times" unicode="&#xd7;" horiz-adv-x="675" 
d="M343.968 447.996l176.773 176.773l17.6768 -17.6777l-176.772 -176.772l176.772 -176.773l-17.6768 -17.6768l-176.773 176.772l-176.772 -176.772l-17.6777 17.6768l176.773 176.773l-176.773 176.772l17.6777 17.6777z" />
    <glyph glyph-name="Oslash" unicode="&#xd8;" 
d="M393 10q45 -10 95 -10q170 0 291 121t121 292q0 170 -121 291q-76 76 -172 105zM368 17l214 798q-45 10 -94 10q-171 0 -292 -121t-121 -291q0 -171 121 -292q76 -76 172 -104zM613 833q103 -30 184 -111q128 -128 128 -309q0 -182 -128 -310t-309 -128q-53 0 -102 11
l-23 -86h-26l25 92q-103 30 -184 111q-128 128 -128 310q0 181 128 309t310 128q53 0 101 -11l23 86h26z" />
    <glyph glyph-name="Ugrave" unicode="&#xd9;" horiz-adv-x="800" 
d="M75 325v500h25v-500q0 -124 88 -212t212 -88t212 88t88 212v500h25v-500q0 -135 -95 -230t-230 -95t-230 95t-95 230zM425 950l-47 175h-27l47 -175h27z" />
    <glyph glyph-name="Uacute" unicode="&#xda;" horiz-adv-x="800" 
d="M75 325v500h25v-500q0 -124 88 -212t212 -88t212 88t88 212v500h25v-500q0 -135 -95 -230t-230 -95t-230 95t-95 230zM375 950l47 175h27l-47 -175h-27z" />
    <glyph glyph-name="Ucircumflex" unicode="&#xdb;" horiz-adv-x="800" 
d="M75 325v500h25v-500q0 -124 88 -212t212 -88t212 88t88 212v500h25v-500q0 -135 -95 -230t-230 -95t-230 95t-95 230zM512 925l-111 112l-112 -112h-36l148 147l147 -147h-36z" />
    <glyph glyph-name="Udieresis" unicode="&#xdc;" horiz-adv-x="800" 
d="M75 325v500h25v-500q0 -124 88 -212t212 -88t212 88t88 212v500h25v-500q0 -135 -95 -230t-230 -95t-230 95t-95 230zM313 950v75h25v-75h-25zM462 950v75h25v-75h-25z" />
    <glyph glyph-name="Yacute" unicode="&#xdd;" horiz-adv-x="625" 
d="M325 306v-306h-25v306l-300 519h29l284 -491l283 491h29zM288 950l47 175h27l-47 -175h-27z" />
    <glyph glyph-name="Thorn" unicode="&#xde;" horiz-adv-x="725" 
d="M125 650h250q124 0 212 -88t88 -212t-88 -212t-212 -88h-250v-148h-25v923h25v-175zM125 75h250q114 0 194.5 80.5t80.5 194.5t-80.5 194.5t-194.5 80.5h-250v-550z" />
    <glyph glyph-name="germandbls" unicode="&#xdf;" horiz-adv-x="625" 
d="M389 438q51 -16 93 -57q69 -70 69 -168q0 -99 -69.5 -168.5t-167.5 -69.5h-2v25h2q88 0 150 62t62 151q0 88 -62 150t-150 62h-2v25h1q77 0 132 55t55 133q0 77 -55 132t-132 55q-78 0 -133 -55q-51 -51 -55 -120h1v-650h-25v650h-1q4 80 62 138q62 62 151 62
q88 0 150 -62t62 -150q0 -89 -62 -151q-33 -33 -74 -49z" />
    <glyph glyph-name="agrave" unicode="&#xe0;" horiz-adv-x="675" 
d="M118 150h443l-222 474zM573 125h-467l-58 -125h-28l303 650h32l304 -650h-28zM364 775l-47 175h-27l47 -175h27z" />
    <glyph glyph-name="aacute" unicode="&#xe1;" horiz-adv-x="675" 
d="M118 150h443l-222 474zM573 125h-467l-58 -125h-28l303 650h32l304 -650h-28zM315 775l47 175h27l-47 -175h-27z" />
    <glyph glyph-name="acircumflex" unicode="&#xe2;" horiz-adv-x="675" 
d="M118 150h443l-222 474zM573 125h-467l-58 -125h-28l303 650h32l304 -650h-28zM451 750l-111 112l-112 -112h-36l148 147l147 -147h-36z" />
    <glyph glyph-name="atilde" unicode="&#xe3;" horiz-adv-x="675" 
d="M118 150h443l-222 474zM573 125h-467l-58 -125h-28l303 650h32l304 -650h-28zM502 819v-25q-46 -19 -92 -19q-35 0 -70 11q-36 11 -71 11q-46 0 -92 -19v25q46 19 92 19q35 0 71 -11q35 -11 70 -11q46 0 92 19z" />
    <glyph glyph-name="adieresis" unicode="&#xe4;" horiz-adv-x="675" 
d="M118 150h443l-222 474zM573 125h-467l-58 -125h-28l303 650h32l304 -650h-28zM253 775v75h25v-75h-25zM402 775v75h25v-75h-25z" />
    <glyph glyph-name="aring" unicode="&#xe5;" horiz-adv-x="675" 
d="M118 150h443l-222 474zM573 125h-467l-58 -125h-28l303 650h32l304 -650h-28zM401.5 899.5q25.5 -25.5 25.5 -61.5q0 -37 -25.5 -62.5t-61.5 -25.5q-37 0 -62.5 25.5t-25.5 62.5q0 36 25.5 61.5t62.5 25.5q36 0 61.5 -25.5zM340 900q-26 0 -44.5 -18.5t-18.5 -43.5
q0 -26 18.5 -44.5t44.5 -18.5q25 0 43.5 18.5t18.5 44.5q0 25 -18.5 43.5t-43.5 18.5z" />
    <glyph glyph-name="ae" unicode="&#xe6;" horiz-adv-x="925" 
d="M450 125h-344l-58 -125h-28l303 650h552v-25h-400v-287h300v-25h-300v-288h400v-25h-425v125zM118 150h332v475h-111z" />
    <glyph glyph-name="ccedilla" unicode="&#xe7;" horiz-adv-x="700" 
d="M288 -8q-75 25 -135 86q-103 102 -103 247t102.5 247.5t247.5 102.5t248 -102q1 -2 3 -4l-18 -17l-3 3q-95 95 -230 95t-230 -95t-95 -230t95 -230t230 -95q132 0 225 90l17 -18q-101 -97 -242 -97q-46 0 -87 10v-85h25q52 0 88.5 -36.5t36.5 -88.5t-36.5 -88.5
t-88.5 -36.5h-100v25h100q41 0 70.5 29.5t29.5 70.5t-29.5 70.5t-70.5 29.5h-50v117z" />
    <glyph glyph-name="egrave" unicode="&#xe8;" horiz-adv-x="575" 
d="M100 650h425v-25h-400v-287h300v-25h-300v-288h400v-25h-425v650zM337 775l-47 175h-27l47 -175h27z" />
    <glyph glyph-name="eacute" unicode="&#xe9;" horiz-adv-x="575" 
d="M100 650h425v-25h-400v-287h300v-25h-300v-288h400v-25h-425v650zM288 775l47 175h27l-47 -175h-27z" />
    <glyph glyph-name="ecircumflex" unicode="&#xea;" horiz-adv-x="575" 
d="M100 650h425v-25h-400v-287h300v-25h-300v-288h400v-25h-425v650zM424 750l-111 112l-112 -112h-36l148 147l147 -147h-36z" />
    <glyph glyph-name="edieresis" unicode="&#xeb;" horiz-adv-x="575" 
d="M100 650h425v-25h-400v-287h300v-25h-300v-288h400v-25h-425v650zM226 775v75h25v-75h-25zM375 775v75h25v-75h-25z" />
    <glyph glyph-name="igrave" unicode="&#xec;" horiz-adv-x="225" 
d="M125 650v-650h-25v650h25zM137 775l-47 175h-27l47 -175h27z" />
    <glyph glyph-name="iacute" unicode="&#xed;" horiz-adv-x="225" 
d="M125 650v-650h-25v650h25zM88 775l47 175h27l-47 -175h-27z" />
    <glyph glyph-name="icircumflex" unicode="&#xee;" horiz-adv-x="225" 
d="M125 650v-650h-25v650h25zM224 750l-111 112l-112 -112h-36l148 147l147 -147h-36z" />
    <glyph glyph-name="idieresis" unicode="&#xef;" horiz-adv-x="225" 
d="M126 650v-650h-25v650h25zM26 775v75h25v-75h-25zM175 775v75h25v-75h-25z" />
    <glyph glyph-name="eth" unicode="&#xf0;" horiz-adv-x="600" 
d="M300 0q93 0 159 66t66 159t-66 159t-159 66t-159 -66t-66 -159t66 -159t159 -66zM550 225q0 -104 -73 -177t-177 -73t-177 73t-73 177t73 177t177 73t177 -73q24 -24 40 -52q-28 185 -168 325q-41 41 -87 73l-143 -83l-12 22l132 76q-87 55 -189 75v26q115 -22 213 -87
l125 73l12 -22l-114 -66q42 -31 81 -70q183 -183 183 -442v-25z" />
    <glyph glyph-name="ntilde" unicode="&#xf1;" horiz-adv-x="812" 
d="M129 650l447 -616v616h25v-650h-32l-444 611v-611h-25v650h29zM580 819v-25q-46 -19 -92 -19q-35 0 -70 11q-36 11 -71 11q-46 0 -92 -19v25q46 19 92 19q35 0 71 -11q35 -11 70 -11q46 0 92 19z" />
    <glyph glyph-name="ograve" unicode="&#xf2;" horiz-adv-x="800" 
d="M647.5 572.5q102.5 -102.5 102.5 -247.5t-102.5 -247.5t-247.5 -102.5t-247.5 102.5t-102.5 247.5t102.5 247.5t247.5 102.5t247.5 -102.5zM400 650q-135 0 -230 -95t-95 -230t95 -230t230 -95t230 95t95 230t-95 230t-230 95zM425 775l-47 175h-27l47 -175h27z" />
    <glyph glyph-name="oacute" unicode="&#xf3;" horiz-adv-x="800" 
d="M647.5 572.5q102.5 -102.5 102.5 -247.5t-102.5 -247.5t-247.5 -102.5t-247.5 102.5t-102.5 247.5t102.5 247.5t247.5 102.5t247.5 -102.5zM400 650q-135 0 -230 -95t-95 -230t95 -230t230 -95t230 95t95 230t-95 230t-230 95zM375 775l47 175h27l-47 -175h-27z" />
    <glyph glyph-name="ocircumflex" unicode="&#xf4;" horiz-adv-x="800" 
d="M647.5 572.5q102.5 -102.5 102.5 -247.5t-102.5 -247.5t-247.5 -102.5t-247.5 102.5t-102.5 247.5t102.5 247.5t247.5 102.5t247.5 -102.5zM400 650q-135 0 -230 -95t-95 -230t95 -230t230 -95t230 95t95 230t-95 230t-230 95zM512 750l-111 112l-112 -112h-36l148 147
l147 -147h-36z" />
    <glyph glyph-name="otilde" unicode="&#xf5;" horiz-adv-x="800" 
d="M647.5 572.5q102.5 -102.5 102.5 -247.5t-102.5 -247.5t-247.5 -102.5t-247.5 102.5t-102.5 247.5t102.5 247.5t247.5 102.5t247.5 -102.5zM400 650q-135 0 -230 -95t-95 -230t95 -230t230 -95t230 95t95 230t-95 230t-230 95zM563 819v-25q-46 -19 -92 -19q-35 0 -70 11
q-36 11 -71 11q-46 0 -92 -19v25q46 19 92 19q35 0 71 -11q35 -11 70 -11q46 0 92 19z" />
    <glyph glyph-name="odieresis" unicode="&#xf6;" horiz-adv-x="800" 
d="M647.5 572.5q102.5 -102.5 102.5 -247.5t-102.5 -247.5t-247.5 -102.5t-247.5 102.5t-102.5 247.5t102.5 247.5t247.5 102.5t247.5 -102.5zM400 650q-135 0 -230 -95t-95 -230t95 -230t230 -95t230 95t95 230t-95 230t-230 95zM313 775v75h25v-75h-25zM462 775v75h25v-75
h-25z" />
    <glyph glyph-name="divide" unicode="&#xf7;" horiz-adv-x="675" 
d="M600 425v-25h-525v25h525zM350 275v-75h-25v75h25zM350 625v-75h-25v75h25z" />
    <glyph glyph-name="oslash" unicode="&#xf8;" horiz-adv-x="800" 
d="M472 643q-34 7 -72 7q-135 0 -230 -95t-95 -230t95 -230q59 -59 133 -81zM328 7q34 -7 72 -7q135 0 230 95t95 230t-95 230q-59 59 -133 81zM503 661q81 -25 145 -88q102 -103 102 -248t-102.5 -247.5t-247.5 -102.5q-41 0 -79 8l-22 -83h-26l24 89q-81 25 -144 89
q-103 102 -103 247t102.5 247.5t247.5 102.5q41 0 79 -8l22 83h26z" />
    <glyph glyph-name="ugrave" unicode="&#xf9;" horiz-adv-x="650" 
d="M550 225v425h25v-425q0 -104 -73 -177t-177 -73t-177 73t-73 177v425h25v-425q0 -93 66 -159t159 -66t159 66t66 159zM350 775l-47 175h-27l47 -175h27z" />
    <glyph glyph-name="uacute" unicode="&#xfa;" horiz-adv-x="650" 
d="M550 225v425h25v-425q0 -104 -73 -177t-177 -73t-177 73t-73 177v425h25v-425q0 -93 66 -159t159 -66t159 66t66 159zM300 775l47 175h27l-47 -175h-27z" />
    <glyph glyph-name="ucircumflex" unicode="&#xfb;" horiz-adv-x="650" 
d="M550 225v425h25v-425q0 -104 -73 -177t-177 -73t-177 73t-73 177v425h25v-425q0 -93 66 -159t159 -66t159 66t66 159zM437 750l-111 112l-112 -112h-36l148 147l147 -147h-36z" />
    <glyph glyph-name="udieresis" unicode="&#xfc;" horiz-adv-x="650" 
d="M550 225v425h25v-425q0 -104 -73 -177t-177 -73t-177 73t-73 177v425h25v-425q0 -93 66 -159t159 -66t159 66t66 159zM238 775v75h25v-75h-25zM387 775v75h25v-75h-25z" />
    <glyph glyph-name="yacute" unicode="&#xfd;" horiz-adv-x="575" 
d="M300 181v-181h-25v181l-271 469h29l255 -441l254 441h29zM263 726l47 175h27l-47 -175h-27z" />
    <glyph glyph-name="thorn" unicode="&#xfe;" horiz-adv-x="825" 
d="M124 197q24 -56 70 -102q95 -95 230 -95t230 95t95 230t-95 230t-230 95t-230 -95q-46 -46 -70 -102v-256zM99 825h25v-318q22 34 53 65q102 103 247 103t247.5 -102.5t102.5 -247.5t-102.5 -247.5t-247.5 -102.5t-247 102q-31 31 -53 66v-318h-25v1000z" />
    <glyph glyph-name="ydieresis" unicode="&#xff;" horiz-adv-x="575" 
d="M300 181v-181h-25v181l-271 469h29l255 -441l254 441h29zM201 775v75h25v-75h-25zM350 775v75h25v-75h-25z" />
    <glyph glyph-name="Amacron" unicode="&#x100;" horiz-adv-x="825" 
d="M710 160l-298 639l-298 -639h596zM428 825l385 -825h-28l-63 135h-620l-63 -135h-28l385 825h32zM537 950v-25h-250v25h250z" />
    <glyph glyph-name="amacron" unicode="&#x101;" horiz-adv-x="675" 
d="M118 150h443l-222 474zM573 125h-467l-58 -125h-28l303 650h32l304 -650h-28zM465 775v-25h-250v25h250z" />
    <glyph glyph-name="Abreve" unicode="&#x102;" horiz-adv-x="825" 
d="M710 160l-298 639l-298 -639h596zM428 825l385 -825h-28l-63 135h-620l-63 -135h-28l385 825h32zM535 1050h28q-12 -29 -35 -52q-48 -48 -115 -48q-68 0 -115 48q-24 23 -36 52h28q10 -19 26 -34q40 -41 97 -41q56 0 97 41q15 15 25 34z" />
    <glyph glyph-name="abreve" unicode="&#x103;" horiz-adv-x="675" 
d="M118 150h443l-222 474zM573 125h-467l-58 -125h-28l303 650h32l304 -650h-28zM462 875h28q-12 -29 -35 -52q-48 -48 -115 -48q-68 0 -115 48q-24 23 -36 52h28q10 -19 26 -34q40 -41 97 -41q56 0 97 41q15 15 25 34z" />
    <glyph glyph-name="Aogonek" unicode="&#x104;" horiz-adv-x="825" 
d="M710 160l-298 639l-298 -639h596zM774 23l-52 112h-620l-63 -135h-28l385 825h32l385 -825h-13q-41 0 -70.5 -29.5t-29.5 -70.5t29.5 -70.5t70.5 -29.5h100v-25h-100q-52 0 -88.5 36.5t-36.5 88.5t37 89q27 27 62 34z" />
    <glyph glyph-name="aogonek" unicode="&#x105;" horiz-adv-x="675" 
d="M118 150h443l-222 474zM620 24l-47 101h-467l-58 -125h-28l303 650h32l304 -650h-20q-41 0 -70.5 -29.5t-29.5 -70.5t29.5 -70.5t70.5 -29.5h100v-25h-100q-52 0 -88.5 36.5t-36.5 88.5t37 89q29 29 69 35z" />
    <glyph glyph-name="Cacute" unicode="&#x106;" horiz-adv-x="875" 
d="M797 103q-128 -128 -309 -128q-182 0 -310 128t-128 310q0 181 128 309t310 128q181 0 309 -128l-18 -18q-121 121 -291 121q-171 0 -292 -121t-121 -291q0 -171 121 -292t292 -121q170 0 291 121zM399 950l47 175h27l-47 -175h-27z" />
    <glyph glyph-name="cacute" unicode="&#x107;" horiz-adv-x="700" 
d="M625 90l17 -18q-101 -97 -242 -97q-145 0 -247.5 102.5t-102.5 247.5t102.5 247.5t247.5 102.5t248 -102q1 -2 3 -4l-18 -17l-3 3q-95 95 -230 95t-230 -95t-95 -230t95 -230t230 -95q132 0 225 90zM326 775l47 175h27l-47 -175h-27z" />
    <glyph glyph-name="Ccircumflex" unicode="&#x108;" horiz-adv-x="875" 
d="M797 103q-128 -128 -309 -128q-182 0 -310 128t-128 310q0 181 128 309t310 128q181 0 309 -128l-18 -18q-121 121 -291 121q-171 0 -292 -121t-121 -291q0 -171 121 -292t292 -121q170 0 291 121zM584 953l-111 112l-112 -112h-36l148 147l147 -147h-36z" />
    <glyph glyph-name="ccircumflex" unicode="&#x109;" horiz-adv-x="700" 
d="M625 90l17 -18q-101 -97 -242 -97q-145 0 -247.5 102.5t-102.5 247.5t102.5 247.5t247.5 102.5t248 -102q1 -2 3 -4l-18 -17l-3 3q-95 95 -230 95t-230 -95t-95 -230t95 -230t230 -95q132 0 225 90zM484 775l-111 112l-112 -112h-36l148 147l147 -147h-36z" />
    <glyph glyph-name="Cdotaccent" unicode="&#x10a;" horiz-adv-x="875" 
d="M797 103q-128 -128 -309 -128q-182 0 -310 128t-128 310q0 181 128 309t310 128q181 0 309 -128l-18 -18q-121 121 -291 121q-171 0 -292 -121t-121 -291q0 -171 121 -292t292 -121q170 0 291 121zM436 1025v-75h-25v75h25z" />
    <glyph glyph-name="cdotaccent" unicode="&#x10b;" horiz-adv-x="700" 
d="M625 90l17 -18q-101 -97 -242 -97q-145 0 -247.5 102.5t-102.5 247.5t102.5 247.5t247.5 102.5t248 -102q1 -2 3 -4l-18 -17l-3 3q-95 95 -230 95t-230 -95t-95 -230t95 -230t230 -95q132 0 225 90zM363 850v-75h-25v75h25z" />
    <glyph glyph-name="Ccaron" unicode="&#x10c;" horiz-adv-x="875" 
d="M797 103q-128 -128 -309 -128q-182 0 -310 128t-128 310q0 181 128 309t310 128q181 0 309 -128l-18 -18q-121 121 -291 121q-171 0 -292 -121t-121 -291q0 -171 121 -292t292 -121q170 0 291 121zM312 1075l111 -112l112 112h36l-148 -147l-147 147h36z" />
    <glyph glyph-name="ccaron" unicode="&#x10d;" horiz-adv-x="700" 
d="M625 90l17 -18q-101 -97 -242 -97q-145 0 -247.5 102.5t-102.5 247.5t102.5 247.5t247.5 102.5t248 -102q1 -2 3 -4l-18 -17l-3 3q-95 95 -230 95t-230 -95t-95 -230t95 -230t230 -95q132 0 225 90zM239 900l111 -112l112 112h36l-148 -147l-147 147h36z" />
    <glyph glyph-name="Dcaron" unicode="&#x10e;" horiz-adv-x="900" 
d="M125 800v-776h299v1q161 0 274 114q113 113 113 273q0 161 -113 275q-113 113 -274 113h-299zM100 825h324q171 0 291 -121q121 -121 121 -292q0 -170 -121 -291q-120 -121 -290 -121v-1h-325v826zM310 1075l111 -112l112 112h36l-148 -147l-147 147h36z" />
    <glyph glyph-name="dcaron" unicode="&#x10f;" horiz-adv-x="700" 
d="M325 650q135 0 230 -95t95 -230t-95 -230t-230 -95h-225v650h225zM325 25q124 0 212 88t88 212t-88 212t-212 88h-200v-600h200zM625 648l47 175h27l-47 -175h-27z" />
    <glyph glyph-name="Dcroat" unicode="&#x110;" horiz-adv-x="900" 
d="M124 425v400h324q171 0 291 -121q121 -121 121 -292q0 -170 -121 -291q-120 -121 -290 -121v-1h-325v401h-100v25h100zM149 425h150v-25h-150v-376h299v1q161 0 274 114q113 113 113 273q0 161 -113 275q-113 113 -274 113h-299v-375z" />
    <glyph glyph-name="dcroat" unicode="&#x111;" horiz-adv-x="700" 
d="M125 313v-288h200q124 0 212 88t88 212t-88 212t-212 88h-200v-287h175v-25h-175zM100 338v312h225q135 0 230 -95t95 -230t-95 -230t-230 -95h-225v313h-75v25h75z" />
    <glyph glyph-name="Emacron" unicode="&#x112;" horiz-adv-x="625" 
d="M100 825h475v-25h-450v-375h350v-25h-350v-375h450v-25h-475v825zM463 950v-25h-250v25h250z" />
    <glyph glyph-name="emacron" unicode="&#x113;" horiz-adv-x="575" 
d="M100 650h425v-25h-400v-287h300v-25h-300v-288h400v-25h-425v650zM438 775v-25h-250v25h250z" />
    <glyph glyph-name="Ebreve" unicode="&#x114;" horiz-adv-x="625" 
d="M100 825h475v-25h-450v-375h350v-25h-350v-375h450v-25h-475v825zM460 1050h28q-12 -29 -35 -52q-48 -48 -115 -48q-68 0 -115 48q-24 23 -36 52h28q10 -19 26 -34q40 -41 97 -41q56 0 97 41q15 15 25 34z" />
    <glyph glyph-name="ebreve" unicode="&#x115;" horiz-adv-x="575" 
d="M100 650h425v-25h-400v-287h300v-25h-300v-288h400v-25h-425v650zM435 875h28q-12 -29 -35 -52q-48 -48 -115 -48q-68 0 -115 48q-24 23 -36 52h28q10 -19 26 -34q40 -41 97 -41q56 0 97 41q15 15 25 34z" />
    <glyph glyph-name="Edotaccent" unicode="&#x116;" horiz-adv-x="625" 
d="M100 825h475v-25h-450v-375h350v-25h-350v-375h450v-25h-475v825zM350 1025v-75h-25v75h25z" />
    <glyph glyph-name="edotaccent" unicode="&#x117;" horiz-adv-x="575" 
d="M100 650h425v-25h-400v-287h300v-25h-300v-288h400v-25h-425v650zM325 850v-75h-25v75h25z" />
    <glyph glyph-name="Eogonek" unicode="&#x118;" horiz-adv-x="625" 
d="M500 0h-400v825h475v-25h-450v-375h350v-25h-350v-375h450v-25q-41 0 -70.5 -29.5t-29.5 -70.5t29.5 -70.5t70.5 -29.5h100v-25h-100q-52 0 -88.5 36.5t-36.5 88.5t37 89q6 6 13 11z" />
    <glyph glyph-name="eogonek" unicode="&#x119;" horiz-adv-x="575" 
d="M450 0h-350v650h425v-25h-400v-287h300v-25h-300v-288h400v-25q-41 0 -70.5 -29.5t-29.5 -70.5t29.5 -70.5t70.5 -29.5h100v-25h-100q-52 0 -88.5 36.5t-36.5 88.5t37 89q6 6 13 11z" />
    <glyph glyph-name="Ecaron" unicode="&#x11a;" horiz-adv-x="625" 
d="M100 825h475v-25h-450v-375h350v-25h-350v-375h450v-25h-475v825zM226 1075l111 -112l112 112h36l-148 -147l-147 147h36z" />
    <glyph glyph-name="ecaron" unicode="&#x11b;" horiz-adv-x="575" 
d="M100 650h425v-25h-400v-287h300v-25h-300v-288h400v-25h-425v650zM201 900l111 -112l112 112h36l-148 -147l-147 147h36z" />
    <glyph glyph-name="Gcircumflex" unicode="&#x11c;" horiz-adv-x="875" 
d="M797 103q-128 -128 -309 -128q-182 0 -310 128t-128 310q0 181 128 309t310 128q181 0 309 -128l-18 -18q-121 121 -291 121q-171 0 -292 -121t-121 -291q0 -171 121 -292t292 -121q165 0 284 114v286h-300v25h325v-322zM584 950l-111 112l-112 -112h-36l148 147
l147 -147h-36z" />
    <glyph glyph-name="gcircumflex" unicode="&#x11d;" horiz-adv-x="700" 
d="M642 72q-101 -97 -242 -97q-145 0 -247.5 102.5t-102.5 247.5t102.5 247.5t247.5 102.5t248 -102q1 -2 3 -4l-18 -17l-3 3q-95 95 -230 95t-230 -95t-95 -230t95 -230t230 -95q126 0 217 82v243h-250v25h275v-278zM462 750l-111 112l-112 -112h-36l148 147l147 -147h-36z
" />
    <glyph glyph-name="Gbreve" unicode="&#x11e;" horiz-adv-x="875" 
d="M797 103q-128 -128 -309 -128q-182 0 -310 128t-128 310q0 181 128 309t310 128q181 0 309 -128l-18 -18q-121 121 -291 121q-171 0 -292 -121t-121 -291q0 -171 121 -292t292 -121q165 0 284 114v286h-300v25h325v-322zM598 1050h28q-12 -29 -35 -52q-48 -48 -115 -48
q-68 0 -115 48q-24 23 -36 52h28q10 -19 26 -34q40 -41 97 -41q56 0 97 41q15 15 25 34z" />
    <glyph glyph-name="gbreve" unicode="&#x11f;" horiz-adv-x="700" 
d="M642 72q-101 -97 -242 -97q-145 0 -247.5 102.5t-102.5 247.5t102.5 247.5t247.5 102.5t248 -102q1 -2 3 -4l-18 -17l-3 3q-95 95 -230 95t-230 -95t-95 -230t95 -230t230 -95q126 0 217 82v243h-250v25h275v-278zM473 875h28q-12 -29 -35 -52q-48 -48 -115 -48
q-68 0 -115 48q-24 23 -36 52h28q10 -19 26 -34q40 -41 97 -41q56 0 97 41q15 15 25 34z" />
    <glyph glyph-name="Gdotaccent" unicode="&#x120;" horiz-adv-x="875" 
d="M797 103q-128 -128 -309 -128q-182 0 -310 128t-128 310q0 181 128 309t310 128q181 0 309 -128l-18 -18q-121 121 -291 121q-171 0 -292 -121t-121 -291q0 -171 121 -292t292 -121q165 0 284 114v286h-300v25h325v-322zM476 1025v-75h-25v75h25z" />
    <glyph glyph-name="gdotaccent" unicode="&#x121;" horiz-adv-x="700" 
d="M642 72q-101 -97 -242 -97q-145 0 -247.5 102.5t-102.5 247.5t102.5 247.5t247.5 102.5t248 -102q1 -2 3 -4l-18 -17l-3 3q-95 95 -230 95t-230 -95t-95 -230t95 -230t230 -95q126 0 217 82v243h-250v25h275v-278zM363 850v-75h-25v75h25z" />
    <glyph glyph-name="Gcommaaccent" unicode="&#x122;" horiz-adv-x="875" 
d="M797 103q-128 -128 -309 -128q-182 0 -310 128t-128 310q0 181 128 309t310 128q181 0 309 -128l-18 -18q-121 121 -291 121q-171 0 -292 -121t-121 -291q0 -171 121 -292t292 -121q165 0 284 114v286h-300v25h325v-322zM424 -302l47 175h27l-47 -175h-27z" />
    <glyph glyph-name="gcommaaccent" unicode="&#x123;" horiz-adv-x="700" 
d="M625 57q-96 -82 -225 -82q-145 0 -247.5 102.5t-102.5 247.5t102.5 247.5t247.5 102.5t248 -102l-18 -18q-95 95 -230 95t-230 -95t-95 -230t95 -230t230 -95q132 0 225 90v235h-250v25h275v-350h-25v57zM400 775l47 175h27l-47 -175h-27z" />
    <glyph glyph-name="Hcircumflex" unicode="&#x124;" horiz-adv-x="875" 
d="M125 400v-400h-25v825h25v-400h625v400h25v-825h-25v400h-625zM549 925l-111 112l-112 -112h-36l148 147l147 -147h-36z" />
    <glyph glyph-name="hcircumflex" unicode="&#x125;" horiz-adv-x="725" 
d="M125 326v-326h-25v650h25v-299h475v299h25v-650h-25v326h-475zM474 750l-111 112l-112 -112h-36l148 147l147 -147h-36z" />
    <glyph glyph-name="Hbar" unicode="&#x126;" horiz-adv-x="875" 
d="M125 400v-400h-25v825h25v-400h625v400h25v-825h-25v400h-625zM725 727v-25h-575v25h575z" />
    <glyph glyph-name="hbar" unicode="&#x127;" horiz-adv-x="725" 
d="M125 626v-275h475v299h25v-650h-25v326h-475v-326h-25v651h275v-25h-250z" />
    <glyph glyph-name="Itilde" unicode="&#x128;" horiz-adv-x="225" 
d="M125 825v-825h-25v825h25zM275 969v-25q-46 -19 -92 -19q-35 0 -70 11q-36 11 -71 11q-46 0 -92 -19v25q46 19 92 19q35 0 71 -11q35 -11 70 -11q46 0 92 19z" />
    <glyph glyph-name="itilde" unicode="&#x129;" horiz-adv-x="225" 
d="M125 650v-650h-25v650h25zM275 798v-25q-46 -19 -92 -19q-35 0 -70 11q-36 11 -71 11q-46 0 -92 -19v25q46 19 92 19q35 0 71 -11q35 -11 70 -11q46 0 92 19z" />
    <glyph glyph-name="Imacron" unicode="&#x12a;" horiz-adv-x="225" 
d="M126 825v-825h-25v825h25zM238 950v-25h-250v25h250z" />
    <glyph glyph-name="imacron" unicode="&#x12b;" horiz-adv-x="225" 
d="M126 650v-650h-25v650h25zM238 775v-25h-250v25h250z" />
    <glyph glyph-name="Ibreve" unicode="&#x12c;" horiz-adv-x="225" 
d="M125 825v-825h-25v825h25zM235 1025h28q-12 -29 -35 -52q-48 -48 -115 -48q-68 0 -115 48q-24 23 -36 52h28q10 -19 26 -34q40 -41 97 -41q56 0 97 41q15 15 25 34z" />
    <glyph glyph-name="ibreve" unicode="&#x12d;" horiz-adv-x="225" 
d="M125 650v-650h-25v650h25zM238 850h28q-12 -29 -35 -52q-48 -48 -115 -48q-68 0 -115 48q-24 23 -36 52h28q10 -19 26 -34q40 -41 97 -41q56 0 97 41q15 15 25 34z" />
    <glyph glyph-name="Iogonek" unicode="&#x12e;" horiz-adv-x="225" 
d="M100 23v802h25v-825q-41 0 -70.5 -29.5t-29.5 -70.5t29.5 -70.5t70.5 -29.5h100v-25h-100q-52 0 -88.5 36.5t-36.5 88.5t37 89q27 27 63 34z" />
    <glyph glyph-name="iogonek" unicode="&#x12f;" horiz-adv-x="225" 
d="M100 23v627h25v-650q-41 0 -70.5 -29.5t-29.5 -70.5t29.5 -70.5t70.5 -29.5h100v-25h-100q-52 0 -88.5 36.5t-36.5 88.5t37 89q27 27 63 34z" />
    <glyph glyph-name="Idotaccent" unicode="&#x130;" horiz-adv-x="225" 
d="M125 825v-825h-25v825h25zM125 1025v-75h-25v75h25z" />
    <glyph glyph-name="dotlessi" unicode="&#x131;" horiz-adv-x="225" 
d="M125 650v-650h-25v650h25z" />
    <glyph glyph-name="IJ" unicode="&#x132;" horiz-adv-x="600" 
d="M125 825v-825h-25v825h25zM500 325v500h25v-500q0 -135 -95 -230t-230 -95v25q125 0 213 88q87 88 87 212z" />
    <glyph glyph-name="ij" unicode="&#x133;" horiz-adv-x="475" 
d="M125 650v-650h-25v650h25zM425 200q0 -83 -58.5 -141.5t-141.5 -58.5v25q72 0 123.5 51.5t51.5 123.5v450h25v-450z" />
    <glyph glyph-name="Jcircumflex" unicode="&#x134;" horiz-adv-x="375" 
d="M275 325v500h25v-500q0 -135 -95 -230t-230 -95v25q125 0 213 88q87 88 87 212zM398 925l-111 112l-112 -112h-36l148 147l147 -147h-36z" />
    <glyph glyph-name="jcircumflex" unicode="&#x135;" horiz-adv-x="225" 
d="M100 0v650h25v-650q0 -135 -95 -230t-230 -95v25q125 0 213 88q87 88 87 212zM224 750l-111 112l-112 -112h-36l148 147l147 -147h-36z" />
    <glyph glyph-name="Kcommaaccent" unicode="&#x136;" horiz-adv-x="625" 
d="M125 825v-825h-25v825h25zM257 413l299 -413h-32l-299 413l299 412h32zM291 -277l47 175h27l-47 -175h-27z" />
    <glyph glyph-name="kcommaaccent" unicode="&#x137;" horiz-adv-x="550" 
d="M125 650v-650h-25v650h25zM257 325l236 -325h-31l-236 325l236 325h31zM201 -277l47 175h27l-47 -175h-27z" />
    <glyph glyph-name="kgreenlandic" unicode="&#x138;" horiz-adv-x="550" 
d="M125 650v-650h-25v650h25zM257 325l236 -325h-31l-236 325l236 325h31z" />
    <glyph glyph-name="Lacute" unicode="&#x139;" horiz-adv-x="550" 
d="M100 825h25v-800h450v-25h-475v825zM225 925l47 175h27l-47 -175h-27z" />
    <glyph glyph-name="lacute" unicode="&#x13a;" horiz-adv-x="500" 
d="M100 650h25v-625h350v-25h-375v650zM225 750l47 175h27l-47 -175h-27z" />
    <glyph glyph-name="Lcommaaccent" unicode="&#x13b;" horiz-adv-x="550" 
d="M100 825h25v-800h450v-25h-475v825zM251 -277l47 175h27l-47 -175h-27z" />
    <glyph glyph-name="lcommaaccent" unicode="&#x13c;" horiz-adv-x="225" 
d="M100 650h25v-625h350v-25h-375v650zM51 -277l47 175h27l-47 -175h-27z" />
    <glyph glyph-name="Lcaron" unicode="&#x13d;" horiz-adv-x="550" 
d="M100 825h25v-800h450v-25h-475v825zM501 648l47 175h27l-47 -175h-27z" />
    <glyph glyph-name="lcaron" unicode="&#x13e;" horiz-adv-x="774" 
d="M100 650h25v-625h350v-25h-375v650zM550 648l47 175h27l-47 -175h-27z" />
    <glyph glyph-name="Ldot" unicode="&#x13f;" horiz-adv-x="550" 
d="M100 825h25v-800h450v-25h-475v825zM573 450v-75h-25v75h25z" />
    <glyph glyph-name="ldot" unicode="&#x140;" horiz-adv-x="525" 
d="M100 650h25v-625h350v-25h-375v650zM500 363v-75h-25v75h25z" />
    <glyph glyph-name="Lslash" unicode="&#x141;" horiz-adv-x="550" 
d="M100 425v400h25v-400h200v-25h-200v-375h450v-25h-475v400h-50v25h50z" />
    <glyph glyph-name="lslash" unicode="&#x142;" horiz-adv-x="500" 
d="M100 425v225h25v-225h175v-25h-175v-375h350v-25h-375v400h-50v25h50z" />
    <glyph glyph-name="Nacute" unicode="&#x143;" horiz-adv-x="832" 
d="M125 791v-791h-25v825h32l574 -791v791h25v-825h-32zM391 950l47 175h27l-47 -175h-27z" />
    <glyph glyph-name="nacute" unicode="&#x144;" horiz-adv-x="700" 
d="M129 650l447 -616v616h25v-650h-32l-444 611v-611h-25v650h29zM327 775l47 175h27l-47 -175h-27z" />
    <glyph glyph-name="Ncommaaccent" unicode="&#x145;" horiz-adv-x="832" 
d="M125 791v-791h-25v825h32l574 -791v791h25v-825h-32zM379 -277l47 175h27l-47 -175h-27z" />
    <glyph glyph-name="ncommaaccent" unicode="&#x146;" horiz-adv-x="700" 
d="M129 650l447 -616v616h25v-650h-32l-444 611v-611h-25v650h29zM315 -277l47 175h27l-47 -175h-27z" />
    <glyph glyph-name="Ncaron" unicode="&#x147;" horiz-adv-x="832" 
d="M125 791v-791h-25v825h32l574 -791v791h25v-825h-32zM304 1075l111 -112l112 112h36l-148 -147l-147 147h36z" />
    <glyph glyph-name="ncaron" unicode="&#x148;" horiz-adv-x="700" 
d="M129 650l447 -616v616h25v-650h-32l-444 611v-611h-25v650h29zM241 900l111 -112l112 112h36l-148 -147l-147 147h36z" />
    <glyph glyph-name="napostrophe" unicode="&#x149;" horiz-adv-x="825" 
d="M25 576l47 175h27l-47 -175h-27zM253 650l447 -616v616h25v-650h-32l-444 611v-611h-25v650h29z" />
    <glyph glyph-name="Eng" unicode="&#x14a;" horiz-adv-x="836" 
d="M706 -10l-581 801v-791h-25v825h32l574 -791v791h25v-950q0 -52 -36.5 -88.5t-88.5 -36.5v25q41 0 70.5 29.5t29.5 70.5v115z" />
    <glyph glyph-name="eng" unicode="&#x14b;" horiz-adv-x="812" 
d="M576 -10l-451 621v-611h-25v650h29l447 -616v616h25v-775q0 -52 -36.5 -88.5t-88.5 -36.5v25q41 0 70.5 29.5t29.5 70.5v115z" />
    <glyph glyph-name="Omacron" unicode="&#x14c;" 
d="M797 722q128 -128 128 -309q0 -182 -128 -310t-309 -128q-182 0 -310 128t-128 310q0 181 128 309t310 128q181 0 309 -128zM488 825q-171 0 -292 -121t-121 -291q0 -171 121 -292t292 -121q170 0 291 121t121 292q0 170 -121 291t-291 121zM613 975v-25h-250v25h250z
" />
    <glyph glyph-name="omacron" unicode="&#x14d;" horiz-adv-x="800" 
d="M647.5 572.5q102.5 -102.5 102.5 -247.5t-102.5 -247.5t-247.5 -102.5t-247.5 102.5t-102.5 247.5t102.5 247.5t247.5 102.5t247.5 -102.5zM400 650q-135 0 -230 -95t-95 -230t95 -230t230 -95t230 95t95 230t-95 230t-230 95zM525 800v-25h-250v25h250z" />
    <glyph glyph-name="Obreve" unicode="&#x14e;" 
d="M797 722q128 -128 128 -309q0 -182 -128 -310t-309 -128q-182 0 -310 128t-128 310q0 181 128 309t310 128q181 0 309 -128zM488 825q-171 0 -292 -121t-121 -291q0 -171 121 -292t292 -121q170 0 291 121t121 292q0 170 -121 291t-291 121zM610 1050h28q-12 -29 -35 -52
q-48 -48 -115 -48q-68 0 -115 48q-24 23 -36 52h28q10 -19 26 -34q40 -41 97 -41q56 0 97 41q15 15 25 34z" />
    <glyph glyph-name="obreve" unicode="&#x14f;" horiz-adv-x="800" 
d="M647.5 572.5q102.5 -102.5 102.5 -247.5t-102.5 -247.5t-247.5 -102.5t-247.5 102.5t-102.5 247.5t102.5 247.5t247.5 102.5t247.5 -102.5zM400 650q-135 0 -230 -95t-95 -230t95 -230t230 -95t230 95t95 230t-95 230t-230 95zM523 875h28q-12 -29 -35 -52
q-48 -48 -115 -48q-68 0 -115 48q-24 23 -36 52h28q10 -19 26 -34q40 -41 97 -41q56 0 97 41q15 15 25 34z" />
    <glyph glyph-name="Ohungarumlaut" unicode="&#x150;" 
d="M797 722q128 -128 128 -309q0 -182 -128 -310t-309 -128q-182 0 -310 128t-128 310q0 181 128 309t310 128q181 0 309 -128zM488 825q-171 0 -292 -121t-121 -291q0 -171 121 -292t292 -121q170 0 291 121t121 292q0 170 -121 291t-291 121zM403 950l47 175h27l-47 -175
h-27zM526 950l47 175h27l-47 -175h-27z" />
    <glyph glyph-name="ohungarumlaut" unicode="&#x151;" horiz-adv-x="800" 
d="M647.5 572.5q102.5 -102.5 102.5 -247.5t-102.5 -247.5t-247.5 -102.5t-247.5 102.5t-102.5 247.5t102.5 247.5t247.5 102.5t247.5 -102.5zM400 650q-135 0 -230 -95t-95 -230t95 -230t230 -95t230 95t95 230t-95 230t-230 95zM302 775l47 175h27l-47 -175h-27zM425 775
l47 175h27l-47 -175h-27z" />
    <glyph glyph-name="OE" unicode="&#x152;" horiz-adv-x="1350" 
d="M759 756q19 -15 38 -34q124 -124 128 -297h261v-25h-261q-5 -174 -128 -297q-19 -19 -38 -34q100 -69 229 -69q170 0 291 121l7 7l19 -17l-8 -8q-128 -128 -309 -128q-142 0 -250 77q-109 -77 -250 -77q-182 0 -310 128t-128 310q0 181 128 309t310 128q141 0 250 -77
q108 77 250 77q181 0 309 -128l4 -4l-19 -17l-3 3q-121 121 -291 121q-129 0 -229 -69zM716 756q-100 69 -228 69q-171 0 -292 -121t-121 -291q0 -171 121 -292t292 -121q128 0 228 69q-19 15 -38 34q-128 128 -128 310q0 181 128 309q19 19 38 34zM738 84q21 17 41 37
q116 116 121 279h-325q5 -163 121 -279q20 -20 42 -37zM900 425q-4 162 -121 279q-20 20 -41 37q-22 -17 -42 -37q-117 -117 -121 -279h325z" />
    <glyph glyph-name="oe" unicode="&#x153;" horiz-adv-x="1100" 
d="M579 597q-78 53 -179 53q-135 0 -230 -95t-95 -230t95 -230t230 -95q101 0 179 53q-13 11 -26 25q-103 102 -103 247t103 248q13 13 26 24zM725 313h-250q4 -127 95 -218q15 -15 30 -27q15 12 30 27q91 91 95 218zM725 338q-5 127 -95 217q-15 15 -30 27q-15 -12 -30 -27
q-90 -90 -95 -217h250zM621 597q13 -11 27 -24q97 -98 102 -235h175v-25h-175q-4 -137 -102 -235q-14 -14 -27 -25q78 -53 179 -53q132 0 225 90l17 -18q-101 -97 -242 -97q-113 0 -200 62q-87 -62 -200 -62q-145 0 -247.5 102.5t-102.5 247.5t102.5 247.5t247.5 102.5
q113 0 200 -62q87 62 200 62q145 0 248 -102q1 -2 3 -4l-18 -17l-3 3q-95 95 -230 95q-101 0 -179 -53z" />
    <glyph glyph-name="Racute" unicode="&#x154;" horiz-adv-x="775" 
d="M125 800v-550h275q114 0 194.5 80.5t80.5 194.5t-80.5 194.5t-194.5 80.5h-275zM100 825h300q124 0 212 -88t88 -212t-88 -212q-41 -41 -90 -63l144 -250h-30l-138 240q-46 -15 -98 -15h-275v-225h-25v825zM375 950l47 175h27l-47 -175h-27z" />
    <glyph glyph-name="racute" unicode="&#x155;" horiz-adv-x="675" 
d="M125 625v-450h220q93 0 159 66t66 159t-66 159t-159 66h-220zM100 650h245q104 0 177 -73t73 -177t-73 -177q-36 -36 -79 -54l98 -169h-30l-93 160q-34 -10 -73 -10h-220v-150h-25v650zM313 775l47 175h27l-47 -175h-27z" />
    <glyph glyph-name="Rcommaaccent" unicode="&#x156;" horiz-adv-x="775" 
d="M125 800v-550h275q114 0 194.5 80.5t80.5 194.5t-80.5 194.5t-194.5 80.5h-275zM100 825h300q124 0 212 -88t88 -212t-88 -212q-41 -41 -90 -63l144 -250h-30l-138 240q-46 -15 -98 -15h-275v-225h-25v825zM300 -278l47 175h27l-47 -175h-27z" />
    <glyph glyph-name="rcommaaccent" unicode="&#x157;" horiz-adv-x="675" 
d="M125 625v-450h220q93 0 159 66t66 159t-66 159t-159 66h-220zM100 650h245q104 0 177 -73t73 -177t-73 -177q-36 -36 -79 -54l98 -169h-30l-93 160q-34 -10 -73 -10h-220v-150h-25v650zM225 -277l47 175h27l-47 -175h-27z" />
    <glyph glyph-name="Rcaron" unicode="&#x158;" horiz-adv-x="775" 
d="M125 800v-550h275q114 0 194.5 80.5t80.5 194.5t-80.5 194.5t-194.5 80.5h-275zM100 825h300q124 0 212 -88t88 -212t-88 -212q-41 -41 -90 -63l144 -250h-30l-138 240q-46 -15 -98 -15h-275v-225h-25v825zM260 1075l111 -112l112 112h36l-148 -147l-147 147h36z" />
    <glyph glyph-name="rcaron" unicode="&#x159;" horiz-adv-x="675" 
d="M125 625v-450h220q93 0 159 66t66 159t-66 159t-159 66h-220zM100 650h245q104 0 177 -73t73 -177t-73 -177q-36 -36 -79 -54l98 -169h-30l-93 160q-34 -10 -73 -10h-220v-150h-25v650zM211 900l111 -112l112 112h36l-148 -147l-147 147h36z" />
    <glyph glyph-name="Sacute" unicode="&#x15a;" horiz-adv-x="700" 
d="M586 51q-81 -78 -199 -86q-14 -1 -28 -1q-137 0 -238 80q-58 53 -86 106l23 11q25 -49 80 -98q93 -74 219 -74q14 0 28 1q108 7 183 79q35 32 48 80q7 24 7 48q0 44 -24 86q-37 62 -107 80l-241 65q-90 24 -136 95q-31 47 -31 102q0 28 8 59q24 90 104 137q53 30 109 34
q19 2 38 2q92 0 176 -44q54 -32 101 -86l-21 -14q-43 50 -93 78q-79 41 -163 41q-18 0 -37 -2q-50 -4 -97 -31q-72 -42 -93 -122q-8 -28 -8 -53q0 -48 28 -88q41 -62 121 -84l242 -64q80 -22 122 -93q27 -47 27 -98q0 -26 -8 -54q-14 -56 -53 -93zM317 950l47 175h27
l-47 -175h-27z" />
    <glyph glyph-name="sacute" unicode="&#x15b;" horiz-adv-x="575" 
d="M487 244q24 -40 24 -87q0 -21 -5 -43q-17 -73 -79 -111q-47 -26 -100 -34q-29 -4 -57 -4q-113 0 -215 59q-3 2 -5 3l15 21l4 -4q96 -53 203 -53q25 0 52 3q45 5 91 30q52 33 66 96q5 20 5 38q0 39 -20 73q-30 49 -97 69l-169 40v-1q-82 23 -119 79q-27 39 -27 88
q0 19 4 40q17 65 69.5 101t136.5 38h7q131 0 230 -68q1 -2 4 -4l-19 -18q0 2 -2 5q-92 60 -212 60h-8q-77 -2 -122.5 -33.5t-59.5 -85.5q-4 -19 -4 -36q0 -41 24 -74q33 -47 103 -68v1l171 -40q76 -21 111 -80zM256 775l47 175h27l-47 -175h-27z" />
    <glyph glyph-name="Scircumflex" unicode="&#x15c;" horiz-adv-x="700" 
d="M586 51q-81 -78 -199 -86q-14 -1 -28 -1q-137 0 -238 80q-58 53 -86 106l23 11q25 -49 80 -98q93 -74 219 -74q14 0 28 1q108 7 183 79q35 32 48 80q7 24 7 48q0 44 -24 86q-37 62 -107 80l-241 65q-90 24 -136 95q-31 47 -31 102q0 28 8 59q24 90 104 137q53 30 109 34
q19 2 38 2q92 0 176 -44q54 -32 101 -86l-21 -14q-43 50 -93 78q-79 41 -163 41q-18 0 -37 -2q-50 -4 -97 -31q-72 -42 -93 -122q-8 -28 -8 -53q0 -48 28 -88q41 -62 121 -84l242 -64q80 -22 122 -93q27 -47 27 -98q0 -26 -8 -54q-14 -56 -53 -93zM453 925l-111 112
l-112 -112h-36l148 147l147 -147h-36z" />
    <glyph glyph-name="scircumflex" unicode="&#x15d;" horiz-adv-x="575" 
d="M487 244q24 -40 24 -87q0 -21 -5 -43q-17 -73 -79 -111q-47 -26 -100 -34q-29 -4 -57 -4q-113 0 -215 59q-3 2 -5 3l15 21l4 -4q96 -53 203 -53q25 0 52 3q45 5 91 30q52 33 66 96q5 20 5 38q0 39 -20 73q-30 49 -97 69l-169 40v-1q-82 23 -119 79q-27 39 -27 88
q0 19 4 40q17 65 69.5 101t136.5 38h7q131 0 230 -68q1 -2 4 -4l-19 -18q0 2 -2 5q-92 60 -212 60h-8q-77 -2 -122.5 -33.5t-59.5 -85.5q-4 -19 -4 -36q0 -41 24 -74q33 -47 103 -68v1l171 -40q76 -21 111 -80zM392 775l-111 112l-112 -112h-36l148 147l147 -147h-36z" />
    <glyph glyph-name="Scedilla" unicode="&#x15e;" horiz-adv-x="725" 
d="M325 -35q-116 9 -204 79q-58 53 -86 106l23 11q25 -49 80 -98q93 -74 219 -74q14 0 28 1q108 7 183 79q35 32 48 80q7 24 7 48q0 44 -24 86q-37 62 -107 80l-241 65q-90 24 -136 95q-31 47 -31 102q0 28 8 59q24 90 104 137q53 30 109 34q19 2 38 2q92 0 176 -44
q54 -32 101 -86l-21 -14q-43 50 -93 78q-79 41 -163 41q-18 0 -37 -2q-50 -4 -97 -31q-72 -42 -93 -122q-8 -28 -8 -53q0 -48 28 -88q41 -62 121 -84l242 -64q80 -22 122 -93q27 -47 27 -98q0 -26 -8 -54q-14 -56 -53 -93l-1 1q-81 -78 -199 -86q-19 -1 -37 -1v-64h25
q52 0 88.5 -36.5t36.5 -88.5t-36.5 -88.5t-88.5 -36.5h-100v25h100q41 0 70.5 29.5t29.5 70.5t-29.5 70.5t-70.5 29.5h-50v90z" />
    <glyph glyph-name="scedilla" unicode="&#x15f;" horiz-adv-x="625" 
d="M244 -31q-85 10 -164 55q-3 2 -5 3l15 21l4 -4q96 -53 203 -53q25 0 52 3q45 5 91 30q52 33 66 96q5 20 5 38q0 39 -20 73q-30 49 -97 69l-169 40v-1q-82 23 -119 79q-27 39 -27 88q0 19 4 40q17 65 69.5 101t136.5 38h7q131 0 230 -68q1 -2 4 -4l-19 -18q0 2 -2 5
q-92 60 -212 60h-8q-77 -2 -122.5 -33.5t-59.5 -85.5q-4 -19 -4 -36q0 -41 24 -74q33 -47 103 -68v1l171 -40q76 -21 111 -80q24 -40 24 -87q0 -21 -5 -43q-17 -73 -79 -111q-47 -26 -100 -34q-30 -4 -60 -4q-11 0 -23 1v-66h25q52 0 88.5 -36.5t36.5 -88.5t-36.5 -88.5
t-88.5 -36.5h-100v25h100q41 0 70.5 29.5t29.5 70.5t-29.5 70.5t-70.5 29.5h-50v94z" />
    <glyph glyph-name="Scaron" unicode="&#x160;" horiz-adv-x="700" 
d="M586 51q-81 -78 -199 -86q-14 -1 -28 -1q-137 0 -238 80q-58 53 -86 106l23 11q25 -49 80 -98q93 -74 219 -74q14 0 28 1q108 7 183 79q35 32 48 80q7 24 7 48q0 44 -24 86q-37 62 -107 80l-241 65q-90 24 -136 95q-31 47 -31 102q0 28 8 59q24 90 104 137q53 30 109 34
q19 2 38 2q92 0 176 -44q54 -32 101 -86l-21 -14q-43 50 -93 78q-79 41 -163 41q-18 0 -37 -2q-50 -4 -97 -31q-72 -42 -93 -122q-8 -28 -8 -53q0 -48 28 -88q41 -62 121 -84l242 -64q80 -22 122 -93q27 -47 27 -98q0 -26 -8 -54q-14 -56 -53 -93zM230 1075l111 -112
l112 112h36l-148 -147l-147 147h36z" />
    <glyph glyph-name="scaron" unicode="&#x161;" horiz-adv-x="625" 
d="M512 244q24 -40 24 -87q0 -21 -5 -43q-17 -73 -79 -111q-47 -26 -100 -34q-29 -4 -57 -4q-113 0 -215 59q-3 2 -5 3l15 21l4 -4q96 -53 203 -53q25 0 52 3q45 5 91 30q52 33 66 96q5 20 5 38q0 39 -20 73q-30 49 -97 69l-169 40v-1q-82 23 -119 79q-27 39 -27 88
q0 19 4 40q17 65 69.5 101t136.5 38h7q131 0 230 -68q1 -2 4 -4l-19 -18q0 2 -2 5q-92 60 -212 60h-8q-77 -2 -122.5 -33.5t-59.5 -85.5q-4 -19 -4 -36q0 -41 24 -74q33 -47 103 -68v1l171 -40q76 -21 111 -80zM229 925l111 -112l112 112h36l-148 -147l-147 147h36z" />
    <glyph glyph-name="Tcedilla" unicode="&#x162;" horiz-adv-x="525" 
d="M250 800h-250v25h525v-25h-250v-900h24q52 0 88.5 -36.5t36.5 -88.5t-36.5 -88.5t-88.5 -36.5h-100v25h100q41 0 70.5 29.5t29.5 70.5t-29.5 70.5t-70.5 29.5h-49v925z" />
    <glyph glyph-name="tcedilla" unicode="&#x163;" horiz-adv-x="425" 
d="M200 625h-200v25h425v-25h-200v-725h25q52 0 88.5 -36.5t36.5 -88.5t-36.5 -88.5t-88.5 -36.5h-100v25h100q41 0 70.5 29.5t29.5 70.5t-29.5 70.5t-70.5 29.5h-50v750z" />
    <glyph glyph-name="Tcaron" unicode="&#x164;" horiz-adv-x="525" 
d="M525 825v-25h-250v-800h-25v800h-250v25h525zM151 1075l111 -112l112 112h36l-148 -147l-147 147h36z" />
    <glyph glyph-name="tcaron" unicode="&#x165;" horiz-adv-x="550" 
d="M425 650v-25h-200v-625h-25v625h-200v25h425zM475 625l47 175h27l-47 -175h-27z" />
    <glyph glyph-name="Tbar" unicode="&#x166;" horiz-adv-x="525" 
d="M250 425v375h-250v25h525v-25h-250v-375h125v-25h-125v-400h-25v400h-125v25h125z" />
    <glyph glyph-name="tbar" unicode="&#x167;" horiz-adv-x="425" 
d="M200 273v352h-200v25h425v-25h-200v-352h125v-25h-125v-248h-25v248h-125v25h125z" />
    <glyph glyph-name="Utilde" unicode="&#x168;" horiz-adv-x="800" 
d="M75 325v500h25v-500q0 -124 88 -212t212 -88t212 88t88 212v500h25v-500q0 -135 -95 -230t-230 -95t-230 95t-95 230zM563 994v-25q-46 -19 -92 -19q-35 0 -70 11q-36 11 -71 11q-46 0 -92 -19v25q46 19 92 19q35 0 71 -11q35 -11 70 -11q46 0 92 19z" />
    <glyph glyph-name="utilde" unicode="&#x169;" horiz-adv-x="650" 
d="M550 225v425h25v-425q0 -104 -73 -177t-177 -73t-177 73t-73 177v425h25v-425q0 -93 66 -159t159 -66t159 66t66 159zM488 819v-25q-46 -19 -92 -19q-35 0 -70 11q-36 11 -71 11q-46 0 -92 -19v25q46 19 92 19q35 0 71 -11q35 -11 70 -11q46 0 92 19z" />
    <glyph glyph-name="Umacron" unicode="&#x16a;" horiz-adv-x="800" 
d="M75 325v500h25v-500q0 -124 88 -212t212 -88t212 88t88 212v500h25v-500q0 -135 -95 -230t-230 -95t-230 95t-95 230zM525 950v-25h-250v25h250z" />
    <glyph glyph-name="umacron" unicode="&#x16b;" horiz-adv-x="650" 
d="M550 225v425h25v-425q0 -104 -73 -177t-177 -73t-177 73t-73 177v425h25v-425q0 -93 66 -159t159 -66t159 66t66 159zM450 775v-25h-250v25h250z" />
    <glyph glyph-name="Ubreve" unicode="&#x16c;" horiz-adv-x="800" 
d="M75 325v500h25v-500q0 -124 88 -212t212 -88t212 88t88 212v500h25v-500q0 -135 -95 -230t-230 -95t-230 95t-95 230zM523 1050h28q-12 -29 -35 -52q-48 -48 -115 -48q-68 0 -115 48q-24 23 -36 52h28q10 -19 26 -34q40 -41 97 -41q56 0 97 41q15 15 25 34z" />
    <glyph glyph-name="ubreve" unicode="&#x16d;" horiz-adv-x="650" 
d="M550 225v425h25v-425q0 -104 -73 -177t-177 -73t-177 73t-73 177v425h25v-425q0 -93 66 -159t159 -66t159 66t66 159zM448 875h28q-12 -29 -35 -52q-48 -48 -115 -48q-68 0 -115 48q-24 23 -36 52h28q10 -19 26 -34q40 -41 97 -41q56 0 97 41q15 15 25 34z" />
    <glyph glyph-name="Uring" unicode="&#x16e;" horiz-adv-x="800" 
d="M75 325v500h25v-500q0 -124 88 -212t212 -88t212 88t88 212v500h25v-500q0 -135 -95 -230t-230 -95t-230 95t-95 230zM462.5 1074.5q25.5 -25.5 25.5 -61.5q0 -37 -25.5 -62.5t-61.5 -25.5q-37 0 -62.5 25.5t-25.5 62.5q0 36 25.5 61.5t62.5 25.5q36 0 61.5 -25.5z
M401 1075q-26 0 -44.5 -18.5t-18.5 -43.5q0 -26 18.5 -44.5t44.5 -18.5q25 0 43.5 18.5t18.5 44.5q0 25 -18.5 43.5t-43.5 18.5z" />
    <glyph glyph-name="uring" unicode="&#x16f;" horiz-adv-x="650" 
d="M550 225v425h25v-425q0 -104 -73 -177t-177 -73t-177 73t-73 177v425h25v-425q0 -93 66 -159t159 -66t159 66t66 159zM387.5 899.5q25.5 -25.5 25.5 -61.5q0 -37 -25.5 -62.5t-61.5 -25.5q-37 0 -62.5 25.5t-25.5 62.5q0 36 25.5 61.5t62.5 25.5q36 0 61.5 -25.5z
M326 900q-26 0 -44.5 -18.5t-18.5 -43.5q0 -26 18.5 -44.5t44.5 -18.5q25 0 43.5 18.5t18.5 44.5q0 25 -18.5 43.5t-43.5 18.5z" />
    <glyph glyph-name="Uhungarumlaut" unicode="&#x170;" horiz-adv-x="850" 
d="M101 325v500h25v-500q0 -124 88 -212t212 -88t212 88t88 212v500h25v-500q0 -135 -95 -230t-230 -95t-230 95t-95 230zM354 925l47 175h27l-47 -175h-27zM477 925l47 175h27l-47 -175h-27z" />
    <glyph glyph-name="uhungarumlaut" unicode="&#x171;" horiz-adv-x="650" 
d="M550 225v425h25v-425q0 -104 -73 -177t-177 -73t-177 73t-73 177v425h25v-425q0 -93 66 -159t159 -66t159 66t66 159zM227 775l47 175h27l-47 -175h-27zM350 775l47 175h27l-47 -175h-27z" />
    <glyph glyph-name="Uogonek" unicode="&#x172;" horiz-adv-x="800" 
d="M484 10q-40 -10 -85 -10q-135 0 -230 95t-95 230v500h25v-500q0 -124 88 -212t212 -88t212 88t88 212v500h25v-500q0 -135 -95 -230q-40 -40 -87 -63q-12 -7 -22 -17q-30 -30 -30 -71t29.5 -70.5t70.5 -29.5h100v-25h-100q-52 0 -88.5 36.5t-36.5 88.5q0 37 19 66z" />
    <glyph glyph-name="uogonek" unicode="&#x173;" horiz-adv-x="650" 
d="M280 -21q-75 12 -132 69q-73 73 -73 177v425h25v-425q0 -93 66 -159t159 -66t159 66t66 159v425h25v-425q0 -104 -73 -177q-64 -64 -152 -72v-1q-41 0 -70.5 -29.5t-29.5 -70.5t29.5 -70.5t70.5 -29.5h100v-25h-100q-52 0 -88.5 36.5t-36.5 88.5t37 89q8 8 18 15z" />
    <glyph glyph-name="Wcircumflex" unicode="&#x174;" horiz-adv-x="1175" 
d="M587 616l-234 -616h-33l-310 825h27l300 -796l237 624h27l237 -624l299 796h27l-310 -825h-33zM699 825l-111 112l-112 -112h-36l148 147l147 -147h-36z" />
    <glyph glyph-name="wcircumflex" unicode="&#x175;" 
d="M237 0l-236 650h28l223 -613l222 613h30l223 -613l222 613h28l-236 -650h-29l-223 614l-223 -614h-29zM601 750l-111 112l-112 -112h-36l148 147l147 -147h-36z" />
    <glyph glyph-name="Ycircumflex" unicode="&#x176;" horiz-adv-x="625" 
d="M325 306v-306h-25v306l-300 519h29l284 -491l283 491h29zM424 925l-111 112l-112 -112h-36l148 147l147 -147h-36z" />
    <glyph glyph-name="ycircumflex" unicode="&#x177;" horiz-adv-x="575" 
d="M300 181v-181h-25v181l-271 469h29l255 -441l254 441h29zM399 750l-111 112l-112 -112h-36l148 147l147 -147h-36z" />
    <glyph glyph-name="Ydieresis" unicode="&#x178;" horiz-adv-x="625" 
d="M325 306v-306h-25v306l-300 519h29l284 -491l283 491h29zM225 950v75h25v-75h-25zM374 950v75h25v-75h-25z" />
    <glyph glyph-name="Zacute" unicode="&#x179;" horiz-adv-x="650" 
d="M589 800h-563v25h594v-25l-563 -775h563v-25h-594v25zM298 950l47 175h27l-47 -175h-27z" />
    <glyph glyph-name="zacute" unicode="&#x17a;" horiz-adv-x="600" 
d="M542 625h-516v25h550v-25l-516 -600h516v-25h-550v25zM276 775l47 175h27l-47 -175h-27z" />
    <glyph glyph-name="Zdotaccent" unicode="&#x17b;" horiz-adv-x="650" 
d="M589 800h-563v25h594v-25l-563 -775h563v-25h-594v25zM336 1025v-75h-25v75h25z" />
    <glyph glyph-name="zdotaccent" unicode="&#x17c;" horiz-adv-x="600" 
d="M542 625h-516v25h550v-25l-516 -600h516v-25h-550v25zM314 850v-75h-25v75h25z" />
    <glyph glyph-name="Zcaron" unicode="&#x17d;" horiz-adv-x="650" 
d="M589 800h-563v25h594v-25l-563 -775h563v-25h-594v25zM212 1075l111 -112l112 112h36l-148 -147l-147 147h36z" />
    <glyph glyph-name="zcaron" unicode="&#x17e;" horiz-adv-x="600" 
d="M542 625h-516v25h550v-25l-516 -600h516v-25h-550v25zM190 900l111 -112l112 112h36l-148 -147l-147 147h36z" />
    <glyph glyph-name="longs" unicode="&#x17f;" horiz-adv-x="300" 
d="M-200 650h425v-25h-400v-287h300v-25h-300v-313h-25v650z" />
    <glyph glyph-name="bstroke" unicode="&#x180;" horiz-adv-x="625" 
d="M100 350v300h295q66 -1 113 -47q47 -48 47 -115q0 -68 -47 -115q-23 -23 -50 -35q33 -12 60 -39q51 -51 51 -124q0 -72 -51 -123q-52 -52 -123 -52h-295v325h-100v25h100zM125 325v-300h270q61 0 105 44t44 106t-44 106t-105 44h-270zM395 350q55 1 95 41t40 97
q0 56 -40 97q-40 39 -95 40h-270v-275h270z" />
    <glyph glyph-name="btopbar" unicode="&#x183;" horiz-adv-x="625" 
d="M125 325v-300h270q61 0 105 44t44 106t-44 106t-105 44h-270zM395 650q66 -1 113 -47q47 -48 47 -115q0 -68 -47 -115q-23 -23 -50 -35q33 -12 60 -39q51 -51 51 -124q0 -72 -51 -123q-52 -52 -123 -52h-295v625h-100v25h395zM125 625v-275h270q55 1 95 41t40 97
q0 56 -40 97q-40 39 -95 40h-270z" />
    <glyph glyph-name="africand" unicode="&#x189;" horiz-adv-x="900" 
d="M100 425v400h324q171 0 291 -121q121 -121 121 -292q0 -170 -121 -291q-120 -121 -290 -121v-1h-325v401h-100v25h100zM125 425h150v-25h-150v-376h299v1q161 0 274 114q113 113 113 273q0 161 -113 275q-113 113 -274 113h-299v-375z" />
    <glyph glyph-name="Dtopbar" unicode="&#x18b;" horiz-adv-x="900" 
d="M125 800v-776h299v1q161 0 274 114q113 113 113 273q0 161 -113 275q-113 113 -274 113h-299zM424 825q171 0 291 -121q121 -121 121 -292q0 -170 -121 -291q-120 -121 -290 -121v-1h-325v801h-225v25h549z" />
    <glyph glyph-name="dtopbar" unicode="&#x18c;" horiz-adv-x="850" 
d="M325 650q135 0 230 -95t95 -230t-95 -230t-230 -95h-225v625h-100v25h325zM125 625v-600h200q124 0 212 88t88 212t-88 212t-212 88h-200z" />
    <glyph glyph-name="turneddelta" unicode="&#x18d;" horiz-adv-x="600" 
d="M100 450q0 -83 58.5 -141.5t141.5 -58.5t141.5 58.5t58.5 141.5t-58.5 141.5t-141.5 58.5t-141.5 -58.5t-58.5 -141.5zM78 0v25h329l-265 265l-1 1q-66 66 -66 159t66 159t159 66t159 -66t66 -159t-66 -159t-159 -66q-35 0 -66 9l209 -209v-25h-365z" />
    <glyph glyph-name="reversedE" unicode="&#x18e;" horiz-adv-x="625" 
d="M100 825h475v-25h-450v-375h350v-25h-350v-375h450v-25h-475v825z" />
    <glyph glyph-name="Schwa" unicode="&#x18f;" horiz-adv-x="850" 
d="M54 718l4 4q128 128 309 128q182 0 310 -128t128 -309q0 -182 -128 -310t-310 -128q-181 0 -309 128l-8 8l19 17l7 -7q121 -121 291 -121q164 0 282 111l-587 599zM666 129q114 118 114 284q0 170 -121 291t-292 121q-161 0 -277 -108z" />
    <glyph glyph-name="openE" unicode="&#x190;" horiz-adv-x="550" 
d="M315 425v25h-1q-77 0 -132 55t-55 133q0 77 55 132t132 55q78 0 133 -55q51 -51 55 -120h25q-4 80 -62 138q-62 62 -151 62q-88 0 -150 -62t-62 -150q0 -89 62 -151q33 -33 74 -49q-51 -16 -93 -57q-69 -70 -69 -168q0 -99 69.5 -168.5t167.5 -69.5q99 0 168.5 69.5
t69.5 168.5v12h-25v-12q0 -89 -62 -151t-151 -62q-88 0 -150 62t-62 151q0 88 62 150t150 62h2z" />
    <glyph glyph-name="Fhook" unicode="&#x191;" horiz-adv-x="600" 
d="M100 825h25v-1h450v-25h-450v-374h350v-25h-350v-400q0 -135 -95 -230t-230 -95v25q125 0 213 88q87 88 87 212v825z" />
    <glyph glyph-name="florin" unicode="&#x192;" horiz-adv-x="300" 
d="M100 750q0 135 95 230t230 95v-25q-125 0 -213 -88q-87 -88 -87 -212v-100h149v-25h-149v-625q0 -135 -95 -230t-230 -95v25q125 0 213 88q87 88 87 212v750z" />
    <glyph glyph-name="Iota" unicode="&#x196;" horiz-adv-x="274" 
d="M100 825v-825h-25v825h25z" />
    <glyph glyph-name="Istroke" unicode="&#x197;" horiz-adv-x="225" 
d="M100 425v400h25v-400h125v-25h-125v-400h-25v400h-125v25h125z" />
    <glyph glyph-name="lbar" unicode="&#x19a;" horiz-adv-x="225" 
d="M100 425v400h25v-400h125v-25h-125v-400h-25v400h-125v25h125z" />
    <glyph glyph-name="Ohorn" unicode="&#x1a0;" 
d="M797 722q128 -128 128 -309q0 -182 -128 -310t-309 -128q-182 0 -310 128t-128 310q0 181 128 309t310 128q181 0 309 -128zM488 825q-171 0 -292 -121t-121 -291q0 -171 121 -292t292 -121q170 0 291 121t121 292q0 170 -121 291t-291 121zM1162 775q0 -52 -36.5 -88.5
t-88.5 -36.5v25q41 0 70.5 29.5t29.5 70.5v225h25v-225z" />
    <glyph glyph-name="ohorn" unicode="&#x1a1;" horiz-adv-x="800" 
d="M647.5 572.5q102.5 -102.5 102.5 -247.5t-102.5 -247.5t-247.5 -102.5t-247.5 102.5t-102.5 247.5t102.5 247.5t247.5 102.5t247.5 -102.5zM400 650q-135 0 -230 -95t-95 -230t95 -230t230 -95t230 95t95 230t-95 230t-230 95zM987 600q0 -52 -36.5 -88.5t-88.5 -36.5v25
q41 0 70.5 29.5t29.5 70.5v225h25v-225z" />
    <glyph glyph-name="uni01A7" unicode="&#x1a7;" horiz-adv-x="700" 
d="M112 51q81 -78 199 -86q14 -1 28 -1q137 0 238 80q58 53 86 106l-23 11q-25 -49 -80 -98q-93 -74 -219 -74q-14 0 -28 1q-108 7 -183 79q-35 32 -48 80q-7 24 -7 48q0 44 24 86q37 62 107 80l241 65q90 24 136 95q31 47 31 102q0 28 -8 59q-24 90 -104 137
q-53 30 -109 34q-19 2 -38 2q-92 0 -176 -44q-54 -32 -101 -86l21 -14q43 50 93 78q79 41 163 41q18 0 37 -2q50 -4 97 -31q72 -42 93 -122q8 -28 8 -53q0 -48 -28 -88q-41 -62 -121 -84l-242 -64q-80 -22 -122 -93q-27 -47 -27 -98q0 -26 8 -54q14 -56 53 -93z" />
    <glyph glyph-name="uni01A8" unicode="&#x1a8;" horiz-adv-x="575" 
d="M73 244q-24 -40 -24 -87q0 -21 5 -43q17 -73 79 -111q47 -26 100 -34q29 -4 57 -4q113 0 215 59q3 2 5 3l-15 21l-4 -4q-96 -53 -203 -53q-25 0 -52 3q-45 5 -91 30q-52 33 -66 96q-5 20 -5 38q0 39 20 73q30 49 97 69l169 40v-1q82 23 119 79q27 39 27 88q0 19 -4 40
q-17 65 -69.5 101t-136.5 38h-7q-131 0 -230 -68q-1 -2 -4 -4l19 -18q0 2 2 5q92 60 212 60h8q77 -2 122.5 -33.5t59.5 -85.5q4 -19 4 -36q0 -41 -24 -74q-33 -47 -103 -68v1l-171 -40q-76 -21 -111 -80z" />
    <glyph glyph-name="Uhorn" unicode="&#x1af;" horiz-adv-x="800" 
d="M75 325v500h25v-500q0 -124 88 -212t212 -88t212 88t88 212v500h25v-500q0 -135 -95 -230t-230 -95t-230 95t-95 230zM1014 775q0 -52 -36.5 -88.5t-88.5 -36.5v25q41 0 70.5 29.5t29.5 70.5v225h25v-225z" />
    <glyph glyph-name="uhorn" unicode="&#x1b0;" horiz-adv-x="925" 
d="M550 225v425h25v-425q0 -104 -73 -177t-177 -73t-177 73t-73 177v425h25v-425q0 -93 66 -159t159 -66t159 66t66 159zM816 600q0 -52 -36.5 -88.5t-88.5 -36.5v25q41 0 70.5 29.5t29.5 70.5v225h25v-225z" />
    <glyph glyph-name="uni01B5" unicode="&#x1b5;" horiz-adv-x="650" 
d="M317 425l272 375h-563v25h594v-25l-272 -375h113v-25h-132l-272 -375h563v-25h-594v25l272 375h-112v25h131z" />
    <glyph glyph-name="uni01B6" unicode="&#x1b6;" horiz-adv-x="600" 
d="M295 338l247 287h-516v25h550v-25l-247 -287h110v-25h-131l-248 -288h516v-25h-550v25l248 288h-110v25h131z" />
    <glyph glyph-name="uni01C4" unicode="&#x1c4;" horiz-adv-x="1550" 
d="M125 800v-776h299v1q161 0 274 114q113 113 113 273q0 161 -113 275q-113 113 -274 113h-299zM100 825h324q171 0 291 -121q121 -121 121 -292q0 -170 -121 -291q-120 -121 -290 -121v-1h-325v826zM1489 800h-563v25h594v-25l-563 -775h563v-25h-594v25zM1112 1075
l111 -112l112 112h36l-148 -147l-147 147h36z" />
    <glyph glyph-name="uni01C5" unicode="&#x1c5;" horiz-adv-x="1500" 
d="M125 800v-776h299v1q161 0 274 114q113 113 113 273q0 161 -113 275q-113 113 -274 113h-299zM100 825h324q171 0 291 -121q121 -121 121 -292q0 -170 -121 -291q-120 -121 -290 -121v-1h-325v826zM1442 625h-516v25h550v-25l-516 -600h516v-25h-550v25zM1090 900
l111 -112l112 112h36l-148 -147l-147 147h36z" />
    <glyph glyph-name="uni01C6" unicode="&#x1c6;" horiz-adv-x="1425" 
d="M276 650q135 0 230 -95t95 -230t-95 -230t-230 -95h-225v650h225zM276 25q124 0 212 88t88 212t-88 212t-212 88h-200v-600h200zM1318 625h-516v25h550v-25l-516 -600h516v-25h-550v25zM966 900l111 -112l112 112h36l-148 -147l-147 147h36z" />
    <glyph glyph-name="uni01C7" unicode="&#x1c7;" horiz-adv-x="925" 
d="M100 825h25v-800h450v-25h-475v825zM825 325v500h25v-500q0 -135 -95 -230t-230 -95v25q125 0 213 88q87 88 87 212z" />
    <glyph glyph-name="uni01C8" unicode="&#x1c8;" horiz-adv-x="775" 
d="M100 825h25v-800h450v-25h-475v825zM725 200q0 -83 -58.5 -141.5t-141.5 -58.5v25q72 0 123.5 51.5t51.5 123.5v450h25v-450z" />
    <glyph glyph-name="uni01C9" unicode="&#x1c9;" horiz-adv-x="725" 
d="M100 650h25v-625h350v-25h-375v650zM675 200q0 -83 -58.5 -141.5t-141.5 -58.5v25q72 0 123.5 51.5t51.5 123.5v450h25v-450z" />
    <glyph glyph-name="uni01CA" unicode="&#x1ca;" horiz-adv-x="1211" 
d="M125 791v-791h-25v825h32l574 -791v791h25v-825h-32zM1111 325v500h25v-500q0 -135 -95 -230t-230 -95v25q125 0 213 88q87 88 87 212z" />
    <glyph glyph-name="uni01CB" unicode="&#x1cb;" horiz-adv-x="1100" 
d="M125 791v-791h-25v825h32l574 -791v791h25v-825h-32zM1050 200q0 -83 -58.5 -141.5t-141.5 -58.5v25q72 0 123.5 51.5t51.5 123.5v450h25v-450z" />
    <glyph glyph-name="uni01CC" unicode="&#x1cc;" horiz-adv-x="1037" 
d="M129 650l447 -616v616h25v-650h-32l-444 611v-611h-25v650h29zM987 200q0 -83 -58.5 -141.5t-141.5 -58.5v25q72 0 123.5 51.5t51.5 123.5v450h25v-450z" />
    <glyph glyph-name="uni01CD" unicode="&#x1cd;" horiz-adv-x="825" 
d="M710 160l-298 639l-298 -639h596zM428 825l385 -825h-28l-63 135h-620l-63 -135h-28l385 825h32zM301 1075l111 -112l112 112h36l-148 -147l-147 147h36z" />
    <glyph glyph-name="uni01CE" unicode="&#x1ce;" horiz-adv-x="675" 
d="M118 150h443l-222 474zM573 125h-467l-58 -125h-28l303 650h32l304 -650h-28zM228 900l111 -112l112 112h36l-148 -147l-147 147h36z" />
    <glyph glyph-name="uni01CF" unicode="&#x1cf;" horiz-adv-x="225" 
d="M125 825v-825h-25v825h25zM1 1075l111 -112l112 112h36l-148 -147l-147 147h36z" />
    <glyph glyph-name="uni01D0" unicode="&#x1d0;" horiz-adv-x="225" 
d="M125 650v-650h-25v650h25zM1 900l111 -112l112 112h36l-148 -147l-147 147h36z" />
    <glyph glyph-name="uni01D1" unicode="&#x1d1;" 
d="M797 722q128 -128 128 -309q0 -182 -128 -310t-309 -128q-182 0 -310 128t-128 310q0 181 128 309t310 128q181 0 309 -128zM488 825q-171 0 -292 -121t-121 -291q0 -171 121 -292t292 -121q170 0 291 121t121 292q0 170 -121 291t-291 121zM376 1075l111 -112l112 112
h36l-148 -147l-147 147h36z" />
    <glyph glyph-name="uni01D2" unicode="&#x1d2;" horiz-adv-x="800" 
d="M647.5 572.5q102.5 -102.5 102.5 -247.5t-102.5 -247.5t-247.5 -102.5t-247.5 102.5t-102.5 247.5t102.5 247.5t247.5 102.5t247.5 -102.5zM400 650q-135 0 -230 -95t-95 -230t95 -230t230 -95t230 95t95 230t-95 230t-230 95zM289 900l111 -112l112 112h36l-148 -147
l-147 147h36z" />
    <glyph glyph-name="uni01D3" unicode="&#x1d3;" horiz-adv-x="800" 
d="M75 325v500h25v-500q0 -124 88 -212t212 -88t212 88t88 212v500h25v-500q0 -135 -95 -230t-230 -95t-230 95t-95 230zM289 1075l111 -112l112 112h36l-148 -147l-147 147h36z" />
    <glyph glyph-name="uni01D4" unicode="&#x1d4;" horiz-adv-x="650" 
d="M550 225v425h25v-425q0 -104 -73 -177t-177 -73t-177 73t-73 177v425h25v-425q0 -93 66 -159t159 -66t159 66t66 159zM214 900l111 -112l112 112h36l-148 -147l-147 147h36z" />
    <glyph glyph-name="eturned" unicode="&#x1dd;" horiz-adv-x="700" 
d="M475 -18h-425v25h400v287h-300v25h300v288h-400v25h425v-650z" />
    <glyph glyph-name="AEmacron" unicode="&#x1e2;" horiz-adv-x="1114" 
d="M425 800l-298 -640h436v640h-138zM115 135l-63 -135h-28l385 825h629v-25h-450v-375h350v-25h-350v-375h450v-25h-475v135h-448zM688 950v-25h-250v25h250z" />
    <glyph glyph-name="aemacron" unicode="&#x1e3;" horiz-adv-x="925" 
d="M450 125h-344l-58 -125h-28l303 650h552v-25h-400v-287h300v-25h-300v-288h400v-25h-425v125zM118 150h332v475h-111zM573 775v-25h-250v25h250z" />
    <glyph glyph-name="Gcaron" unicode="&#x1e6;" horiz-adv-x="875" 
d="M797 103q-128 -128 -309 -128q-182 0 -310 128t-128 310q0 181 128 309t310 128q181 0 309 -128l-18 -18q-121 121 -291 121q-171 0 -292 -121t-121 -291q0 -171 121 -292t292 -121q165 0 284 114v286h-300v25h325v-322zM361 1100l111 -112l112 112h36l-148 -147
l-147 147h36z" />
    <glyph glyph-name="gcaron" unicode="&#x1e7;" horiz-adv-x="700" 
d="M642 72q-101 -97 -242 -97q-145 0 -247.5 102.5t-102.5 247.5t102.5 247.5t247.5 102.5t248 -102q1 -2 3 -4l-18 -17l-3 3q-95 95 -230 95t-230 -95t-95 -230t95 -230t230 -95q126 0 217 82v243h-250v25h275v-278zM239 900l111 -112l112 112h36l-148 -147l-147 147h36z
" />
    <glyph glyph-name="uni01E8" unicode="&#x1e8;" horiz-adv-x="625" 
d="M125 825v-825h-25v825h25zM257 413l299 -413h-32l-299 413l299 412h32zM187 1047l111 -112l112 112h36l-148 -147l-147 147h36z" />
    <glyph glyph-name="uni01E9" unicode="&#x1e9;" horiz-adv-x="550" 
d="M125 650v-650h-25v650h25zM257 325l236 -325h-31l-236 325l236 325h31zM185 897l111 -112l112 112h36l-148 -147l-147 147h36z" />
    <glyph glyph-name="uni01EA" unicode="&#x1ea;" 
d="M488 825q-171 0 -292 -121t-121 -291q0 -171 121 -292t292 -121q170 0 291 121t121 292q0 170 -121 291t-291 121zM429 -22q-144 18 -251 125q-128 128 -128 310q0 181 128 309t310 128q181 0 309 -128t128 -309q0 -182 -128 -310q-124 -124 -297 -128q-41 0 -70.5 -29.5
t-29.5 -70.5t29.5 -70.5t70.5 -29.5h100v-25h-100q-52 0 -88.5 36.5t-36.5 88.5t37 89q8 8 17 14z" />
    <glyph glyph-name="uni01EB" unicode="&#x1eb;" horiz-adv-x="800" 
d="M400 650q-135 0 -230 -95t-95 -230t95 -230t230 -95t230 95t95 230t-95 230t-230 95zM353 -22q-115 14 -200 100q-103 102 -103 247t102.5 247.5t247.5 102.5t247.5 -102.5t102.5 -247.5t-102 -247q-94 -94 -223 -102v-1q-41 0 -70.5 -29.5t-29.5 -70.5t29.5 -70.5
t70.5 -29.5h100v-25h-100q-52 0 -88.5 36.5t-36.5 88.5t37 89q8 8 16 14z" />
    <glyph glyph-name="uni01EC" unicode="&#x1ec;" 
d="M488 825q-171 0 -292 -121t-121 -291q0 -171 121 -292t292 -121q170 0 291 121t121 292q0 170 -121 291t-291 121zM429 -22q-144 18 -251 125q-128 128 -128 310q0 181 128 309t310 128q181 0 309 -128t128 -309q0 -182 -128 -310q-124 -124 -297 -128q-41 0 -70.5 -29.5
t-29.5 -70.5t29.5 -70.5t70.5 -29.5h100v-25h-100q-52 0 -88.5 36.5t-36.5 88.5t37 89q8 8 17 14zM613 975v-25h-250v25h250z" />
    <glyph glyph-name="uni01ED" unicode="&#x1ed;" horiz-adv-x="800" 
d="M400 650q-135 0 -230 -95t-95 -230t95 -230t230 -95t230 95t95 230t-95 230t-230 95zM353 -22q-115 14 -200 100q-103 102 -103 247t102.5 247.5t247.5 102.5t247.5 -102.5t102.5 -247.5t-102 -247q-94 -94 -223 -102v-1q-41 0 -70.5 -29.5t-29.5 -70.5t29.5 -70.5
t70.5 -29.5h100v-25h-100q-52 0 -88.5 36.5t-36.5 88.5t37 89q8 8 16 14zM525 800v-25h-250v25h250z" />
    <glyph glyph-name="uni01F0" unicode="&#x1f0;" horiz-adv-x="225" 
d="M100 0v650h25v-650q0 -135 -95 -230t-230 -95v25q125 0 213 88q87 88 87 212zM1 900l111 -112l112 112h36l-148 -147l-147 147h36z" />
    <glyph glyph-name="DZ" unicode="&#x1f1;" horiz-adv-x="1525" 
d="M125 800v-776h299v1q161 0 274 114q113 113 113 273q0 161 -113 275q-113 113 -274 113h-299zM100 825h324q171 0 291 -121q121 -121 121 -292q0 -170 -121 -291q-120 -121 -290 -121v-1h-325v826zM1437 800h-563v25h594v-25l-563 -775h563v-25h-594v25z" />
    <glyph glyph-name="Dz" unicode="&#x1f2;" horiz-adv-x="1500" 
d="M125 800v-776h299v1q161 0 274 114q113 113 113 273q0 161 -113 275q-113 113 -274 113h-299zM100 825h324q171 0 291 -121q121 -121 121 -292q0 -170 -121 -291q-120 -121 -290 -121v-1h-325v826zM1442 625h-516v25h550v-25l-516 -600h516v-25h-550v25z" />
    <glyph glyph-name="uni01F3" unicode="&#x1f3;" horiz-adv-x="1425" 
d="M276 650q135 0 230 -95t95 -230t-95 -230t-230 -95h-225v650h225zM276 25q124 0 212 88t88 212t-88 212t-212 88h-200v-600h200zM1318 625h-516v25h550v-25l-516 -600h516v-25h-550v25z" />
    <glyph glyph-name="Gacute" unicode="&#x1f4;" horiz-adv-x="875" 
d="M797 103q-128 -128 -309 -128q-182 0 -310 128t-128 310q0 181 128 309t310 128q181 0 309 -128l-18 -18q-121 121 -291 121q-171 0 -292 -121t-121 -291q0 -171 121 -292t292 -121q165 0 284 114v286h-300v25h325v-322zM426 950l47 175h27l-47 -175h-27z" />
    <glyph glyph-name="gacute" unicode="&#x1f5;" horiz-adv-x="825" 
d="M642 72q-101 -97 -242 -97q-145 0 -247.5 102.5t-102.5 247.5t102.5 247.5t247.5 102.5t248 -102q1 -2 3 -4l-18 -17l-3 3q-95 95 -230 95t-230 -95t-95 -230t95 -230t230 -95q126 0 217 82v243h-250v25h275v-278zM401 775l47 175h27l-47 -175h-27z" />
    <glyph glyph-name="Ngrave" unicode="&#x1f8;" horiz-adv-x="832" 
d="M125 791v-791h-25v825h32l574 -791v791h25v-825h-32zM440 950l-47 175h-27l47 -175h27z" />
    <glyph glyph-name="ngrave" unicode="&#x1f9;" horiz-adv-x="700" 
d="M129 650l447 -616v616h25v-650h-32l-444 611v-611h-25v650h29zM377 775l-47 175h-27l47 -175h27z" />
    <glyph glyph-name="Aringacute" unicode="&#x1fa;" horiz-adv-x="825" 
d="M710 160l-298 639l-298 -639h596zM412 951q-26 0 -44.5 -18.5t-18.5 -43.5q0 -26 18.5 -44.5t44.5 -18.5q25 0 43.5 18.5t18.5 44.5q0 25 -18.5 43.5t-43.5 18.5zM431 974q24 -5 43 -23q25 -26 25 -62q0 -37 -25 -62q-16 -16 -36 -22l375 -805h-28l-63 135h-620l-63 -135
h-28l375 804q-20 6 -36 23q-26 25 -26 62q0 36 26 62q22 22 54 25l43 159h27z" />
    <glyph glyph-name="aringacute" unicode="&#x1fb;" horiz-adv-x="825" 
d="M700 197v256q-24 56 -70 102q-95 95 -230 95t-230 -95t-95 -230t95 -230t230 -95t230 95q46 46 70 102zM388 900q-26 0 -44.5 -18.5t-18.5 -43.5q0 -26 18.5 -44.5t44.5 -18.5q25 0 43.5 18.5t18.5 44.5q0 25 -18.5 43.5t-43.5 18.5zM725 0h-25v143q-22 -35 -52 -65
q-103 -103 -248 -103t-247.5 102.5t-102.5 247.5t102.5 247.5t247.5 102.5t248 -102q30 -31 52 -66v143h25v-650zM407 923q24 -5 43 -23q25 -26 25 -62q0 -37 -25.5 -62.5t-61.5 -25.5q-37 0 -62.5 25.5t-25.5 62.5q0 36 26 62q22 22 54 25l42 155h27z" />
    <glyph glyph-name="AEacute" unicode="&#x1fc;" horiz-adv-x="1075" 
d="M412 800l-298 -640h436v640h-138zM102 135l-63 -135h-28l385 825h629v-25h-450v-375h350v-25h-350v-375h450v-25h-475v135h-448zM500 925l47 175h27l-47 -175h-27z" />
    <glyph glyph-name="aeacute" unicode="&#x1fd;" horiz-adv-x="925" 
d="M450 125h-344l-58 -125h-28l303 650h552v-25h-400v-287h300v-25h-300v-288h400v-25h-425v125zM118 150h332v475h-111zM423 775l47 175h27l-47 -175h-27z" />
    <glyph glyph-name="Oslashacute" unicode="&#x1fe;" 
d="M393 10q45 -10 95 -10q170 0 291 121t121 292q0 170 -121 291q-76 76 -172 105zM368 17l214 798q-45 10 -94 10q-171 0 -292 -121t-121 -291q0 -171 121 -292q76 -76 172 -104zM613 833q103 -30 184 -111q128 -128 128 -309q0 -182 -128 -310t-309 -128q-53 0 -102 11
l-23 -86h-26l25 92q-103 30 -184 111q-128 128 -128 310q0 181 128 309t310 128q53 0 101 -11l23 86h26zM463 950l47 175h27l-47 -175h-27z" />
    <glyph glyph-name="oslashacute" unicode="&#x1ff;" horiz-adv-x="800" 
d="M472 643q-34 7 -72 7q-135 0 -230 -95t-95 -230t95 -230q59 -59 133 -81zM328 7q34 -7 72 -7q135 0 230 95t95 230t-95 230q-59 59 -133 81zM503 661q81 -25 145 -88q102 -103 102 -248t-102.5 -247.5t-247.5 -102.5q-41 0 -79 8l-22 -83h-26l24 89q-81 25 -144 89
q-103 102 -103 247t102.5 247.5t247.5 102.5q41 0 79 -8l22 83h26zM375 775l47 175h27l-47 -175h-27z" />
    <glyph glyph-name="uni0200" unicode="&#x200;" horiz-adv-x="825" 
d="M710 160l-298 639l-298 -639h596zM428 825l385 -825h-28l-63 135h-620l-63 -135h-28l385 825h32zM475 950l-47 175h-27l47 -175h27zM352 950l-47 175h-27l47 -175h27z" />
    <glyph glyph-name="uni0201" unicode="&#x201;" horiz-adv-x="675" 
d="M118 150h443l-222 474zM573 125h-467l-58 -125h-28l303 650h32l304 -650h-28zM438 775l-47 175h-27l47 -175h27zM315 775l-47 175h-27l47 -175h27z" />
    <glyph glyph-name="uni0202" unicode="&#x202;" horiz-adv-x="825" 
d="M710 160l-298 639l-298 -639h596zM428 825l385 -825h-28l-63 135h-620l-63 -135h-28l385 825h32zM290 925h-28q12 29 35 52q48 48 115 48q68 0 115 -48q24 -23 36 -52h-28q-10 19 -26 34q-40 41 -97 41q-56 0 -97 -41q-15 -15 -25 -34z" />
    <glyph glyph-name="uni0203" unicode="&#x203;" horiz-adv-x="675" 
d="M118 150h443l-222 474zM573 125h-467l-58 -125h-28l303 650h32l304 -650h-28zM217 755h-28q12 29 35 52q48 48 115 48q68 0 115 -48q24 -23 36 -52h-28q-10 19 -26 34q-40 41 -97 41q-56 0 -97 -41q-15 -15 -25 -34z" />
    <glyph glyph-name="uni0204" unicode="&#x204;" horiz-adv-x="625" 
d="M100 825h475v-25h-450v-375h350v-25h-350v-375h450v-25h-475v825zM400 950l-47 175h-27l47 -175h27zM277 950l-47 175h-27l47 -175h27z" />
    <glyph glyph-name="uni0205" unicode="&#x205;" horiz-adv-x="575" 
d="M100 650h425v-25h-400v-287h300v-25h-300v-288h400v-25h-425v650zM376 775l-47 175h-27l47 -175h27zM253 775l-47 175h-27l47 -175h27z" />
    <glyph glyph-name="uni0206" unicode="&#x206;" horiz-adv-x="625" 
d="M100 825h475v-25h-450v-375h350v-25h-350v-375h450v-25h-475v825zM203 925h-28q12 29 35 52q48 48 115 48q68 0 115 -48q24 -23 36 -52h-28q-10 19 -26 34q-40 41 -97 41q-56 0 -97 -41q-15 -15 -25 -34z" />
    <glyph glyph-name="uni0207" unicode="&#x207;" horiz-adv-x="575" 
d="M100 650h425v-25h-400v-287h300v-25h-300v-288h400v-25h-425v650zM190 755h-28q12 29 35 52q48 48 115 48q68 0 115 -48q24 -23 36 -52h-28q-10 19 -26 34q-40 41 -97 41q-56 0 -97 -41q-15 -15 -25 -34z" />
    <glyph glyph-name="uni0208" unicode="&#x208;" horiz-adv-x="225" 
d="M125 825v-825h-25v825h25zM176 950l-47 175h-27l47 -175h27zM53 950l-47 175h-27l47 -175h27z" />
    <glyph glyph-name="uni0209" unicode="&#x209;" horiz-adv-x="225" 
d="M125 650v-650h-25v650h25zM175 775l-47 175h-27l47 -175h27zM52 775l-47 175h-27l47 -175h27z" />
    <glyph glyph-name="uni020A" unicode="&#x20a;" horiz-adv-x="225" 
d="M125 825v-825h-25v825h25zM-12 925h-28q12 29 35 52q48 48 115 48q68 0 115 -48q24 -23 36 -52h-28q-10 19 -26 34q-40 41 -97 41q-56 0 -97 -41q-15 -15 -25 -34z" />
    <glyph glyph-name="uni020B" unicode="&#x20b;" horiz-adv-x="225" 
d="M125 650v-650h-25v650h25zM-10 750h-28q12 29 35 52q48 48 115 48q68 0 115 -48q24 -23 36 -52h-28q-10 19 -26 34q-40 41 -97 41q-56 0 -97 -41q-15 -15 -25 -34z" />
    <glyph glyph-name="uni020C" unicode="&#x20c;" 
d="M797 722q128 -128 128 -309q0 -182 -128 -310t-309 -128q-182 0 -310 128t-128 310q0 181 128 309t310 128q181 0 309 -128zM488 825q-171 0 -292 -121t-121 -291q0 -171 121 -292t292 -121q170 0 291 121t121 292q0 170 -121 291t-291 121zM547 950l-47 175h-27l47 -175
h27zM424 950l-47 175h-27l47 -175h27z" />
    <glyph glyph-name="uni020D" unicode="&#x20d;" horiz-adv-x="800" 
d="M647.5 572.5q102.5 -102.5 102.5 -247.5t-102.5 -247.5t-247.5 -102.5t-247.5 102.5t-102.5 247.5t102.5 247.5t247.5 102.5t247.5 -102.5zM400 650q-135 0 -230 -95t-95 -230t95 -230t230 -95t230 95t95 230t-95 230t-230 95zM450 775l-47 175h-27l47 -175h27zM327 775
l-47 175h-27l47 -175h27z" />
    <glyph glyph-name="uni020E" unicode="&#x20e;" 
d="M797 722q128 -128 128 -309q0 -182 -128 -310t-309 -128q-182 0 -310 128t-128 310q0 181 128 309t310 128q181 0 309 -128zM488 825q-171 0 -292 -121t-121 -291q0 -171 121 -292t292 -121q170 0 291 121t121 292q0 170 -121 291t-291 121zM365 950h-28q12 29 35 52
q48 48 115 48q68 0 115 -48q24 -23 36 -52h-28q-10 19 -26 34q-40 41 -97 41q-56 0 -97 -41q-15 -15 -25 -34z" />
    <glyph glyph-name="uni020F" unicode="&#x20f;" horiz-adv-x="800" 
d="M647.5 572.5q102.5 -102.5 102.5 -247.5t-102.5 -247.5t-247.5 -102.5t-247.5 102.5t-102.5 247.5t102.5 247.5t247.5 102.5t247.5 -102.5zM400 650q-135 0 -230 -95t-95 -230t95 -230t230 -95t230 95t95 230t-95 230t-230 95zM278 775h-28q12 29 35 52q48 48 115 48
q68 0 115 -48q24 -23 36 -52h-28q-10 19 -26 34q-40 41 -97 41q-56 0 -97 -41q-15 -15 -25 -34z" />
    <glyph glyph-name="uni0210" unicode="&#x210;" horiz-adv-x="775" 
d="M125 800v-550h275q114 0 194.5 80.5t80.5 194.5t-80.5 194.5t-194.5 80.5h-275zM100 825h300q124 0 212 -88t88 -212t-88 -212q-41 -41 -90 -63l144 -250h-30l-138 240q-46 -15 -98 -15h-275v-225h-25v825zM425 950l-47 175h-27l47 -175h27zM302 950l-47 175h-27l47 -175
h27z" />
    <glyph glyph-name="uni0211" unicode="&#x211;" horiz-adv-x="675" 
d="M125 625v-450h220q93 0 159 66t66 159t-66 159t-159 66h-220zM100 650h245q104 0 177 -73t73 -177t-73 -177q-36 -36 -79 -54l98 -169h-30l-93 160q-34 -10 -73 -10h-220v-150h-25v650zM401 775l-47 175h-27l47 -175h27zM278 775l-47 175h-27l47 -175h27z" />
    <glyph glyph-name="uni0212" unicode="&#x212;" horiz-adv-x="775" 
d="M125 800v-550h275q114 0 194.5 80.5t80.5 194.5t-80.5 194.5t-194.5 80.5h-275zM100 825h300q124 0 212 -88t88 -212t-88 -212q-41 -41 -90 -63l144 -250h-30l-138 240q-46 -15 -98 -15h-275v-225h-25v825zM253 925h-28q12 29 35 52q48 48 115 48q68 0 115 -48
q24 -23 36 -52h-28q-10 19 -26 34q-40 41 -97 41q-56 0 -97 -41q-15 -15 -25 -34z" />
    <glyph glyph-name="uni0213" unicode="&#x213;" horiz-adv-x="675" 
d="M125 625v-450h220q93 0 159 66t66 159t-66 159t-159 66h-220zM100 650h245q104 0 177 -73t73 -177t-73 -177q-36 -36 -79 -54l98 -169h-30l-93 160q-34 -10 -73 -10h-220v-150h-25v650zM178 750h-28q12 29 35 52q48 48 115 48q68 0 115 -48q24 -23 36 -52h-28
q-10 19 -26 34q-40 41 -97 41q-56 0 -97 -41q-15 -15 -25 -34z" />
    <glyph glyph-name="uni0214" unicode="&#x214;" horiz-adv-x="800" 
d="M75 325v500h25v-500q0 -124 88 -212t212 -88t212 88t88 212v500h25v-500q0 -135 -95 -230t-230 -95t-230 95t-95 230zM476 950l-47 175h-27l47 -175h27zM353 950l-47 175h-27l47 -175h27z" />
    <glyph glyph-name="uni0215" unicode="&#x215;" horiz-adv-x="650" 
d="M550 225v425h25v-425q0 -104 -73 -177t-177 -73t-177 73t-73 177v425h25v-425q0 -93 66 -159t159 -66t159 66t66 159zM397 775l-47 175h-27l47 -175h27zM274 775l-47 175h-27l47 -175h27z" />
    <glyph glyph-name="uni0216" unicode="&#x216;" horiz-adv-x="800" 
d="M75 325v500h25v-500q0 -124 88 -212t212 -88t212 88t88 212v500h25v-500q0 -135 -95 -230t-230 -95t-230 95t-95 230zM278 930h-28q12 29 35 52q48 48 115 48q68 0 115 -48q24 -23 36 -52h-28q-10 19 -26 34q-40 41 -97 41q-56 0 -97 -41q-15 -15 -25 -34z" />
    <glyph glyph-name="uni0217" unicode="&#x217;" horiz-adv-x="650" 
d="M550 225v425h25v-425q0 -104 -73 -177t-177 -73t-177 73t-73 177v425h25v-425q0 -93 66 -159t159 -66t159 66t66 159zM203 755h-28q12 29 35 52q48 48 115 48q68 0 115 -48q24 -23 36 -52h-28q-10 19 -26 34q-40 41 -97 41q-56 0 -97 -41q-15 -15 -25 -34z" />
    <glyph glyph-name="Scomma" unicode="&#x218;" horiz-adv-x="700" 
d="M586 51q-81 -78 -199 -86q-14 -1 -28 -1q-137 0 -238 80q-58 53 -86 106l23 11q25 -49 80 -98q93 -74 219 -74q14 0 28 1q108 7 183 79q35 32 48 80q7 24 7 48q0 44 -24 86q-37 62 -107 80l-241 65q-90 24 -136 95q-31 47 -31 102q0 28 8 59q24 90 104 137q53 30 109 34
q19 2 38 2q92 0 176 -44q54 -32 101 -86l-21 -14q-43 50 -93 78q-79 41 -163 41q-18 0 -37 -2q-50 -4 -97 -31q-72 -42 -93 -122q-8 -28 -8 -53q0 -48 28 -88q41 -62 121 -84l242 -64q80 -22 122 -93q27 -47 27 -98q0 -26 -8 -54q-14 -56 -53 -93zM277 -301l47 175h27
l-47 -175h-27z" />
    <glyph glyph-name="scomma" unicode="&#x219;" horiz-adv-x="575" 
d="M512 244q24 -40 24 -87q0 -21 -5 -43q-17 -73 -79 -111q-47 -26 -100 -34q-29 -4 -57 -4q-113 0 -215 59q-3 2 -5 3l15 21l4 -4q96 -53 203 -53q25 0 52 3q45 5 91 30q52 33 66 96q5 20 5 38q0 39 -20 73q-30 49 -97 69l-169 40v-1q-82 23 -119 79q-27 39 -27 88
q0 19 4 40q17 65 69.5 101t136.5 38h7q131 0 230 -68q1 -2 4 -4l-19 -18q0 2 -2 5q-92 60 -212 60h-8q-77 -2 -122.5 -33.5t-59.5 -85.5q-4 -19 -4 -36q0 -41 24 -74q33 -47 103 -68v1l171 -40q76 -21 111 -80zM251 -300l47 175h27l-47 -175h-27z" />
    <glyph glyph-name="Tcomma" unicode="&#x21a;" horiz-adv-x="525" 
d="M525 825v-25h-250v-800h-25v800h-250v25h525zM201 -277l47 175h27l-47 -175h-27z" />
    <glyph glyph-name="tcomma" unicode="&#x21b;" horiz-adv-x="425" 
d="M425 650v-25h-200v-625h-25v625h-200v25h425zM150 -277l47 175h27l-47 -175h-27z" />
    <glyph glyph-name="uni021E" unicode="&#x21e;" horiz-adv-x="875" 
d="M125 400v-400h-25v825h25v-400h625v400h25v-825h-25v400h-625zM326 1075l111 -112l112 112h36l-148 -147l-147 147h36z" />
    <glyph glyph-name="uni021F" unicode="&#x21f;" horiz-adv-x="725" 
d="M125 326v-326h-25v650h25v-299h475v299h25v-650h-25v326h-475zM251 897l111 -112l112 112h36l-148 -147l-147 147h36z" />
    <glyph glyph-name="uni0220" unicode="&#x220;" horiz-adv-x="700" 
d="M576 -10l-451 621v-611h-25v650h29l447 -616v616h25v-775h-25v115z" />
    <glyph glyph-name="uni0226" unicode="&#x226;" horiz-adv-x="825" 
d="M710 160l-298 639l-298 -639h596zM428 825l385 -825h-28l-63 135h-620l-63 -135h-28l385 825h32zM424 1000v-75h-25v75h25z" />
    <glyph glyph-name="uni0227" unicode="&#x227;" horiz-adv-x="675" 
d="M118 150h443l-222 474zM573 125h-467l-58 -125h-28l303 650h32l304 -650h-28zM352 850v-75h-25v75h25z" />
    <glyph glyph-name="uni0228" unicode="&#x228;" horiz-adv-x="625" 
d="M276 0h-176v825h475v-25h-450v-375h350v-25h-350v-375h450v-25h-274v-100h25q52 0 88.5 -36.5t36.5 -88.5t-36.5 -88.5t-88.5 -36.5h-100v25h100q41 0 70.5 29.5t29.5 70.5t-29.5 70.5t-70.5 29.5h-50v125z" />
    <glyph glyph-name="uni0229" unicode="&#x229;" horiz-adv-x="575" 
d="M250 0h-150v650h425v-25h-400v-287h300v-25h-300v-288h400v-25h-250v-100h25q52 0 88.5 -36.5t36.5 -88.5t-36.5 -88.5t-88.5 -36.5h-100v25h100q41 0 70.5 29.5t29.5 70.5t-29.5 70.5t-70.5 29.5h-50v125z" />
    <glyph glyph-name="uni022E" unicode="&#x22e;" 
d="M797 722q128 -128 128 -309q0 -182 -128 -310t-309 -128q-182 0 -310 128t-128 310q0 181 128 309t310 128q181 0 309 -128zM488 825q-171 0 -292 -121t-121 -291q0 -171 121 -292t292 -121q170 0 291 121t121 292q0 170 -121 291t-291 121zM500 1025v-75h-25v75h25z" />
    <glyph glyph-name="uni022F" unicode="&#x22f;" horiz-adv-x="800" 
d="M647.5 572.5q102.5 -102.5 102.5 -247.5t-102.5 -247.5t-247.5 -102.5t-247.5 102.5t-102.5 247.5t102.5 247.5t247.5 102.5t247.5 -102.5zM400 650q-135 0 -230 -95t-95 -230t95 -230t230 -95t230 95t95 230t-95 230t-230 95zM413 850v-75h-25v75h25z" />
    <glyph glyph-name="uni0232" unicode="&#x232;" horiz-adv-x="625" 
d="M325 306v-306h-25v306l-300 519h29l284 -491l283 491h29zM438 950v-25h-250v25h250z" />
    <glyph glyph-name="uni0233" unicode="&#x233;" horiz-adv-x="575" 
d="M300 181v-181h-25v181l-271 469h29l255 -441l254 441h29zM413 775v-25h-250v25h250z" />
    <glyph glyph-name="dotlessj" unicode="&#x237;" horiz-adv-x="225" 
d="M100 0v650h25v-650q0 -135 -95 -230t-230 -95v25q125 0 213 88q87 88 87 212z" />
    <glyph glyph-name="dbdigraph" unicode="&#x238;" horiz-adv-x="1425" 
d="M401 25q-124 0 -212 88t-88 212t88 212t212 88h200v-600h-200zM896 325q61 0 105 -44t44 -106t-44 -106t-105 -44h-270v300h270zM896 625q55 -1 95 -40q40 -41 40 -97q0 -57 -40 -97t-95 -41h-270v275h270zM896 0q71 0 123 52q51 51 51 123q0 73 -51 124q-27 27 -60 39
q27 12 50 35q47 47 47 115q0 67 -47 115q-47 46 -113 47h-495q-135 0 -230 -95t-95 -230t95 -230t230 -95h495z" />
    <glyph glyph-name="qpdigraph" unicode="&#x239;" horiz-adv-x="1400" 
d="M639 104q86 93 86 221q0 135 -95 230t-230 95t-230 -95t-95 -230t95 -230t230 -95q129 0 221 86l-242 243l18 18zM638 69q-99 -94 -238 -94q-145 0 -247.5 102.5t-102.5 247.5t102.5 247.5t247.5 102.5t247.5 -102.5t102.5 -247.5q0 -138 -94 -238l94 -94l-18 -18z
M899 625v-450h200q93 0 159 66t66 159t-66 159t-159 66h-200zM874 650h225q104 0 177 -73t73 -177t-73 -177t-177 -73h-200v-150h-25v650z" />
    <glyph glyph-name="schwa" unicode="&#x259;" horiz-adv-x="700" 
d="M528 540q-94 92 -227 92q-132 0 -225 -90l-17 18q101 97 242 97q145 0 247.5 -102.5t102.5 -247.5t-102.5 -247.5t-247.5 -102.5t-248 102q-1 2 -3 4l18 17zM86 63q90 -81 215 -81q135 0 230 95t95 230q0 125 -81 215z" />
    <glyph glyph-name="uni02B9" unicode="&#x2b9;" horiz-adv-x="175" 
d="M52 749l47 175h27l-47 -175h-27z" />
    <glyph glyph-name="uni02BA" unicode="&#x2ba;" horiz-adv-x="300" 
d="M52 775l47 175h27l-47 -175h-27zM175 775l47 175h27l-47 -175h-27z" />
    <glyph glyph-name="leftarrhead" unicode="&#x2c2;" horiz-adv-x="750" 
d="M489 125l-288 287l18 18l270 270h35l-288 -288l287 -287h-34z" />
    <glyph glyph-name="rightarrhead" unicode="&#x2c3;" horiz-adv-x="750" 
d="M262 126l288 287l-18 18l-270 270h-35l288 -288l-287 -287h34z" />
    <glyph glyph-name="uparrhead" unicode="&#x2c4;" horiz-adv-x="749" 
d="M650 339l-287 288l-18 -18l-270 -270v-35l288 288l287 -287v34z" />
    <glyph glyph-name="downarrhead" unicode="&#x2c5;" horiz-adv-x="749" 
d="M100 590l287 -288l18 18l270 270v35l-288 -288l-287 287v-34z" />
    <glyph glyph-name="circumflex" unicode="&#x2c6;" horiz-adv-x="400" 
d="M309 750l-111 112l-112 -112h-36l148 147l147 -147h-36z" />
    <glyph glyph-name="caron" unicode="&#x2c7;" horiz-adv-x="400" 
d="M86 900l111 -112l112 112h36l-148 -147l-147 147h36z" />
    <glyph glyph-name="modvert" unicode="&#x2c8;" horiz-adv-x="175" 
d="M100 900v-150h-25v150h25z" />
    <glyph glyph-name="modmacron" unicode="&#x2c9;" horiz-adv-x="400" 
d="M325 775v-25h-250v25h250z" />
    <glyph glyph-name="uni02CA" unicode="&#x2ca;" horiz-adv-x="175" 
d="M52 749l47 175h27l-47 -175h-27z" />
    <glyph glyph-name="uni02CB" unicode="&#x2cb;" horiz-adv-x="175" 
d="M124 749l-47 175h-27l47 -175h27z" />
    <glyph glyph-name="modvertlow" unicode="&#x2cc;" horiz-adv-x="175" 
d="M100 75v-150h-25v150h25z" />
    <glyph glyph-name="uni02CD" unicode="&#x2cd;" horiz-adv-x="400" 
d="M326 -125v-25h-250v25h250z" />
    <glyph glyph-name="uni02CE" unicode="&#x2ce;" horiz-adv-x="175" 
d="M124 -101l-47 175h-27l47 -175h27z" />
    <glyph glyph-name="uni02CF" unicode="&#x2cf;" horiz-adv-x="175" 
d="M52 -101l47 175h27l-47 -175h-27z" />
    <glyph glyph-name="breve" unicode="&#x2d8;" horiz-adv-x="400" 
d="M323 875h28q-12 -29 -35 -52q-48 -48 -115 -48q-68 0 -115 48q-24 23 -36 52h28q10 -19 26 -34q40 -41 97 -41q56 0 97 41q15 15 25 34z" />
    <glyph glyph-name="dotaccent" unicode="&#x2d9;" horiz-adv-x="175" 
d="M100 850v-75h-25v75h25z" />
    <glyph glyph-name="ring" unicode="&#x2da;" horiz-adv-x="275" 
d="M199.5 899.5q25.5 -25.5 25.5 -61.5q0 -37 -25.5 -62.5t-61.5 -25.5q-37 0 -62.5 25.5t-25.5 62.5q0 36 25.5 61.5t62.5 25.5q36 0 61.5 -25.5zM138 900q-26 0 -44.5 -18.5t-18.5 -43.5q0 -26 18.5 -44.5t44.5 -18.5q25 0 43.5 18.5t18.5 44.5q0 25 -18.5 43.5
t-43.5 18.5z" />
    <glyph glyph-name="ogonek" unicode="&#x2db;" horiz-adv-x="325" 
d="M226 -250q-52 0 -88.5 36.5t-36.5 88.5t36.5 88.5t88.5 36.5v-25q-41 0 -70.5 -29.5t-29.5 -70.5t29.5 -70.5t70.5 -29.5h100v-25h-100z" />
    <glyph glyph-name="tilde" unicode="&#x2dc;" horiz-adv-x="475" 
d="M400 819v-25q-46 -19 -92 -19q-35 0 -70 11q-36 11 -71 11q-46 0 -92 -19v25q46 19 92 19q35 0 71 -11q35 -11 70 -11q46 0 92 19z" />
    <glyph glyph-name="hungarumlaut" unicode="&#x2dd;" horiz-adv-x="300" 
d="M52 775l47 175h27l-47 -175h-27zM175 775l47 175h27l-47 -175h-27z" />
    <glyph glyph-name="modcross" unicode="&#x2df;" horiz-adv-x="675" 
d="M343.968 447.996l176.773 176.773l17.6768 -17.6777l-176.772 -176.772l176.772 -176.773l-17.6768 -17.6768l-176.773 176.772l-176.772 -176.772l-17.6777 17.6768l176.773 176.773l-176.773 176.772l17.6777 17.6777z" />
    <glyph glyph-name="uni02F7" unicode="&#x2f7;" horiz-adv-x="425" 
d="M375 -152v-25q-46 -19 -92 -19q-35 0 -70 11q-36 11 -71 11q-46 0 -92 -19v25q46 19 92 19q35 0 71 -11q35 -11 70 -11q46 0 92 19z" />
    <glyph glyph-name="combgrave" unicode="&#x300;" horiz-adv-x="175" 
d="M125 775l-47 175h-27l47 -175h27z" />
    <glyph glyph-name="combacute" unicode="&#x301;" horiz-adv-x="175" 
d="M52 775l47 175h27l-47 -175h-27z" />
    <glyph glyph-name="combcircumflex" unicode="&#x302;" horiz-adv-x="400" 
d="M308 750l-111 112l-112 -112h-36l148 147l147 -147h-36z" />
    <glyph glyph-name="combtilde" unicode="&#x303;" horiz-adv-x="475" 
d="M400 819v-25q-46 -19 -92 -19q-35 0 -70 11q-36 11 -71 11q-46 0 -92 -19v25q46 19 92 19q35 0 71 -11q35 -11 70 -11q46 0 92 19z" />
    <glyph glyph-name="combmacron" unicode="&#x304;" horiz-adv-x="400" 
d="M325 775v-25h-250v25h250z" />
    <glyph glyph-name="comboverline" unicode="&#x305;" horiz-adv-x="725" 
d="M649 950v-25h-574v25h574z" />
    <glyph glyph-name="combbreve" unicode="&#x306;" horiz-adv-x="400" 
d="M324 875h28q-12 -29 -35 -52q-48 -48 -115 -48q-68 0 -115 48q-24 23 -36 52h28q10 -19 26 -34q40 -41 97 -41q56 0 97 41q15 15 25 34z" />
    <glyph glyph-name="combdotabove" unicode="&#x307;" horiz-adv-x="125" 
d="M75 850v-75h-25v75h25z" />
    <glyph glyph-name="combdiaeresis" unicode="&#x308;" horiz-adv-x="325" 
d="M75 775v75h25v-75h-25zM224 775v75h25v-75h-25z" />
    <glyph glyph-name="combring" unicode="&#x30a;" horiz-adv-x="275" 
d="M199.5 899.5q25.5 -25.5 25.5 -61.5q0 -37 -25.5 -62.5t-61.5 -25.5q-37 0 -62.5 25.5t-25.5 62.5q0 36 25.5 61.5t62.5 25.5q36 0 61.5 -25.5zM138 900q-26 0 -44.5 -18.5t-18.5 -43.5q0 -26 18.5 -44.5t44.5 -18.5q25 0 43.5 18.5t18.5 44.5q0 25 -18.5 43.5
t-43.5 18.5z" />
    <glyph glyph-name="combdblacute" unicode="&#x30b;" horiz-adv-x="300" 
d="M54 775l47 175h27l-47 -175h-27zM177 775l47 175h27l-47 -175h-27z" />
    <glyph glyph-name="combcaron" unicode="&#x30c;" horiz-adv-x="400" 
d="M86 900l111 -112l112 112h36l-148 -147l-147 147h36z" />
    <glyph glyph-name="uni030F" unicode="&#x30f;" horiz-adv-x="300" 
d="M250 775l-47 175h-27l47 -175h27zM127 775l-47 175h-27l47 -175h27z" />
    <glyph glyph-name="uni0311" unicode="&#x311;" horiz-adv-x="400" 
d="M77 755h-28q12 29 35 52q48 48 115 48q68 0 115 -48q24 -23 36 -52h-28q-10 19 -26 34q-40 41 -97 41q-56 0 -97 -41q-15 -15 -25 -34z" />
    <glyph glyph-name="commaabove" unicode="&#x315;" horiz-adv-x="274" 
d="M50 648l47 175h27l-47 -175h-27z" />
    <glyph glyph-name="combgravebelow" unicode="&#x316;" horiz-adv-x="175" 
d="M124 -101l-47 175h-27l47 -175h27z" />
    <glyph glyph-name="combacutebelow" unicode="&#x317;" horiz-adv-x="175" 
d="M51 -101l47 175h27l-47 -175h-27z" />
    <glyph glyph-name="combhorn" unicode="&#x31b;" horiz-adv-x="300" 
d="M299 674q0 -52 -36.5 -88.5t-88.5 -36.5v25q41 0 70.5 29.5t29.5 70.5v225h25v-225z" />
    <glyph glyph-name="hookbelow" unicode="&#x321;" horiz-adv-x="225" 
d="M125 -125q0 -52 -36.5 -88.5t-88.5 -36.5v25q41 0 70.5 29.5t29.5 70.5v225h25v-225z" />
    <glyph glyph-name="retroflexhookbelow" unicode="&#x322;" horiz-adv-x="225" 
d="M99 -125q0 -52 36.5 -88.5t88.5 -36.5v25q-41 0 -70.5 29.5t-29.5 70.5v225h-25v-225z" />
    <glyph glyph-name="dotbelowcomb" unicode="&#x323;" horiz-adv-x="175" 
d="M99 -100v-75h-25v75h25z" />
    <glyph glyph-name="uni0324" unicode="&#x324;" horiz-adv-x="325" 
d="M75 -175v75h25v-75h-25zM224 -175v75h25v-75h-25z" />
    <glyph glyph-name="uni0325" unicode="&#x325;" horiz-adv-x="325" 
d="M224.5 -175.5q25.5 -25.5 25.5 -61.5q0 -37 -25.5 -62.5t-61.5 -25.5q-37 0 -62.5 25.5t-25.5 62.5q0 36 25.5 61.5t62.5 25.5q36 0 61.5 -25.5zM163 -175q-26 0 -44.5 -18.5t-18.5 -43.5q0 -26 18.5 -44.5t44.5 -18.5q25 0 43.5 18.5t18.5 44.5q0 25 -18.5 43.5
t-43.5 18.5z" />
    <glyph glyph-name="combcommabelow" unicode="&#x326;" horiz-adv-x="175" 
d="M52 -277l47 175h27l-47 -175h-27z" />
    <glyph glyph-name="combcedilla" unicode="&#x327;" horiz-adv-x="325" 
d="M149 -350h-100v25h100q41 0 70.5 29.5t29.5 70.5t-29.5 70.5t-70.5 29.5h-50v125h25v-100h25q52 0 88.5 -36.5t36.5 -88.5t-36.5 -88.5t-88.5 -36.5z" />
    <glyph glyph-name="combogonek" unicode="&#x328;" horiz-adv-x="325" 
d="M226 -250q-52 0 -88.5 36.5t-36.5 88.5t36.5 88.5t88.5 36.5v-25q-41 0 -70.5 -29.5t-29.5 -70.5t29.5 -70.5t70.5 -29.5h100v-25h-100z" />
    <glyph glyph-name="uni032C" unicode="&#x32c;" horiz-adv-x="400" 
d="M86 -78l111 -112l112 112h36l-148 -147l-147 147h36z" />
    <glyph glyph-name="uni032D" unicode="&#x32d;" horiz-adv-x="400" 
d="M309 -274l-111 112l-112 -112h-36l148 147l147 -147h-36z" />
    <glyph glyph-name="uni032E" unicode="&#x32e;" horiz-adv-x="400" 
d="M323 -74h28q-12 -29 -35 -52q-48 -48 -115 -48q-68 0 -115 48q-24 23 -36 52h28q10 -19 26 -34q40 -41 97 -41q56 0 97 41q15 15 25 34z" />
    <glyph glyph-name="uni032F" unicode="&#x32f;" horiz-adv-x="400" 
d="M78 -225h-28q12 29 35 52q48 48 115 48q68 0 115 -48q24 -23 36 -52h-28q-10 19 -26 34q-40 41 -97 41q-56 0 -97 -41q-15 -15 -25 -34z" />
    <glyph glyph-name="uni0330" unicode="&#x330;" horiz-adv-x="475" 
d="M400 -81v-25q-46 -19 -92 -19q-35 0 -70 11q-36 11 -71 11q-46 0 -92 -19v25q46 19 92 19q35 0 71 -11q35 -11 70 -11q46 0 92 19z" />
    <glyph glyph-name="uni0331" unicode="&#x331;" horiz-adv-x="400" 
d="M325 -100v-25h-250v25h250z" />
    <glyph glyph-name="uni0332" unicode="&#x332;" horiz-adv-x="725" 
d="M649 -100v-25h-574v25h574z" />
    <glyph glyph-name="uni0333" unicode="&#x333;" horiz-adv-x="675" 
d="M600 -2v-25h-525v25h525zM600 -251v-25h-525v25h525z" />
    <glyph glyph-name="combtildeoverlay" unicode="&#x334;" horiz-adv-x="475" 
d="M400 433v-25q-46 -19 -92 -19q-35 0 -70 11q-36 11 -71 11q-46 0 -92 -19v25q46 19 92 19q35 0 71 -11q35 -11 70 -11q46 0 92 19z" />
    <glyph glyph-name="strokeshort" unicode="&#x335;" horiz-adv-x="375" 
d="M325 425v-25h-275v25h275z" />
    <glyph glyph-name="longstroke" unicode="&#x336;" horiz-adv-x="725" 
d="M650 425v-25h-575v25h575z" />
    <glyph glyph-name="uni033F" unicode="&#x33f;" horiz-adv-x="675" 
d="M599 1099v-25h-525v25h525zM599 850v-25h-525v25h525z" />
    <glyph glyph-name="uni0344" unicode="&#x344;" horiz-adv-x="500" 
d="M100 850v-75h-25v75h25zM424 850v-75h-25v75h25zM227 775l47 175h27l-47 -175h-27z" />
    <glyph glyph-name="combequalbelow" unicode="&#x347;" horiz-adv-x="675" 
d="M600 -2v-25h-525v25h525zM600 -251v-25h-525v25h525z" />
    <glyph glyph-name="revlunatesigma" unicode="&#x37b;" horiz-adv-x="700" 
d="M75 90l-17 -18q101 -97 242 -97q145 0 247.5 102.5t102.5 247.5t-102.5 247.5t-247.5 102.5t-248 -102q-1 -2 -3 -4l18 -17l3 3q95 95 230 95t230 -95t95 -230t-95 -230t-230 -95q-132 0 -225 90z" />
    <glyph glyph-name="uni037C" unicode="&#x37c;" horiz-adv-x="700" 
d="M625 90l17 -18q-101 -97 -242 -97q-145 0 -247.5 102.5t-102.5 247.5t102.5 247.5t247.5 102.5t248 -102q1 -2 3 -4l-18 -17l-3 3q-95 95 -230 95t-230 -95t-95 -230t95 -230t230 -95q132 0 225 90zM363 363v-75h-25v75h25z" />
    <glyph glyph-name="uni037D" unicode="&#x37d;" horiz-adv-x="700" 
d="M76 90l-17 -18q101 -97 242 -97q145 0 247.5 102.5t102.5 247.5t-102.5 247.5t-247.5 102.5t-248 -102q-1 -2 -3 -4l18 -17l3 3q95 95 230 95t230 -95t95 -230t-95 -230t-230 -95q-132 0 -225 90zM338 363v-75h25v75h-25z" />
    <glyph glyph-name="uni037E" unicode="&#x37e;" horiz-adv-x="225" 
d="M50 -101l47 175h27l-47 -175h-27zM125 600v-75h-25v75h25z" />
    <glyph glyph-name="tonos" unicode="&#x384;" horiz-adv-x="125" 
d="M49 775l47 175h27l-47 -175h-27z" />
    <glyph glyph-name="dieresistonos" unicode="&#x385;" horiz-adv-x="500" 
d="M100 850v-75h-25v75h25zM424 850v-75h-25v75h25zM227 775l47 175h27l-47 -175h-27z" />
    <glyph glyph-name="Alphatonos" unicode="&#x386;" horiz-adv-x="825" 
d="M38 775l47 175h27l-47 -175h-27zM699 160l-298 639l-298 -639h596zM417 825l385 -825h-28l-63 135h-620l-63 -135h-28l385 825h32z" />
    <glyph glyph-name="anoteleia" unicode="&#x387;" horiz-adv-x="175" 
d="M99 719v-75h-25v75h25z" />
    <glyph glyph-name="Epsilontonos" unicode="&#x388;" horiz-adv-x="750" 
d="M49 775l47 175h27l-47 -175h-27zM251 825h475v-25h-450v-375h350v-25h-350v-375h450v-25h-475v825z" />
    <glyph glyph-name="Etatonos" unicode="&#x389;" horiz-adv-x="1000" 
d="M49 775l47 175h27l-47 -175h-27zM274 400v-400h-25v825h25v-400h625v400h25v-825h-25v400h-625z" />
    <glyph glyph-name="Iotatonos" unicode="&#x38a;" horiz-adv-x="350" 
d="M49 775l47 175h27l-47 -175h-27zM250 825v-825h-25v825h25z" />
    <glyph glyph-name="Omicrontonos" unicode="&#x38c;" horiz-adv-x="1025" 
d="M49 775l47 175h27l-47 -175h-27zM848 722q128 -128 128 -309q0 -182 -128 -310t-309 -128q-182 0 -310 128t-128 310q0 181 128 309t310 128q181 0 309 -128zM539 825q-171 0 -292 -121t-121 -291q0 -171 121 -292t292 -121q170 0 291 121t121 292q0 170 -121 291
t-291 121z" />
    <glyph glyph-name="Upsilontonos" unicode="&#x38e;" horiz-adv-x="800" 
d="M49 775l47 175h27l-47 -175h-27zM500 306v-306h-25v306l-300 519h29l284 -491l283 491h29z" />
    <glyph glyph-name="Omegatonos" unicode="&#x38f;" 
d="M49 775l47 175h27l-47 -175h-27zM150 0v25h200v32q-70 30 -129 89q-121 121 -121 292q0 170 121 291t292 121q170 0 291 -121t121 -291q0 -171 -121 -292q-59 -59 -129 -89v-32h200v-25h-225v74q75 28 137 90q113 113 113 274q0 160 -113.5 273.5t-273.5 113.5
q-161 0 -274.5 -113.5t-113.5 -273.5q0 -161 114 -274q61 -62 136 -90v-74h-225z" />
    <glyph glyph-name="iotadieresistonos" unicode="&#x390;" horiz-adv-x="225" 
d="M125 650v-650h-25v650h25zM-25 825v-75h-25v75h25zM299 825v-75h-25v75h25zM102 750l47 175h27l-47 -175h-27z" />
    <glyph glyph-name="Alpha" unicode="&#x391;" horiz-adv-x="825" 
d="M710 160l-298 639l-298 -639h596zM428 825l385 -825h-28l-63 135h-620l-63 -135h-28l385 825h32z" />
    <glyph glyph-name="Beta" unicode="&#x392;" horiz-adv-x="750" 
d="M125 800v-375h325q77 0 132 55t55 133q0 77 -55 132t-132 55h-325zM125 400v-375h350q77 0 132 55t55 133q0 77 -55 132t-132 55h-350zM100 825h350q88 0 150 -62t62 -150q0 -89 -62 -151q-30 -30 -65 -45q50 -14 90 -54q62 -62 62 -150q0 -89 -62 -151t-150 -62h-375
v825z" />
    <glyph glyph-name="Gamma" unicode="&#x393;" horiz-adv-x="550" 
d="M125 800v-800h-25v825h475v-25h-450z" />
    <glyph glyph-name="uni0394" unicode="&#x394;" horiz-adv-x="625" 
d="M597 25l-280 771l-281 -771h561zM333 825l300 -825h-633l300 825h33z" />
    <glyph glyph-name="Epsilon" unicode="&#x395;" horiz-adv-x="625" 
d="M100 825h475v-25h-450v-375h350v-25h-350v-375h450v-25h-475v825z" />
    <glyph glyph-name="Zeta" unicode="&#x396;" horiz-adv-x="650" 
d="M589 800h-563v25h594v-25l-563 -775h563v-25h-594v25z" />
    <glyph glyph-name="Eta" unicode="&#x397;" horiz-adv-x="875" 
d="M125 400v-400h-25v825h25v-400h625v400h25v-825h-25v400h-625z" />
    <glyph glyph-name="Theta" unicode="&#x398;" 
d="M796 722q128 -128 128 -309q0 -182 -128 -310t-309 -128q-182 0 -310 128t-128 310q0 181 128 309t310 128q181 0 309 -128zM487 825q-171 0 -292 -121t-121 -291q0 -171 121 -292t292 -121q170 0 291 121t121 292q0 170 -121 291t-291 121zM162 425h650v-25h-650v25z
" />
    <glyph glyph-name="Iota" unicode="&#x399;" horiz-adv-x="225" 
d="M125 825v-825h-25v825h25z" />
    <glyph glyph-name="Kappa" unicode="&#x39a;" horiz-adv-x="625" 
d="M125 825v-825h-25v825h25zM257 413l299 -413h-32l-299 413l299 412h32z" />
    <glyph glyph-name="Lamda" unicode="&#x39b;" horiz-adv-x="625" 
d="M333 825l300 -825h-27l-289 796l-290 -796h-27l300 825h33z" />
    <glyph glyph-name="Mu" unicode="&#x39c;" horiz-adv-x="1025" 
d="M125 791v-791h-25v825h32l384 -529l384 529h32v-825h-25v791l-374 -516h-34z" />
    <glyph glyph-name="Nu" unicode="&#x39d;" horiz-adv-x="832" 
d="M125 791v-791h-25v825h32l574 -791v791h25v-825h-32z" />
    <glyph glyph-name="Xi" unicode="&#x39e;" horiz-adv-x="675" 
d="M600 825v-25h-525v25h525zM600 26v-25h-525v25h525zM550 425v-25h-425v25h425z" />
    <glyph glyph-name="Omicron" unicode="&#x39f;" 
d="M797 722q128 -128 128 -309q0 -182 -128 -310t-309 -128q-182 0 -310 128t-128 310q0 181 128 309t310 128q181 0 309 -128zM488 825q-171 0 -292 -121t-121 -291q0 -171 121 -292t292 -121q170 0 291 121t121 292q0 170 -121 291t-291 121z" />
    <glyph glyph-name="Pi" unicode="&#x3a0;" horiz-adv-x="650" 
d="M125 800v-800h-25v825h450v-825h-25v800h-400z" />
    <glyph glyph-name="Rho" unicode="&#x3a1;" horiz-adv-x="725" 
d="M125 800v-550h250q114 0 194.5 80.5t80.5 194.5t-80.5 194.5t-194.5 80.5h-250zM100 825h275q124 0 212 -88t88 -212t-88 -212t-212 -88h-250v-225h-25v825z" />
    <glyph glyph-name="Sigma" unicode="&#x3a3;" horiz-adv-x="699" 
d="M67 800v25h594v-25h-563l273 -375h1v-1h-1l-290 -399h563v-25h-594v25l291 399z" />
    <glyph glyph-name="Tau" unicode="&#x3a4;" horiz-adv-x="525" 
d="M525 825v-25h-250v-800h-25v800h-250v25h525z" />
    <glyph glyph-name="Upsilon" unicode="&#x3a5;" horiz-adv-x="625" 
d="M325 306v-306h-25v306l-300 519h29l284 -491l283 491h29z" />
    <glyph glyph-name="Phi" unicode="&#x3a6;" 
d="M474 725q-162 -4 -278 -91q-121 -92 -121 -221q0 -130 121 -221q116 -88 278 -92v625zM499 725v-625q163 3 280 92q121 91 121 221q0 129 -121 221q-117 88 -280 91zM474 750v75h25v-75q174 -3 298 -99q128 -99 128 -238q0 -140 -128 -239q-124 -96 -298 -99v-75h-25v75
q-173 4 -296 99q-128 99 -128 239q0 139 128 238q123 95 296 99z" />
    <glyph glyph-name="Chi" unicode="&#x3a7;" horiz-adv-x="700" 
d="M366 413l299 -413h-32l-283 390l-284 -390h-32l300 413l-300 412h32l284 -390l283 390h32z" />
    <glyph glyph-name="Psi" unicode="&#x3a8;" horiz-adv-x="925" 
d="M51 559h-1v265h25v-264h1q0 -161 114 -274q109 -109 261 -113v651h25v-651q153 5 262 113q113 113 113 274v265h25v-265q0 -171 -121 -291q-116 -116 -279 -121v-148h-25v148q-162 4 -279 121q-121 120 -121 290z" />
    <glyph glyph-name="Omega" unicode="&#x3a9;" horiz-adv-x="875" 
d="M75 0v25h200v32q-70 30 -129 89q-121 121 -121 292q0 170 121 291t292 121q170 0 291 -121t121 -291q0 -171 -121 -292q-59 -59 -129 -89v-32h200v-25h-225v74q75 28 137 90q113 113 113 274q0 160 -113.5 273.5t-273.5 113.5q-161 0 -274.5 -113.5t-113.5 -273.5
q0 -161 114 -274q61 -62 136 -90v-74h-225z" />
    <glyph glyph-name="Iotadieresis" unicode="&#x3aa;" horiz-adv-x="225" 
d="M126 825v-825h-25v825h25zM26 950v75h25v-75h-25zM175 950v75h25v-75h-25z" />
    <glyph glyph-name="Upsilondieresis" unicode="&#x3ab;" horiz-adv-x="625" 
d="M325 306v-306h-25v306l-300 519h29l284 -491l283 491h29zM226 950v75h25v-75h-25zM375 950v75h25v-75h-25z" />
    <glyph glyph-name="alphatonos" unicode="&#x3ac;" horiz-adv-x="950" 
d="M727 198q-25 -66 -79 -120q-103 -103 -248 -103t-247.5 102.5t-102.5 247.5t102.5 247.5t247.5 102.5t248 -102q54 -55 79 -121l36 -93l113 291h27l-127 -325l127 -325h-27l-113 291zM704 443q-24 62 -74 112q-95 95 -230 95t-230 -95t-95 -230t95 -230t230 -95t230 95
q50 50 74 112l46 118zM452 775l47 175h27l-47 -175h-27z" />
    <glyph glyph-name="epsilontonos" unicode="&#x3ad;" horiz-adv-x="500" 
d="M275 325q-73 0 -124 -51t-51 -124q0 -72 51 -123.5t124 -51.5q72 0 124 52q15 15 26 33l22 -13q-13 -21 -30 -38q-59 -59 -142 -59t-141.5 58.5t-58.5 141.5t59 142q32 32 72 46q-30 13 -55 39q-51 51 -51 123q0 73 51 124t124 51q72 0 124 -51q9 -9 16 -19l-20 -15
q-6 8 -14 16q-44 44 -106 44t-106 -44t-44 -106t44 -106t106 -44v-25zM236 775l47 175h27l-47 -175h-27z" />
    <glyph glyph-name="etatonos" unicode="&#x3ae;" horiz-adv-x="812" 
d="M100 651h25v-143q22 39 55 73q95 95 230 95t230 -95t95 -230v-501h-25v501q0 124 -88 212t-212 88t-212 -88q-50 -50 -71 -112h-2v-451h-25v651zM393 775l47 175h27l-47 -175h-27z" />
    <glyph glyph-name="iotatonos" unicode="&#x3af;" horiz-adv-x="225" 
d="M125 650v-650h-25v650h25zM88 775l47 175h27l-47 -175h-27z" />
    <glyph glyph-name="upsilondieresistonos" unicode="&#x3b0;" horiz-adv-x="700" 
d="M575 225v425h25v-425q0 -104 -73 -177t-177 -73t-177 73t-73 177v425h25v-425q0 -93 66 -159t159 -66t159 66t66 159zM225 850v-75h-25v75h25zM549 850v-75h-25v75h25zM352 775l47 175h27l-47 -175h-27z" />
    <glyph glyph-name="alpha" unicode="&#x3b1;" horiz-adv-x="950" 
d="M727 198q-25 -66 -79 -120q-103 -103 -248 -103t-247.5 102.5t-102.5 247.5t102.5 247.5t247.5 102.5t248 -102q54 -55 79 -121l36 -93l113 291h27l-127 -325l127 -325h-27l-113 291zM704 443q-24 62 -74 112q-95 95 -230 95t-230 -95t-95 -230t95 -230t230 -95t230 95
q50 50 74 112l46 118z" />
    <glyph glyph-name="beta" unicode="&#x3b2;" horiz-adv-x="500" 
d="M317 338q40 -15 72 -46q58 -59 58 -142t-58.5 -141.5t-141.5 -58.5t-142 59l-5 5v-164h-25v650q0 73 51.5 124t123.5 51q73 0 124 -51t51 -124q0 -72 -51 -123q-26 -26 -57 -39zM100 55q10 -15 24 -28q51 -52 123 -52q73 0 124 51.5t51 123.5q0 73 -51 124t-124 51v25h3
q62 0 106 44t44 106t-44 106t-106 44t-106 -44t-44 -106v-445z" />
    <glyph glyph-name="gamma" unicode="&#x3b3;" horiz-adv-x="450" 
d="M241 142v-142h-25v142l-185 508h28l169 -466l169 466h28z" />
    <glyph glyph-name="delta" unicode="&#x3b4;" horiz-adv-x="575" 
d="M500 200q0 83 -58.5 141.5t-141.5 58.5t-141.5 -58.5t-58.5 -141.5t58.5 -141.5t141.5 -58.5t141.5 58.5t58.5 141.5zM522 650v-25h-329l265 -265l1 -1q66 -66 66 -159t-66 -159t-159 -66t-159 66t-66 159t66 159t159 66q35 0 66 -9l-209 209v25h365z" />
    <glyph glyph-name="epsilon" unicode="&#x3b5;" horiz-adv-x="500" 
d="M275 325q-73 0 -124 -51t-51 -124q0 -72 51 -123.5t124 -51.5q72 0 124 52q15 15 26 33l22 -13q-13 -21 -30 -38q-59 -59 -142 -59t-141.5 58.5t-58.5 141.5t59 142q32 32 72 46q-30 13 -55 39q-51 51 -51 123q0 73 51 124t124 51q72 0 124 -51q9 -9 16 -19l-20 -15
q-6 8 -14 16q-44 44 -106 44t-106 -44t-44 -106t44 -106t106 -44v-25z" />
    <glyph glyph-name="zeta" unicode="&#x3b6;" horiz-adv-x="575" 
d="M407 625h-329v25h365v-25l-269 -269q-8 -7 -15 -14q-59 -59 -59 -142t58.5 -141.5t141.5 -58.5h50q52 0 88.5 -36.5t36.5 -88.5t-36.5 -88.5t-88.5 -36.5h-100v25h100q41 0 70.5 29.5t29.5 70.5t-29.5 70.5t-70.5 29.5h-50q-93 0 -159 66t-66 159t66 159l1 1z" />
    <glyph glyph-name="eta" unicode="&#x3b7;" horiz-adv-x="812" 
d="M100 651h25v-143q22 39 55 73q95 95 230 95t230 -95t95 -230v-501h-25v501q0 124 -88 212t-212 88t-212 -88q-50 -50 -71 -112h-2v-451h-25v651z" />
    <glyph glyph-name="theta" unicode="&#x3b8;" horiz-adv-x="800" 
d="M647.5 572.5q102.5 -102.5 102.5 -247.5t-102.5 -247.5t-247.5 -102.5t-247.5 102.5t-102.5 247.5t102.5 247.5t247.5 102.5t247.5 -102.5zM400 650q-135 0 -230 -95t-95 -230t95 -230t230 -95t230 95t95 230t-95 230t-230 95zM600 338v-25h-400v25h400z" />
    <glyph glyph-name="iota" unicode="&#x3b9;" horiz-adv-x="225" 
d="M125 650v-650h-25v650h25z" />
    <glyph glyph-name="kappa" unicode="&#x3ba;" horiz-adv-x="550" 
d="M125 650v-650h-25v650h25zM257 325l236 -325h-31l-236 325l236 325h31z" />
    <glyph glyph-name="lambda" unicode="&#x3bb;" horiz-adv-x="450" 
d="M213 517l-48 133h28l236 -650h-28l-174 478l-174 -478h-28z" />
    <glyph glyph-name="mu" unicode="&#x3bc;" horiz-adv-x="850" 
d="M735 -1h-25v143q-22 -39 -55 -73q-95 -95 -230 -95t-230 95q-46 46 -70 102v-495h-25v974h25v-351q0 -124 88 -212t212 -88t212 88q50 50 71 112h2v451h25v-651z" />
    <glyph glyph-name="nu" unicode="&#x3bd;" horiz-adv-x="500" 
d="M259 0l-236 650h28l223 -613l222 613h28l-236 -650h-29z" />
    <glyph glyph-name="xi" unicode="&#x3be;" horiz-adv-x="500" 
d="M181 338q-30 13 -55 39q-51 51 -51 123q0 73 51 124t124 51q72 0 124 -51q9 -9 16 -19l-20 -15q-6 8 -14 16q-44 44 -106 44t-106 -44t-44 -106t44 -106t106 -44v-25q-73 0 -124 -51t-51 -124q0 -72 51 -123.5t124 -51.5h50q52 0 88.5 -36.5t36.5 -88.5t-36.5 -88.5
t-88.5 -36.5h-100v25h100q41 0 70.5 29.5t29.5 70.5t-29.5 70.5t-70.5 29.5h-50q-83 0 -141.5 58.5t-58.5 141.5t59 142q32 32 72 46z" />
    <glyph glyph-name="omicron" unicode="&#x3bf;" horiz-adv-x="800" 
d="M647.5 572.5q102.5 -102.5 102.5 -247.5t-102.5 -247.5t-247.5 -102.5t-247.5 102.5t-102.5 247.5t102.5 247.5t247.5 102.5t247.5 -102.5zM400 650q-135 0 -230 -95t-95 -230t95 -230t230 -95t230 95t95 230t-95 230t-230 95z" />
    <glyph glyph-name="pi" unicode="&#x3c0;" horiz-adv-x="650" 
d="M175 625v-625h-25v625h-150v25h650v-25h-150v-625h-25v625h-300z" />
    <glyph glyph-name="rho" unicode="&#x3c1;" horiz-adv-x="800" 
d="M400 650q-135 0 -230 -95t-95 -230t95 -230t230 -95t230 95t95 230t-95 230t-230 95zM50 325q0 145 102.5 247.5t247.5 102.5t247.5 -102.5t102.5 -247.5t-102.5 -247.5t-247.5 -102.5t-247 103q-52 51 -78 114v-342h-25v475z" />
    <glyph glyph-name="sigma1" unicode="&#x3c2;" horiz-adv-x="625" 
d="M225 340v-1q-82 23 -119 79q-27 39 -27 88q0 19 4 40q17 65 69.5 101t136.5 38h7q131 0 230 -68q1 -2 4 -4l-19 -18q0 2 -2 5q-92 60 -212 60h-8q-77 -2 -122.5 -33.5t-59.5 -85.5q-4 -19 -4 -36q0 -41 24 -74q33 -47 103 -68v1l171 -40q76 -21 111 -80q24 -40 24 -87
q0 -21 -5 -43q-17 -73 -79 -111q-47 -26 -100 -34q-26 -3 -52 -4v26q24 0 49 3q45 5 91 30q52 33 66 96q5 20 5 38q0 39 -20 73q-30 49 -97 69z" />
    <glyph glyph-name="sigma" unicode="&#x3c3;" horiz-adv-x="800" 
d="M400 650q-135 0 -230 -95t-95 -230t95 -230t230 -95t230 95t95 230t-95 230t-230 95zM533 650q63 -26 115 -77q102 -103 102 -248t-102.5 -247.5t-247.5 -102.5t-247.5 102.5t-102.5 247.5t102.5 247.5t247.5 102.5h350v-25h-217z" />
    <glyph glyph-name="tau" unicode="&#x3c4;" horiz-adv-x="425" 
d="M425 650v-25h-200v-625h-25v625h-200v25h425z" />
    <glyph glyph-name="upsilon" unicode="&#x3c5;" horiz-adv-x="650" 
d="M550 225v425h25v-425q0 -104 -73 -177t-177 -73t-177 73t-73 177v425h25v-425q0 -93 66 -159t159 -66t159 66t66 159z" />
    <glyph glyph-name="phi" unicode="&#x3c6;" horiz-adv-x="800" 
d="M413 650v-650q127 5 217 95q95 95 95 230t-95 230q-90 90 -217 95zM400 674v1q145 0 247.5 -102.5t102.5 -247.5t-102 -247q-98 -98 -235 -103v-126h-25v126q-137 4 -235 103q-103 102 -103 247q0 138 93 238l19 -17q-87 -92 -87 -221q0 -135 95 -230q91 -91 218 -95v674
h12z" />
    <glyph glyph-name="chi" unicode="&#x3c7;" horiz-adv-x="600" 
d="M315 325l236 -325h-31l-220 304l-221 -304h-31l236 325l-236 325h31l221 -304l220 304h31z" />
    <glyph glyph-name="psi" unicode="&#x3c8;" horiz-adv-x="750" 
d="M674 455v195h25v-195q0 -135 -95 -230q-91 -91 -218 -95v-131h-25v131q-127 5 -217 95q-95 95 -95 230v195h25v-195q0 -124 88 -212q83 -83 199 -88v494h25v-494q116 4 200 88q88 88 88 212z" />
    <glyph glyph-name="omega" unicode="&#x3c9;" horiz-adv-x="1025" 
d="M502 200v150h25v-150q0 -83 58.5 -141.5t141.5 -58.5t141.5 58.5t58.5 141.5v225q0 83 -58.5 141.5t-141.5 58.5v25q93 0 159 -66t66 -159v-225q0 -93 -66 -159t-159 -66t-159 66q-37 37 -53 83q-17 -46 -54 -83q-66 -66 -159 -66t-159 66t-66 159v225h-1q0 93 66 159
t159 66v-25q-83 0 -141.5 -58.5t-58.5 -141.5h1v-225q0 -83 58.5 -141.5t141.5 -58.5t141.5 58.5t58.5 141.5z" />
    <glyph glyph-name="iotadieresis" unicode="&#x3ca;" horiz-adv-x="225" 
d="M126 650v-650h-25v650h25zM26 775v75h25v-75h-25zM175 775v75h25v-75h-25z" />
    <glyph glyph-name="upsilondieresis" unicode="&#x3cb;" horiz-adv-x="650" 
d="M550 225v425h25v-425q0 -104 -73 -177t-177 -73t-177 73t-73 177v425h25v-425q0 -93 66 -159t159 -66t159 66t66 159zM238 775v75h25v-75h-25zM387 775v75h25v-75h-25z" />
    <glyph glyph-name="omicrontonos" unicode="&#x3cc;" horiz-adv-x="800" 
d="M647.5 572.5q102.5 -102.5 102.5 -247.5t-102.5 -247.5t-247.5 -102.5t-247.5 102.5t-102.5 247.5t102.5 247.5t247.5 102.5t247.5 -102.5zM400 650q-135 0 -230 -95t-95 -230t95 -230t230 -95t230 95t95 230t-95 230t-230 95zM375 775l47 175h27l-47 -175h-27z" />
    <glyph glyph-name="upsilontonos" unicode="&#x3cd;" horiz-adv-x="650" 
d="M550 225v425h25v-425q0 -104 -73 -177t-177 -73t-177 73t-73 177v425h25v-425q0 -93 66 -159t159 -66t159 66t66 159zM300 775l47 175h27l-47 -175h-27z" />
    <glyph glyph-name="omegatonos" unicode="&#x3ce;" horiz-adv-x="1025" 
d="M502 200v150h25v-150q0 -83 58.5 -141.5t141.5 -58.5t141.5 58.5t58.5 141.5v225q0 83 -58.5 141.5t-141.5 58.5v25q93 0 159 -66t66 -159v-225q0 -93 -66 -159t-159 -66t-159 66q-37 37 -53 83q-17 -46 -54 -83q-66 -66 -159 -66t-159 66t-66 159v225h-1q0 93 66 159
t159 66v-25q-83 0 -141.5 -58.5t-58.5 -141.5h1v-225q0 -83 58.5 -141.5t141.5 -58.5t141.5 58.5t58.5 141.5zM489 775l47 175h27l-47 -175h-27z" />
    <glyph glyph-name="Upsilon1" unicode="&#x3d2;" horiz-adv-x="625" 
d="M325 306v-306h-25v306l-300 519h29l284 -491l283 491h29z" />
    <glyph glyph-name="uni03D3" unicode="&#x3d3;" horiz-adv-x="800" 
d="M49 775l47 175h27l-47 -175h-27zM500 306v-306h-25v306l-300 519h29l284 -491l283 491h29z" />
    <glyph glyph-name="uni03D4" unicode="&#x3d4;" horiz-adv-x="625" 
d="M325 306v-306h-25v306l-300 519h29l284 -491l283 491h29zM226 950v75h25v-75h-25zM375 950v75h25v-75h-25z" />
    <glyph glyph-name="phi1" unicode="&#x3d5;" horiz-adv-x="800" 
d="M388 737q-127 -4 -218 -95q-95 -95 -95 -230t95 -230q91 -91 218 -95v650zM413 737v-650q127 5 217 95q95 95 95 230t-95 230q-90 90 -217 95zM388 762v163h25v-163q137 -5 235 -102q102 -103 102 -248t-102 -247q-98 -98 -235 -103v-162h-25v162q-137 4 -235 103
q-103 102 -103 247t103 248q98 98 235 102z" />
    <glyph glyph-name="uni03D8" unicode="&#x3d8;" 
d="M488 825q-171 0 -292 -121t-121 -291q0 -171 121 -292t292 -121q170 0 291 121t121 292q0 170 -121 291t-291 121zM475 -25q-174 5 -297 128q-128 128 -128 310q0 181 128 309t310 128q181 0 309 -128t128 -309q0 -182 -128 -310q-124 -124 -297 -128v-150h-25v150z" />
    <glyph glyph-name="uni03D9" unicode="&#x3d9;" horiz-adv-x="800" 
d="M400 650q-135 0 -230 -95t-95 -230t95 -230t230 -95t230 95t95 230t-95 230t-230 95zM388 -25q-137 4 -235 103q-103 102 -103 247t102.5 247.5t247.5 102.5t247.5 -102.5t102.5 -247.5t-102 -247q-98 -98 -235 -103v-150h-25v150z" />
    <glyph glyph-name="uni03DA" unicode="&#x3da;" horiz-adv-x="750" 
d="M399 175h13v-175h-25v150q-137 4 -235 103q-103 102 -103 247t102.5 247.5t247.5 102.5t248 -102q23 -24 41 -49l-21 -14q-16 23 -38 45q-95 95 -230 95t-230 -95t-95 -230t95 -230t230 -95z" />
    <glyph glyph-name="uni03DB" unicode="&#x3db;" horiz-adv-x="700" 
d="M400 -25q-145 0 -247.5 102.5t-102.5 247.5t102.5 247.5t247.5 102.5t248 -102q1 -2 3 -4l-18 -17l-3 3q-95 95 -230 95t-230 -95t-95 -230t95 -230t230 -95h50q52 0 88.5 -36.5t36.5 -88.5t-36.5 -88.5t-88.5 -36.5h-100v25h100q41 0 70.5 29.5t29.5 70.5t-29.5 70.5
t-70.5 29.5h-50z" />
    <glyph glyph-name="uni03DC" unicode="&#x3dc;" horiz-adv-x="600" 
d="M100 825h475v-25h-450v-375h350v-25h-350v-400h-25v825z" />
    <glyph glyph-name="uni03F1" unicode="&#x3f1;" horiz-adv-x="650" 
d="M325 199q-93 0 -159 66t-66 159t66 159t159 66t159 -66t66 -159t-66 -159t-159 -66zM100 313q18 -36 48 -66q73 -73 177 -73t177 73t73 177t-73 177t-177 73t-177 -73t-73 -177v-200q0 -104 73 -177t177 -73q82 0 142 -50h37l-2 2q-73 73 -177 73q-94 0 -159.5 66
t-65.5 159v89z" />
    <glyph glyph-name="uni03F2" unicode="&#x3f2;" horiz-adv-x="700" 
d="M625 90l17 -18q-101 -97 -242 -97q-145 0 -247.5 102.5t-102.5 247.5t102.5 247.5t247.5 102.5t248 -102q1 -2 3 -4l-18 -17l-3 3q-95 95 -230 95t-230 -95t-95 -230t95 -230t230 -95q132 0 225 90z" />
    <glyph glyph-name="uni03F3" unicode="&#x3f3;" horiz-adv-x="225" 
d="M0 200q0 -83 -58.5 -141.5t-141.5 -58.5v25q72 0 123.5 51.5t51.5 123.5v450h25v-450z" />
    <glyph glyph-name="uni03F4" unicode="&#x3f4;" 
d="M796 722q128 -128 128 -309q0 -182 -128 -310t-309 -128q-182 0 -310 128t-128 310q0 181 128 309t310 128q181 0 309 -128zM487 825q-171 0 -292 -121t-121 -291q0 -171 121 -292t292 -121q170 0 291 121t121 292q0 170 -121 291t-291 121zM162 425h650v-25h-650v25z
" />
    <glyph glyph-name="uni03F5" unicode="&#x3f5;" horiz-adv-x="700" 
d="M75 313q4 -127 95 -218q95 -95 230 -95q132 0 225 90l17 -18q-101 -97 -242 -97q-145 0 -247.5 102.5t-102.5 247.5t102.5 247.5t247.5 102.5t248 -102q1 -2 3 -4l-18 -17l-3 3q-95 95 -230 95t-230 -95q-90 -90 -95 -217h450v-25h-450z" />
    <glyph glyph-name="uni03F6" unicode="&#x3f6;" horiz-adv-x="700" 
d="M625 337q-4 127 -95 218q-95 95 -230 95q-132 0 -225 -90l-17 18q101 97 242 97q145 0 247.5 -102.5t102.5 -247.5t-102.5 -247.5t-247.5 -102.5t-248 102q-1 2 -3 4l18 17l3 -3q95 -95 230 -95t230 95q90 90 95 217h-450v25h450z" />
    <glyph glyph-name="uni03F7" unicode="&#x3f7;" horiz-adv-x="725" 
d="M125 650h250q124 0 212 -88t88 -212t-88 -212t-212 -88h-250v-148h-25v923h25v-175zM125 75h250q114 0 194.5 80.5t80.5 194.5t-80.5 194.5t-194.5 80.5h-250v-550z" />
    <glyph glyph-name="uni03F8" unicode="&#x3f8;" horiz-adv-x="825" 
d="M124 197q24 -56 70 -102q95 -95 230 -95t230 95t95 230t-95 230t-230 95t-230 -95q-46 -46 -70 -102v-256zM99 825h25v-318q22 34 53 65q102 103 247 103t247.5 -102.5t102.5 -247.5t-102.5 -247.5t-247.5 -102.5t-247 102q-31 31 -53 66v-318h-25v1000z" />
    <glyph glyph-name="Sigmalunate" unicode="&#x3f9;" horiz-adv-x="875" 
d="M797 103q-128 -128 -309 -128q-182 0 -310 128t-128 310q0 181 128 309t310 128q181 0 309 -128l-18 -18q-121 121 -291 121q-171 0 -292 -121t-121 -291q0 -171 121 -292t292 -121q170 0 291 121z" />
    <glyph glyph-name="San" unicode="&#x3fa;" horiz-adv-x="1025" 
d="M125 791v-791h-25v825h32l384 -529l384 529h32v-825h-25v791l-374 -516h-34z" />
    <glyph glyph-name="Sigmalunatereversed" unicode="&#x3fd;" horiz-adv-x="875" 
d="M50 103q128 -128 309 -128q182 0 310 128t128 310q0 181 -128 309t-310 128q-181 0 -309 -128l18 -18q121 121 291 121q171 0 292 -121t121 -291q0 -171 -121 -292t-292 -121q-170 0 -291 121z" />
    <glyph glyph-name="Sigmalunatedot" unicode="&#x3fe;" horiz-adv-x="875" 
d="M797 103q-128 -128 -309 -128q-182 0 -310 128t-128 310q0 181 128 309t310 128q181 0 309 -128l-18 -18q-121 121 -291 121q-171 0 -292 -121t-121 -291q0 -171 121 -292t292 -121q170 0 291 121zM440 450v-75h-25v75h25z" />
    <glyph glyph-name="Sigmalunatedotreversed" unicode="&#x3ff;" horiz-adv-x="875" 
d="M50 103q128 -128 309 -128q182 0 310 128t128 310q0 181 -128 309t-310 128q-181 0 -309 -128l18 -18q121 121 291 121q171 0 292 -121t121 -291q0 -171 -121 -292t-292 -121q-170 0 -291 121zM407 450v-75h25v75h-25z" />
    <glyph glyph-name="uni0400" unicode="&#x400;" horiz-adv-x="625" 
d="M100 825h475v-25h-450v-375h350v-25h-350v-375h450v-25h-475v825zM374 950l-47 175h-27l47 -175h27z" />
    <glyph glyph-name="afii10023" unicode="&#x401;" horiz-adv-x="625" 
d="M100 825h475v-25h-450v-375h350v-25h-350v-375h450v-25h-475v825zM251 950v75h25v-75h-25zM400 950v75h25v-75h-25z" />
    <glyph glyph-name="afii10051" unicode="&#x402;" horiz-adv-x="950" 
d="M525 825v-25h-250v-392q22 39 55 73q95 95 230 95t230 -95t95 -230t-95 -230t-230 -95v25q124 0 212 88t88 212t-88 212t-212 88t-212 -88q-50 -50 -71 -112h-2v-351h-25v800h-250v25h525z" />
    <glyph glyph-name="afii10052" unicode="&#x403;" horiz-adv-x="550" 
d="M125 800v-800h-25v825h475v-25h-450zM313 950l47 175h27l-47 -175h-27z" />
    <glyph glyph-name="Jukcy" unicode="&#x404;" horiz-adv-x="875" 
d="M75 400q5 -163 121 -279q121 -121 292 -121q170 0 291 121l7 7l19 -17l-8 -8q-128 -128 -309 -128q-182 0 -310 128t-128 310q0 181 128 309t310 128q181 0 309 -128l4 -4l-19 -17l-3 3q-121 121 -291 121q-171 0 -292 -121q-117 -117 -121 -279h611v-25h-611z" />
    <glyph glyph-name="Dze" unicode="&#x405;" horiz-adv-x="725" 
d="M586 51q-81 -78 -199 -86q-14 -1 -28 -1q-137 0 -238 80q-58 53 -86 106l23 11q25 -49 80 -98q93 -74 219 -74q14 0 28 1q108 7 183 79q35 32 48 80q7 24 7 48q0 44 -24 86q-37 62 -107 80l-241 65q-90 24 -136 95q-31 47 -31 102q0 28 8 59q24 90 104 137q53 30 109 34
q19 2 38 2q92 0 176 -44q54 -32 101 -86l-21 -14q-43 50 -93 78q-79 41 -163 41q-18 0 -37 -2q-50 -4 -97 -31q-72 -42 -93 -122q-8 -28 -8 -53q0 -48 28 -88q41 -62 121 -84l242 -64q80 -22 122 -93q27 -47 27 -98q0 -26 -8 -54q-14 -56 -53 -93z" />
    <glyph glyph-name="afii10055" unicode="&#x406;" horiz-adv-x="225" 
d="M125 825v-825h-25v825h25z" />
    <glyph glyph-name="afii10056" unicode="&#x407;" horiz-adv-x="225" 
d="M126 825v-825h-25v825h25zM26 950v75h25v-75h-25zM175 950v75h25v-75h-25z" />
    <glyph glyph-name="afii10057" unicode="&#x408;" horiz-adv-x="375" 
d="M275 325v500h25v-500q0 -135 -95 -230t-230 -95v25q125 0 213 88q87 88 87 212z" />
    <glyph glyph-name="afii10058" unicode="&#x409;" horiz-adv-x="1150" 
d="M200 200q0 -83 -58.5 -141.5t-141.5 -58.5v25q72 0 123.5 51.5t51.5 123.5v626h450v-401h253q88 0 150 -62t62 -150q0 -89 -62 -151t-150 -62h-278v801h-400v-601zM625 400v-375h253q77 0 132 55t55 133q0 77 -55 132t-132 55h-253z" />
    <glyph glyph-name="afii10059" unicode="&#x40a;" horiz-adv-x="1300" 
d="M749 0v400h-624v-400h-25v825h25v-400h624v400h26v-400h252q88 0 150 -62t62 -150q0 -89 -62 -151t-150 -62h-278zM775 400v-375h252q77 0 132 55t55 133q0 77 -55 132t-132 55h-252z" />
    <glyph glyph-name="afii10060" unicode="&#x40b;" horiz-adv-x="950" 
d="M525 825v-25h-250v-392q22 39 55 73q95 95 230 95t230 -95t95 -230v-251h-25v251q0 124 -88 212t-212 88t-212 -88q-50 -50 -71 -112h-2v-351h-25v800h-250v25h525z" />
    <glyph glyph-name="afii10061" unicode="&#x40c;" horiz-adv-x="625" 
d="M125 825v-825h-25v825h25zM257 413l299 -413h-32l-299 413l299 412h32zM303 950l47 175h27l-47 -175h-27z" />
    <glyph glyph-name="uni040D" unicode="&#x40d;" horiz-adv-x="825" 
d="M706 791v-791h25v825h-32l-574 -791v791h-25v-825h32zM424 950l-47 175h-27l47 -175h27z" />
    <glyph glyph-name="afii10062" unicode="&#x40e;" horiz-adv-x="675" 
d="M324 309l-298 516h29l284 -491l283 491h29l-400 -693q-20 -33 -49 -62q-95 -95 -230 -95v25q125 0 213 88q24 24 41 51zM434 1050h28q-12 -29 -35 -52q-48 -48 -115 -48q-68 0 -115 48q-24 23 -36 52h28q10 -19 26 -34q40 -41 97 -41q56 0 97 41q15 15 25 34z" />
    <glyph glyph-name="afii10145" unicode="&#x40f;" horiz-adv-x="600" 
d="M75 825h25v-670h400v670h25v-695h-212v-130h-25v130h-213v695z" />
    <glyph glyph-name="afii10017" unicode="&#x410;" horiz-adv-x="825" 
d="M710 160l-298 639l-298 -639h596zM428 825l385 -825h-28l-63 135h-620l-63 -135h-28l385 825h32z" />
    <glyph glyph-name="afii10018" unicode="&#x411;" horiz-adv-x="675" 
d="M125 400v-375h253q77 0 132 55t55 133q0 77 -55 132t-132 55h-253zM125 425h253q88 0 150 -62t62 -150q0 -89 -62 -151t-150 -62h-278v825h475v-25h-450v-375z" />
    <glyph glyph-name="afii10019" unicode="&#x412;" horiz-adv-x="750" 
d="M125 800v-375h325q77 0 132 55t55 133q0 77 -55 132t-132 55h-325zM125 400v-375h350q77 0 132 55t55 133q0 77 -55 132t-132 55h-350zM100 825h350q88 0 150 -62t62 -150q0 -89 -62 -151q-30 -30 -65 -45q50 -14 90 -54q62 -62 62 -150q0 -89 -62 -151t-150 -62h-375
v825z" />
    <glyph glyph-name="afii10020" unicode="&#x413;" horiz-adv-x="550" 
d="M125 800v-800h-25v825h475v-25h-450z" />
    <glyph glyph-name="afii10021" unicode="&#x414;" horiz-adv-x="775" 
d="M200 801v-401q0 -83 -58 -141q-21 -21 -44 -34h502v576h-400zM175 826h450v-601h100v-225h-25v200h-675v-200h-25v225q72 0 123.5 51.5t51.5 123.5v426z" />
    <glyph glyph-name="afii10022" unicode="&#x415;" horiz-adv-x="625" 
d="M100 825h475v-25h-450v-375h350v-25h-350v-375h450v-25h-475v825z" />
    <glyph glyph-name="afii10024" unicode="&#x416;" horiz-adv-x="1025" 
d="M531 825v-825h-25v825h25zM663 413l299 -413h-32l-299 413l299 412h32zM374 412l-299 413h32l299 -413l-299 -412h-32z" />
    <glyph glyph-name="afii10025" unicode="&#x417;" horiz-adv-x="625" 
d="M311 425v25h1q77 0 132 55t55 133q0 77 -55 132t-132 55q-78 0 -133 -55q-51 -51 -55 -120h-25q4 80 62 138q62 62 151 62q88 0 150 -62t62 -150q0 -89 -62 -151q-33 -33 -74 -49q51 -16 93 -57q69 -70 69 -168q0 -99 -69.5 -168.5t-167.5 -69.5q-99 0 -168.5 69.5
t-69.5 168.5v12h25v-12q0 -89 62 -151t151 -62q88 0 150 62t62 151q0 88 -62 150t-150 62h-2z" />
    <glyph glyph-name="Icy" unicode="&#x418;" horiz-adv-x="825" 
d="M706 791v-791h25v825h-32l-574 -791v791h-25v-825h32z" />
    <glyph glyph-name="afii10027" unicode="&#x419;" horiz-adv-x="825" 
d="M706 791v-791h25v825h-32l-574 -791v791h-25v-825h32zM538 1050h28q-12 -29 -35 -52q-48 -48 -115 -48q-68 0 -115 48q-24 23 -36 52h28q10 -19 26 -34q40 -41 97 -41q56 0 97 41q15 15 25 34z" />
    <glyph glyph-name="afii10028" unicode="&#x41a;" horiz-adv-x="625" 
d="M125 825v-825h-25v825h25zM257 413l299 -413h-32l-299 413l299 412h32z" />
    <glyph glyph-name="cyrEl" unicode="&#x41b;" horiz-adv-x="725" 
d="M625 0h-25v801h-400v-601q0 -83 -58.5 -141.5t-141.5 -58.5v25q72 0 123.5 51.5t51.5 123.5v626h450v-826z" />
    <glyph glyph-name="afii10030" unicode="&#x41c;" horiz-adv-x="1025" 
d="M125 791v-791h-25v825h32l384 -529l384 529h32v-825h-25v791l-374 -516h-34z" />
    <glyph glyph-name="afii10031" unicode="&#x41d;" horiz-adv-x="875" 
d="M125 400v-400h-25v825h25v-400h625v400h25v-825h-25v400h-625z" />
    <glyph glyph-name="afii10032" unicode="&#x41e;" 
d="M797 722q128 -128 128 -309q0 -182 -128 -310t-309 -128q-182 0 -310 128t-128 310q0 181 128 309t310 128q181 0 309 -128zM488 825q-171 0 -292 -121t-121 -291q0 -171 121 -292t292 -121q170 0 291 121t121 292q0 170 -121 291t-291 121z" />
    <glyph glyph-name="afii10033" unicode="&#x41f;" horiz-adv-x="650" 
d="M125 800v-800h-25v825h450v-825h-25v800h-400z" />
    <glyph glyph-name="afii10034" unicode="&#x420;" horiz-adv-x="725" 
d="M125 800v-550h250q114 0 194.5 80.5t80.5 194.5t-80.5 194.5t-194.5 80.5h-250zM100 825h275q124 0 212 -88t88 -212t-88 -212t-212 -88h-250v-225h-25v825z" />
    <glyph glyph-name="afii10035" unicode="&#x421;" horiz-adv-x="875" 
d="M797 103q-128 -128 -309 -128q-182 0 -310 128t-128 310q0 181 128 309t310 128q181 0 309 -128l-18 -18q-121 121 -291 121q-171 0 -292 -121t-121 -291q0 -171 121 -292t292 -121q170 0 291 121z" />
    <glyph glyph-name="afii10036" unicode="&#x422;" horiz-adv-x="525" 
d="M525 825v-25h-250v-800h-25v800h-250v25h525z" />
    <glyph glyph-name="afii10037" unicode="&#x423;" horiz-adv-x="675" 
d="M324 309l-298 516h29l284 -491l283 491h29l-400 -693q-20 -33 -49 -62q-95 -95 -230 -95v25q125 0 213 88q24 24 41 51z" />
    <glyph glyph-name="Ef" unicode="&#x424;" 
d="M475 825q-163 -5 -279 -121q-121 -121 -121 -291q0 -171 121 -292q116 -116 279 -121v825zM500 0q162 4 279 121q121 121 121 292q0 170 -121 291q-117 117 -279 121v-825zM500 850q173 -4 297 -128q128 -128 128 -309q0 -182 -128 -310q-124 -124 -297 -128v-75h-25v75
q-174 5 -297 128q-128 128 -128 310q0 181 128 309q123 123 297 128v75h25v-75z" />
    <glyph glyph-name="afii10039" unicode="&#x425;" horiz-adv-x="700" 
d="M366 413l299 -413h-32l-283 390l-284 -390h-32l300 413l-300 412h32l284 -390l283 390h32z" />
    <glyph glyph-name="afii10040" unicode="&#x426;" horiz-adv-x="725" 
d="M675 0h-575v825h25v-799h400v799h25v-799h151v-150h-26v124z" />
    <glyph glyph-name="afii10041" unicode="&#x427;" horiz-adv-x="812" 
d="M575 499v326h25v-650h-25v299h-475v-299h-25v650h25v-326h475z" />
    <glyph glyph-name="Sha" unicode="&#x428;" horiz-adv-x="1075" 
d="M100 0v825h25v-800h400v800h25v-800h400v800h25v-825h-875z" />
    <glyph glyph-name="Shcha" unicode="&#x429;" horiz-adv-x="1150" 
d="M100 0v825h25v-800h400v800h25v-800h400v800h25v-800h150v-150h-25v125h-1000z" />
    <glyph glyph-name="afii10044" unicode="&#x42a;" horiz-adv-x="650" 
d="M125 425h253q88 0 150 -62t62 -150q0 -89 -62 -151t-150 -62h-278v800h-225v25h250v-400zM125 400v-375h253q77 0 132 55t55 133q0 77 -55 132t-132 55h-253z" />
    <glyph glyph-name="afii10045" unicode="&#x42b;" horiz-adv-x="850" 
d="M125 425h253q88 0 150 -62t62 -150q0 -89 -62 -151t-150 -62h-278v825h25v-400zM750 825v-825h-25v825h25zM125 400v-375h253q77 0 132 55t55 133q0 77 -55 132t-132 55h-253z" />
    <glyph glyph-name="cyrSoft" unicode="&#x42c;" horiz-adv-x="650" 
d="M125 425h253q88 0 150 -62t62 -150q0 -89 -62 -151t-150 -62h-278v825h25v-400zM125 400v-375h253q77 0 132 55t55 133q0 77 -55 132t-132 55h-253z" />
    <glyph glyph-name="cyrE" unicode="&#x42d;" horiz-adv-x="875" 
d="M799 400q-5 -163 -121 -279q-121 -121 -292 -121q-170 0 -291 121l-7 7l-19 -17l8 -8q128 -128 309 -128q182 0 310 128t128 310q0 181 -128 309t-310 128q-181 0 -309 -128l-4 -4l19 -17l3 3q121 121 291 121q171 0 292 -121q117 -117 121 -279h-611v-25h611z" />
    <glyph glyph-name="afii10048" unicode="&#x42e;" horiz-adv-x="1225" 
d="M739 825q-171 0 -292 -121t-121 -291q0 -171 121 -292t292 -121q170 0 291 121t121 292q0 170 -121 291t-291 121zM75 825h25v-400h201q4 173 128 297q128 128 310 128q181 0 309 -128t128 -309q0 -182 -128 -310t-309 -128q-182 0 -310 128q-123 123 -128 297h-201v-400
h-25v825z" />
    <glyph glyph-name="YAcy" unicode="&#x42f;" horiz-adv-x="775" 
d="M651 800v-550h-275q-114 0 -194.5 80.5t-80.5 194.5t80.5 194.5t194.5 80.5h275zM676 825h-300q-124 0 -212 -88t-88 -212t88 -212q41 -41 90 -63l-144 -250h30l138 240q46 -15 98 -15h275v-225h25v825z" />
    <glyph glyph-name="afii10065" unicode="&#x430;" horiz-adv-x="825" 
d="M148 150h443l-222 474zM603 125h-467l-58 -125h-28l303 650h32l304 -650h-28z" />
    <glyph glyph-name="afii10066" unicode="&#x431;" horiz-adv-x="650" 
d="M325 450q-93 0 -159 -66t-66 -159t66 -159t159 -66t159 66t66 159t-66 159t-159 66zM100 336q18 36 48 66q73 73 177 73t177 -73t73 -177t-73 -177t-177 -73t-177 73t-73 177v200q0 104 73 177t177 73q82 0 142 50h37l-2 -2q-73 -73 -177 -73q-94 0 -159.5 -66
t-65.5 -159v-89z" />
    <glyph glyph-name="afii10067" unicode="&#x432;" horiz-adv-x="625" 
d="M100 651h25v-1h270q66 -1 113 -47q47 -48 47 -115q0 -68 -47 -115q-23 -23 -50 -35q33 -12 60 -39q51 -51 51 -124q0 -72 -51 -123q-52 -52 -123 -52h-295v651zM125 325v-300h270q61 0 105 44t44 106t-44 106t-105 44h-270zM125 625v-275h270q55 1 95 41t40 97
q0 56 -40 97q-40 39 -95 40h-270z" />
    <glyph glyph-name="afii10068" unicode="&#x433;" horiz-adv-x="500" 
d="M125 625v-625h-25v650h375v-25h-350z" />
    <glyph glyph-name="afii10069" unicode="&#x434;" horiz-adv-x="750" 
d="M200 625v-300q0 -83 -58 -141q-21 -21 -44 -34h502v475h-400zM175 650h450v-500h100v-150h-25v125h-675v-125h-25v150q72 0 123.5 51.5t51.5 123.5v325z" />
    <glyph glyph-name="afii10070" unicode="&#x435;" horiz-adv-x="700" 
d="M50 650h425v-25h-400v-287h300v-25h-300v-288h400v-25h-425v650z" />
    <glyph glyph-name="afii10072" unicode="&#x436;" horiz-adv-x="875" 
d="M444 650v-650h-25v650h25zM576 325l236 -325h-31l-236 325l236 325h31zM287 325l-236 325h31l236 -325l-236 -325h-31z" />
    <glyph glyph-name="afii10073" unicode="&#x437;" horiz-adv-x="525" 
d="M248 325q73 0 124 -51t51 -124q0 -72 -51 -123.5t-124 -51.5q-72 0 -124 52q-15 15 -26 33l-22 -13q13 -21 30 -38q59 -59 142 -59t141.5 58.5t58.5 141.5t-59 142q-32 32 -72 46q30 13 55 39q51 51 51 123q0 73 -51 124t-124 51q-72 0 -124 -51q-9 -9 -16 -19l20 -15
q6 8 14 16q44 44 106 44t106 -44t44 -106t-44 -106t-106 -44v-25z" />
    <glyph glyph-name="afii10074" unicode="&#x438;" horiz-adv-x="700" 
d="M598 646v-646h-25v611l-444 -611h-32v650h25v-616l447 616h32z" />
    <glyph glyph-name="afii10075" unicode="&#x439;" horiz-adv-x="700" 
d="M598 646v-646h-25v611l-444 -611h-32v650h25v-616l447 616h32zM472 875h28q-12 -29 -35 -52q-48 -48 -115 -48q-68 0 -115 48q-24 23 -36 52h28q10 -19 26 -34q40 -41 97 -41q56 0 97 41q15 15 25 34z" />
    <glyph glyph-name="afii10076" unicode="&#x43a;" horiz-adv-x="550" 
d="M125 650v-650h-25v650h25zM257 325l236 -325h-31l-236 325l236 325h31z" />
    <glyph glyph-name="afii10077" unicode="&#x43b;" horiz-adv-x="725" 
d="M625 0h-25v624h-400v-424q0 -83 -58.5 -141.5t-141.5 -58.5v25q72 0 123.5 51.5t51.5 123.5v449h450v-649z" />
    <glyph glyph-name="afii10078" unicode="&#x43c;" horiz-adv-x="850" 
d="M125 617v-616h-25v650h32l294 -405l293 405h32v-650h-25v616l-284 -392h-33z" />
    <glyph glyph-name="afii10079" unicode="&#x43d;" horiz-adv-x="725" 
d="M125 326v-326h-25v650h25v-299h475v299h25v-650h-25v326h-475z" />
    <glyph glyph-name="afii10080" unicode="&#x43e;" horiz-adv-x="800" 
d="M647.5 572.5q102.5 -102.5 102.5 -247.5t-102.5 -247.5t-247.5 -102.5t-247.5 102.5t-102.5 247.5t102.5 247.5t247.5 102.5t247.5 -102.5zM400 650q-135 0 -230 -95t-95 -230t95 -230t230 -95t230 95t95 230t-95 230t-230 95z" />
    <glyph glyph-name="afii10081" unicode="&#x43f;" horiz-adv-x="650" 
d="M125 624v-624h-25v649h450v-649h-25v624h-400z" />
    <glyph glyph-name="afii10082" unicode="&#x440;" horiz-adv-x="825" 
d="M124 625v-450h200q93 0 159 66t66 159t-66 159t-159 66h-200zM99 650h225q104 0 177 -73t73 -177t-73 -177t-177 -73h-200v-150h-25v650z" />
    <glyph glyph-name="afii10083" unicode="&#x441;" horiz-adv-x="700" 
d="M625 90l17 -18q-101 -97 -242 -97q-145 0 -247.5 102.5t-102.5 247.5t102.5 247.5t247.5 102.5t248 -102q1 -2 3 -4l-18 -17l-3 3q-95 95 -230 95t-230 -95t-95 -230t95 -230t230 -95q132 0 225 90z" />
    <glyph glyph-name="afii10084" unicode="&#x442;" horiz-adv-x="425" 
d="M425 650v-25h-200v-625h-25v625h-200v25h425z" />
    <glyph glyph-name="afii10085" unicode="&#x443;" horiz-adv-x="813" 
d="M371 181v-181h-25v181l-271 469h29l255 -441l254 441h29z" />
    <glyph glyph-name="afii10086" unicode="&#x444;" horiz-adv-x="1125" 
d="M549 348q-5 120 -68 207q-70 95 -168 95q-99 0 -168.5 -95t-69.5 -230t69.5 -230t168.5 -95q98 0 168 95q63 87 68 207v46zM575 357v-63q7 -114 69 -198q70 -96 168 -96t167.5 95.5t69.5 229.5q0 135 -69.5 230t-167.5 95t-168 -95q-62 -84 -69 -198zM550 174
q-19 -52 -52 -96q-77 -103 -185 -103q-109 0 -186 102.5t-77 247.5t77 247.5t186 102.5q108 0 185 -102q33 -45 52 -97v299h25v-296q19 51 51 94q77 102 186 102t185.5 -102.5t76.5 -247.5t-76.5 -247.5t-185.5 -102.5t-186 103q-32 42 -51 93v-296h-25v299z" />
    <glyph glyph-name="afii10087" unicode="&#x445;" horiz-adv-x="600" 
d="M315 325l236 -325h-31l-220 304l-221 -304h-31l236 325l-236 325h31l221 -304l220 304h31z" />
    <glyph glyph-name="afii10088" unicode="&#x446;" horiz-adv-x="725" 
d="M100 0v651h25v-625h400v625h25v-625h151v-150h-25v124h-576z" />
    <glyph glyph-name="afii10089" unicode="&#x447;" horiz-adv-x="800" 
d="M710 0h-25v267q-22 -39 -55 -73q-95 -95 -230 -95t-230 95t-95 230v226h25v-226q0 -124 88 -212t212 -88t212 88q50 50 71 112h2v326h25v-650z" />
    <glyph glyph-name="afii10090" unicode="&#x448;" horiz-adv-x="1075" 
d="M100 0v649h25v-624h400v624h25v-625h400v624h25v-648h-875z" />
    <glyph glyph-name="afii10091" unicode="&#x449;" horiz-adv-x="1150" 
d="M100 0v649h25v-624h400v624h25v-624h400v623h25v-623h150v-150h-25v125h-1000z" />
    <glyph glyph-name="afii10092" unicode="&#x44a;" horiz-adv-x="650" 
d="M100 625h-225v25h250v-300h270q71 0 123 -51q51 -51 51 -124q0 -72 -51 -123q-52 -51 -123 -52h-295v625zM125 325v-300h270q61 1 105 44q44 44 44 106t-44 106t-105 44h-270z" />
    <glyph glyph-name="afii10093" unicode="&#x44b;" horiz-adv-x="825" 
d="M100 651h25v-301h270q71 0 123 -51q51 -51 51 -124q0 -72 -51 -123q-52 -51 -123 -52h-295v651zM125 325v-300h270q61 1 105 44q44 44 44 106t-44 106t-105 44h-270zM725 650v-650h-25v650h25z" />
    <glyph glyph-name="afii10094" unicode="&#x44c;" horiz-adv-x="625" 
d="M100 651h25v-301h270q71 0 123 -51q51 -51 51 -124q0 -72 -51 -123q-52 -51 -123 -52h-295v651zM125 325v-300h270q61 1 105 44q44 44 44 106t-44 106t-105 44h-270z" />
    <glyph glyph-name="afii10095" unicode="&#x44d;" horiz-adv-x="700" 
d="M625 337q-4 127 -95 218q-95 95 -230 95q-132 0 -225 -90l-17 18q101 97 242 97q145 0 247.5 -102.5t102.5 -247.5t-102.5 -247.5t-247.5 -102.5t-248 102q-1 2 -3 4l18 17l3 -3q95 -95 230 -95t230 95q90 90 95 217h-450v25h450z" />
    <glyph glyph-name="afii10096" unicode="&#x44e;" horiz-adv-x="1000" 
d="M610 650q-135 0 -230 -95t-95 -230t95 -230t230 -95t230 95t95 230t-95 230t-230 95zM125 325v-325h-25v650h25v-300h136q8 129 102 223q102 102 247 102t247.5 -102.5t102.5 -247.5t-102.5 -247.5t-247.5 -102.5t-247.5 102.5t-102.5 247.5h-135z" />
    <glyph glyph-name="afii10097" unicode="&#x44f;" horiz-adv-x="650" 
d="M524 625v-450h-200q-93 0 -159 66t-66 159t66 159t159 66h200zM549 650h-225q-104 0 -177 -73t-73 -177t73 -177q36 -36 79 -54l-98 -169h30l93 160q34 -10 73 -10h200v-150h25v650z" />
    <glyph glyph-name="uni0450" unicode="&#x450;" horiz-adv-x="700" 
d="M50 650h425v-25h-400v-287h300v-25h-300v-288h400v-25h-425v650zM325 775l-47 175h-27l47 -175h27z" />
    <glyph glyph-name="afii10071" unicode="&#x451;" horiz-adv-x="700" 
d="M50 650h425v-25h-400v-287h300v-25h-300v-288h400v-25h-425v650zM214 775v75h25v-75h-25zM363 775v75h25v-75h-25z" />
    <glyph glyph-name="afii10099" unicode="&#x452;" horiz-adv-x="850" 
d="M175 624h150v-25h-150v-243q22 39 55 73q95 95 230 95t230 -95t95 -230t-95 -230t-230 -95v25q124 0 212 88t88 212t-88 212t-212 88t-212 -88q-50 -50 -71 -112h-2v-299h-25v599h-150v25h150v27h25v-27z" />
    <glyph glyph-name="afii10100" unicode="&#x453;" horiz-adv-x="500" 
d="M125 625v-625h-25v650h375v-25h-350zM263 775l47 175h27l-47 -175h-27z" />
    <glyph glyph-name="afii10101" unicode="&#x454;" horiz-adv-x="700" 
d="M75 313q4 -127 95 -218q95 -95 230 -95q132 0 225 90l17 -18q-101 -97 -242 -97q-145 0 -247.5 102.5t-102.5 247.5t102.5 247.5t247.5 102.5t248 -102q1 -2 3 -4l-18 -17l-3 3q-95 95 -230 95t-230 -95q-90 -90 -95 -217h450v-25h-450z" />
    <glyph glyph-name="afii10102" unicode="&#x455;" horiz-adv-x="625" 
d="M512 244q24 -40 24 -87q0 -21 -5 -43q-17 -73 -79 -111q-47 -26 -100 -34q-29 -4 -57 -4q-113 0 -215 59q-3 2 -5 3l15 21l4 -4q96 -53 203 -53q25 0 52 3q45 5 91 30q52 33 66 96q5 20 5 38q0 39 -20 73q-30 49 -97 69l-169 40v-1q-82 23 -119 79q-27 39 -27 88
q0 19 4 40q17 65 69.5 101t136.5 38h7q131 0 230 -68q1 -2 4 -4l-19 -18q0 2 -2 5q-92 60 -212 60h-8q-77 -2 -122.5 -33.5t-59.5 -85.5q-4 -19 -4 -36q0 -41 24 -74q33 -47 103 -68v1l171 -40q76 -21 111 -80z" />
    <glyph glyph-name="afii10103" unicode="&#x456;" horiz-adv-x="225" 
d="M125 650v-650h-25v650h25z" />
    <glyph glyph-name="afii10104" unicode="&#x457;" horiz-adv-x="225" 
d="M125 650v-650h-25v650h25zM25 775v75h25v-75h-25zM174 775v75h25v-75h-25z" />
    <glyph glyph-name="afii10105" unicode="&#x458;" horiz-adv-x="225" 
d="M0 200q0 -83 -58.5 -141.5t-141.5 -58.5v25q72 0 123.5 51.5t51.5 123.5v450h25v-450z" />
    <glyph glyph-name="afii10106" unicode="&#x459;" horiz-adv-x="1125" 
d="M625 325v-300h269q61 1 105 44q44 44 44 106t-44 106t-105 44h-269zM200 200q0 -83 -58.5 -141.5t-141.5 -58.5v25q72 0 123.5 51.5t51.5 123.5v449h424v2h25v-2h1v-299h269q71 0 123 -51q51 -51 51 -124q0 -72 -51 -123q-52 -51 -123 -52h-295v624h-399v-424z" />
    <glyph glyph-name="afii10107" unicode="&#x45a;" horiz-adv-x="1125" 
d="M125 326v-326h-25v650h25v-299h475v300h25v-301h270q71 0 123 -51q51 -51 51 -124q0 -72 -51 -123q-52 -51 -123 -52h-295v326h-475zM625 325v-300h270q61 1 105 44q44 44 44 106t-44 106t-105 44h-270z" />
    <glyph glyph-name="afii10108" unicode="&#x45b;" horiz-adv-x="850" 
d="M175 624h150v-25h-150v-243q22 39 55 73q95 95 230 95t230 -95t95 -229v-200h-25v199q0 124 -88 212t-212 88t-212 -88q-50 -50 -71 -112h-2v-299h-25v599h-150v25h150v27h25v-27z" />
    <glyph glyph-name="afii10109" unicode="&#x45c;" horiz-adv-x="550" 
d="M125 650v-650h-25v650h25zM257 325l236 -325h-31l-236 325l236 325h31zM272 775l47 175h27l-47 -175h-27z" />
    <glyph glyph-name="uni045D" unicode="&#x45d;" horiz-adv-x="700" 
d="M598 646v-646h-25v611l-444 -611h-32v650h25v-616l447 616h32zM350 775l-47 175h-27l47 -175h27z" />
    <glyph glyph-name="afii10110" unicode="&#x45e;" horiz-adv-x="813" 
d="M371 181v-181h-25v181l-271 469h29l255 -441l254 441h29zM586 875h28q-12 -29 -35 -52q-48 -48 -115 -48q-68 0 -115 48q-24 23 -36 52h28q10 -19 26 -34q40 -41 97 -41q56 0 97 41q15 15 25 34z" />
    <glyph glyph-name="afii10193" unicode="&#x45f;" horiz-adv-x="650" 
d="M525 175v474h25v-499h-212v-150h-25v150h-213v499h25v-474h400z" />
    <glyph glyph-name="afii10146" unicode="&#x462;" horiz-adv-x="650" 
d="M100 525h-50v25h50v101h25v-101h200v-25h-200v-175h270q71 0 123 -51q51 -51 51 -124q0 -72 -51 -123q-52 -51 -123 -52h-295v525zM125 325v-300h270q61 1 105 44q44 44 44 106t-44 106t-105 44h-270z" />
    <glyph glyph-name="afii10194" unicode="&#x463;" horiz-adv-x="650" 
d="M100 525h-50v25h50v101h25v-101h200v-25h-200v-175h270q71 0 123 -51q51 -51 51 -124q0 -72 -51 -123q-52 -51 -123 -52h-295v525zM125 325v-300h270q61 1 105 44q44 44 44 106t-44 106t-105 44h-270z" />
    <glyph glyph-name="afii10147" unicode="&#x472;" 
d="M797 722q128 -128 128 -309q0 -182 -128 -310t-309 -128q-182 0 -310 128t-128 310q0 181 128 309t310 128q181 0 309 -128zM488 825q-171 0 -292 -121t-121 -291q0 -171 121 -292t292 -121q170 0 291 121t121 292q0 170 -121 291t-291 121zM805 425v-25h-635v25h635z
" />
    <glyph glyph-name="afii10195" unicode="&#x473;" horiz-adv-x="800" 
d="M647.5 572.5q102.5 -102.5 102.5 -247.5t-102.5 -247.5t-247.5 -102.5t-247.5 102.5t-102.5 247.5t102.5 247.5t247.5 102.5t247.5 -102.5zM400 650q-135 0 -230 -95t-95 -230t95 -230t230 -95t230 95t95 230t-95 230t-230 95zM663 338v-25h-525v25h525z" />
    <glyph glyph-name="smallA" unicode="&#x1d00;" horiz-adv-x="675" 
d="M118 150h443l-222 474zM573 125h-467l-58 -125h-28l303 650h32l304 -650h-28z" />
    <glyph glyph-name="uni1D01" unicode="&#x1d01;" horiz-adv-x="925" 
d="M450 125h-344l-58 -125h-28l303 650h552v-25h-400v-287h300v-25h-300v-288h400v-25h-425v125zM118 150h332v475h-111z" />
    <glyph glyph-name="uni1D02" unicode="&#x1d02;" horiz-adv-x="1200" 
d="M475 505h344l58 125h28l-303 -650h-552v25h400v287h-300v25h300v288h-400v25h425v-125zM807 480h-332v-475h111z" />
    <glyph glyph-name="smallB" unicode="&#x1d03;" horiz-adv-x="650" 
d="M100 651h25v-1h270q66 -1 113 -47q47 -48 47 -115q0 -68 -47 -115q-23 -23 -50 -35q33 -12 60 -39q51 -51 51 -124q0 -72 -51 -123q-52 -52 -123 -52h-295v651zM125 325v-300h270q61 0 105 44t44 106t-44 106t-105 44h-270zM125 625v-275h270q55 1 95 41t40 97
q0 56 -40 97q-40 39 -95 40h-270z" />
    <glyph glyph-name="smallC" unicode="&#x1d04;" horiz-adv-x="700" 
d="M625 90l17 -18q-101 -97 -242 -97q-145 0 -247.5 102.5t-102.5 247.5t102.5 247.5t247.5 102.5t248 -102q1 -2 3 -4l-18 -17l-3 3q-95 95 -230 95t-230 -95t-95 -230t95 -230t230 -95q132 0 225 90z" />
    <glyph glyph-name="smallD" unicode="&#x1d05;" horiz-adv-x="700" 
d="M325 650q135 0 230 -95t95 -230t-95 -230t-230 -95h-225v650h225zM325 25q124 0 212 88t88 212t-88 212t-212 88h-200v-600h200z" />
    <glyph glyph-name="smallEth" unicode="&#x1d06;" horiz-adv-x="700" 
d="M325 650q135 0 230 -95t95 -230t-95 -230t-230 -95h-225v312h-76v25h76v313h225zM325 25q124 0 212 88t88 212t-88 212t-212 88h-200v-288h149v-25h-149v-287h200z" />
    <glyph glyph-name="smallE" unicode="&#x1d07;" horiz-adv-x="575" 
d="M100 650h425v-25h-400v-287h300v-25h-300v-288h400v-25h-425v650z" />
    <glyph glyph-name="smallturnedopene" unicode="&#x1d08;" horiz-adv-x="700" 
d="M475 17h-425v25h400v287h-300v25h300v288h-400v25h425v-650z" />
    <glyph glyph-name="smallI" unicode="&#x1d09;" horiz-adv-x="250" 
d="M151 650v-650h-25v650h25z" />
    <glyph glyph-name="smallJ" unicode="&#x1d0a;" horiz-adv-x="300" 
d="M199 200h1q0 -83 -58.5 -141.5t-141.5 -58.5v25q72 0 123.5 51.5t51.5 123.5h-1v450h25v-450z" />
    <glyph glyph-name="smallK" unicode="&#x1d0b;" horiz-adv-x="550" 
d="M125 650v-650h-25v650h25zM257 325l236 -325h-31l-236 325l236 325h31z" />
    <glyph glyph-name="smallL" unicode="&#x1d0c;" horiz-adv-x="500" 
d="M100 650h25v-625h350v-25h-375v650z" />
    <glyph glyph-name="smallM" unicode="&#x1d0d;" horiz-adv-x="850" 
d="M125 617v-616h-25v650h32l294 -405l293 405h32v-650h-25v616l-284 -392h-33z" />
    <glyph glyph-name="smallNrev" unicode="&#x1d0e;" horiz-adv-x="650" 
d="M576 646v-646h-25v611l-444 -611h-32v650h25v-616l447 616h32z" />
    <glyph glyph-name="smallO" unicode="&#x1d0f;" horiz-adv-x="800" 
d="M647.5 572.5q102.5 -102.5 102.5 -247.5t-102.5 -247.5t-247.5 -102.5t-247.5 102.5t-102.5 247.5t102.5 247.5t247.5 102.5t247.5 -102.5zM400 650q-135 0 -230 -95t-95 -230t95 -230t230 -95t230 95t95 230t-95 230t-230 95z" />
    <glyph glyph-name="smallCrev" unicode="&#x1d10;" horiz-adv-x="500" 
d="M75 90l-17 -18q101 -97 242 -97q145 0 247.5 102.5t102.5 247.5t-102.5 247.5t-247.5 102.5t-248 -102q-1 -2 -3 -4l18 -17l3 3q95 95 230 95t230 -95t95 -230t-95 -230t-230 -95q-132 0 -225 90z" />
    <glyph glyph-name="uni1D14" unicode="&#x1d14;" horiz-adv-x="1200" 
d="M522 32q78 -53 179 -53q135 0 230 95t95 230t-95 230t-230 95q-101 0 -179 -53q13 -11 26 -25q103 -102 103 -247t-103 -248q-13 -13 -26 -24zM376 316h250q-4 127 -95 218q-15 15 -30 27q-15 -12 -30 -27q-91 -91 -95 -218zM376 291q5 -127 95 -217q15 -15 30 -27
q15 12 30 27q90 90 95 217h-250zM480 32q-13 11 -27 24q-97 98 -102 235h-175v25h175q4 137 102 235q14 14 27 25q-78 53 -179 53q-132 0 -225 -90l-17 18q101 97 242 97q113 0 200 -62q87 62 200 62q145 0 247.5 -102.5t102.5 -247.5t-102.5 -247.5t-247.5 -102.5
q-113 0 -200 62q-87 -62 -200 -62q-145 0 -248 102q-1 2 -3 4l18 17l3 -3q95 -95 230 -95q101 0 179 53z" />
    <glyph glyph-name="uni1D16" unicode="&#x1d16;" horiz-adv-x="800" 
d="M75 325h-25q0 145 102.5 247.5t247.5 102.5t247.5 -102.5t102.5 -247.5h-25q0 135 -95 230t-230 95t-230 -95t-95 -230z" />
    <glyph glyph-name="uni1D17" unicode="&#x1d17;" horiz-adv-x="800" 
d="M725 325h25q0 -145 -102.5 -247.5t-247.5 -102.5t-247.5 102.5t-102.5 247.5h25q0 -135 95 -230t230 -95t230 95t95 230z" />
    <glyph glyph-name="smallP" unicode="&#x1d18;" horiz-adv-x="625" 
d="M125 625v-450h200q93 0 159 66t66 159t-66 159t-159 66h-200zM100 650h225q104 0 177 -73t73 -177t-73 -177t-177 -73h-200v-150h-25v650z" />
    <glyph glyph-name="smallRrev" unicode="&#x1d19;" horiz-adv-x="650" 
d="M125 625v-450h200q93 0 159 66t66 159t-66 159t-159 66h-200zM100 650h225q104 0 177 -73t73 -177t-73 -177q-36 -36 -79 -54l98 -169h-30l-93 160q-34 -10 -73 -10h-200v-150h-25v650z" />
    <glyph glyph-name="smallRturn" unicode="&#x1d1a;" horiz-adv-x="650" 
d="M525 25v450h-200q-93 0 -159 -66t-66 -159t66 -159t159 -66h200zM550 0h-225q-104 0 -177 73t-73 177t73 177q36 36 79 54l-98 169h30l93 -160q34 10 73 10h200v150h25v-650z" />
    <glyph glyph-name="smallT" unicode="&#x1d1b;" horiz-adv-x="425" 
d="M425 650v-25h-200v-625h-25v625h-200v25h425z" />
    <glyph glyph-name="smallU" unicode="&#x1d1c;" horiz-adv-x="700" 
d="M575 225v425h25v-425q0 -104 -73 -177t-177 -73t-177 73t-73 177v425h25v-425q0 -93 66 -159t159 -66t159 66t66 159z" />
    <glyph glyph-name="smallV" unicode="&#x1d20;" horiz-adv-x="500" 
d="M237 0l-236 650h28l223 -613l222 613h28l-236 -650h-29z" />
    <glyph glyph-name="smallW" unicode="&#x1d21;" 
d="M237 0l-236 650h28l223 -613l222 613h30l223 -613l222 613h28l-236 -650h-29l-223 614l-223 -614h-29z" />
    <glyph glyph-name="smallZ" unicode="&#x1d22;" horiz-adv-x="625" 
d="M542 625h-516v25h550v-25l-516 -600h516v-25h-550v25z" />
    <glyph glyph-name="uni1D23" unicode="&#x1d23;" horiz-adv-x="675" 
d="M452 625h-330v25h365v-25l-194 -250h7q83 0 141.5 -58.5t58.5 -141.5t-58.5 -141.5t-141.5 -58.5t-141.5 58.5t-58.5 141.5h25q0 -72 51 -123.5t124 -51.5q72 0 123.5 51.5t51.5 123.5q0 73 -51.5 124t-123.5 51q-13 0 -25 -2v2l-19 17z" />
    <glyph glyph-name="smallS" unicode="&#x1d24;" horiz-adv-x="600" 
d="M512 244q24 -40 24 -87q0 -21 -5 -43q-17 -73 -79 -111q-47 -26 -100 -34q-29 -4 -57 -4q-113 0 -215 59q-3 2 -5 3l15 21l4 -4q96 -53 203 -53q25 0 52 3q45 5 91 30q52 33 66 96q5 20 5 38q0 39 -20 73q-30 49 -97 69l-169 40v-1q-82 23 -119 79q-27 39 -27 88
q0 19 4 40q17 65 69.5 101t136.5 38h7q131 0 230 -68q1 -2 4 -4l-19 -18q0 2 -2 5q-92 60 -212 60h-8q-77 -2 -122.5 -33.5t-59.5 -85.5q-4 -19 -4 -36q0 -41 24 -74q33 -47 103 -68v1l171 -40q76 -21 111 -80z" />
    <glyph glyph-name="smallGAMMA" unicode="&#x1d26;" horiz-adv-x="500" 
d="M125 625v-625h-25v650h375v-25h-350z" />
    <glyph glyph-name="smallLAMDA" unicode="&#x1d27;" horiz-adv-x="500" 
d="M265 650l236 -650h-28l-223 613l-222 -613h-28l236 650h29z" />
    <glyph glyph-name="smallPI" unicode="&#x1d28;" horiz-adv-x="650" 
d="M125 624v-624h-25v649h450v-649h-25v624h-400z" />
    <glyph glyph-name="smallRHO" unicode="&#x1d29;" horiz-adv-x="625" 
d="M125 625v-450h200q93 0 159 66t66 159t-66 159t-159 66h-200zM100 650h225q104 0 177 -73t73 -177t-73 -177t-177 -73h-200v-150h-25v650z" />
    <glyph glyph-name="smallPSI" unicode="&#x1d2a;" horiz-adv-x="750" 
d="M674 455v195h25v-195q0 -135 -95 -230q-91 -91 -218 -95v-131h-25v131q-127 5 -217 95q-95 95 -95 230v195h25v-195q0 -124 88 -212q83 -83 199 -88v494h25v-494q116 4 200 88q88 88 88 212z" />
    <glyph glyph-name="smallEL" unicode="&#x1d2b;" horiz-adv-x="725" 
d="M625 0h-25v624h-400v-424q0 -83 -58.5 -141.5t-141.5 -58.5v25q72 0 123.5 51.5t51.5 123.5v449h450v-649z" />
    <glyph glyph-name="uni1E00" unicode="&#x1e00;" horiz-adv-x="825" 
d="M710 160l-298 639l-298 -639h596zM428 825l385 -825h-28l-63 135h-620l-63 -135h-28l385 825h32zM474.5 -76.5q25.5 -25.5 25.5 -61.5q0 -37 -25.5 -62.5t-61.5 -25.5q-37 0 -62.5 25.5t-25.5 62.5q0 36 25.5 61.5t62.5 25.5q36 0 61.5 -25.5zM413 -76q-26 0 -44.5 -18.5
t-18.5 -43.5q0 -26 18.5 -44.5t44.5 -18.5q25 0 43.5 18.5t18.5 44.5q0 25 -18.5 43.5t-43.5 18.5z" />
    <glyph glyph-name="uni1E01" unicode="&#x1e01;" horiz-adv-x="675" 
d="M118 150h443l-222 474zM573 125h-467l-58 -125h-28l303 650h32l304 -650h-28zM401.5 -175.5q25.5 -25.5 25.5 -61.5q0 -37 -25.5 -62.5t-61.5 -25.5q-37 0 -62.5 25.5t-25.5 62.5q0 36 25.5 61.5t62.5 25.5q36 0 61.5 -25.5zM340 -175q-26 0 -44.5 -18.5t-18.5 -43.5
q0 -26 18.5 -44.5t44.5 -18.5q25 0 43.5 18.5t18.5 44.5q0 25 -18.5 43.5t-43.5 18.5z" />
    <glyph glyph-name="uni1E02" unicode="&#x1e02;" horiz-adv-x="750" 
d="M125 800v-375h325q77 0 132 55t55 133q0 77 -55 132t-132 55h-325zM125 400v-375h350q77 0 132 55t55 133q0 77 -55 132t-132 55h-350zM100 825h350q88 0 150 -62t62 -150q0 -89 -62 -151q-30 -30 -65 -45q50 -14 90 -54q62 -62 62 -150q0 -89 -62 -151t-150 -62h-375
v825zM406 1025v-75h-25v75h25z" />
    <glyph glyph-name="uni1E03" unicode="&#x1e03;" horiz-adv-x="625" 
d="M100 650h295q66 -1 113 -47q47 -48 47 -115q0 -68 -47 -115q-23 -23 -50 -35q33 -12 60 -39q51 -51 51 -124q0 -72 -51 -123q-52 -52 -123 -52h-295v650zM125 325v-300h270q61 0 105 44t44 106t-44 106t-105 44h-270zM125 625v-275h270q55 1 95 41t40 97q0 56 -40 97
q-40 39 -95 40h-270zM360 850v-75h-25v75h25z" />
    <glyph glyph-name="uni1E04" unicode="&#x1e04;" horiz-adv-x="750" 
d="M125 800v-375h325q77 0 132 55t55 133q0 77 -55 132t-132 55h-325zM125 400v-375h350q77 0 132 55t55 133q0 77 -55 132t-132 55h-350zM100 825h350q88 0 150 -62t62 -150q0 -89 -62 -151q-30 -30 -65 -45q50 -14 90 -54q62 -62 62 -150q0 -89 -62 -151t-150 -62h-375
v825zM406 -100v-75h-25v75h25z" />
    <glyph glyph-name="uni1E05" unicode="&#x1e05;" horiz-adv-x="625" 
d="M100 650h295q66 -1 113 -47q47 -48 47 -115q0 -68 -47 -115q-23 -23 -50 -35q33 -12 60 -39q51 -51 51 -124q0 -72 -51 -123q-52 -52 -123 -52h-295v650zM125 325v-300h270q61 0 105 44t44 106t-44 106t-105 44h-270zM125 625v-275h270q55 1 95 41t40 97q0 56 -40 97
q-40 39 -95 40h-270zM347 -100v-75h-25v75h25z" />
    <glyph glyph-name="uni1E06" unicode="&#x1e06;" horiz-adv-x="750" 
d="M125 800v-375h325q77 0 132 55t55 133q0 77 -55 132t-132 55h-325zM125 400v-375h350q77 0 132 55t55 133q0 77 -55 132t-132 55h-350zM100 825h350q88 0 150 -62t62 -150q0 -89 -62 -151q-30 -30 -65 -45q50 -14 90 -54q62 -62 62 -150q0 -89 -62 -151t-150 -62h-375
v825zM519 -125v-25h-250v25h250z" />
    <glyph glyph-name="uni1E07" unicode="&#x1e07;" horiz-adv-x="625" 
d="M100 650h295q66 -1 113 -47q47 -48 47 -115q0 -68 -47 -115q-23 -23 -50 -35q33 -12 60 -39q51 -51 51 -124q0 -72 -51 -123q-52 -52 -123 -52h-295v650zM125 325v-300h270q61 0 105 44t44 106t-44 106t-105 44h-270zM125 625v-275h270q55 1 95 41t40 97q0 56 -40 97
q-40 39 -95 40h-270zM460 -125v-25h-250v25h250z" />
    <glyph glyph-name="uni1E08" unicode="&#x1e08;" horiz-adv-x="875" 
d="M366 -9q-105 29 -188 112q-128 128 -128 310q0 181 128 309t310 128q181 0 309 -128l4 -4l-19 -17l-3 3q-121 121 -291 121q-171 0 -292 -121t-121 -291q0 -171 121 -292t292 -121q170 0 291 121l7 7l19 -17l-8 -8q-128 -128 -309 -128q-51 0 -97 10v-85h25
q52 0 88.5 -36.5t36.5 -88.5t-36.5 -88.5t-88.5 -36.5h-100v25h100q41 0 70.5 29.5t29.5 70.5t-29.5 70.5t-70.5 29.5h-50v116zM451 950l47 175h27l-47 -175h-27z" />
    <glyph glyph-name="uni1E09" unicode="&#x1e09;" horiz-adv-x="700" 
d="M288 -8q-75 25 -135 86q-103 102 -103 247t102.5 247.5t247.5 102.5t248 -102q1 -2 3 -4l-18 -17l-3 3q-95 95 -230 95t-230 -95t-95 -230t95 -230t230 -95q132 0 225 90l17 -18q-101 -97 -242 -97q-46 0 -87 10v-85h25q52 0 88.5 -36.5t36.5 -88.5t-36.5 -88.5
t-88.5 -36.5h-100v25h100q41 0 70.5 29.5t29.5 70.5t-29.5 70.5t-70.5 29.5h-50v117zM326 775l47 175h27l-47 -175h-27z" />
    <glyph glyph-name="uni1E0A" unicode="&#x1e0a;" horiz-adv-x="900" 
d="M125 800v-776h299v1q161 0 274 114q113 113 113 273q0 161 -113 275q-113 113 -274 113h-299zM100 825h324q171 0 291 -121q121 -121 121 -292q0 -170 -121 -291q-120 -121 -290 -121v-1h-325v826zM451 1025v-75h-25v75h25z" />
    <glyph glyph-name="uni1E0B" unicode="&#x1e0b;" horiz-adv-x="700" 
d="M325 650q135 0 230 -95t95 -230t-95 -230t-230 -95h-225v650h225zM325 25q124 0 212 88t88 212t-88 212t-212 88h-200v-600h200zM375 850v-75h-25v75h25z" />
    <glyph glyph-name="uni1E0C" unicode="&#x1e0c;" horiz-adv-x="900" 
d="M125 800v-776h299v1q161 0 274 114q113 113 113 273q0 161 -113 275q-113 113 -274 113h-299zM100 825h324q171 0 291 -121q121 -121 121 -292q0 -170 -121 -291q-120 -121 -290 -121v-1h-325v826zM481 -100v-75h-25v75h25z" />
    <glyph glyph-name="uni1E0D" unicode="&#x1e0d;" horiz-adv-x="700" 
d="M325 650q135 0 230 -95t95 -230t-95 -230t-230 -95h-225v650h225zM325 25q124 0 212 88t88 212t-88 212t-212 88h-200v-600h200zM388 -100v-75h-25v75h25z" />
    <glyph glyph-name="uni1E0E" unicode="&#x1e0e;" horiz-adv-x="900" 
d="M125 800v-776h299v1q161 0 274 114q113 113 113 273q0 161 -113 275q-113 113 -274 113h-299zM100 825h324q171 0 291 -121q121 -121 121 -292q0 -170 -121 -291q-120 -121 -290 -121v-1h-325v826zM593 -125v-25h-250v25h250z" />
    <glyph glyph-name="uni1E0F" unicode="&#x1e0f;" horiz-adv-x="700" 
d="M325 650q135 0 230 -95t95 -230t-95 -230t-230 -95h-225v650h225zM325 25q124 0 212 88t88 212t-88 212t-212 88h-200v-600h200zM500 -125v-25h-250v25h250z" />
    <glyph glyph-name="uni1E10" unicode="&#x1e10;" horiz-adv-x="900" 
d="M125 800v-776h299v1q161 0 274 114q113 113 113 273q0 161 -113 275q-113 113 -274 113h-299zM350 -1h-250v826h324q171 0 291 -121q121 -121 121 -292q0 -170 -121 -291q-120 -121 -290 -121v-1h-50v-99h25q52 0 88.5 -36.5t36.5 -88.5t-36.5 -88.5t-88.5 -36.5h-100v25
h100q41 0 70.5 29.5t29.5 70.5t-29.5 70.5t-70.5 29.5h-50v124z" />
    <glyph glyph-name="uni1E11" unicode="&#x1e11;" horiz-adv-x="700" 
d="M325 650q135 0 230 -95t95 -230t-95 -230t-230 -95h-225v650h225zM325 25q124 0 212 88t88 212t-88 212t-212 88h-200v-600h200zM363 -350h-100v25h100q41 0 70.5 29.5t29.5 70.5t-29.5 70.5t-70.5 29.5h-50v125h25v-100h25q52 0 88.5 -36.5t36.5 -88.5t-36.5 -88.5
t-88.5 -36.5z" />
    <glyph glyph-name="uni1E12" unicode="&#x1e12;" horiz-adv-x="900" 
d="M125 800v-776h299v1q161 0 274 114q113 113 113 273q0 161 -113 275q-113 113 -274 113h-299zM100 825h324q171 0 291 -121q121 -121 121 -292q0 -170 -121 -291q-120 -121 -290 -121v-1h-325v826zM580 -274l-111 112l-112 -112h-36l148 147l147 -147h-36z" />
    <glyph glyph-name="uni1E13" unicode="&#x1e13;" horiz-adv-x="700" 
d="M325 650q135 0 230 -95t95 -230t-95 -230t-230 -95h-225v650h225zM325 25q124 0 212 88t88 212t-88 212t-212 88h-200v-600h200zM487 -274l-111 112l-112 -112h-36l148 147l147 -147h-36z" />
    <glyph glyph-name="uni1E18" unicode="&#x1e18;" horiz-adv-x="625" 
d="M100 825h475v-25h-450v-375h350v-25h-350v-375h450v-25h-475v825zM463 -274l-111 112l-112 -112h-36l148 147l147 -147h-36z" />
    <glyph glyph-name="uni1E19" unicode="&#x1e19;" horiz-adv-x="575" 
d="M100 650h425v-25h-400v-287h300v-25h-300v-288h400v-25h-425v650zM424 -274l-111 112l-112 -112h-36l148 147l147 -147h-36z" />
    <glyph glyph-name="uni1E1A" unicode="&#x1e1a;" horiz-adv-x="625" 
d="M100 825h475v-25h-450v-375h350v-25h-350v-375h450v-25h-475v825zM500 -152v-25q-46 -19 -92 -19q-35 0 -70 11q-36 11 -71 11q-46 0 -92 -19v25q46 19 92 19q35 0 71 -11q35 -11 70 -11q46 0 92 19z" />
    <glyph glyph-name="uni1E1B" unicode="&#x1e1b;" horiz-adv-x="575" 
d="M100 650h425v-25h-400v-287h300v-25h-300v-288h400v-25h-425v650zM475 -152v-25q-46 -19 -92 -19q-35 0 -70 11q-36 11 -71 11q-46 0 -92 -19v25q46 19 92 19q35 0 71 -11q35 -11 70 -11q46 0 92 19z" />
    <glyph glyph-name="uni1E1C" unicode="&#x1e1c;" horiz-adv-x="625" 
d="M276 0h-176v825h475v-25h-450v-375h350v-25h-350v-375h450v-25h-274v-100h25q52 0 88.5 -36.5t36.5 -88.5t-36.5 -88.5t-88.5 -36.5h-100v25h100q41 0 70.5 29.5t29.5 70.5t-29.5 70.5t-70.5 29.5h-50v125zM460 1050h28q-12 -29 -35 -52q-48 -48 -115 -48q-68 0 -115 48
q-24 23 -36 52h28q10 -19 26 -34q40 -41 97 -41q56 0 97 41q15 15 25 34z" />
    <glyph glyph-name="uni1E1D" unicode="&#x1e1d;" horiz-adv-x="575" 
d="M250 0h-150v650h425v-25h-400v-287h300v-25h-300v-288h400v-25h-250v-100h25q52 0 88.5 -36.5t36.5 -88.5t-36.5 -88.5t-88.5 -36.5h-100v25h100q41 0 70.5 29.5t29.5 70.5t-29.5 70.5t-70.5 29.5h-50v125zM435 875h28q-12 -29 -35 -52q-48 -48 -115 -48q-68 0 -115 48
q-24 23 -36 52h28q10 -19 26 -34q40 -41 97 -41q56 0 97 41q15 15 25 34z" />
    <glyph glyph-name="Fdot" unicode="&#x1e1e;" horiz-adv-x="600" 
d="M100 825h475v-25h-450v-375h350v-25h-350v-400h-25v825zM350 1025v-75h-25v75h25z" />
    <glyph glyph-name="fdot" unicode="&#x1e1f;" horiz-adv-x="575" 
d="M100 650h425v-25h-400v-287h300v-25h-300v-313h-25v650zM325 850v-75h-25v75h25z" />
    <glyph glyph-name="uni1E20" unicode="&#x1e20;" horiz-adv-x="875" 
d="M797 103q-128 -128 -309 -128q-182 0 -310 128t-128 310q0 181 128 309t310 128q181 0 309 -128l-18 -18q-121 121 -291 121q-171 0 -292 -121t-121 -291q0 -171 121 -292t292 -121q165 0 284 114v286h-300v25h325v-322zM575 1000v-25h-250v25h250z" />
    <glyph glyph-name="uni1E21" unicode="&#x1e21;" horiz-adv-x="700" 
d="M642 72q-101 -97 -242 -97q-145 0 -247.5 102.5t-102.5 247.5t102.5 247.5t247.5 102.5t248 -102q1 -2 3 -4l-18 -17l-3 3q-95 95 -230 95t-230 -95t-95 -230t95 -230t230 -95q126 0 217 82v243h-250v25h275v-278zM500 825v-25h-250v25h250z" />
    <glyph glyph-name="uni1E22" unicode="&#x1e22;" horiz-adv-x="875" 
d="M125 400v-400h-25v825h25v-400h625v400h25v-825h-25v400h-625zM450 1025v-75h-25v75h25z" />
    <glyph glyph-name="uni1E23" unicode="&#x1e23;" horiz-adv-x="725" 
d="M125 326v-326h-25v650h25v-299h475v299h25v-650h-25v326h-475zM375 850v-75h-25v75h25z" />
    <glyph glyph-name="uni1E24" unicode="&#x1e24;" horiz-adv-x="875" 
d="M125 400v-400h-25v825h25v-400h625v400h25v-825h-25v400h-625zM450 -100v-75h-25v75h25z" />
    <glyph glyph-name="uni1E25" unicode="&#x1e25;" horiz-adv-x="725" 
d="M125 326v-326h-25v650h25v-299h475v299h25v-650h-25v326h-475zM375 -100v-75h-25v75h25z" />
    <glyph glyph-name="uni1E26" unicode="&#x1e26;" horiz-adv-x="875" 
d="M125 400v-400h-25v825h25v-400h625v400h25v-825h-25v400h-625zM351 950v75h25v-75h-25zM500 950v75h25v-75h-25z" />
    <glyph glyph-name="uni1E27" unicode="&#x1e27;" horiz-adv-x="725" 
d="M125 326v-326h-25v650h25v-299h475v299h25v-650h-25v326h-475zM275 751v75h25v-75h-25zM424 751v75h25v-75h-25z" />
    <glyph glyph-name="uni1E28" unicode="&#x1e28;" horiz-adv-x="875" 
d="M100 825h25v-400h625v400h25v-825h-25v400h-625v-500h25q52 0 88.5 -36.5t36.5 -88.5t-36.5 -88.5t-88.5 -36.5h-100v25h100q41 0 70.5 29.5t29.5 70.5t-29.5 70.5t-70.5 29.5h-50v950z" />
    <glyph glyph-name="uni1E29" unicode="&#x1e29;" horiz-adv-x="725" 
d="M100 650h25v-299h475v299h25v-650h-25v326h-475v-426h25q52 0 88.5 -36.5t36.5 -88.5t-36.5 -88.5t-88.5 -36.5h-100v25h100q41 0 70.5 29.5t29.5 70.5t-29.5 70.5t-70.5 29.5h-50v775z" />
    <glyph glyph-name="uni1E2A" unicode="&#x1e2a;" horiz-adv-x="875" 
d="M125 400v-400h-25v825h25v-400h625v400h25v-825h-25v400h-625zM560 -74h28q-12 -29 -35 -52q-48 -48 -115 -48q-68 0 -115 48q-24 23 -36 52h28q10 -19 26 -34q40 -41 97 -41q56 0 97 41q15 15 25 34z" />
    <glyph glyph-name="uni1E2B" unicode="&#x1e2b;" horiz-adv-x="725" 
d="M125 326v-326h-25v650h25v-299h475v299h25v-650h-25v326h-475zM485 -74h28q-12 -29 -35 -52q-48 -48 -115 -48q-68 0 -115 48q-24 23 -36 52h28q10 -19 26 -34q40 -41 97 -41q56 0 97 41q15 15 25 34z" />
    <glyph glyph-name="uni1E2C" unicode="&#x1e2c;" horiz-adv-x="225" 
d="M125 825v-825h-25v825h25zM275 -152v-25q-46 -19 -92 -19q-35 0 -70 11q-36 11 -71 11q-46 0 -92 -19v25q46 19 92 19q35 0 71 -11q35 -11 70 -11q46 0 92 19z" />
    <glyph glyph-name="uni1E2D" unicode="&#x1e2d;" horiz-adv-x="225" 
d="M125 650v-650h-25v650h25zM275 -152v-25q-46 -19 -92 -19q-35 0 -70 11q-36 11 -71 11q-46 0 -92 -19v25q46 19 92 19q35 0 71 -11q35 -11 70 -11q46 0 92 19z" />
    <glyph glyph-name="uni1E30" unicode="&#x1e30;" horiz-adv-x="625" 
d="M125 825v-825h-25v825h25zM257 413l299 -413h-32l-299 413l299 412h32zM300 900l47 175h27l-47 -175h-27z" />
    <glyph glyph-name="uni1E31" unicode="&#x1e31;" horiz-adv-x="550" 
d="M125 650v-650h-25v650h25zM257 325l236 -325h-31l-236 325l236 325h31zM275 775l47 175h27l-47 -175h-27z" />
    <glyph glyph-name="uni1E32" unicode="&#x1e32;" horiz-adv-x="625" 
d="M125 825v-825h-25v825h25zM257 413l299 -413h-32l-299 413l299 412h32zM341 -100v-75h-25v75h25z" />
    <glyph glyph-name="uni1E33" unicode="&#x1e33;" horiz-adv-x="550" 
d="M125 650v-650h-25v650h25zM257 325l236 -325h-31l-236 325l236 325h31zM309 -100v-75h-25v75h25z" />
    <glyph glyph-name="uni1E34" unicode="&#x1e34;" horiz-adv-x="625" 
d="M125 825v-825h-25v825h25zM257 413l299 -413h-32l-299 413l299 412h32zM453 -125v-25h-250v25h250z" />
    <glyph glyph-name="uni1E35" unicode="&#x1e35;" horiz-adv-x="550" 
d="M125 650v-650h-25v650h25zM257 325l236 -325h-31l-236 325l236 325h31zM422 -125v-25h-250v25h250z" />
    <glyph glyph-name="uni1E36" unicode="&#x1e36;" horiz-adv-x="550" 
d="M100 825h25v-800h450v-25h-475v825zM350 -100v-75h-25v75h25z" />
    <glyph glyph-name="uni1E37" unicode="&#x1e37;" horiz-adv-x="500" 
d="M100 650h25v-625h350v-25h-375v650zM300 -100v-75h-25v75h25z" />
    <glyph glyph-name="uni1E3A" unicode="&#x1e3a;" horiz-adv-x="550" 
d="M100 825h25v-800h450v-25h-475v825zM463 -125v-25h-250v25h250z" />
    <glyph glyph-name="uni1E3B" unicode="&#x1e3b;" horiz-adv-x="500" 
d="M100 650h25v-625h350v-25h-375v650zM413 -125v-25h-250v25h250z" />
    <glyph glyph-name="uni1E3C" unicode="&#x1e3c;" horiz-adv-x="550" 
d="M100 825h25v-800h450v-25h-475v825zM449 -274l-111 112l-112 -112h-36l148 147l147 -147h-36z" />
    <glyph glyph-name="uni1E3D" unicode="&#x1e3d;" horiz-adv-x="500" 
d="M100 650h25v-625h350v-25h-375v650zM399 -274l-111 112l-112 -112h-36l148 147l147 -147h-36z" />
    <glyph glyph-name="uni1E3E" unicode="&#x1e3e;" horiz-adv-x="1025" 
d="M125 791v-791h-25v825h32l384 -529l384 529h32v-825h-25v791l-374 -516h-34zM491 825l47 175h27l-47 -175h-27z" />
    <glyph glyph-name="uni1E3F" unicode="&#x1e3f;" horiz-adv-x="850" 
d="M125 615v-616h-25v650h32l294 -405l293 405h32v-650h-25v616l-284 -392h-33zM401 775l47 175h27l-47 -175h-27z" />
    <glyph glyph-name="uni1E40" unicode="&#x1e40;" horiz-adv-x="1025" 
d="M125 791v-791h-25v825h32l384 -529l384 529h32v-825h-25v791l-374 -516h-34zM529 1025v-75h-25v75h25z" />
    <glyph glyph-name="uni1E41" unicode="&#x1e41;" horiz-adv-x="850" 
d="M125 615v-616h-25v650h32l294 -405l293 405h32v-650h-25v616l-284 -392h-33zM438 850v-75h-25v75h25z" />
    <glyph glyph-name="uni1E42" unicode="&#x1e42;" horiz-adv-x="1025" 
d="M125 791v-791h-25v825h32l384 -529l384 529h32v-825h-25v791l-374 -516h-34zM525 0v-75h-25v75h25z" />
    <glyph glyph-name="uni1E43" unicode="&#x1e43;" horiz-adv-x="850" 
d="M125 615v-616h-25v650h32l294 -405l293 405h32v-650h-25v616l-284 -392h-33zM438 -100v-75h-25v75h25z" />
    <glyph glyph-name="uni1E44" unicode="&#x1e44;" horiz-adv-x="832" 
d="M125 791v-791h-25v825h32l574 -791v791h25v-825h-32zM428 1025v-75h-25v75h25z" />
    <glyph glyph-name="uni1E45" unicode="&#x1e45;" horiz-adv-x="700" 
d="M129 650l447 -616v616h25v-650h-32l-444 611v-611h-25v650h29zM365 850v-75h-25v75h25z" />
    <glyph glyph-name="uni1E46" unicode="&#x1e46;" horiz-adv-x="832" 
d="M125 791v-791h-25v825h32l574 -791v791h25v-825h-32zM428 -100v-75h-25v75h25z" />
    <glyph glyph-name="uni1E47" unicode="&#x1e47;" horiz-adv-x="700" 
d="M129 650l447 -616v616h25v-650h-32l-444 611v-611h-25v650h29zM365 -100v-75h-25v75h25z" />
    <glyph glyph-name="uni1E48" unicode="&#x1e48;" horiz-adv-x="832" 
d="M125 791v-791h-25v825h32l574 -791v791h25v-825h-32zM541 -125v-25h-250v25h250z" />
    <glyph glyph-name="uni1E49" unicode="&#x1e49;" horiz-adv-x="700" 
d="M129 650l447 -616v616h25v-650h-32l-444 611v-611h-25v650h29zM477 -125v-25h-250v25h250z" />
    <glyph glyph-name="uni1E4A" unicode="&#x1e4a;" horiz-adv-x="832" 
d="M125 791v-791h-25v825h32l574 -791v791h25v-825h-32zM527 -201l-111 112l-112 -112h-36l148 147l147 -147h-36z" />
    <glyph glyph-name="uni1E4B" unicode="&#x1e4b;" horiz-adv-x="812" 
d="M129 650l447 -616v616h25v-650h-32l-444 611v-611h-25v650h29zM529 -198l-111 112l-112 -112h-36l148 147l147 -147h-36z" />
    <glyph glyph-name="uni1E54" unicode="&#x1e54;" horiz-adv-x="725" 
d="M125 800v-550h250q114 0 194.5 80.5t80.5 194.5t-80.5 194.5t-194.5 80.5h-250zM100 825h275q124 0 212 -88t88 -212t-88 -212t-212 -88h-250v-225h-25v825zM363 950l47 175h27l-47 -175h-27z" />
    <glyph glyph-name="uni1E55" unicode="&#x1e55;" horiz-adv-x="625" 
d="M125 625v-450h200q93 0 159 66t66 159t-66 159t-159 66h-200zM100 650h225q104 0 177 -73t73 -177t-73 -177t-177 -73h-200v-150h-25v650zM313 775l47 175h27l-47 -175h-27z" />
    <glyph glyph-name="uni1E56" unicode="&#x1e56;" horiz-adv-x="725" 
d="M125 800v-550h250q114 0 194.5 80.5t80.5 194.5t-80.5 194.5t-194.5 80.5h-250zM100 825h275q124 0 212 -88t88 -212t-88 -212t-212 -88h-250v-225h-25v825zM400 1025v-75h-25v75h25z" />
    <glyph glyph-name="uni1E57" unicode="&#x1e57;" horiz-adv-x="625" 
d="M125 625v-450h200q93 0 159 66t66 159t-66 159t-159 66h-200zM100 650h225q104 0 177 -73t73 -177t-73 -177t-177 -73h-200v-150h-25v650zM350 850v-75h-25v75h25z" />
    <glyph glyph-name="uni1E58" unicode="&#x1e58;" horiz-adv-x="775" 
d="M125 800v-550h275q114 0 194.5 80.5t80.5 194.5t-80.5 194.5t-194.5 80.5h-275zM100 825h300q124 0 212 -88t88 -212t-88 -212q-41 -41 -90 -63l144 -250h-30l-138 240q-46 -15 -98 -15h-275v-225h-25v825zM413 1025v-75h-25v75h25z" />
    <glyph glyph-name="uni1E59" unicode="&#x1e59;" horiz-adv-x="650" 
d="M125 625v-450h220q93 0 159 66t66 159t-66 159t-159 66h-220zM100 650h245q104 0 177 -73t73 -177t-73 -177q-36 -36 -79 -54l98 -169h-30l-93 160q-34 -10 -73 -10h-220v-150h-25v650zM350 850v-75h-25v75h25z" />
    <glyph glyph-name="uni1E5A" unicode="&#x1e5a;" horiz-adv-x="775" 
d="M125 800v-550h275q114 0 194.5 80.5t80.5 194.5t-80.5 194.5t-194.5 80.5h-275zM100 825h300q124 0 212 -88t88 -212t-88 -212q-41 -41 -90 -63l144 -250h-30l-138 240q-46 -15 -98 -15h-275v-225h-25v825zM413 -100v-75h-25v75h25z" />
    <glyph glyph-name="uni1E5B" unicode="&#x1e5b;" horiz-adv-x="650" 
d="M125 625v-450h220q93 0 159 66t66 159t-66 159t-159 66h-220zM100 650h245q104 0 177 -73t73 -177t-73 -177q-36 -36 -79 -54l98 -169h-30l-93 160q-34 -10 -73 -10h-220v-150h-25v650zM269 -100v-75h-25v75h25z" />
    <glyph glyph-name="uni1E5C" unicode="&#x1e5c;" horiz-adv-x="775" 
d="M125 800v-550h275q114 0 194.5 80.5t80.5 194.5t-80.5 194.5t-194.5 80.5h-275zM100 825h300q124 0 212 -88t88 -212t-88 -212q-41 -41 -90 -63l144 -250h-30l-138 240q-46 -15 -98 -15h-275v-225h-25v825zM525 950v-25h-250v25h250zM413 -100v-75h-25v75h25z" />
    <glyph glyph-name="uni1E5D" unicode="&#x1e5d;" horiz-adv-x="650" 
d="M125 625v-450h220q93 0 159 66t66 159t-66 159t-159 66h-220zM100 650h245q104 0 177 -73t73 -177t-73 -177q-36 -36 -79 -54l98 -169h-30l-93 160q-34 -10 -73 -10h-220v-150h-25v650zM463 775v-25h-250v25h250zM269 -100v-75h-25v75h25z" />
    <glyph glyph-name="uni1E5E" unicode="&#x1e5e;" horiz-adv-x="775" 
d="M125 800v-550h275q114 0 194.5 80.5t80.5 194.5t-80.5 194.5t-194.5 80.5h-275zM100 825h300q124 0 212 -88t88 -212t-88 -212q-41 -41 -90 -63l144 -250h-30l-138 240q-46 -15 -98 -15h-275v-225h-25v825zM525 -125v-25h-250v25h250z" />
    <glyph glyph-name="uni1E5F" unicode="&#x1e5f;" horiz-adv-x="650" 
d="M125 625v-450h220q93 0 159 66t66 159t-66 159t-159 66h-220zM100 650h245q104 0 177 -73t73 -177t-73 -177q-36 -36 -79 -54l98 -169h-30l-93 160q-34 -10 -73 -10h-220v-150h-25v650zM382 -125v-25h-250v25h250z" />
    <glyph glyph-name="Sdotabove" unicode="&#x1e60;" horiz-adv-x="700" 
d="M586 51q-81 -78 -199 -86q-14 -1 -28 -1q-137 0 -238 80q-58 53 -86 106l23 11q25 -49 80 -98q93 -74 219 -74q14 0 28 1q108 7 183 79q35 32 48 80q7 24 7 48q0 44 -24 86q-37 62 -107 80l-241 65q-90 24 -136 95q-31 47 -31 102q0 28 8 59q24 90 104 137q53 30 109 34
q19 2 38 2q92 0 176 -44q54 -32 101 -86l-21 -14q-43 50 -93 78q-79 41 -163 41q-18 0 -37 -2q-50 -4 -97 -31q-72 -42 -93 -122q-8 -28 -8 -53q0 -48 28 -88q41 -62 121 -84l242 -64q80 -22 122 -93q27 -47 27 -98q0 -26 -8 -54q-14 -56 -53 -93zM354 1025v-75h-25v75h25z
" />
    <glyph glyph-name="uni1E61" unicode="&#x1e61;" horiz-adv-x="625" 
d="M512 244q24 -40 24 -87q0 -21 -5 -43q-17 -73 -79 -111q-47 -26 -100 -34q-29 -4 -57 -4q-113 0 -215 59q-3 2 -5 3l15 21l4 -4q96 -53 203 -53q25 0 52 3q45 5 91 30q52 33 66 96q5 20 5 38q0 39 -20 73q-30 49 -97 69l-169 40v-1q-82 23 -119 79q-27 39 -27 88
q0 19 4 40q17 65 69.5 101t136.5 38h7q131 0 230 -68q1 -2 4 -4l-19 -18q0 2 -2 5q-92 60 -212 60h-8q-77 -2 -122.5 -33.5t-59.5 -85.5q-4 -19 -4 -36q0 -41 24 -74q33 -47 103 -68v1l171 -40q76 -21 111 -80zM343 850v-75h-25v75h25z" />
    <glyph glyph-name="Sdotbelow" unicode="&#x1e62;" horiz-adv-x="700" 
d="M586 51q-81 -78 -199 -86q-14 -1 -28 -1q-137 0 -238 80q-58 53 -86 106l23 11q25 -49 80 -98q93 -74 219 -74q14 0 28 1q108 7 183 79q35 32 48 80q7 24 7 48q0 44 -24 86q-37 62 -107 80l-241 65q-90 24 -136 95q-31 47 -31 102q0 28 8 59q24 90 104 137q53 30 109 34
q19 2 38 2q92 0 176 -44q54 -32 101 -86l-21 -14q-43 50 -93 78q-79 41 -163 41q-18 0 -37 -2q-50 -4 -97 -31q-72 -42 -93 -122q-8 -28 -8 -53q0 -48 28 -88q41 -62 121 -84l242 -64q80 -22 122 -93q27 -47 27 -98q0 -26 -8 -54q-14 -56 -53 -93zM354 -100v-75h-25v75h25z
" />
    <glyph glyph-name="uni1E63" unicode="&#x1e63;" horiz-adv-x="625" 
d="M512 244q24 -40 24 -87q0 -21 -5 -43q-17 -73 -79 -111q-47 -26 -100 -34q-29 -4 -57 -4q-113 0 -215 59q-3 2 -5 3l15 21l4 -4q96 -53 203 -53q25 0 52 3q45 5 91 30q52 33 66 96q5 20 5 38q0 39 -20 73q-30 49 -97 69l-169 40v-1q-82 23 -119 79q-27 39 -27 88
q0 19 4 40q17 65 69.5 101t136.5 38h7q131 0 230 -68q1 -2 4 -4l-19 -18q0 2 -2 5q-92 60 -212 60h-8q-77 -2 -122.5 -33.5t-59.5 -85.5q-4 -19 -4 -36q0 -41 24 -74q33 -47 103 -68v1l171 -40q76 -21 111 -80zM343 -100v-75h-25v75h25z" />
    <glyph glyph-name="uni1E68" unicode="&#x1e68;" horiz-adv-x="700" 
d="M586 51q-81 -78 -199 -86q-14 -1 -28 -1q-137 0 -238 80q-58 53 -86 106l23 11q25 -49 80 -98q93 -74 219 -74q14 0 28 1q108 7 183 79q35 32 48 80q7 24 7 48q0 44 -24 86q-37 62 -107 80l-241 65q-90 24 -136 95q-31 47 -31 102q0 28 8 59q24 90 104 137q53 30 109 34
q19 2 38 2q92 0 176 -44q54 -32 101 -86l-21 -14q-43 50 -93 78q-79 41 -163 41q-18 0 -37 -2q-50 -4 -97 -31q-72 -42 -93 -122q-8 -28 -8 -53q0 -48 28 -88q41 -62 121 -84l242 -64q80 -22 122 -93q27 -47 27 -98q0 -26 -8 -54q-14 -56 -53 -93zM354 1025v-75h-25v75h25z
M354 -100v-75h-25v75h25z" />
    <glyph glyph-name="uni1E69" unicode="&#x1e69;" horiz-adv-x="625" 
d="M512 244q24 -40 24 -87q0 -21 -5 -43q-17 -73 -79 -111q-47 -26 -100 -34q-29 -4 -57 -4q-113 0 -215 59q-3 2 -5 3l15 21l4 -4q96 -53 203 -53q25 0 52 3q45 5 91 30q52 33 66 96q5 20 5 38q0 39 -20 73q-30 49 -97 69l-169 40v-1q-82 23 -119 79q-27 39 -27 88
q0 19 4 40q17 65 69.5 101t136.5 38h7q131 0 230 -68q1 -2 4 -4l-19 -18q0 2 -2 5q-92 60 -212 60h-8q-77 -2 -122.5 -33.5t-59.5 -85.5q-4 -19 -4 -36q0 -41 24 -74q33 -47 103 -68v1l171 -40q76 -21 111 -80zM343 850v-75h-25v75h25zM343 -100v-75h-25v75h25z" />
    <glyph glyph-name="uni1E6A" unicode="&#x1e6a;" horiz-adv-x="525" 
d="M525 825v-25h-250v-800h-25v800h-250v25h525zM275 1025v-75h-25v75h25z" />
    <glyph glyph-name="uni1E6B" unicode="&#x1e6b;" horiz-adv-x="425" 
d="M425 650v-25h-200v-625h-25v625h-200v25h425zM225 850v-75h-25v75h25z" />
    <glyph glyph-name="uni1E6C" unicode="&#x1e6c;" horiz-adv-x="525" 
d="M525 825v-25h-250v-800h-25v800h-250v25h525zM275 -100v-75h-25v75h25z" />
    <glyph glyph-name="uni1E6D" unicode="&#x1e6d;" horiz-adv-x="425" 
d="M425 650v-25h-200v-625h-25v625h-200v25h425zM225 -100v-75h-25v75h25z" />
    <glyph glyph-name="uni1E6E" unicode="&#x1e6e;" horiz-adv-x="525" 
d="M525 825v-25h-250v-800h-25v800h-250v25h525zM388 -125v-25h-250v25h250z" />
    <glyph glyph-name="uni1E6F" unicode="&#x1e6f;" horiz-adv-x="425" 
d="M425 650v-25h-200v-625h-25v625h-200v25h425zM338 -125v-25h-250v25h250z" />
    <glyph glyph-name="uni1E71" unicode="&#x1e71;" horiz-adv-x="425" 
d="M425 650v-25h-200v-625h-25v625h-200v25h425zM324 -274l-111 112l-112 -112h-36l148 147l147 -147h-36z" />
    <glyph glyph-name="uni1E72" unicode="&#x1e72;" horiz-adv-x="800" 
d="M75 325v500h25v-500q0 -124 88 -212t212 -88t212 88t88 212v500h25v-500q0 -135 -95 -230t-230 -95t-230 95t-95 230zM313 -175v75h25v-75h-25zM462 -175v75h25v-75h-25z" />
    <glyph glyph-name="uni1E73" unicode="&#x1e73;" horiz-adv-x="850" 
d="M575 225v425h25v-425q0 -104 -73 -177t-177 -73t-177 73t-73 177v425h25v-425q0 -93 66 -159t159 -66t159 66t66 159zM200 -175v75h25v-75h-25zM349 -175v75h25v-75h-25z" />
    <glyph glyph-name="uni1E74" unicode="&#x1e74;" horiz-adv-x="800" 
d="M75 325v500h25v-500q0 -124 88 -212t212 -88t212 88t88 212v500h25v-500q0 -135 -95 -230t-230 -95t-230 95t-95 230zM563 -152v-25q-46 -19 -92 -19q-35 0 -70 11q-36 11 -71 11q-46 0 -92 -19v25q46 19 92 19q35 0 71 -11q35 -11 70 -11q46 0 92 19z" />
    <glyph glyph-name="uni1E75" unicode="&#x1e75;" horiz-adv-x="850" 
d="M575 225v425h25v-425q0 -104 -73 -177t-177 -73t-177 73t-73 177v425h25v-425q0 -93 66 -159t159 -66t159 66t66 159zM449 -152v-25q-46 -19 -92 -19q-35 0 -70 11q-36 11 -71 11q-46 0 -92 -19v25q46 19 92 19q35 0 71 -11q35 -11 70 -11q46 0 92 19z" />
    <glyph glyph-name="uni1E76" unicode="&#x1e76;" horiz-adv-x="800" 
d="M75 325v500h25v-500q0 -124 88 -212t212 -88t212 88t88 212v500h25v-500q0 -135 -95 -230t-230 -95t-230 95t-95 230zM512 -274l-111 112l-112 -112h-36l148 147l147 -147h-36z" />
    <glyph glyph-name="uni1E77" unicode="&#x1e77;" horiz-adv-x="850" 
d="M575 225v425h25v-425q0 -104 -73 -177t-177 -73t-177 73t-73 177v425h25v-425q0 -93 66 -159t159 -66t159 66t66 159zM398 -274l-111 112l-112 -112h-36l148 147l147 -147h-36z" />
    <glyph glyph-name="uni1E7E" unicode="&#x1e7e;" horiz-adv-x="625" 
d="M300 0l-300 825h27l290 -796l289 796h27l-300 -825h-33zM329 -100v-75h-25v75h25z" />
    <glyph glyph-name="uni1E7F" unicode="&#x1e7f;" horiz-adv-x="500" 
d="M237 0l-236 650h28l223 -613l222 613h28l-236 -650h-29zM264 -100v-75h-25v75h25z" />
    <glyph glyph-name="Wgrave" unicode="&#x1e80;" horiz-adv-x="1175" 
d="M587 616l-234 -616h-33l-310 825h27l300 -796l237 624h27l237 -624l299 796h27l-310 -825h-33zM599 825l-47 175h-27l47 -175h27z" />
    <glyph glyph-name="wgrave" unicode="&#x1e81;" 
d="M237 0l-236 650h28l223 -613l222 613h30l223 -613l222 613h28l-236 -650h-29l-223 614l-223 -614h-29zM499 775l-47 175h-27l47 -175h27z" />
    <glyph glyph-name="Wacute" unicode="&#x1e82;" horiz-adv-x="1175" 
d="M587 616l-234 -616h-33l-310 825h27l300 -796l237 624h27l237 -624l299 796h27l-310 -825h-33zM575 825l47 175h27l-47 -175h-27z" />
    <glyph glyph-name="wacute" unicode="&#x1e83;" 
d="M237 0l-236 650h28l223 -613l222 613h30l223 -613l222 613h28l-236 -650h-29l-223 614l-223 -614h-29zM475 775l47 175h27l-47 -175h-27z" />
    <glyph glyph-name="Wdieresis" unicode="&#x1e84;" horiz-adv-x="1175" 
d="M587 616l-234 -616h-33l-310 825h27l300 -796l237 624h27l237 -624l299 796h27l-310 -825h-33zM500 825v75h25v-75h-25zM649 825v75h25v-75h-25z" />
    <glyph glyph-name="wdieresis" unicode="&#x1e85;" 
d="M237 0l-236 650h28l223 -613l222 613h30l223 -613l222 613h28l-236 -650h-29l-223 614l-223 -614h-29zM402 775v75h25v-75h-25zM551 775v75h25v-75h-25z" />
    <glyph glyph-name="uni1E86" unicode="&#x1e86;" horiz-adv-x="1175" 
d="M587 616l-234 -616h-33l-310 825h27l300 -796l237 624h27l237 -624l299 796h27l-310 -825h-33zM600 900v-75h-25v75h25z" />
    <glyph glyph-name="uni1E87" unicode="&#x1e87;" 
d="M237 0l-236 650h28l223 -613l222 613h30l223 -613l222 613h28l-236 -650h-29l-223 614l-223 -614h-29zM502 850v-75h-25v75h25z" />
    <glyph glyph-name="uni1E88" unicode="&#x1e88;" horiz-adv-x="1175" 
d="M587 616l-234 -616h-33l-310 825h27l300 -796l237 624h27l237 -624l299 796h27l-310 -825h-33zM600 -100v-75h-25v75h25z" />
    <glyph glyph-name="uni1E89" unicode="&#x1e89;" 
d="M237 0l-236 650h28l223 -613l222 613h30l223 -613l222 613h28l-236 -650h-29l-223 614l-223 -614h-29zM502 -100v-75h-25v75h25z" />
    <glyph glyph-name="uni1E8A" unicode="&#x1e8a;" horiz-adv-x="700" 
d="M366 413l299 -413h-32l-283 390l-284 -390h-32l300 413l-300 412h32l284 -390l283 390h32zM362 1025v-75h-25v75h25z" />
    <glyph glyph-name="uni1E8B" unicode="&#x1e8b;" horiz-adv-x="525" 
d="M279 325l236 -325h-31l-220 304l-221 -304h-31l236 325l-236 325h31l221 -304l220 304h31zM276 850v-75h-25v75h25z" />
    <glyph glyph-name="uni1E8C" unicode="&#x1e8c;" horiz-adv-x="700" 
d="M366 413l299 -413h-32l-283 390l-284 -390h-32l300 413l-300 412h32l284 -390l283 390h32zM263 950v75h25v-75h-25zM412 950v75h25v-75h-25z" />
    <glyph glyph-name="uni1E8D" unicode="&#x1e8d;" horiz-adv-x="525" 
d="M279 325l236 -325h-31l-220 304l-221 -304h-31l236 325l-236 325h31l221 -304l220 304h31zM177 775v75h25v-75h-25zM326 775v75h25v-75h-25z" />
    <glyph glyph-name="uni1E8E" unicode="&#x1e8e;" horiz-adv-x="625" 
d="M325 306v-306h-25v306l-300 519h29l284 -491l283 491h29zM325 975v-75h-25v75h25z" />
    <glyph glyph-name="uni1E8F" unicode="&#x1e8f;" horiz-adv-x="575" 
d="M300 181v-181h-25v181l-271 469h29l255 -441l254 441h29zM300 850v-75h-25v75h25z" />
    <glyph glyph-name="uni1E90" unicode="&#x1e90;" horiz-adv-x="650" 
d="M589 800h-563v25h594v-25l-563 -775h563v-25h-594v25zM435 925l-111 112l-112 -112h-36l148 147l147 -147h-36z" />
    <glyph glyph-name="uni1E91" unicode="&#x1e91;" horiz-adv-x="600" 
d="M542 625h-516v25h550v-25l-516 -600h516v-25h-550v25zM413 750l-111 112l-112 -112h-36l148 147l147 -147h-36z" />
    <glyph glyph-name="uni1E92" unicode="&#x1e92;" horiz-adv-x="650" 
d="M589 800h-563v25h594v-25l-563 -775h563v-25h-594v25zM325 -100v-75h-25v75h25z" />
    <glyph glyph-name="uni1E93" unicode="&#x1e93;" horiz-adv-x="600" 
d="M542 625h-516v25h550v-25l-516 -600h516v-25h-550v25zM314 -100v-75h-25v75h25z" />
    <glyph glyph-name="uni1E94" unicode="&#x1e94;" horiz-adv-x="650" 
d="M589 800h-563v25h594v-25l-563 -775h563v-25h-594v25zM448 -125v-25h-250v25h250z" />
    <glyph glyph-name="uni1E95" unicode="&#x1e95;" horiz-adv-x="600" 
d="M542 625h-516v25h550v-25l-516 -600h516v-25h-550v25zM426 -125v-25h-250v25h250z" />
    <glyph glyph-name="uni1E96" unicode="&#x1e96;" horiz-adv-x="725" 
d="M125 326v-326h-25v650h25v-299h475v299h25v-650h-25v326h-475zM488 -125v-25h-250v25h250z" />
    <glyph glyph-name="uni1E98" unicode="&#x1e98;" 
d="M237 0l-236 650h28l223 -613l222 613h30l223 -613l222 613h28l-236 -650h-29l-223 614l-223 -614h-29zM551.5 924.5q25.5 -25.5 25.5 -61.5q0 -37 -25.5 -62.5t-61.5 -25.5q-37 0 -62.5 25.5t-25.5 62.5q0 36 25.5 61.5t62.5 25.5q36 0 61.5 -25.5zM490 925
q-26 0 -44.5 -18.5t-18.5 -43.5q0 -26 18.5 -44.5t44.5 -18.5q25 0 43.5 18.5t18.5 44.5q0 25 -18.5 43.5t-43.5 18.5z" />
    <glyph glyph-name="uni1E99" unicode="&#x1e99;" horiz-adv-x="575" 
d="M300 181v-181h-25v181l-271 469h29l255 -441l254 441h29zM349.5 899.5q25.5 -25.5 25.5 -61.5q0 -37 -25.5 -62.5t-61.5 -25.5q-37 0 -62.5 25.5t-25.5 62.5q0 36 25.5 61.5t62.5 25.5q36 0 61.5 -25.5zM288 900q-26 0 -44.5 -18.5t-18.5 -43.5q0 -26 18.5 -44.5
t44.5 -18.5q25 0 43.5 18.5t18.5 44.5q0 25 -18.5 43.5t-43.5 18.5z" />
    <glyph glyph-name="Ygrave" unicode="&#x1ef2;" horiz-adv-x="625" 
d="M325 306v-306h-25v306l-300 519h29l284 -491l283 491h29zM324 900l-47 175h-27l47 -175h27z" />
    </font>
</defs>
</svg>
