<?xml version="1.0" standalone="no"?>
<!DOCTYPE svg PUBLIC "-//W3C//DTD SVG 1.1//EN" "http://www.w3.org/Graphics/SVG/1.1/DTD/svg11.dtd" >
<svg xmlns="http://www.w3.org/2000/svg" xmlns:xlink="http://www.w3.org/1999/xlink" version="1.1">
<metadata>
Created by FontForge 20170731 at Thu May 31 13:40:12 2018
 By Aleksey,,,
Fashion Fetish (c) Levi Szekeres 1990-2017. All Rights Reserved.
</metadata>
<defs>
<font id="FashionFetish" horiz-adv-x="800" >
  <font-face 
    font-family="Fashion Fetish"
    font-weight="400"
    font-stretch="normal"
    units-per-em="1000"
    panose-1="2 0 0 0 0 0 0 0 0 0"
    ascent="800"
    descent="-200"
    x-height="650"
    cap-height="825"
    bbox="-200 -412 2125.25 1199"
    underline-thickness="100"
    underline-position="-250"
    unicode-range="U+0020-FB06"
  />
<missing-glyph horiz-adv-x="700" 
d="M175 750v-675h350v675h-350zM100 825h500v-825h-500v825z" />
    <glyph glyph-name=".notdef" horiz-adv-x="700" 
d="M175 750v-675h350v675h-350zM100 825h500v-825h-500v825z" />
    <glyph glyph-name=".null" horiz-adv-x="0" 
 />
    <glyph glyph-name="nonmarkingreturn" horiz-adv-x="150" 
 />
    <glyph glyph-name="space" unicode=" " horiz-adv-x="400" 
 />
    <glyph glyph-name="space" unicode="&#xa0;" horiz-adv-x="400" 
 />
    <glyph glyph-name="exclam" unicode="!" horiz-adv-x="275" 
d="M175 101v-100h-75v100h75zM175 824v-649h-75v649h75z" />
    <glyph glyph-name="quote" unicode="&#x22;" horiz-adv-x="425" 
d="M50 700l60 225h79l-60 -225h-79zM225 700l60 225h79l-60 -225h-79z" />
    <glyph glyph-name="numbersign" unicode="#" horiz-adv-x="700" 
d="M150 200v424h-100v75h100v125h75v-125h250v125h75v-125h100v-75h-100v-424h100v-75h-100v-125h-75v125h-250v-125h-75v125h-100v75h100zM225 624v-424h250v424h-250z" />
    <glyph glyph-name="dollar" unicode="$" horiz-adv-x="725" 
d="M564 685q-33 37 -91 63.5t-123 26.5q-89 0 -142 -44t-53 -103q0 -54 38.5 -93.5t96.5 -58.5l206 -57q74 -22 121 -77t47 -138q0 -93 -79 -161t-216 -68q-111 0 -194.5 49.5t-129.5 126.5l65 41q42 -68 113.5 -105t143.5 -37q110 0 165.5 48t55.5 109q0 51 -32.5 89.5
t-90.5 53.5l-193 55q-84 27 -138 85t-54 139q0 90 74 155.5t196 65.5q93 0 165 -35.5t117 -86.5zM392 950v-1075h-75v1075h75z" />
    <glyph glyph-name="percent" unicode="%" horiz-adv-x="1300" 
d="M474 -100l275 1025h78l-275 -1025h-78zM550 676q0 -103 -73.5 -176.5t-176.5 -73.5t-176.5 73.5t-73.5 176.5t73.5 176.5t176.5 73.5t176.5 -73.5t73.5 -176.5zM300 851q-73 0 -124 -51t-51 -124t51 -124t124 -51t124 51t51 124t-51 124t-124 51zM1250 151
q0 -103 -73.5 -176.5t-176.5 -73.5t-176.5 73.5t-73.5 176.5t73.5 176.5t176.5 73.5t176.5 -73.5t73.5 -176.5zM1000 326q-73 0 -124 -51t-51 -124t51 -124t124 -51t124 51t51 124t-51 124t-124 51z" />
    <glyph glyph-name="amp" unicode="&#x26;" horiz-adv-x="925" 
d="M278 646l88 -113q56 34 123 88q49 37 56 98q9 63 -29.5 111.5t-99.5 56.5q-62 9 -111 -28.5t-57 -100.5q-6 -59 30 -112zM150 187q0 -98 69.5 -167.5t167.5 -69.5q99 0 168 70q40 40 53 75l-262 340q-58 -34 -116 -83q-80 -70 -80 -165zM625 196v279h250v-75h-175v-212
q0 -47 -9 -78l124 -160h-94l-61 78q-6 -15 -51 -61q-92 -91 -222 -91q-129 0 -220.5 91.5t-91.5 222.5q1 128 106 218q63 55 119 87l-82 105q-54 78 -45 167q13 94 86.5 150.5t165.5 44.5q94 -13 150.5 -86.5t44.5 -165.5q-13 -93 -86 -149q-69 -54 -122 -88z" />
    <glyph glyph-name="quotesingle" unicode="'" horiz-adv-x="250" 
d="M50 700l60 225h79l-60 -225h-79z" />
    <glyph glyph-name="parenleft" unicode="(" horiz-adv-x="275" 
d="M144 -100q-69 265 -69 513q0 247 69 512h77q-71 -270 -71 -512q0 -243 71 -513h-77z" />
    <glyph glyph-name="parenright" unicode=")" horiz-adv-x="300" 
d="M152.009 924.994q68.9961 -264.984 68.9961 -512.969q0 -246.985 -68.9961 -511.969h-76.9951q70.9951 269.983 70.9951 511.969q0 242.985 -70.9951 512.969h76.9951z" />
    <glyph glyph-name="asterisk" unicode="*" horiz-adv-x="575" 
d="M249 727v173h75v-174l165 55l23 -72l-166 -54l102 -140l-60 -45l-102 141l-102 -140l-61 43l103 141l-165 54l24 71z" />
    <glyph glyph-name="plus" unicode="+" horiz-adv-x="675" 
d="M600 450v-75h-525v75h525zM300 675h75v-525h-75v525z" />
    <glyph glyph-name="comma" unicode="," horiz-adv-x="250" 
d="M50 -125l60 225h79l-60 -225h-79z" />
    <glyph glyph-name="hyphen" unicode="-" horiz-adv-x="450" 
d="M375 450v-75h-300v75h300z" />
    <glyph glyph-name="period" unicode="." horiz-adv-x="225" 
d="M150 100v-100h-75v100h75z" />
    <glyph glyph-name="slash" unicode="/" horiz-adv-x="400" 
d="M23 -100l275 1025h78l-275 -1025h-78z" />
    <glyph glyph-name="zero" unicode="0" horiz-adv-x="975" 
d="M716 694q-97 81 -228 81q-151 0 -257 -106t-106 -256q0 -132 81 -229zM259 131q97 -81 229 -81q150 0 256 106t106 257q0 131 -81 228zM925 413q0 -182 -128 -310t-309 -128q-182 0 -310 128t-128 310q0 181 128 309t310 128q181 0 309 -128t128 -309z" />
    <glyph glyph-name="one" unicode="1" horiz-adv-x="400" 
d="M55 598l131 227h64v-750h125v-75h-325v75h125v582l-54 -93z" />
    <glyph glyph-name="two" unicode="2" horiz-adv-x="625" 
d="M174 75h401v-75h-525v56l395 399q55 55 55 133q0 77 -55 132t-132 55q-78 0 -133 -55t-55 -132v-13h-75v13q0 108 77 185t186 77q108 0 185 -77t77 -185q0 -109 -77 -186z" />
    <glyph glyph-name="three" unicode="3" horiz-adv-x="625" 
d="M300 475q62 0 106 44t44 106t-44 106t-106 44t-106 -44t-44 -106h-75q0 93 66 159t159 66t159 -66t66 -159t-66 -159q-14 -14 -30 -26q25 -15 48 -38q73 -73 73 -177t-73 -177t-177 -73t-177 73t-73 177h75q0 -73 51 -124t124 -51q72 0 123.5 51t51.5 124
q0 72 -51.5 123.5t-123.5 51.5v75z" />
    <glyph glyph-name="four" unicode="4" horiz-adv-x="700" 
d="M50 225l237 650h79l-228 -625h312v575h75v-575h125v-75h-125v-175h-75v175h-400v50z" />
    <glyph glyph-name="five" unicode="5" horiz-adv-x="700" 
d="M172 535q68 40 152 40q124 0 212 -88t88 -212t-88 -212t-212 -88q-144 0 -235 113l57 49q65 -87 178 -87q93 0 159 66t66 159t-66 159t-159 66t-159 -66q-12 -11 -21 -23l-69 49l98 365h428v-75h-371z" />
    <glyph glyph-name="six" unicode="6" horiz-adv-x="675" 
d="M339 450q-83 0 -141.5 -58.5t-58.5 -141.5t58.5 -141.5t141.5 -58.5t141.5 58.5t58.5 141.5t-58.5 141.5t-141.5 58.5zM154 453q78 72 186 72q114 0 194.5 -80.5t80.5 -194.5t-80.5 -194.5t-194.5 -80.5t-187 72.5t-85 159.5q-36 193 57 374q113 221 350 298l23 7l24 -72
l-24 -6q-208 -68 -306 -262q-24 -46 -38 -93z" />
    <glyph glyph-name="seven" unicode="7" horiz-adv-x="525" 
d="M139 0l273 750h-387v75h475v-54l-280 -771h-81z" />
    <glyph glyph-name="eight" unicode="8" horiz-adv-x="650" 
d="M325 775q-62 0 -106 -44t-44 -106t44 -106t106 -44t106 44t44 106t-44 106t-106 44zM500 225q0 72 -51.5 123.5t-123.5 51.5q-73 0 -124 -51.5t-51 -123.5q0 -73 51 -124t124 -51q72 0 123.5 51t51.5 124zM196 440q-16 12 -30 26q-66 66 -66 159t66 159t159 66t159 -66
t66 -159t-66 -159q-14 -14 -30 -26q25 -15 48 -38q73 -73 73 -177t-73 -177t-177 -73t-177 73t-73 177t73 177q23 23 48 38z" />
    <glyph glyph-name="nine" unicode="9" horiz-adv-x="675" 
d="M336.021 373.027q82.9951 0 141.491 58.4961q58.4971 58.4971 58.4971 141.492q0 82.9941 -58.4971 141.491q-58.4961 58.4961 -141.491 58.4961t-141.491 -58.4961q-58.4961 -58.4971 -58.4961 -141.491q0 -82.9951 58.4961 -141.492q58.4961 -58.4961 141.491 -58.4961
zM521.01 370.027q-77.9961 -71.9951 -185.989 -71.9951q-113.993 0 -194.488 80.4951t-80.4951 194.488q0 113.992 80.4951 194.487t194.488 80.4951t186.989 -72.4951q72.9951 -72.4951 84.9941 -159.49q35.998 -192.988 -56.9961 -373.978
q-112.993 -220.986 -349.979 -297.981l-22.999 -7l-23.998 71.9961q11.999 3 23.998 5.99902q207.987 67.9961 305.981 261.984q23.998 45.9971 37.998 92.9941z" />
    <glyph glyph-name="colon" unicode=":" horiz-adv-x="225" 
d="M150 275v-100h-75v100h75zM150 625v-100h-75v100h75z" />
    <glyph glyph-name="semicolon" unicode=";" horiz-adv-x="225" 
d="M16 -124l60 225h79l-60 -225h-79zM152 625v-100h-75v100h75z" />
    <glyph glyph-name="lt" unicode="&#x3c;" horiz-adv-x="575" 
d="M388 100l-313 312l313 313h106l-313 -313l312 -312h-105z" />
    <glyph glyph-name="equal" unicode="=" horiz-adv-x="675" 
d="M600 550v-75h-525v75h525zM600 350v-75h-525v75h525z" />
    <glyph glyph-name="gt" unicode="&#x3e;" horiz-adv-x="575" 
d="M181.023 725.006l312.981 -311.98l-312.981 -312.981h-105.993l312.98 312.981l-311.98 311.98h104.993z" />
    <glyph glyph-name="question" unicode="?" horiz-adv-x="550" 
d="M300 100v-100h-75v100h75zM399 477q51 51 51 123q0 73 -51.5 124t-123.5 51q-73 0 -124 -51t-51 -124h-75q0 104 73 177t177 73t177 -73t73 -177t-73 -177l-109 -106q-42 -50 -43 -117v-25h-75v25q1 98 65 170z" />
    <glyph glyph-name="commat" unicode="@" horiz-adv-x="1150" 
d="M862 274q25 24 36 41l-41 154q-15 62 -64 111q-69 70 -180 70q-99 0 -168.5 -69.5t-69.5 -167.5q0 -99 69.5 -168.5t168.5 -69.5q151 0 249 99zM921 226l-5 -5q-122 -121 -303 -121q-130 0 -221.5 91.5t-91.5 221.5q0 129 91.5 220.5t221.5 91.5q142 0 234 -91
q66 -67 84 -153l20 -75q10 17 10 107q0 140 -99 238q-98 99 -249 99q-182 0 -310 -128t-128 -309q0 -182 128 -310t310 -128h137v-75h-137q-212 0 -362.5 150.5t-150.5 362.5q0 211 150.5 361.5t362.5 150.5q181 0 303 -120q120 -122 120 -292q0 -123 -57 -211l64 -238
l-73 -18z" />
    <glyph glyph-name="A" unicode="A" horiz-adv-x="850" 
d="M665 200l-241 515l-241 -515h482zM700 125h-552l-58 -125h-83l385 825h64l386 -825h-84z" />
    <glyph glyph-name="B" unicode="B" horiz-adv-x="775" 
d="M176 750v-300h274q62 0 106 44t44 106t-44 106t-106 44h-274zM176 375v-300h299q62 0 106 44t44 106t-44 106t-106 44h-299zM100 825h350q93 0 159 -66t66 -159t-66 -159q-11 -11 -23 -20q26 -15 48 -37q66 -66 66 -159t-66 -159t-159 -66h-375v825z" />
    <glyph glyph-name="C" unicode="C" horiz-adv-x="850" 
d="M747 159l56 -50l-6 -6q-128 -128 -309 -128q-182 0 -310 128t-128 310q0 181 128 309t310 128q181 0 309 -128l9 -9l-54 -52l-8 8q-106 106 -256 106q-151 0 -257 -106t-106 -256q0 -151 106 -257t257 -106q150 0 256 106z" />
    <glyph glyph-name="D" unicode="D" horiz-adv-x="900" 
d="M850 413q0 -171 -120.5 -292t-291.5 -121h-337v825h337q171 0 291.5 -121t120.5 -291zM438 750h-262v-675h262q140 0 238.5 99t98.5 239q0 139 -98.5 238t-238.5 99z" />
    <glyph glyph-name="E" unicode="E" horiz-adv-x="650" 
d="M600 825v-75h-425v-300h325v-75h-325v-300h425v-75h-500v825h500z" />
    <glyph glyph-name="F" unicode="F" horiz-adv-x="625" 
d="M175 0h-75v825h500v-75h-425v-300h325v-75h-325v-375z" />
    <glyph glyph-name="G" unicode="G" horiz-adv-x="875" 
d="M803 109q-124 -134 -315 -134q-182 0 -310 128t-128 310q0 181 128 309t310 128q181 0 309 -128l9 -9l-54 -52l-8 8q-106 106 -256 106q-151 0 -257 -106t-106 -256q0 -151 106 -257t257 -106q139 0 240 91v234h-254v75h329v-341z" />
    <glyph glyph-name="H" unicode="H" horiz-adv-x="875" 
d="M700 450v375h75v-825h-75v375h-525v-375h-75v825h75v-375h525z" />
    <glyph glyph-name="I" unicode="I" horiz-adv-x="275" 
d="M175 825v-825h-75v825h75z" />
    <glyph glyph-name="J" unicode="J" horiz-adv-x="350" 
d="M275 275q0 -114 -80 -194q-81 -81 -194 -81v75q83 0 141 58.5t58 141.5v550h75v-550z" />
    <glyph glyph-name="K" unicode="K" horiz-adv-x="650" 
d="M175 825v-825h-75v825h75zM618 825l-299 -412l299 -413h-94l-299 413l299 412h94z" />
    <glyph glyph-name="L" unicode="L" horiz-adv-x="550" 
d="M100 825h75v-750h400v-75h-475v825z" />
    <glyph glyph-name="M" unicode="M" horiz-adv-x="1050" 
d="M492 240l-317 439v-679h-75v825h62l363 -502l361 502h64v-825h-75v681l-317 -441h-66z" />
    <glyph glyph-name="N" unicode="N" horiz-adv-x="850" 
d="M100 825h56l519 -677v677h75v-825h-57l-518 676v-676h-75v825z" />
    <glyph glyph-name="O" unicode="O" horiz-adv-x="975" 
d="M925 413q0 -182 -128 -310t-309 -128q-182 0 -310 128t-128 310q0 181 128 309t310 128q181 0 309 -128t128 -309zM488 775q-151 0 -257 -106t-106 -256q0 -151 106 -257t257 -106q150 0 256 106t106 257q0 150 -106 256t-256 106z" />
    <glyph glyph-name="P" unicode="P" horiz-adv-x="750" 
d="M388 750h-213v-475h213q98 0 167.5 69.5t69.5 168.5q0 98 -69.5 167.5t-167.5 69.5zM100 825h288q129 0 220.5 -91.5t91.5 -220.5q0 -130 -91.5 -221.5t-220.5 -91.5h-213v-200h-75v825z" />
    <glyph glyph-name="Q" unicode="Q" horiz-adv-x="975" 
d="M775 191q75 95 75 222q0 150 -106 256t-256 106q-151 0 -257 -106t-106 -256q0 -151 106 -257t257 -106q136 0 235 87l-250 249l54 53zM776 83q-121 -108 -288 -108q-182 0 -310 128t-128 310q0 181 128 309t310 128q181 0 309 -128t128 -309q0 -158 -97 -275l123 -123
l-53 -53z" />
    <glyph glyph-name="R" unicode="R" horiz-adv-x="775" 
d="M388 750h-213v-475h213q98 0 167.5 69.5t69.5 168.5q0 98 -69.5 167.5t-167.5 69.5zM483 214q-45 -14 -95 -14h-213v-200h-75v825h288q129 0 220.5 -91.5t91.5 -220.5q0 -130 -91 -221q-28 -28 -58 -47l125 -245h-84z" />
    <glyph glyph-name="S" unicode="S" horiz-adv-x="725" 
d="M564 685q-33 37 -91 63.5t-123 26.5q-89 0 -142 -44t-53 -103q0 -54 38.5 -93.5t96.5 -58.5l206 -57q74 -22 121 -77t47 -138q0 -93 -79 -161t-216 -68q-111 0 -194.5 49.5t-129.5 126.5l65 41q42 -68 113.5 -105t143.5 -37q110 0 165.5 48t55.5 109q0 51 -32.5 89.5
t-90.5 53.5l-193 55q-84 27 -138 85t-54 139q0 90 74 155.5t196 65.5q93 0 165 -35.5t117 -86.5z" />
    <glyph glyph-name="T" unicode="T" horiz-adv-x="550" 
d="M238 750h-238v75h550v-75h-237v-750h-75v750z" />
    <glyph glyph-name="U" unicode="U" 
d="M75 300v525h75v-525q0 -104 73 -177t177 -73t177 73t73 177v525h75v-525q0 -135 -95 -230t-230 -95t-230 95t-95 230z" />
    <glyph glyph-name="V" unicode="V" horiz-adv-x="675" 
d="M668 825l-301 -825h-58l-301 825h80l250 -685l250 685h80z" />
    <glyph glyph-name="W" unicode="W" horiz-adv-x="1125" 
d="M594 690l201 -550l250 685h80l-301 -825h-58l-199 547l-200 -547h-58l-301 825h80l250 -685l201 550h55z" />
    <glyph glyph-name="X" unicode="X" horiz-adv-x="750" 
d="M720 825l-299 -412l299 -413h-94l-252 347l-253 -347h-94l300 413l-300 412h94l253 -347l252 347h94z" />
    <glyph glyph-name="Y" unicode="Y" horiz-adv-x="700" 
d="M313 0v299l-304 526h87l255 -441l254 441h87l-304 -526v-299h-75z" />
    <glyph glyph-name="Z" unicode="Z" horiz-adv-x="650" 
d="M625 825v-53l-488 -697h488v-75h-600v46l493 704h-493v75h600z" />
    <glyph glyph-name="bracketleft" unicode="[" horiz-adv-x="325" 
d="M275 949v-75h-100v-923h100v-75h-175v1073h175z" />
    <glyph glyph-name="backslash" unicode="\" horiz-adv-x="400" 
d="M377.001 -100l-274.982 1025h-77.9951l274.982 -1025h77.9951z" />
    <glyph glyph-name="bracketright" unicode="]" horiz-adv-x="325" 
d="M50.0166 949v-75h99.9941v-923h-99.9941v-75h174.989v1073h-174.989z" />
    <glyph glyph-name="Hat" unicode="^" horiz-adv-x="675" 
d="M50 725l285 285l36 -34l250 -251h-107l-179 180l-179 -180h-106z" />
    <glyph glyph-name="underscore" unicode="_" horiz-adv-x="775" 
d="M699 0v-75h-624v75h624z" />
    <glyph glyph-name="grave" unicode="`" horiz-adv-x="225" 
d="M110 750l-60 225h79l60 -225h-79z" />
    <glyph glyph-name="a" unicode="a" horiz-adv-x="825" 
d="M650 442q-20 42 -55 78q-81 80 -195 80t-194.5 -80.5t-80.5 -194.5t80.5 -194.5t194.5 -80.5t195 81q35 35 55 77v234zM650 651h75v-651h-75v80q-105 -105 -250 -105t-247.5 102.5t-102.5 247.5t102.5 247.5t247.5 102.5t250 -105v81z" />
    <glyph glyph-name="b" unicode="b" horiz-adv-x="825" 
d="M175 208q20 -42 56 -77q80 -81 194 -81t194.5 80.5t80.5 194.5t-80.5 194.5t-194.5 80.5t-194 -80q-36 -36 -56 -78v-234zM175 570q105 105 250 105t247.5 -102.5t102.5 -247.5t-102.5 -247.5t-247.5 -102.5t-250 105v-80h-75v825h75v-255z" />
    <glyph glyph-name="c" unicode="c" horiz-adv-x="725" 
d="M614 152l58 -48q-11 -13 -24 -26q-103 -103 -248 -103t-247.5 102.5t-102.5 247.5t102.5 247.5t247.5 102.5t248 -102q13 -14 24 -27l-58 -48q-9 11 -19 22q-81 80 -195 80t-194.5 -80.5t-80.5 -194.5t80.5 -194.5t194.5 -80.5t195 81q10 10 19 21z" />
    <glyph glyph-name="d" unicode="d" horiz-adv-x="825" 
d="M651.011 208q-19.999 -42 -55.9971 -77q-79.9951 -81 -193.987 -81q-113.993 0 -194.488 80.5t-80.4951 194.5t80.4951 194.5t194.488 80.5q113.992 0 193.987 -80q35.998 -36 55.9971 -78v-234zM651.011 570q-104.993 105 -249.984 105t-247.485 -102.5t-102.494 -247.5
t102.494 -247.5t247.485 -102.5t249.984 105v-80h74.9951v825h-74.9951v-255z" />
    <glyph glyph-name="e" unicode="e" horiz-adv-x="725" 
d="M567 544q-72 56 -167 56q-114 0 -194.5 -80.5t-80.5 -194.5q0 -95 56 -167zM234 105q72 -55 166 -55q114 0 195 81l53 -53q-103 -103 -248 -103t-247.5 102.5t-102.5 247.5t102.5 247.5t247.5 102.5t248 -102q13 -14 25 -29z" />
    <glyph glyph-name="f" unicode="f" horiz-adv-x="300" 
d="M175 750v-100h100v-75h-100v-575q0 -135 -95 -230t-230 -95v75q104 0 177 73t73 177v750q0 135 95 230t230 95v-75q-104 0 -177 -73t-73 -177z" />
    <glyph glyph-name="g" unicode="g" horiz-adv-x="825" 
d="M650 442q-20 42 -55 78q-81 80 -195 80t-194.5 -80.5t-80.5 -194.5t80.5 -194.5t194.5 -80.5t195 81q35 35 55 77v234zM650 0v80q-105 -105 -250 -105t-247.5 102.5t-102.5 247.5t102.5 247.5t247.5 102.5t250 -105v81h75v-651q0 -135 -95 -230t-230 -95v75q104 0 177 73
t73 177z" />
    <glyph glyph-name="h" unicode="h" 
d="M175 461v-461h-75v825h75v-240q94 90 225 90q135 0 230 -95t95 -230v-350h-75v350q0 104 -73 177t-177 73t-177 -73q-30 -30 -48 -66z" />
    <glyph glyph-name="i" unicode="i" horiz-adv-x="275" 
d="M175 650v-650h-75v650h75zM175 850v-100h-75v100h75z" />
    <glyph glyph-name="j" unicode="j" horiz-adv-x="275" 
d="M100 0v650h75v-650q0 -135 -95 -230t-230 -95v75q104 0 177 73t73 177zM175 850v-100h-75v100h75z" />
    <glyph glyph-name="k" unicode="k" horiz-adv-x="600" 
d="M175 825v-825h-75v825h75zM549 650l-236 -325l236 -325h-93l-236 325l236 325h93z" />
    <glyph glyph-name="l" unicode="l" horiz-adv-x="275" 
d="M175 825v-825h-75v825h75z" />
    <glyph glyph-name="m" unicode="m" horiz-adv-x="1150" 
d="M625 0h-75v400q0 83 -58.5 141.5t-141.5 58.5t-141 -58q-21 -21 -34 -44v-498h-75v650h75v-38q74 63 175 63q114 0 195 -80q17 -18 30 -36q14 19 31 36q80 80 194 80t194.5 -80.5t80.5 -194.5v-400h-75v400q0 83 -58.5 141.5t-141.5 58.5t-141 -58q-21 -21 -34 -44v-498z
" />
    <glyph glyph-name="n" unicode="n" 
d="M175 461v-461h-75v650h75v-65q94 90 225 90q135 0 230 -95t95 -230v-350h-75v350q0 104 -73 177t-177 73t-177 -73q-30 -30 -48 -66z" />
    <glyph glyph-name="o" unicode="o" 
d="M750 325q0 -145 -102.5 -247.5t-247.5 -102.5t-247.5 102.5t-102.5 247.5t102.5 247.5t247.5 102.5t247.5 -102.5t102.5 -247.5zM400 600q-114 0 -194.5 -80.5t-80.5 -194.5t80.5 -194.5t194.5 -80.5t194.5 80.5t80.5 194.5t-80.5 194.5t-194.5 80.5z" />
    <glyph glyph-name="p" unicode="p" horiz-adv-x="825" 
d="M174 208q20 -42 56 -78q80 -80 194 -80t194.5 80.5t80.5 194.5t-80.5 194.5t-194.5 80.5t-194 -81q-36 -35 -56 -77v-234zM174 -175h-75v825h75v-80q105 105 250 105t247.5 -102.5t102.5 -247.5t-102.5 -247.5t-247.5 -102.5t-250 105v-255z" />
    <glyph glyph-name="q" unicode="q" horiz-adv-x="825" 
d="M650.011 442.013q-19.999 41.9971 -55.9971 76.9951q-79.9951 80.9951 -193.987 80.9951q-113.993 0 -194.488 -80.4951t-80.4951 -194.488t80.4951 -194.488q80.4951 -80.4941 194.488 -80.4941q113.992 0 193.987 79.9941q35.998 35.998 55.9971 77.9961v233.985z
M650.011 80.0352q-104.993 -104.994 -249.984 -104.994t-247.485 102.494q-102.494 102.493 -102.494 247.484t102.494 247.485q102.494 102.493 247.485 102.493t249.984 -104.993v79.9951h74.9951v-824.949h-74.9951v254.984z" />
    <glyph glyph-name="r" unicode="r" horiz-adv-x="425" 
d="M175 461v-461h-75v650h75v-65q94 90 225 90v-75q-104 0 -177 -73q-30 -30 -48 -66z" />
    <glyph glyph-name="s" unicode="s" horiz-adv-x="575" 
d="M98 99q89 -49 181 -49q79 0 128 32t49 85q0 39 -23 66t-74 38l-140 34q-78 23 -117.5 70t-39.5 113q0 76 61 130.5t162 56.5q142 0 238 -79l-58 -50q-78 54 -179 54q-73 -2 -111 -35.5t-38 -77.5q0 -38 24 -65.5t74 -41.5l147 -38q70 -17 109.5 -62.5t39.5 -112.5
q0 -85 -71 -138.5t-181 -53.5q-125 0 -231 65z" />
    <glyph glyph-name="t" unicode="t" horiz-adv-x="300" 
d="M100 825h75v-175h100v-75h-100v-575h-75v825z" />
    <glyph glyph-name="u" unicode="u" 
d="M625.011 189.028v460.972h74.9951v-649.96h-74.9951v64.9961q-93.9941 -89.9951 -224.986 -89.9951q-134.992 0 -229.986 94.9941t-94.9941 229.986v349.979h74.9961v-349.979q0 -103.994 72.9951 -176.989q72.9961 -72.9951 176.989 -72.9951t176.989 72.9951
q29.998 29.998 47.9971 65.9961z" />
    <glyph glyph-name="v" unicode="v" horiz-adv-x="575" 
d="M556 650l-236 -650h-64l-236 650h81l188 -525l186 525h81z" />
    <glyph glyph-name="w" unicode="w" horiz-adv-x="975" 
d="M489 505l-183 -505h-64l-236 650h81l188 -525l186 525h56l188 -525l186 525h81l-236 -650h-64z" />
    <glyph glyph-name="x" unicode="x" horiz-adv-x="625" 
d="M595 650l-236 -325l236 -325h-93l-189 261l-190 -261h-93l236 325l-236 325h93l190 -261l189 261h93z" />
    <glyph glyph-name="y" unicode="y" 
d="M625 0v65q-94 -90 -225 -90q-135 0 -230 95t-95 230v350h75v-350q0 -104 73 -177t177 -73t177 73q30 30 48 66v461h75v-650q0 -135 -95 -230t-230 -95v75q104 0 177 73t73 177z" />
    <glyph glyph-name="z" unicode="z" horiz-adv-x="600" 
d="M459 575h-434v75h550v-52l-432 -523h432v-75h-550v50z" />
    <glyph glyph-name="braceleft" unicode="{" horiz-adv-x="400" 
d="M203 413q22 -28 22 -63v-364q0 -63 44 -107q19 -19 56 -36v-79q-76 29 -110 62q-65 67 -65 160v354q0 11 -7 23t-43 12v75q36 0 43 12t7 23v354q0 93 66 160q34 33 109 63v-80q-37 -18 -56 -37q-44 -43 -44 -106v-364q0 -35 -22 -62z" />
    <glyph glyph-name="verbar" unicode="|" horiz-adv-x="275" 
d="M175 950v-1075h-75v1075h75z" />
    <glyph glyph-name="braceright" unicode="}" horiz-adv-x="350" 
d="M197.013 412.025q-21.999 27.998 -21.999 62.9961v363.978q0 62.9961 -43.9971 106.993q-18.999 18.999 -55.9971 35.998v78.9951q75.9961 -28.998 109.993 -61.9961q64.9961 -66.9961 64.9961 -159.99v-353.979q0 -10.999 7 -22.998q6.99902 -12 42.9971 -12v-74.9951
q-35.998 0 -42.9971 -11.999q-7 -11.999 -7 -22.999v-353.979q0 -92.9941 -65.9951 -159.99q-33.998 -32.998 -108.994 -62.9961v79.9951q36.998 17.999 55.9971 36.998q43.9971 42.9971 43.9971 105.993v363.979q0 34.998 21.999 61.9961z" />
    <glyph glyph-name="asciitilde" unicode="~" horiz-adv-x="675" 
d="M600 461v-77q-72 -19 -137 -19q-61 0 -123.5 15t-126.5 15q-58 0 -138 -21v77q72 19 138 19q70 0 132.5 -15t117.5 -15q57 0 137 21z" />
    <glyph glyph-name="exclamdown" unicode="&#xa1;" horiz-adv-x="275" 
d="M100.011 550.006v99.9941h74.9951v-99.9941h-74.9951zM100.011 -172.949v648.96h74.9951v-648.96h-74.9951z" />
    <glyph glyph-name="cent" unicode="&#xa2;" horiz-adv-x="725" 
d="M614 152l58 -48q-11 -13 -24 -26q-103 -103 -248 -103t-247.5 102.5t-102.5 247.5t102.5 247.5t247.5 102.5t248 -102q13 -14 24 -27l-58 -48q-9 11 -19 22q-81 80 -195 80t-194.5 -80.5t-80.5 -194.5t80.5 -194.5t194.5 -80.5t195 81q10 10 19 21zM524 750l-228 -850
h-78l228 850h78z" />
    <glyph glyph-name="pound" unicode="&#xa3;" horiz-adv-x="625" 
d="M450 400v-75h-375v75h375zM255 75h319v-75h-500v75h51q31 0 53 22t22 53q0 44 -68.5 198t-68.5 252q0 104 73 177t177 73t177 -73t73 -177h-74q0 73 -51.5 124t-123.5 51q-73 0 -124 -51t-51 -124q0 -84 68 -238t68 -212q0 -42 -20 -75z" />
    <glyph glyph-name="curren" unicode="&#xa4;" horiz-adv-x="775" 
d="M384 650q-99 0 -168.5 -69.5t-69.5 -167.5q0 -99 69.5 -168.5t168.5 -69.5q98 0 167.5 69.5t69.5 168.5q0 98 -69.5 167.5t-167.5 69.5zM630 219l71 -71l-53 -53l-71 71q-83 -66 -193 -66q-111 0 -194 66l-71 -71l-53 53l71 71q-66 83 -66 194q0 110 66 193l-71 72l53 53
l72 -72q82 66 193 66q110 0 192 -66l72 72l53 -53l-71 -72q66 -83 66 -193q0 -111 -66 -194z" />
    <glyph glyph-name="yen" unicode="&#xa5;" horiz-adv-x="600" 
d="M267.042 0v299l-258.393 526h73.9482l216.744 -441l215.894 441h73.9482l-258.393 -526v-299h-63.749zM462 176v-75h-325v75h325zM461 351v-75h-325v75h325z" />
    <glyph glyph-name="brokenbar" unicode="&#xa6;" horiz-adv-x="275" 
d="M175 365.406v-464.407h-75v464.407h75zM175 924.406v-464.407h-75v464.407h75z" />
    <glyph glyph-name="sect" unicode="&#xa7;" horiz-adv-x="625" 
d="M109 595q-5 4 -9 9q-42 49 -42 117q0 84 63.5 143t178.5 61q164 0 274 -94l-57 -49q-92 68 -216 68q-84 -2 -126.5 -41.5t-42.5 -88.5q0 -44 29 -72t84 -45l160 -40q75 -21 117.5 -75t42.5 -117q0 -75 -49 -130q4 -4 7 -8q43 -54 43 -117q0 -91 -73 -153.5t-193 -62.5
q-142 0 -258 77l44 61q107 -62 216 -62q86 0 137.5 38t51.5 103q0 37 -25.5 71.5t-83.5 48.5l-153 38q-87 25 -128.5 74t-41.5 117q0 74 50 129zM173 551q-40 -39 -40 -86q0 -44 28.5 -72t84.5 -46l159 -39q29 -8 54 -21q31 34 31 85q0 37 -25 72t-83 49l-154 37
q-30 9 -55 21z" />
    <glyph glyph-name="diaeresis" unicode="&#xa8;" horiz-adv-x="400" 
d="M150 850v-100h-75v100h75zM325 850v-100h-75v100h75z" />
    <glyph glyph-name="copy" unicode="&#xa9;" horiz-adv-x="975" 
d="M925 413q0 -182 -128 -310t-309 -128q-182 0 -310 128t-128 310q0 181 128 309t310 128q181 0 309 -128t128 -309zM488 775q-151 0 -257 -106t-106 -256q0 -151 106 -257t257 -106q150 0 256 106t106 257q0 150 -106 256t-256 106zM625 286l56 -50q-4 -5 -8 -9
q-77 -77 -185 -77q-109 0 -186 77t-77 186q0 108 77 185t186 77q108 0 185 -77l9 -9l-55 -51l-7 7q-55 55 -132 55q-78 0 -133 -55t-55 -132q0 -78 55 -133t133 -55q77 0 132 55q3 3 5 6z" />
    <glyph glyph-name="ordf" unicode="&#xaa;" horiz-adv-x="825" 
d="M725 75v-75h-650v75h650zM650 398v229q-17 37 -52 71q-76 77 -185 77q-110 0 -186.5 -76.5t-76.5 -185.5q0 -110 76.5 -186.5t186.5 -76.5q109 0 185 77q35 34 52 71zM650 272q-99 -97 -237 -97q-140 0 -239 99t-99 239q0 139 99 238t239 99q138 0 237 -96v71h75v-625
h-75v72z" />
    <glyph glyph-name="laquo" unicode="&#xab;" horiz-adv-x="850" 
d="M384 100l-313 312l313 313h106l-313 -313l312 -312h-105zM668 100l-313 312l313 313h106l-313 -313l312 -312h-105z" />
    <glyph glyph-name="not" unicode="&#xac;" horiz-adv-x="850" 
d="M700 375h-625v75h700v-200h-75v125z" />
    <glyph glyph-name="softhyphen" unicode="&#xad;" horiz-adv-x="450" 
d="M375 450v-75h-300v75h300z" />
    <glyph glyph-name="reg" unicode="&#xae;" horiz-adv-x="975" 
d="M925 413q0 -182 -128 -310t-309 -128q-182 0 -310 128t-128 310q0 181 128 309t310 128q181 0 309 -128t128 -309zM488 775q-151 0 -257 -106t-106 -256q0 -151 106 -257t257 -106q150 0 256 106t106 257q0 150 -106 256t-256 106zM526 575h-150v-200h150q41 0 70.5 29.5
t29.5 70.5t-29.5 70.5t-70.5 29.5zM546 301q-10 -1 -20 -1h-150v-125h-75v475h225q72 0 123.5 -51t51.5 -124q0 -72 -51 -123q-15 -15 -32 -26l73 -151h-83z" />
    <glyph glyph-name="macron" unicode="&#xaf;" horiz-adv-x="450" 
d="M376 825v-75h-300v75h300z" />
    <glyph glyph-name="deg" unicode="&#xb0;" horiz-adv-x="600" 
d="M550 600q0 -103 -73.5 -176.5t-176.5 -73.5t-176.5 73.5t-73.5 176.5t73.5 176.5t176.5 73.5t176.5 -73.5t73.5 -176.5zM300 775q-73 0 -124 -51t-51 -124t51 -124t124 -51t124 51t51 124t-51 124t-124 51z" />
    <glyph glyph-name="plusminus" unicode="&#xb1;" horiz-adv-x="675" 
d="M600 475v-75h-525v75h525zM300 700h75v-525h-75v525zM600 76v-75h-525v75h525z" />
    <glyph glyph-name="sup2" unicode="&#xb2;" horiz-adv-x="525" 
d="M170 374h294v-75h-415v60l310 310h1q28 28 28 80t-36.5 88.5t-88.5 36.5t-88.5 -36.5t-36.5 -113.5h-75q0 108 58.5 166.5t141.5 58.5q82 0 141 -58.5t59 -141.5q0 -82 -58 -141l-1 -1z" />
    <glyph glyph-name="sup3.001" unicode="&#xb3;" horiz-adv-x="550" 
d="M122 450q10 -34 33 -56q43 -44 106 -44q62 0 106 44t44 106q0 63 -44 106.5t-106 43.5q-25 0 -50 -4v63l141 141h-294v75h415v-60l-147 -147q58 -18 95 -58q65 -67 65 -160t-66 -159t-159 -66t-159 66q-35 35 -51 84z" />
    <glyph glyph-name="acute" unicode="&#xb4;" horiz-adv-x="250" 
d="M50 750l60 225h79l-60 -225h-79z" />
    <glyph glyph-name="micro" unicode="&#xb5;" horiz-adv-x="825" 
d="M175 300q0 -104 73 -177t177 -73t177 73q30 30 48 66v461h75v-650h-75v65q-94 -90 -225 -90q-135 0 -230 95q-11 11 -20 22v-267h-75v825h75v-350z" />
    <glyph glyph-name="para" unicode="&#xb6;" horiz-adv-x="850" 
d="M750 825v-825h-75v750h-149v-750h-75v350h-164q-98 0 -167.5 69.5t-69.5 168.5q0 98 69.5 167.5t167.5 69.5h463zM451 750h-164q-67 0 -114.5 -47.5t-47.5 -114.5q0 -68 47.5 -115.5t114.5 -47.5h164v325z" />
    <glyph glyph-name="periodcentered" unicode="&#xb7;" horiz-adv-x="225" 
d="M150 475v-100h-75v100h75z" />
    <glyph glyph-name="cedilla" unicode="&#xb8;" horiz-adv-x="375" 
d="M226 -375h-125v75h125q31 0 53 22t22 53t-22 53t-53 22h-75v175h75v-100q62 0 106 -44t44 -106t-44 -106t-106 -44z" />
    <glyph glyph-name="sup1" unicode="&#xb9;" horiz-adv-x="350" 
d="M224 375h101v-75h-275v75h99v440l-74 -74v105l79 79h70v-550z" />
    <glyph glyph-name="ordm" unicode="&#xba;" horiz-adv-x="825" 
d="M750 75v-75h-675v75h675zM750 513q0 -140 -99 -239t-238 -99q-140 0 -239 99t-99 239q0 139 99 238t239 99q139 0 238 -99t99 -238zM413 775q-109 0 -186 -77t-77 -185q0 -109 77 -186t186 -77q108 0 185 77t77 186q0 108 -77 185t-185 77z" />
    <glyph glyph-name="raquo" unicode="&#xbb;" horiz-adv-x="850" 
d="M465.023 100l312.98 312l-312.98 313h-105.993l312.98 -313l-311.98 -312h104.993zM181.041 100l312.98 312l-312.98 313h-105.994l312.981 -313l-311.981 -312h104.994z" />
    <glyph glyph-name="frac14" unicode="&#xbc;" horiz-adv-x="1225" 
d="M224 375h101v-75h-275v75h99v440l-74 -74v105l79 79h70v-550zM373 -100l275 1025h78l-275 -1025h-78zM1055 74v400h75v-400h50v-75h-50v-150h-75v150h-380l200 550h79l-173 -475h274z" />
    <glyph glyph-name="frac12" unicode="&#xbd;" horiz-adv-x="1225" 
d="M224 375h101v-75h-275v75h99v440l-74 -74v105l79 79h70v-550zM373 -100l275 1025h78l-275 -1025h-78zM870 -50h294v-75h-415v60l310 310h1q28 28 28 80t-36.5 88.5t-88.5 36.5t-88.5 -36.5t-36.5 -113.5h-75q0 108 58.5 166.5t141.5 58.5q82 0 141 -58.5t59 -141.5
q0 -82 -58 -141l-1 -1z" />
    <glyph glyph-name="frac34" unicode="&#xbe;" horiz-adv-x="1475" 
d="M122 450q10 -34 33 -56q43 -44 106 -44q62 0 106 44t44 106q0 63 -44 106.5t-106 43.5q-25 0 -50 -4v63l141 141h-294v75h415v-60l-147 -147q58 -18 95 -58q65 -67 65 -160t-66 -159t-159 -66t-159 66q-35 35 -51 84zM558 -100l275 1025h78l-275 -1025h-78zM1295 100v400
h75v-400h50v-75h-50v-150h-75v150h-380l200 550h79l-173 -475h274z" />
    <glyph glyph-name="iquest" unicode="&#xbf;" horiz-adv-x="550" 
d="M250.019 550.006v99.9941h74.9951v-99.9941h-74.9951zM151.024 173.029q-50.9971 -50.9971 -50.9971 -122.992q0 -72.9961 51.4971 -123.993t123.492 -50.9971q72.9961 0 123.992 50.9971q50.9971 50.9971 50.9971 123.993h74.9961q0 -103.994 -72.9961 -176.989
q-72.9951 -72.9961 -176.989 -72.9961q-103.993 0 -176.989 72.9961q-72.9951 72.9951 -72.9951 176.989q0 103.993 72.9951 176.988l108.993 105.994q41.998 49.9971 42.998 116.992v24.999h74.9951v-24.999q-1 -97.9932 -64.9961 -169.989z" />
    <glyph glyph-name="Agrave" unicode="&#xc0;" horiz-adv-x="850" 
d="M665 200l-241 515l-241 -515h482zM700 125h-552l-58 -125h-83l385 825h64l386 -825h-84zM392 925l-60 225h79l60 -225h-79z" />
    <glyph glyph-name="Aacute" unicode="&#xc1;" horiz-adv-x="850" 
d="M665 200l-241 515l-241 -515h482zM700 125h-552l-58 -125h-83l385 825h64l386 -825h-84zM376 925l60 225h79l-60 -225h-79z" />
    <glyph glyph-name="Acircumflex" unicode="&#xc2;" horiz-adv-x="850" 
d="M665 200l-241 515l-241 -515h482zM700 125h-552l-58 -125h-83l385 825h64l386 -825h-84zM526 925l-100 102l-102 -102h-107l209 207l207 -207h-107z" />
    <glyph glyph-name="Atilde" unicode="&#xc3;" horiz-adv-x="850" 
d="M665 200l-241 515l-241 -515h482zM700 125h-552l-58 -125h-83l385 825h64l386 -825h-84zM612 1020v-77q-52 -19 -98 -19q-43 0 -87.5 15t-90.5 15q-42 0 -99 -21v77q52 19 99 19q49 0 94 -15t84 -15q41 0 98 21z" />
    <glyph glyph-name="Adieresis" unicode="&#xc4;" horiz-adv-x="850" 
d="M665 200l-241 515l-241 -515h482zM700 125h-552l-58 -125h-83l385 825h64l386 -825h-84zM376 1025v-100h-75v100h75zM551 1025v-100h-75v100h75z" />
    <glyph glyph-name="Aring" unicode="&#xc5;" horiz-adv-x="850" 
d="M665 200l-241 515l-241 -515h482zM700 125h-552l-58 -125h-83l385 825h64l386 -825h-84zM424 774q-52 0 -88.5 36.5t-36.5 88.5t36.5 88.5t88.5 36.5t88.5 -36.5t36.5 -88.5t-36.5 -88.5t-88.5 -36.5zM474 899q0 21 -14.5 35.5t-35.5 14.5t-35.5 -14.5t-14.5 -35.5
t14.5 -35.5t35.5 -14.5t35.5 14.5t14.5 35.5z" />
    <glyph glyph-name="AE" unicode="&#xc6;" horiz-adv-x="1075" 
d="M599 750v-300h325v-75h-325v-300h425v-75h-500v125h-376l-58 -125h-83l385 825h632v-75h-425zM524 200v550h-83l-258 -550h341z" />
    <glyph glyph-name="Ccedilla" unicode="&#xc7;" horiz-adv-x="850" 
d="M399 -17q-126 25 -221 120q-128 128 -128 310q0 181 128 309t310 128q181 0 309 -128l9 -9l-54 -52l-8 8q-106 106 -256 106q-151 0 -257 -106t-106 -256q0 -151 106 -257t257 -106q150 0 256 106l3 3l56 -50l-6 -6q-128 -128 -309 -128h-14v-49q62 0 106 -44t44 -106
t-44 -106t-106 -44h-125v75h125q31 0 53 22t22 53t-22 53t-53 22h-75v132z" />
    <glyph glyph-name="Egrave" unicode="&#xc8;" horiz-adv-x="650" 
d="M600 825v-75h-425v-300h325v-75h-325v-300h425v-75h-500v825h500zM318 925l-60 225h79l60 -225h-79z" />
    <glyph glyph-name="Eacute" unicode="&#xc9;" horiz-adv-x="650" 
d="M600 825v-75h-425v-300h325v-75h-325v-300h425v-75h-500v825h500zM302 925l60 225h79l-60 -225h-79z" />
    <glyph glyph-name="Ecircumflex" unicode="&#xca;" horiz-adv-x="650" 
d="M600 825v-75h-425v-300h325v-75h-325v-300h425v-75h-500v825h500zM451 925l-100 102l-102 -102h-107l209 207l207 -207h-107z" />
    <glyph glyph-name="Edieresis" unicode="&#xcb;" horiz-adv-x="650" 
d="M600 825v-75h-425v-300h325v-75h-325v-300h425v-75h-500v825h500zM301 1025v-100h-75v100h75zM476 1025v-100h-75v100h75z" />
    <glyph glyph-name="Igrave" unicode="&#xcc;" horiz-adv-x="275" 
d="M175 825v-825h-75v825h75zM106 925l-60 225h79l60 -225h-79z" />
    <glyph glyph-name="Iacute" unicode="&#xcd;" horiz-adv-x="275" 
d="M177 825v-825h-75v825h75zM101 925l60 225h79l-60 -225h-79z" />
    <glyph glyph-name="Icircumflex" unicode="&#xce;" horiz-adv-x="275" 
d="M176 825v-825h-75v825h75zM240 925l-100 102l-102 -102h-107l209 207l207 -207h-107z" />
    <glyph glyph-name="Idieresis" unicode="&#xcf;" horiz-adv-x="275" 
d="M175 825v-825h-75v825h75zM88 1025v-100h-75v100h75zM263 1025v-100h-75v100h75z" />
    <glyph glyph-name="Eth" unicode="&#xd0;" horiz-adv-x="900" 
d="M176 375v-300h262q140 0 238.5 99t98.5 239q0 139 -98.5 238t-238.5 99h-262v-300h99v-75h-99zM101 450v375h337q171 0 291.5 -121t120.5 -291q0 -171 -120.5 -292t-291.5 -121h-337v375h-101v75h101z" />
    <glyph glyph-name="Ntilde" unicode="&#xd1;" horiz-adv-x="850" 
d="M100 825h56l519 -677v677h75v-825h-57l-518 676v-676h-75v825zM613 1020v-77q-52 -19 -98 -19q-43 0 -87.5 15t-90.5 15q-42 0 -99 -21v77q52 19 99 19q49 0 94 -15t84 -15q41 0 98 21z" />
    <glyph glyph-name="Ograve" unicode="&#xd2;" horiz-adv-x="975" 
d="M925 413q0 -182 -128 -310t-309 -128q-182 0 -310 128t-128 310q0 181 128 309t310 128q181 0 309 -128t128 -309zM488 775q-151 0 -257 -106t-106 -256q0 -151 106 -257t257 -106q150 0 256 106t106 257q0 150 -106 256t-256 106zM455 950l-60 225h79l60 -225h-79z" />
    <glyph glyph-name="Oacute" unicode="&#xd3;" horiz-adv-x="975" 
d="M925 413q0 -182 -128 -310t-309 -128q-182 0 -310 128t-128 310q0 181 128 309t310 128q181 0 309 -128t128 -309zM488 775q-151 0 -257 -106t-106 -256q0 -151 106 -257t257 -106q150 0 256 106t106 257q0 150 -106 256t-256 106zM441 950l60 225h79l-60 -225h-79z" />
    <glyph glyph-name="Ocircumflex" unicode="&#xd4;" horiz-adv-x="975" 
d="M925 413q0 -182 -128 -310t-309 -128q-182 0 -310 128t-128 310q0 181 128 309t310 128q181 0 309 -128t128 -309zM488 775q-151 0 -257 -106t-106 -256q0 -151 106 -257t257 -106q150 0 256 106t106 257q0 150 -106 256t-256 106zM589 943l-100 102l-102 -102h-107
l209 207l207 -207h-107z" />
    <glyph glyph-name="Otilde" unicode="&#xd5;" horiz-adv-x="975" 
d="M925 413q0 -182 -128 -310t-309 -128q-182 0 -310 128t-128 310q0 181 128 309t310 128q181 0 309 -128t128 -309zM488 775q-151 0 -257 -106t-106 -256q0 -151 106 -257t257 -106q150 0 256 106t106 257q0 150 -106 256t-256 106zM675 1047v-77q-52 -19 -98 -19
q-43 0 -87.5 15t-90.5 15q-42 0 -99 -21v77q52 19 99 19q49 0 94 -15t84 -15q41 0 98 21z" />
    <glyph glyph-name="Odieresis" unicode="&#xd6;" horiz-adv-x="975" 
d="M925 413q0 -182 -128 -310t-309 -128q-182 0 -310 128t-128 310q0 181 128 309t310 128q181 0 309 -128t128 -309zM488 775q-151 0 -257 -106t-106 -256q0 -151 106 -257t257 -106q150 0 256 106t106 257q0 150 -106 256t-256 106zM437 1050v-100h-75v100h75zM612 1050
v-100h-75v100h75z" />
    <glyph glyph-name="times" unicode="&#xd7;" horiz-adv-x="675" 
d="M495 624l53 -53l-371 -371l-53 53zM124 571l53 53l371 -371l-53 -53z" />
    <glyph glyph-name="Oslash" unicode="&#xd8;" horiz-adv-x="975" 
d="M925 413q0 -182 -128 -310t-309 -128q-182 0 -310 128t-128 310q0 181 128 309t310 128q181 0 309 -128t128 -309zM488 775q-151 0 -257 -106t-106 -256q0 -151 106 -257t257 -106q150 0 256 106t106 257q0 150 -106 256t-256 106zM328 -100l275 1025h78l-275 -1025h-78z
" />
    <glyph glyph-name="Ugrave" unicode="&#xd9;" 
d="M75 300v525h75v-525q0 -104 73 -177t177 -73t177 73t73 177v525h75v-525q0 -135 -95 -230t-230 -95t-230 95t-95 230zM367 925l-60 225h79l60 -225h-79z" />
    <glyph glyph-name="Uacute" unicode="&#xda;" 
d="M75 300v525h75v-525q0 -104 73 -177t177 -73t177 73t73 177v525h75v-525q0 -135 -95 -230t-230 -95t-230 95t-95 230zM354 925l60 225h79l-60 -225h-79z" />
    <glyph glyph-name="Ucircumflex" unicode="&#xdb;" 
d="M75 300v525h75v-525q0 -104 73 -177t177 -73t177 73t73 177v525h75v-525q0 -135 -95 -230t-230 -95t-230 95t-95 230zM501 925l-100 102l-102 -102h-107l209 207l207 -207h-107z" />
    <glyph glyph-name="Udieresis" unicode="&#xdc;" 
d="M75 300v525h75v-525q0 -104 73 -177t177 -73t177 73t73 177v525h75v-525q0 -135 -95 -230t-230 -95t-230 95t-95 230zM350 1025v-100h-75v100h75zM525 1025v-100h-75v100h75z" />
    <glyph glyph-name="Yacute" unicode="&#xdd;" horiz-adv-x="700" 
d="M313 0v299l-304 526h87l255 -441l254 441h87l-304 -526v-299h-75zM304 925l60 225h79l-60 -225h-79z" />
    <glyph glyph-name="Thorn" unicode="&#xde;" horiz-adv-x="750" 
d="M175 727h213q129 0 220.5 -91.5t91.5 -220.5q0 -130 -91.5 -221.5t-220.5 -91.5h-213v-200h-75v923h75v-98zM175 177h213q98 0 167.5 69.5t69.5 168.5q0 98 -69.5 167.5t-167.5 69.5h-213v-475z" />
    <glyph glyph-name="germandbls" unicode="&#xdf;" horiz-adv-x="650" 
d="M175 625v-625h-75v625q1 92 66 157q66 66 159 66t159 -66t66 -159t-66 -159q-14 -14 -30 -26q25 -15 48 -38q73 -73 73 -177t-73 -177t-177 -73h-75v75h75q72 0 123.5 51t51.5 124q0 72 -51.5 123.5t-123.5 51.5v75q62 0 106 44t44 106t-44 106t-106 44t-106 -44
q-43 -43 -44 -104z" />
    <glyph glyph-name="agrave" unicode="&#xe0;" horiz-adv-x="825" 
d="M650 442q-20 42 -55 78q-81 80 -195 80t-194.5 -80.5t-80.5 -194.5t80.5 -194.5t194.5 -80.5t195 81q35 35 55 77v234zM650 651h75v-651h-75v80q-105 -105 -250 -105t-247.5 102.5t-102.5 247.5t102.5 247.5t247.5 102.5t250 -105v81zM335 775l-60 225h79l60 -225h-79z
" />
    <glyph glyph-name="aacute" unicode="&#xe1;" horiz-adv-x="825" 
d="M650 442q-20 42 -55 78q-81 80 -195 80t-194.5 -80.5t-80.5 -194.5t80.5 -194.5t194.5 -80.5t195 81q35 35 55 77v234zM650 651h75v-651h-75v80q-105 -105 -250 -105t-247.5 102.5t-102.5 247.5t102.5 247.5t247.5 102.5t250 -105v81zM361 775l60 225h79l-60 -225h-79z
" />
    <glyph glyph-name="acircumflex" unicode="&#xe2;" horiz-adv-x="825" 
d="M650 442q-20 42 -55 78q-81 80 -195 80t-194.5 -80.5t-80.5 -194.5t80.5 -194.5t194.5 -80.5t195 81q35 35 55 77v234zM650 651h75v-651h-75v80q-105 -105 -250 -105t-247.5 102.5t-102.5 247.5t102.5 247.5t247.5 102.5t250 -105v81zM489 772l-100 102l-102 -102h-107
l209 207l207 -207h-107z" />
    <glyph glyph-name="atilde" unicode="&#xe3;" horiz-adv-x="825" 
d="M650 442q-20 42 -55 78q-81 80 -195 80t-194.5 -80.5t-80.5 -194.5t80.5 -194.5t194.5 -80.5t195 81q35 35 55 77v234zM650 651h75v-651h-75v80q-105 -105 -250 -105t-247.5 102.5t-102.5 247.5t102.5 247.5t247.5 102.5t250 -105v81zM575 872v-77q-52 -19 -98 -19
q-43 0 -87.5 15t-90.5 15q-42 0 -99 -21v77q52 19 99 19q49 0 94 -15t84 -15q41 0 98 21z" />
    <glyph glyph-name="adieresis" unicode="&#xe4;" horiz-adv-x="825" 
d="M650 442q-20 42 -55 78q-81 80 -195 80t-194.5 -80.5t-80.5 -194.5t80.5 -194.5t194.5 -80.5t195 81q35 35 55 77v234zM650 651h75v-651h-75v80q-105 -105 -250 -105t-247.5 102.5t-102.5 247.5t102.5 247.5t247.5 102.5t250 -105v81zM338 875v-100h-75v100h75zM513 875
v-100h-75v100h75z" />
    <glyph glyph-name="aring" unicode="&#xe5;" horiz-adv-x="825" 
d="M650 442q-20 42 -55 78q-81 80 -195 80t-194.5 -80.5t-80.5 -194.5t80.5 -194.5t194.5 -80.5t195 81q35 35 55 77v234zM650 651h75v-651h-75v80q-105 -105 -250 -105t-247.5 102.5t-102.5 247.5t102.5 247.5t247.5 102.5t250 -105v81zM388 750q-52 0 -88.5 36.5
t-36.5 88.5t36.5 88.5t88.5 36.5t88.5 -36.5t36.5 -88.5t-36.5 -88.5t-88.5 -36.5zM438 875q0 21 -14.5 35.5t-35.5 14.5t-35.5 -14.5t-14.5 -35.5t14.5 -35.5t35.5 -14.5t35.5 14.5t14.5 35.5z" />
    <glyph glyph-name="ae" unicode="&#xe6;" horiz-adv-x="1175" 
d="M1012 544q-72 56 -167 56q-114 0 -194.5 -80.5t-80.5 -194.5q0 -95 56 -167zM570 108q-75 93 -75 217t75 217q-73 58 -170 58q-114 0 -194.5 -80.5t-80.5 -194.5t80.5 -194.5t194.5 -80.5q97 0 170 58zM600 614v36h75v-18q76 43 170 43q145 0 248 -102q13 -14 25 -29
l-439 -439q72 -55 166 -55q114 0 195 81l53 -53q-103 -103 -248 -103q-128 0 -223 80q-95 -80 -222 -80q-145 0 -247.5 102.5t-102.5 247.5t102.5 247.5t247.5 102.5q113 0 200 -61z" />
    <glyph glyph-name="ccedilla" unicode="&#xe7;" horiz-adv-x="725" 
d="M300 -11q-82 23 -147 89q-103 102 -103 247t102.5 247.5t247.5 102.5t248 -102q13 -14 24 -27l-58 -48q-9 11 -19 22q-81 80 -195 80t-194.5 -80.5t-80.5 -194.5t80.5 -194.5t194.5 -80.5t195 81q10 10 19 21l58 -48q-11 -13 -24 -26q-103 -103 -248 -103q-13 0 -25 1
v-51q62 0 106 -44t44 -106t-44 -106t-106 -44h-125v75h125q31 0 53 22t22 53t-22 53t-53 22h-75v139z" />
    <glyph glyph-name="egrave" unicode="&#xe8;" horiz-adv-x="725" 
d="M567 544q-72 56 -167 56q-114 0 -194.5 -80.5t-80.5 -194.5q0 -95 56 -167zM234 105q72 -55 166 -55q114 0 195 81l53 -53q-103 -103 -248 -103t-247.5 102.5t-102.5 247.5t102.5 247.5t247.5 102.5t248 -102q13 -14 25 -29zM308 775l-60 225h79l60 -225h-79z" />
    <glyph glyph-name="eacute" unicode="&#xe9;" horiz-adv-x="725" 
d="M567 544q-72 56 -167 56q-114 0 -194.5 -80.5t-80.5 -194.5q0 -95 56 -167zM234 105q72 -55 166 -55q114 0 195 81l53 -53q-103 -103 -248 -103t-247.5 102.5t-102.5 247.5t102.5 247.5t247.5 102.5t248 -102q13 -14 25 -29zM335 775l60 225h79l-60 -225h-79z" />
    <glyph glyph-name="ecircumflex" unicode="&#xea;" horiz-adv-x="725" 
d="M567 544q-72 56 -167 56q-114 0 -194.5 -80.5t-80.5 -194.5q0 -95 56 -167zM234 105q72 -55 166 -55q114 0 195 81l53 -53q-103 -103 -248 -103t-247.5 102.5t-102.5 247.5t102.5 247.5t247.5 102.5t248 -102q13 -14 25 -29zM462 775l-100 102l-102 -102h-107l209 207
l207 -207h-107z" />
    <glyph glyph-name="edieresis" unicode="&#xeb;" horiz-adv-x="725" 
d="M567 544q-72 56 -167 56q-114 0 -194.5 -80.5t-80.5 -194.5q0 -95 56 -167zM234 105q72 -55 166 -55q114 0 195 81l53 -53q-103 -103 -248 -103t-247.5 102.5t-102.5 247.5t102.5 247.5t247.5 102.5t248 -102q13 -14 25 -29zM311 875v-100h-75v100h75zM486 875v-100h-75
v100h75z" />
    <glyph glyph-name="igrave" unicode="&#xec;" horiz-adv-x="275" 
d="M175 650v-650h-75v650h75zM96 750l-60 225h79l60 -225h-79z" />
    <glyph glyph-name="iacute" unicode="&#xed;" horiz-adv-x="275" 
d="M175 650v-650h-75v650h75zM101 750l60 225h79l-60 -225h-79z" />
    <glyph glyph-name="icircumflex" unicode="&#xee;" horiz-adv-x="275" 
d="M176 650v-650h-75v650h75zM240 750l-100 102l-102 -102h-107l209 207l207 -207h-107z" />
    <glyph glyph-name="idieresis" unicode="&#xef;" horiz-adv-x="275" 
d="M176 650v-650h-75v650h75zM88 850v-100h-75v100h75zM263 850v-100h-75v100h75z" />
    <glyph glyph-name="eth" unicode="&#xf0;" horiz-adv-x="675" 
d="M136 250q0 -83 58.5 -141.5t141.5 -58.5t141.5 58.5t58.5 141.5t-58.5 141.5t-141.5 58.5t-141.5 -58.5t-58.5 -141.5zM387 750q104 -61 164 -169q93 -182 57 -374q-13 -87 -85.5 -159.5t-186.5 -72.5t-194.5 80.5t-80.5 194.5t80.5 194.5t194.5 80.5q108 0 186 -72
q-15 47 -38 93q-98 174 -334 204v75h425v-75h-188z" />
    <glyph glyph-name="ntilde" unicode="&#xf1;" 
d="M175 461v-461h-75v650h75v-65q94 90 225 90q135 0 230 -95t95 -230v-350h-75v350q0 104 -73 177t-177 73t-177 -73q-30 -30 -48 -66zM600 872v-77q-52 -19 -98 -19q-43 0 -87.5 15t-90.5 15q-42 0 -99 -21v77q52 19 99 19q49 0 94 -15t84 -15q41 0 98 21z" />
    <glyph glyph-name="ograve" unicode="&#xf2;" 
d="M750 325q0 -145 -102.5 -247.5t-247.5 -102.5t-247.5 102.5t-102.5 247.5t102.5 247.5t247.5 102.5t247.5 -102.5t102.5 -247.5zM400 600q-114 0 -194.5 -80.5t-80.5 -194.5t80.5 -194.5t194.5 -80.5t194.5 80.5t80.5 194.5t-80.5 194.5t-194.5 80.5zM368 775l-60 225h79
l60 -225h-79z" />
    <glyph glyph-name="oacute" unicode="&#xf3;" 
d="M750 325q0 -145 -102.5 -247.5t-247.5 -102.5t-247.5 102.5t-102.5 247.5t102.5 247.5t247.5 102.5t247.5 -102.5t102.5 -247.5zM400 600q-114 0 -194.5 -80.5t-80.5 -194.5t80.5 -194.5t194.5 -80.5t194.5 80.5t80.5 194.5t-80.5 194.5t-194.5 80.5zM353 775l60 225h79
l-60 -225h-79z" />
    <glyph glyph-name="ocircumflex" unicode="&#xf4;" 
d="M750 325q0 -145 -102.5 -247.5t-247.5 -102.5t-247.5 102.5t-102.5 247.5t102.5 247.5t247.5 102.5t247.5 -102.5t102.5 -247.5zM400 600q-114 0 -194.5 -80.5t-80.5 -194.5t80.5 -194.5t194.5 -80.5t194.5 80.5t80.5 194.5t-80.5 194.5t-194.5 80.5zM501 775l-100 102
l-102 -102h-107l209 207l207 -207h-107z" />
    <glyph glyph-name="otilde" unicode="&#xf5;" 
d="M750 325q0 -145 -102.5 -247.5t-247.5 -102.5t-247.5 102.5t-102.5 247.5t102.5 247.5t247.5 102.5t247.5 -102.5t102.5 -247.5zM400 600q-114 0 -194.5 -80.5t-80.5 -194.5t80.5 -194.5t194.5 -80.5t194.5 80.5t80.5 194.5t-80.5 194.5t-194.5 80.5zM587 872v-77
q-52 -19 -98 -19q-43 0 -87.5 15t-90.5 15q-42 0 -99 -21v77q52 19 99 19q49 0 94 -15t84 -15q41 0 98 21z" />
    <glyph glyph-name="odieresis" unicode="&#xf6;" 
d="M750 325q0 -145 -102.5 -247.5t-247.5 -102.5t-247.5 102.5t-102.5 247.5t102.5 247.5t247.5 102.5t247.5 -102.5t102.5 -247.5zM400 600q-114 0 -194.5 -80.5t-80.5 -194.5t80.5 -194.5t194.5 -80.5t194.5 80.5t80.5 194.5t-80.5 194.5t-194.5 80.5zM350 875v-100h-75
v100h75zM525 875v-100h-75v100h75z" />
    <glyph glyph-name="divide" unicode="&#xf7;" horiz-adv-x="675" 
d="M600 450v-75h-525v75h525zM375 288v-100h-75v100h75zM375 638v-100h-75v100h75z" />
    <glyph glyph-name="oslash" unicode="&#xf8;" 
d="M750 325q0 -145 -102.5 -247.5t-247.5 -102.5t-247.5 102.5t-102.5 247.5t102.5 247.5t247.5 102.5t247.5 -102.5t102.5 -247.5zM400 600q-114 0 -194.5 -80.5t-80.5 -194.5t80.5 -194.5t194.5 -80.5t194.5 80.5t80.5 194.5t-80.5 194.5t-194.5 80.5zM571 750l-228 -850
h-78l228 850h78z" />
    <glyph glyph-name="ugrave" unicode="&#xf9;" 
d="M625 189v461h75v-650h-75v65q-94 -90 -225 -90q-135 0 -230 95t-95 230v350h75v-350q0 -104 73 -177t177 -73t177 73q30 30 48 66zM355 750l-60 225h79l60 -225h-79z" />
    <glyph glyph-name="uacute" unicode="&#xfa;" 
d="M625 189v461h75v-650h-75v65q-94 -90 -225 -90q-135 0 -230 95t-95 230v350h75v-350q0 -104 73 -177t177 -73t177 73q30 30 48 66zM341 750l60 225h79l-60 -225h-79z" />
    <glyph glyph-name="ucircumflex" unicode="&#xfb;" 
d="M625 189v461h75v-650h-75v65q-94 -90 -225 -90q-135 0 -230 95t-95 230v350h75v-350q0 -104 73 -177t177 -73t177 73q30 30 48 66zM489 750l-100 102l-102 -102h-107l209 207l207 -207h-107z" />
    <glyph glyph-name="udieresis" unicode="&#xfc;" 
d="M625 189v461h75v-650h-75v65q-94 -90 -225 -90q-135 0 -230 95t-95 230v350h75v-350q0 -104 73 -177t177 -73t177 73q30 30 48 66zM338 850v-100h-75v100h75zM513 850v-100h-75v100h75z" />
    <glyph glyph-name="yacute" unicode="&#xfd;" 
d="M625 0v65q-94 -90 -225 -90q-135 0 -230 95t-95 230v350h75v-350q0 -104 73 -177t177 -73t177 73q30 30 48 66v461h75v-650q0 -135 -95 -230t-230 -95v75q104 0 177 73t73 177zM341 750l60 225h79l-60 -225h-79z" />
    <glyph glyph-name="thorn" unicode="&#xfe;" horiz-adv-x="825" 
d="M174 208q20 -42 56 -77q80 -81 194 -81t194.5 80.5t80.5 194.5t-80.5 194.5t-194.5 80.5t-194 -80q-36 -36 -56 -78v-234zM174 -175h-75v999h75v-254q105 105 250 105t247.5 -102.5t102.5 -247.5t-102.5 -247.5t-247.5 -102.5t-250 105v-255z" />
    <glyph glyph-name="ydieresis" unicode="&#xff;" 
d="M625 0v65q-94 -90 -225 -90q-135 0 -230 95t-95 230v350h75v-350q0 -104 73 -177t177 -73t177 73q30 30 48 66v461h75v-650q0 -135 -95 -230t-230 -95v75q104 0 177 73t73 177zM338 850v-100h-75v100h75zM513 850v-100h-75v100h75z" />
    <glyph glyph-name="Amacron" unicode="&#x100;" horiz-adv-x="850" 
d="M665 200l-241 515l-241 -515h482zM700 125h-552l-58 -125h-83l385 825h64l386 -825h-84zM575 1000v-75h-300v75h300z" />
    <glyph glyph-name="amacron" unicode="&#x101;" horiz-adv-x="825" 
d="M650 442q-20 42 -55 78q-81 80 -195 80t-194.5 -80.5t-80.5 -194.5t80.5 -194.5t194.5 -80.5t195 81q35 35 55 77v234zM650 651h75v-651h-75v80q-105 -105 -250 -105t-247.5 102.5t-102.5 247.5t102.5 247.5t247.5 102.5t250 -105v81zM538 850v-75h-300v75h300z" />
    <glyph glyph-name="Abreve" unicode="&#x102;" horiz-adv-x="850" 
d="M665 200l-241 515l-241 -515h482zM700 125h-552l-58 -125h-83l385 825h64l386 -825h-84zM532 1075h81q-28 -68 -55 -95q-55 -55 -133 -55t-132 55q-28 27 -56 95h80q16 -29 29 -41q33 -34 79 -34t80 34q12 12 27 41z" />
    <glyph glyph-name="abreve" unicode="&#x103;" horiz-adv-x="825" 
d="M650 442q-20 42 -55 78q-81 80 -195 80t-194.5 -80.5t-80.5 -194.5t80.5 -194.5t194.5 -80.5t195 81q35 35 55 77v234zM650 651h75v-651h-75v80q-105 -105 -250 -105t-247.5 102.5t-102.5 247.5t102.5 247.5t247.5 102.5t250 -105v81zM495 925h81q-28 -68 -55 -95
q-55 -55 -133 -55t-132 55q-28 27 -56 95h80q16 -29 29 -41q33 -34 79 -34t80 34q12 12 27 41z" />
    <glyph glyph-name="Aogonek" unicode="&#x104;" horiz-adv-x="850" 
d="M665 200l-241 515l-241 -515h482zM700 125h-552l-58 -125h-83l385 825h64l386 -825h-84zM776 -225q-62 0 -106 44t-44 106t44 106t131 44v-75q-56 0 -78 -22t-22 -53t22 -53t53 -22h125v-75h-125z" />
    <glyph glyph-name="aogonek" unicode="&#x105;" horiz-adv-x="825" 
d="M650 442q-20 42 -55 78q-81 80 -195 80t-194.5 -80.5t-80.5 -194.5t80.5 -194.5t194.5 -80.5t195 81q35 35 55 77v234zM650 651h75v-651h-75v80q-105 -105 -250 -105t-247.5 102.5t-102.5 247.5t102.5 247.5t247.5 102.5t250 -105v81zM375 -249q-62 0 -106 44t-44 106
t44 106t131 44v-75q-56 0 -78 -22t-22 -53t22 -53t53 -22h125v-75h-125z" />
    <glyph glyph-name="Cacute" unicode="&#x106;" horiz-adv-x="850" 
d="M747 159l56 -50l-6 -6q-128 -128 -309 -128q-182 0 -310 128t-128 310q0 181 128 309t310 128q181 0 309 -128l9 -9l-54 -52l-8 8q-106 106 -256 106q-151 0 -257 -106t-106 -256q0 -151 106 -257t257 -106q150 0 256 106zM400 949l60 225h79l-60 -225h-79z" />
    <glyph glyph-name="cacute" unicode="&#x107;" horiz-adv-x="725" 
d="M614 152l58 -48q-11 -13 -24 -26q-103 -103 -248 -103t-247.5 102.5t-102.5 247.5t102.5 247.5t247.5 102.5t248 -102q13 -14 24 -27l-58 -48q-9 11 -19 22q-81 80 -195 80t-194.5 -80.5t-80.5 -194.5t80.5 -194.5t194.5 -80.5t195 81q10 10 19 21zM336 775l60 225h79
l-60 -225h-79z" />
    <glyph glyph-name="Ccircumflex" unicode="&#x108;" horiz-adv-x="850" 
d="M747 159l56 -50l-6 -6q-128 -128 -309 -128q-182 0 -310 128t-128 310q0 181 128 309t310 128q181 0 309 -128l9 -9l-54 -52l-8 8q-106 106 -256 106q-151 0 -257 -106t-106 -256q0 -151 106 -257t257 -106q150 0 256 106zM559 950l-100 102l-102 -102h-107l209 207
l207 -207h-107z" />
    <glyph glyph-name="ccircumflex" unicode="&#x109;" horiz-adv-x="725" 
d="M614 152l58 -48q-11 -13 -24 -26q-103 -103 -248 -103t-247.5 102.5t-102.5 247.5t102.5 247.5t247.5 102.5t248 -102q13 -14 24 -27l-58 -48q-9 11 -19 22q-81 80 -195 80t-194.5 -80.5t-80.5 -194.5t80.5 -194.5t194.5 -80.5t195 81q10 10 19 21zM484 775l-100 102
l-102 -102h-107l209 207l207 -207h-107z" />
    <glyph glyph-name="Cdotaccent" unicode="&#x10a;" horiz-adv-x="850" 
d="M747 159l56 -50l-6 -6q-128 -128 -309 -128q-182 0 -310 128t-128 310q0 181 128 309t310 128q181 0 309 -128l9 -9l-54 -52l-8 8q-106 106 -256 106q-151 0 -257 -106t-106 -256q0 -151 106 -257t257 -106q150 0 256 106zM499 1050v-100h-75v100h75z" />
    <glyph glyph-name="cdotaccent" unicode="&#x10b;" horiz-adv-x="725" 
d="M614 152l58 -48q-11 -13 -24 -26q-103 -103 -248 -103t-247.5 102.5t-102.5 247.5t102.5 247.5t247.5 102.5t248 -102q13 -14 24 -27l-58 -48q-9 11 -19 22q-81 80 -195 80t-194.5 -80.5t-80.5 -194.5t80.5 -194.5t194.5 -80.5t195 81q10 10 19 21zM399 875v-100h-75v100
h75z" />
    <glyph glyph-name="Ccaron" unicode="&#x10c;" horiz-adv-x="850" 
d="M747 159l56 -50l-6 -6q-128 -128 -309 -128q-182 0 -310 128t-128 310q0 181 128 309t310 128q181 0 309 -128l9 -9l-54 -52l-8 8q-106 106 -256 106q-151 0 -257 -106t-106 -256q0 -151 106 -257t257 -106q150 0 256 106zM327 1133l100 -102l102 102h107l-209 -207
l-207 207h107z" />
    <glyph glyph-name="ccaron" unicode="&#x10d;" horiz-adv-x="725" 
d="M614 152l58 -48q-11 -13 -24 -26q-103 -103 -248 -103t-247.5 102.5t-102.5 247.5t102.5 247.5t247.5 102.5t248 -102q13 -14 24 -27l-58 -48q-9 11 -19 22q-81 80 -195 80t-194.5 -80.5t-80.5 -194.5t80.5 -194.5t194.5 -80.5t195 81q10 10 19 21zM260 958l100 -102
l102 102h107l-209 -207l-207 207h107z" />
    <glyph glyph-name="Dcaron" unicode="&#x10e;" horiz-adv-x="900" 
d="M850 413q0 -171 -120.5 -292t-291.5 -121h-337v825h337q171 0 291.5 -121t120.5 -291zM438 750h-262v-675h262q140 0 238.5 99t98.5 239q0 139 -98.5 238t-238.5 99zM375 1133l100 -102l102 102h107l-209 -207l-207 207h107z" />
    <glyph glyph-name="dcaron" unicode="&#x10f;" horiz-adv-x="975" 
d="M651 442q-20 42 -56 78q-80 80 -194 80t-194.5 -80.5t-80.5 -194.5t80.5 -194.5t194.5 -80.5t194 81q36 35 56 77v234zM651 825h75v-825h-75v80q-105 -105 -250 -105t-247.5 102.5t-102.5 247.5t102.5 247.5t247.5 102.5t250 -105v255zM826 701l60 225h79l-60 -225h-79z
" />
    <glyph glyph-name="Dcroat" unicode="&#x110;" horiz-adv-x="900" 
d="M177 375v-300h262q140 0 238.5 99t98.5 239q0 139 -98.5 238t-238.5 99h-262v-300h99v-75h-99zM102 450v375h337q171 0 291.5 -121t120.5 -291q0 -171 -120.5 -292t-291.5 -121h-337v375h-101v75h101z" />
    <glyph glyph-name="dcroat" unicode="&#x111;" horiz-adv-x="825" 
d="M601.011 411v-222q-17.999 -36 -47.9971 -66q-72.9961 -73 -176.989 -73t-176.989 73q-72.9951 73 -72.9951 177t72.9951 177q72.9961 73 176.989 73t176.989 -73q29.998 -30 47.9971 -66zM601.011 825v-290q-93.9941 90 -224.986 90q-134.992 0 -229.986 -95
t-94.9941 -230t94.9941 -230t229.986 -95q130.992 0 224.986 90v-65h74.9951v825h-74.9951zM501.017 750v-75h274.983v75h-274.983z" />
    <glyph glyph-name="Emacron" unicode="&#x112;" horiz-adv-x="650" 
d="M600 825v-75h-425v-300h325v-75h-325v-300h425v-75h-500v825h500zM500 1000v-75h-300v75h300z" />
    <glyph glyph-name="emacron" unicode="&#x113;" horiz-adv-x="725" 
d="M567 544q-72 56 -167 56q-114 0 -194.5 -80.5t-80.5 -194.5q0 -95 56 -167zM234 105q72 -55 166 -55q114 0 195 81l53 -53q-103 -103 -248 -103t-247.5 102.5t-102.5 247.5t102.5 247.5t247.5 102.5t248 -102q13 -14 25 -29zM512 850v-75h-300v75h300z" />
    <glyph glyph-name="Ebreve" unicode="&#x114;" horiz-adv-x="650" 
d="M600 825v-75h-425v-300h325v-75h-325v-300h425v-75h-500v825h500zM457 1075h81q-28 -68 -55 -95q-55 -55 -133 -55t-132 55q-28 27 -56 95h80q16 -29 29 -41q33 -34 79 -34t80 34q12 12 27 41z" />
    <glyph glyph-name="ebreve" unicode="&#x115;" horiz-adv-x="725" 
d="M567 544q-72 56 -167 56q-114 0 -194.5 -80.5t-80.5 -194.5q0 -95 56 -167zM234 105q72 -55 166 -55q114 0 195 81l53 -53q-103 -103 -248 -103t-247.5 102.5t-102.5 247.5t102.5 247.5t247.5 102.5t248 -102q13 -14 25 -29zM494 925h81q-28 -68 -55 -95
q-55 -55 -133 -55t-132 55q-28 27 -56 95h80q16 -29 29 -41q33 -34 79 -34t80 34q12 12 27 41z" />
    <glyph glyph-name="Edotaccent" unicode="&#x116;" horiz-adv-x="650" 
d="M600 825v-75h-425v-300h325v-75h-325v-300h425v-75h-500v825h500zM388 1025v-100h-75v100h75z" />
    <glyph glyph-name="edotaccent" unicode="&#x117;" horiz-adv-x="725" 
d="M567 544q-72 56 -167 56q-114 0 -194.5 -80.5t-80.5 -194.5q0 -95 56 -167zM234 105q72 -55 166 -55q114 0 195 81l53 -53q-103 -103 -248 -103t-247.5 102.5t-102.5 247.5t102.5 247.5t247.5 102.5t248 -102q13 -14 25 -29zM399 875v-100h-75v100h75z" />
    <glyph glyph-name="Eogonek" unicode="&#x118;" horiz-adv-x="650" 
d="M600 825v-75h-425v-300h325v-75h-325v-300h425v-75h-500v825h500zM475 -225q-62 0 -106 44t-44 106t44 106t131 44v-75q-56 0 -78 -22t-22 -53t22 -53t53 -22h125v-75h-125z" />
    <glyph glyph-name="eogonek" unicode="&#x119;" horiz-adv-x="725" 
d="M567 544q-72 56 -167 56q-114 0 -194.5 -80.5t-80.5 -194.5q0 -95 56 -167zM234 105q72 -55 166 -55q114 0 195 81l53 -53q-103 -103 -248 -103t-247.5 102.5t-102.5 247.5t102.5 247.5t247.5 102.5t248 -102q13 -14 25 -29zM375 -249q-62 0 -106 44t-44 106t44 106
t131 44v-75q-56 0 -78 -22t-22 -53t22 -53t53 -22h125v-75h-125z" />
    <glyph glyph-name="Ecaron" unicode="&#x11a;" horiz-adv-x="650" 
d="M600 825v-75h-425v-300h325v-75h-325v-300h425v-75h-500v825h500zM249 1133l100 -102l102 102h107l-209 -207l-207 207h107z" />
    <glyph glyph-name="ecaron" unicode="&#x11b;" horiz-adv-x="725" 
d="M567 544q-72 56 -167 56q-114 0 -194.5 -80.5t-80.5 -194.5q0 -95 56 -167zM234 105q72 -55 166 -55q114 0 195 81l53 -53q-103 -103 -248 -103t-247.5 102.5t-102.5 247.5t102.5 247.5t247.5 102.5t248 -102q13 -14 25 -29zM261 981l100 -102l102 102h107l-209 -207
l-207 207h107z" />
    <glyph glyph-name="Gcircumflex" unicode="&#x11c;" horiz-adv-x="875" 
d="M803 109q-124 -134 -315 -134q-182 0 -310 128t-128 310q0 181 128 309t310 128q181 0 309 -128l9 -9l-54 -52l-8 8q-106 106 -256 106q-151 0 -257 -106t-106 -256q0 -151 106 -257t257 -106q139 0 240 91v234h-254v75h329v-341zM543 950l-100 102l-102 -102h-107
l209 207l207 -207h-107z" />
    <glyph glyph-name="gcircumflex" unicode="&#x11d;" horiz-adv-x="825" 
d="M650 442q-20 42 -55 78q-81 80 -195 80t-194.5 -80.5t-80.5 -194.5t80.5 -194.5t194.5 -80.5t195 81q35 35 55 77v234zM650 0v80q-105 -105 -250 -105t-247.5 102.5t-102.5 247.5t102.5 247.5t247.5 102.5t250 -105v81h75v-651q0 -135 -95 -230t-230 -95v75q104 0 177 73
t73 177zM493 775l-100 102l-102 -102h-107l209 207l207 -207h-107z" />
    <glyph glyph-name="Gbreve" unicode="&#x11e;" horiz-adv-x="875" 
d="M803 109q-124 -134 -315 -134q-182 0 -310 128t-128 310q0 181 128 309t310 128q181 0 309 -128l9 -9l-54 -52l-8 8q-106 106 -256 106q-151 0 -257 -106t-106 -256q0 -151 106 -257t257 -106q139 0 240 91v234h-254v75h329v-341zM571 1100h81q-28 -68 -55 -95
q-55 -55 -133 -55t-132 55q-28 27 -56 95h80q16 -29 29 -41q33 -34 79 -34t80 34q12 12 27 41z" />
    <glyph glyph-name="gbreve" unicode="&#x11f;" horiz-adv-x="825" 
d="M650 442q-20 42 -55 78q-81 80 -195 80t-194.5 -80.5t-80.5 -194.5t80.5 -194.5t194.5 -80.5t195 81q35 35 55 77v234zM650 0v80q-105 -105 -250 -105t-247.5 102.5t-102.5 247.5t102.5 247.5t247.5 102.5t250 -105v81h75v-651q0 -135 -95 -230t-230 -95v75q104 0 177 73
t73 177zM494 924h81q-28 -68 -55 -95q-55 -55 -133 -55t-132 55q-28 27 -56 95h80q16 -29 29 -41q33 -34 79 -34t80 34q12 12 27 41z" />
    <glyph glyph-name="Gdotaccent" unicode="&#x120;" horiz-adv-x="875" 
d="M803 109q-124 -134 -315 -134q-182 0 -310 128t-128 310q0 181 128 309t310 128q181 0 309 -128l9 -9l-54 -52l-8 8q-106 106 -256 106q-151 0 -257 -106t-106 -256q0 -151 106 -257t257 -106q139 0 240 91v234h-254v75h329v-341zM500 1050v-100h-75v100h75z" />
    <glyph glyph-name="gdotaccent" unicode="&#x121;" horiz-adv-x="825" 
d="M650 442q-20 42 -55 78q-81 80 -195 80t-194.5 -80.5t-80.5 -194.5t80.5 -194.5t194.5 -80.5t195 81q35 35 55 77v234zM650 0v80q-105 -105 -250 -105t-247.5 102.5t-102.5 247.5t102.5 247.5t247.5 102.5t250 -105v81h75v-651q0 -135 -95 -230t-230 -95v75q104 0 177 73
t73 177zM424 875v-100h-75v100h75z" />
    <glyph glyph-name="Gcommaaccent" unicode="&#x122;" horiz-adv-x="875" 
d="M803 109q-124 -134 -315 -134q-182 0 -310 128t-128 310q0 181 128 309t310 128q181 0 309 -128l9 -9l-54 -52l-8 8q-106 106 -256 106q-151 0 -257 -106t-106 -256q0 -151 106 -257t257 -106q139 0 240 91v234h-254v75h329v-341zM358 -350l60 225h79l-60 -225h-79z" />
    <glyph glyph-name="gcommaaccent" unicode="&#x123;" horiz-adv-x="825" 
d="M650 442q-20 42 -55 78q-81 80 -195 80t-194.5 -80.5t-80.5 -194.5t80.5 -194.5t194.5 -80.5t195 81q35 35 55 77v234zM650 0v80q-105 -105 -250 -105t-247.5 102.5t-102.5 247.5t102.5 247.5t247.5 102.5t250 -105v81h75v-651q0 -135 -95 -230t-230 -95v75q104 0 177 73
t73 177zM372 774l60 225h79l-60 -225h-79z" />
    <glyph glyph-name="Hcircumflex" unicode="&#x124;" horiz-adv-x="875" 
d="M700 450v375h75v-825h-75v375h-525v-375h-75v825h75v-375h525zM539 925l-100 102l-102 -102h-107l209 207l207 -207h-107z" />
    <glyph glyph-name="hcircumflex" unicode="&#x125;" 
d="M175 461v-461h-75v825h75v-240q94 90 225 90q135 0 230 -95t95 -230v-350h-75v350q0 104 -73 177t-177 73t-177 -73q-30 -30 -48 -66zM514 899l-100 102l-102 -102h-107l209 207l207 -207h-107z" />
    <glyph glyph-name="Hbar" unicode="&#x126;" horiz-adv-x="875" 
d="M700 450v375h75v-825h-75v375h-525v-375h-75v825h75v-375h525zM750 727v-75h-625v75h625z" />
    <glyph glyph-name="hbar" unicode="&#x127;" 
d="M175 461v-461h-75v825h75v-240q94 90 225 90q135 0 230 -95t95 -230v-350h-75v350q0 104 -73 177t-177 73t-177 -73q-30 -30 -48 -66zM425 826v-75h-325v75h325z" />
    <glyph glyph-name="Itilde" unicode="&#x128;" horiz-adv-x="275" 
d="M175 825v-825h-75v825h75zM326 1020v-77q-52 -19 -98 -19q-43 0 -87.5 15t-90.5 15q-42 0 -99 -21v77q52 19 99 19q49 0 94 -15t84 -15q41 0 98 21z" />
    <glyph glyph-name="itilde" unicode="&#x129;" horiz-adv-x="275" 
d="M175 650v-650h-75v650h75zM326 845v-77q-52 -19 -98 -19q-43 0 -87.5 15t-90.5 15q-42 0 -99 -21v77q52 19 99 19q49 0 94 -15t84 -15q41 0 98 21z" />
    <glyph glyph-name="Imacron" unicode="&#x12a;" horiz-adv-x="275" 
d="M176 825v-825h-75v825h75zM289 1000v-75h-300v75h300z" />
    <glyph glyph-name="imacron" unicode="&#x12b;" horiz-adv-x="275" 
d="M176 650v-650h-75v650h75zM289 825v-75h-300v75h300z" />
    <glyph glyph-name="Ibreve" unicode="&#x12c;" horiz-adv-x="275" 
d="M176 825v-825h-75v825h75zM246 1075h81q-28 -68 -55 -95q-55 -55 -133 -55t-132 55q-28 27 -56 95h80q16 -29 29 -41q33 -34 79 -34t80 34q12 12 27 41z" />
    <glyph glyph-name="ibreve" unicode="&#x12d;" horiz-adv-x="275" 
d="M176 650v-650h-75v650h75zM246 900h81q-28 -68 -55 -95q-55 -55 -133 -55t-132 55q-28 27 -56 95h80q16 -29 29 -41q33 -34 79 -34t80 34q12 12 27 41z" />
    <glyph glyph-name="Iogonek" unicode="&#x12e;" horiz-adv-x="275" 
d="M175 825v-825h-75v825h75zM126 -225q-62 0 -106 44t-44 106t44 106t131 44v-75q-56 0 -78 -22t-22 -53t22 -53t53 -22h125v-75h-125z" />
    <glyph glyph-name="iogonek" unicode="&#x12f;" horiz-adv-x="275" 
d="M175 650v-650h-75v650h75zM175 850v-100h-75v100h75zM126 -225q-62 0 -106 44t-44 106t44 106t131 44v-75q-56 0 -78 -22t-22 -53t22 -53t53 -22h125v-75h-125z" />
    <glyph glyph-name="Idotaccent" unicode="&#x130;" horiz-adv-x="275" 
d="M175 825v-825h-75v825h75zM175 1025v-100h-75v100h75z" />
    <glyph glyph-name="dotlessi" unicode="&#x131;" horiz-adv-x="275" 
d="M175 650v-650h-75v650h75z" />
    <glyph glyph-name="IJ" unicode="&#x132;" horiz-adv-x="625" 
d="M175 825v-825h-75v825h75zM550 275q0 -114 -80 -194q-81 -81 -194 -81v75q83 0 141 58.5t58 141.5v550h75v-550z" />
    <glyph glyph-name="ij" unicode="&#x133;" horiz-adv-x="550" 
d="M175 650v-650h-75v650h75zM175 850v-100h-75v100h75zM375 0v650h75v-650q0 -135 -95 -230t-230 -95v75q104 0 177 73t73 177zM450 850v-100h-75v100h75z" />
    <glyph glyph-name="Jcircumflex" unicode="&#x134;" horiz-adv-x="350" 
d="M275 275q0 -114 -80 -194q-81 -81 -194 -81v75q83 0 141 58.5t58 141.5v550h75v-550zM335 925l-100 102l-102 -102h-107l209 207l207 -207h-107z" />
    <glyph glyph-name="jcircumflex" unicode="&#x135;" horiz-adv-x="275" 
d="M150 0v650h75v-650q0 -135 -95 -230t-230 -95v75q104 0 177 73t73 177zM285 750l-100 102l-102 -102h-107l209 207l207 -207h-107z" />
    <glyph glyph-name="Kcommaaccent" unicode="&#x136;" horiz-adv-x="650" 
d="M175 825v-825h-75v825h75zM618 825l-299 -412l299 -413h-94l-299 413l299 412h94zM211 -325l60 225h79l-60 -225h-79z" />
    <glyph glyph-name="kcommaaccent" unicode="&#x137;" horiz-adv-x="600" 
d="M175 825v-825h-75v825h75zM549 650l-236 -325l236 -325h-93l-236 325l236 325h93zM210 -325l60 225h79l-60 -225h-79z" />
    <glyph glyph-name="kgreenlandic" unicode="&#x138;" horiz-adv-x="600" 
d="M175 825v-825h-75v825h75zM549 650l-236 -325l236 -325h-93l-236 325l236 325h93z" />
    <glyph glyph-name="Lacute" unicode="&#x139;" horiz-adv-x="550" 
d="M100 825h75v-750h400v-75h-475v825zM291 925l60 225h79l-60 -225h-79z" />
    <glyph glyph-name="lacute" unicode="&#x13a;" horiz-adv-x="275" 
d="M168 825v-825h-75v825h75zM92 925l60 225h79l-60 -225h-79z" />
    <glyph glyph-name="Lcommaaccent" unicode="&#x13b;" horiz-adv-x="550" 
d="M100 825h75v-750h400v-75h-475v825zM236 -325l60 225h79l-60 -225h-79z" />
    <glyph glyph-name="lcommaaccent" unicode="&#x13c;" horiz-adv-x="275" 
d="M175 825v-825h-75v825h75zM37 -325l60 225h79l-60 -225h-79z" />
    <glyph glyph-name="Lcaron" unicode="&#x13d;" horiz-adv-x="550" 
d="M100 825h75v-750h400v-75h-475v825zM436 624l60 225h79l-60 -225h-79z" />
    <glyph glyph-name="lcaron" unicode="&#x13e;" horiz-adv-x="425" 
d="M175 825v-825h-75v825h75zM275 624l60 225h79l-60 -225h-79z" />
    <glyph glyph-name="Ldot" unicode="&#x13f;" horiz-adv-x="550" 
d="M100 825h75v-750h400v-75h-475v825zM553 463v-100h-75v100h75z" />
    <glyph glyph-name="ldot" unicode="&#x140;" horiz-adv-x="375" 
d="M175 825v-825h-75v825h75zM350 463v-100h-75v100h75z" />
    <glyph glyph-name="Lslash" unicode="&#x141;" horiz-adv-x="550" 
d="M101 825h75v-750h400v-75h-475v825zM268 598l53 -53l-318 -318l-53 53z" />
    <glyph glyph-name="lslash" unicode="&#x142;" horiz-adv-x="275" 
d="M176 825v-825h-75v825h75zM269 598l53 -53l-318 -318l-53 53z" />
    <glyph glyph-name="Nacute" unicode="&#x143;" horiz-adv-x="850" 
d="M100 825h56l519 -677v677h75v-825h-57l-518 676v-676h-75v825zM392 925l60 225h79l-60 -225h-79z" />
    <glyph glyph-name="nacute" unicode="&#x144;" 
d="M175 461v-461h-75v650h75v-65q94 90 225 90q135 0 230 -95t95 -230v-350h-75v350q0 104 -73 177t-177 73t-177 -73q-30 -30 -48 -66zM375 775l60 225h79l-60 -225h-79z" />
    <glyph glyph-name="Ncommaaccent" unicode="&#x145;" horiz-adv-x="850" 
d="M100 825h56l519 -677v677h75v-825h-57l-518 676v-676h-75v825zM356 -325l60 225h79l-60 -225h-79z" />
    <glyph glyph-name="ncommaaccent" unicode="&#x146;" 
d="M175 461v-461h-75v650h75v-65q94 90 225 90q135 0 230 -95t95 -230v-350h-75v350q0 104 -73 177t-177 73t-177 -73q-30 -30 -48 -66zM325 -325l60 225h79l-60 -225h-79z" />
    <glyph glyph-name="Ncaron" unicode="&#x147;" horiz-adv-x="850" 
d="M100 825h56l519 -677v677h75v-825h-57l-518 676v-676h-75v825zM324 1133l100 -102l102 102h107l-209 -207l-207 207h107z" />
    <glyph glyph-name="ncaron" unicode="&#x148;" 
d="M175 461v-461h-75v650h75v-65q94 90 225 90q135 0 230 -95t95 -230v-350h-75v350q0 104 -73 177t-177 73t-177 -73q-30 -30 -48 -66zM312 958l100 -102l102 102h107l-209 -207l-207 207h107z" />
    <glyph glyph-name="napostrophe" unicode="&#x149;" horiz-adv-x="900" 
d="M49 677l60 225h79l-60 -225h-79zM278 462v-461h-75v650h75v-65q94 90 225 90q135 0 230 -95t95 -230v-350h-75v350q0 104 -73 177t-177 73t-177 -73q-30 -30 -48 -66z" />
    <glyph glyph-name="Eng" unicode="&#x14a;" horiz-adv-x="850" 
d="M675 23l-500 653v-676h-75v825h56l519 -677v677h75v-826q0 -62 -44 -106t-131 -44v75q56 0 78 22t22 53v24z" />
    <glyph glyph-name="eng" unicode="&#x14b;" 
d="M650 350q0 104 -73 177t-177 73t-177 -73q-30 -30 -48 -66v-461h-75v650h75v-65q94 90 225 90q135 0 230 -95t95 -230v-350q0 -62 -44 -106t-131 -44v75q56 0 78 22t22 53v350z" />
    <glyph glyph-name="Omacron" unicode="&#x14c;" horiz-adv-x="975" 
d="M925 413q0 -182 -128 -310t-309 -128q-182 0 -310 128t-128 310q0 181 128 309t310 128q181 0 309 -128t128 -309zM488 775q-151 0 -257 -106t-106 -256q0 -151 106 -257t257 -106q150 0 256 106t106 257q0 150 -106 256t-256 106zM638 1025v-75h-300v75h300z" />
    <glyph glyph-name="omacron" unicode="&#x14d;" 
d="M750 325q0 -145 -102.5 -247.5t-247.5 -102.5t-247.5 102.5t-102.5 247.5t102.5 247.5t247.5 102.5t247.5 -102.5t102.5 -247.5zM400 600q-114 0 -194.5 -80.5t-80.5 -194.5t80.5 -194.5t194.5 -80.5t194.5 80.5t80.5 194.5t-80.5 194.5t-194.5 80.5zM550 850v-75h-300
v75h300z" />
    <glyph glyph-name="Obreve" unicode="&#x14e;" horiz-adv-x="975" 
d="M925 413q0 -182 -128 -310t-309 -128q-182 0 -310 128t-128 310q0 181 128 309t310 128q181 0 309 -128t128 -309zM488 775q-151 0 -257 -106t-106 -256q0 -151 106 -257t257 -106q150 0 256 106t106 257q0 150 -106 256t-256 106zM595 1100h81q-28 -68 -55 -95
q-55 -55 -133 -55t-132 55q-28 27 -56 95h80q16 -29 29 -41q33 -34 79 -34t80 34q12 12 27 41z" />
    <glyph glyph-name="obreve" unicode="&#x14f;" 
d="M750 325q0 -145 -102.5 -247.5t-247.5 -102.5t-247.5 102.5t-102.5 247.5t102.5 247.5t247.5 102.5t247.5 -102.5t102.5 -247.5zM400 600q-114 0 -194.5 -80.5t-80.5 -194.5t80.5 -194.5t194.5 -80.5t194.5 80.5t80.5 194.5t-80.5 194.5t-194.5 80.5zM507 925h81
q-28 -68 -55 -95q-55 -55 -133 -55t-132 55q-28 27 -56 95h80q16 -29 29 -41q33 -34 79 -34t80 34q12 12 27 41z" />
    <glyph glyph-name="Ohungarumlaut" unicode="&#x150;" horiz-adv-x="975" 
d="M925 413q0 -182 -128 -310t-309 -128q-182 0 -310 128t-128 310q0 181 128 309t310 128q181 0 309 -128t128 -309zM488 775q-151 0 -257 -106t-106 -256q0 -151 106 -257t257 -106q150 0 256 106t106 257q0 150 -106 256t-256 106zM330 950l60 225h79l-60 -225h-79z
M505 950l60 225h79l-60 -225h-79z" />
    <glyph glyph-name="ohungarumlaut" unicode="&#x151;" 
d="M750 325q0 -145 -102.5 -247.5t-247.5 -102.5t-247.5 102.5t-102.5 247.5t102.5 247.5t247.5 102.5t247.5 -102.5t102.5 -247.5zM400 600q-114 0 -194.5 -80.5t-80.5 -194.5t80.5 -194.5t194.5 -80.5t194.5 80.5t80.5 194.5t-80.5 194.5t-194.5 80.5zM243 775l60 225h79
l-60 -225h-79zM418 775l60 225h79l-60 -225h-79z" />
    <glyph glyph-name="OE" unicode="&#x152;" horiz-adv-x="1350" 
d="M925 413q0 -182 -128 -310t-309 -128q-182 0 -310 128t-128 310q0 181 128 309t310 128q181 0 309 -128t128 -309zM488 775q-151 0 -257 -106t-106 -256q0 -151 106 -257t257 -106q150 0 256 106t106 257q0 150 -106 256t-256 106zM603 375q12 -127 104 -219
q106 -106 257 -106q160 0 259 109l56 -50q-124 -134 -315 -134q-182 0 -310 128t-128 310q0 181 128 309t310 128q191 0 318 -137l-54 -52q-104 114 -264 114q-151 0 -257 -106q-93 -93 -104 -219h473v-75h-473z" />
    <glyph glyph-name="oe" unicode="&#x153;" horiz-adv-x="1175" 
d="M1010 544q-72 56 -167 56q-114 0 -194.5 -80.5t-80.5 -194.5q0 -95 56 -167zM569 107q-76 94 -76 218q0 125 76 218q-73 57 -169 57q-114 0 -194.5 -80.5t-80.5 -194.5t80.5 -194.5t194.5 -80.5q96 0 169 57zM621 54q-94 -79 -221 -79q-145 0 -247.5 102.5t-102.5 247.5
t102.5 247.5t247.5 102.5q127 0 222 -78q94 78 221 78q145 0 248 -102q13 -14 25 -29l-439 -439q72 -55 166 -55q114 0 195 81l53 -53q-103 -103 -248 -103q-127 0 -222 79z" />
    <glyph glyph-name="Racute" unicode="&#x154;" horiz-adv-x="775" 
d="M388 750h-213v-475h213q98 0 167.5 69.5t69.5 168.5q0 98 -69.5 167.5t-167.5 69.5zM483 214q-45 -14 -95 -14h-213v-200h-75v825h288q129 0 220.5 -91.5t91.5 -220.5q0 -130 -91 -221q-28 -28 -58 -47l125 -245h-84zM326 925l60 225h79l-60 -225h-79z" />
    <glyph glyph-name="racute" unicode="&#x155;" horiz-adv-x="425" 
d="M175 461v-461h-75v650h75v-65q94 90 225 90v-75q-104 0 -177 -73q-30 -30 -48 -66zM175 750l60 225h79l-60 -225h-79z" />
    <glyph glyph-name="Rcommaaccent" unicode="&#x156;" horiz-adv-x="775" 
d="M388 750h-213v-475h213q98 0 167.5 69.5t69.5 168.5q0 98 -69.5 167.5t-167.5 69.5zM483 214q-45 -14 -95 -14h-213v-200h-75v825h288q129 0 220.5 -91.5t91.5 -220.5q0 -130 -91 -221q-28 -28 -58 -47l125 -245h-84zM276 -325l60 225h79l-60 -225h-79z" />
    <glyph glyph-name="rcommaaccent" unicode="&#x157;" horiz-adv-x="425" 
d="M175 461v-461h-75v650h75v-65q94 90 225 90v-75q-104 0 -177 -73q-30 -30 -48 -66zM38 -325l60 225h79l-60 -225h-79z" />
    <glyph glyph-name="Rcaron" unicode="&#x158;" horiz-adv-x="775" 
d="M388 750h-213v-475h213q98 0 167.5 69.5t69.5 168.5q0 98 -69.5 167.5t-167.5 69.5zM483 214q-45 -14 -95 -14h-213v-200h-75v825h288q129 0 220.5 -91.5t91.5 -220.5q0 -130 -91 -221q-28 -28 -58 -47l125 -245h-84zM282 1134l100 -102l102 102h107l-209 -207l-207 207
h107z" />
    <glyph glyph-name="rcaron" unicode="&#x159;" horiz-adv-x="425" 
d="M175 461v-461h-75v650h75v-65q94 90 225 90v-75q-104 0 -177 -73q-30 -30 -48 -66zM131 958l100 -102l102 102h107l-209 -207l-207 207h107z" />
    <glyph glyph-name="Sacute" unicode="&#x15a;" horiz-adv-x="725" 
d="M564 685q-33 37 -91 63.5t-123 26.5q-89 0 -142 -44t-53 -103q0 -54 38.5 -93.5t96.5 -58.5l206 -57q74 -22 121 -77t47 -138q0 -93 -79 -161t-216 -68q-111 0 -194.5 49.5t-129.5 126.5l65 41q42 -68 113.5 -105t143.5 -37q110 0 165.5 48t55.5 109q0 51 -32.5 89.5
t-90.5 53.5l-193 55q-84 27 -138 85t-54 139q0 90 74 155.5t196 65.5q93 0 165 -35.5t117 -86.5zM336 950l60 225h79l-60 -225h-79z" />
    <glyph glyph-name="sacute" unicode="&#x15b;" horiz-adv-x="575" 
d="M98 99q89 -49 181 -49q79 0 128 32t49 85q0 39 -23 66t-74 38l-140 34q-78 23 -117.5 70t-39.5 113q0 76 61 130.5t162 56.5q142 0 238 -79l-58 -50q-78 54 -179 54q-73 -2 -111 -35.5t-38 -77.5q0 -38 24 -65.5t74 -41.5l147 -38q70 -17 109.5 -62.5t39.5 -112.5
q0 -85 -71 -138.5t-181 -53.5q-125 0 -231 65zM261 775l60 225h79l-60 -225h-79z" />
    <glyph glyph-name="Scircumflex" unicode="&#x15c;" horiz-adv-x="725" 
d="M564 685q-33 37 -91 63.5t-123 26.5q-89 0 -142 -44t-53 -103q0 -54 38.5 -93.5t96.5 -58.5l206 -57q74 -22 121 -77t47 -138q0 -93 -79 -161t-216 -68q-111 0 -194.5 49.5t-129.5 126.5l65 41q42 -68 113.5 -105t143.5 -37q110 0 165.5 48t55.5 109q0 51 -32.5 89.5
t-90.5 53.5l-193 55q-84 27 -138 85t-54 139q0 90 74 155.5t196 65.5q93 0 165 -35.5t117 -86.5zM459 950l-100 102l-102 -102h-107l209 207l207 -207h-107z" />
    <glyph glyph-name="scircumflex" unicode="&#x15d;" horiz-adv-x="575" 
d="M98 99q89 -49 181 -49q79 0 128 32t49 85q0 39 -23 66t-74 38l-140 34q-78 23 -117.5 70t-39.5 113q0 76 61 130.5t162 56.5q142 0 238 -79l-58 -50q-78 54 -179 54q-73 -2 -111 -35.5t-38 -77.5q0 -38 24 -65.5t74 -41.5l147 -38q70 -17 109.5 -62.5t39.5 -112.5
q0 -85 -71 -138.5t-181 -53.5q-125 0 -231 65zM384 775l-100 102l-102 -102h-107l209 207l207 -207h-107z" />
    <glyph glyph-name="Scedilla" unicode="&#x15e;" horiz-adv-x="725" 
d="M564 685q-33 37 -91 63.5t-123 26.5q-89 0 -142 -44t-53 -103q0 -54 38.5 -93.5t96.5 -58.5l206 -57q74 -22 121 -77t47 -138q0 -93 -79 -161t-216 -68q-111 0 -194.5 49.5t-129.5 126.5l65 41q42 -68 113.5 -105t143.5 -37q110 0 165.5 48t55.5 109q0 51 -32.5 89.5
t-90.5 53.5l-193 55q-84 27 -138 85t-54 139q0 90 74 155.5t196 65.5q93 0 165 -35.5t117 -86.5zM342 -375h-125v75h125q31 0 53 22t22 53t-22 53t-53 22h-75v175h75v-100q62 0 106 -44t44 -106t-44 -106t-106 -44z" />
    <glyph glyph-name="scedilla" unicode="&#x15f;" horiz-adv-x="575" 
d="M98 99q89 -49 181 -49q79 0 128 32t49 85q0 39 -23 66t-74 38l-140 34q-78 23 -117.5 70t-39.5 113q0 76 61 130.5t162 56.5q142 0 238 -79l-58 -50q-78 54 -179 54q-73 -2 -111 -35.5t-38 -77.5q0 -38 24 -65.5t74 -41.5l147 -38q70 -17 109.5 -62.5t39.5 -112.5
q0 -85 -71 -138.5t-181 -53.5q-125 0 -231 65zM277 -375h-125v75h125q31 0 53 22t22 53t-22 53t-53 22h-75v175h75v-100q62 0 106 -44t44 -106t-44 -106t-106 -44z" />
    <glyph glyph-name="Scaron" unicode="&#x160;" horiz-adv-x="725" 
d="M564 685q-33 37 -91 63.5t-123 26.5q-89 0 -142 -44t-53 -103q0 -54 38.5 -93.5t96.5 -58.5l206 -57q74 -22 121 -77t47 -138q0 -93 -79 -161t-216 -68q-111 0 -194.5 49.5t-129.5 126.5l65 41q42 -68 113.5 -105t143.5 -37q110 0 165.5 48t55.5 109q0 51 -32.5 89.5
t-90.5 53.5l-193 55q-84 27 -138 85t-54 139q0 90 74 155.5t196 65.5q93 0 165 -35.5t117 -86.5zM266 1133l100 -102l102 102h107l-209 -207l-207 207h107z" />
    <glyph glyph-name="scaron" unicode="&#x161;" horiz-adv-x="575" 
d="M98 99q89 -49 181 -49q79 0 128 32t49 85q0 39 -23 66t-74 38l-140 34q-78 23 -117.5 70t-39.5 113q0 76 61 130.5t162 56.5q142 0 238 -79l-58 -50q-78 54 -179 54q-73 -2 -111 -35.5t-38 -77.5q0 -38 24 -65.5t74 -41.5l147 -38q70 -17 109.5 -62.5t39.5 -112.5
q0 -85 -71 -138.5t-181 -53.5q-125 0 -231 65zM207 958l100 -102l102 102h107l-209 -207l-207 207h107z" />
    <glyph glyph-name="Tcedilla" unicode="&#x162;" horiz-adv-x="550" 
d="M238 750h-238v75h550v-75h-237v-750h-75v750zM313 -350h-125v75h125q31 0 53 22t22 53t-22 53t-53 22h-75v175h75v-100q62 0 106 -44t44 -106t-44 -106t-106 -44z" />
    <glyph glyph-name="tcedilla" unicode="&#x163;" horiz-adv-x="300" 
d="M100 825h75v-175h100v-75h-100v-575h-75v825zM176 -350h-125v75h125q31 0 53 22t22 53t-22 53t-53 22h-75v175h75v-100q62 0 106 -44t44 -106t-44 -106t-106 -44z" />
    <glyph glyph-name="Tcaron" unicode="&#x164;" horiz-adv-x="550" 
d="M238 750h-238v75h550v-75h-237v-750h-75v750zM174 1133l100 -102l102 102h107l-209 -207l-207 207h107z" />
    <glyph glyph-name="tcaron" unicode="&#x165;" horiz-adv-x="500" 
d="M100 825h75v-175h100v-75h-100v-575h-75v825zM350 624l60 225h79l-60 -225h-79z" />
    <glyph glyph-name="Tbar" unicode="&#x166;" horiz-adv-x="550" 
d="M238 450v300h-238v75h550v-75h-237v-300h125v-75h-125v-375h-75v375h-125v75h125z" />
    <glyph glyph-name="tbar" unicode="&#x167;" horiz-adv-x="300" 
d="M100 375v450h75v-175h100v-75h-100v-200h100v-75h-100v-300h-75v300h-100v75h100z" />
    <glyph glyph-name="Utilde" unicode="&#x168;" 
d="M75 300v525h75v-525q0 -104 73 -177t177 -73t177 73t73 177v525h75v-525q0 -135 -95 -230t-230 -95t-230 95t-95 230zM588 1020v-77q-52 -19 -98 -19q-43 0 -87.5 15t-90.5 15q-42 0 -99 -21v77q52 19 99 19q49 0 94 -15t84 -15q41 0 98 21z" />
    <glyph glyph-name="utilde" unicode="&#x169;" 
d="M625 189v461h75v-650h-75v65q-94 -90 -225 -90q-135 0 -230 95t-95 230v350h75v-350q0 -104 73 -177t177 -73t177 73q30 30 48 66zM575 845v-77q-52 -19 -98 -19q-43 0 -87.5 15t-90.5 15q-42 0 -99 -21v77q52 19 99 19q49 0 94 -15t84 -15q41 0 98 21z" />
    <glyph glyph-name="Umacron" unicode="&#x16a;" 
d="M75 300v525h75v-525q0 -104 73 -177t177 -73t177 73t73 177v525h75v-525q0 -135 -95 -230t-230 -95t-230 95t-95 230zM550 1000v-75h-300v75h300z" />
    <glyph glyph-name="umacron" unicode="&#x16b;" 
d="M625 189v461h75v-650h-75v65q-94 -90 -225 -90q-135 0 -230 95t-95 230v350h75v-350q0 -104 73 -177t177 -73t177 73q30 30 48 66zM538 825v-75h-300v75h300z" />
    <glyph glyph-name="Ubreve" unicode="&#x16c;" 
d="M75 300v525h75v-525q0 -104 73 -177t177 -73t177 73t73 177v525h75v-525q0 -135 -95 -230t-230 -95t-230 95t-95 230zM507 1075h81q-28 -68 -55 -95q-55 -55 -133 -55t-132 55q-28 27 -56 95h80q16 -29 29 -41q33 -34 79 -34t80 34q12 12 27 41z" />
    <glyph glyph-name="ubreve" unicode="&#x16d;" 
d="M625 189v461h75v-650h-75v65q-94 -90 -225 -90q-135 0 -230 95t-95 230v350h75v-350q0 -104 73 -177t177 -73t177 73q30 30 48 66zM495 900h81q-28 -68 -55 -95q-55 -55 -133 -55t-132 55q-28 27 -56 95h80q16 -29 29 -41q33 -34 79 -34t80 34q12 12 27 41z" />
    <glyph glyph-name="Uring" unicode="&#x16e;" 
d="M75 300v525h75v-525q0 -104 73 -177t177 -73t177 73t73 177v525h75v-525q0 -135 -95 -230t-230 -95t-230 95t-95 230zM400 925q-52 0 -88.5 36.5t-36.5 88.5t36.5 88.5t88.5 36.5t88.5 -36.5t36.5 -88.5t-36.5 -88.5t-88.5 -36.5zM450 1050q0 21 -14.5 35.5t-35.5 14.5
t-35.5 -14.5t-14.5 -35.5t14.5 -35.5t35.5 -14.5t35.5 14.5t14.5 35.5z" />
    <glyph glyph-name="uring" unicode="&#x16f;" 
d="M625 189v461h75v-650h-75v65q-94 -90 -225 -90q-135 0 -230 95t-95 230v350h75v-350q0 -104 73 -177t177 -73t177 73q30 30 48 66zM388 750q-52 0 -88.5 36.5t-36.5 88.5t36.5 88.5t88.5 36.5t88.5 -36.5t36.5 -88.5t-36.5 -88.5t-88.5 -36.5zM438 875q0 21 -14.5 35.5
t-35.5 14.5t-35.5 -14.5t-14.5 -35.5t14.5 -35.5t35.5 -14.5t35.5 14.5t14.5 35.5z" />
    <glyph glyph-name="Uhungarumlaut" unicode="&#x170;" 
d="M75 300v525h75v-525q0 -104 73 -177t177 -73t177 73t73 177v525h75v-525q0 -135 -95 -230t-230 -95t-230 95t-95 230zM275 925l60 225h79l-60 -225h-79zM450 925l60 225h79l-60 -225h-79z" />
    <glyph glyph-name="uhungarumlaut" unicode="&#x171;" 
d="M625 189v461h75v-650h-75v65q-94 -90 -225 -90q-135 0 -230 95t-95 230v350h75v-350q0 -104 73 -177t177 -73t177 73q30 30 48 66zM261 750l60 225h79l-60 -225h-79zM436 750l60 225h79l-60 -225h-79z" />
    <glyph glyph-name="Uogonek" unicode="&#x172;" 
d="M75 300v525h75v-525q0 -104 73 -177t177 -73t177 73t73 177v525h75v-525q0 -135 -95 -230t-230 -95t-230 95t-95 230zM375 -249q-62 0 -106 44t-44 106t44 106t131 44v-75q-56 0 -78 -22t-22 -53t22 -53t53 -22h125v-75h-125z" />
    <glyph glyph-name="uogonek" unicode="&#x173;" 
d="M625 189v461h75v-650h-75v65q-94 -90 -225 -90q-135 0 -230 95t-95 230v350h75v-350q0 -104 73 -177t177 -73t177 73q30 30 48 66zM650 -225q-62 0 -106 44t-44 106t44 106t131 44v-75q-56 0 -78 -22t-22 -53t22 -53t53 -22h125v-75h-125z" />
    <glyph glyph-name="Wcircumflex" unicode="&#x174;" horiz-adv-x="1125" 
d="M594 690l201 -550l250 685h80l-301 -825h-58l-199 547l-200 -547h-58l-301 825h80l250 -685l201 550h55zM667 800l-100 102l-102 -102h-107l209 207l207 -207h-107z" />
    <glyph glyph-name="wcircumflex" unicode="&#x175;" horiz-adv-x="975" 
d="M489 505l-183 -505h-64l-236 650h81l188 -525l186 525h56l188 -525l186 525h81l-236 -650h-64zM590 750l-100 102l-102 -102h-107l209 207l207 -207h-107z" />
    <glyph glyph-name="Ycircumflex" unicode="&#x176;" horiz-adv-x="700" 
d="M313 0v299l-304 526h87l255 -441l254 441h87l-304 -526v-299h-75zM452 925l-100 102l-102 -102h-107l209 207l207 -207h-107z" />
    <glyph glyph-name="ycircumflex" unicode="&#x177;" 
d="M625 0v65q-94 -90 -225 -90q-135 0 -230 95t-95 230v350h75v-350q0 -104 73 -177t177 -73t177 73q30 30 48 66v461h75v-650q0 -135 -95 -230t-230 -95v75q104 0 177 73t73 177zM489 750l-100 102l-102 -102h-107l209 207l207 -207h-107z" />
    <glyph glyph-name="Ydieresis" unicode="&#x178;" horiz-adv-x="700" 
d="M313 0v299l-304 526h87l255 -441l254 441h87l-304 -526v-299h-75zM301 1025v-100h-75v100h75zM476 1025v-100h-75v100h75z" />
    <glyph glyph-name="Zacute" unicode="&#x179;" horiz-adv-x="650" 
d="M625 825v-53l-488 -697h488v-75h-600v46l493 704h-493v75h600zM279 925l60 225h79l-60 -225h-79z" />
    <glyph glyph-name="zacute" unicode="&#x17a;" horiz-adv-x="600" 
d="M459 575h-434v75h550v-52l-432 -523h432v-75h-550v50zM254 750l60 225h79l-60 -225h-79z" />
    <glyph glyph-name="Zdotaccent" unicode="&#x17b;" horiz-adv-x="650" 
d="M625 825v-53l-488 -697h488v-75h-600v46l493 704h-493v75h600zM363 1025v-100h-75v100h75z" />
    <glyph glyph-name="zdotaccent" unicode="&#x17c;" horiz-adv-x="600" 
d="M459 575h-434v75h550v-52l-432 -523h432v-75h-550v50zM338 850v-100h-75v100h75z" />
    <glyph glyph-name="Zcaron" unicode="&#x17d;" horiz-adv-x="650" 
d="M625 825v-53l-488 -697h488v-75h-600v46l493 704h-493v75h600zM224 1133l100 -102l102 102h107l-209 -207l-207 207h107z" />
    <glyph glyph-name="zcaron" unicode="&#x17e;" horiz-adv-x="600" 
d="M459 575h-434v75h550v-52l-432 -523h432v-75h-550v50zM199 958l100 -102l102 102h107l-209 -207l-207 207h107z" />
    <glyph glyph-name="longs" unicode="&#x17f;" horiz-adv-x="350" 
d="M76.0166 550.017q0 113.993 79.9951 193.988q80.9951 80.9951 193.988 80.9951v-74.9951q-82.9951 0 -140.991 -58.4971q-57.9971 -58.4961 -57.9971 -141.491v-549.966h-74.9951v549.966z" />
    <glyph glyph-name="bstroke" unicode="&#x180;" horiz-adv-x="775" 
d="M175 411v-222q18 -36 48 -66q73 -73 177 -73t177 73t73 177t-73 177t-177 73t-177 -73q-30 -30 -48 -66zM175 825v-290q94 90 225 90q135 0 230 -95t95 -230t-95 -230t-230 -95q-131 0 -225 90v-65h-75v825h75zM275 750v-75h-275v75h275z" />
    <glyph glyph-name="btopbar" unicode="&#x183;" horiz-adv-x="775" 
d="M175 411v-222q18 -36 48 -66q73 -73 177 -73t177 73t73 177t-73 177t-177 73t-177 -73q-30 -30 -48 -66zM625 825v-75h-450v-215q94 90 225 90q135 0 230 -95t95 -230t-95 -230t-230 -95q-131 0 -225 90v-65h-75v825h525z" />
    <glyph glyph-name="africand" unicode="&#x189;" horiz-adv-x="900" 
d="M176 375v-300h262q140 0 238.5 99t98.5 239q0 139 -98.5 238t-238.5 99h-262v-300h99v-75h-99zM101 450v375h337q171 0 291.5 -121t120.5 -291q0 -171 -120.5 -292t-291.5 -121h-337v375h-101v75h101z" />
    <glyph glyph-name="Dtopbar" unicode="&#x18b;" horiz-adv-x="900" 
d="M850 413q0 -171 -120.5 -292t-291.5 -121h-337v825h337q171 0 291.5 -121t120.5 -291zM438 750h-262v-675h262q140 0 238.5 99t98.5 239q0 139 -98.5 238t-238.5 99zM301 825v-75h-300v75h300z" />
    <glyph glyph-name="dtopbar" unicode="&#x18c;" horiz-adv-x="900" 
d="M624.011 411v-222q-17.999 -36 -47.9971 -66q-72.9961 -73 -176.989 -73t-176.989 73q-72.9951 73 -72.9951 177t72.9951 177q72.9961 73 176.989 73t176.989 -73q29.998 -30 47.9971 -66zM174.038 825v-75h449.973v-215q-93.9941 90 -224.986 90
q-134.992 0 -229.986 -95t-94.9941 -230t94.9941 -230t229.986 -95q130.992 0 224.986 90v-65h74.9951v825h-524.968z" />
    <glyph glyph-name="turneddelta" unicode="&#x18d;" horiz-adv-x="650" 
d="M325.02 250.024q72.9961 0 123.993 50.9971q50.9961 50.9971 50.9961 123.992q0 71.9961 -50.9961 123.492q-50.9971 51.4971 -123.993 51.4971q-71.9951 0 -123.492 -51.4971q-51.4971 -51.4961 -51.4971 -123.492q0 -72.9951 51.4971 -123.992t123.492 -50.9971z
M148.03 248.024q-72.9951 72.9961 -72.9951 176.989q0 103.994 72.9951 176.989q72.9961 72.9951 176.989 72.9951q103.994 0 176.989 -72.9951q72.9961 -72.9951 72.9961 -176.989q0 -103.993 -72.9961 -176.989q-57.9961 -57.9961 -135.991 -69.9951l170.989 -124.993
v-52.9961h-449.973v74.9951h291.982l-200.987 146.991q-16 11.999 -29.999 25.998z" />
    <glyph glyph-name="reversedE" unicode="&#x18e;" horiz-adv-x="650" 
d="M49.0371 825v-75h424.974v-300h-324.98v-75h324.98v-300h-424.974v-75h499.969v825h-499.969z" />
    <glyph glyph-name="Schwa" unicode="&#x18f;" horiz-adv-x="875" 
d="M669 184q81 97 81 229q0 150 -106 256t-257 106q-131 0 -228 -81zM387 50q132 0 229 81l-563 564q133 155 334 155q182 0 310 -128t128 -309q0 -182 -128 -310t-310 -128q-201 0 -342 165l61 44q111 -134 281 -134z" />
    <glyph glyph-name="openE" unicode="&#x190;" horiz-adv-x="625" 
d="M326.019 475q-61.9961 0 -105.994 44q-43.9971 44 -43.9971 106t43.9971 106q43.998 44 105.994 44t105.993 -44t43.9971 -106h74.9961q0 93 -65.9961 159t-158.99 66t-158.99 -66t-65.9961 -159t65.9961 -159q13.999 -14 29.998 -26q-24.999 -15 -47.9971 -38
q-72.9961 -73 -72.9961 -177t72.9961 -177q72.9951 -73 176.989 -73q103.993 0 176.989 73q72.9951 73 72.9951 177h-74.9951q0 -73 -50.9971 -124t-123.992 -51q-71.9961 0 -123.493 51q-51.4961 51 -51.4961 124q0 72 51.4961 123.5q51.4971 51.5 123.493 51.5v75z" />
    <glyph glyph-name="Fhook" unicode="&#x191;" horiz-adv-x="625" 
d="M175 450h325v-75h-325v-425q0 -114 -80 -194q-81 -81 -194 -81v75q83 0 141 58.5t58 141.5v875h500v-75h-425v-300z" />
    <glyph glyph-name="florin" unicode="&#x192;" horiz-adv-x="325" 
d="M225 750v-100h100v-75h-100v-575q0 -135 -95 -230t-230 -95v75q104 0 177 73t73 177v750q0 135 95 230t230 95v-75q-104 0 -177 -73t-73 -177z" />
    <glyph glyph-name="Iota" unicode="&#x196;" horiz-adv-x="275" 
d="M175 825v-825h-75v825h75z" />
    <glyph glyph-name="Istroke" unicode="&#x197;" horiz-adv-x="275" 
d="M175 825v-825h-75v825h75zM301 450v-75h-325v75h325z" />
    <glyph glyph-name="lbar" unicode="&#x19a;" horiz-adv-x="275" 
d="M176 825v-825h-75v825h75zM269 598l53 -53l-318 -318l-53 53z" />
    <glyph glyph-name="Ohorn" unicode="&#x1a0;" horiz-adv-x="1050" 
d="M925 413q0 -182 -128 -310t-309 -128q-182 0 -310 128t-128 310q0 181 128 309t310 128q181 0 309 -128t128 -309zM488 775q-151 0 -257 -106t-106 -256q0 -151 106 -257t257 -106q150 0 256 106t106 257q0 150 -106 256t-256 106zM1150 775q0 -62 -44 -106t-131 -44v75
q56 0 78 22t22 53v202h75v-202z" />
    <glyph glyph-name="ohorn" unicode="&#x1a1;" horiz-adv-x="900" 
d="M750 325q0 -145 -102.5 -247.5t-247.5 -102.5t-247.5 102.5t-102.5 247.5t102.5 247.5t247.5 102.5t247.5 -102.5t102.5 -247.5zM400 600q-114 0 -194.5 -80.5t-80.5 -194.5t80.5 -194.5t194.5 -80.5t194.5 80.5t80.5 194.5t-80.5 194.5t-194.5 80.5zM1001 601
q0 -62 -44 -106t-131 -44v75q56 0 78 22t22 53v202h75v-202z" />
    <glyph glyph-name="uni01A7" unicode="&#x1a7;" horiz-adv-x="725" 
d="M160.034 685q32.998 37 90.9951 63.5q57.9961 26.5 122.992 26.5q88.9941 0 141.991 -44t52.9971 -103q0 -54 -38.498 -93.5t-96.4941 -58.5l-205.987 -57q-73.9951 -22 -120.992 -77t-46.9971 -138q0 -93 78.9951 -161t215.986 -68q110.993 0 194.488 49.5
t129.492 126.5l-64.9961 41q-41.9971 -68 -113.493 -105t-143.491 -37q-109.993 0 -165.49 48q-55.4961 48 -55.4961 109q0 51 32.498 89.5t90.4941 53.5l192.988 55q83.9951 27 137.991 85q53.9971 58 53.9971 139q0 90 -73.9951 155.5q-73.9961 65.5 -195.988 65.5
q-92.9941 0 -164.99 -35.5q-71.9951 -35.5 -116.992 -86.5z" />
    <glyph glyph-name="uni01A8" unicode="&#x1a8;" horiz-adv-x="575" 
d="M482.006 99q-88.9941 -49 -180.989 -49q-78.9951 0 -127.992 32t-48.9971 85q0 39 22.999 66t73.9951 38l139.992 34q77.9951 23 117.492 70q39.498 47 39.498 113q0 76 -60.9961 130.5t-161.99 56.5q-141.991 0 -237.985 -79l57.9961 -50q77.9951 54 178.989 54
q72.9951 -2 110.993 -35.5t37.998 -77.5q0 -38 -23.999 -65.5q-23.998 -27.5 -73.9951 -41.5l-146.991 -38q-69.9961 -17 -109.493 -62.5q-39.498 -45.5 -39.498 -112.5q0 -85 70.9961 -138.5q70.9951 -53.5 180.988 -53.5q124.993 0 230.986 65z" />
    <glyph glyph-name="Uhorn" unicode="&#x1af;" horiz-adv-x="900" 
d="M75 300v525h75v-525q0 -104 73 -177t177 -73t177 73t73 177v525h75v-525q0 -135 -95 -230t-230 -95t-230 95t-95 230zM1001 775q0 -62 -44 -106t-131 -44v75q56 0 78 22t22 53v202h75v-202z" />
    <glyph glyph-name="uhorn" unicode="&#x1b0;" horiz-adv-x="875" 
d="M625 189v461h75v-650h-75v65q-94 -90 -225 -90q-135 0 -230 95t-95 230v350h75v-350q0 -104 73 -177t177 -73t177 73q30 30 48 66zM976 600q0 -62 -44 -106t-131 -44v75q56 0 78 22t22 53v202h75v-202z" />
    <glyph glyph-name="uni01B5" unicode="&#x1b5;" horiz-adv-x="650" 
d="M625 825v-53l-488 -697h488v-75h-600v46l493 704h-493v75h600zM488 450v-75h-325v75h325z" />
    <glyph glyph-name="uni01B6" unicode="&#x1b6;" horiz-adv-x="600" 
d="M459 575h-434v75h550v-52l-432 -523h432v-75h-550v50zM463 364v-75h-325v75h325z" />
    <glyph glyph-name="uni01C4" unicode="&#x1c4;" horiz-adv-x="1550" 
d="M850 413q0 -171 -120.5 -292t-291.5 -121h-337v825h337q171 0 291.5 -121t120.5 -291zM438 750h-262v-675h262q140 0 238.5 99t98.5 239q0 139 -98.5 238t-238.5 99zM1525 825v-53l-488 -697h488v-75h-600v46l493 704h-493v75h600zM1124 1133l100 -102l102 102h107
l-209 -207l-207 207h107z" />
    <glyph glyph-name="uni01C5" unicode="&#x1c5;" horiz-adv-x="1500" 
d="M850 413q0 -171 -120.5 -292t-291.5 -121h-337v825h337q171 0 291.5 -121t120.5 -291zM438 750h-262v-675h262q140 0 238.5 99t98.5 239q0 139 -98.5 238t-238.5 99zM1359 575h-434v75h550v-52l-432 -523h432v-75h-550v50zM1099 958l100 -102l102 102h107l-209 -207
l-207 207h107z" />
    <glyph glyph-name="uni01C6" unicode="&#x1c6;" horiz-adv-x="1425" 
d="M651 442q-20 42 -56 78q-80 80 -194 80t-194.5 -80.5t-80.5 -194.5t80.5 -194.5t194.5 -80.5t194 81q36 35 56 77v234zM651 825h75v-825h-75v80q-105 -105 -250 -105t-247.5 102.5t-102.5 247.5t102.5 247.5t247.5 102.5t250 -105v255zM1284 575h-434v75h550v-52
l-432 -523h432v-75h-550v50zM1024 958l100 -102l102 102h107l-209 -207l-207 207h107z" />
    <glyph glyph-name="uni01C7" unicode="&#x1c7;" horiz-adv-x="775" 
d="M425 0h-325v825h75v-750h250q83 0 141 58.5t58 141.5v550h75v-550q0 -114 -80 -194q-81 -81 -194 -81z" />
    <glyph glyph-name="uni01C8" unicode="&#x1c8;" horiz-adv-x="675" 
d="M100 825h75v-750h400v-75h-475v825zM500 0v650h75v-650q0 -135 -95 -230t-230 -95v75q104 0 177 73t73 177zM575 850v-100h-75v100h75z" />
    <glyph glyph-name="uni01C9" unicode="&#x1c9;" horiz-adv-x="550" 
d="M175 825v-825h-75v825h75zM375 0v650h75v-650q0 -135 -95 -230t-230 -95v75q104 0 177 73t73 177zM450 850v-100h-75v100h75z" />
    <glyph glyph-name="uni01CA" unicode="&#x1ca;" horiz-adv-x="1200" 
d="M100 825h56l519 -677v677h75v-825h-57l-518 676v-676h-75v825zM1125 275q0 -114 -80 -194q-81 -81 -194 -81v75q83 0 141 58.5t58 141.5v550h75v-550z" />
    <glyph glyph-name="uni01CB" unicode="&#x1cb;" horiz-adv-x="1125" 
d="M100 825h56l519 -677v677h75v-825h-57l-518 676v-676h-75v825zM950 0v650h75v-650q0 -135 -95 -230t-230 -95v75q104 0 177 73t73 177zM1025 850v-100h-75v100h75z" />
    <glyph glyph-name="uni01CC" unicode="&#x1cc;" horiz-adv-x="1075" 
d="M175 461v-461h-75v650h75v-65q94 90 225 90q135 0 230 -95t95 -230v-350h-75v350q0 104 -73 177t-177 73t-177 -73q-30 -30 -48 -66zM900 0v650h75v-650q0 -135 -95 -230t-230 -95v75q104 0 177 73t73 177zM975 850v-100h-75v100h75z" />
    <glyph glyph-name="uni01CD" unicode="&#x1cd;" horiz-adv-x="850" 
d="M665 200l-241 515l-241 -515h482zM700 125h-552l-58 -125h-83l385 825h64l386 -825h-84zM324 1133l100 -102l102 102h107l-209 -207l-207 207h107z" />
    <glyph glyph-name="uni01CE" unicode="&#x1ce;" horiz-adv-x="825" 
d="M650 442q-20 42 -55 78q-81 80 -195 80t-194.5 -80.5t-80.5 -194.5t80.5 -194.5t194.5 -80.5t195 81q35 35 55 77v234zM650 651h75v-651h-75v80q-105 -105 -250 -105t-247.5 102.5t-102.5 247.5t102.5 247.5t247.5 102.5t250 -105v81zM287 958l100 -102l102 102h107
l-209 -207l-207 207h107z" />
    <glyph glyph-name="uni01CF" unicode="&#x1cf;" horiz-adv-x="275" 
d="M176 825v-825h-75v825h75zM37 1133l100 -102l102 102h107l-209 -207l-207 207h107z" />
    <glyph glyph-name="uni01D0" unicode="&#x1d0;" horiz-adv-x="275" 
d="M176 650v-650h-75v650h75zM37 958l100 -102l102 102h107l-209 -207l-207 207h107z" />
    <glyph glyph-name="uni01D1" unicode="&#x1d1;" horiz-adv-x="975" 
d="M925 413q0 -182 -128 -310t-309 -128q-182 0 -310 128t-128 310q0 181 128 309t310 128q181 0 309 -128t128 -309zM488 775q-151 0 -257 -106t-106 -256q0 -151 106 -257t257 -106q150 0 256 106t106 257q0 150 -106 256t-256 106zM387 1133l100 -102l102 102h107
l-209 -207l-207 207h107z" />
    <glyph glyph-name="uni01D2" unicode="&#x1d2;" 
d="M750 325q0 -145 -102.5 -247.5t-247.5 -102.5t-247.5 102.5t-102.5 247.5t102.5 247.5t247.5 102.5t247.5 -102.5t102.5 -247.5zM400 600q-114 0 -194.5 -80.5t-80.5 -194.5t80.5 -194.5t194.5 -80.5t194.5 80.5t80.5 194.5t-80.5 194.5t-194.5 80.5zM299 958l100 -102
l102 102h107l-209 -207l-207 207h107z" />
    <glyph glyph-name="uni01D3" unicode="&#x1d3;" 
d="M75 300v525h75v-525q0 -104 73 -177t177 -73t177 73t73 177v525h75v-525q0 -135 -95 -230t-230 -95t-230 95t-95 230zM299 1133l100 -102l102 102h107l-209 -207l-207 207h107z" />
    <glyph glyph-name="uni01D4" unicode="&#x1d4;" 
d="M625 189v461h75v-650h-75v65q-94 -90 -225 -90q-135 0 -230 95t-95 230v350h75v-350q0 -104 73 -177t177 -73t177 73q30 30 48 66zM287 958l100 -102l102 102h107l-209 -207l-207 207h107z" />
    <glyph glyph-name="eturned" unicode="&#x1dd;" horiz-adv-x="725" 
d="M156.034 106.033q71.9961 -55.9961 166.99 -55.9961q113.993 0 194.488 80.4941q80.4951 80.4951 80.4951 194.488q0 94.9941 -55.9971 166.99zM489.015 545.007q-71.9961 54.9961 -165.99 54.9961q-113.993 0 -194.988 -80.9951l-52.9971 52.9971
q102.994 102.993 247.985 102.993t247.485 -102.493q102.493 -102.494 102.493 -247.485t-102.493 -247.484q-102.494 -102.494 -247.485 -102.494t-247.985 101.994q-12.999 13.999 -24.998 28.998z" />
    <glyph glyph-name="AEmacron" unicode="&#x1e2;" horiz-adv-x="1075" 
d="M599 750v-300h325v-75h-325v-300h425v-75h-500v125h-376l-58 -125h-83l385 825h632v-75h-425zM524 200v550h-83l-258 -550h341zM701 1000v-75h-300v75h300z" />
    <glyph glyph-name="aemacron" unicode="&#x1e3;" horiz-adv-x="1175" 
d="M1012 544q-72 56 -167 56q-114 0 -194.5 -80.5t-80.5 -194.5q0 -95 56 -167zM570 108q-75 93 -75 217t75 217q-73 58 -170 58q-114 0 -194.5 -80.5t-80.5 -194.5t80.5 -194.5t194.5 -80.5q97 0 170 58zM600 614v36h75v-18q76 43 170 43q145 0 248 -102q13 -14 25 -29
l-439 -439q72 -55 166 -55q114 0 195 81l53 -53q-103 -103 -248 -103q-128 0 -223 80q-95 -80 -222 -80q-145 0 -247.5 102.5t-102.5 247.5t102.5 247.5t247.5 102.5q113 0 200 -61zM750 850v-75h-300v75h300z" />
    <glyph glyph-name="Gcaron" unicode="&#x1e6;" horiz-adv-x="875" 
d="M803 109q-124 -134 -315 -134q-182 0 -310 128t-128 310q0 181 128 309t310 128q181 0 309 -128l9 -9l-54 -52l-8 8q-106 106 -256 106q-151 0 -257 -106t-106 -256q0 -151 106 -257t257 -106q139 0 240 91v234h-254v75h329v-341zM358 1133l100 -102l102 102h107
l-209 -207l-207 207h107z" />
    <glyph glyph-name="gcaron" unicode="&#x1e7;" horiz-adv-x="825" 
d="M650 442q-20 42 -55 78q-81 80 -195 80t-194.5 -80.5t-80.5 -194.5t80.5 -194.5t194.5 -80.5t195 81q35 35 55 77v234zM650 0v80q-105 -105 -250 -105t-247.5 102.5t-102.5 247.5t102.5 247.5t247.5 102.5t250 -105v81h75v-651q0 -135 -95 -230t-230 -95v75q104 0 177 73
t73 177zM292 958l100 -102l102 102h107l-209 -207l-207 207h107z" />
    <glyph glyph-name="uni01E8" unicode="&#x1e8;" horiz-adv-x="650" 
d="M175 825v-825h-75v825h75zM618 825l-299 -412l299 -413h-94l-299 413l299 412h94zM232 1107l100 -102l102 102h107l-209 -207l-207 207h107z" />
    <glyph glyph-name="uni01E9" unicode="&#x1e9;" horiz-adv-x="600" 
d="M175 825v-825h-75v825h75zM549 650l-236 -325l236 -325h-93l-236 325l236 325h93zM223 1106l100 -102l102 102h107l-209 -207l-207 207h107z" />
    <glyph glyph-name="uni01EA" unicode="&#x1ea;" horiz-adv-x="975" 
d="M925 413q0 -182 -128 -310t-309 -128q-182 0 -310 128t-128 310q0 181 128 309t310 128q181 0 309 -128t128 -309zM488 775q-151 0 -257 -106t-106 -256q0 -151 106 -257t257 -106q150 0 256 106t106 257q0 150 -106 256t-256 106zM475 -249q-62 0 -106 44t-44 106
t44 106t131 44v-75q-56 0 -78 -22t-22 -53t22 -53t53 -22h125v-75h-125z" />
    <glyph glyph-name="uni01EB" unicode="&#x1eb;" 
d="M750 325q0 -145 -102.5 -247.5t-247.5 -102.5t-247.5 102.5t-102.5 247.5t102.5 247.5t247.5 102.5t247.5 -102.5t102.5 -247.5zM400 600q-114 0 -194.5 -80.5t-80.5 -194.5t80.5 -194.5t194.5 -80.5t194.5 80.5t80.5 194.5t-80.5 194.5t-194.5 80.5zM375 -249
q-62 0 -106 44t-44 106t44 106t131 44v-75q-56 0 -78 -22t-22 -53t22 -53t53 -22h125v-75h-125z" />
    <glyph glyph-name="uni01EC" unicode="&#x1ec;" horiz-adv-x="975" 
d="M925 413q0 -182 -128 -310t-309 -128q-182 0 -310 128t-128 310q0 181 128 309t310 128q181 0 309 -128t128 -309zM488 775q-151 0 -257 -106t-106 -256q0 -151 106 -257t257 -106q150 0 256 106t106 257q0 150 -106 256t-256 106zM475 -250q-62 0 -106 44t-44 106
t44 106t131 44v-75q-56 0 -78 -22t-22 -53t22 -53t53 -22h125v-75h-125zM637 1025v-75h-300v75h300z" />
    <glyph glyph-name="uni01ED" unicode="&#x1ed;" 
d="M750 325q0 -145 -102.5 -247.5t-247.5 -102.5t-247.5 102.5t-102.5 247.5t102.5 247.5t247.5 102.5t247.5 -102.5t102.5 -247.5zM400 600q-114 0 -194.5 -80.5t-80.5 -194.5t80.5 -194.5t194.5 -80.5t194.5 80.5t80.5 194.5t-80.5 194.5t-194.5 80.5zM375 -250
q-62 0 -106 44t-44 106t44 106t131 44v-75q-56 0 -78 -22t-22 -53t22 -53t53 -22h125v-75h-125zM550 850v-75h-300v75h300z" />
    <glyph glyph-name="uni01F0" unicode="&#x1f0;" horiz-adv-x="275" 
d="M150 0v650h75v-650q0 -135 -95 -230t-230 -95v75q104 0 177 73t73 177zM89 958l100 -102l102 102h107l-209 -207l-207 207h107z" />
    <glyph glyph-name="DZ" unicode="&#x1f1;" horiz-adv-x="1550" 
d="M850 413q0 -171 -120.5 -292t-291.5 -121h-337v825h337q171 0 291.5 -121t120.5 -291zM438 750h-262v-675h262q140 0 238.5 99t98.5 239q0 139 -98.5 238t-238.5 99zM1525 825v-53l-488 -697h488v-75h-600v46l493 704h-493v75h600z" />
    <glyph glyph-name="Dz" unicode="&#x1f2;" horiz-adv-x="1500" 
d="M850 413q0 -171 -120.5 -292t-291.5 -121h-337v825h337q171 0 291.5 -121t120.5 -291zM438 750h-262v-675h262q140 0 238.5 99t98.5 239q0 139 -98.5 238t-238.5 99zM1359 575h-434v75h550v-52l-432 -523h432v-75h-550v50z" />
    <glyph glyph-name="uni01F3" unicode="&#x1f3;" horiz-adv-x="1425" 
d="M651 442q-20 42 -56 78q-80 80 -194 80t-194.5 -80.5t-80.5 -194.5t80.5 -194.5t194.5 -80.5t194 81q36 35 56 77v234zM651 825h75v-825h-75v80q-105 -105 -250 -105t-247.5 102.5t-102.5 247.5t102.5 247.5t247.5 102.5t250 -105v255zM1284 575h-434v75h550v-52
l-432 -523h432v-75h-550v50z" />
    <glyph glyph-name="Gacute" unicode="&#x1f4;" horiz-adv-x="875" 
d="M803 109q-124 -134 -315 -134q-182 0 -310 128t-128 310q0 181 128 309t310 128q181 0 309 -128l9 -9l-54 -52l-8 8q-106 106 -256 106q-151 0 -257 -106t-106 -256q0 -151 106 -257t257 -106q139 0 240 91v234h-254v75h329v-341zM435 925l60 225h79l-60 -225h-79z" />
    <glyph glyph-name="gacute" unicode="&#x1f5;" horiz-adv-x="825" 
d="M650 442q-20 42 -55 78q-81 80 -195 80t-194.5 -80.5t-80.5 -194.5t80.5 -194.5t194.5 -80.5t195 81q35 35 55 77v234zM650 0v80q-105 -105 -250 -105t-247.5 102.5t-102.5 247.5t102.5 247.5t247.5 102.5t250 -105v81h75v-651q0 -135 -95 -230t-230 -95v75q104 0 177 73
t73 177zM376 750l60 225h79l-60 -225h-79z" />
    <glyph glyph-name="Ngrave" unicode="&#x1f8;" horiz-adv-x="850" 
d="M100 825h56l519 -677v677h75v-825h-57l-518 676v-676h-75v825zM392 925l-60 225h79l60 -225h-79z" />
    <glyph glyph-name="ngrave" unicode="&#x1f9;" 
d="M175 461v-461h-75v650h75v-65q94 90 225 90q135 0 230 -95t95 -230v-350h-75v350q0 104 -73 177t-177 73t-177 -73q-30 -30 -48 -66zM360 775l-60 225h79l60 -225h-79z" />
    <glyph glyph-name="Aringacute" unicode="&#x1fa;" horiz-adv-x="903" 
d="M665 200l-241 515l-241 -515h482zM700 125h-552l-58 -125h-83l385 825h64l386 -825h-84zM424 774q-52 0 -88.5 36.5t-36.5 88.5t36.5 88.5t88.5 36.5t88.5 -36.5t36.5 -88.5t-36.5 -88.5t-88.5 -36.5zM474 899q0 21 -14.5 35.5t-35.5 14.5t-35.5 -14.5t-14.5 -35.5
t14.5 -35.5t35.5 -14.5t35.5 14.5t14.5 35.5zM411 974l60 225h79l-60 -225h-79z" />
    <glyph glyph-name="aringacute" unicode="&#x1fb;" horiz-adv-x="825" 
d="M650 442q-20 42 -55 78q-81 80 -195 80t-194.5 -80.5t-80.5 -194.5t80.5 -194.5t194.5 -80.5t195 81q35 35 55 77v234zM650 651h75v-651h-75v80q-105 -105 -250 -105t-247.5 102.5t-102.5 247.5t102.5 247.5t247.5 102.5t250 -105v81zM388 750q-52 0 -88.5 36.5
t-36.5 88.5t36.5 88.5t88.5 36.5t88.5 -36.5t36.5 -88.5t-36.5 -88.5t-88.5 -36.5zM438 875q0 21 -14.5 35.5t-35.5 14.5t-35.5 -14.5t-14.5 -35.5t14.5 -35.5t35.5 -14.5t35.5 14.5t14.5 35.5zM361 950l60 225h79l-60 -225h-79z" />
    <glyph glyph-name="AEacute" unicode="&#x1fc;" horiz-adv-x="1075" 
d="M599 750v-300h325v-75h-325v-300h425v-75h-500v125h-376l-58 -125h-83l385 825h632v-75h-425zM524 200v550h-83l-258 -550h341zM469 925l60 225h79l-60 -225h-79z" />
    <glyph glyph-name="aeacute" unicode="&#x1fd;" horiz-adv-x="1175" 
d="M1012 544q-72 56 -167 56q-114 0 -194.5 -80.5t-80.5 -194.5q0 -95 56 -167zM570 108q-75 93 -75 217t75 217q-73 58 -170 58q-114 0 -194.5 -80.5t-80.5 -194.5t80.5 -194.5t194.5 -80.5q97 0 170 58zM600 614v36h75v-18q76 43 170 43q145 0 248 -102q13 -14 25 -29
l-439 -439q72 -55 166 -55q114 0 195 81l53 -53q-103 -103 -248 -103q-128 0 -223 80q-95 -80 -222 -80q-145 0 -247.5 102.5t-102.5 247.5t102.5 247.5t247.5 102.5q113 0 200 -61zM538 775l60 225h79l-60 -225h-79z" />
    <glyph glyph-name="Oslashacute" unicode="&#x1fe;" horiz-adv-x="975" 
d="M925 413q0 -182 -128 -310t-309 -128q-182 0 -310 128t-128 310q0 181 128 309t310 128q181 0 309 -128t128 -309zM488 775q-151 0 -257 -106t-106 -256q0 -151 106 -257t257 -106q150 0 256 106t106 257q0 150 -106 256t-256 106zM328 -100l275 1025h78l-275 -1025h-78z
M775 925l60 225h79l-60 -225h-79z" />
    <glyph glyph-name="oslashacute" unicode="&#x1ff;" 
d="M750 325q0 -145 -102.5 -247.5t-247.5 -102.5t-247.5 102.5t-102.5 247.5t102.5 247.5t247.5 102.5t247.5 -102.5t102.5 -247.5zM400 600q-114 0 -194.5 -80.5t-80.5 -194.5t80.5 -194.5t194.5 -80.5t194.5 80.5t80.5 194.5t-80.5 194.5t-194.5 80.5zM571 750l-228 -850
h-78l228 850h78zM661 749l60 225h79l-60 -225h-79z" />
    <glyph glyph-name="uni0200" unicode="&#x200;" horiz-adv-x="850" 
d="M665 200l-241 515l-241 -515h482zM700 125h-552l-58 -125h-83l385 825h64l386 -825h-84zM460 925l-60 225h79l60 -225h-79zM285 925l-60 225h79l60 -225h-79z" />
    <glyph glyph-name="uni0201" unicode="&#x201;" horiz-adv-x="825" 
d="M650 442q-20 42 -55 78q-81 80 -195 80t-194.5 -80.5t-80.5 -194.5t80.5 -194.5t194.5 -80.5t195 81q35 35 55 77v234zM650 651h75v-651h-75v80q-105 -105 -250 -105t-247.5 102.5t-102.5 247.5t102.5 247.5t247.5 102.5t250 -105v81zM435 775l-60 225h79l60 -225h-79z
M260 775l-60 225h79l60 -225h-79z" />
    <glyph glyph-name="uni0202" unicode="&#x202;" horiz-adv-x="850" 
d="M665 200l-241 515l-241 -515h482zM700 125h-552l-58 -125h-83l385 825h64l386 -825h-84zM318 924h-81q28 68 55 95q55 55 133 55t132 -55q28 -27 56 -95h-80q-16 29 -29 41q-33 34 -79 34t-80 -34q-12 -12 -27 -41z" />
    <glyph glyph-name="uni0203" unicode="&#x203;" horiz-adv-x="825" 
d="M650 442q-20 42 -55 78q-81 80 -195 80t-194.5 -80.5t-80.5 -194.5t80.5 -194.5t194.5 -80.5t195 81q35 35 55 77v234zM650 651h75v-651h-75v80q-105 -105 -250 -105t-247.5 102.5t-102.5 247.5t102.5 247.5t247.5 102.5t250 -105v81zM280 776h-81q28 68 55 95
q55 55 133 55t132 -55q28 -27 56 -95h-80q-16 29 -29 41q-33 34 -79 34t-80 -34q-12 -12 -27 -41z" />
    <glyph glyph-name="uni0204" unicode="&#x204;" horiz-adv-x="650" 
d="M600 825v-75h-425v-300h325v-75h-325v-300h425v-75h-500v825h500zM411 925l-60 225h79l60 -225h-79zM236 925l-60 225h79l60 -225h-79z" />
    <glyph glyph-name="uni0205" unicode="&#x205;" horiz-adv-x="725" 
d="M567 544q-72 56 -167 56q-114 0 -194.5 -80.5t-80.5 -194.5q0 -95 56 -167zM234 105q72 -55 166 -55q114 0 195 81l53 -53q-103 -103 -248 -103t-247.5 102.5t-102.5 247.5t102.5 247.5t247.5 102.5t248 -102q13 -14 25 -29zM422 774l-60 225h79l60 -225h-79zM247 774
l-60 225h79l60 -225h-79z" />
    <glyph glyph-name="uni0206" unicode="&#x206;" horiz-adv-x="650" 
d="M600 825v-75h-425v-300h325v-75h-325v-300h425v-75h-500v825h500zM243 924h-81q28 68 55 95q55 55 133 55t132 -55q28 -27 56 -95h-80q-16 29 -29 41q-33 34 -79 34t-80 -34q-12 -12 -27 -41z" />
    <glyph glyph-name="uni0207" unicode="&#x207;" horiz-adv-x="725" 
d="M567 544q-72 56 -167 56q-114 0 -194.5 -80.5t-80.5 -194.5q0 -95 56 -167zM234 105q72 -55 166 -55q114 0 195 81l53 -53q-103 -103 -248 -103t-247.5 102.5t-102.5 247.5t102.5 247.5t247.5 102.5t248 -102q13 -14 25 -29zM255 776h-81q28 68 55 95q55 55 133 55
t132 -55q28 -27 56 -95h-80q-16 29 -29 41q-33 34 -79 34t-80 -34q-12 -12 -27 -41z" />
    <glyph glyph-name="uni0208" unicode="&#x208;" horiz-adv-x="275" 
d="M175 825v-825h-75v825h75zM186 925l-60 225h79l60 -225h-79zM11 925l-60 225h79l60 -225h-79z" />
    <glyph glyph-name="uni0209" unicode="&#x209;" horiz-adv-x="275" 
d="M175 650v-650h-75v650h75zM186 750l-60 225h79l60 -225h-79zM11 750l-60 225h79l60 -225h-79z" />
    <glyph glyph-name="uni020A" unicode="&#x20a;" horiz-adv-x="275" 
d="M176 825v-825h-75v825h75zM31 924h-81q28 68 55 95q55 55 133 55t132 -55q28 -27 56 -95h-80q-16 29 -29 41q-33 34 -79 34t-80 -34q-12 -12 -27 -41z" />
    <glyph glyph-name="uni020B" unicode="&#x20b;" horiz-adv-x="275" 
d="M176 650v-650h-75v650h75zM31 749h-81q28 68 55 95q55 55 133 55t132 -55q28 -27 56 -95h-80q-16 29 -29 41q-33 34 -79 34t-80 -34q-12 -12 -27 -41z" />
    <glyph glyph-name="uni020C" unicode="&#x20c;" horiz-adv-x="975" 
d="M925 413q0 -182 -128 -310t-309 -128q-182 0 -310 128t-128 310q0 181 128 309t310 128q181 0 309 -128t128 -309zM488 775q-151 0 -257 -106t-106 -256q0 -151 106 -257t257 -106q150 0 256 106t106 257q0 150 -106 256t-256 106zM521 950l-60 225h79l60 -225h-79z
M346 950l-60 225h79l60 -225h-79z" />
    <glyph glyph-name="uni020D" unicode="&#x20d;" 
d="M750 325q0 -145 -102.5 -247.5t-247.5 -102.5t-247.5 102.5t-102.5 247.5t102.5 247.5t247.5 102.5t247.5 -102.5t102.5 -247.5zM400 600q-114 0 -194.5 -80.5t-80.5 -194.5t80.5 -194.5t194.5 -80.5t194.5 80.5t80.5 194.5t-80.5 194.5t-194.5 80.5zM435 775l-60 225h79
l60 -225h-79zM260 775l-60 225h79l60 -225h-79z" />
    <glyph glyph-name="uni020E" unicode="&#x20e;" horiz-adv-x="975" 
d="M925 413q0 -182 -128 -310t-309 -128q-182 0 -310 128t-128 310q0 181 128 309t310 128q181 0 309 -128t128 -309zM488 775q-151 0 -257 -106t-106 -256q0 -151 106 -257t257 -106q150 0 256 106t106 257q0 150 -106 256t-256 106zM381 950h-81q28 68 55 95q55 55 133 55
t132 -55q28 -27 56 -95h-80q-16 29 -29 41q-33 34 -79 34t-80 -34q-12 -12 -27 -41z" />
    <glyph glyph-name="uni020F" unicode="&#x20f;" 
d="M750 325q0 -145 -102.5 -247.5t-247.5 -102.5t-247.5 102.5t-102.5 247.5t102.5 247.5t247.5 102.5t247.5 -102.5t102.5 -247.5zM400 600q-114 0 -194.5 -80.5t-80.5 -194.5t80.5 -194.5t194.5 -80.5t194.5 80.5t80.5 194.5t-80.5 194.5t-194.5 80.5zM293 775h-81
q28 68 55 95q55 55 133 55t132 -55q28 -27 56 -95h-80q-16 29 -29 41q-33 34 -79 34t-80 -34q-12 -12 -27 -41z" />
    <glyph glyph-name="uni0210" unicode="&#x210;" horiz-adv-x="775" 
d="M388 750h-213v-475h213q98 0 167.5 69.5t69.5 168.5q0 98 -69.5 167.5t-167.5 69.5zM483 214q-45 -14 -95 -14h-213v-200h-75v825h288q129 0 220.5 -91.5t91.5 -220.5q0 -130 -91 -221q-28 -28 -58 -47l125 -245h-84zM435 925l-60 225h79l60 -225h-79zM260 925l-60 225
h79l60 -225h-79z" />
    <glyph glyph-name="uni0211" unicode="&#x211;" horiz-adv-x="425" 
d="M175 461v-461h-75v650h75v-65q94 90 225 90v-75q-104 0 -177 -73q-30 -30 -48 -66zM296 775l-60 225h79l60 -225h-79zM121 775l-60 225h79l60 -225h-79z" />
    <glyph glyph-name="uni0212" unicode="&#x212;" horiz-adv-x="775" 
d="M388 750h-213v-475h213q98 0 167.5 69.5t69.5 168.5q0 98 -69.5 167.5t-167.5 69.5zM483 214q-45 -14 -95 -14h-213v-200h-75v825h288q129 0 220.5 -91.5t91.5 -220.5q0 -130 -91 -221q-28 -28 -58 -47l125 -245h-84zM256 924h-81q28 68 55 95q55 55 133 55t132 -55
q28 -27 56 -95h-80q-16 29 -29 41q-33 34 -79 34t-80 -34q-12 -12 -27 -41z" />
    <glyph glyph-name="uni0213" unicode="&#x213;" horiz-adv-x="425" 
d="M175 461v-461h-75v650h75v-65q94 90 225 90v-75q-104 0 -177 -73q-30 -30 -48 -66zM143 776h-81q28 68 55 95q55 55 133 55t132 -55q28 -27 56 -95h-80q-16 29 -29 41q-33 34 -79 34t-80 -34q-12 -12 -27 -41z" />
    <glyph glyph-name="uni0214" unicode="&#x214;" 
d="M75 300v525h75v-525q0 -104 73 -177t177 -73t177 73t73 177v525h75v-525q0 -135 -95 -230t-230 -95t-230 95t-95 230zM461 925l-60 225h79l60 -225h-79zM286 925l-60 225h79l60 -225h-79z" />
    <glyph glyph-name="uni0215" unicode="&#x215;" 
d="M625 189v461h75v-650h-75v65q-94 -90 -225 -90q-135 0 -230 95t-95 230v350h75v-350q0 -104 73 -177t177 -73t177 73q30 30 48 66zM446 750l-60 225h79l60 -225h-79zM271 750l-60 225h79l60 -225h-79z" />
    <glyph glyph-name="uni0216" unicode="&#x216;" 
d="M75 300v525h75v-525q0 -104 73 -177t177 -73t177 73t73 177v525h75v-525q0 -135 -95 -230t-230 -95t-230 95t-95 230zM293 924h-81q28 68 55 95q55 55 133 55t132 -55q28 -27 56 -95h-80q-16 29 -29 41q-33 34 -79 34t-80 -34q-12 -12 -27 -41z" />
    <glyph glyph-name="uni0217" unicode="&#x217;" 
d="M625 189v461h75v-650h-75v65q-94 -90 -225 -90q-135 0 -230 95t-95 230v350h75v-350q0 -104 73 -177t177 -73t177 73q30 30 48 66zM281 749h-81q28 68 55 95q55 55 133 55t132 -55q28 -27 56 -95h-80q-16 29 -29 41q-33 34 -79 34t-80 -34q-12 -12 -27 -41z" />
    <glyph glyph-name="Scomma" unicode="&#x218;" horiz-adv-x="725" 
d="M564 685q-33 37 -91 63.5t-123 26.5q-89 0 -142 -44t-53 -103q0 -54 38.5 -93.5t96.5 -58.5l206 -57q74 -22 121 -77t47 -138q0 -93 -79 -161t-216 -68q-111 0 -194.5 49.5t-129.5 126.5l65 41q42 -68 113.5 -105t143.5 -37q110 0 165.5 48t55.5 109q0 51 -32.5 89.5
t-90.5 53.5l-193 55q-84 27 -138 85t-54 139q0 90 74 155.5t196 65.5q93 0 165 -35.5t117 -86.5zM249 -325l60 225h79l-60 -225h-79z" />
    <glyph glyph-name="scomma" unicode="&#x219;" horiz-adv-x="575" 
d="M98 99q89 -49 181 -49q79 0 128 32t49 85q0 39 -23 66t-74 38l-140 34q-78 23 -117.5 70t-39.5 113q0 76 61 130.5t162 56.5q142 0 238 -79l-58 -50q-78 54 -179 54q-73 -2 -111 -35.5t-38 -77.5q0 -38 24 -65.5t74 -41.5l147 -38q70 -17 109.5 -62.5t39.5 -112.5
q0 -85 -71 -138.5t-181 -53.5q-125 0 -231 65zM186 -325l60 225h79l-60 -225h-79z" />
    <glyph glyph-name="Tcomma" unicode="&#x21a;" horiz-adv-x="550" 
d="M238 750h-238v75h550v-75h-237v-750h-75v750zM175 -325l60 225h79l-60 -225h-79z" />
    <glyph glyph-name="tcomma" unicode="&#x21b;" horiz-adv-x="300" 
d="M100 825h75v-175h100v-75h-100v-575h-75v825zM40 -325l60 225h79l-60 -225h-79z" />
    <glyph glyph-name="uni021E" unicode="&#x21e;" horiz-adv-x="875" 
d="M700 450v375h75v-825h-75v375h-525v-375h-75v825h75v-375h525zM337 1133l100 -102l102 102h107l-209 -207l-207 207h107z" />
    <glyph glyph-name="uni021F" unicode="&#x21f;" 
d="M175 461v-461h-75v825h75v-240q94 90 225 90q135 0 230 -95t95 -230v-350h-75v350q0 104 -73 177t-177 73t-177 -73q-30 -30 -48 -66zM312 1056l100 -102l102 102h107l-209 -207l-207 207h107z" />
    <glyph glyph-name="uni0220" unicode="&#x220;" 
d="M175 461v-461h-75v650h75v-65q94 90 225 90q135 0 230 -95t95 -230v-475h-75v475q0 104 -73 177t-177 73t-177 -73q-30 -30 -48 -66z" />
    <glyph glyph-name="uni0226" unicode="&#x226;" horiz-adv-x="850" 
d="M665 200l-241 515l-241 -515h482zM700 125h-552l-58 -125h-83l385 825h64l386 -825h-84zM462 1025v-100h-75v100h75z" />
    <glyph glyph-name="uni0227" unicode="&#x227;" horiz-adv-x="825" 
d="M650 442q-20 42 -55 78q-81 80 -195 80t-194.5 -80.5t-80.5 -194.5t80.5 -194.5t194.5 -80.5t195 81q35 35 55 77v234zM650 651h75v-651h-75v80q-105 -105 -250 -105t-247.5 102.5t-102.5 247.5t102.5 247.5t247.5 102.5t250 -105v81zM425 875v-100h-75v100h75z" />
    <glyph glyph-name="uni0228" unicode="&#x228;" horiz-adv-x="650" 
d="M249 0h-149v825h500v-75h-425v-300h325v-75h-325v-300h425v-75h-276v-50q62 0 106 -44t44 -106t-44 -106t-106 -44h-125v75h125q31 0 53 22t22 53t-22 53t-53 22h-75v125z" />
    <glyph glyph-name="uni0229" unicode="&#x229;" horiz-adv-x="725" 
d="M567 544q-72 56 -167 56q-114 0 -194.5 -80.5t-80.5 -194.5q0 -95 56 -167zM301 -12q-83 24 -148 90q-103 102 -103 247t102.5 247.5t247.5 102.5t248 -102q13 -14 25 -29l-439 -439q72 -55 166 -55q114 0 195 81l53 -53q-103 -103 -248 -103q-12 0 -24 1v-51
q62 0 106 -44t44 -106t-44 -106t-106 -44h-125v75h125q31 0 53 22t22 53t-22 53t-53 22h-75v138z" />
    <glyph glyph-name="uni022E" unicode="&#x22e;" horiz-adv-x="975" 
d="M925 413q0 -182 -128 -310t-309 -128q-182 0 -310 128t-128 310q0 181 128 309t310 128q181 0 309 -128t128 -309zM488 775q-151 0 -257 -106t-106 -256q0 -151 106 -257t257 -106q150 0 256 106t106 257q0 150 -106 256t-256 106zM525 1050v-100h-75v100h75z" />
    <glyph glyph-name="uni022F" unicode="&#x22f;" 
d="M750 325q0 -145 -102.5 -247.5t-247.5 -102.5t-247.5 102.5t-102.5 247.5t102.5 247.5t247.5 102.5t247.5 -102.5t102.5 -247.5zM400 600q-114 0 -194.5 -80.5t-80.5 -194.5t80.5 -194.5t194.5 -80.5t194.5 80.5t80.5 194.5t-80.5 194.5t-194.5 80.5zM437 875v-100h-75
v100h75z" />
    <glyph glyph-name="uni0232" unicode="&#x232;" horiz-adv-x="700" 
d="M313 0v299l-304 526h87l255 -441l254 441h87l-304 -526v-299h-75zM501 1000v-75h-300v75h300z" />
    <glyph glyph-name="uni0233" unicode="&#x233;" 
d="M625 0v65q-94 -90 -225 -90q-135 0 -230 95t-95 230v350h75v-350q0 -104 73 -177t177 -73t177 73q30 30 48 66v461h75v-650q0 -135 -95 -230t-230 -95v75q104 0 177 73t73 177zM538 825v-75h-300v75h300z" />
    <glyph glyph-name="dotlessj" unicode="&#x237;" horiz-adv-x="275" 
d="M100 0v650h75v-650q0 -135 -95 -230t-230 -95v75q104 0 177 73t73 177z" />
    <glyph glyph-name="dbdigraph" unicode="&#x238;" horiz-adv-x="1375" 
d="M726.04 208.027q19.998 -41.998 54.9961 -77.9961q80.9951 -79.9941 194.988 -79.9941t194.488 80.4941q80.4951 80.4951 80.4951 194.488t-80.4951 194.488t-194.488 80.4951t-194.988 -80.9951q-34.998 -34.998 -54.9961 -76.9951v-233.985zM650.044 442.013
q-18.998 41.9971 -54.9961 76.9951q-80.9951 80.9951 -194.988 80.9951t-194.488 -80.4951t-80.4951 -194.488t80.4951 -194.488q80.4951 -80.4941 194.488 -80.4941t194.988 79.9941q35.998 35.998 54.9961 77.9961v233.985zM726.04 824.989v-254.984
q104.993 104.993 249.984 104.993t247.485 -102.493q102.493 -102.494 102.493 -247.485t-102.493 -247.484q-102.494 -102.494 -247.485 -102.494t-249.984 104.994v-79.9951h-75.9961v79.9951q-104.993 -104.994 -249.984 -104.994t-247.485 102.494
q-102.493 102.493 -102.493 247.484t102.493 247.485q102.494 102.493 247.485 102.493t249.984 -104.993v254.984h75.9961z" />
    <glyph glyph-name="qpdigraph" unicode="&#x239;" horiz-adv-x="1375" 
d="M650 442q-20 42 -55 78q-81 80 -195 80t-194.5 -80.5t-80.5 -194.5t80.5 -194.5t194.5 -80.5t195 81q35 35 55 77v234zM726 208q19 -42 55 -77q81 -81 195 -81t194.5 80.5t80.5 194.5t-80.5 194.5t-194.5 80.5t-195 -80q-36 -36 -55 -78v-234zM650 -175v255
q-105 -105 -250 -105t-247.5 102.5t-102.5 247.5t102.5 247.5t247.5 102.5t250 -105v80h76v-80q105 105 250 105t247.5 -102.5t102.5 -247.5t-102.5 -247.5t-247.5 -102.5t-250 105v-255h-76z" />
    <glyph glyph-name="schwa" unicode="&#x259;" horiz-adv-x="725" 
d="M156 106q72 -56 167 -56q114 0 194.5 80.5t80.5 194.5q0 95 -56 167zM489 545q-72 55 -166 55q-114 0 -195 -81l-53 53q103 103 248 103t247.5 -102.5t102.5 -247.5t-102.5 -247.5t-247.5 -102.5t-248 102q-13 14 -25 29z" />
    <glyph glyph-name="uni02B9" unicode="&#x2b9;" horiz-adv-x="250" 
d="M52 700l60 225h79l-60 -225h-79z" />
    <glyph glyph-name="uni02BA" unicode="&#x2ba;" horiz-adv-x="425" 
d="M52 750l60 225h79l-60 -225h-79zM227 750l60 225h79l-60 -225h-79z" />
    <glyph glyph-name="leftarrhead" unicode="&#x2c2;" horiz-adv-x="550" 
d="M370 101l-313 312l313 313h106l-313 -313l312 -312h-105z" />
    <glyph glyph-name="rightarrhead" unicode="&#x2c3;" horiz-adv-x="550" 
d="M181.022 102l312.981 312l-312.981 313h-105.993l312.98 -313l-311.98 -312h104.993z" />
    <glyph glyph-name="uparrhead" unicode="&#x2c4;" horiz-adv-x="725" 
d="M675 204l-312 312l-313 -313v106l313 313l312 -313v-105z" />
    <glyph glyph-name="downarrhead" unicode="&#x2c5;" horiz-adv-x="725" 
d="M50.041 621.013l311.981 -311.981l312.98 312.981v-105.994l-312.98 -312.98l-311.981 312.98v104.994z" />
    <glyph glyph-name="circumflex" unicode="&#x2c6;" horiz-adv-x="525" 
d="M359 750l-100 102l-102 -102h-107l209 207l207 -207h-107z" />
    <glyph glyph-name="caron" unicode="&#x2c7;" horiz-adv-x="525" 
d="M157.021 958.046l99.9941 -101.994l101.994 101.994h106.993l-208.987 -206.987l-206.987 206.987h106.993z" />
    <glyph glyph-name="modvert" unicode="&#x2c8;" horiz-adv-x="225" 
d="M150 925v-200h-75v200h75z" />
    <glyph glyph-name="modmacron" unicode="&#x2c9;" horiz-adv-x="450" 
d="M375 825v-75h-300v75h300z" />
    <glyph glyph-name="uni02CA" unicode="&#x2ca;" horiz-adv-x="250" 
d="M52 700l60 225h79l-60 -225h-79z" />
    <glyph glyph-name="uni02CB" unicode="&#x2cb;" horiz-adv-x="250" 
d="M189.003 700l-59.9961 225h-78.9951l59.9961 -225h78.9951z" />
    <glyph glyph-name="modvertlow" unicode="&#x2cc;" horiz-adv-x="225" 
d="M150 101v-200h-75v200h75z" />
    <glyph glyph-name="uni02CD" unicode="&#x2cd;" horiz-adv-x="450" 
d="M376 -100v-75h-300v75h300z" />
    <glyph glyph-name="uni02CE" unicode="&#x2ce;" horiz-adv-x="250" 
d="M110 -125l-60 225h79l60 -225h-79z" />
    <glyph glyph-name="uni02CF" unicode="&#x2cf;" horiz-adv-x="250" 
d="M52 -125l60 225h79l-60 -225h-79z" />
    <glyph glyph-name="breve" unicode="&#x2d8;" horiz-adv-x="475" 
d="M345 900h81q-28 -68 -55 -95q-55 -55 -133 -55t-132 55q-28 27 -56 95h80q16 -29 29 -41q33 -34 79 -34t80 34q12 12 27 41z" />
    <glyph glyph-name="dotaccent" unicode="&#x2d9;" horiz-adv-x="225" 
d="M150 850v-100h-75v100h75z" />
    <glyph glyph-name="ring" unicode="&#x2da;" horiz-adv-x="350" 
d="M175 750q-52 0 -88.5 36.5t-36.5 88.5t36.5 88.5t88.5 36.5t88.5 -36.5t36.5 -88.5t-36.5 -88.5t-88.5 -36.5zM225 875q0 21 -14.5 35.5t-35.5 14.5t-35.5 -14.5t-14.5 -35.5t14.5 -35.5t35.5 -14.5t35.5 14.5t14.5 35.5z" />
    <glyph glyph-name="ogonek" unicode="&#x2db;" horiz-adv-x="350" 
d="M225 -225q-62 0 -106 44t-44 106t44 106t131 44v-75q-56 0 -78 -22t-22 -53t22 -53t53 -22h125v-75h-125z" />
    <glyph glyph-name="tilde" unicode="&#x2dc;" horiz-adv-x="525" 
d="M450 845v-77q-52 -19 -98 -19q-43 0 -87.5 15t-90.5 15q-42 0 -99 -21v77q52 19 99 19q49 0 94 -15t84 -15q41 0 98 21z" />
    <glyph glyph-name="hungarumlaut" unicode="&#x2dd;" horiz-adv-x="425" 
d="M52 750l60 225h79l-60 -225h-79zM227 750l60 225h79l-60 -225h-79z" />
    <glyph glyph-name="modcross" unicode="&#x2df;" horiz-adv-x="675" 
d="M520 624l53 -53l-371 -371l-53 53zM149 571l53 53l371 -371l-53 -53z" />
    <glyph glyph-name="uni02F7" unicode="&#x2f7;" horiz-adv-x="525" 
d="M450 -108v-77q-52 -19 -98 -19q-43 0 -87.5 15t-90.5 15q-42 0 -99 -21v77q52 19 99 19q49 0 94 -15t84 -15q41 0 98 21z" />
    <glyph glyph-name="combgrave" unicode="&#x300;" horiz-adv-x="250" 
d="M111 750l-60 225h79l60 -225h-79z" />
    <glyph glyph-name="combacute" unicode="&#x301;" horiz-adv-x="250" 
d="M52 750l60 225h79l-60 -225h-79z" />
    <glyph glyph-name="combcircumflex" unicode="&#x302;" horiz-adv-x="525" 
d="M359 750l-100 102l-102 -102h-107l209 207l207 -207h-107z" />
    <glyph glyph-name="combtilde" unicode="&#x303;" horiz-adv-x="525" 
d="M450 845v-77q-52 -19 -98 -19q-43 0 -87.5 15t-90.5 15q-42 0 -99 -21v77q52 19 99 19q49 0 94 -15t84 -15q41 0 98 21z" />
    <glyph glyph-name="combmacron" unicode="&#x304;" horiz-adv-x="450" 
d="M375 825v-75h-300v75h300z" />
    <glyph glyph-name="comboverline" unicode="&#x305;" horiz-adv-x="775" 
d="M699 900v-75h-624v75h624z" />
    <glyph glyph-name="combbreve" unicode="&#x306;" horiz-adv-x="475" 
d="M346 900h81q-28 -68 -55 -95q-55 -55 -133 -55t-132 55q-28 27 -56 95h80q16 -29 29 -41q33 -34 79 -34t80 34q12 12 27 41z" />
    <glyph glyph-name="combdotabove" unicode="&#x307;" horiz-adv-x="225" 
d="M150 850v-100h-75v100h75z" />
    <glyph glyph-name="combdiaeresis" unicode="&#x308;" horiz-adv-x="400" 
d="M150 850v-100h-75v100h75zM325 850v-100h-75v100h75z" />
    <glyph glyph-name="combring" unicode="&#x30a;" horiz-adv-x="350" 
d="M175 750q-52 0 -88.5 36.5t-36.5 88.5t36.5 88.5t88.5 36.5t88.5 -36.5t36.5 -88.5t-36.5 -88.5t-88.5 -36.5zM225 875q0 21 -14.5 35.5t-35.5 14.5t-35.5 -14.5t-14.5 -35.5t14.5 -35.5t35.5 -14.5t35.5 14.5t14.5 35.5z" />
    <glyph glyph-name="combdblacute" unicode="&#x30b;" horiz-adv-x="425" 
d="M54 750l60 225h79l-60 -225h-79zM229 750l60 225h79l-60 -225h-79z" />
    <glyph glyph-name="combcaron" unicode="&#x30c;" horiz-adv-x="525" 
d="M157 958l100 -102l102 102h107l-209 -207l-207 207h107z" />
    <glyph glyph-name="uni030F" unicode="&#x30f;" horiz-adv-x="425" 
d="M288 750l-60 225h79l60 -225h-79zM113 750l-60 225h79l60 -225h-79z" />
    <glyph glyph-name="uni0311" unicode="&#x311;" horiz-adv-x="475" 
d="M130.021 749.055h-80.9951q27.998 67.9961 54.9961 94.9941q54.9971 54.9971 132.992 54.9971t131.992 -54.9971q27.998 -26.998 55.9961 -94.9941h-79.9951q-15.999 28.998 -28.998 40.998q-32.998 33.998 -78.9951 33.998t-79.9951 -33.998
q-11.999 -12 -26.998 -40.998z" />
    <glyph glyph-name="commaabove" unicode="&#x315;" horiz-adv-x="250" 
d="M50 624l60 225h79l-60 -225h-79z" />
    <glyph glyph-name="combgravebelow" unicode="&#x316;" horiz-adv-x="250" 
d="M110 -125l-60 225h79l60 -225h-79z" />
    <glyph glyph-name="combacutebelow" unicode="&#x317;" horiz-adv-x="250" 
d="M51 -125l60 225h79l-60 -225h-79z" />
    <glyph glyph-name="combhorn" unicode="&#x31b;" horiz-adv-x="275" 
d="M174 674q0 -62 -44 -106t-131 -44v75q56 0 78 22t22 53v202h75v-202z" />
    <glyph glyph-name="hookbelow" unicode="&#x321;" horiz-adv-x="275" 
d="M175 -125q0 -62 -44 -106t-131 -44v75q56 0 78 22t22 53v250h75v-250z" />
    <glyph glyph-name="retroflexhookbelow" unicode="&#x322;" horiz-adv-x="275" 
d="M99.0107 -125q0 -62 43.9971 -106t130.992 -44v75q-55.9961 0 -77.9951 22t-21.999 53v250h-74.9951v-250z" />
    <glyph glyph-name="dotbelowcomb" unicode="&#x323;" horiz-adv-x="225" 
d="M150 -99v-100h-75v100h75z" />
    <glyph glyph-name="uni0324" unicode="&#x324;" horiz-adv-x="400" 
d="M150 -100v-100h-75v100h75zM325 -100v-100h-75v100h75z" />
    <glyph glyph-name="uni0325" unicode="&#x325;" horiz-adv-x="350" 
d="M175 -324q-52 0 -88.5 36.5t-36.5 88.5t36.5 88.5t88.5 36.5t88.5 -36.5t36.5 -88.5t-36.5 -88.5t-88.5 -36.5zM225 -199q0 21 -14.5 35.5t-35.5 14.5t-35.5 -14.5t-14.5 -35.5t14.5 -35.5t35.5 -14.5t35.5 14.5t14.5 35.5z" />
    <glyph glyph-name="combcommabelow" unicode="&#x326;" horiz-adv-x="250" 
d="M52 -324l60 225h79l-60 -225h-79z" />
    <glyph glyph-name="combcedilla" unicode="&#x327;" horiz-adv-x="325" 
d="M175 -375h-125v75h125q31 0 53 22t22 53t-22 53t-53 22h-75v175h75v-100q62 0 106 -44t44 -106t-44 -106t-106 -44z" />
    <glyph glyph-name="combogonek" unicode="&#x328;" horiz-adv-x="325" 
d="M251 -225q-62 0 -106 44t-44 106t44 106t131 44v-75q-56 0 -78 -22t-22 -53t22 -53t53 -22h125v-75h-125z" />
    <glyph glyph-name="uni032C" unicode="&#x32c;" horiz-adv-x="525" 
d="M157 -100l100 -102l102 102h107l-209 -207l-207 207h107z" />
    <glyph glyph-name="uni032D" unicode="&#x32d;" horiz-adv-x="525" 
d="M359 -307l-100 102l-102 -102h-107l209 207l207 -207h-107z" />
    <glyph glyph-name="uni032E" unicode="&#x32e;" horiz-adv-x="475" 
d="M345 -100h81q-28 -68 -55 -95q-55 -55 -133 -55t-132 55q-28 27 -56 95h80q16 -29 29 -41q33 -34 79 -34t80 34q12 12 27 41z" />
    <glyph glyph-name="uni032F" unicode="&#x32f;" horiz-adv-x="475" 
d="M131.021 -249.945h-80.9951q27.998 67.9961 54.9961 94.9941q54.9971 54.9971 132.992 54.9971t131.992 -54.9971q27.998 -26.998 55.9961 -94.9941h-79.9951q-15.999 28.998 -28.998 40.998q-32.998 33.998 -78.9951 33.998t-79.9951 -33.998
q-11.999 -12 -26.998 -40.998z" />
    <glyph glyph-name="uni0330" unicode="&#x330;" horiz-adv-x="525" 
d="M450 -107v-77q-52 -19 -98 -19q-43 0 -87.5 15t-90.5 15q-42 0 -99 -21v77q52 19 99 19q49 0 94 -15t84 -15q41 0 98 21z" />
    <glyph glyph-name="uni0331" unicode="&#x331;" horiz-adv-x="450" 
d="M375 -99v-75h-300v75h300z" />
    <glyph glyph-name="uni0332" unicode="&#x332;" horiz-adv-x="775" 
d="M699 -99v-75h-624v75h624z" />
    <glyph glyph-name="uni0333" unicode="&#x333;" horiz-adv-x="675" 
d="M600 -2v-75h-525v75h525zM600 -203v-75h-525v75h525z" />
    <glyph glyph-name="combtildeoverlay" unicode="&#x334;" horiz-adv-x="525" 
d="M450 460v-77q-52 -19 -98 -19q-43 0 -87.5 15t-90.5 15q-42 0 -99 -21v77q52 19 99 19q49 0 94 -15t84 -15q41 0 98 21z" />
    <glyph glyph-name="strokeshort" unicode="&#x335;" horiz-adv-x="425" 
d="M375 450v-75h-325v75h325z" />
    <glyph glyph-name="longstroke" unicode="&#x336;" horiz-adv-x="775" 
d="M700 450v-75h-625v75h625z" />
    <glyph glyph-name="uni033F" unicode="&#x33f;" horiz-adv-x="675" 
d="M600 1099v-75h-525v75h525zM600 898v-75h-525v75h525z" />
    <glyph glyph-name="uni0344" unicode="&#x344;" horiz-adv-x="550" 
d="M150 850v-100h-75v100h75zM474 850v-100h-75v100h75zM217 750l60 225h79l-60 -225h-79z" />
    <glyph glyph-name="combequalbelow" unicode="&#x347;" horiz-adv-x="675" 
d="M600 -2v-75h-525v75h525zM600 -203v-75h-525v75h525z" />
    <glyph glyph-name="revlunatesigma" unicode="&#x37b;" horiz-adv-x="725" 
d="M107.037 152l-57.9961 -48q10.999 -13 23.998 -26q102.994 -103 247.985 -103t247.485 102.5q102.493 102.5 102.493 247.5t-102.493 247.5q-102.494 102.5 -247.485 102.5t-247.985 -102q-12.999 -14 -23.998 -27l57.9961 -48q9 11 18.999 22q80.9951 80 194.988 80
t194.488 -80.5t80.4951 -194.5t-80.4951 -194.5t-194.488 -80.5t-194.988 81q-9.99902 10 -18.999 21z" />
    <glyph glyph-name="uni037C" unicode="&#x37c;" horiz-adv-x="725" 
d="M614 152l58 -48q-11 -13 -24 -26q-103 -103 -248 -103t-247.5 102.5t-102.5 247.5t102.5 247.5t247.5 102.5t248 -102q13 -14 24 -27l-58 -48q-9 11 -19 22q-81 80 -195 80t-194.5 -80.5t-80.5 -194.5t80.5 -194.5t194.5 -80.5t195 81q10 10 19 21zM413 363v-100h-75v100
h75z" />
    <glyph glyph-name="uni037D" unicode="&#x37d;" horiz-adv-x="725" 
d="M108.037 152l-57.9961 -48q10.999 -13 23.998 -26q102.994 -103 247.985 -103t247.485 102.5q102.493 102.5 102.493 247.5t-102.493 247.5q-102.494 102.5 -247.485 102.5t-247.985 -102q-12.999 -14 -23.998 -27l57.9961 -48q9 11 18.999 22q80.9951 80 194.988 80
t194.488 -80.5t80.4951 -194.5t-80.4951 -194.5t-194.488 -80.5t-194.988 81q-9.99902 10 -18.999 21zM309.025 363v-100h74.9951v100h-74.9951z" />
    <glyph glyph-name="uni037E" unicode="&#x37e;" horiz-adv-x="225" 
d="M13 -124l60 225h79l-60 -225h-79zM150 625v-100h-75v100h75z" />
    <glyph glyph-name="tonos" unicode="&#x384;" horiz-adv-x="250" 
d="M49 750l60 225h79l-60 -225h-79z" />
    <glyph glyph-name="dieresistonos" unicode="&#x385;" horiz-adv-x="550" 
d="M150 850v-100h-75v100h75zM474 850v-100h-75v100h75zM217 750l60 225h79l-60 -225h-79z" />
    <glyph glyph-name="Alphatonos" unicode="&#x386;" horiz-adv-x="850" 
d="M156 750l60 225h79l-60 -225h-79zM669 200l-241 515l-241 -515h482zM704 125h-552l-58 -125h-83l385 825h64l386 -825h-84z" />
    <glyph glyph-name="anoteleia" unicode="&#x387;" horiz-adv-x="225" 
d="M149 876v-100h-75v100h75z" />
    <glyph glyph-name="Epsilontonos" unicode="&#x388;" 
d="M49 750l60 225h79l-60 -225h-79zM752 825v-75h-425v-300h325v-75h-325v-300h425v-75h-500v825h500z" />
    <glyph glyph-name="Etatonos" unicode="&#x389;" horiz-adv-x="1025" 
d="M49 750l60 225h79l-60 -225h-79zM852 450v375h75v-825h-75v375h-525v-375h-75v825h75v-375h525z" />
    <glyph glyph-name="Iotatonos" unicode="&#x38a;" horiz-adv-x="425" 
d="M49 750l60 225h79l-60 -225h-79zM327 825v-825h-75v825h75z" />
    <glyph glyph-name="Omicrontonos" unicode="&#x38c;" horiz-adv-x="1050" 
d="M49 750l60 225h79l-60 -225h-79zM1002 413q0 -182 -128 -310t-309 -128q-182 0 -310 128t-128 310q0 181 128 309t310 128q181 0 309 -128t128 -309zM565 775q-151 0 -257 -106t-106 -256q0 -151 106 -257t257 -106q150 0 256 106t106 257q0 150 -106 256t-256 106z" />
    <glyph glyph-name="Upsilontonos" unicode="&#x38e;" horiz-adv-x="825" 
d="M145 815l-17 -65h-79l60 225h79l-33 -125h57l269 -466l269 466h87l-319 -551v-324h-75v324z" />
    <glyph glyph-name="Omegatonos" unicode="&#x38f;" horiz-adv-x="1075" 
d="M49 750l60 225h79l-60 -225h-79zM868 75h134v-75h-300v67q80 25 144 89q106 106 106 257q0 150 -106 256t-256 106q-151 0 -257 -106t-106 -256q0 -151 106 -257q64 -64 144 -89v-67h-300v75h135q-16 12 -32 28q-128 128 -128 310q0 181 128 309t310 128q181 0 309 -128
t128 -309q0 -182 -128 -310q-15 -15 -31 -28z" />
    <glyph glyph-name="iotadieresistonos" unicode="&#x390;" horiz-adv-x="275" 
d="M175 650v-650h-75v650h75zM33 850v-100h-75v100h75zM357 850v-100h-75v100h75zM100 750l60 225h79l-60 -225h-79z" />
    <glyph glyph-name="Alpha" unicode="&#x391;" horiz-adv-x="850" 
d="M665 200l-241 515l-241 -515h482zM700 125h-552l-58 -125h-83l385 825h64l386 -825h-84z" />
    <glyph glyph-name="Beta" unicode="&#x392;" horiz-adv-x="775" 
d="M176 750v-300h274q62 0 106 44t44 106t-44 106t-106 44h-274zM176 375v-300h299q62 0 106 44t44 106t-44 106t-106 44h-299zM100 825h350q93 0 159 -66t66 -159t-66 -159q-11 -11 -23 -20q26 -15 48 -37q66 -66 66 -159t-66 -159t-159 -66h-375v825z" />
    <glyph glyph-name="Gamma" unicode="&#x393;" horiz-adv-x="550" 
d="M100 -0.949219h75v749.954h400v74.9951h-475v-824.949z" />
    <glyph glyph-name="increment.001" unicode="&#x394;" horiz-adv-x="675" 
d="M5 0l301 825h58l301 -825h-660zM558 75l-223 610l-223 -610h446z" />
    <glyph glyph-name="Epsilon" unicode="&#x395;" horiz-adv-x="650" 
d="M600 825v-75h-425v-300h325v-75h-325v-300h425v-75h-500v825h500z" />
    <glyph glyph-name="Zeta" unicode="&#x396;" horiz-adv-x="650" 
d="M625 825v-53l-488 -697h488v-75h-600v46l493 704h-493v75h600z" />
    <glyph glyph-name="Eta" unicode="&#x397;" horiz-adv-x="875" 
d="M700 450v375h75v-825h-75v375h-525v-375h-75v825h75v-375h525z" />
    <glyph glyph-name="Theta" unicode="&#x398;" horiz-adv-x="975" 
d="M924 413q0 -182 -128 -310t-309 -128q-182 0 -310 128t-128 310q0 181 128 309t310 128q181 0 309 -128t128 -309zM487 775q-151 0 -257 -106t-106 -256q0 -151 106 -257t257 -106q150 0 256 106t106 257q0 150 -106 256t-256 106zM716 450v-75h-450v75h450z" />
    <glyph glyph-name="Iota.001" unicode="&#x399;" horiz-adv-x="275" 
d="M175 825v-825h-75v825h75z" />
    <glyph glyph-name="Kappa" unicode="&#x39a;" horiz-adv-x="650" 
d="M175 825v-825h-75v825h75zM618 825l-299 -412l299 -413h-94l-299 413l299 412h94z" />
    <glyph glyph-name="Lamda" unicode="&#x39b;" horiz-adv-x="675" 
d="M8.04102 0.0507812l300.981 824.949h57.9961l300.981 -824.949h-79.9941l-249.985 684.958l-249.984 -684.958h-79.9951z" />
    <glyph glyph-name="Mu" unicode="&#x39c;" horiz-adv-x="1050" 
d="M492 240l-317 439v-679h-75v825h62l363 -502l361 502h64v-825h-75v681l-317 -441h-66z" />
    <glyph glyph-name="Nu" unicode="&#x39d;" horiz-adv-x="850" 
d="M100 825h56l519 -677v677h75v-825h-57l-518 676v-676h-75v825z" />
    <glyph glyph-name="Xi" unicode="&#x39e;" horiz-adv-x="725" 
d="M650 825v-75h-575v75h575zM650 74v-75h-575v75h575zM600 450v-75h-475v75h475z" />
    <glyph glyph-name="Omicron" unicode="&#x39f;" horiz-adv-x="975" 
d="M925 413q0 -182 -128 -310t-309 -128q-182 0 -310 128t-128 310q0 181 128 309t310 128q181 0 309 -128t128 -309zM488 775q-151 0 -257 -106t-106 -256q0 -151 106 -257t257 -106q150 0 256 106t106 257q0 150 -106 256t-256 106z" />
    <glyph glyph-name="Pi" unicode="&#x3a0;" horiz-adv-x="750" 
d="M175 750v-750h-75v825h550v-825h-75v750h-400z" />
    <glyph glyph-name="Rho" unicode="&#x3a1;" horiz-adv-x="750" 
d="M388 750h-213v-475h213q98 0 167.5 69.5t69.5 168.5q0 98 -69.5 167.5t-167.5 69.5zM100 825h288q129 0 220.5 -91.5t91.5 -220.5q0 -130 -91.5 -221.5t-220.5 -91.5h-213v-200h-75v825z" />
    <glyph glyph-name="Sigma" unicode="&#x3a3;" horiz-adv-x="675" 
d="M374 386l-218 -311h493v-75h-600v53l251 360l-251 359v53h600v-75h-493l218 -311v-53z" />
    <glyph glyph-name="Tau" unicode="&#x3a4;" horiz-adv-x="550" 
d="M238 750h-238v75h550v-75h-237v-750h-75v750z" />
    <glyph glyph-name="Upsilon" unicode="&#x3a5;" horiz-adv-x="700" 
d="M313 0v299l-304 526h87l255 -441l254 441h87l-304 -526v-299h-75z" />
    <glyph glyph-name="Phi" unicode="&#x3a6;" horiz-adv-x="1025" 
d="M474 699q-128 -3 -238 -85q-111 -84 -111 -201q0 -118 111 -201q110 -83 238 -86v573zM549 700v-575q129 3 240 87q111 83 111 201q0 117 -111 201q-111 83 -240 86zM474 774v51h75v-50q158 -3 288 -104q138 -107 138 -258q0 -152 -138 -259q-130 -101 -288 -104v-50h-75
v51q-157 3 -286 103q-138 107 -138 259q0 151 138 258q129 100 286 103z" />
    <glyph glyph-name="Chi" unicode="&#x3a7;" horiz-adv-x="750" 
d="M727 825l-299 -412l299 -413h-94l-252 347l-253 -347h-94l300 413l-300 412h94l253 -347l252 347h94z" />
    <glyph glyph-name="Psi" unicode="&#x3a8;" horiz-adv-x="975" 
d="M51 509h-1v315h75v-264h1q0 -176 107 -281q102 -102 218 -105v650h75v-650q117 4 219 105q106 105 106 256v290h75v-290q0 -181 -128 -309q-123 -123 -272 -127v-99h-75v99q-148 3 -272 127q-128 128 -128 283z" />
    <glyph glyph-name="Omega" unicode="&#x3a9;" horiz-adv-x="975" 
d="M766 75h134v-75h-300v67q80 25 144 89q106 106 106 257q0 150 -106 256t-256 106q-151 0 -257 -106t-106 -256q0 -151 106 -257q64 -64 144 -89v-67h-300v75h135q-16 12 -32 28q-128 128 -128 310q0 181 128 309t310 128q181 0 309 -128t128 -309q0 -182 -128 -310
q-15 -15 -31 -28z" />
    <glyph glyph-name="Iotadieresis" unicode="&#x3aa;" horiz-adv-x="275" 
d="M174 825v-825h-75v825h75zM88 1025v-100h-75v100h75zM263 1025v-100h-75v100h75z" />
    <glyph glyph-name="Upsilondieresis" unicode="&#x3ab;" horiz-adv-x="700" 
d="M313 0v299l-304 526h87l255 -441l254 441h87l-304 -526v-299h-75zM301 1025v-100h-75v100h75zM476 1025v-100h-75v100h75z" />
    <glyph glyph-name="alphatonos" unicode="&#x3ac;" horiz-adv-x="950" 
d="M698 325l-43 105q-20 49 -60 90q-81 80 -195 80t-194.5 -80.5t-80.5 -194.5t80.5 -194.5t194.5 -80.5t195 81q40 40 60 89zM913 650l-133 -325l132 -324h-81l-92 224l-14 -34q-26 -62 -77 -113q-103 -103 -248 -103t-247.5 102.5t-102.5 247.5t102.5 247.5t247.5 102.5
t248 -102q51 -52 77 -114l14 -34l92 225h82zM375 775l60 225h79l-60 -225h-79z" />
    <glyph glyph-name="epsilontonos" unicode="&#x3ad;" horiz-adv-x="500" 
d="M276 300q-52 0 -88.5 -36.5t-36.5 -88.5t36.5 -88.5t88.5 -36.5q51 0 88 37q15 14 24 32l67 -34q-14 -28 -38 -51q-59 -59 -141 -59q-83 0 -141.5 58.5t-58.5 141.5t59 142q12 12 26 22q-9 7 -18 16q-55 55 -55 133q0 77 55 132t133 55q77 0 132 -55q27 -27 41 -59
l-68 -33q-8 21 -26 39q-33 33 -79 33q-47 0 -80 -33t-33 -79q0 -47 33 -80t80 -33v-75zM237 775l60 225h79l-60 -225h-79z" />
    <glyph glyph-name="etatonos" unicode="&#x3ae;" 
d="M175 461v-461h-75v650h75v-65q94 90 225 90q135 0 230 -95t95 -230v-475h-75v475q0 104 -73 177t-177 73t-177 -73q-30 -30 -48 -66zM386 775l60 225h79l-60 -225h-79z" />
    <glyph glyph-name="iotatonos" unicode="&#x3af;" horiz-adv-x="275" 
d="M177 650v-650h-75v650h75zM100 750l60 225h79l-60 -225h-79z" />
    <glyph glyph-name="upsilondieresistonos" unicode="&#x3b0;" horiz-adv-x="700" 
d="M550 250v400h75v-400q0 -114 -80.5 -194.5t-194.5 -80.5t-194.5 80.5t-80.5 194.5v400h75v-400q0 -83 58.5 -141.5t141.5 -58.5t141.5 58.5t58.5 141.5zM225 850v-100h-75v100h75zM549 850v-100h-75v100h75zM292 750l60 225h79l-60 -225h-79z" />
    <glyph glyph-name="alpha" unicode="&#x3b1;" horiz-adv-x="950" 
d="M698 325l-43 105q-20 49 -60 90q-81 80 -195 80t-194.5 -80.5t-80.5 -194.5t80.5 -194.5t194.5 -80.5t195 81q40 40 60 89zM913 650l-133 -325l132 -324h-81l-92 224l-14 -34q-26 -62 -77 -113q-103 -103 -248 -103t-247.5 102.5t-102.5 247.5t102.5 247.5t247.5 102.5
t248 -102q51 -52 77 -114l14 -34l92 225h82z" />
    <glyph glyph-name="beta" unicode="&#x3b2;" horiz-adv-x="550" 
d="M162 9v-109h-75v588q0 77 54.5 132t132.5 55t133 -55t55 -132q0 -78 -55 -133q-9 -9 -18 -16q14 -10 27 -22q58 -59 58 -142t-58.5 -141.5t-141.5 -58.5q-63 0 -112 34zM274 375q47 0 80 33t33 80q0 46 -33 79t-80 33t-79.5 -33t-32.5 -79v-370q9 -17 24 -31
q36 -37 88 -37t88.5 36.5t36.5 88.5t-36.5 88.5t-88.5 36.5h-1v75h1z" />
    <glyph glyph-name="gamma" unicode="&#x3b3;" horiz-adv-x="500" 
d="M213 0v138l-187 512h81l143 -393l142 393h81l-185 -512v-138h-75z" />
    <glyph glyph-name="delta" unicode="&#x3b4;" horiz-adv-x="650" 
d="M325 400q-73 0 -124 -51t-51 -124q0 -72 51 -123.5t124 -51.5q72 0 123.5 51.5t51.5 123.5q0 73 -51.5 124t-123.5 51zM502 402q73 -73 73 -177t-73 -177t-177 -73t-177 73t-73 177t73 177q58 58 136 70l-171 125v53h450v-75h-292l201 -147q16 -12 30 -26z" />
    <glyph glyph-name="epsilon" unicode="&#x3b5;" horiz-adv-x="500" 
d="M276 300q-52 0 -88.5 -36.5t-36.5 -88.5t36.5 -88.5t88.5 -36.5q51 0 88 37q15 14 24 32l67 -34q-14 -28 -38 -51q-59 -59 -141 -59q-83 0 -141.5 58.5t-58.5 141.5t59 142q12 12 26 22q-9 7 -18 16q-55 55 -55 133q0 77 55 132t133 55q77 0 132 -55q27 -27 41 -59
l-68 -33q-8 21 -26 39q-33 33 -79 33q-47 0 -80 -33t-33 -79q0 -47 33 -80t80 -33v-75z" />
    <glyph glyph-name="zeta" unicode="&#x3b6;" horiz-adv-x="575" 
d="M372 575h-297v75h418v-60l-291 -291q-52 -55 -52 -124q0 -73 51 -124t124 -51h50q62 0 106 -44t44 -106t-44 -106t-106 -44h-125v75h125q31 0 53 22t22 53t-22 53t-53 22h-50q-103 0 -176.5 73.5t-73.5 176.5q0 99 73 177z" />
    <glyph glyph-name="eta" unicode="&#x3b7;" 
d="M175 461v-461h-75v650h75v-65q94 90 225 90q135 0 230 -95t95 -230v-475h-75v475q0 104 -73 177t-177 73t-177 -73q-30 -30 -48 -66z" />
    <glyph glyph-name="theta" unicode="&#x3b8;" 
d="M750 325q0 -145 -102.5 -247.5t-247.5 -102.5t-247.5 102.5t-102.5 247.5t102.5 247.5t247.5 102.5t247.5 -102.5t102.5 -247.5zM400 600q-114 0 -194.5 -80.5t-80.5 -194.5t80.5 -194.5t194.5 -80.5t194.5 80.5t80.5 194.5t-80.5 194.5t-194.5 80.5zM550 364v-75h-300
v75h300z" />
    <glyph glyph-name="iota" unicode="&#x3b9;" horiz-adv-x="275" 
d="M175 650v-650h-75v650h75z" />
    <glyph glyph-name="kappa" unicode="&#x3ba;" horiz-adv-x="600" 
d="M175 650v-650h-75v650h75zM549 650l-236 -325l236 -325h-93l-236 325l236 325h93z" />
    <glyph glyph-name="lambda" unicode="&#x3bb;" horiz-adv-x="500" 
d="M246 650l236 -650h-81l-147 405l-148 -405h-81l188 517l-48 133h81z" />
    <glyph glyph-name="mu" unicode="&#x3bc;" horiz-adv-x="825" 
d="M175 300q0 -104 73 -177t177 -73t177 73q30 30 48 66v461h75v-650h-75v65q-94 -90 -225 -90q-135 0 -230 95q-11 11 -20 22v-267h-75v825h75v-350z" />
    <glyph glyph-name="nu" unicode="&#x3bd;" horiz-adv-x="575" 
d="M559 650l-236 -650h-64l-236 650h81l188 -525l186 525h81z" />
    <glyph glyph-name="xi" unicode="&#x3be;" horiz-adv-x="500" 
d="M276 -25q-83 0 -141.5 58.5t-58.5 141.5t59 142q12 12 26 22q-9 7 -18 16q-55 55 -55 133q0 77 55 132t133 55q77 0 132 -55q27 -27 41 -59l-68 -33q-8 21 -26 39q-33 33 -79 33q-47 0 -80 -33t-33 -79q0 -47 33 -80t80 -33v-75q-52 0 -88.5 -36.5t-36.5 -88.5
t36.5 -88.5t88.5 -36.5q87 0 131 -44t44 -106t-44 -106t-106 -44h-125v75h125q31 0 53 22t22 53t-22 53t-78 22z" />
    <glyph glyph-name="omicron" unicode="&#x3bf;" 
d="M750 325q0 -145 -102.5 -247.5t-247.5 -102.5t-247.5 102.5t-102.5 247.5t102.5 247.5t247.5 102.5t247.5 -102.5t102.5 -247.5zM400 600q-114 0 -194.5 -80.5t-80.5 -194.5t80.5 -194.5t194.5 -80.5t194.5 80.5t80.5 194.5t-80.5 194.5t-194.5 80.5z" />
    <glyph glyph-name="pi" unicode="&#x3c0;" horiz-adv-x="700" 
d="M225 575v-575h-75v575h-150v75h700v-75h-150v-575h-75v575h-250z" />
    <glyph glyph-name="rho" unicode="&#x3c1;" horiz-adv-x="825" 
d="M425 600q-114 0 -194.5 -80.5t-80.5 -194.5t80.5 -194.5t194.5 -80.5t194.5 80.5t80.5 194.5t-80.5 194.5t-194.5 80.5zM75 325q0 145 102.5 247.5t247.5 102.5t247.5 -102.5t102.5 -247.5t-102.5 -247.5t-247.5 -102.5t-247 103q-15 14 -28 30v-284h-75v501z" />
    <glyph glyph-name="sigma1" unicode="&#x3c2;" horiz-adv-x="600" 
d="M279 50q79 0 128 32t49 85q0 39 -23 66t-74 38l-140 34q-78 23 -117.5 70t-39.5 113q0 76 61 130.5t162 56.5q142 0 238 -79l-58 -50q-78 54 -179 54q-73 -2 -111 -35.5t-38 -77.5q0 -38 24 -65.5t74 -41.5l147 -38q70 -17 109.5 -62.5t39.5 -112.5q0 -85 -71 -138.5
t-181 -53.5v75z" />
    <glyph glyph-name="sigma" unicode="&#x3c3;" 
d="M400 600q-114 0 -194.5 -80.5t-80.5 -194.5t80.5 -194.5t194.5 -80.5t194.5 80.5t80.5 194.5t-80.5 194.5t-194.5 80.5zM617 600q16 -13 31 -27q102 -103 102 -248t-102.5 -247.5t-247.5 -102.5t-247.5 102.5t-102.5 247.5t102.5 247.5t247.5 102.5h350v-75h-133z" />
    <glyph glyph-name="tau" unicode="&#x3c4;" horiz-adv-x="475" 
d="M475 650v-75h-200v-575h-75v575h-200v75h475z" />
    <glyph glyph-name="upsilon" unicode="&#x3c5;" horiz-adv-x="700" 
d="M550 250v400h75v-400q0 -114 -80.5 -194.5t-194.5 -80.5t-194.5 80.5t-80.5 194.5v400h75v-400q0 -83 58.5 -141.5t141.5 -58.5t141.5 58.5t58.5 141.5z" />
    <glyph glyph-name="phi" unicode="&#x3c6;" 
d="M438 52q90 12 157 79q80 80 80 194t-80 195q-67 66 -157 78v-546zM363 -23q-121 11 -210 101q-103 102 -103 247t103 248l53 -53q-81 -81 -81 -195t81 -194q67 -68 157 -79v621q18 2 37 2q145 0 247.5 -102.5t102.5 -247.5t-102 -247q-89 -89 -210 -101v-102h-75v102z
" />
    <glyph glyph-name="chi" unicode="&#x3c7;" horiz-adv-x="625" 
d="M591 650l-236 -325l236 -325h-93l-189 261l-190 -261h-93l236 325l-236 325h93l190 -261l189 261h93z" />
    <glyph glyph-name="psi" unicode="&#x3c8;" 
d="M674 432v220h75v-220q0 -145 -102 -248q-98 -98 -211 -101v-84h-75v84q-113 4 -210 101q-102 103 -102 248v220h75v-220q0 -114 81 -194q76 -76 156 -80v493h75v-493q80 3 157 80q81 80 81 194z" />
    <glyph glyph-name="omega" unicode="&#x3c9;" horiz-adv-x="1075" 
d="M500 225v150h75v-150q0 -72 51 -123.5t124 -51.5q81 0 140 71q60 78 60 179q0 124 -88 212q-38 38 -84 60l39 65q53 -27 98 -72q110 -110 110 -265q0 -126 -76 -227q-86 -98 -199 -98q-104 0 -177 73q-21 21 -35 44q-15 -23 -36 -44q-73 -73 -177 -73q-113 0 -199 98
q-76 101 -76 227q0 155 110 265q45 45 98 72l39 -65q-46 -22 -84 -60q-88 -88 -88 -212q0 -101 60 -179q59 -71 140 -71q73 0 124 51.5t51 123.5z" />
    <glyph glyph-name="iotadieresis" unicode="&#x3ca;" horiz-adv-x="275" 
d="M174 650v-650h-75v650h75zM88 850v-100h-75v100h75zM263 850v-100h-75v100h75z" />
    <glyph glyph-name="upsilondieresis" unicode="&#x3cb;" horiz-adv-x="700" 
d="M550 250v400h75v-400q0 -114 -80.5 -194.5t-194.5 -80.5t-194.5 80.5t-80.5 194.5v400h75v-400q0 -83 58.5 -141.5t141.5 -58.5t141.5 58.5t58.5 141.5zM301 850v-100h-75v100h75zM476 850v-100h-75v100h75z" />
    <glyph glyph-name="omicrontonos" unicode="&#x3cc;" 
d="M750 325q0 -145 -102.5 -247.5t-247.5 -102.5t-247.5 102.5t-102.5 247.5t102.5 247.5t247.5 102.5t247.5 -102.5t102.5 -247.5zM400 600q-114 0 -194.5 -80.5t-80.5 -194.5t80.5 -194.5t194.5 -80.5t194.5 80.5t80.5 194.5t-80.5 194.5t-194.5 80.5zM366 775l60 225h79
l-60 -225h-79z" />
    <glyph glyph-name="upsilontonos" unicode="&#x3cd;" horiz-adv-x="700" 
d="M550 250v400h75v-400q0 -114 -80.5 -194.5t-194.5 -80.5t-194.5 80.5t-80.5 194.5v400h75v-400q0 -83 58.5 -141.5t141.5 -58.5t141.5 58.5t58.5 141.5zM302 750l60 225h79l-60 -225h-79z" />
    <glyph glyph-name="omegatonos" unicode="&#x3ce;" horiz-adv-x="1075" 
d="M500 225v150h75v-150q0 -72 51 -123.5t124 -51.5q81 0 140 71q60 78 60 179q0 124 -88 212q-38 38 -84 60l39 65q53 -27 98 -72q110 -110 110 -265q0 -126 -76 -227q-86 -98 -199 -98q-104 0 -177 73q-21 21 -35 44q-15 -23 -36 -44q-73 -73 -177 -73q-113 0 -199 98
q-76 101 -76 227q0 155 110 265q45 45 98 72l39 -65q-46 -22 -84 -60q-88 -88 -88 -212q0 -101 60 -179q59 -71 140 -71q73 0 124 51.5t51 123.5zM510 750l60 225h79l-60 -225h-79z" />
    <glyph glyph-name="Upsilon1" unicode="&#x3d2;" horiz-adv-x="700" 
d="M313 0v299l-304 526h87l255 -441l254 441h87l-304 -526v-299h-75z" />
    <glyph glyph-name="uni03D3" unicode="&#x3d3;" horiz-adv-x="850" 
d="M145 815l-17 -65h-79l60 225h79l-33 -125h57l269 -466l269 466h87l-319 -551v-324h-75v324z" />
    <glyph glyph-name="uni03D4" unicode="&#x3d4;" horiz-adv-x="700" 
d="M313 0v299l-304 526h87l255 -441l254 441h87l-304 -526v-299h-75zM301 1025v-100h-75v100h75zM476 1025v-100h-75v100h75z" />
    <glyph glyph-name="phi1" unicode="&#x3d5;" horiz-adv-x="850" 
d="M388 711q-91 -3 -175 -87q-88 -87 -88 -212t88 -212q84 -84 175 -87v598zM463 711v-598q91 4 174 87q88 87 88 212t-88 212q-83 83 -174 87zM388 786v139h75v-139q123 -4 228 -108q109 -111 109 -266t-109 -265q-105 -105 -228 -109v-138h-75v138q-123 3 -228 109
q-110 110 -110 265t110 266q105 105 228 108z" />
    <glyph glyph-name="uni03D8" unicode="&#x3d8;" horiz-adv-x="975" 
d="M925 413q0 -182 -128 -310t-309 -128q-182 0 -310 128t-128 310q0 181 128 309t310 128q181 0 309 -128t128 -309zM488 775q-151 0 -257 -106t-106 -256q0 -151 106 -257t257 -106q150 0 256 106t106 257q0 150 -106 256t-256 106zM524 -14.0117v-159.997h-75v159.997h75
z" />
    <glyph glyph-name="uni03D9" unicode="&#x3d9;" 
d="M750 325q0 -145 -102.5 -247.5t-247.5 -102.5t-247.5 102.5t-102.5 247.5t102.5 247.5t247.5 102.5t247.5 -102.5t102.5 -247.5zM400 600q-114 0 -194.5 -80.5t-80.5 -194.5t80.5 -194.5t194.5 -80.5t194.5 80.5t80.5 194.5t-80.5 194.5t-194.5 80.5zM437 -14.0117
v-159.997h-75v159.997h75z" />
    <glyph glyph-name="uni03DA" unicode="&#x3da;" 
d="M424 175h38v-225h-75v151q-123 3 -228 109q-110 110 -110 265t110 265t265 110t266 -109q24 -26 58 -73l-63 -42q-28 41 -49 61q-87 88 -212 88t-212.5 -87.5t-87.5 -212.5t87.5 -212.5t212.5 -87.5z" />
    <glyph glyph-name="uni03DB" unicode="&#x3db;" horiz-adv-x="725" 
d="M400 50q87 0 131 -44t44 -106t-44 -106t-106 -44h-125v75h125q31 0 53 22t22 53t-22 53t-78 22q-145 0 -247.5 102.5t-102.5 247.5t102.5 247.5t247.5 102.5t248 -102q13 -14 24 -27l-58 -48q-9 11 -19 22q-81 80 -195 80t-194.5 -80.5t-80.5 -194.5t80.5 -194.5
t194.5 -80.5z" />
    <glyph glyph-name="uni03DC" unicode="&#x3dc;" horiz-adv-x="625" 
d="M175 0h-75v825h500v-75h-425v-300h325v-75h-325v-375z" />
    <glyph glyph-name="uni03F1" unicode="&#x3f1;" horiz-adv-x="675" 
d="M350 201.026q-83 0 -141.5 58.4961t-58.5 141.491t58.5 141.491q58.5 58.4971 141.5 58.4971t141.5 -58.4971q58.5 -58.4961 58.5 -141.491t-58.5 -141.491t-141.5 -58.4961zM150 211.025l5 -5q81 -79.9951 195 -79.9951t194.5 80.4951t80.5 194.488t-80.5 194.488
t-194.5 80.4951t-194.5 -80.4951t-80.5 -194.488v-199.987q0 -113.993 80.5 -194.488t194.5 -80.4951q73 0 133 -49.9971h106q-43 43.9971 -44 44.9971q-81 79.9951 -195 79.9951q-84 0 -142 58.4961q-58 58.4971 -58 141.492v9.99902z" />
    <glyph glyph-name="uni03F2" unicode="&#x3f2;" horiz-adv-x="725" 
d="M614 152l58 -48q-11 -13 -24 -26q-103 -103 -248 -103t-247.5 102.5t-102.5 247.5t102.5 247.5t247.5 102.5t248 -102q13 -14 24 -27l-58 -48q-9 11 -19 22q-81 80 -195 80t-194.5 -80.5t-80.5 -194.5t80.5 -194.5t194.5 -80.5t195 81q10 10 19 21z" />
    <glyph glyph-name="uni03F3" unicode="&#x3f3;" horiz-adv-x="275" 
d="M150 0v650h75v-650q0 -135 -95 -230t-230 -95v75q104 0 177 73t73 177zM225 850v-100h-75v100h75z" />
    <glyph glyph-name="greekTheta" unicode="&#x3f4;" horiz-adv-x="975" 
d="M848 450q-11 126 -104 219q-106 106 -256 106q-151 0 -257 -106q-93 -93 -104 -219h721zM127 375q12 -127 104 -219q106 -106 257 -106q150 0 256 106q92 92 104 219h-721zM925 413q0 -182 -128 -310t-309 -128q-182 0 -310 128t-128 310q0 181 128 309t310 128
q181 0 309 -128t128 -309z" />
    <glyph glyph-name="uni03F5" unicode="&#x3f5;" horiz-adv-x="725" 
d="M127 288q11 -90 79 -157q80 -81 194 -81t195 81q10 10 19 21l58 -48q-11 -13 -24 -26q-103 -103 -248 -103t-247.5 102.5t-102.5 247.5t102.5 247.5t247.5 102.5t248 -102q13 -14 24 -27l-58 -48q-9 11 -19 22q-81 80 -195 80t-194 -80q-67 -67 -79 -157h323v-75h-323z
" />
    <glyph glyph-name="uni03F6" unicode="&#x3f6;" horiz-adv-x="725" 
d="M599 362q-11 90 -79 157q-80 81 -194 81t-195 -81q-10 -10 -19 -21l-58 48q11 13 24 26q103 103 248 103t247.5 -102.5t102.5 -247.5t-102.5 -247.5t-247.5 -102.5t-248 102q-13 14 -24 27l58 48q9 -11 19 -22q81 -80 195 -80t194 80q67 67 79 157h-323v75h323z" />
    <glyph glyph-name="uni03F7" unicode="&#x3f7;" horiz-adv-x="750" 
d="M175 727h213q129 0 220.5 -91.5t91.5 -220.5q0 -130 -91.5 -221.5t-220.5 -91.5h-213v-200h-75v923h75v-98zM175 177h213q98 0 167.5 69.5t69.5 168.5q0 98 -69.5 167.5t-167.5 69.5h-213v-475z" />
    <glyph glyph-name="uni03F8" unicode="&#x3f8;" horiz-adv-x="825" 
d="M174 208q20 -42 56 -77q80 -81 194 -81t194.5 80.5t80.5 194.5t-80.5 194.5t-194.5 80.5t-194 -80q-36 -36 -56 -78v-234zM174 -175h-75v999h75v-254q105 105 250 105t247.5 -102.5t102.5 -247.5t-102.5 -247.5t-247.5 -102.5t-250 105v-255z" />
    <glyph glyph-name="Sigmalunate" unicode="&#x3f9;" horiz-adv-x="850" 
d="M747 159l56 -50l-6 -6q-128 -128 -309 -128q-182 0 -310 128t-128 310q0 181 128 309t310 128q181 0 309 -128l9 -9l-54 -52l-8 8q-106 106 -256 106q-151 0 -257 -106t-106 -256q0 -151 106 -257t257 -106q150 0 256 106z" />
    <glyph glyph-name="San" unicode="&#x3fa;" horiz-adv-x="1050" 
d="M492 240l-317 439v-679h-75v825h62l363 -502l361 502h64v-825h-75v681l-317 -441h-66z" />
    <glyph glyph-name="Sigmalunatereversed" unicode="&#x3fd;" horiz-adv-x="850" 
d="M109.046 159l-55.9971 -50l6 -6q127.992 -128 308.98 -128q181.989 0 309.981 128t127.992 310q0 181 -127.992 309t-309.981 128q-180.988 0 -308.98 -128l-9 -9l53.9971 -52q4 4 7.99902 8q105.994 106 255.984 106q150.991 0 256.984 -106q105.994 -106 105.994 -256
q0 -151 -105.994 -257q-105.993 -106 -256.984 -106q-149.99 0 -255.984 106q-0.999023 1 -2.99902 3z" />
    <glyph glyph-name="Sigmalunatedot" unicode="&#x3fe;" horiz-adv-x="850" 
d="M747 159l56 -50l-6 -6q-128 -128 -309 -128q-182 0 -310 128t-128 310q0 181 128 309t310 128q181 0 309 -128l9 -9l-54 -52l-8 8q-106 106 -256 106q-151 0 -257 -106t-106 -256q0 -151 106 -257t257 -106q150 0 256 106zM466 462v-100h-75v100h75z" />
    <glyph glyph-name="Sigmalunatedotreversed" unicode="&#x3ff;" horiz-adv-x="850" 
d="M109.046 159l-55.9971 -50l6 -6q127.992 -128 308.98 -128q181.989 0 309.981 128t127.992 310q0 181 -127.992 309t-309.981 128q-180.988 0 -308.98 -128l-9 -9l53.9971 -52q4 4 7.99902 8q105.994 106 255.984 106q150.991 0 256.984 -106q105.994 -106 105.994 -256
q0 -151 -105.994 -257q-105.993 -106 -256.984 -106q-149.99 0 -255.984 106q-0.999023 1 -2.99902 3zM390.028 462v-100h74.9951v100h-74.9951z" />
    <glyph glyph-name="uni0400" unicode="&#x400;" horiz-adv-x="650" 
d="M600 825v-75h-425v-300h325v-75h-325v-300h425v-75h-500v825h500zM317 925l-60 225h79l60 -225h-79z" />
    <glyph glyph-name="afii10023" unicode="&#x401;" horiz-adv-x="650" 
d="M600 825v-75h-425v-300h325v-75h-325v-300h425v-75h-500v825h500zM300 1025v-100h-75v100h75zM475 1025v-100h-75v100h75z" />
    <glyph glyph-name="afii10051" unicode="&#x402;" horiz-adv-x="1000" 
d="M325 365v-365h-75v750h-250v75h575v-75h-250v-240q5 6 12 14q103 102 248 102t247.5 -102.5t102.5 -247.5t-102.5 -247.5t-272.5 -102.5v75q139 0 219.5 80.5t80.5 194.5t-80.5 194.5t-194.5 80.5t-194 -81q-42 -42 -66 -105z" />
    <glyph glyph-name="afii10052" unicode="&#x403;" horiz-adv-x="550" 
d="M100 824h475v-75h-400v-750h-75v825zM293 925l60 225h79l-60 -225h-79z" />
    <glyph glyph-name="Jukcy" unicode="&#x404;" horiz-adv-x="850" 
d="M127 375q12 -127 104 -219q106 -106 257 -106q160 0 259 109l56 -50q-124 -134 -315 -134q-182 0 -310 128t-128 310q0 181 128 309t310 128q191 0 318 -137l-54 -52q-104 114 -264 114q-151 0 -257 -106q-93 -93 -104 -219h473v-75h-473z" />
    <glyph glyph-name="Dze" unicode="&#x405;" horiz-adv-x="725" 
d="M564 685q-33 37 -91 63.5t-123 26.5q-89 0 -142 -44t-53 -103q0 -54 38.5 -93.5t96.5 -58.5l206 -57q74 -22 121 -77t47 -138q0 -93 -79 -161t-216 -68q-111 0 -194.5 49.5t-129.5 126.5l65 41q42 -68 113.5 -105t143.5 -37q110 0 165.5 48t55.5 109q0 51 -32.5 89.5
t-90.5 53.5l-193 55q-84 27 -138 85t-54 139q0 90 74 155.5t196 65.5q93 0 165 -35.5t117 -86.5z" />
    <glyph glyph-name="afii10055" unicode="&#x406;" horiz-adv-x="275" 
d="M175 825v-825h-75v825h75z" />
    <glyph glyph-name="afii10056" unicode="&#x407;" horiz-adv-x="275" 
d="M174 825v-825h-75v825h75zM88 1025v-100h-75v100h75zM263 1025v-100h-75v100h75z" />
    <glyph glyph-name="afii10057" unicode="&#x408;" horiz-adv-x="350" 
d="M275 275q0 -114 -80 -194q-81 -81 -194 -81v75q83 0 141 58.5t58 141.5v550h75v-550z" />
    <glyph glyph-name="afii10058" unicode="&#x409;" horiz-adv-x="1225" 
d="M250 225q0 -93 -66 -159t-184 -66v75q87 0 131 44t44 106v599h525v-349h239q98 0 167.5 -69.5t69.5 -167.5q0 -99 -69.5 -168.5t-167.5 -69.5h-314v749h-375v-524zM700 400v-325h239q67 0 114.5 47.5t47.5 115.5q0 67 -47.5 114.5t-114.5 47.5h-239z" />
    <glyph glyph-name="afii10059" unicode="&#x40a;" horiz-adv-x="1300" 
d="M776 400v-325h237q67 0 114.5 47.5t47.5 115.5q0 67 -47.5 114.5t-114.5 47.5h-237zM700 0v400h-525v-400h-75v825h75v-350h525v350h76v-350h237q98 0 167.5 -69.5t69.5 -167.5q0 -99 -69.5 -168.5t-167.5 -69.5h-313z" />
    <glyph glyph-name="afii10060" unicode="&#x40b;" horiz-adv-x="1000" 
d="M325 340v-340h-75v750h-250v75h575v-75h-250v-265q5 6 12 14q103 102 248 102t247.5 -102.5t102.5 -247.5v-251h-75v251q0 114 -80.5 194.5t-194.5 80.5t-194 -81q-42 -42 -66 -105z" />
    <glyph glyph-name="afii10061" unicode="&#x40c;" horiz-adv-x="650" 
d="M175 825v-825h-75v825h75zM618 825l-299 -412l299 -413h-94l-299 413l299 412h94zM300 925l60 225h79l-60 -225h-79z" />
    <glyph glyph-name="uni040D" unicode="&#x40d;" horiz-adv-x="850" 
d="M750 0h-75v676l-518 -676h-57v825h75v-677l519 677h56v-825zM396 925l-60 225h79l60 -225h-79z" />
    <glyph glyph-name="afii10062" unicode="&#x40e;" horiz-adv-x="725" 
d="M704 825l-386 -671q-97 -154 -294 -154v75q147 0 226 112l70 122l-298 516h86l256 -441l254 441h86zM470 1075h81q-28 -68 -55 -95q-55 -55 -133 -55t-132 55q-28 27 -56 95h80q16 -29 29 -41q33 -34 79 -34t80 34q12 12 27 41z" />
    <glyph glyph-name="afii10145" unicode="&#x40f;" horiz-adv-x="675" 
d="M75 825h75v-650h375v650h75v-725h-225v-100h-75v100h-225v725z" />
    <glyph glyph-name="afii10017" unicode="&#x410;" horiz-adv-x="850" 
d="M665 200l-241 515l-241 -515h482zM700 125h-552l-58 -125h-83l385 825h64l386 -825h-84z" />
    <glyph glyph-name="afii10018" unicode="&#x411;" horiz-adv-x="700" 
d="M175 400v-325h237q67 0 114.5 47.5t47.5 115.5q0 67 -47.5 114.5t-114.5 47.5h-237zM175 750v-275h237q98 0 167.5 -69.5t69.5 -167.5q0 -99 -69.5 -168.5t-167.5 -69.5h-312v825h501v-75h-426z" />
    <glyph glyph-name="afii10019" unicode="&#x412;" horiz-adv-x="775" 
d="M176 750v-300h274q62 0 106 44t44 106t-44 106t-106 44h-274zM176 375v-300h299q62 0 106 44t44 106t-44 106t-106 44h-299zM100 825h350q93 0 159 -66t66 -159t-66 -159q-11 -11 -23 -20q26 -15 48 -37q66 -66 66 -159t-66 -159t-159 -66h-375v825z" />
    <glyph glyph-name="afii10020" unicode="&#x413;" horiz-adv-x="550" 
d="M100 824h475v-75h-400v-750h-75v825z" />
    <glyph glyph-name="afii10021" unicode="&#x414;" horiz-adv-x="850" 
d="M200 824h500v-574h100v-250h-75v175h-625v-175h-75v250q87 0 131 44t44 106v424zM218 250h407v499h-350v-349q0 -87 -57 -150z" />
    <glyph glyph-name="afii10022" unicode="&#x415;" horiz-adv-x="650" 
d="M600 825v-75h-425v-300h325v-75h-325v-300h425v-75h-500v825h500z" />
    <glyph glyph-name="afii10024" unicode="&#x416;" horiz-adv-x="1025" 
d="M550 824v-824h-75v824h75zM132 824l299 -413l-298 -411h-94l298 411l-299 413h94zM892 0l-298 412l299 412h94l-299 -412l298 -412h-94z" />
    <glyph glyph-name="afii10025" unicode="&#x417;" horiz-adv-x="650" 
d="M325 475q62 0 106 44t44 106t-44 106t-106 44t-106 -44t-44 -106h-75q0 93 66 159t159 66t159 -66t66 -159t-66 -159q-14 -14 -30 -26q25 -15 48 -38q73 -73 73 -177t-73 -177t-177 -73t-177 73t-73 177h75q0 -73 51 -124t124 -51q72 0 123.5 51t51.5 124
q0 72 -51.5 123.5t-123.5 51.5v75z" />
    <glyph glyph-name="Icy" unicode="&#x418;" horiz-adv-x="850" 
d="M750.006 825h-55.9961l-518.969 -677v677h-74.9951v-825h56.9961l517.969 676v-676h74.9951v825z" />
    <glyph glyph-name="afii10027" unicode="&#x419;" horiz-adv-x="850" 
d="M750 0h-75v676l-518 -676h-57v825h75v-677l519 677h56v-825zM532 1075h81q-28 -68 -55 -95q-55 -55 -133 -55t-132 55q-28 27 -56 95h80q16 -29 29 -41q33 -34 79 -34t80 34q12 12 27 41z" />
    <glyph glyph-name="afii10028" unicode="&#x41a;" horiz-adv-x="650" 
d="M175 825v-825h-75v825h75zM618 825l-299 -412l299 -413h-94l-299 413l299 412h94z" />
    <glyph glyph-name="cyrEl" unicode="&#x41b;" 
d="M700 0h-75v749h-375v-524q0 -93 -66 -159t-184 -66v75q87 0 131 44t44 106v599h525v-824z" />
    <glyph glyph-name="afii10030" unicode="&#x41c;" horiz-adv-x="1050" 
d="M492 240l-317 439v-679h-75v825h62l363 -502l361 502h64v-825h-75v681l-317 -441h-66z" />
    <glyph glyph-name="afii10031" unicode="&#x41d;" horiz-adv-x="875" 
d="M700 450v375h75v-825h-75v375h-525v-375h-75v825h75v-375h525z" />
    <glyph glyph-name="afii10032" unicode="&#x41e;" horiz-adv-x="975" 
d="M925 413q0 -182 -128 -310t-309 -128q-182 0 -310 128t-128 310q0 181 128 309t310 128q181 0 309 -128t128 -309zM488 775q-151 0 -257 -106t-106 -256q0 -151 106 -257t257 -106q150 0 256 106t106 257q0 150 -106 256t-256 106z" />
    <glyph glyph-name="cyrPe" unicode="&#x41f;" horiz-adv-x="750" 
d="M175 750v-750h-75v825h550v-825h-75v750h-400z" />
    <glyph glyph-name="afii10034" unicode="&#x420;" horiz-adv-x="750" 
d="M388 750h-213v-475h213q98 0 167.5 69.5t69.5 168.5q0 98 -69.5 167.5t-167.5 69.5zM100 825h288q129 0 220.5 -91.5t91.5 -220.5q0 -130 -91.5 -221.5t-220.5 -91.5h-213v-200h-75v825z" />
    <glyph glyph-name="afii10035" unicode="&#x421;" horiz-adv-x="850" 
d="M747 159l56 -50l-6 -6q-128 -128 -309 -128q-182 0 -310 128t-128 310q0 181 128 309t310 128q181 0 309 -128l9 -9l-54 -52l-8 8q-106 106 -256 106q-151 0 -257 -106t-106 -256q0 -151 106 -257t257 -106q150 0 256 106z" />
    <glyph glyph-name="afii10036" unicode="&#x422;" horiz-adv-x="550" 
d="M238 750h-238v75h550v-75h-237v-750h-75v750z" />
    <glyph glyph-name="afii10037" unicode="&#x423;" horiz-adv-x="725" 
d="M704 825l-386 -671q-97 -154 -294 -154v75q147 0 226 112l70 122l-298 516h86l256 -441l254 441h86z" />
    <glyph glyph-name="Ef" unicode="&#x424;" horiz-adv-x="975" 
d="M925 413q0 -182 -128 -310t-309 -128q-182 0 -310 128t-128 310q0 181 128 309t310 128q181 0 309 -128t128 -309zM488 775q-151 0 -257 -106t-106 -256q0 -151 106 -257t257 -106q150 0 256 106t106 257q0 150 -106 256t-256 106zM525 950v-1075h-75v1075h75z" />
    <glyph glyph-name="afii10039" unicode="&#x425;" horiz-adv-x="750" 
d="M727 825l-299 -412l299 -413h-94l-252 347l-253 -347h-94l300 413l-300 412h94l253 -347l252 347h94z" />
    <glyph glyph-name="afii10040" unicode="&#x426;" horiz-adv-x="775" 
d="M675 -25h-575v875h75v-799h400v799h75v-799h101v-200h-76v124z" />
    <glyph glyph-name="afii10041" unicode="&#x427;" 
d="M625.011 364.028v460.972h74.9951v-824.949h-74.9951v239.985q-93.9941 -89.9951 -224.986 -89.9951q-134.992 0 -229.986 94.9941t-94.9941 229.986v349.979h74.9961v-349.979q0 -103.994 72.9951 -176.989q72.9961 -72.9951 176.989 -72.9951t176.989 72.9951
q29.998 29.998 47.9971 65.9961z" />
    <glyph glyph-name="Sha" unicode="&#x428;" horiz-adv-x="1125" 
d="M100 0v825h75v-750h350v750h75v-750h350v750h75v-825h-925z" />
    <glyph glyph-name="Shcha" unicode="&#x429;" horiz-adv-x="1200" 
d="M100 0v825h75v-750h350v750h75v-750h350v750h75v-750h150v-200h-75v125h-1000z" />
    <glyph glyph-name="afii10044" unicode="&#x42a;" horiz-adv-x="750" 
d="M626 312q0 99 -69.5 168.5t-167.5 69.5h-213v-475h213q98 0 167.5 69.5t69.5 167.5zM101 825h75v-200h213q129 0 220.5 -91.5t91.5 -221.5q0 -129 -91.5 -220.5t-220.5 -91.5h-288v825zM0 750v75h150v-75h-150z" />
    <glyph glyph-name="afii10045" unicode="&#x42b;" horiz-adv-x="1000" 
d="M625 312q0 99 -69.5 168.5t-167.5 69.5h-213v-475h213q98 0 167.5 69.5t69.5 167.5zM100 825h75v-200h213q129 0 220.5 -91.5t91.5 -221.5q0 -129 -91.5 -220.5t-220.5 -91.5h-288v825zM899 825v-825h-75v825h75z" />
    <glyph glyph-name="cyrSoft" unicode="&#x42c;" horiz-adv-x="750" 
d="M388 75.0459h-213v474.971h213q98 0 167.5 -69.4951q69.5 -69.4961 69.5 -168.49q0 -97.9941 -69.5 -167.489q-69.5 -69.4961 -167.5 -69.4961zM100 0.0507812h288q129 0 220.5 91.4941t91.5 220.486q0 129.992 -91.5 221.486t-220.5 91.4941h-213v199.988h-75v-824.949z
" />
    <glyph glyph-name="cyrE" unicode="&#x42d;" horiz-adv-x="850" 
d="M722.008 375q-11.999 -127 -103.994 -219q-105.993 -106 -256.984 -106q-159.99 0 -258.983 109l-55.9971 -50q123.992 -134 314.98 -134q181.989 0 309.981 128t127.992 310q0 181 -127.992 309t-309.981 128q-190.988 0 -317.98 -137l53.9971 -52
q103.993 114 263.983 114q150.991 0 256.984 -106q92.9951 -93 103.994 -219h-472.971v-75h472.971z" />
    <glyph glyph-name="afii10048" unicode="&#x42e;" horiz-adv-x="1225" 
d="M738 775q-151 0 -257 -106t-106 -256q0 -151 106 -257t257 -106q150 0 256 106t106 257q0 150 -106 256t-256 106zM175 375v-375h-75v825h75v-375h126q12 157 127 272q128 128 310 128q181 0 309 -128t128 -309q0 -182 -128 -310t-309 -128q-182 0 -310 128
q-114 114 -127 272h-126z" />
    <glyph glyph-name="YAcy" unicode="&#x42f;" horiz-adv-x="775" 
d="M388.023 750h212.987v-475h-212.987q-97.9941 0 -167.489 69.5q-69.4961 69.5 -69.4961 168.5q0 98 69.4961 167.5q69.4951 69.5 167.489 69.5zM293.029 214q44.9971 -14 94.9941 -14h212.987v-200h74.9951v825h-287.982q-128.992 0 -220.486 -91.5t-91.4941 -220.5
q0 -130 90.9941 -221q27.998 -28 57.9961 -47l-124.992 -245h83.9951z" />
    <glyph glyph-name="afii10065" unicode="&#x430;" horiz-adv-x="825" 
d="M650 442q-20 42 -55 78q-81 80 -195 80t-194.5 -80.5t-80.5 -194.5t80.5 -194.5t194.5 -80.5t195 81q35 35 55 77v234zM650 651h75v-651h-75v80q-105 -105 -250 -105t-247.5 102.5t-102.5 247.5t102.5 247.5t247.5 102.5t250 -105v81z" />
    <glyph glyph-name="afii10066" unicode="&#x431;" horiz-adv-x="700" 
d="M350 425q-83 0 -141.5 -58.5t-58.5 -141.5t58.5 -141.5t141.5 -58.5t141.5 58.5t58.5 141.5t-58.5 141.5t-141.5 58.5zM150 415l5 5q81 80 195 80t194.5 -80.5t80.5 -194.5t-80.5 -194.5t-194.5 -80.5t-194.5 80.5t-80.5 194.5v200q0 114 80.5 194.5t194.5 80.5
q73 0 133 50h106q-43 -44 -44 -45q-81 -80 -195 -80q-84 0 -142 -58.5t-58 -141.5v-10z" />
    <glyph glyph-name="afii10067" unicode="&#x432;" horiz-adv-x="675" 
d="M176 300v-225h237q46 0 79 33t33 80q0 46 -33 79t-79 33h-237zM400 375q41 0 70.5 29.5t29.5 70.5t-29.5 70.5t-70.5 29.5h-224v-200h224zM100 650h300q72 0 123.5 -51.5t51.5 -123.5q0 -73 -51 -124q-4 -4 -8 -7q15 -10 29 -24q55 -55 55 -132q0 -78 -55 -133t-132 -55
h-313v650z" />
    <glyph glyph-name="afii10068" unicode="&#x433;" horiz-adv-x="475" 
d="M100 649h400v-75h-325v-575h-75v650z" />
    <glyph glyph-name="afii10069" unicode="&#x434;" 
d="M200 650h450v-475h100v-175h-75v100h-575v-100h-75v175q87 0 131 44t44 106v325zM218 175h357v400h-300v-250q0 -87 -57 -150z" />
    <glyph glyph-name="afii10070" unicode="&#x435;" horiz-adv-x="725" 
d="M567 544q-72 56 -167 56q-114 0 -194.5 -80.5t-80.5 -194.5q0 -95 56 -167zM234 105q72 -55 166 -55q114 0 195 81l53 -53q-103 -103 -248 -103t-247.5 102.5t-102.5 247.5t102.5 247.5t247.5 102.5t248 -102q13 -14 25 -29z" />
    <glyph glyph-name="afii10072" unicode="&#x436;" horiz-adv-x="925" 
d="M499 650v-649h-75v649h75zM143 650l236 -325l-235 -324h-93l235 324l-236 325h93zM779 1l-235 324l236 325h93l-236 -325l235 -324h-93z" />
    <glyph glyph-name="afii10073" unicode="&#x437;" horiz-adv-x="500" 
d="M228.017 300q51.9971 0 88.4951 -36.5q36.4971 -36.5 36.4971 -88.5t-36.4971 -88.5q-36.498 -36.5 -88.4951 -36.5q-50.9971 0 -87.9941 37q-14.999 14 -23.999 32l-66.9961 -34q14 -28 37.998 -51q58.9961 -59 140.991 -59q82.9951 0 141.491 58.5
q58.4971 58.5 58.4971 141.5t-58.9971 142q-11.999 12 -25.998 22q9 7 17.999 16q54.9971 55 54.9971 133q0 77 -54.9971 132t-132.992 55q-76.9951 0 -131.991 -55q-26.999 -27 -40.998 -59l67.9961 -33q7.99902 21 25.998 39q32.998 33 78.9951 33q46.9971 0 79.9951 -33
t32.998 -79q0 -47 -32.998 -80t-79.9951 -33v-75z" />
    <glyph glyph-name="afii10074" unicode="&#x438;" horiz-adv-x="725" 
d="M624 650v-650h-75v503l-402 -503h-48v650h75v-497l396 497h54z" />
    <glyph glyph-name="afii10075" unicode="&#x439;" horiz-adv-x="725" 
d="M624 650v-650h-75v503l-402 -503h-48v650h75v-497l396 497h54zM469 900h81q-28 -68 -55 -95q-55 -55 -133 -55t-132 55q-28 27 -56 95h80q16 -29 29 -41q33 -34 79 -34t80 34q12 12 27 41z" />
    <glyph glyph-name="afii10076" unicode="&#x43a;" horiz-adv-x="600" 
d="M175 650v-650h-75v650h75zM549 650l-236 -325l236 -325h-93l-236 325l236 325h93z" />
    <glyph glyph-name="afii10077" unicode="&#x43b;" horiz-adv-x="750" 
d="M650 0h-75v576h-325v-351q0 -93 -66 -159t-184 -66v75q87 0 131 44t44 106v426h475v-651z" />
    <glyph glyph-name="afii10078" unicode="&#x43c;" horiz-adv-x="900" 
d="M175 513v-512h-75v648h70l281 -387l280 387h70v-648h-75v512l-246 -340h-59z" />
    <glyph glyph-name="afii10079" unicode="&#x43d;" horiz-adv-x="750" 
d="M175 301v-301h-75v650h75v-274h400v274h75v-650h-75v301h-400z" />
    <glyph glyph-name="afii10080" unicode="&#x43e;" 
d="M750 325q0 -145 -102.5 -247.5t-247.5 -102.5t-247.5 102.5t-102.5 247.5t102.5 247.5t247.5 102.5t247.5 -102.5t102.5 -247.5zM400 600q-114 0 -194.5 -80.5t-80.5 -194.5t80.5 -194.5t194.5 -80.5t194.5 80.5t80.5 194.5t-80.5 194.5t-194.5 80.5z" />
    <glyph glyph-name="afii10081" unicode="&#x43f;" horiz-adv-x="700" 
d="M175 575v-575h-75v650h500v-650h-75v575h-350z" />
    <glyph glyph-name="afii10082" unicode="&#x440;" horiz-adv-x="825" 
d="M174 208q20 -42 56 -78q80 -80 194 -80t194.5 80.5t80.5 194.5t-80.5 194.5t-194.5 80.5t-194 -81q-36 -35 -56 -77v-234zM174 -175h-75v825h75v-80q105 105 250 105t247.5 -102.5t102.5 -247.5t-102.5 -247.5t-247.5 -102.5t-250 105v-255z" />
    <glyph glyph-name="afii10083" unicode="&#x441;" horiz-adv-x="725" 
d="M614 152l58 -48q-11 -13 -24 -26q-103 -103 -248 -103t-247.5 102.5t-102.5 247.5t102.5 247.5t247.5 102.5t248 -102q13 -14 24 -27l-58 -48q-9 11 -19 22q-81 80 -195 80t-194.5 -80.5t-80.5 -194.5t80.5 -194.5t194.5 -80.5t195 81q10 10 19 21z" />
    <glyph glyph-name="afii10084" unicode="&#x442;" horiz-adv-x="475" 
d="M475 650v-75h-200v-575h-75v575h-200v75h475z" />
    <glyph glyph-name="afii10085" unicode="&#x443;" 
d="M625 0v65q-94 -90 -225 -90q-135 0 -230 95t-95 230v350h75v-350q0 -104 73 -177t177 -73t177 73q30 30 48 66v461h75v-650q0 -135 -95 -230t-230 -95v75q104 0 177 73t73 177z" />
    <glyph glyph-name="afii10086" unicode="&#x444;" horiz-adv-x="1175" 
d="M338 600q-89 0 -151 -80.5t-62 -194.5t62 -194.5t151 -80.5q88 0 150 80.5t62 194.5t-62 194.5t-150 80.5zM837 600q-88 0 -150 -80.5t-62 -194.5t62 -194.5t150 -80.5t150.5 80.5t62.5 194.5t-62.5 194.5t-150.5 80.5zM550 89q-4 -6 -9 -11q-84 -103 -203 -103
q-120 0 -204 102.5t-84 247.5t84 247.5t204 102.5q119 0 203 -102q5 -6 9 -12v214h75v-214q4 6 9 12q84 102 203 102t203.5 -102.5t84.5 -247.5t-84.5 -247.5t-203.5 -102.5t-203 103q-5 5 -9 11v-214h-75v214z" />
    <glyph glyph-name="afii10087" unicode="&#x445;" horiz-adv-x="625" 
d="M594 650l-236 -325l236 -325h-93l-189 261l-190 -261h-93l236 325l-236 325h93l190 -261l189 261h93z" />
    <glyph glyph-name="afii10088" unicode="&#x446;" horiz-adv-x="775" 
d="M100 0v650h75v-574h324v574h75v-574h151v-200h-75v124h-550z" />
    <glyph glyph-name="afii10089" unicode="&#x447;" 
d="M625 314v336h75v-650h-75v191q-94 -91 -225 -91q-135 0 -230 95t-95 230v225h75v-225q0 -104 73 -177t177 -73t177 73q30 31 48 66z" />
    <glyph glyph-name="afii10090" unicode="&#x448;" horiz-adv-x="1075" 
d="M100 0v651h75v-576h325v576h75v-577h325v576h75v-650h-875z" />
    <glyph glyph-name="afii10091" unicode="&#x449;" horiz-adv-x="1150" 
d="M100 0v651h75v-576h325v576h75v-576h325v575h75v-575h150v-200h-75v125h-950z" />
    <glyph glyph-name="hardsmall" unicode="&#x44a;" horiz-adv-x="675" 
d="M527 250q0 72 -51.5 123.5t-123.5 51.5h-176v-350h176q72 0 123.5 51t51.5 124zM100 650h76v-150h176q104 0 177 -73t73 -177t-73 -177t-177 -73h-252v650zM0 575v75h150v-75h-150z" />
    <glyph glyph-name="yeru" unicode="&#x44b;" horiz-adv-x="900" 
d="M527 250q0 72 -51.5 123.5t-123.5 51.5h-176v-350h176q72 0 123.5 51t51.5 124zM100 650h76v-150h176q104 0 177 -73t73 -177t-73 -177t-177 -73h-252v650zM800 650v-650h-75v650h75z" />
    <glyph glyph-name="softsmall" unicode="&#x44c;" horiz-adv-x="650" 
d="M352 75.0352h-176v349.979h176q72 0 123.5 -51.4971t51.5 -123.492q0 -72.9951 -51.5 -123.992t-123.5 -50.9971zM100 0.0400391h252q104 0 177 72.9951q73 72.9961 73 176.989t-73 176.989q-73 72.9951 -177 72.9951h-176v149.991h-76v-649.96z" />
    <glyph glyph-name="afii10095" unicode="&#x44d;" horiz-adv-x="725" 
d="M594.008 362.018q-10.999 89.9941 -78.9951 156.99q-79.9951 80.9951 -193.988 80.9951t-194.988 -80.9951q-9.99902 -9.99902 -18.999 -20.998l-57.9961 47.9961q10.999 13 23.998 25.999q102.994 102.993 247.985 102.993t247.485 -102.493
q102.493 -102.494 102.493 -247.485t-102.493 -247.484q-102.494 -102.494 -247.485 -102.494t-247.985 101.994q-12.999 13.999 -23.998 26.998l57.9961 47.9971q9 -10.999 18.999 -21.999q80.9951 -79.9941 194.988 -79.9941t193.988 79.9941
q66.9961 66.9961 78.9951 156.991h-322.98v74.9951h322.98z" />
    <glyph glyph-name="afii10096" unicode="&#x44e;" horiz-adv-x="1050" 
d="M650 600q-114 0 -194.5 -80.5t-80.5 -194.5t80.5 -194.5t194.5 -80.5t194.5 80.5t80.5 194.5t-80.5 194.5t-194.5 80.5zM175 288v-288h-75v650h75v-287h127q12 121 101 210q102 102 247 102t247.5 -102.5t102.5 -247.5t-102.5 -247.5t-247.5 -102.5t-247 103
q-90 89 -101 210h-127z" />
    <glyph glyph-name="afii10097" unicode="&#x44f;" horiz-adv-x="675" 
d="M149 400q0 -72 51.5 -123.5t123.5 -51.5h176v350h-176q-72 0 -123.5 -51t-51.5 -124zM175 0h-86l102 187q-23 15 -44 36q-73 73 -73 177t73 177t177 73h252v-650h-76v150h-176q-33 0 -63 7z" />
    <glyph glyph-name="uni0450" unicode="&#x450;" horiz-adv-x="725" 
d="M567 544q-72 56 -167 56q-114 0 -194.5 -80.5t-80.5 -194.5q0 -95 56 -167zM234 105q72 -55 166 -55q114 0 195 81l53 -53q-103 -103 -248 -103t-247.5 102.5t-102.5 247.5t102.5 247.5t247.5 102.5t248 -102q13 -14 25 -29zM329 775l-60 225h79l60 -225h-79z" />
    <glyph glyph-name="afii10071" unicode="&#x451;" horiz-adv-x="725" 
d="M567 544q-72 56 -167 56q-114 0 -194.5 -80.5t-80.5 -194.5q0 -95 56 -167zM234 105q72 -55 166 -55q114 0 195 81l53 -53q-103 -103 -248 -103t-247.5 102.5t-102.5 247.5t102.5 247.5t247.5 102.5t248 -102q13 -14 25 -29zM312 850v-100h-75v100h75zM487 850v-100h-75
v100h75z" />
    <glyph glyph-name="afii10099" unicode="&#x452;" horiz-adv-x="900" 
d="M225 288v-288h-75v574h-150v75h150v27h75v-27h150v-75h-150v-141q5 6 12 14q103 102 248 102t247.5 -102.5t102.5 -247.5t-102.5 -247.5t-272.5 -102.5v75q139 0 219.5 80.5t80.5 194.5t-80.5 194.5t-194.5 80.5t-194 -81q-42 -42 -66 -105z" />
    <glyph glyph-name="afii10100" unicode="&#x453;" horiz-adv-x="475" 
d="M100 649h400v-75h-325v-575h-75v650zM253 750l60 225h79l-60 -225h-79z" />
    <glyph glyph-name="afii10101" unicode="&#x454;" horiz-adv-x="725" 
d="M127 288q11 -90 79 -157q80 -81 194 -81t195 81q10 10 19 21l58 -48q-11 -13 -24 -26q-103 -103 -248 -103t-247.5 102.5t-102.5 247.5t102.5 247.5t247.5 102.5t248 -102q13 -14 24 -27l-58 -48q-9 11 -19 22q-81 80 -195 80t-194 -80q-67 -67 -79 -157h323v-75h-323z
" />
    <glyph glyph-name="afii10102" unicode="&#x455;" horiz-adv-x="575" 
d="M98 99q89 -49 181 -49q79 0 128 32t49 85q0 39 -23 66t-74 38l-140 34q-78 23 -117.5 70t-39.5 113q0 76 61 130.5t162 56.5q142 0 238 -79l-58 -50q-78 54 -179 54q-73 -2 -111 -35.5t-38 -77.5q0 -38 24 -65.5t74 -41.5l147 -38q70 -17 109.5 -62.5t39.5 -112.5
q0 -85 -71 -138.5t-181 -53.5q-125 0 -231 65z" />
    <glyph glyph-name="afii10103" unicode="&#x456;" horiz-adv-x="275" 
d="M175 650v-650h-75v650h75zM175 850v-100h-75v100h75z" />
    <glyph glyph-name="afii10104" unicode="&#x457;" horiz-adv-x="275" 
d="M176 650v-650h-75v650h75zM88 850v-100h-75v100h75zM263 850v-100h-75v100h75z" />
    <glyph glyph-name="afii10105" unicode="&#x458;" horiz-adv-x="275" 
d="M150 0v650h75v-650q0 -135 -95 -230t-230 -95v75q104 0 177 73t73 177zM225 850v-100h-75v100h75z" />
    <glyph glyph-name="afii10106" unicode="&#x459;" horiz-adv-x="1150" 
d="M652 325v-250h247q51 1 87 37q37 36 37 88t-37 88q-36 37 -87 37h-247zM250 225q0 -93 -66 -159t-184 -66v75q87 0 131 44t44 106v425h477v-250h247q81 0 141 -58q58 -59 58 -142q0 -82 -58 -141q-60 -58 -141 -59h-323v574h-326v-349z" />
    <glyph glyph-name="afii10107" unicode="&#x45a;" horiz-adv-x="1150" 
d="M175 325v-325h-75v648h75v-247h400v248h75v-249h248q81 0 141 -58q58 -59 58 -142q0 -82 -58 -141q-60 -58 -141 -59h-323v325h-400zM650 325v-250h248q51 1 87 37q37 36 37 88t-37 88q-36 37 -87 37h-248z" />
    <glyph glyph-name="afii10108" unicode="&#x45b;" horiz-adv-x="900" 
d="M225 288v-288h-75v574h-150v75h150v27h75v-27h150v-75h-150v-141q5 6 12 14q103 102 248 102t248 -102q102 -103 102 -247v-200h-75v199q0 114 -80.5 194.5t-194.5 80.5t-194 -81q-42 -42 -66 -105z" />
    <glyph glyph-name="afii10109" unicode="&#x45c;" horiz-adv-x="600" 
d="M175 650v-650h-75v650h75zM549 650l-236 -325l236 -325h-93l-236 325l236 325h93zM265 750l60 225h79l-60 -225h-79z" />
    <glyph glyph-name="uni045D" unicode="&#x45d;" horiz-adv-x="725" 
d="M624 650v-650h-75v503l-402 -503h-48v650h75v-497l396 497h54zM319 750l-60 225h79l60 -225h-79z" />
    <glyph glyph-name="afii10110" unicode="&#x45e;" 
d="M625 0v65q-94 -90 -225 -90q-135 0 -230 95t-95 230v350h75v-350q0 -104 73 -177t177 -73t177 73q30 30 48 66v461h75v-650q0 -135 -95 -230t-230 -95v75q104 0 177 73t73 177zM495 900h81q-28 -68 -55 -95q-55 -55 -133 -55t-132 55q-28 27 -56 95h80q16 -29 29 -41
q33 -34 79 -34t80 34q12 12 27 41z" />
    <glyph glyph-name="afii10193" unicode="&#x45f;" horiz-adv-x="625" 
d="M475 200v451h75v-526h-199v-125h-75v125h-201v526h75v-451h325z" />
    <glyph glyph-name="Yat" unicode="&#x462;" horiz-adv-x="750" 
d="M388 75q98 0 167.5 69.5t69.5 167.5q0 99 -69.5 168.5t-167.5 69.5h-213v-475h213zM400 825v-75h-225v-125h213q129 0 220.5 -91.5t91.5 -221.5q0 -129 -91.5 -220.5t-220.5 -91.5h-288v825h300z" />
    <glyph glyph-name="afii10194" unicode="&#x463;" horiz-adv-x="650" 
d="M176 75h199q62 0 106 44t44 106t-44 106t-106 44h-199v-300zM176 450h199q93 0 159 -66t66 -159t-66 -159t-159 -66h-275v650h300v-75h-224v-125z" />
    <glyph glyph-name="afii10147" unicode="&#x472;" horiz-adv-x="1025" 
d="M925 413q0 -182 -128 -310t-309 -128q-182 0 -310 128t-128 310q0 181 128 309t310 128q181 0 309 -128t128 -309zM848 453q-13 125 -104 216q-106 106 -256 106q-151 0 -257 -106q-94 -94 -105 -222q163 46 360 3q198 -43 362 3zM127 374q12 -126 104 -218
q106 -106 257 -106q150 0 256 106q94 94 105 225q-163 -46 -360 -3q-198 43 -362 -4z" />
    <glyph glyph-name="afii10195" unicode="&#x473;" 
d="M750 325q0 -145 -102.5 -247.5t-247.5 -102.5t-247.5 102.5t-102.5 247.5t102.5 247.5t247.5 102.5t247.5 -102.5t102.5 -247.5zM672 367q-12 87 -77 153q-81 80 -195 80t-194 -80q-60 -60 -75 -137q131 -45 270 -8q140 37 271 -8zM125 312q5 -106 81 -181
q80 -81 194 -81t195 81q68 68 78 162q-135 50 -278 11q-139 -37 -270 8z" />
    <glyph glyph-name="smallA" unicode="&#x1d00;" horiz-adv-x="675" 
d="M133 100l-47 -100h-83l303 650h64l305 -650h-83l-47 100h-412zM510 175l-172 365l-170 -365h342z" />
    <glyph glyph-name="uni1D01" unicode="&#x1d01;" horiz-adv-x="925" 
d="M500 575v-212h275v-75h-275v-213h375v-75h-450v100h-292l-47 -100h-83l303 650h569v-75h-375zM425 175v400h-67l-190 -400h257z" />
    <glyph glyph-name="uni1D02" unicode="&#x1d02;" horiz-adv-x="1175" 
d="M156.062 86.0332q71.9961 -55.9961 166.99 -55.9961q113.993 0 194.488 80.4941q80.4951 80.4951 80.4951 194.488q0 94.9941 -55.9971 166.99zM598.035 522.007q74.9951 -92.9941 74.9951 -216.987q0 -123.992 -74.9951 -216.986q72.9951 -57.9961 169.989 -57.9961
q113.993 0 194.488 80.4941q80.4951 80.4951 80.4951 194.488t-80.4951 194.488t-194.488 80.4951q-96.9941 0 -169.989 -57.9961zM568.037 16.0371v-35.9971h-74.9961v17.999q-75.9951 -42.998 -169.989 -42.998q-144.991 0 -247.985 101.994
q-12.999 13.999 -24.998 28.998l438.973 438.974q-71.9951 54.9961 -165.989 54.9961q-113.993 0 -194.988 -80.9951l-52.9971 52.9971q102.994 102.993 247.985 102.993q127.992 0 222.986 -79.9951q94.9941 79.9951 221.986 79.9951q144.991 0 247.485 -102.493
q102.493 -102.494 102.493 -247.485t-102.493 -247.484q-102.494 -102.494 -247.485 -102.494q-112.993 0 -199.987 60.9961z" />
    <glyph glyph-name="smallB" unicode="&#x1d03;" horiz-adv-x="675" 
d="M176 300v-225h237q46 0 79 33t33 80q0 46 -33 79t-79 33h-237zM400 375q41 0 70.5 29.5t29.5 70.5t-29.5 70.5t-70.5 29.5h-224v-200h224zM100 650h300q72 0 123.5 -51.5t51.5 -123.5q0 -73 -51 -124q-4 -4 -8 -7q15 -10 29 -24q55 -55 55 -132q0 -78 -55 -133t-132 -55
h-313v650z" />
    <glyph glyph-name="smallC" unicode="&#x1d04;" horiz-adv-x="725" 
d="M614 152l58 -48q-11 -13 -24 -26q-103 -103 -248 -103t-247.5 102.5t-102.5 247.5t102.5 247.5t247.5 102.5t248 -102q13 -14 24 -27l-58 -48q-9 11 -19 22q-81 80 -195 80t-194.5 -80.5t-80.5 -194.5t80.5 -194.5t194.5 -80.5t195 81q10 10 19 21z" />
    <glyph glyph-name="Dsmall" unicode="&#x1d05;" horiz-adv-x="725" 
d="M676 325q0 -135 -95.5 -230t-229.5 -95h-251v650h251q134 0 229.5 -95t95.5 -230zM351 575h-177v-500h177q103 0 176.5 73t73.5 177t-73.5 177t-176.5 73z" />
    <glyph glyph-name="smallEth" unicode="&#x1d06;" horiz-adv-x="725" 
d="M677 325q0 -135 -95.5 -230t-229.5 -95h-251v650h251q134 0 229.5 -95t95.5 -230zM352 575h-177v-500h177q103 0 176.5 73t73.5 177t-73.5 177t-176.5 73zM300 363v-75h-300v75h300z" />
    <glyph glyph-name="smallE" unicode="&#x1d07;" horiz-adv-x="600" 
d="M550 650v-75h-375v-212h275v-75h-275v-213h375v-75h-450v650h450z" />
    <glyph glyph-name="smallturnedopene" unicode="&#x1d08;" horiz-adv-x="725" 
d="M156.034 123.033q71.9961 -55.9961 166.99 -55.9961q113.993 0 194.488 80.4941q80.4951 80.4951 80.4951 194.488q0 94.9941 -55.9971 166.99zM489.015 562.007q-71.9961 54.9961 -165.99 54.9961q-113.993 0 -194.988 -80.9951l-52.9971 52.9971
q102.994 102.993 247.985 102.993t247.485 -102.493q102.493 -102.494 102.493 -247.485t-102.493 -247.484q-102.494 -102.494 -247.485 -102.494t-247.985 101.994q-12.999 13.999 -24.998 28.998z" />
    <glyph glyph-name="smallI" unicode="&#x1d09;" horiz-adv-x="275" 
d="M175 650v-650h-75v650h75z" />
    <glyph glyph-name="smallJ" unicode="&#x1d0a;" horiz-adv-x="325" 
d="M249 250h1q0 -118 -66 -184t-184 -66v75q87 0 131 44t44 81h-1v450h75v-400z" />
    <glyph glyph-name="smallK" unicode="&#x1d0b;" horiz-adv-x="600" 
d="M175 650v-650h-75v650h75zM549 650l-236 -325l236 -325h-93l-236 325l236 325h93z" />
    <glyph glyph-name="smallL" unicode="&#x1d0c;" horiz-adv-x="475" 
d="M100 650h75v-575h325v-75h-400v650z" />
    <glyph glyph-name="smallM" unicode="&#x1d0d;" horiz-adv-x="900" 
d="M175 513v-512h-75v648h70l281 -387l280 387h70v-648h-75v512l-246 -340h-59z" />
    <glyph glyph-name="smallNrev" unicode="&#x1d0e;" horiz-adv-x="725" 
d="M571.01 650l-395.977 -497v497h-74.9951v-650h47.9971l401.976 503v-503h74.9951v650h-53.9961z" />
    <glyph glyph-name="smallO" unicode="&#x1d0f;" 
d="M750 325q0 -145 -102.5 -247.5t-247.5 -102.5t-247.5 102.5t-102.5 247.5t102.5 247.5t247.5 102.5t247.5 -102.5t102.5 -247.5zM400 600q-114 0 -194.5 -80.5t-80.5 -194.5t80.5 -194.5t194.5 -80.5t194.5 80.5t80.5 194.5t-80.5 194.5t-194.5 80.5z" />
    <glyph glyph-name="smallCrev" unicode="&#x1d10;" horiz-adv-x="725" 
d="M126 131q81 -81 195 -81t194.5 80.5t80.5 194.5t-80.5 194.5t-194.5 80.5t-195 -80q-10 -11 -19 -22l-58 48q11 13 24 27q103 102 248 102t247.5 -102.5t102.5 -247.5t-102.5 -247.5t-247.5 -102.5t-248 103q-13 13 -24 26l58 48q9 -11 19 -21z" />
    <glyph glyph-name="uni1D14" unicode="&#x1d14;" horiz-adv-x="1175" 
d="M155.062 106.033q71.9961 -55.9961 166.99 -55.9961q113.993 0 194.488 80.4941q80.4951 80.4951 80.4951 194.488q0 94.9941 -55.9971 166.99zM596.035 543.007q75.9951 -93.9941 75.9951 -217.987q0 -124.992 -75.9951 -217.986q72.9951 -56.9961 168.989 -56.9961
q113.993 0 194.488 80.4941q80.4951 80.4951 80.4951 194.488t-80.4951 194.488t-194.488 80.4951q-95.9941 0 -168.989 -56.9961zM544.038 596.003q93.9941 78.9951 220.986 78.9951q144.991 0 247.485 -102.493q102.493 -102.494 102.493 -247.485t-102.493 -247.484
q-102.494 -102.494 -247.485 -102.494q-126.992 0 -221.986 77.9951q-93.9941 -77.9951 -220.986 -77.9951q-144.991 0 -247.985 101.994q-12.999 13.999 -24.998 28.998l438.973 438.974q-71.9951 54.9961 -165.989 54.9961q-113.993 0 -194.988 -80.9951l-52.9971 52.9971
q102.994 102.993 247.985 102.993q126.992 0 221.986 -78.9951z" />
    <glyph glyph-name="uni1D16" unicode="&#x1d16;" 
d="M125 325h-75q0 145 102.5 247.5t247.5 102.5t247.5 -102.5t102.5 -247.5h-75q0 114 -80.5 194.5t-194.5 80.5t-194.5 -80.5t-80.5 -194.5z" />
    <glyph glyph-name="uni1D17" unicode="&#x1d17;" 
d="M675.008 325.02h74.9951q0 -144.991 -102.493 -247.484q-102.494 -102.494 -247.485 -102.494t-247.485 102.494q-102.493 102.493 -102.493 247.484h74.9951q0 -113.993 80.4951 -194.488q80.4951 -80.4941 194.488 -80.4941t194.488 80.4941
q80.4951 80.4951 80.4951 194.488z" />
    <glyph glyph-name="smallP" unicode="&#x1d18;" horiz-adv-x="650" 
d="M352 575h-176v-350h176q72 0 123.5 51.5t51.5 123.5q0 73 -51.5 124t-123.5 51zM100 650h252q104 0 177 -73t73 -177t-73 -177t-177 -73h-176v-150h-76v650z" />
    <glyph glyph-name="smallRrev" unicode="&#x1d19;" horiz-adv-x="675" 
d="M352 575h-176v-350h176q72 0 123.5 51.5t51.5 123.5q0 73 -51.5 124t-123.5 51zM415 157q-30 -7 -63 -7h-176v-150h-76v650h252q104 0 177 -73t73 -177t-73 -177q-21 -21 -44 -36l102 -187h-86z" />
    <glyph glyph-name="smallRturn" unicode="&#x1d1a;" horiz-adv-x="675" 
d="M325 75h176v350h-176q-72 0 -123.5 -51.5t-51.5 -123.5q0 -73 51.5 -124t123.5 -51zM262 493q30 7 63 7h176v150h76v-650h-252q-104 0 -177 73t-73 177t73 177q21 21 44 36l-102 187h86z" />
    <glyph glyph-name="smallT" unicode="&#x1d1b;" horiz-adv-x="475" 
d="M475 650v-75h-200v-575h-75v575h-200v75h475z" />
    <glyph glyph-name="smallU" unicode="&#x1d1c;" horiz-adv-x="700" 
d="M550 250v400h75v-400q0 -114 -80.5 -194.5t-194.5 -80.5t-194.5 80.5t-80.5 194.5v400h75v-400q0 -83 58.5 -141.5t141.5 -58.5t141.5 58.5t58.5 141.5z" />
    <glyph glyph-name="smallV" unicode="&#x1d20;" horiz-adv-x="550" 
d="M542 650l-236 -650h-64l-236 650h81l188 -525l186 525h81z" />
    <glyph glyph-name="smallW" unicode="&#x1d21;" horiz-adv-x="975" 
d="M485 505l-183 -505h-64l-236 650h81l188 -525l186 525h56l188 -525l186 525h81l-236 -650h-64z" />
    <glyph glyph-name="smallZ" unicode="&#x1d22;" horiz-adv-x="600" 
d="M460 575h-434v75h550v-52l-432 -523h432v-75h-550v50z" />
    <glyph glyph-name="uni1D23" unicode="&#x1d23;" horiz-adv-x="575" 
d="M289 424q82 -5 142 -65q66 -66 66 -159t-66 -159t-159 -66t-159 66q-23 23 -38 49l65 38q10 -18 26 -34q44 -44 106 -44t106 44t44 106t-44 106t-106 44q-49 0 -86 -27l-54 54l203 198h-251v75h375v-58z" />
    <glyph glyph-name="smallS" unicode="&#x1d24;" horiz-adv-x="575" 
d="M100 90q89 -49 181 -49q79 0 128 32t49 85q0 39 -23 66t-74 38l-140 34q-78 23 -117.5 70t-39.5 113q0 76 61 130.5t162 56.5q142 0 238 -79l-58 -50q-78 54 -179 54q-73 -2 -111 -35.5t-38 -77.5q0 -38 24 -65.5t74 -41.5l147 -38q70 -17 109.5 -62.5t39.5 -112.5
q0 -85 -71 -138.5t-181 -53.5q-125 0 -231 65z" />
    <glyph glyph-name="smallGAMMA" unicode="&#x1d26;" horiz-adv-x="475" 
d="M100 -0.959961h75v574.965h325v74.9951h-400v-649.96z" />
    <glyph glyph-name="smallLAMDA" unicode="&#x1d27;" horiz-adv-x="550" 
d="M0.0341797 0.0400391l235.985 649.96h63.9961l235.985 -649.96h-80.9951l-187.988 524.968l-185.988 -524.968h-80.9951z" />
    <glyph glyph-name="smallPI" unicode="&#x1d28;" horiz-adv-x="700" 
d="M175 575v-575h-75v650h500v-650h-75v575h-350z" />
    <glyph glyph-name="smallRHO" unicode="&#x1d29;" horiz-adv-x="650" 
d="M352 575h-176v-350h176q72 0 123.5 51.5t51.5 123.5q0 73 -51.5 124t-123.5 51zM100 650h252q104 0 177 -73t73 -177t-73 -177t-177 -73h-176v-150h-76v650z" />
    <glyph glyph-name="smallPSI" unicode="&#x1d2a;" 
d="M674 432v220h75v-220q0 -145 -102 -248q-98 -98 -211 -101v-84h-75v84q-113 4 -210 101q-102 103 -102 248v220h75v-220q0 -114 81 -194q76 -76 156 -80v493h75v-493q80 3 157 80q81 80 81 194z" />
    <glyph glyph-name="smallEL" unicode="&#x1d2b;" horiz-adv-x="750" 
d="M650 0h-75v576h-325v-351q0 -93 -66 -159t-184 -66v75q87 0 131 44t44 106v426h475v-651z" />
    <glyph glyph-name="uni1E00" unicode="&#x1e00;" horiz-adv-x="850" 
d="M665 200l-241 515l-241 -515h482zM700 125h-552l-58 -125h-83l385 825h64l386 -825h-84zM425 -325q-52 0 -88.5 36.5t-36.5 88.5t36.5 88.5t88.5 36.5t88.5 -36.5t36.5 -88.5t-36.5 -88.5t-88.5 -36.5zM475 -200q0 21 -14.5 35.5t-35.5 14.5t-35.5 -14.5t-14.5 -35.5
t14.5 -35.5t35.5 -14.5t35.5 14.5t14.5 35.5z" />
    <glyph glyph-name="uni1E01" unicode="&#x1e01;" horiz-adv-x="825" 
d="M650 442q-20 42 -55 78q-81 80 -195 80t-194.5 -80.5t-80.5 -194.5t80.5 -194.5t194.5 -80.5t195 81q35 35 55 77v234zM650 651h75v-651h-75v80q-105 -105 -250 -105t-247.5 102.5t-102.5 247.5t102.5 247.5t247.5 102.5t250 -105v81zM388 -350q-52 0 -88.5 36.5
t-36.5 88.5t36.5 88.5t88.5 36.5t88.5 -36.5t36.5 -88.5t-36.5 -88.5t-88.5 -36.5zM438 -225q0 21 -14.5 35.5t-35.5 14.5t-35.5 -14.5t-14.5 -35.5t14.5 -35.5t35.5 -14.5t35.5 14.5t14.5 35.5z" />
    <glyph glyph-name="uni1E02" unicode="&#x1e02;" horiz-adv-x="775" 
d="M176 750v-300h274q62 0 106 44t44 106t-44 106t-106 44h-274zM176 375v-300h299q62 0 106 44t44 106t-44 106t-106 44h-299zM100 825h350q93 0 159 -66t66 -159t-66 -159q-11 -11 -23 -20q26 -15 48 -37q66 -66 66 -159t-66 -159t-159 -66h-375v825zM425 1025v-100h-75
v100h75z" />
    <glyph glyph-name="uni1E03" unicode="&#x1e03;" horiz-adv-x="825" 
d="M175 208q20 -42 56 -77q80 -81 194 -81t194.5 80.5t80.5 194.5t-80.5 194.5t-194.5 80.5t-194 -80q-36 -36 -56 -78v-234zM175 570q105 105 250 105t247.5 -102.5t102.5 -247.5t-102.5 -247.5t-247.5 -102.5t-250 105v-80h-75v825h75v-255zM475 874v-100h-75v100h75z" />
    <glyph glyph-name="uni1E04" unicode="&#x1e04;" horiz-adv-x="775" 
d="M176 750v-300h274q62 0 106 44t44 106t-44 106t-106 44h-274zM176 375v-300h299q62 0 106 44t44 106t-44 106t-106 44h-299zM100 825h350q93 0 159 -66t66 -159t-66 -159q-11 -11 -23 -20q26 -15 48 -37q66 -66 66 -159t-66 -159t-159 -66h-375v825zM425 -100v-100h-75
v100h75z" />
    <glyph glyph-name="uni1E05" unicode="&#x1e05;" horiz-adv-x="825" 
d="M175 208q20 -42 56 -77q80 -81 194 -81t194.5 80.5t80.5 194.5t-80.5 194.5t-194.5 80.5t-194 -80q-36 -36 -56 -78v-234zM175 570q105 105 250 105t247.5 -102.5t102.5 -247.5t-102.5 -247.5t-247.5 -102.5t-250 105v-80h-75v825h75v-255zM475 -125v-100h-75v100h75z
" />
    <glyph glyph-name="uni1E06" unicode="&#x1e06;" horiz-adv-x="775" 
d="M176 750v-300h274q62 0 106 44t44 106t-44 106t-106 44h-274zM176 375v-300h299q62 0 106 44t44 106t-44 106t-106 44h-299zM100 825h350q93 0 159 -66t66 -159t-66 -159q-11 -11 -23 -20q26 -15 48 -37q66 -66 66 -159t-66 -159t-159 -66h-375v825zM550 -100v-75h-300
v75h300z" />
    <glyph glyph-name="uni1E07" unicode="&#x1e07;" horiz-adv-x="825" 
d="M175 208q20 -42 56 -77q80 -81 194 -81t194.5 80.5t80.5 194.5t-80.5 194.5t-194.5 80.5t-194 -80q-36 -36 -56 -78v-234zM175 570q105 105 250 105t247.5 -102.5t102.5 -247.5t-102.5 -247.5t-247.5 -102.5t-250 105v-80h-75v825h75v-255zM588 -124v-75h-300v75h300z
" />
    <glyph glyph-name="uni1E08" unicode="&#x1e08;" horiz-adv-x="850" 
d="M399 -17q-126 25 -221 120q-128 128 -128 310q0 181 128 309t310 128q181 0 309 -128l9 -9l-54 -52l-8 8q-106 106 -256 106q-151 0 -257 -106t-106 -256q0 -151 106 -257t257 -106q150 0 256 106l3 3l56 -50l-6 -6q-128 -128 -309 -128h-14v-49q62 0 106 -44t44 -106
t-44 -106t-106 -44h-125v75h125q31 0 53 22t22 53t-22 53t-53 22h-75v132zM425 950l60 225h79l-60 -225h-79z" />
    <glyph glyph-name="uni1E09" unicode="&#x1e09;" horiz-adv-x="725" 
d="M300 -11q-82 23 -147 89q-103 102 -103 247t102.5 247.5t247.5 102.5t248 -102q13 -14 24 -27l-58 -48q-9 11 -19 22q-81 80 -195 80t-194.5 -80.5t-80.5 -194.5t80.5 -194.5t194.5 -80.5t195 81q10 10 19 21l58 -48q-11 -13 -24 -26q-103 -103 -248 -103q-13 0 -25 1
v-51q62 0 106 -44t44 -106t-44 -106t-106 -44h-125v75h125q31 0 53 22t22 53t-22 53t-53 22h-75v139zM350 775l60 225h79l-60 -225h-79z" />
    <glyph glyph-name="uni1E0A" unicode="&#x1e0a;" horiz-adv-x="900" 
d="M850 413q0 -171 -120.5 -292t-291.5 -121h-337v825h337q171 0 291.5 -121t120.5 -291zM438 750h-262v-675h262q140 0 238.5 99t98.5 239q0 139 -98.5 238t-238.5 99zM450 1025v-100h-75v100h75z" />
    <glyph glyph-name="uni1E0B" unicode="&#x1e0b;" horiz-adv-x="825" 
d="M651 442q-20 42 -56 78q-80 80 -194 80t-194.5 -80.5t-80.5 -194.5t80.5 -194.5t194.5 -80.5t194 81q36 35 56 77v234zM651 825h75v-825h-75v80q-105 -105 -250 -105t-247.5 102.5t-102.5 247.5t102.5 247.5t247.5 102.5t250 -105v255zM425 875v-100h-75v100h75z" />
    <glyph glyph-name="uni1E0C" unicode="&#x1e0c;" horiz-adv-x="900" 
d="M850 413q0 -171 -120.5 -292t-291.5 -121h-337v825h337q171 0 291.5 -121t120.5 -291zM438 750h-262v-675h262q140 0 238.5 99t98.5 239q0 139 -98.5 238t-238.5 99zM476 -100v-100h-75v100h75z" />
    <glyph glyph-name="uni1E0D" unicode="&#x1e0d;" horiz-adv-x="825" 
d="M651 442q-20 42 -56 78q-80 80 -194 80t-194.5 -80.5t-80.5 -194.5t80.5 -194.5t194.5 -80.5t194 81q36 35 56 77v234zM651 825h75v-825h-75v80q-105 -105 -250 -105t-247.5 102.5t-102.5 247.5t102.5 247.5t247.5 102.5t250 -105v255zM425 -125v-100h-75v100h75z" />
    <glyph glyph-name="uni1E0E" unicode="&#x1e0e;" horiz-adv-x="900" 
d="M850 413q0 -171 -120.5 -292t-291.5 -121h-337v825h337q171 0 291.5 -121t120.5 -291zM438 750h-262v-675h262q140 0 238.5 99t98.5 239q0 139 -98.5 238t-238.5 99zM600 -100v-75h-300v75h300z" />
    <glyph glyph-name="uni1E0F" unicode="&#x1e0f;" horiz-adv-x="825" 
d="M651 442q-20 42 -56 78q-80 80 -194 80t-194.5 -80.5t-80.5 -194.5t80.5 -194.5t194.5 -80.5t194 81q36 35 56 77v234zM651 825h75v-825h-75v80q-105 -105 -250 -105t-247.5 102.5t-102.5 247.5t102.5 247.5t247.5 102.5t250 -105v255zM538 -126v-75h-300v75h300z" />
    <glyph glyph-name="uni1E10" unicode="&#x1e10;" horiz-adv-x="900" 
d="M438 750h-262v-675h262q140 0 238.5 99t98.5 239q0 139 -98.5 238t-238.5 99zM350 0h-249v825h337q171 0 291.5 -121t120.5 -291q0 -171 -120.5 -292t-291.5 -121h-13v-50q62 0 106 -44t44 -106t-44 -106t-106 -44h-125v75h125q31 0 53 22t22 53t-22 53t-53 22h-75v125z
" />
    <glyph glyph-name="uni1E11" unicode="&#x1e11;" horiz-adv-x="825" 
d="M651 442q-20 42 -55 78q-81 80 -195 80t-194.5 -80.5t-80.5 -194.5t80.5 -194.5t194.5 -80.5t195 81q35 35 55 77v234zM325 -17q-97 20 -171 95q-103 102 -103 247t102.5 247.5t247.5 102.5t250 -105v255h75v-825h-75v80q-105 -105 -250 -105h-1v-50q62 0 106 -44
t44 -106t-44 -106t-106 -44h-125v75h125q31 0 53 22t22 53t-22 53t-53 22h-75v133z" />
    <glyph glyph-name="uni1E12" unicode="&#x1e12;" horiz-adv-x="900" 
d="M850 413q0 -171 -120.5 -292t-291.5 -121h-337v825h337q171 0 291.5 -121t120.5 -291zM438 750h-262v-675h262q140 0 238.5 99t98.5 239q0 139 -98.5 238t-238.5 99zM518 -283l-100 102l-102 -102h-107l209 207l207 -207h-107z" />
    <glyph glyph-name="uni1E13" unicode="&#x1e13;" horiz-adv-x="825" 
d="M651 442q-20 42 -56 78q-80 80 -194 80t-194.5 -80.5t-80.5 -194.5t80.5 -194.5t194.5 -80.5t194 81q36 35 56 77v234zM651 825h75v-825h-75v80q-105 -105 -250 -105t-247.5 102.5t-102.5 247.5t102.5 247.5t247.5 102.5t250 -105v255zM493 -308l-100 102l-102 -102h-107
l209 207l207 -207h-107z" />
    <glyph glyph-name="uni1E18" unicode="&#x1e18;" horiz-adv-x="650" 
d="M600 825v-75h-425v-300h325v-75h-325v-300h425v-75h-500v825h500zM451 -282l-100 102l-102 -102h-107l209 207l207 -207h-107z" />
    <glyph glyph-name="uni1E19" unicode="&#x1e19;" horiz-adv-x="725" 
d="M567 544q-72 56 -167 56q-114 0 -194.5 -80.5t-80.5 -194.5q0 -95 56 -167zM234 105q72 -55 166 -55q114 0 195 81l53 -53q-103 -103 -248 -103t-247.5 102.5t-102.5 247.5t102.5 247.5t247.5 102.5t248 -102q13 -14 25 -29zM463 -308l-100 102l-102 -102h-107l209 207
l207 -207h-107z" />
    <glyph glyph-name="uni1E1A" unicode="&#x1e1a;" horiz-adv-x="650" 
d="M600 825v-75h-425v-300h325v-75h-325v-300h425v-75h-500v825h500zM538 -109v-77q-52 -19 -98 -19q-43 0 -87.5 15t-90.5 15q-42 0 -99 -21v77q52 19 99 19q49 0 94 -15t84 -15q41 0 98 21z" />
    <glyph glyph-name="uni1E1B" unicode="&#x1e1b;" horiz-adv-x="725" 
d="M567 544q-72 56 -167 56q-114 0 -194.5 -80.5t-80.5 -194.5q0 -95 56 -167zM234 105q72 -55 166 -55q114 0 195 81l53 -53q-103 -103 -248 -103t-247.5 102.5t-102.5 247.5t102.5 247.5t247.5 102.5t248 -102q13 -14 25 -29zM549 -134v-77q-52 -19 -98 -19
q-43 0 -87.5 15t-90.5 15q-42 0 -99 -21v77q52 19 99 19q49 0 94 -15t84 -15q41 0 98 21z" />
    <glyph glyph-name="uni1E1C" unicode="&#x1e1c;" horiz-adv-x="650" 
d="M249 0h-149v825h500v-75h-425v-300h325v-75h-325v-300h425v-75h-276v-50q62 0 106 -44t44 -106t-44 -106t-106 -44h-125v75h125q31 0 53 22t22 53t-22 53t-53 22h-75v125zM457 1075h81q-28 -68 -55 -95q-55 -55 -133 -55t-132 55q-28 27 -56 95h80q16 -29 29 -41
q33 -34 79 -34t80 34q12 12 27 41z" />
    <glyph glyph-name="uni1E1D" unicode="&#x1e1d;" horiz-adv-x="725" 
d="M567 544q-72 56 -167 56q-114 0 -194.5 -80.5t-80.5 -194.5q0 -95 56 -167zM301 -12q-83 24 -148 90q-103 102 -103 247t102.5 247.5t247.5 102.5t248 -102q13 -14 25 -29l-439 -439q72 -55 166 -55q114 0 195 81l53 -53q-103 -103 -248 -103q-12 0 -24 1v-51
q62 0 106 -44t44 -106t-44 -106t-106 -44h-125v75h125q31 0 53 22t22 53t-22 53t-53 22h-75v138zM469 900h81q-28 -68 -55 -95q-55 -55 -133 -55t-132 55q-28 27 -56 95h80q16 -29 29 -41q33 -34 79 -34t80 34q12 12 27 41z" />
    <glyph glyph-name="Fdot" unicode="&#x1e1e;" horiz-adv-x="625" 
d="M175 0h-75v825h500v-75h-425v-300h325v-75h-325v-375zM388 1025v-100h-75v100h75z" />
    <glyph glyph-name="fdot" unicode="&#x1e1f;" horiz-adv-x="300" 
d="M225 750v-100h100v-75h-100v-575q0 -135 -95 -230t-230 -95v75q104 0 177 73t73 177v750q0 135 95 230t230 95v-75q-104 0 -177 -73t-73 -177zM425 924v-100h-75v100h75z" />
    <glyph glyph-name="uni1E20" unicode="&#x1e20;" horiz-adv-x="875" 
d="M803 109q-124 -134 -315 -134q-182 0 -310 128t-128 310q0 181 128 309t310 128q181 0 309 -128l9 -9l-54 -52l-8 8q-106 106 -256 106q-151 0 -257 -106t-106 -256q0 -151 106 -257t257 -106q139 0 240 91v234h-254v75h329v-341zM600 1025v-75h-300v75h300z" />
    <glyph glyph-name="uni1E21" unicode="&#x1e21;" horiz-adv-x="825" 
d="M650 442q-20 42 -55 78q-81 80 -195 80t-194.5 -80.5t-80.5 -194.5t80.5 -194.5t194.5 -80.5t195 81q35 35 55 77v234zM650 0v80q-105 -105 -250 -105t-247.5 102.5t-102.5 247.5t102.5 247.5t247.5 102.5t250 -105v81h75v-651q0 -135 -95 -230t-230 -95v75q104 0 177 73
t73 177zM550 850v-75h-300v75h300z" />
    <glyph glyph-name="uni1E22" unicode="&#x1e22;" horiz-adv-x="875" 
d="M700 450v375h75v-825h-75v375h-525v-375h-75v825h75v-375h525zM475 1025v-100h-75v100h75z" />
    <glyph glyph-name="uni1E23" unicode="&#x1e23;" 
d="M175 461v-461h-75v825h75v-240q94 90 225 90q135 0 230 -95t95 -230v-350h-75v350q0 104 -73 177t-177 73t-177 -73q-30 -30 -48 -66zM450 875v-100h-75v100h75z" />
    <glyph glyph-name="uni1E24" unicode="&#x1e24;" horiz-adv-x="875" 
d="M700 450v375h75v-825h-75v375h-525v-375h-75v825h75v-375h525zM475 -100v-100h-75v100h75z" />
    <glyph glyph-name="uni1E25" unicode="&#x1e25;" 
d="M175 461v-461h-75v825h75v-240q94 90 225 90q135 0 230 -95t95 -230v-350h-75v350q0 104 -73 177t-177 73t-177 -73q-30 -30 -48 -66zM450 -100v-100h-75v100h75z" />
    <glyph glyph-name="uni1E26" unicode="&#x1e26;" horiz-adv-x="875" 
d="M700 450v375h75v-825h-75v375h-525v-375h-75v825h75v-375h525zM388 1025v-100h-75v100h75zM563 1025v-100h-75v100h75z" />
    <glyph glyph-name="uni1E27" unicode="&#x1e27;" 
d="M175 461v-461h-75v825h75v-240q94 90 225 90q135 0 230 -95t95 -230v-350h-75v350q0 104 -73 177t-177 73t-177 -73q-30 -30 -48 -66zM375 1025v-100h-75v100h75zM550 1025v-100h-75v100h75z" />
    <glyph glyph-name="uni1E28" unicode="&#x1e28;" horiz-adv-x="875" 
d="M100 825h75v-375h525v375h75v-825h-75v375h-525v-425q62 0 106 -44t44 -106t-44 -106t-106 -44h-125v75h125q31 0 53 22t22 53t-22 53t-53 22h-75v950z" />
    <glyph glyph-name="uni1E29" unicode="&#x1e29;" 
d="M100 825h75v-240q94 90 225 90q135 0 230 -95t95 -230v-350h-75v350q0 104 -73 177t-177 73t-177 -73q-30 -30 -48 -66v-511q62 0 106 -44t44 -106t-44 -106t-106 -44h-125v75h125q31 0 53 22t22 53t-22 53t-53 22h-75v950z" />
    <glyph glyph-name="uni1E2A" unicode="&#x1e2a;" horiz-adv-x="875" 
d="M700 450v375h75v-825h-75v375h-525v-375h-75v825h75v-375h525zM545 -101h81q-28 -68 -55 -95q-55 -55 -133 -55t-132 55q-28 27 -56 95h80q16 -29 29 -41q33 -34 79 -34t80 34q12 12 27 41z" />
    <glyph glyph-name="uni1E2B" unicode="&#x1e2b;" 
d="M175 461v-461h-75v825h75v-240q94 90 225 90q135 0 230 -95t95 -230v-350h-75v350q0 104 -73 177t-177 73t-177 -73q-30 -30 -48 -66zM520 -101h81q-28 -68 -55 -95q-55 -55 -133 -55t-132 55q-28 27 -56 95h80q16 -29 29 -41q33 -34 79 -34t80 34q12 12 27 41z" />
    <glyph glyph-name="uni1E2C" unicode="&#x1e2c;" horiz-adv-x="275" 
d="M175 825v-825h-75v825h75zM325 -109v-77q-52 -19 -98 -19q-43 0 -87.5 15t-90.5 15q-42 0 -99 -21v77q52 19 99 19q49 0 94 -15t84 -15q41 0 98 21z" />
    <glyph glyph-name="uni1E2D" unicode="&#x1e2d;" horiz-adv-x="275" 
d="M175 650v-650h-75v650h75zM175 850v-100h-75v100h75zM325 -109v-77q-52 -19 -98 -19q-43 0 -87.5 15t-90.5 15q-42 0 -99 -21v77q52 19 99 19q49 0 94 -15t84 -15q41 0 98 21z" />
    <glyph glyph-name="uni1E30" unicode="&#x1e30;" horiz-adv-x="650" 
d="M175 825v-825h-75v825h75zM618 825l-299 -412l299 -413h-94l-299 413l299 412h94zM313 925l60 225h79l-60 -225h-79z" />
    <glyph glyph-name="uni1E31" unicode="&#x1e31;" horiz-adv-x="600" 
d="M175 825v-825h-75v825h75zM549 650l-236 -325l236 -325h-93l-236 325l236 325h93zM325 825l60 225h79l-60 -225h-79z" />
    <glyph glyph-name="uni1E32" unicode="&#x1e32;" horiz-adv-x="650" 
d="M175 825v-825h-75v825h75zM618 825l-299 -412l299 -413h-94l-299 413l299 412h94zM374 -100v-100h-75v100h75z" />
    <glyph glyph-name="uni1E33" unicode="&#x1e33;" horiz-adv-x="600" 
d="M175 825v-825h-75v825h75zM549 650l-236 -325l236 -325h-93l-236 325l236 325h93zM326 -100v-100h-75v100h75z" />
    <glyph glyph-name="uni1E34" unicode="&#x1e34;" horiz-adv-x="650" 
d="M175 825v-825h-75v825h75zM618 825l-299 -412l299 -413h-94l-299 413l299 412h94zM500 -100v-75h-300v75h300z" />
    <glyph glyph-name="uni1E35" unicode="&#x1e35;" horiz-adv-x="600" 
d="M175 825v-825h-75v825h75zM549 650l-236 -325l236 -325h-93l-236 325l236 325h93zM474 -100v-75h-300v75h300z" />
    <glyph glyph-name="uni1E36" unicode="&#x1e36;" horiz-adv-x="550" 
d="M100 825h75v-750h400v-75h-475v825zM349 -100v-100h-75v100h75z" />
    <glyph glyph-name="uni1E37" unicode="&#x1e37;" horiz-adv-x="275" 
d="M175 825v-825h-75v825h75zM175 -100v-100h-75v100h75z" />
    <glyph glyph-name="uni1E3A" unicode="&#x1e3a;" horiz-adv-x="550" 
d="M100 825h75v-750h400v-75h-475v825zM474 -100v-75h-300v75h300z" />
    <glyph glyph-name="uni1E3B" unicode="&#x1e3b;" horiz-adv-x="275" 
d="M176 825v-825h-75v825h75zM288 -100v-75h-300v75h300z" />
    <glyph glyph-name="uni1E3C" unicode="&#x1e3c;" horiz-adv-x="550" 
d="M100 825h75v-750h400v-75h-475v825zM438 -282l-100 102l-102 -102h-107l209 207l207 -207h-107z" />
    <glyph glyph-name="uni1E3D" unicode="&#x1e3d;" horiz-adv-x="275" 
d="M175 825v-825h-75v825h75zM239 -283l-100 102l-102 -102h-107l209 207l207 -207h-107z" />
    <glyph glyph-name="uni1E3E" unicode="&#x1e3e;" horiz-adv-x="1050" 
d="M492 240l-317 439v-679h-75v825h62l363 -502l361 502h64v-825h-75v681l-317 -441h-66zM479 925l60 225h79l-60 -225h-79z" />
    <glyph glyph-name="uni1E3F" unicode="&#x1e3f;" horiz-adv-x="1150" 
d="M625 0h-75v400q0 83 -58.5 141.5t-141.5 58.5t-141 -58q-21 -21 -34 -44v-498h-75v650h75v-38q74 63 175 63q114 0 195 -80q17 -18 30 -36q14 19 31 36q80 80 194 80t194.5 -80.5t80.5 -194.5v-400h-75v400q0 83 -58.5 141.5t-141.5 58.5t-141 -58q-21 -21 -34 -44v-498z
M541 750l60 225h79l-60 -225h-79z" />
    <glyph glyph-name="uni1E40" unicode="&#x1e40;" horiz-adv-x="1050" 
d="M492 240l-317 439v-679h-75v825h62l363 -502l361 502h64v-825h-75v681l-317 -441h-66zM563 1025v-100h-75v100h75z" />
    <glyph glyph-name="uni1E41" unicode="&#x1e41;" horiz-adv-x="1150" 
d="M625 0h-75v400q0 83 -58.5 141.5t-141.5 58.5t-141 -58q-21 -21 -34 -44v-498h-75v650h75v-38q74 63 175 63q114 0 195 -80q17 -18 30 -36q14 19 31 36q80 80 194 80t194.5 -80.5t80.5 -194.5v-400h-75v400q0 83 -58.5 141.5t-141.5 58.5t-141 -58q-21 -21 -34 -44v-498z
M625 850v-100h-75v100h75z" />
    <glyph glyph-name="uni1E42" unicode="&#x1e42;" horiz-adv-x="1050" 
d="M492 240l-317 439v-679h-75v825h62l363 -502l361 502h64v-825h-75v681l-317 -441h-66zM563 -100v-100h-75v100h75z" />
    <glyph glyph-name="uni1E43" unicode="&#x1e43;" horiz-adv-x="1150" 
d="M625 0h-75v400q0 83 -58.5 141.5t-141.5 58.5t-141 -58q-21 -21 -34 -44v-498h-75v650h75v-38q74 63 175 63q114 0 195 -80q17 -18 30 -36q14 19 31 36q80 80 194 80t194.5 -80.5t80.5 -194.5v-400h-75v400q0 83 -58.5 141.5t-141.5 58.5t-141 -58q-21 -21 -34 -44v-498z
M625 -100v-100h-75v100h75z" />
    <glyph glyph-name="uni1E44" unicode="&#x1e44;" horiz-adv-x="850" 
d="M100 825h56l519 -677v677h75v-825h-57l-518 676v-676h-75v825zM463 1025v-100h-75v100h75z" />
    <glyph glyph-name="uni1E45" unicode="&#x1e45;" 
d="M175 461v-461h-75v650h75v-65q94 90 225 90q135 0 230 -95t95 -230v-350h-75v350q0 104 -73 177t-177 73t-177 -73q-30 -30 -48 -66zM450 850v-100h-75v100h75z" />
    <glyph glyph-name="uni1E46" unicode="&#x1e46;" horiz-adv-x="850" 
d="M100 825h56l519 -677v677h75v-825h-57l-518 676v-676h-75v825zM463 -100v-100h-75v100h75z" />
    <glyph glyph-name="uni1E47" unicode="&#x1e47;" 
d="M175 461v-461h-75v650h75v-65q94 90 225 90q135 0 230 -95t95 -230v-350h-75v350q0 104 -73 177t-177 73t-177 -73q-30 -30 -48 -66zM450 -100v-100h-75v100h75z" />
    <glyph glyph-name="uni1E48" unicode="&#x1e48;" horiz-adv-x="850" 
d="M100 825h56l519 -677v677h75v-825h-57l-518 676v-676h-75v825zM575 -100v-75h-300v75h300z" />
    <glyph glyph-name="uni1E49" unicode="&#x1e49;" 
d="M175 461v-461h-75v650h75v-65q94 90 225 90q135 0 230 -95t95 -230v-350h-75v350q0 104 -73 177t-177 73t-177 -73q-30 -30 -48 -66zM563 -100v-75h-300v75h300z" />
    <glyph glyph-name="uni1E4A" unicode="&#x1e4a;" horiz-adv-x="850" 
d="M100 825h56l519 -677v677h75v-825h-57l-518 676v-676h-75v825zM526 -283l-100 102l-102 -102h-107l209 207l207 -207h-107z" />
    <glyph glyph-name="uni1E4B" unicode="&#x1e4b;" 
d="M175 461v-461h-75v650h75v-65q94 90 225 90q135 0 230 -95t95 -230v-350h-75v350q0 104 -73 177t-177 73t-177 -73q-30 -30 -48 -66zM514 -283l-100 102l-102 -102h-107l209 207l207 -207h-107z" />
    <glyph glyph-name="uni1E54" unicode="&#x1e54;" horiz-adv-x="750" 
d="M388 750h-213v-475h213q98 0 167.5 69.5t69.5 168.5q0 98 -69.5 167.5t-167.5 69.5zM100 825h288q129 0 220.5 -91.5t91.5 -220.5q0 -130 -91.5 -221.5t-220.5 -91.5h-213v-200h-75v825zM336 925l60 225h79l-60 -225h-79z" />
    <glyph glyph-name="uni1E55" unicode="&#x1e55;" horiz-adv-x="825" 
d="M174 208q20 -42 56 -78q80 -80 194 -80t194.5 80.5t80.5 194.5t-80.5 194.5t-194.5 80.5t-194 -81q-36 -35 -56 -77v-234zM174 -175h-75v825h75v-80q105 105 250 105t247.5 -102.5t102.5 -247.5t-102.5 -247.5t-247.5 -102.5t-250 105v-255zM410 775l60 225h79l-60 -225
h-79z" />
    <glyph glyph-name="uni1E56" unicode="&#x1e56;" horiz-adv-x="750" 
d="M388 750h-213v-475h213q98 0 167.5 69.5t69.5 168.5q0 98 -69.5 167.5t-167.5 69.5zM100 825h288q129 0 220.5 -91.5t91.5 -220.5q0 -130 -91.5 -221.5t-220.5 -91.5h-213v-200h-75v825zM424 1025v-100h-75v100h75z" />
    <glyph glyph-name="uni1E57" unicode="&#x1e57;" horiz-adv-x="825" 
d="M174 208q20 -42 56 -78q80 -80 194 -80t194.5 80.5t80.5 194.5t-80.5 194.5t-194.5 80.5t-194 -81q-36 -35 -56 -77v-234zM174 -175h-75v825h75v-80q105 105 250 105t247.5 -102.5t102.5 -247.5t-102.5 -247.5t-247.5 -102.5t-250 105v-255zM474 876v-100h-75v100h75z
" />
    <glyph glyph-name="uni1E58" unicode="&#x1e58;" horiz-adv-x="775" 
d="M388 750h-213v-475h213q98 0 167.5 69.5t69.5 168.5q0 98 -69.5 167.5t-167.5 69.5zM483 214q-45 -14 -95 -14h-213v-200h-75v825h288q129 0 220.5 -91.5t91.5 -220.5q0 -130 -91 -221q-28 -28 -58 -47l125 -245h-84zM425 1025v-100h-75v100h75z" />
    <glyph glyph-name="uni1E59" unicode="&#x1e59;" horiz-adv-x="425" 
d="M175 461v-461h-75v650h75v-65q94 90 225 90v-75q-104 0 -177 -73q-30 -30 -48 -66zM288 876v-100h-75v100h75z" />
    </font>
</defs>
</svg>
